<svg width="438" height="655" viewBox="0 0 438 655" fill="none" xmlns="http://www.w3.org/2000/svg">
<g clip-path="url(#clip0_203_32662)">
<g opacity="0.08">
<path d="M223.087 277.112L70.3094 277.112C60.02 277.112 51.6487 270.549 51.6487 262.482L51.6487 220.732C51.6487 211.816 42.3965 204.562 31.0237 204.562L-57.1509 204.562C-67.4403 204.562 -75.8116 197.999 -75.8116 189.932L-75.8116 93.4275C-75.8116 84.5115 -85.0639 77.2578 -96.4366 77.2578L-298.539 77.2578V78.7978L-96.4366 78.7978C-86.1472 78.7978 -77.7759 85.3606 -77.7759 93.4275L-77.7759 189.933C-77.7759 198.849 -68.5236 206.102 -57.1509 206.102L31.0237 206.102C41.3131 206.102 49.6844 212.665 49.6844 220.732L49.6844 262.482C49.6844 271.398 58.9367 278.652 70.3094 278.652L223.087 278.652C233.376 278.652 241.748 285.215 241.748 293.282V310.991C241.748 319.058 233.376 325.621 223.087 325.621L-298.539 325.621V327.161L223.087 327.161C234.46 327.161 243.712 319.907 243.712 310.991V293.281C243.712 284.365 234.46 277.112 223.087 277.112Z" fill="#176DB3"/>
<path d="M168.414 0L168.414 406.21C168.414 414.277 160.043 420.84 149.754 420.84H42.3729C31.0002 420.84 21.7479 428.094 21.7479 437.01V589.637C21.7479 597.704 13.3766 604.267 3.08724 604.267L-197.706 604.267C-207.995 604.267 -216.367 597.704 -216.367 589.637L-216.367 419.214C-216.367 410.298 -225.619 403.044 -236.992 403.044H-298.539V404.584H-236.992C-226.702 404.584 -218.331 411.147 -218.331 419.214L-218.331 589.637C-218.331 598.553 -209.079 605.807 -197.706 605.807L3.08724 605.807C14.4599 605.807 23.7122 598.553 23.7122 589.637V437.01C23.7122 428.943 32.0835 422.38 42.3729 422.38H149.754C161.126 422.38 170.379 415.126 170.379 406.21L170.379 0L168.414 0Z" fill="#176DB3"/>
<path d="M-165.077 233.052L-165.077 371.992C-165.077 380.908 -155.825 388.162 -144.452 388.162L83.4048 388.162C93.6942 388.162 102.065 394.725 102.065 402.792V474.657C102.065 483.572 111.318 490.826 122.69 490.826H179.437C189.726 490.826 198.097 497.389 198.097 505.456L198.097 654.32H200.062L200.062 505.456C200.062 496.54 190.809 489.286 179.437 489.286H122.69C112.401 489.286 104.03 482.723 104.03 474.656V402.791C104.03 393.876 94.7775 386.622 83.4048 386.622L-144.452 386.622C-154.741 386.622 -163.113 380.059 -163.113 371.992L-163.113 233.052C-163.113 224.136 -172.365 216.883 -183.738 216.883L-298.539 216.883V218.423L-183.738 218.423C-173.448 218.423 -165.077 224.986 -165.077 233.052Z" fill="#176DB3"/>
<path d="M95.0795 0V43.4616C95.0795 51.5285 86.7082 58.0913 76.4188 58.0913L-51.9141 58.0913C-62.2035 58.0913 -70.5748 51.5285 -70.5748 43.4616V0L-72.5391 0V43.4616C-72.5391 52.3776 -63.2868 59.6313 -51.9141 59.6313L76.4188 59.6313C87.7915 59.6313 97.0438 52.3776 97.0438 43.4616V0L95.0795 0Z" fill="#176DB3"/>
<path d="M241.748 0V162.552C241.748 170.619 233.376 177.182 223.087 177.182L115.706 177.182C105.416 177.182 97.0452 170.619 97.0452 162.552V157.761C97.0452 148.845 87.793 141.592 76.4203 141.592H37.1346C25.7619 141.592 16.5097 148.845 16.5097 157.761L16.5097 228.258C16.5097 237.174 25.7619 244.427 37.1346 244.427L102.611 244.427C112.9 244.427 121.272 250.99 121.272 259.057V345.98C121.272 354.895 130.524 362.149 141.897 362.149H205.626C215.916 362.149 224.287 368.712 224.287 376.779L224.287 438.378C224.287 446.445 215.916 453.008 205.626 453.008L-298.539 453.008V454.547L205.627 454.547C216.999 454.547 226.252 447.293 226.252 438.378L226.252 376.779C226.252 367.863 216.999 360.609 205.627 360.609H141.897C131.607 360.609 123.236 354.046 123.236 345.98V259.057C123.236 250.141 113.984 242.887 102.611 242.887L37.1346 242.887C26.8452 242.887 18.4739 236.325 18.4739 228.258L18.4739 157.761C18.4739 149.694 26.8452 143.132 37.1346 143.132H76.4203C86.7097 143.132 95.0809 149.694 95.0809 157.761V162.552C95.0809 171.468 104.333 178.722 115.706 178.722L223.087 178.722C234.46 178.722 243.712 171.468 243.712 162.552V0L241.748 0Z" fill="#176DB3"/>
<path d="M-173.807 584.844L-173.807 617.012C-173.807 625.928 -164.555 633.182 -153.182 633.182H57.2145C68.5872 633.182 77.8395 625.928 77.8395 617.012L77.8395 557.467C77.8395 549.4 86.2108 542.837 96.5002 542.837L235.309 542.837C245.598 542.837 253.97 549.4 253.97 557.467V654.313H255.934V557.467C255.934 548.551 246.682 541.297 235.309 541.297L96.5002 541.297C85.1275 541.297 75.8752 548.551 75.8752 557.467L75.8752 617.012C75.8752 625.079 67.5039 631.641 57.2145 631.641H-153.182C-163.472 631.641 -171.843 625.079 -171.843 617.012L-171.843 584.844C-171.843 575.928 -181.095 568.674 -192.468 568.674H-298.539V570.214H-192.468C-182.178 570.214 -173.807 576.777 -173.807 584.844Z" fill="#176DB3"/>
<path d="M124.98 654.312L124.98 609.482C124.98 601.416 133.351 594.852 143.641 594.852H377.172V593.312H143.641C132.268 593.312 123.016 600.567 123.016 609.482L123.016 654.312H124.98Z" fill="#176DB3"/>
<path d="M124.98 72.2072L124.98 0L123.016 0L123.016 72.2072C123.016 81.1232 132.268 88.3769 143.641 88.3769L343.997 88.3769V86.837L143.641 86.837C133.351 86.837 124.98 80.2742 124.98 72.2072Z" fill="#176DB3"/>
<path d="M131.964 186.807L131.964 129.015C131.964 120.099 122.712 112.845 111.339 112.845L28.4029 112.845C23.4451 112.845 18.828 111.322 15.4004 108.557C11.9737 105.791 10.1651 102.129 10.308 98.2444C10.3198 97.9272 11.4821 66.1271 11.9894 34.2346C12.2158 20.0201 12.2673 8.82557 12.2006 0L10.2446 0C10.444 27.6579 9.46824 67.6628 8.34467 98.2001C8.18606 102.505 10.1916 106.564 13.9915 109.63C17.7919 112.697 22.9098 114.386 28.4029 114.386L111.339 114.386C121.629 114.386 130 120.948 130 129.015L130 186.807C130 195.723 139.252 202.977 150.625 202.977L300.348 202.977V201.437L150.625 201.437C140.335 201.437 131.964 194.874 131.964 186.807Z" fill="#176DB3"/>
<path d="M208.792 233.049L208.792 0L206.828 0L206.828 233.049C206.828 241.965 216.08 249.218 227.453 249.218L398.128 249.218V247.679L227.453 247.679C217.164 247.679 208.792 241.115 208.792 233.049Z" fill="#176DB3"/>
<path d="M289.871 654.317L289.871 382.256C289.871 374.189 298.242 367.626 308.531 367.626H398.125V366.086H308.531C297.159 366.086 287.906 373.34 287.906 382.256L287.906 654.317H289.871Z" fill="#176DB3"/>
<path d="M354.915 309.961C343.543 309.961 334.29 317.215 334.29 326.131L334.29 413.053C334.29 421.12 325.918 427.683 315.629 427.683H262.375C251.002 427.683 241.75 434.937 241.75 443.853L241.75 493.816C241.75 502.732 251.002 509.986 262.375 509.986H308.645C318.934 509.986 327.306 516.548 327.306 524.615L327.306 654.315H329.27L329.27 524.616C329.27 515.7 320.017 508.446 308.645 508.446H262.375C252.086 508.446 243.714 501.883 243.714 493.816L243.714 443.853C243.714 435.787 252.086 429.223 262.375 429.223H315.629C327.001 429.223 336.254 421.969 336.254 413.054L336.254 326.131C336.254 318.064 344.625 311.501 354.915 311.501H433.048V309.961H354.915Z" fill="#176DB3"/>
<path d="M229.413 326.387C229.413 329.126 226.582 331.345 223.089 331.345C219.597 331.345 216.766 329.126 216.766 326.387C216.766 323.649 219.597 321.43 223.089 321.43C226.582 321.43 229.413 323.649 229.413 326.387Z" fill="#54F4FC"/>
<path d="M223.088 331.732C219.331 331.732 216.273 329.336 216.273 326.39C216.273 323.444 219.331 321.047 223.088 321.047C226.845 321.047 229.903 323.444 229.903 326.39C229.903 329.336 226.846 331.732 223.088 331.732ZM223.088 321.817C219.872 321.817 217.256 323.869 217.256 326.39C217.256 328.911 219.872 330.962 223.088 330.962C226.304 330.962 228.92 328.911 228.92 326.39C228.92 323.869 226.304 321.817 223.088 321.817Z" fill="#54F4FC"/>
<path d="M246.904 310.984C246.904 312.791 245.035 314.256 242.729 314.256C240.424 314.256 238.555 312.791 238.555 310.984C238.555 309.176 240.424 307.711 242.729 307.711C245.035 307.711 246.904 309.176 246.904 310.984Z" fill="#54F4FC"/>
<path d="M242.728 314.644C240.155 314.644 238.062 313.003 238.062 310.986C238.062 308.969 240.155 307.328 242.728 307.328C245.301 307.328 247.394 308.969 247.394 310.986C247.394 313.003 245.301 314.644 242.728 314.644ZM242.728 308.098C240.697 308.098 239.045 309.393 239.045 310.986C239.045 312.578 240.697 313.874 242.728 313.874C244.759 313.874 246.412 312.578 246.412 310.986C246.412 309.393 244.759 308.098 242.728 308.098Z" fill="#54F4FC"/>
<path d="M248.952 293.277C248.952 295.971 246.167 298.155 242.73 298.155C239.294 298.155 236.508 295.971 236.508 293.277C236.508 290.582 239.294 288.398 242.73 288.398C246.167 288.398 248.952 290.582 248.952 293.277Z" fill="#54F4FC"/>
<path d="M242.729 298.542C239.027 298.542 236.016 296.181 236.016 293.279C236.016 290.377 239.027 288.016 242.729 288.016C246.431 288.016 249.442 290.377 249.442 293.279C249.442 296.181 246.431 298.542 242.729 298.542ZM242.729 288.785C239.569 288.785 236.998 290.801 236.998 293.279C236.998 295.756 239.569 297.772 242.729 297.772C245.89 297.772 248.46 295.756 248.46 293.279C248.46 290.801 245.89 288.785 242.729 288.785Z" fill="#54F4FC"/>
<path d="M229.208 277.876C229.208 280.525 226.469 282.673 223.088 282.673C219.708 282.673 216.969 280.525 216.969 277.876C216.969 275.226 219.708 273.078 223.088 273.078C226.469 273.078 229.208 275.226 229.208 277.876Z" fill="#54F4FC"/>
<path d="M223.087 283.06C219.442 283.06 216.477 280.735 216.477 277.878C216.477 275.02 219.442 272.695 223.087 272.695C226.733 272.695 229.698 275.02 229.698 277.878C229.698 280.735 226.733 283.06 223.087 283.06ZM223.087 273.465C219.984 273.465 217.459 275.445 217.459 277.878C217.459 280.311 219.984 282.291 223.087 282.291C226.191 282.291 228.716 280.311 228.716 277.878C228.716 275.445 226.191 273.465 223.087 273.465Z" fill="#54F4FC"/>
<path d="M74.9818 277.881C74.9818 279.903 72.8908 281.542 70.3112 281.542C67.7316 281.542 65.6406 279.903 65.6406 277.881C65.6406 275.858 67.7316 274.219 70.3112 274.219C72.8908 274.219 74.9818 275.858 74.9818 277.881Z" fill="#54F4FC"/>
<path d="M70.3101 281.929C67.4639 281.929 65.1484 280.114 65.1484 277.883C65.1484 275.651 67.4639 273.836 70.3101 273.836C73.1563 273.836 75.4722 275.651 75.4722 277.883C75.4722 280.114 73.1563 281.929 70.3101 281.929ZM70.3101 274.606C68.006 274.606 66.1306 276.076 66.1306 277.883C66.1306 279.69 68.0055 281.16 70.3101 281.16C72.6147 281.16 74.4901 279.69 74.4901 277.883C74.4901 276.076 72.6147 274.606 70.3101 274.606Z" fill="#54F4FC"/>
<path d="M50.6675 267.457C54.1772 267.457 57.0224 265.226 57.0224 262.475C57.0224 259.723 54.1772 257.492 50.6675 257.492C47.1577 257.492 44.3125 259.723 44.3125 262.475C44.3125 265.226 47.1577 267.457 50.6675 267.457Z" fill="#54F4FC"/>
<path d="M50.6663 267.844C46.8915 267.844 43.8203 265.436 43.8203 262.477C43.8203 259.517 46.8915 257.109 50.6663 257.109C54.4417 257.109 57.5123 259.517 57.5123 262.477C57.5123 265.437 54.4412 267.844 50.6663 267.844ZM50.6663 257.88C47.4326 257.88 44.8025 259.942 44.8025 262.477C44.8025 265.012 47.4326 267.074 50.6663 267.074C53.9 267.074 56.5302 265.012 56.5302 262.477C56.5302 259.941 53.9 257.88 50.6663 257.88Z" fill="#54F4FC"/>
<path d="M50.6642 225.064C53.7192 225.064 56.1957 223.122 56.1957 220.727C56.1957 218.332 53.7192 216.391 50.6642 216.391C47.6093 216.391 45.1328 218.332 45.1328 220.727C45.1328 223.122 47.6093 225.064 50.6642 225.064Z" fill="#54F4FC"/>
<path d="M50.667 225.451C47.3459 225.451 44.6445 223.333 44.6445 220.729C44.6445 218.126 47.3459 216.008 50.667 216.008C53.9881 216.008 56.6895 218.125 56.6895 220.729C56.6895 223.333 53.9881 225.451 50.667 225.451ZM50.667 216.778C47.8881 216.778 45.6267 218.551 45.6267 220.729C45.6267 222.908 47.8876 224.681 50.667 224.681C53.446 224.681 55.7074 222.908 55.7074 220.729C55.7074 218.551 53.446 216.778 50.667 216.778Z" fill="#54F4FC"/>
<path d="M35.3707 205.324C35.3707 207.207 33.4236 208.734 31.0213 208.734C28.619 208.734 26.6719 207.207 26.6719 205.324C26.6719 203.441 28.619 201.914 31.0213 201.914C33.4236 201.914 35.3707 203.441 35.3707 205.324Z" fill="#54F4FC"/>
<path d="M31.0236 209.121C28.3546 209.121 26.1836 207.419 26.1836 205.326C26.1836 203.234 28.3551 201.531 31.0236 201.531C33.6931 201.531 35.8641 203.234 35.8641 205.326C35.8641 207.419 33.6926 209.121 31.0236 209.121ZM31.0236 202.301C28.8963 202.301 27.1657 203.658 27.1657 205.326C27.1657 206.994 28.8963 208.351 31.0236 208.351C33.1514 208.351 34.8819 206.994 34.8819 205.326C34.8819 203.658 33.1514 202.301 31.0236 202.301Z" fill="#54F4FC"/>
<path d="M174.566 406.209C174.566 408.448 172.251 410.262 169.396 410.262C166.541 410.262 164.227 408.447 164.227 406.209C164.227 403.971 166.541 402.156 169.396 402.156C172.251 402.156 174.566 403.971 174.566 406.209Z" fill="#54F4FC"/>
<path d="M169.395 410.649C166.274 410.649 163.734 408.658 163.734 406.211C163.734 403.764 166.274 401.773 169.395 401.773C172.516 401.773 175.056 403.764 175.056 406.211C175.056 408.658 172.517 410.649 169.395 410.649ZM169.395 402.543C166.815 402.543 164.717 404.188 164.717 406.211C164.717 408.234 166.815 409.879 169.395 409.879C171.975 409.879 174.073 408.234 174.073 406.211C174.074 404.188 171.975 402.543 169.395 402.543Z" fill="#54F4FC"/>
<path d="M154.84 421.606C154.84 423.809 152.561 425.594 149.752 425.594C146.942 425.594 144.664 423.809 144.664 421.606C144.664 419.403 146.942 417.617 149.752 417.617C152.562 417.617 154.84 419.403 154.84 421.606Z" fill="#54F4FC"/>
<path d="M149.754 425.981C146.678 425.981 144.176 424.02 144.176 421.608C144.176 419.196 146.679 417.234 149.754 417.234C152.83 417.234 155.333 419.196 155.333 421.608C155.333 424.02 152.83 425.981 149.754 425.981ZM149.754 418.004C147.22 418.004 145.158 419.62 145.158 421.608C145.158 423.595 147.22 425.211 149.754 425.211C152.289 425.211 154.351 423.595 154.351 421.608C154.351 419.621 152.289 418.004 149.754 418.004Z" fill="#54F4FC"/>
<path d="M49.2756 421.605C49.2756 424.592 46.1863 427.014 42.3761 427.014C38.5654 427.014 35.4766 424.592 35.4766 421.605C35.4766 418.617 38.5654 416.195 42.3761 416.195C46.1868 416.195 49.2756 418.617 49.2756 421.605Z" fill="#54F4FC"/>
<path d="M42.375 427.401C38.2996 427.401 34.9844 424.802 34.9844 421.607C34.9844 418.412 38.2996 415.812 42.375 415.812C46.4504 415.812 49.7656 418.412 49.7656 421.607C49.7656 424.802 46.4504 427.401 42.375 427.401ZM42.375 416.583C38.8417 416.583 35.9665 418.837 35.9665 421.607C35.9665 424.377 38.8412 426.631 42.375 426.631C45.9082 426.631 48.7834 424.377 48.7834 421.607C48.7834 418.837 45.9082 416.583 42.375 416.583Z" fill="#54F4FC"/>
<path d="M28.188 437.008C28.188 439.372 25.743 441.29 22.7268 441.29C19.7107 441.29 17.2656 439.373 17.2656 437.008C17.2656 434.644 19.7107 432.727 22.7268 432.727C25.743 432.727 28.188 434.644 28.188 437.008Z" fill="#54F4FC"/>
<path d="M22.7296 441.677C19.4473 441.677 16.7773 439.583 16.7773 437.01C16.7773 434.437 19.4478 432.344 22.7296 432.344C26.0119 432.344 28.6819 434.437 28.6819 437.01C28.6819 439.583 26.0119 441.677 22.7296 441.677ZM22.7296 433.114C19.9889 433.114 17.7595 434.862 17.7595 437.01C17.7595 439.159 19.9889 440.907 22.7296 440.907C25.4703 440.907 27.6997 439.159 27.6997 437.01C27.6997 434.862 25.4703 433.114 22.7296 433.114Z" fill="#54F4FC"/>
<path d="M27.7207 589.638C27.7207 591.798 25.4868 593.549 22.7315 593.549C19.9761 593.549 17.7422 591.798 17.7422 589.638C17.7422 587.477 19.9761 585.727 22.7315 585.727C25.4868 585.727 27.7207 587.478 27.7207 589.638Z" fill="#54F4FC"/>
<path d="M22.7299 593.937C19.7083 593.937 17.25 592.01 17.25 589.64C17.25 587.271 19.7083 585.344 22.7299 585.344C25.7514 585.344 28.2097 587.271 28.2097 589.64C28.2097 592.01 25.7514 593.937 22.7299 593.937ZM22.7299 586.114C20.2495 586.114 18.2321 587.695 18.2321 589.64C18.2321 591.584 20.2495 593.167 22.7299 593.167C25.2103 593.167 27.2276 591.585 27.2276 589.64C27.2276 587.696 25.2103 586.114 22.7299 586.114Z" fill="#54F4FC"/>
<path d="M7.01825 605.032C7.01825 606.732 5.26022 608.111 3.09116 608.111C0.9221 608.111 -0.835937 606.732 -0.835937 605.032C-0.835937 603.331 0.9221 601.953 3.09116 601.953C5.26022 601.953 7.01825 603.331 7.01825 605.032Z" fill="#54F4FC"/>
<path d="M3.09004 608.498C0.65384 608.498 -1.32812 606.943 -1.32812 605.034C-1.32812 603.124 0.65384 601.57 3.09004 601.57C5.52624 601.57 7.50821 603.124 7.50821 605.034C7.50821 606.943 5.52624 608.498 3.09004 608.498ZM3.09004 602.34C1.19549 602.34 -0.345984 603.548 -0.345984 605.033C-0.345984 606.519 1.19549 607.727 3.09004 607.727C4.98459 607.727 6.52607 606.519 6.52607 605.033C6.52607 603.548 4.98508 602.34 3.09004 602.34Z" fill="#54F4FC"/>
<path d="M205.282 505.449C205.282 508.136 202.505 510.313 199.079 510.313C195.652 510.313 192.875 508.135 192.875 505.449C192.875 502.763 195.652 500.586 199.079 500.586C202.505 500.586 205.282 502.763 205.282 505.449Z" fill="#54F4FC"/>
<path d="M199.078 510.7C195.386 510.7 192.383 508.346 192.383 505.452C192.383 502.558 195.386 500.203 199.078 500.203C202.769 500.203 205.772 502.558 205.772 505.452C205.772 508.346 202.769 510.7 199.078 510.7ZM199.078 500.973C195.928 500.973 193.365 502.982 193.365 505.452C193.365 507.921 195.928 509.93 199.078 509.93C202.227 509.93 204.79 507.921 204.79 505.452C204.79 502.982 202.228 500.973 199.078 500.973Z" fill="#54F4FC"/>
<path d="M183.552 490.052C183.552 491.832 181.711 493.275 179.44 493.275C177.169 493.275 175.328 491.832 175.328 490.052C175.328 488.271 177.169 486.828 179.44 486.828C181.711 486.828 183.552 488.271 183.552 490.052Z" fill="#54F4FC"/>
<path d="M179.439 493.662C176.901 493.662 174.836 492.044 174.836 490.054C174.836 488.064 176.901 486.445 179.439 486.445C181.977 486.445 184.041 488.064 184.041 490.054C184.042 492.043 181.977 493.662 179.439 493.662ZM179.439 487.215C177.443 487.215 175.818 488.488 175.818 490.054C175.818 491.619 177.443 492.892 179.439 492.892C181.435 492.892 183.059 491.619 183.059 490.054C183.059 488.488 181.435 487.215 179.439 487.215Z" fill="#54F4FC"/>
<path d="M128.035 490.047C128.035 492.36 125.644 494.235 122.693 494.235C119.743 494.235 117.352 492.36 117.352 490.047C117.352 487.735 119.743 485.859 122.693 485.859C125.644 485.859 128.035 487.734 128.035 490.047Z" fill="#54F4FC"/>
<path d="M122.692 494.623C119.476 494.623 116.859 492.572 116.859 490.05C116.859 487.528 119.476 485.477 122.692 485.477C125.909 485.477 128.525 487.528 128.525 490.05C128.525 492.572 125.909 494.623 122.692 494.623ZM122.692 486.247C120.018 486.247 117.842 487.953 117.842 490.05C117.842 492.147 120.018 493.853 122.692 493.853C125.367 493.853 127.543 492.147 127.543 490.05C127.543 487.953 125.367 486.247 122.692 486.247Z" fill="#54F4FC"/>
<path d="M106.912 474.653C106.912 476.325 105.183 477.681 103.05 477.681C100.917 477.681 99.1875 476.325 99.1875 474.653C99.1875 472.981 100.917 471.625 103.05 471.625C105.182 471.625 106.912 472.981 106.912 474.653Z" fill="#54F4FC"/>
<path d="M103.049 478.069C100.648 478.069 98.6953 476.538 98.6953 474.655C98.6953 472.773 100.648 471.242 103.049 471.242C105.449 471.242 107.402 472.773 107.402 474.655C107.402 476.538 105.449 478.069 103.049 478.069ZM103.049 472.013C101.19 472.013 99.6775 473.199 99.6775 474.656C99.6775 476.113 101.19 477.299 103.049 477.299C104.907 477.299 106.42 476.113 106.42 474.656C106.42 473.198 104.907 472.013 103.049 472.013Z" fill="#54F4FC"/>
<path d="M108.733 402.783C108.733 405.244 106.188 407.238 103.05 407.238C99.9114 407.238 97.3672 405.244 97.3672 402.783C97.3672 400.323 99.9114 398.328 103.05 398.328C106.188 398.328 108.733 400.323 108.733 402.783Z" fill="#54F4FC"/>
<path d="M103.049 407.626C99.6442 407.626 96.875 405.455 96.875 402.786C96.875 400.117 99.6446 397.945 103.049 397.945C106.453 397.945 109.222 400.117 109.222 402.786C109.222 405.455 106.453 407.626 103.049 407.626ZM103.049 398.716C100.186 398.716 97.8571 400.541 97.8571 402.786C97.8571 405.031 100.186 406.856 103.049 406.856C105.911 406.856 108.24 405.031 108.24 402.786C108.24 400.541 105.911 398.716 103.049 398.716Z" fill="#54F4FC"/>
<path d="M87.6053 387.386C87.6053 389.204 85.725 390.678 83.4062 390.678C81.0869 390.678 79.207 389.204 79.207 387.386C79.207 385.567 81.0874 384.094 83.4062 384.094C85.725 384.094 87.6053 385.567 87.6053 387.386Z" fill="#54F4FC"/>
<path d="M83.4056 391.065C80.8191 391.065 78.7148 389.416 78.7148 387.389C78.7148 385.361 80.8191 383.711 83.4056 383.711C85.992 383.711 88.0957 385.361 88.0957 387.389C88.0957 389.415 85.9915 391.065 83.4056 391.065ZM83.4056 384.481C81.3607 384.481 79.697 385.786 79.697 387.389C79.697 388.992 81.3607 390.296 83.4056 390.296C85.4499 390.296 87.1136 388.992 87.1136 387.389C87.1136 385.785 85.4499 384.481 83.4056 384.481Z" fill="#54F4FC"/>
<path d="M82.32 58.8615C82.32 61.4168 79.6775 63.4887 76.4178 63.4887C73.1581 63.4887 70.5156 61.4172 70.5156 58.8615C70.5156 56.3062 73.1581 54.2344 76.4178 54.2344C79.6775 54.2344 82.32 56.3062 82.32 58.8615Z" fill="#54F4FC"/>
<path d="M76.4206 63.8757C72.8952 63.8757 70.0273 61.6275 70.0273 58.8636C70.0273 56.0997 72.8952 53.8516 76.4206 53.8516C79.946 53.8516 82.8138 56.0997 82.8138 58.8636C82.8138 61.6275 79.946 63.8757 76.4206 63.8757ZM76.4206 54.6217C73.4373 54.6217 71.0095 56.525 71.0095 58.8636C71.0095 61.2026 73.4368 63.1055 76.4206 63.1055C79.4043 63.1055 81.8317 61.2022 81.8317 58.8636C81.8317 56.5246 79.4038 54.6217 76.4206 54.6217Z" fill="#54F4FC"/>
<path d="M101.138 43.4567C101.138 45.6548 98.8651 47.4369 96.0616 47.4369C93.2576 47.4369 90.9844 45.6548 90.9844 43.4567C90.9844 41.2586 93.2576 39.4766 96.0616 39.4766C98.8651 39.4766 101.138 41.2586 101.138 43.4567Z" fill="#54F4FC"/>
<path d="M96.0639 47.8242C92.9937 47.8242 90.4961 45.8663 90.4961 43.4592C90.4961 41.0521 92.9937 39.0938 96.0639 39.0938C99.134 39.0938 101.632 41.0521 101.632 43.4592C101.632 45.8659 99.134 47.8242 96.0639 47.8242ZM96.0639 39.8635C93.5358 39.8635 91.4782 41.4766 91.4782 43.4588C91.4782 45.4414 93.5358 47.0537 96.0639 47.0537C98.5924 47.0537 100.65 45.441 100.65 43.4588C100.65 41.4766 98.5929 39.8635 96.0639 39.8635Z" fill="#54F4FC"/>
<path d="M205.629 457.014C207.91 457.014 209.759 455.564 209.759 453.776C209.759 451.988 207.91 450.539 205.629 450.539C203.349 450.539 201.5 451.988 201.5 453.776C201.5 455.564 203.349 457.014 205.629 457.014Z" fill="#54F4FC"/>
<path d="M205.628 457.401C203.08 457.401 201.008 455.776 201.008 453.778C201.008 451.781 203.081 450.156 205.628 450.156C208.176 450.156 210.249 451.781 210.249 453.778C210.249 455.777 208.176 457.401 205.628 457.401ZM205.628 450.927C203.622 450.927 201.99 452.207 201.99 453.779C201.99 455.352 203.622 456.632 205.628 456.632C207.634 456.632 209.267 455.352 209.267 453.779C209.267 452.207 207.634 450.927 205.628 450.927Z" fill="#54F4FC"/>
<path d="M231.27 438.374C231.27 440.972 228.585 443.077 225.272 443.077C221.959 443.077 219.273 440.972 219.273 438.374C219.273 435.777 221.959 433.672 225.272 433.672C228.585 433.672 231.27 435.778 231.27 438.374Z" fill="#54F4FC"/>
<path d="M225.271 443.464C221.692 443.464 218.781 441.182 218.781 438.377C218.781 435.571 221.692 433.289 225.271 433.289C228.849 433.289 231.76 435.571 231.76 438.377C231.76 441.182 228.849 443.464 225.271 443.464ZM225.271 434.059C222.234 434.059 219.763 435.996 219.763 438.377C219.763 440.758 222.234 442.694 225.271 442.694C228.307 442.694 230.778 440.757 230.778 438.377C230.778 435.996 228.307 434.059 225.271 434.059Z" fill="#54F4FC"/>
<path d="M229.899 376.781C229.899 378.787 227.825 380.413 225.266 380.413C222.707 380.413 220.633 378.787 220.633 376.781C220.633 374.775 222.707 373.148 225.266 373.148C227.825 373.148 229.899 374.775 229.899 376.781Z" fill="#54F4FC"/>
<path d="M225.269 380.8C222.443 380.8 220.145 378.997 220.145 376.782C220.145 374.567 222.443 372.766 225.269 372.766C228.094 372.766 230.393 374.567 230.393 376.782C230.393 378.997 228.094 380.8 225.269 380.8ZM225.269 373.535C222.985 373.535 221.127 374.992 221.127 376.782C221.127 378.574 222.985 380.03 225.269 380.03C227.552 380.03 229.41 378.574 229.41 376.782C229.41 374.992 227.552 373.535 225.269 373.535Z" fill="#54F4FC"/>
<path d="M205.626 366C208.884 366 211.525 363.93 211.525 361.375C211.525 358.821 208.884 356.75 205.626 356.75C202.368 356.75 199.727 358.821 199.727 361.375C199.727 363.93 202.368 366 205.626 366Z" fill="#54F4FC"/>
<path d="M205.625 366.387C202.101 366.387 199.234 364.14 199.234 361.377C199.234 358.615 202.101 356.367 205.625 356.367C209.149 356.367 212.016 358.615 212.016 361.377C212.016 364.14 209.149 366.387 205.625 366.387ZM205.625 357.137C202.643 357.137 200.217 359.039 200.217 361.377C200.217 363.715 202.642 365.618 205.625 365.618C208.607 365.618 211.034 363.715 211.034 361.377C211.034 359.039 208.607 357.137 205.625 357.137Z" fill="#54F4FC"/>
<path d="M141.894 365.485C144.786 365.485 147.131 363.647 147.131 361.379C147.131 359.112 144.786 357.273 141.894 357.273C139.001 357.273 136.656 359.112 136.656 361.379C136.656 363.647 139.001 365.485 141.894 365.485Z" fill="#54F4FC"/>
<path d="M141.896 365.872C138.738 365.872 136.168 363.857 136.168 361.381C136.168 358.905 138.738 356.891 141.896 356.891C145.055 356.891 147.624 358.905 147.624 361.381C147.624 363.857 145.055 365.872 141.896 365.872ZM141.896 357.66C139.279 357.66 137.15 359.33 137.15 361.381C137.15 363.432 139.279 365.102 141.896 365.102C144.513 365.102 146.642 363.433 146.642 361.381C146.642 359.33 144.513 357.66 141.896 357.66Z" fill="#54F4FC"/>
<path d="M122.254 348.908C124.318 348.908 125.992 347.596 125.992 345.977C125.992 344.359 124.318 343.047 122.254 343.047C120.189 343.047 118.516 344.359 118.516 345.977C118.516 347.596 120.189 348.908 122.254 348.908Z" fill="#54F4FC"/>
<path d="M122.253 349.295C119.92 349.295 118.023 347.807 118.023 345.98C118.023 344.152 119.92 342.664 122.253 342.664C124.584 342.664 126.481 344.151 126.481 345.98C126.481 347.807 124.584 349.295 122.253 349.295ZM122.253 343.434C120.462 343.434 119.006 344.576 119.006 345.979C119.006 347.382 120.462 348.524 122.253 348.524C124.042 348.524 125.499 347.382 125.499 345.979C125.499 344.576 124.043 343.434 122.253 343.434Z" fill="#54F4FC"/>
<path d="M127.623 259.054C127.623 261.379 125.218 263.263 122.253 263.263C119.287 263.263 116.883 261.378 116.883 259.054C116.883 256.729 119.287 254.844 122.253 254.844C125.218 254.844 127.623 256.729 127.623 259.054Z" fill="#54F4FC"/>
<path d="M122.252 263.651C119.02 263.651 116.391 261.59 116.391 259.056C116.391 256.522 119.02 254.461 122.252 254.461C125.483 254.461 128.112 256.522 128.112 259.056C128.112 261.59 125.483 263.651 122.252 263.651ZM122.252 255.231C119.561 255.231 117.373 256.947 117.373 259.056C117.373 261.165 119.561 262.88 122.252 262.88C124.941 262.88 127.13 261.165 127.13 259.056C127.13 256.947 124.942 255.231 122.252 255.231Z" fill="#54F4FC"/>
<path d="M106.632 243.659C106.632 245.399 104.832 246.809 102.613 246.809C100.393 246.809 98.5938 245.399 98.5938 243.659C98.5938 241.918 100.393 240.508 102.613 240.508C104.832 240.508 106.632 241.919 106.632 243.659Z" fill="#54F4FC"/>
<path d="M102.612 247.196C100.125 247.196 98.1016 245.61 98.1016 243.661C98.1016 241.711 100.125 240.125 102.612 240.125C105.098 240.125 107.122 241.711 107.122 243.661C107.122 245.61 105.098 247.196 102.612 247.196ZM102.612 240.895C100.666 240.895 99.0837 242.135 99.0837 243.66C99.0837 245.185 100.666 246.426 102.612 246.426C104.557 246.426 106.139 245.185 106.139 243.66C106.139 242.136 104.557 240.895 102.612 240.895Z" fill="#54F4FC"/>
<path d="M41.0938 243.652C41.0938 245.367 39.3206 246.757 37.1328 246.757C34.9451 246.757 33.1719 245.367 33.1719 243.652C33.1719 241.937 34.9451 240.547 37.1328 240.547C39.3206 240.547 41.0938 241.937 41.0938 243.652Z" fill="#54F4FC"/>
<path d="M37.1351 247.145C34.6803 247.145 32.6836 245.579 32.6836 243.655C32.6836 241.73 34.6803 240.164 37.1351 240.164C39.59 240.164 41.5872 241.73 41.5872 243.655C41.5877 245.579 39.59 247.145 37.1351 247.145ZM37.1351 240.934C35.2219 240.934 33.6657 242.155 33.6657 243.655C33.6657 245.155 35.2224 246.375 37.1351 246.375C39.0484 246.375 40.605 245.154 40.605 243.655C40.6055 242.155 39.0489 240.934 37.1351 240.934Z" fill="#54F4FC"/>
<path d="M22.2261 228.255C22.2261 230.303 20.1081 231.964 17.4961 231.964C14.8836 231.964 12.7656 230.303 12.7656 228.255C12.7656 226.207 14.8836 224.547 17.4961 224.547C20.1081 224.547 22.2261 226.207 22.2261 228.255Z" fill="#54F4FC"/>
<path d="M17.4945 232.351C14.6159 232.351 12.2734 230.515 12.2734 228.258C12.2734 226 14.6154 224.164 17.4945 224.164C20.3737 224.164 22.7161 226 22.7161 228.258C22.7161 230.515 20.3737 232.351 17.4945 232.351ZM17.4945 224.934C15.157 224.934 13.2556 226.425 13.2556 228.258C13.2556 230.09 15.157 231.581 17.4945 231.581C19.832 231.581 21.7339 230.09 21.7339 228.258C21.7339 226.425 19.832 224.934 17.4945 224.934Z" fill="#54F4FC"/>
<path d="M21.839 157.761C21.839 159.645 19.8919 161.171 17.4901 161.171C15.0882 161.171 13.1406 159.645 13.1406 157.761C13.1406 155.878 15.0877 154.352 17.4901 154.352C19.8919 154.352 21.839 155.878 21.839 157.761Z" fill="#54F4FC"/>
<path d="M17.4923 161.558C14.8234 161.558 12.6523 159.856 12.6523 157.763C12.6523 155.671 14.8239 153.969 17.4923 153.969C20.1613 153.969 22.3323 155.671 22.3323 157.763C22.3323 159.856 20.1613 161.558 17.4923 161.558ZM17.4923 154.739C15.365 154.739 13.6345 156.095 13.6345 157.763C13.6345 159.431 15.365 160.788 17.4923 160.788C19.6197 160.788 21.3502 159.431 21.3502 157.763C21.3507 156.096 19.6197 154.739 17.4923 154.739Z" fill="#54F4FC"/>
<path d="M44.0108 142.36C44.0108 145.337 40.9322 147.751 37.1343 147.751C33.3364 147.751 30.2578 145.337 30.2578 142.36C30.2578 139.382 33.3364 136.969 37.1343 136.969C40.9317 136.969 44.0108 139.382 44.0108 142.36Z" fill="#54F4FC"/>
<path d="M37.1332 148.138C33.071 148.138 29.7656 145.547 29.7656 142.362C29.7656 139.177 33.071 136.586 37.1332 136.586C41.1953 136.586 44.5007 139.177 44.5007 142.362C44.5007 145.547 41.1958 148.138 37.1332 148.138ZM37.1332 137.356C33.6122 137.356 30.7478 139.602 30.7478 142.362C30.7478 145.122 33.6122 147.368 37.1332 147.368C40.6541 147.368 43.5185 145.122 43.5185 142.362C43.5185 139.602 40.6541 137.356 37.1332 137.356Z" fill="#54F4FC"/>
<path d="M81.2625 142.357C81.2625 144.453 79.0954 146.152 76.4225 146.152C73.7492 146.152 71.582 144.453 71.582 142.357C71.582 140.261 73.7492 138.562 76.4225 138.562C79.0954 138.562 81.2625 140.261 81.2625 142.357Z" fill="#54F4FC"/>
<path d="M76.4209 146.539C73.4814 146.539 71.0898 144.664 71.0898 142.359C71.0898 140.054 73.4814 138.18 76.4209 138.18C79.3605 138.18 81.752 140.054 81.752 142.359C81.7525 144.664 79.361 146.539 76.4209 146.539ZM76.4209 138.949C74.0225 138.949 72.072 140.479 72.072 142.359C72.072 144.239 74.023 145.769 76.4209 145.769C78.8193 145.769 80.7698 144.239 80.7698 142.359C80.7703 140.479 78.8193 138.949 76.4209 138.949Z" fill="#54F4FC"/>
<path d="M100.231 157.759C100.231 159.563 98.3653 161.025 96.0647 161.025C93.7635 161.025 91.8984 159.563 91.8984 157.759C91.8984 155.955 93.764 154.492 96.0647 154.492C98.3653 154.492 100.231 155.955 100.231 157.759Z" fill="#54F4FC"/>
<path d="M96.0636 161.412C93.4953 161.412 91.4062 159.774 91.4062 157.761C91.4062 155.747 93.4958 154.109 96.0636 154.109C98.6314 154.109 100.721 155.747 100.721 157.761C100.721 159.774 98.6319 161.412 96.0636 161.412ZM96.0636 154.88C94.0369 154.88 92.3884 156.172 92.3884 157.761C92.3884 159.35 94.0369 160.642 96.0636 160.642C98.0902 160.642 99.7387 159.35 99.7387 157.761C99.7392 156.172 98.0902 154.88 96.0636 154.88Z" fill="#54F4FC"/>
<path d="M100.354 162.546C100.354 164.406 98.4319 165.913 96.06 165.913C93.6882 165.913 91.7656 164.406 91.7656 162.546C91.7656 160.687 93.6882 159.18 96.06 159.18C98.4319 159.18 100.354 160.687 100.354 162.546Z" fill="#54F4FC"/>
<path d="M96.0623 166.3C93.4238 166.3 91.2773 164.617 91.2773 162.548C91.2773 160.48 93.4238 158.797 96.0623 158.797C98.7009 158.797 100.848 160.48 100.848 162.548C100.848 164.617 98.7009 166.3 96.0623 166.3ZM96.0623 159.567C93.965 159.567 92.2595 160.905 92.2595 162.548C92.2595 164.193 93.9655 165.53 96.0623 165.53C98.1592 165.53 99.8657 164.192 99.8657 162.548C99.8657 160.905 98.1597 159.567 96.0623 159.567Z" fill="#54F4FC"/>
<path d="M119.742 177.952C119.742 179.7 117.935 181.116 115.707 181.116C113.479 181.116 111.672 179.7 111.672 177.952C111.672 176.205 113.479 174.789 115.707 174.789C117.935 174.789 119.742 176.205 119.742 177.952Z" fill="#54F4FC"/>
<path d="M115.706 181.503C113.21 181.503 111.18 179.911 111.18 177.955C111.18 175.998 113.21 174.406 115.706 174.406C118.202 174.406 120.233 175.998 120.233 177.955C120.233 179.911 118.202 181.503 115.706 181.503ZM115.706 175.176C113.751 175.176 112.162 176.422 112.162 177.955C112.162 179.487 113.751 180.733 115.706 180.733C117.66 180.733 119.25 179.487 119.25 177.955C119.25 176.423 117.66 175.176 115.706 175.176Z" fill="#54F4FC"/>
<path d="M229.994 177.947C229.994 180.938 226.902 183.362 223.087 183.362C219.272 183.362 216.18 180.938 216.18 177.947C216.18 174.956 219.272 172.531 223.087 172.531C226.902 172.531 229.994 174.956 229.994 177.947Z" fill="#54F4FC"/>
<path d="M223.086 183.749C219.006 183.749 215.688 181.147 215.688 177.949C215.688 174.75 219.007 172.148 223.086 172.148C227.165 172.148 230.484 174.751 230.484 177.949C230.485 181.147 227.166 183.749 223.086 183.749ZM223.086 172.918C219.548 172.918 216.67 175.175 216.67 177.949C216.67 180.723 219.548 182.979 223.086 182.979C226.624 182.979 229.502 180.723 229.502 177.949C229.502 175.175 226.624 172.918 223.086 172.918Z" fill="#54F4FC"/>
<path d="M247.456 162.551C247.456 164.598 245.339 166.258 242.728 166.258C240.117 166.258 238 164.598 238 162.551C238 160.503 240.117 158.844 242.728 158.844C245.339 158.844 247.456 160.503 247.456 162.551Z" fill="#54F4FC"/>
<path d="M242.727 166.645C239.849 166.645 237.508 164.809 237.508 162.553C237.508 160.296 239.849 158.461 242.727 158.461C245.605 158.461 247.946 160.296 247.946 162.553C247.946 164.809 245.605 166.645 242.727 166.645ZM242.727 159.231C240.39 159.231 238.49 160.721 238.49 162.553C238.49 164.384 240.39 165.874 242.727 165.874C245.063 165.874 246.964 164.384 246.964 162.553C246.964 160.721 245.063 159.231 242.727 159.231Z" fill="#54F4FC"/>
<path d="M261.309 557.469C261.309 560.221 258.462 562.453 254.951 562.453C251.44 562.453 248.594 560.221 248.594 557.469C248.594 554.716 251.44 552.484 254.951 552.484C258.462 552.484 261.309 554.716 261.309 557.469Z" fill="#54F4FC"/>
<path d="M254.95 562.84C251.174 562.84 248.102 560.431 248.102 557.471C248.102 554.51 251.174 552.102 254.95 552.102C258.726 552.102 261.798 554.51 261.798 557.471C261.798 560.432 258.726 562.84 254.95 562.84ZM254.95 552.872C251.715 552.872 249.084 554.935 249.084 557.471C249.084 560.007 251.715 562.07 254.95 562.07C258.185 562.07 260.816 560.006 260.816 557.471C260.816 554.935 258.185 552.872 254.95 552.872Z" fill="#54F4FC"/>
<path d="M239.322 542.071C239.322 543.81 237.524 545.219 235.306 545.219C233.087 545.219 231.289 543.81 231.289 542.071C231.289 540.332 233.087 538.922 235.306 538.922C237.524 538.922 239.322 540.332 239.322 542.071Z" fill="#54F4FC"/>
<path d="M235.308 545.607C232.823 545.607 230.801 544.022 230.801 542.073C230.801 540.124 232.822 538.539 235.308 538.539C237.794 538.539 239.816 540.124 239.816 542.073C239.816 544.022 237.794 545.607 235.308 545.607ZM235.308 539.309C233.365 539.309 231.783 540.549 231.783 542.073C231.783 543.597 233.365 544.837 235.308 544.837C237.252 544.837 238.834 543.597 238.834 542.073C238.834 540.549 237.252 539.309 235.308 539.309Z" fill="#54F4FC"/>
<path d="M101.554 542.069C101.554 544.256 99.2931 546.029 96.5038 546.029C93.7145 546.029 91.4531 544.256 91.4531 542.069C91.4531 539.882 93.7145 538.109 96.5038 538.109C99.2931 538.109 101.554 539.883 101.554 542.069Z" fill="#54F4FC"/>
<path d="M96.5027 546.416C93.4468 546.416 90.9609 544.467 90.9609 542.071C90.9609 539.676 93.4472 537.727 96.5027 537.727C99.5581 537.727 102.044 539.676 102.044 542.071C102.044 544.467 99.5581 546.416 96.5027 546.416ZM96.5027 538.496C93.9884 538.496 91.9431 540.1 91.9431 542.071C91.9431 544.042 93.9884 545.646 96.5027 545.646C99.0165 545.646 101.062 544.042 101.062 542.071C101.062 540.1 99.0165 538.496 96.5027 538.496Z" fill="#54F4FC"/>
<path d="M82.2349 557.467C82.2349 559.796 79.8267 561.685 76.8557 561.685C73.8848 561.685 71.4766 559.797 71.4766 557.467C71.4766 555.138 73.8848 553.25 76.8557 553.25C79.8267 553.25 82.2349 555.138 82.2349 557.467Z" fill="#54F4FC"/>
<path d="M76.8546 562.071C73.6175 562.071 70.9844 560.007 70.9844 557.47C70.9844 554.932 73.6175 552.867 76.8546 552.867C80.0913 552.867 82.7244 554.932 82.7244 557.47C82.7244 560.007 80.0913 562.071 76.8546 562.071ZM76.8546 553.637C74.1596 553.637 71.9665 555.357 71.9665 557.47C71.9665 559.583 74.1596 561.302 76.8546 561.302C79.5496 561.302 81.7422 559.583 81.7422 557.47C81.7422 555.357 79.5496 553.637 76.8546 553.637Z" fill="#54F4FC"/>
<path d="M76.8538 622.032C80.3931 622.032 83.2623 619.783 83.2623 617.008C83.2623 614.234 80.3931 611.984 76.8538 611.984C73.3145 611.984 70.4453 614.234 70.4453 617.008C70.4453 619.783 73.3145 622.032 76.8538 622.032Z" fill="#54F4FC"/>
<path d="M76.8571 622.42C73.0523 622.42 69.957 619.994 69.957 617.011C69.957 614.028 73.0523 611.602 76.8571 611.602C80.6614 611.602 83.7566 614.028 83.7566 617.011C83.7566 619.994 80.6614 622.42 76.8571 622.42ZM76.8571 612.371C73.5939 612.371 70.9392 614.453 70.9392 617.011C70.9392 619.569 73.5939 621.65 76.8571 621.65C80.1202 621.65 82.7745 619.569 82.7745 617.011C82.7745 614.452 80.1197 612.371 76.8571 612.371Z" fill="#54F4FC"/>
<path d="M63.9022 632.409C63.9022 635.305 60.9071 637.653 57.2128 637.653C53.5185 637.653 50.5234 635.305 50.5234 632.409C50.5234 629.512 53.5185 627.164 57.2128 627.164C60.9071 627.164 63.9022 629.512 63.9022 632.409Z" fill="#54F4FC"/>
<path d="M57.2122 638.041C53.2527 638.041 50.0313 635.515 50.0312 632.411C50.0312 629.307 53.2527 626.781 57.2122 626.781C61.1717 626.781 64.3926 629.307 64.3926 632.411C64.3926 635.515 61.1712 638.041 57.2122 638.041ZM57.2122 627.551C53.7943 627.551 51.0134 629.731 51.0134 632.411C51.0134 635.091 53.7943 637.271 57.2122 637.271C60.63 637.271 63.4105 635.091 63.4105 632.411C63.4105 629.731 60.63 627.551 57.2122 627.551Z" fill="#54F4FC"/>
<path d="M384.165 594.081C384.165 597.107 381.036 599.56 377.176 599.56C373.317 599.56 370.188 597.107 370.188 594.081C370.188 591.055 373.317 588.602 377.176 588.602C381.036 588.602 384.165 591.055 384.165 594.081Z" fill="#54F4FC"/>
<path d="M377.175 599.946C373.05 599.946 369.695 597.316 369.695 594.083C369.695 590.85 373.05 588.219 377.175 588.219C381.299 588.219 384.655 590.85 384.655 594.083C384.655 597.316 381.299 599.946 377.175 599.946ZM377.175 588.988C373.592 588.988 370.677 591.273 370.677 594.083C370.677 596.891 373.592 599.176 377.175 599.176C380.758 599.176 383.673 596.891 383.673 594.083C383.673 591.274 380.758 588.988 377.175 588.988Z" fill="#54F4FC"/>
<path d="M149.695 594.08C149.695 596.7 146.986 598.824 143.644 598.824C140.302 598.824 137.594 596.7 137.594 594.08C137.594 591.46 140.302 589.336 143.644 589.336C146.986 589.336 149.695 591.46 149.695 594.08Z" fill="#54F4FC"/>
<path d="M143.644 599.21C140.036 599.21 137.102 596.91 137.102 594.082C137.102 591.254 140.037 588.953 143.644 588.953C147.251 588.953 150.185 591.254 150.185 594.082C150.185 596.91 147.251 599.21 143.644 599.21ZM143.644 589.723C140.578 589.723 138.084 591.679 138.084 594.082C138.084 596.485 140.578 598.44 143.644 598.44C146.709 598.44 149.203 596.485 149.203 594.082C149.203 591.679 146.709 589.723 143.644 589.723Z" fill="#54F4FC"/>
<path d="M128.607 609.485C128.607 611.479 126.545 613.095 124.003 613.095C121.46 613.095 119.398 611.479 119.398 609.485C119.398 607.491 121.46 605.875 124.003 605.875C126.545 605.875 128.607 607.491 128.607 609.485Z" fill="#54F4FC"/>
<path d="M124.002 613.482C121.192 613.482 118.906 611.69 118.906 609.487C118.906 607.284 121.192 605.492 124.002 605.492C126.812 605.492 129.097 607.284 129.097 609.487C129.097 611.69 126.812 613.482 124.002 613.482ZM124.002 606.262C121.734 606.262 119.888 607.709 119.888 609.487C119.888 611.265 121.734 612.712 124.002 612.712C126.27 612.712 128.115 611.265 128.115 609.487C128.115 607.709 126.27 606.262 124.002 606.262Z" fill="#54F4FC"/>
<path d="M348.817 87.6031C348.817 89.6881 346.662 91.3782 344.002 91.3782C341.343 91.3782 339.188 89.6881 339.188 87.6031C339.188 85.5182 341.343 83.8281 344.002 83.8281C346.662 83.8281 348.817 85.5182 348.817 87.6031Z" fill="#54F4FC"/>
<path d="M344.002 91.7651C341.076 91.7651 338.695 89.8988 338.695 87.6048C338.695 85.3113 341.076 83.4453 344.002 83.4453C346.928 83.4453 349.308 85.3113 349.308 87.6048C349.308 89.8988 346.928 91.7651 344.002 91.7651ZM344.002 84.2155C341.618 84.2155 339.677 85.7362 339.677 87.6052C339.677 89.4746 341.618 90.9953 344.002 90.9953C346.386 90.9953 348.326 89.4746 348.326 87.6052C348.326 85.7362 346.386 84.2155 344.002 84.2155Z" fill="#54F4FC"/>
<path d="M149.142 87.6014C149.142 89.9831 146.679 91.9137 143.641 91.9137C140.603 91.9137 138.141 89.9831 138.141 87.6014C138.141 85.2197 140.603 83.2891 143.641 83.2891C146.679 83.2891 149.142 85.2197 149.142 87.6014Z" fill="#54F4FC"/>
<path d="M143.64 92.3007C140.336 92.3007 137.648 90.1934 137.648 87.6035C137.648 85.0135 140.337 82.9062 143.64 82.9062C146.943 82.9062 149.632 85.0135 149.632 87.6035C149.632 90.1934 146.943 92.3007 143.64 92.3007ZM143.64 83.676C140.878 83.676 138.631 85.4377 138.631 87.6035C138.631 89.7693 140.878 91.5309 143.64 91.5309C146.402 91.5309 148.649 89.7693 148.649 87.6035C148.649 85.4377 146.402 83.676 143.64 83.676Z" fill="#54F4FC"/>
<path d="M124.003 75.7627C126.512 75.7627 128.546 74.1683 128.546 72.2016C128.546 70.2349 126.512 68.6406 124.003 68.6406C121.495 68.6406 119.461 70.2349 119.461 72.2016C119.461 74.1683 121.495 75.7627 124.003 75.7627Z" fill="#54F4FC"/>
<path d="M124.002 76.15C121.227 76.15 118.969 74.3799 118.969 72.2037C118.969 70.0279 121.227 68.2578 124.002 68.2578C126.777 68.2578 129.035 70.0279 129.035 72.2037C129.035 74.3799 126.777 76.15 124.002 76.15ZM124.002 69.028C121.768 69.028 119.951 70.4525 119.951 72.2037C119.951 73.955 121.768 75.3798 124.002 75.3798C126.236 75.3798 128.053 73.955 128.053 72.2037C128.053 70.4525 126.236 69.028 124.002 69.028Z" fill="#54F4FC"/>
<path d="M305.722 202.208C305.722 204.535 303.315 206.423 300.346 206.423C297.376 206.423 294.969 204.536 294.969 202.208C294.969 199.879 297.376 197.992 300.346 197.992C303.315 197.992 305.722 199.879 305.722 202.208Z" fill="#54F4FC"/>
<path d="M300.348 206.809C297.113 206.809 294.48 204.746 294.48 202.209C294.48 199.673 297.113 197.609 300.348 197.609C303.583 197.609 306.215 199.673 306.215 202.209C306.215 204.746 303.583 206.809 300.348 206.809ZM300.348 198.379C297.654 198.379 295.463 200.097 295.463 202.209C295.463 204.321 297.654 206.04 300.348 206.04C303.041 206.04 305.233 204.321 305.233 202.209C305.233 200.097 303.042 198.379 300.348 198.379Z" fill="#54F4FC"/>
<path d="M150.63 207.181C154.136 207.181 156.978 204.952 156.978 202.204C156.978 199.455 154.136 197.227 150.63 197.227C147.124 197.227 144.281 199.455 144.281 202.204C144.281 204.952 147.124 207.181 150.63 207.181Z" fill="#54F4FC"/>
<path d="M150.629 207.568C146.857 207.568 143.789 205.162 143.789 202.206C143.789 199.249 146.857 196.844 150.629 196.844C154.4 196.844 157.468 199.249 157.468 202.206C157.468 205.162 154.4 207.568 150.629 207.568ZM150.629 197.614C147.399 197.614 144.771 199.673 144.771 202.206C144.771 204.738 147.399 206.798 150.629 206.798C153.858 206.798 156.486 204.738 156.486 202.206C156.486 199.673 153.858 197.614 150.629 197.614Z" fill="#54F4FC"/>
<path d="M130.981 190.143C133.335 190.143 135.243 188.648 135.243 186.802C135.243 184.957 133.335 183.461 130.981 183.461C128.627 183.461 126.719 184.957 126.719 186.802C126.719 188.648 128.627 190.143 130.981 190.143Z" fill="#54F4FC"/>
<path d="M130.984 190.53C128.363 190.53 126.23 188.859 126.23 186.804C126.23 184.75 128.363 183.078 130.984 183.078C133.604 183.078 135.737 184.75 135.737 186.804C135.736 188.859 133.604 190.53 130.984 190.53ZM130.984 183.848C128.904 183.848 127.213 185.174 127.213 186.804C127.213 188.435 128.904 189.761 130.984 189.761C133.063 189.761 134.754 188.435 134.754 186.804C134.754 185.174 133.063 183.848 130.984 183.848Z" fill="#54F4FC"/>
<path d="M130.984 132.985C133.78 132.985 136.047 131.208 136.047 129.016C136.047 126.824 133.78 125.047 130.984 125.047C128.188 125.047 125.922 126.824 125.922 129.016C125.922 131.208 128.188 132.985 130.984 132.985Z" fill="#54F4FC"/>
<path d="M130.983 133.372C127.921 133.372 125.43 131.419 125.43 129.018C125.43 126.617 127.921 124.664 130.983 124.664C134.045 124.664 136.536 126.617 136.536 129.018C136.536 131.419 134.045 133.372 130.983 133.372ZM130.983 125.434C128.463 125.434 126.412 127.042 126.412 129.018C126.412 130.994 128.463 132.602 130.983 132.602C133.504 132.602 135.554 130.994 135.554 129.018C135.554 127.042 133.503 125.434 130.983 125.434Z" fill="#54F4FC"/>
<path d="M111.338 117.441C114.036 117.441 116.223 115.727 116.223 113.611C116.223 111.496 114.036 109.781 111.338 109.781C108.64 109.781 106.453 111.496 106.453 113.611C106.453 115.727 108.64 117.441 111.338 117.441Z" fill="#54F4FC"/>
<path d="M111.341 117.828C108.376 117.828 105.965 115.937 105.965 113.613C105.965 111.289 108.376 109.398 111.341 109.398C114.306 109.398 116.717 111.289 116.717 113.613C116.717 115.937 114.306 117.828 111.341 117.828ZM111.341 110.168C108.918 110.168 106.947 111.714 106.947 113.613C106.947 115.512 108.919 117.058 111.341 117.058C113.764 117.058 115.735 115.512 115.735 113.613C115.735 111.714 113.764 110.168 111.341 110.168Z" fill="#54F4FC"/>
<path d="M28.4089 117.215C30.9474 117.215 33.0053 115.602 33.0053 113.612C33.0053 111.621 30.9474 110.008 28.4089 110.008C25.8704 110.008 23.8125 111.621 23.8125 113.612C23.8125 115.602 25.8704 117.215 28.4089 117.215Z" fill="#54F4FC"/>
<path d="M28.4078 117.602C25.6023 117.602 23.3203 115.813 23.3203 113.614C23.3203 111.414 25.6028 109.625 28.4078 109.625C31.2133 109.625 33.4953 111.414 33.4953 113.614C33.4953 115.813 31.2133 117.602 28.4078 117.602ZM28.4078 110.395C26.144 110.395 24.3025 111.839 24.3025 113.614C24.3025 115.389 26.144 116.832 28.4078 116.832C30.6716 116.832 32.5131 115.389 32.5131 113.614C32.5131 111.839 30.6716 110.395 28.4078 110.395Z" fill="#54F4FC"/>
<path d="M16.1063 98.2185C16.1063 101.152 13.0725 103.53 9.3305 103.53C5.58854 103.53 2.55469 101.152 2.55469 98.2185C2.55469 95.2849 5.58805 92.9062 9.3305 92.9062C13.0725 92.9062 16.1063 95.2845 16.1063 98.2185Z" fill="#54F4FC"/>
<path d="M9.32938 103.918C5.32273 103.918 2.0625 101.362 2.0625 98.2206C2.0625 95.0795 5.32273 92.5234 9.32938 92.5234C13.336 92.5234 16.5962 95.0791 16.5962 98.2206C16.5962 101.362 13.336 103.918 9.32938 103.918ZM9.32938 93.2936C5.86389 93.2936 3.04464 95.504 3.04464 98.2206C3.04464 100.937 5.86389 103.148 9.32938 103.148C12.7949 103.148 15.6141 100.937 15.6141 98.2206C15.6141 95.504 12.7949 93.2936 9.32938 93.2936Z" fill="#54F4FC"/>
<path d="M398.125 252.346C400.869 252.346 403.094 250.602 403.094 248.45C403.094 246.299 400.869 244.555 398.125 244.555C395.381 244.555 393.156 246.299 393.156 248.45C393.156 250.602 395.381 252.346 398.125 252.346Z" fill="#54F4FC"/>
<path d="M398.124 252.733C395.114 252.733 392.664 250.812 392.664 248.452C392.664 246.092 395.114 244.172 398.124 244.172C401.135 244.172 403.584 246.092 403.584 248.452C403.584 250.813 401.135 252.733 398.124 252.733ZM398.124 244.942C395.656 244.942 393.646 246.517 393.646 248.452C393.646 250.388 395.656 251.963 398.124 251.963C400.593 251.963 402.601 250.388 402.601 248.452C402.602 246.517 400.593 244.942 398.124 244.942Z" fill="#54F4FC"/>
<path d="M232.23 248.447C232.23 250.515 230.092 252.19 227.455 252.19C224.818 252.19 222.68 250.514 222.68 248.447C222.68 246.38 224.817 244.703 227.455 244.703C230.092 244.704 232.23 246.379 232.23 248.447Z" fill="#54F4FC"/>
<path d="M227.454 252.577C224.55 252.577 222.188 250.725 222.188 248.449C222.188 246.172 224.55 244.32 227.454 244.32C230.357 244.32 232.72 246.172 232.72 248.449C232.72 250.725 230.357 252.577 227.454 252.577ZM227.454 245.09C225.091 245.09 223.17 246.596 223.17 248.448C223.17 250.3 225.091 251.807 227.454 251.807C229.816 251.807 231.738 250.3 231.738 248.448C231.738 246.596 229.816 245.09 227.454 245.09Z" fill="#54F4FC"/>
<path d="M207.809 237.147C210.698 237.147 213.04 235.311 213.04 233.046C213.04 230.781 210.698 228.945 207.809 228.945C204.92 228.945 202.578 230.781 202.578 233.046C202.578 235.311 204.92 237.147 207.809 237.147Z" fill="#54F4FC"/>
<path d="M207.808 237.534C204.653 237.534 202.086 235.522 202.086 233.048C202.086 230.575 204.653 228.562 207.808 228.562C210.963 228.562 213.53 230.575 213.53 233.048C213.53 235.522 210.963 237.534 207.808 237.534ZM207.808 229.332C205.194 229.332 203.068 230.999 203.068 233.048C203.068 235.098 205.194 236.765 207.808 236.765C210.421 236.765 212.548 235.098 212.548 233.048C212.548 230.999 210.421 229.332 207.808 229.332Z" fill="#54F4FC"/>
<path d="M405.081 366.856C405.081 369.865 401.969 372.304 398.13 372.304C394.292 372.304 391.18 369.865 391.18 366.856C391.18 363.846 394.292 361.406 398.13 361.406C401.97 361.407 405.081 363.846 405.081 366.856Z" fill="#54F4FC"/>
<path d="M398.129 372.692C394.026 372.692 390.688 370.074 390.688 366.858C390.688 363.641 394.026 361.023 398.129 361.023C402.233 361.023 405.57 363.641 405.57 366.858C405.57 370.074 402.233 372.692 398.129 372.692ZM398.129 361.793C394.567 361.793 391.67 364.065 391.67 366.858C391.67 369.65 394.567 371.922 398.129 371.922C401.69 371.922 404.588 369.65 404.588 366.858C404.588 364.065 401.69 361.793 398.129 361.793Z" fill="#54F4FC"/>
<path d="M313.547 366.854C313.547 369.026 311.302 370.787 308.531 370.787C305.761 370.787 303.516 369.026 303.516 366.854C303.516 364.682 305.761 362.922 308.531 362.922C311.302 362.922 313.547 364.683 313.547 366.854Z" fill="#54F4FC"/>
<path d="M308.531 371.175C305.494 371.175 303.023 369.237 303.023 366.857C303.023 364.476 305.494 362.539 308.531 362.539C311.568 362.539 314.038 364.476 314.038 366.857C314.038 369.238 311.568 371.175 308.531 371.175ZM308.531 363.309C306.035 363.309 304.006 364.9 304.006 366.857C304.006 368.813 306.035 370.404 308.531 370.404C311.026 370.404 313.056 368.813 313.056 366.857C313.056 364.9 311.026 363.309 308.531 363.309Z" fill="#54F4FC"/>
<path d="M288.887 387.193C292.368 387.193 295.189 384.981 295.189 382.253C295.189 379.524 292.368 377.312 288.887 377.312C285.407 377.312 282.586 379.524 282.586 382.253C282.586 384.981 285.407 387.193 288.887 387.193Z" fill="#54F4FC"/>
<path d="M288.89 387.58C285.145 387.58 282.098 385.191 282.098 382.255C282.098 379.319 285.145 376.93 288.89 376.93C292.636 376.93 295.683 379.319 295.683 382.255C295.683 385.192 292.636 387.58 288.89 387.58ZM288.89 377.7C285.686 377.7 283.08 379.744 283.08 382.255C283.08 384.767 285.686 386.811 288.89 386.811C292.093 386.811 294.7 384.767 294.7 382.255C294.7 379.744 292.094 377.7 288.89 377.7Z" fill="#54F4FC"/>
<path d="M436.883 310.731C436.883 312.39 435.167 313.735 433.051 313.735C430.935 313.735 429.219 312.39 429.219 310.731C429.219 309.072 430.935 307.727 433.051 307.727C435.167 307.727 436.883 309.072 436.883 310.731Z" fill="#54F4FC"/>
<path d="M433.049 314.122C430.666 314.122 428.727 312.602 428.727 310.733C428.727 308.864 430.666 307.344 433.049 307.344C435.434 307.344 437.373 308.864 437.373 310.733C437.373 312.602 435.434 314.122 433.049 314.122ZM433.049 308.114C431.207 308.114 429.709 309.289 429.709 310.733C429.709 312.177 431.207 313.352 433.049 313.352C434.892 313.352 436.391 312.177 436.391 310.733C436.391 309.289 434.892 308.114 433.049 308.114Z" fill="#54F4FC"/>
<path d="M354.912 314.26C357.4 314.26 359.417 312.678 359.417 310.727C359.417 308.777 357.4 307.195 354.912 307.195C352.423 307.195 350.406 308.777 350.406 310.727C350.406 312.678 352.423 314.26 354.912 314.26Z" fill="#54F4FC"/>
<path d="M354.911 314.647C352.156 314.647 349.914 312.889 349.914 310.73C349.914 308.57 352.156 306.812 354.911 306.812C357.666 306.812 359.907 308.57 359.907 310.73C359.907 312.89 357.666 314.647 354.911 314.647ZM354.911 307.583C352.697 307.583 350.896 308.994 350.896 310.73C350.896 312.465 352.697 313.877 354.911 313.877C357.125 313.877 358.925 312.465 358.925 310.73C358.925 308.994 357.125 307.583 354.911 307.583Z" fill="#54F4FC"/>
<path d="M341.099 326.126C341.099 328.651 338.489 330.698 335.268 330.698C332.048 330.698 329.438 328.651 329.438 326.126C329.438 323.601 332.048 321.555 335.268 321.555C338.489 321.555 341.099 323.601 341.099 326.126Z" fill="#54F4FC"/>
<path d="M335.268 331.084C331.781 331.084 328.945 328.861 328.945 326.128C328.945 323.395 331.781 321.172 335.268 321.172C338.753 321.172 341.589 323.395 341.589 326.128C341.59 328.861 338.753 331.084 335.268 331.084ZM335.268 321.942C332.323 321.942 329.927 323.82 329.927 326.128C329.927 328.436 332.323 330.315 335.268 330.315C338.212 330.315 340.607 328.436 340.607 326.128C340.608 323.82 338.213 321.942 335.268 321.942Z" fill="#54F4FC"/>
<path d="M341.571 413.049C341.571 415.778 338.749 417.99 335.27 417.99C331.789 417.99 328.969 415.778 328.969 413.049C328.969 410.321 331.79 408.109 335.27 408.109C338.749 408.109 341.571 410.321 341.571 413.049Z" fill="#54F4FC"/>
<path d="M335.269 418.377C331.524 418.377 328.477 415.988 328.477 413.052C328.477 410.116 331.524 407.727 335.269 407.727C339.013 407.727 342.061 410.116 342.061 413.052C342.061 415.989 339.013 418.377 335.269 418.377ZM335.269 408.497C332.066 408.497 329.459 410.541 329.459 413.052C329.459 415.564 332.066 417.607 335.269 417.607C338.473 417.607 341.078 415.564 341.078 413.052C341.079 410.541 338.473 408.497 335.269 408.497Z" fill="#54F4FC"/>
<path d="M315.623 432.864C318.729 432.864 321.247 430.89 321.247 428.455C321.247 426.021 318.729 424.047 315.623 424.047C312.518 424.047 310 426.021 310 428.455C310 430.89 312.518 432.864 315.623 432.864Z" fill="#54F4FC"/>
<path d="M315.626 433.251C312.255 433.251 309.512 431.101 309.512 428.457C309.512 425.814 312.255 423.664 315.626 423.664C318.997 423.664 321.74 425.814 321.74 428.457C321.741 431.1 318.998 433.251 315.626 433.251ZM315.626 424.433C312.796 424.433 310.494 426.238 310.494 428.457C310.494 430.676 312.796 432.481 315.626 432.481C318.457 432.481 320.758 430.676 320.758 428.457C320.759 426.238 318.457 424.433 315.626 424.433Z" fill="#54F4FC"/>
<path d="M262.374 431.352C264.419 431.352 266.076 430.052 266.076 428.449C266.076 426.846 264.419 425.547 262.374 425.547C260.329 425.547 258.672 426.846 258.672 428.449C258.672 430.052 260.329 431.352 262.374 431.352Z" fill="#54F4FC"/>
<path d="M262.373 431.739C260.061 431.739 258.18 430.264 258.18 428.451C258.18 426.639 260.061 425.164 262.373 425.164C264.685 425.164 266.566 426.639 266.566 428.451C266.566 430.264 264.685 431.739 262.373 431.739ZM262.373 425.934C260.602 425.934 259.162 427.063 259.162 428.451C259.162 429.839 260.602 430.969 262.373 430.969C264.143 430.969 265.584 429.84 265.584 428.451C265.584 427.064 264.144 425.934 262.373 425.934Z" fill="#54F4FC"/>
<path d="M247.519 443.854C247.519 445.927 245.376 447.607 242.732 447.607C240.088 447.607 237.945 445.927 237.945 443.854C237.945 441.782 240.088 440.102 242.732 440.102C245.376 440.102 247.519 441.782 247.519 443.854Z" fill="#54F4FC"/>
<path d="M242.731 447.995C239.821 447.995 237.453 446.138 237.453 443.857C237.453 441.576 239.821 439.719 242.731 439.719C245.642 439.719 248.009 441.576 248.009 443.857C248.009 446.138 245.642 447.995 242.731 447.995ZM242.731 440.489C240.363 440.489 238.435 441.999 238.435 443.856C238.435 445.714 240.363 447.224 242.731 447.224C245.1 447.224 247.027 445.713 247.027 443.856C247.027 441.999 245.1 440.489 242.731 440.489Z" fill="#54F4FC"/>
<path d="M247.849 493.815C247.849 496.03 245.559 497.826 242.733 497.826C239.908 497.826 237.617 496.03 237.617 493.815C237.617 491.6 239.908 489.805 242.733 489.805C245.559 489.805 247.849 491.6 247.849 493.815Z" fill="#54F4FC"/>
<path d="M242.732 498.214C239.64 498.214 237.125 496.241 237.125 493.818C237.125 491.394 239.64 489.422 242.732 489.422C245.824 489.422 248.339 491.394 248.339 493.818C248.339 496.241 245.824 498.214 242.732 498.214ZM242.732 490.192C240.182 490.192 238.107 491.819 238.107 493.818C238.107 495.817 240.182 497.443 242.732 497.443C245.282 497.443 247.357 495.817 247.357 493.818C247.357 491.819 245.283 490.192 242.732 490.192Z" fill="#54F4FC"/>
<path d="M262.374 512.469C264.669 512.469 266.53 511.01 266.53 509.211C266.53 507.412 264.669 505.953 262.374 505.953C260.079 505.953 258.219 507.412 258.219 509.211C258.219 511.01 260.079 512.469 262.374 512.469Z" fill="#54F4FC"/>
<path d="M262.373 512.856C259.811 512.856 257.727 511.222 257.727 509.213C257.727 507.205 259.811 505.57 262.373 505.57C264.935 505.57 267.02 507.204 267.02 509.213C267.02 511.222 264.935 512.856 262.373 512.856ZM262.373 506.341C260.353 506.341 258.709 507.629 258.709 509.213C258.709 510.797 260.353 512.086 262.373 512.086C264.393 512.086 266.037 510.798 266.037 509.213C266.037 507.629 264.393 506.341 262.373 506.341Z" fill="#54F4FC"/>
<path d="M308.641 512.576C311.009 512.576 312.93 511.071 312.93 509.214C312.93 507.357 311.009 505.852 308.641 505.852C306.272 505.852 304.352 507.357 304.352 509.214C304.352 511.071 306.272 512.576 308.641 512.576Z" fill="#54F4FC"/>
<path d="M308.643 512.964C306.008 512.964 303.863 511.283 303.863 509.216C303.863 507.15 306.008 505.469 308.643 505.469C311.279 505.469 313.423 507.15 313.423 509.216C313.423 511.283 311.279 512.964 308.643 512.964ZM308.643 506.239C306.548 506.239 304.845 507.574 304.845 509.216C304.845 510.859 306.549 512.194 308.643 512.194C310.738 512.194 312.441 510.858 312.441 509.216C312.441 507.574 310.738 506.239 308.643 506.239Z" fill="#54F4FC"/>
<path d="M334.561 524.616C334.561 527.333 331.751 529.536 328.284 529.536C324.818 529.536 322.008 527.333 322.008 524.616C322.008 521.898 324.818 519.695 328.284 519.695C331.751 519.695 334.561 521.898 334.561 524.616Z" fill="#54F4FC"/>
<path d="M328.283 529.924C324.551 529.924 321.516 527.544 321.516 524.618C321.516 521.692 324.551 519.312 328.283 519.312C332.014 519.312 335.05 521.692 335.05 524.618C335.05 527.544 332.014 529.924 328.283 529.924ZM328.283 520.083C325.093 520.083 322.498 522.117 322.498 524.618C322.498 527.119 325.093 529.154 328.283 529.154C331.473 529.154 334.067 527.119 334.067 524.618C334.067 522.118 331.473 520.083 328.283 520.083Z" fill="#54F4FC"/>
</g>
</g>
<defs>
<clipPath id="clip0_203_32662">
<rect width="437.375" height="654.316" fill="white"/>
</clipPath>
</defs>
</svg>
