<svg width="438" height="655" viewBox="0 0 438 655" fill="none" xmlns="http://www.w3.org/2000/svg">
<g clip-path="url(#clip0_203_18489)">
<g opacity="0.08">
<path d="M223.089 277.112L70.3113 277.112C60.0219 277.112 51.6507 270.549 51.6507 262.482V220.732C51.6507 211.816 42.3984 204.562 31.0257 204.562H-57.149C-67.4384 204.562 -75.8096 197.999 -75.8096 189.932L-75.8096 93.4275C-75.8096 84.5115 -85.0619 77.2578 -96.4346 77.2578L-298.537 77.2578V78.7978L-96.4346 78.7978C-86.1452 78.7978 -77.7739 85.3606 -77.7739 93.4275L-77.7739 189.933C-77.7739 198.849 -68.5217 206.102 -57.149 206.102L31.0257 206.102C41.3151 206.102 49.6864 212.665 49.6864 220.732V262.482C49.6864 271.398 58.9386 278.652 70.3113 278.652L223.089 278.652C233.378 278.652 241.749 285.215 241.749 293.282V310.991C241.749 319.058 233.378 325.621 223.089 325.621L-298.537 325.621V327.161L223.089 327.161C234.461 327.161 243.714 319.907 243.714 310.991V293.281C243.714 284.365 234.461 277.112 223.089 277.112Z" fill="#176DB3"/>
<path d="M168.416 0L168.416 406.21C168.416 414.277 160.045 420.84 149.756 420.84H42.3748C31.0021 420.84 21.7499 428.094 21.7499 437.01V589.637C21.7499 597.704 13.3786 604.267 3.08919 604.267L-197.704 604.267C-207.994 604.267 -216.365 597.704 -216.365 589.637V419.214C-216.365 410.298 -225.617 403.044 -236.99 403.044H-298.537V404.584H-236.99C-226.7 404.584 -218.329 411.147 -218.329 419.214V589.637C-218.329 598.553 -209.077 605.807 -197.704 605.807L3.08919 605.807C14.4619 605.807 23.7142 598.553 23.7142 589.637V437.01C23.7142 428.943 32.0854 422.38 42.3748 422.38H149.756C161.128 422.38 170.381 415.126 170.381 406.21L170.381 0L168.416 0Z" fill="#176DB3"/>
<path d="M-165.075 233.052L-165.075 371.992C-165.075 380.908 -155.823 388.162 -144.45 388.162L83.4067 388.162C93.6961 388.162 102.067 394.725 102.067 402.792L102.067 474.657C102.067 483.572 111.32 490.826 122.692 490.826H179.439C189.728 490.826 198.099 497.389 198.099 505.456L198.099 654.32H200.063L200.063 505.456C200.063 496.54 190.811 489.286 179.439 489.286H122.692C112.403 489.286 104.032 482.723 104.032 474.656L104.032 402.791C104.032 393.876 94.7794 386.622 83.4067 386.622L-144.45 386.622C-154.739 386.622 -163.111 380.059 -163.111 371.992L-163.111 233.052C-163.111 224.136 -172.363 216.883 -183.736 216.883L-298.537 216.883V218.423L-183.736 218.423C-173.446 218.423 -165.075 224.986 -165.075 233.052Z" fill="#176DB3"/>
<path d="M95.0834 0V43.4616C95.0834 51.5285 86.7121 58.0913 76.4227 58.0913L-51.9102 58.0913C-62.1996 58.0913 -70.5709 51.5285 -70.5709 43.4616V0L-72.5352 0V43.4616C-72.5352 52.3776 -63.2829 59.6313 -51.9102 59.6313L76.4227 59.6313C87.7954 59.6313 97.0477 52.3776 97.0477 43.4616V0L95.0834 0Z" fill="#176DB3"/>
<path d="M241.749 0V162.552C241.749 170.619 233.378 177.182 223.089 177.182L115.708 177.182C105.418 177.182 97.0472 170.619 97.0472 162.552V157.761C97.0472 148.845 87.7949 141.592 76.4222 141.592L37.1366 141.592C25.7639 141.592 16.5116 148.845 16.5116 157.761V228.258C16.5116 237.174 25.7639 244.427 37.1366 244.427L102.613 244.427C112.902 244.427 121.274 250.99 121.274 259.057V345.98C121.274 354.895 130.526 362.149 141.899 362.149H205.628C215.918 362.149 224.289 368.712 224.289 376.779V438.378C224.289 446.445 215.918 453.008 205.628 453.008L-298.537 453.008V454.547L205.629 454.547C217.001 454.547 226.254 447.293 226.254 438.378V376.779C226.254 367.863 217.001 360.609 205.629 360.609H141.899C131.609 360.609 123.238 354.046 123.238 345.98V259.057C123.238 250.141 113.986 242.887 102.613 242.887L37.1366 242.887C26.8472 242.887 18.4759 236.325 18.4759 228.258V157.761C18.4759 149.694 26.8472 143.132 37.1366 143.132L76.4222 143.132C86.7116 143.132 95.0829 149.694 95.0829 157.761V162.552C95.0829 171.468 104.335 178.722 115.708 178.722L223.089 178.722C234.461 178.722 243.714 171.468 243.714 162.552V0L241.749 0Z" fill="#176DB3"/>
<path d="M-173.805 584.844L-173.805 617.012C-173.805 625.928 -164.553 633.182 -153.18 633.182H57.2165C68.5892 633.182 77.8414 625.928 77.8414 617.012L77.8414 557.467C77.8414 549.4 86.2127 542.837 96.5021 542.837H235.311C245.6 542.837 253.972 549.4 253.972 557.467V654.313H255.936V557.467C255.936 548.551 246.684 541.297 235.311 541.297H96.5021C85.1294 541.297 75.8771 548.551 75.8771 557.467L75.8771 617.012C75.8771 625.079 67.5059 631.641 57.2165 631.641H-153.18C-163.47 631.641 -171.841 625.079 -171.841 617.012L-171.841 584.844C-171.841 575.928 -181.093 568.674 -192.466 568.674H-298.537V570.214H-192.466C-182.176 570.214 -173.805 576.777 -173.805 584.844Z" fill="#176DB3"/>
<path d="M124.984 654.312L124.984 609.482C124.984 601.416 133.355 594.852 143.644 594.852H377.176V593.312H143.644C132.272 593.312 123.02 600.567 123.02 609.482L123.02 654.312H124.984Z" fill="#176DB3"/>
<path d="M124.984 72.2072L124.984 0L123.02 0L123.02 72.2072C123.02 81.1232 132.272 88.3769 143.644 88.3769L344.001 88.3769V86.837L143.644 86.837C133.355 86.837 124.984 80.2742 124.984 72.2072Z" fill="#176DB3"/>
<path d="M131.968 186.807L131.968 129.015C131.968 120.099 122.716 112.845 111.343 112.845L28.4069 112.845C23.449 112.845 18.8319 111.322 15.4043 108.557C11.9776 105.791 10.169 102.129 10.3119 98.2444C10.3237 97.9272 11.486 66.1271 11.9933 34.2346C12.2197 20.0201 12.2712 8.82557 12.2045 0L10.2485 0C10.4479 27.6579 9.47215 67.6628 8.34858 98.2001C8.18997 102.505 10.1955 106.564 13.9954 109.63C17.7958 112.697 22.9137 114.386 28.4069 114.386L111.343 114.386C121.633 114.386 130.004 120.948 130.004 129.015L130.004 186.807C130.004 195.723 139.256 202.977 150.629 202.977L300.351 202.977V201.437L150.629 201.437C140.339 201.437 131.968 194.874 131.968 186.807Z" fill="#176DB3"/>
<path d="M208.792 233.049L208.792 0L206.828 0L206.828 233.049C206.828 241.965 216.08 249.218 227.453 249.218L398.128 249.218V247.679L227.453 247.679C217.164 247.679 208.792 241.115 208.792 233.049Z" fill="#176DB3"/>
<path d="M289.874 654.317L289.874 382.256C289.874 374.189 298.246 367.626 308.535 367.626H398.128V366.086H308.535C297.163 366.086 287.91 373.34 287.91 382.256L287.91 654.317H289.874Z" fill="#176DB3"/>
<path d="M354.915 309.961C343.543 309.961 334.29 317.215 334.29 326.131L334.29 413.053C334.29 421.12 325.918 427.683 315.629 427.683H262.375C251.002 427.683 241.75 434.937 241.75 443.853L241.75 493.816C241.75 502.732 251.002 509.986 262.375 509.986H308.645C318.934 509.986 327.306 516.548 327.306 524.615V654.315H329.27V524.616C329.27 515.7 320.017 508.446 308.645 508.446H262.375C252.086 508.446 243.714 501.883 243.714 493.816L243.714 443.853C243.714 435.787 252.086 429.223 262.375 429.223H315.629C327.001 429.223 336.254 421.969 336.254 413.054L336.254 326.131C336.254 318.064 344.625 311.501 354.915 311.501L433.048 311.501V309.961L354.915 309.961Z" fill="#176DB3"/>
<path d="M229.411 326.387C229.411 329.126 226.58 331.345 223.087 331.345C219.595 331.345 216.764 329.126 216.764 326.387C216.764 323.649 219.595 321.43 223.087 321.43C226.58 321.43 229.411 323.649 229.411 326.387Z" fill="#54F4FC"/>
<path d="M223.088 331.732C219.331 331.732 216.273 329.336 216.273 326.39C216.273 323.444 219.331 321.047 223.088 321.047C226.845 321.047 229.903 323.444 229.903 326.39C229.903 329.336 226.846 331.732 223.088 331.732ZM223.088 321.817C219.872 321.817 217.256 323.869 217.256 326.39C217.256 328.911 219.872 330.962 223.088 330.962C226.304 330.962 228.92 328.911 228.92 326.39C228.92 323.869 226.304 321.817 223.088 321.817Z" fill="#54F4FC"/>
<path d="M246.908 310.984C246.908 312.791 245.039 314.256 242.733 314.256C240.428 314.256 238.559 312.791 238.559 310.984C238.559 309.176 240.428 307.711 242.733 307.711C245.039 307.711 246.908 309.176 246.908 310.984Z" fill="#54F4FC"/>
<path d="M242.732 314.644C240.159 314.644 238.066 313.003 238.066 310.986C238.066 308.969 240.159 307.328 242.732 307.328C245.305 307.328 247.398 308.969 247.398 310.986C247.398 313.003 245.305 314.644 242.732 314.644ZM242.732 308.098C240.701 308.098 239.049 309.393 239.049 310.986C239.049 312.578 240.701 313.874 242.732 313.874C244.763 313.874 246.416 312.578 246.416 310.986C246.416 309.393 244.763 308.098 242.732 308.098Z" fill="#54F4FC"/>
<path d="M248.952 293.277C248.952 295.971 246.167 298.155 242.73 298.155C239.294 298.155 236.508 295.971 236.508 293.277C236.508 290.582 239.294 288.398 242.73 288.398C246.167 288.398 248.952 290.582 248.952 293.277Z" fill="#54F4FC"/>
<path d="M242.731 298.542C239.029 298.542 236.018 296.181 236.018 293.279C236.018 290.377 239.029 288.016 242.731 288.016C246.433 288.016 249.444 290.377 249.444 293.279C249.444 296.181 246.433 298.542 242.731 298.542ZM242.731 288.785C239.57 288.785 237 290.801 237 293.279C237 295.756 239.57 297.772 242.731 297.772C245.892 297.772 248.462 295.756 248.462 293.279C248.462 290.801 245.892 288.785 242.731 288.785Z" fill="#54F4FC"/>
<path d="M229.208 277.876C229.208 280.525 226.469 282.673 223.088 282.673C219.708 282.673 216.969 280.525 216.969 277.876C216.969 275.226 219.708 273.078 223.088 273.078C226.469 273.078 229.208 275.226 229.208 277.876Z" fill="#54F4FC"/>
<path d="M223.089 283.06C219.444 283.06 216.479 280.735 216.479 277.878C216.479 275.02 219.444 272.695 223.089 272.695C226.735 272.695 229.7 275.02 229.7 277.878C229.7 280.735 226.735 283.06 223.089 283.06ZM223.089 273.465C219.986 273.465 217.461 275.445 217.461 277.878C217.461 280.311 219.986 282.291 223.089 282.291C226.193 282.291 228.718 280.311 228.718 277.878C228.718 275.445 226.193 273.465 223.089 273.465Z" fill="#54F4FC"/>
<path d="M74.9818 277.881C74.9818 279.903 72.8908 281.542 70.3112 281.542C67.7316 281.542 65.6406 279.903 65.6406 277.881C65.6406 275.858 67.7316 274.219 70.3112 274.219C72.8908 274.219 74.9818 275.858 74.9818 277.881Z" fill="#54F4FC"/>
<path d="M70.3121 281.929C67.4658 281.929 65.1504 280.114 65.1504 277.883C65.1504 275.651 67.4658 273.836 70.3121 273.836C73.1583 273.836 75.4742 275.651 75.4742 277.883C75.4742 280.114 73.1583 281.929 70.3121 281.929ZM70.3121 274.606C68.008 274.606 66.1325 276.076 66.1325 277.883C66.1325 279.69 68.0075 281.16 70.3121 281.16C72.6166 281.16 74.492 279.69 74.492 277.883C74.492 276.076 72.6166 274.606 70.3121 274.606Z" fill="#54F4FC"/>
<path d="M50.6675 267.457C54.1772 267.457 57.0224 265.226 57.0224 262.475C57.0224 259.723 54.1772 257.492 50.6675 257.492C47.1577 257.492 44.3125 259.723 44.3125 262.475C44.3125 265.226 47.1577 267.457 50.6675 267.457Z" fill="#54F4FC"/>
<path d="M50.6683 267.844C46.8934 267.844 43.8223 265.436 43.8223 262.477C43.8223 259.517 46.8934 257.109 50.6683 257.109C54.4436 257.109 57.5143 259.517 57.5143 262.477C57.5143 265.437 54.4432 267.844 50.6683 267.844ZM50.6683 257.88C47.4346 257.88 44.8044 259.942 44.8044 262.477C44.8044 265.012 47.4346 267.074 50.6683 267.074C53.902 267.074 56.5322 265.012 56.5322 262.477C56.5322 259.941 53.902 257.88 50.6683 257.88Z" fill="#54F4FC"/>
<path d="M50.6682 225.064C53.7231 225.064 56.1996 223.122 56.1996 220.727C56.1996 218.332 53.7231 216.391 50.6682 216.391C47.6132 216.391 45.1367 218.332 45.1367 220.727C45.1367 223.122 47.6132 225.064 50.6682 225.064Z" fill="#54F4FC"/>
<path d="M50.669 225.451C47.3479 225.451 44.6465 223.333 44.6465 220.729C44.6465 218.126 47.3479 216.008 50.669 216.008C53.9901 216.008 56.6915 218.125 56.6915 220.729C56.6915 223.333 53.9901 225.451 50.669 225.451ZM50.669 216.778C47.89 216.778 45.6286 218.551 45.6286 220.729C45.6286 222.908 47.8895 224.681 50.669 224.681C53.448 224.681 55.7093 222.908 55.7093 220.729C55.7093 218.551 53.448 216.778 50.669 216.778Z" fill="#54F4FC"/>
<path d="M35.3746 205.324C35.3746 207.207 33.4275 208.734 31.0252 208.734C28.6229 208.734 26.6758 207.207 26.6758 205.324C26.6758 203.441 28.6229 201.914 31.0252 201.914C33.4275 201.914 35.3746 203.441 35.3746 205.324Z" fill="#54F4FC"/>
<path d="M31.0255 209.121C28.3566 209.121 26.1855 207.419 26.1855 205.326C26.1855 203.234 28.3571 201.531 31.0255 201.531C33.695 201.531 35.866 203.234 35.866 205.326C35.866 207.419 33.6945 209.121 31.0255 209.121ZM31.0255 202.301C28.8982 202.301 27.1677 203.658 27.1677 205.326C27.1677 206.994 28.8982 208.351 31.0255 208.351C33.1534 208.351 34.8839 206.994 34.8839 205.326C34.8839 203.658 33.1534 202.301 31.0255 202.301Z" fill="#54F4FC"/>
<path d="M174.569 406.209C174.569 408.448 172.255 410.262 169.4 410.262C166.545 410.262 164.23 408.447 164.23 406.209C164.23 403.971 166.545 402.156 169.4 402.156C172.255 402.156 174.569 403.971 174.569 406.209Z" fill="#54F4FC"/>
<path d="M169.399 410.649C166.278 410.649 163.738 408.658 163.738 406.211C163.738 403.764 166.278 401.773 169.399 401.773C172.52 401.773 175.059 403.764 175.059 406.211C175.06 408.658 172.521 410.649 169.399 410.649ZM169.399 402.543C166.819 402.543 164.72 404.188 164.72 406.211C164.72 408.234 166.819 409.879 169.399 409.879C171.978 409.879 174.077 408.234 174.077 406.211C174.078 404.188 171.978 402.543 169.399 402.543Z" fill="#54F4FC"/>
<path d="M154.843 421.606C154.843 423.809 152.565 425.594 149.755 425.594C146.946 425.594 144.668 423.809 144.668 421.606C144.668 419.403 146.946 417.617 149.755 417.617C152.566 417.617 154.843 419.403 154.843 421.606Z" fill="#54F4FC"/>
<path d="M149.756 425.981C146.68 425.981 144.178 424.02 144.178 421.608C144.178 419.196 146.681 417.234 149.756 417.234C152.832 417.234 155.335 419.196 155.335 421.608C155.335 424.02 152.832 425.981 149.756 425.981ZM149.756 418.004C147.222 418.004 145.16 419.62 145.16 421.608C145.16 423.595 147.222 425.211 149.756 425.211C152.291 425.211 154.353 423.595 154.353 421.608C154.353 419.621 152.291 418.004 149.756 418.004Z" fill="#54F4FC"/>
<path d="M49.2756 421.605C49.2756 424.592 46.1863 427.014 42.3761 427.014C38.5654 427.014 35.4766 424.592 35.4766 421.605C35.4766 418.617 38.5654 416.195 42.3761 416.195C46.1868 416.195 49.2756 418.617 49.2756 421.605Z" fill="#54F4FC"/>
<path d="M42.375 427.401C38.2996 427.401 34.9844 424.802 34.9844 421.607C34.9844 418.412 38.2996 415.812 42.375 415.812C46.4504 415.812 49.7656 418.412 49.7656 421.607C49.7656 424.802 46.4504 427.401 42.375 427.401ZM42.375 416.583C38.8417 416.583 35.9665 418.837 35.9665 421.607C35.9665 424.377 38.8412 426.631 42.375 426.631C45.9082 426.631 48.7834 424.377 48.7834 421.607C48.7834 418.837 45.9082 416.583 42.375 416.583Z" fill="#54F4FC"/>
<path d="M28.1919 437.008C28.1919 439.372 25.7469 441.29 22.7307 441.29C19.7146 441.29 17.2695 439.373 17.2695 437.008C17.2695 434.644 19.7146 432.727 22.7307 432.727C25.7469 432.727 28.1919 434.644 28.1919 437.008Z" fill="#54F4FC"/>
<path d="M22.7315 441.677C19.4492 441.677 16.7793 439.583 16.7793 437.01C16.7793 434.437 19.4497 432.344 22.7315 432.344C26.0139 432.344 28.6838 434.437 28.6838 437.01C28.6838 439.583 26.0139 441.677 22.7315 441.677ZM22.7315 433.114C19.9909 433.114 17.7614 434.862 17.7614 437.01C17.7614 439.159 19.9909 440.907 22.7315 440.907C25.4722 440.907 27.7017 439.159 27.7017 437.01C27.7017 434.862 25.4722 433.114 22.7315 433.114Z" fill="#54F4FC"/>
<path d="M27.7207 589.638C27.7207 591.798 25.4868 593.549 22.7315 593.549C19.9761 593.549 17.7422 591.798 17.7422 589.638C17.7422 587.477 19.9761 585.727 22.7315 585.727C25.4868 585.727 27.7207 587.478 27.7207 589.638Z" fill="#54F4FC"/>
<path d="M22.7318 593.937C19.7103 593.937 17.252 592.01 17.252 589.64C17.252 587.271 19.7103 585.344 22.7318 585.344C25.7534 585.344 28.2117 587.271 28.2117 589.64C28.2117 592.01 25.7534 593.937 22.7318 593.937ZM22.7318 586.114C20.2514 586.114 18.2341 587.695 18.2341 589.64C18.2341 591.584 20.2514 593.167 22.7318 593.167C25.2122 593.167 27.2295 591.585 27.2295 589.64C27.2295 587.696 25.2122 586.114 22.7318 586.114Z" fill="#54F4FC"/>
<path d="M7.0163 605.032C7.0163 606.732 5.25826 608.111 3.0892 608.111C0.920146 608.111 -0.837891 606.732 -0.837891 605.032C-0.837891 603.331 0.920146 601.953 3.0892 601.953C5.25826 601.953 7.0163 603.331 7.0163 605.032Z" fill="#54F4FC"/>
<path d="M3.09004 608.498C0.65384 608.498 -1.32812 606.943 -1.32812 605.034C-1.32812 603.124 0.65384 601.57 3.09004 601.57C5.52624 601.57 7.50821 603.124 7.50821 605.034C7.50821 606.943 5.52624 608.498 3.09004 608.498ZM3.09004 602.34C1.19549 602.34 -0.345984 603.548 -0.345984 605.033C-0.345984 606.519 1.19549 607.727 3.09004 607.727C4.98459 607.727 6.52607 606.519 6.52607 605.033C6.52607 603.548 4.98508 602.34 3.09004 602.34Z" fill="#54F4FC"/>
<path d="M205.284 505.449C205.284 508.136 202.507 510.313 199.081 510.313C195.654 510.313 192.877 508.135 192.877 505.449C192.877 502.763 195.654 500.586 199.081 500.586C202.507 500.586 205.284 502.763 205.284 505.449Z" fill="#54F4FC"/>
<path d="M199.081 510.7C195.39 510.7 192.387 508.346 192.387 505.452C192.387 502.558 195.39 500.203 199.081 500.203C202.773 500.203 205.776 502.558 205.776 505.452C205.776 508.346 202.773 510.7 199.081 510.7ZM199.081 500.973C195.932 500.973 193.369 502.982 193.369 505.452C193.369 507.921 195.932 509.93 199.081 509.93C202.231 509.93 204.794 507.921 204.794 505.452C204.794 502.982 202.232 500.973 199.081 500.973Z" fill="#54F4FC"/>
<path d="M183.55 490.052C183.55 491.832 181.709 493.275 179.438 493.275C177.167 493.275 175.326 491.832 175.326 490.052C175.326 488.271 177.167 486.828 179.438 486.828C181.709 486.828 183.55 488.271 183.55 490.052Z" fill="#54F4FC"/>
<path d="M179.439 493.662C176.901 493.662 174.836 492.044 174.836 490.054C174.836 488.064 176.901 486.445 179.439 486.445C181.977 486.445 184.041 488.064 184.041 490.054C184.042 492.043 181.977 493.662 179.439 493.662ZM179.439 487.215C177.443 487.215 175.818 488.488 175.818 490.054C175.818 491.619 177.443 492.892 179.439 492.892C181.435 492.892 183.059 491.619 183.059 490.054C183.059 488.488 181.435 487.215 179.439 487.215Z" fill="#54F4FC"/>
<path d="M128.035 490.047C128.035 492.36 125.644 494.235 122.693 494.235C119.743 494.235 117.352 492.36 117.352 490.047C117.352 487.735 119.743 485.859 122.693 485.859C125.644 485.859 128.035 487.734 128.035 490.047Z" fill="#54F4FC"/>
<path d="M122.692 494.623C119.476 494.623 116.859 492.572 116.859 490.05C116.859 487.528 119.476 485.477 122.692 485.477C125.909 485.477 128.525 487.528 128.525 490.05C128.525 492.572 125.909 494.623 122.692 494.623ZM122.692 486.247C120.018 486.247 117.842 487.953 117.842 490.05C117.842 492.147 120.018 493.853 122.692 493.853C125.367 493.853 127.543 492.147 127.543 490.05C127.543 487.953 125.367 486.247 122.692 486.247Z" fill="#54F4FC"/>
<path d="M106.91 474.653C106.91 476.325 105.181 477.681 103.048 477.681C100.915 477.681 99.1855 476.325 99.1855 474.653C99.1855 472.981 100.915 471.625 103.048 471.625C105.181 471.625 106.91 472.981 106.91 474.653Z" fill="#54F4FC"/>
<path d="M103.049 478.069C100.648 478.069 98.6953 476.538 98.6953 474.655C98.6953 472.773 100.648 471.242 103.049 471.242C105.449 471.242 107.402 472.773 107.402 474.655C107.402 476.538 105.449 478.069 103.049 478.069ZM103.049 472.013C101.19 472.013 99.6775 473.199 99.6775 474.656C99.6775 476.113 101.19 477.299 103.049 477.299C104.907 477.299 106.42 476.113 106.42 474.656C106.42 473.198 104.907 472.013 103.049 472.013Z" fill="#54F4FC"/>
<path d="M108.733 402.783C108.733 405.244 106.188 407.238 103.05 407.238C99.9114 407.238 97.3672 405.244 97.3672 402.783C97.3672 400.323 99.9114 398.328 103.05 398.328C106.188 398.328 108.733 400.323 108.733 402.783Z" fill="#54F4FC"/>
<path d="M103.049 407.626C99.6442 407.626 96.875 405.455 96.875 402.786C96.875 400.117 99.6446 397.945 103.049 397.945C106.453 397.945 109.222 400.117 109.222 402.786C109.222 405.455 106.453 407.626 103.049 407.626ZM103.049 398.716C100.186 398.716 97.8571 400.541 97.8571 402.786C97.8571 405.031 100.186 406.856 103.049 406.856C105.911 406.856 108.24 405.031 108.24 402.786C108.24 400.541 105.911 398.716 103.049 398.716Z" fill="#54F4FC"/>
<path d="M87.6073 387.386C87.6073 389.204 85.727 390.678 83.4081 390.678C81.0888 390.678 79.209 389.204 79.209 387.386C79.209 385.567 81.0893 384.094 83.4081 384.094C85.727 384.094 87.6073 385.567 87.6073 387.386Z" fill="#54F4FC"/>
<path d="M83.4075 391.065C80.821 391.065 78.7168 389.416 78.7168 387.389C78.7168 385.361 80.821 383.711 83.4075 383.711C85.994 383.711 88.0977 385.361 88.0977 387.389C88.0977 389.415 85.9935 391.065 83.4075 391.065ZM83.4075 384.481C81.3627 384.481 79.6989 385.786 79.6989 387.389C79.6989 388.992 81.3627 390.296 83.4075 390.296C85.4518 390.296 87.1156 388.992 87.1156 387.389C87.1156 385.785 85.4518 384.481 83.4075 384.481Z" fill="#54F4FC"/>
<path d="M82.3239 58.8615C82.3239 61.4168 79.6814 63.4887 76.4217 63.4887C73.162 63.4887 70.5195 61.4172 70.5195 58.8615C70.5195 56.3062 73.162 54.2344 76.4217 54.2344C79.6814 54.2344 82.3239 56.3062 82.3239 58.8615Z" fill="#54F4FC"/>
<path d="M76.4225 63.8757C72.8971 63.8757 70.0293 61.6275 70.0293 58.8636C70.0293 56.0997 72.8971 53.8516 76.4225 53.8516C79.9479 53.8516 82.8158 56.0997 82.8158 58.8636C82.8158 61.6275 79.9479 63.8757 76.4225 63.8757ZM76.4225 54.6217C73.4393 54.6217 71.0114 56.525 71.0114 58.8636C71.0114 61.2026 73.4388 63.1055 76.4225 63.1055C79.4063 63.1055 81.8336 61.2022 81.8336 58.8636C81.8336 56.5246 79.4058 54.6217 76.4225 54.6217Z" fill="#54F4FC"/>
<path d="M101.142 43.4567C101.142 45.6548 98.869 47.4369 96.0655 47.4369C93.2615 47.4369 90.9883 45.6548 90.9883 43.4567C90.9883 41.2586 93.2615 39.4766 96.0655 39.4766C98.869 39.4766 101.142 41.2586 101.142 43.4567Z" fill="#54F4FC"/>
<path d="M96.0658 47.8242C92.9956 47.8242 90.498 45.8663 90.498 43.4592C90.498 41.0521 92.9956 39.0938 96.0658 39.0938C99.136 39.0938 101.634 41.0521 101.634 43.4592C101.634 45.8659 99.136 47.8242 96.0658 47.8242ZM96.0658 39.8635C93.5378 39.8635 91.4802 41.4766 91.4802 43.4588C91.4802 45.4414 93.5378 47.0537 96.0658 47.0537C98.5943 47.0537 100.652 45.441 100.652 43.4588C100.652 41.4766 98.5948 39.8635 96.0658 39.8635Z" fill="#54F4FC"/>
<path d="M205.627 457.014C207.908 457.014 209.757 455.564 209.757 453.776C209.757 451.988 207.908 450.539 205.627 450.539C203.347 450.539 201.498 451.988 201.498 453.776C201.498 455.564 203.347 457.014 205.627 457.014Z" fill="#54F4FC"/>
<path d="M205.628 457.401C203.08 457.401 201.008 455.776 201.008 453.778C201.008 451.781 203.081 450.156 205.628 450.156C208.176 450.156 210.249 451.781 210.249 453.778C210.249 455.777 208.176 457.401 205.628 457.401ZM205.628 450.927C203.622 450.927 201.99 452.207 201.99 453.779C201.99 455.352 203.622 456.632 205.628 456.632C207.634 456.632 209.267 455.352 209.267 453.779C209.267 452.207 207.634 450.927 205.628 450.927Z" fill="#54F4FC"/>
<path d="M231.268 438.374C231.268 440.972 228.583 443.077 225.27 443.077C221.957 443.077 219.271 440.972 219.271 438.374C219.271 435.777 221.957 433.672 225.27 433.672C228.583 433.672 231.268 435.778 231.268 438.374Z" fill="#54F4FC"/>
<path d="M225.271 443.464C221.692 443.464 218.781 441.182 218.781 438.377C218.781 435.571 221.692 433.289 225.271 433.289C228.849 433.289 231.76 435.571 231.76 438.377C231.76 441.182 228.849 443.464 225.271 443.464ZM225.271 434.059C222.234 434.059 219.763 435.996 219.763 438.377C219.763 440.758 222.234 442.694 225.271 442.694C228.307 442.694 230.778 440.757 230.778 438.377C230.778 435.996 228.307 434.059 225.271 434.059Z" fill="#54F4FC"/>
<path d="M229.903 376.781C229.903 378.787 227.829 380.413 225.27 380.413C222.711 380.413 220.637 378.787 220.637 376.781C220.637 374.775 222.711 373.148 225.27 373.148C227.829 373.148 229.903 374.775 229.903 376.781Z" fill="#54F4FC"/>
<path d="M225.271 380.8C222.445 380.8 220.146 378.997 220.146 376.782C220.146 374.567 222.445 372.766 225.271 372.766C228.096 372.766 230.395 374.567 230.395 376.782C230.395 378.997 228.096 380.8 225.271 380.8ZM225.271 373.535C222.987 373.535 221.129 374.992 221.129 376.782C221.129 378.574 222.987 380.03 225.271 380.03C227.554 380.03 229.412 378.574 229.412 376.782C229.412 374.992 227.554 373.535 225.271 373.535Z" fill="#54F4FC"/>
<path d="M205.63 366C208.888 366 211.529 363.93 211.529 361.375C211.529 358.821 208.888 356.75 205.63 356.75C202.372 356.75 199.73 358.821 199.73 361.375C199.73 363.93 202.372 366 205.63 366Z" fill="#54F4FC"/>
<path d="M205.629 366.387C202.105 366.387 199.238 364.14 199.238 361.377C199.238 358.615 202.105 356.367 205.629 356.367C209.153 356.367 212.02 358.615 212.02 361.377C212.02 364.14 209.152 366.387 205.629 366.387ZM205.629 357.137C202.647 357.137 200.22 359.039 200.22 361.377C200.22 363.715 202.646 365.618 205.629 365.618C208.611 365.618 211.038 363.715 211.038 361.377C211.038 359.039 208.611 357.137 205.629 357.137Z" fill="#54F4FC"/>
<path d="M141.897 365.485C144.79 365.485 147.135 363.647 147.135 361.379C147.135 359.112 144.79 357.273 141.897 357.273C139.005 357.273 136.66 359.112 136.66 361.379C136.66 363.647 139.005 365.485 141.897 365.485Z" fill="#54F4FC"/>
<path d="M141.898 365.872C138.74 365.872 136.17 363.857 136.17 361.381C136.17 358.905 138.74 356.891 141.898 356.891C145.057 356.891 147.626 358.905 147.626 361.381C147.626 363.857 145.057 365.872 141.898 365.872ZM141.898 357.66C139.281 357.66 137.152 359.33 137.152 361.381C137.152 363.432 139.281 365.102 141.898 365.102C144.515 365.102 146.644 363.433 146.644 361.381C146.644 359.33 144.515 357.66 141.898 357.66Z" fill="#54F4FC"/>
<path d="M122.258 348.908C124.322 348.908 125.996 347.596 125.996 345.977C125.996 344.359 124.322 343.047 122.258 343.047C120.193 343.047 118.52 344.359 118.52 345.977C118.52 347.596 120.193 348.908 122.258 348.908Z" fill="#54F4FC"/>
<path d="M122.256 349.295C119.924 349.295 118.027 347.807 118.027 345.98C118.027 344.152 119.924 342.664 122.256 342.664C124.588 342.664 126.485 344.151 126.485 345.98C126.485 347.807 124.588 349.295 122.256 349.295ZM122.256 343.434C120.466 343.434 119.009 344.576 119.009 345.979C119.009 347.382 120.466 348.524 122.256 348.524C124.046 348.524 125.503 347.382 125.503 345.979C125.503 344.576 124.047 343.434 122.256 343.434Z" fill="#54F4FC"/>
<path d="M127.624 259.054C127.624 261.379 125.22 263.263 122.255 263.263C119.289 263.263 116.885 261.378 116.885 259.054C116.885 256.729 119.289 254.844 122.255 254.844C125.22 254.844 127.624 256.729 127.624 259.054Z" fill="#54F4FC"/>
<path d="M122.255 263.651C119.024 263.651 116.395 261.59 116.395 259.056C116.395 256.522 119.024 254.461 122.255 254.461C125.487 254.461 128.116 256.522 128.116 259.056C128.116 261.59 125.487 263.651 122.255 263.651ZM122.255 255.231C119.565 255.231 117.377 256.947 117.377 259.056C117.377 261.165 119.565 262.88 122.255 262.88C124.945 262.88 127.134 261.165 127.134 259.056C127.134 256.947 124.946 255.231 122.255 255.231Z" fill="#54F4FC"/>
<path d="M106.632 243.659C106.632 245.399 104.832 246.809 102.613 246.809C100.393 246.809 98.5938 245.399 98.5938 243.659C98.5938 241.918 100.393 240.508 102.613 240.508C104.832 240.508 106.632 241.919 106.632 243.659Z" fill="#54F4FC"/>
<path d="M102.613 247.196C100.127 247.196 98.1035 245.61 98.1035 243.661C98.1035 241.711 100.127 240.125 102.613 240.125C105.1 240.125 107.123 241.711 107.123 243.661C107.123 245.61 105.1 247.196 102.613 247.196ZM102.613 240.895C100.668 240.895 99.0857 242.135 99.0857 243.66C99.0857 245.185 100.668 246.426 102.613 246.426C104.559 246.426 106.141 245.185 106.141 243.66C106.141 242.136 104.559 240.895 102.613 240.895Z" fill="#54F4FC"/>
<path d="M41.0977 243.652C41.0977 245.367 39.3245 246.757 37.1367 246.757C34.949 246.757 33.1758 245.367 33.1758 243.652C33.1758 241.937 34.949 240.547 37.1367 240.547C39.3245 240.547 41.0977 241.937 41.0977 243.652Z" fill="#54F4FC"/>
<path d="M37.1371 247.145C34.6822 247.145 32.6855 245.579 32.6855 243.655C32.6855 241.73 34.6822 240.164 37.1371 240.164C39.592 240.164 41.5891 241.73 41.5891 243.655C41.5896 245.579 39.592 247.145 37.1371 247.145ZM37.1371 240.934C35.2239 240.934 33.6677 242.155 33.6677 243.655C33.6677 245.155 35.2244 246.375 37.1371 246.375C39.0503 246.375 40.607 245.154 40.607 243.655C40.6075 242.155 39.0508 240.934 37.1371 240.934Z" fill="#54F4FC"/>
<path d="M22.2242 228.255C22.2242 230.303 20.1062 231.964 17.4942 231.964C14.8817 231.964 12.7637 230.303 12.7637 228.255C12.7637 226.207 14.8817 224.547 17.4942 224.547C20.1062 224.547 22.2242 226.207 22.2242 228.255Z" fill="#54F4FC"/>
<path d="M17.4945 232.351C14.6159 232.351 12.2734 230.515 12.2734 228.258C12.2734 226 14.6154 224.164 17.4945 224.164C20.3737 224.164 22.7161 226 22.7161 228.258C22.7161 230.515 20.3737 232.351 17.4945 232.351ZM17.4945 224.934C15.157 224.934 13.2556 226.425 13.2556 228.258C13.2556 230.09 15.157 231.581 17.4945 231.581C19.832 231.581 21.7339 230.09 21.7339 228.258C21.7339 226.425 19.832 224.934 17.4945 224.934Z" fill="#54F4FC"/>
<path d="M21.8429 157.761C21.8429 159.645 19.8958 161.171 17.494 161.171C15.0921 161.171 13.1445 159.645 13.1445 157.761C13.1445 155.878 15.0917 154.352 17.494 154.352C19.8958 154.352 21.8429 155.878 21.8429 157.761Z" fill="#54F4FC"/>
<path d="M17.4943 161.558C14.8253 161.558 12.6543 159.856 12.6543 157.763C12.6543 155.671 14.8258 153.969 17.4943 153.969C20.1633 153.969 22.3343 155.671 22.3343 157.763C22.3343 159.856 20.1633 161.558 17.4943 161.558ZM17.4943 154.739C15.367 154.739 13.6364 156.095 13.6364 157.763C13.6364 159.431 15.367 160.788 17.4943 160.788C19.6216 160.788 21.3522 159.431 21.3522 157.763C21.3526 156.096 19.6216 154.739 17.4943 154.739Z" fill="#54F4FC"/>
<path d="M44.0147 142.36C44.0147 145.337 40.9361 147.751 37.1382 147.751C33.3403 147.751 30.2617 145.337 30.2617 142.36C30.2617 139.382 33.3403 136.969 37.1382 136.969C40.9357 136.969 44.0147 139.382 44.0147 142.36Z" fill="#54F4FC"/>
<path d="M37.1371 148.138C33.0749 148.138 29.7695 145.547 29.7695 142.362C29.7695 139.177 33.0749 136.586 37.1371 136.586C41.1992 136.586 44.5046 139.177 44.5046 142.362C44.5046 145.547 41.1997 148.138 37.1371 148.138ZM37.1371 137.356C33.6161 137.356 30.7517 139.602 30.7517 142.362C30.7517 145.122 33.6161 147.368 37.1371 147.368C40.658 147.368 43.5224 145.122 43.5224 142.362C43.5224 139.602 40.658 137.356 37.1371 137.356Z" fill="#54F4FC"/>
<path d="M81.2645 142.357C81.2645 144.453 79.0974 146.152 76.4245 146.152C73.7511 146.152 71.584 144.453 71.584 142.357C71.584 140.261 73.7511 138.562 76.4245 138.562C79.0974 138.562 81.2645 140.261 81.2645 142.357Z" fill="#54F4FC"/>
<path d="M76.4229 146.539C73.4833 146.539 71.0918 144.664 71.0918 142.359C71.0918 140.054 73.4833 138.18 76.4229 138.18C79.3624 138.18 81.7539 140.054 81.7539 142.359C81.7544 144.664 79.3629 146.539 76.4229 146.539ZM76.4229 138.949C74.0245 138.949 72.0739 140.479 72.0739 142.359C72.0739 144.239 74.025 145.769 76.4229 145.769C78.8213 145.769 80.7718 144.239 80.7718 142.359C80.7723 140.479 78.8213 138.949 76.4229 138.949Z" fill="#54F4FC"/>
<path d="M100.233 157.759C100.233 159.563 98.3673 161.025 96.0666 161.025C93.7655 161.025 91.9004 159.563 91.9004 157.759C91.9004 155.955 93.766 154.492 96.0666 154.492C98.3673 154.492 100.233 155.955 100.233 157.759Z" fill="#54F4FC"/>
<path d="M96.0655 161.412C93.4972 161.412 91.4082 159.774 91.4082 157.761C91.4082 155.747 93.4977 154.109 96.0655 154.109C98.6333 154.109 100.723 155.747 100.723 157.761C100.723 159.774 98.6338 161.412 96.0655 161.412ZM96.0655 154.88C94.0389 154.88 92.3903 156.172 92.3903 157.761C92.3903 159.35 94.0389 160.642 96.0655 160.642C98.0922 160.642 99.7407 159.35 99.7407 157.761C99.7412 156.172 98.0922 154.88 96.0655 154.88Z" fill="#54F4FC"/>
<path d="M100.358 162.546C100.358 164.406 98.4358 165.913 96.0639 165.913C93.6921 165.913 91.7695 164.406 91.7695 162.546C91.7695 160.687 93.6921 159.18 96.0639 159.18C98.4358 159.18 100.358 160.687 100.358 162.546Z" fill="#54F4FC"/>
<path d="M96.0643 166.3C93.4258 166.3 91.2793 164.617 91.2793 162.548C91.2793 160.48 93.4258 158.797 96.0643 158.797C98.7028 158.797 100.85 160.48 100.85 162.548C100.85 164.617 98.7028 166.3 96.0643 166.3ZM96.0643 159.567C93.9669 159.567 92.2614 160.905 92.2614 162.548C92.2614 164.193 93.9674 165.53 96.0643 165.53C98.1612 165.53 99.8676 164.192 99.8676 162.548C99.8676 160.905 98.1617 159.567 96.0643 159.567Z" fill="#54F4FC"/>
<path d="M119.744 177.952C119.744 179.7 117.937 181.116 115.709 181.116C113.48 181.116 111.674 179.7 111.674 177.952C111.674 176.205 113.48 174.789 115.709 174.789C117.937 174.789 119.744 176.205 119.744 177.952Z" fill="#54F4FC"/>
<path d="M115.708 181.503C113.212 181.503 111.182 179.911 111.182 177.955C111.182 175.998 113.212 174.406 115.708 174.406C118.204 174.406 120.235 175.998 120.235 177.955C120.235 179.911 118.204 181.503 115.708 181.503ZM115.708 175.176C113.753 175.176 112.164 176.422 112.164 177.955C112.164 179.487 113.753 180.733 115.708 180.733C117.662 180.733 119.252 179.487 119.252 177.955C119.252 176.423 117.662 175.176 115.708 175.176Z" fill="#54F4FC"/>
<path d="M229.996 177.947C229.996 180.938 226.904 183.362 223.089 183.362C219.274 183.362 216.182 180.938 216.182 177.947C216.182 174.956 219.274 172.531 223.089 172.531C226.904 172.531 229.996 174.956 229.996 177.947Z" fill="#54F4FC"/>
<path d="M223.088 183.749C219.008 183.749 215.689 181.147 215.689 177.949C215.689 174.75 219.009 172.148 223.088 172.148C227.167 172.148 230.486 174.751 230.486 177.949C230.487 181.147 227.168 183.749 223.088 183.749ZM223.088 172.918C219.55 172.918 216.672 175.175 216.672 177.949C216.672 180.723 219.55 182.979 223.088 182.979C226.626 182.979 229.504 180.723 229.504 177.949C229.504 175.175 226.626 172.918 223.088 172.918Z" fill="#54F4FC"/>
<path d="M247.458 162.551C247.458 164.598 245.341 166.258 242.73 166.258C240.119 166.258 238.002 164.598 238.002 162.551C238.002 160.503 240.119 158.844 242.73 158.844C245.341 158.844 247.458 160.503 247.458 162.551Z" fill="#54F4FC"/>
<path d="M242.731 166.645C239.853 166.645 237.512 164.809 237.512 162.553C237.512 160.296 239.853 158.461 242.731 158.461C245.609 158.461 247.95 160.296 247.95 162.553C247.95 164.809 245.609 166.645 242.731 166.645ZM242.731 159.231C240.394 159.231 238.494 160.721 238.494 162.553C238.494 164.384 240.394 165.874 242.731 165.874C245.067 165.874 246.968 164.384 246.968 162.553C246.968 160.721 245.067 159.231 242.731 159.231Z" fill="#54F4FC"/>
<path d="M261.312 557.469C261.312 560.221 258.466 562.453 254.955 562.453C251.444 562.453 248.598 560.221 248.598 557.469C248.598 554.716 251.444 552.484 254.955 552.484C258.466 552.484 261.312 554.716 261.312 557.469Z" fill="#54F4FC"/>
<path d="M254.954 562.84C251.178 562.84 248.105 560.431 248.105 557.471C248.105 554.51 251.178 552.102 254.954 552.102C258.73 552.102 261.802 554.51 261.802 557.471C261.802 560.432 258.73 562.84 254.954 562.84ZM254.954 552.872C251.719 552.872 249.088 554.935 249.088 557.471C249.088 560.007 251.719 562.07 254.954 562.07C258.189 562.07 260.82 560.006 260.82 557.471C260.82 554.935 258.189 552.872 254.954 552.872Z" fill="#54F4FC"/>
<path d="M239.326 542.071C239.326 543.81 237.528 545.219 235.309 545.219C233.091 545.219 231.293 543.81 231.293 542.071C231.293 540.332 233.091 538.922 235.309 538.922C237.528 538.922 239.326 540.332 239.326 542.071Z" fill="#54F4FC"/>
<path d="M235.31 545.607C232.825 545.607 230.803 544.022 230.803 542.073C230.803 540.124 232.824 538.539 235.31 538.539C237.796 538.539 239.818 540.124 239.818 542.073C239.818 544.022 237.796 545.607 235.31 545.607ZM235.31 539.309C233.367 539.309 231.785 540.549 231.785 542.073C231.785 543.597 233.367 544.837 235.31 544.837C237.254 544.837 238.836 543.597 238.836 542.073C238.836 540.549 237.254 539.309 235.31 539.309Z" fill="#54F4FC"/>
<path d="M101.552 542.069C101.552 544.256 99.2911 546.029 96.5018 546.029C93.7125 546.029 91.4512 544.256 91.4512 542.069C91.4512 539.882 93.7125 538.109 96.5018 538.109C99.2911 538.109 101.552 539.883 101.552 542.069Z" fill="#54F4FC"/>
<path d="M96.5027 546.416C93.4468 546.416 90.9609 544.467 90.9609 542.071C90.9609 539.676 93.4472 537.727 96.5027 537.727C99.5581 537.727 102.044 539.676 102.044 542.071C102.044 544.467 99.5581 546.416 96.5027 546.416ZM96.5027 538.496C93.9884 538.496 91.9431 540.1 91.9431 542.071C91.9431 544.042 93.9884 545.646 96.5027 545.646C99.0165 545.646 101.062 544.042 101.062 542.071C101.062 540.1 99.0165 538.496 96.5027 538.496Z" fill="#54F4FC"/>
<path d="M82.2369 557.467C82.2369 559.796 79.8287 561.685 76.8577 561.685C73.8867 561.685 71.4785 559.797 71.4785 557.467C71.4785 555.138 73.8867 553.25 76.8577 553.25C79.8287 553.25 82.2369 555.138 82.2369 557.467Z" fill="#54F4FC"/>
<path d="M76.8585 562.071C73.6214 562.071 70.9883 560.007 70.9883 557.47C70.9883 554.932 73.6214 552.867 76.8585 552.867C80.0952 552.867 82.7283 554.932 82.7283 557.47C82.7283 560.007 80.0952 562.071 76.8585 562.071ZM76.8585 553.637C74.1635 553.637 71.9704 555.357 71.9704 557.47C71.9704 559.583 74.1635 561.302 76.8585 561.302C79.5535 561.302 81.7462 559.583 81.7462 557.47C81.7462 555.357 79.5535 553.637 76.8585 553.637Z" fill="#54F4FC"/>
<path d="M76.8577 622.032C80.397 622.032 83.2662 619.783 83.2662 617.008C83.2662 614.234 80.397 611.984 76.8577 611.984C73.3184 611.984 70.4492 614.234 70.4492 617.008C70.4492 619.783 73.3184 622.032 76.8577 622.032Z" fill="#54F4FC"/>
<path d="M76.859 622.42C73.0542 622.42 69.959 619.994 69.959 617.011C69.959 614.028 73.0542 611.602 76.859 611.602C80.6634 611.602 83.7586 614.028 83.7586 617.011C83.7586 619.994 80.6634 622.42 76.859 622.42ZM76.859 612.371C73.5959 612.371 70.9411 614.453 70.9411 617.011C70.9411 619.569 73.5959 621.65 76.859 621.65C80.1222 621.65 82.7764 619.569 82.7764 617.011C82.7764 614.452 80.1217 612.371 76.859 612.371Z" fill="#54F4FC"/>
<path d="M63.9061 632.409C63.9061 635.305 60.911 637.653 57.2167 637.653C53.5224 637.653 50.5273 635.305 50.5273 632.409C50.5273 629.512 53.5224 627.164 57.2167 627.164C60.911 627.164 63.9061 629.512 63.9061 632.409Z" fill="#54F4FC"/>
<path d="M57.2161 638.041C53.2566 638.041 50.0352 635.515 50.0352 632.411C50.0352 629.307 53.2566 626.781 57.2161 626.781C61.1756 626.781 64.3965 629.307 64.3965 632.411C64.3965 635.515 61.1751 638.041 57.2161 638.041ZM57.2161 627.551C53.7982 627.551 51.0173 629.731 51.0173 632.411C51.0173 635.091 53.7982 637.271 57.2161 637.271C60.6339 637.271 63.4144 635.091 63.4144 632.411C63.4144 629.731 60.6339 627.551 57.2161 627.551Z" fill="#54F4FC"/>
<path d="M384.165 594.081C384.165 597.107 381.036 599.56 377.176 599.56C373.317 599.56 370.188 597.107 370.188 594.081C370.188 591.055 373.317 588.602 377.176 588.602C381.036 588.602 384.165 591.055 384.165 594.081Z" fill="#54F4FC"/>
<path d="M377.177 599.946C373.052 599.946 369.697 597.316 369.697 594.083C369.697 590.85 373.052 588.219 377.177 588.219C381.301 588.219 384.657 590.85 384.657 594.083C384.657 597.316 381.301 599.946 377.177 599.946ZM377.177 588.988C373.594 588.988 370.679 591.273 370.679 594.083C370.679 596.891 373.594 599.176 377.177 599.176C380.76 599.176 383.675 596.891 383.675 594.083C383.675 591.274 380.76 588.988 377.177 588.988Z" fill="#54F4FC"/>
<path d="M149.697 594.08C149.697 596.7 146.988 598.824 143.646 598.824C140.304 598.824 137.596 596.7 137.596 594.08C137.596 591.46 140.304 589.336 143.646 589.336C146.988 589.336 149.697 591.46 149.697 594.08Z" fill="#54F4FC"/>
<path d="M143.646 599.21C140.038 599.21 137.104 596.91 137.104 594.082C137.104 591.254 140.039 588.953 143.646 588.953C147.253 588.953 150.187 591.254 150.187 594.082C150.187 596.91 147.253 599.21 143.646 599.21ZM143.646 589.723C140.58 589.723 138.086 591.679 138.086 594.082C138.086 596.485 140.58 598.44 143.646 598.44C146.711 598.44 149.205 596.485 149.205 594.082C149.205 591.679 146.711 589.723 143.646 589.723Z" fill="#54F4FC"/>
<path d="M128.607 609.485C128.607 611.479 126.545 613.095 124.003 613.095C121.46 613.095 119.398 611.479 119.398 609.485C119.398 607.491 121.46 605.875 124.003 605.875C126.545 605.875 128.607 607.491 128.607 609.485Z" fill="#54F4FC"/>
<path d="M124.002 613.482C121.192 613.482 118.906 611.69 118.906 609.487C118.906 607.284 121.192 605.492 124.002 605.492C126.812 605.492 129.097 607.284 129.097 609.487C129.097 611.69 126.812 613.482 124.002 613.482ZM124.002 606.262C121.734 606.262 119.888 607.709 119.888 609.487C119.888 611.265 121.734 612.712 124.002 612.712C126.27 612.712 128.115 611.265 128.115 609.487C128.115 607.709 126.27 606.262 124.002 606.262Z" fill="#54F4FC"/>
<path d="M348.817 87.6031C348.817 89.6881 346.662 91.3782 344.002 91.3782C341.343 91.3782 339.188 89.6881 339.188 87.6031C339.188 85.5182 341.343 83.8281 344.002 83.8281C346.662 83.8281 348.817 85.5182 348.817 87.6031Z" fill="#54F4FC"/>
<path d="M344.002 91.7651C341.076 91.7651 338.695 89.8988 338.695 87.6048C338.695 85.3113 341.076 83.4453 344.002 83.4453C346.928 83.4453 349.308 85.3113 349.308 87.6048C349.308 89.8988 346.928 91.7651 344.002 91.7651ZM344.002 84.2155C341.618 84.2155 339.677 85.7362 339.677 87.6052C339.677 89.4746 341.618 90.9953 344.002 90.9953C346.386 90.9953 348.326 89.4746 348.326 87.6052C348.326 85.7362 346.386 84.2155 344.002 84.2155Z" fill="#54F4FC"/>
<path d="M149.145 87.6014C149.145 89.9831 146.683 91.9137 143.645 91.9137C140.607 91.9137 138.145 89.9831 138.145 87.6014C138.145 85.2197 140.607 83.2891 143.645 83.2891C146.683 83.2891 149.145 85.2197 149.145 87.6014Z" fill="#54F4FC"/>
<path d="M143.644 92.3007C140.34 92.3007 137.652 90.1934 137.652 87.6035C137.652 85.0135 140.34 82.9062 143.644 82.9062C146.947 82.9062 149.635 85.0135 149.635 87.6035C149.635 90.1934 146.947 92.3007 143.644 92.3007ZM143.644 83.676C140.882 83.676 138.634 85.4377 138.634 87.6035C138.634 89.7693 140.882 91.5309 143.644 91.5309C146.406 91.5309 148.653 89.7693 148.653 87.6035C148.653 85.4377 146.406 83.676 143.644 83.676Z" fill="#54F4FC"/>
<path d="M124.001 75.7627C126.51 75.7627 128.544 74.1683 128.544 72.2016C128.544 70.2349 126.51 68.6406 124.001 68.6406C121.493 68.6406 119.459 70.2349 119.459 72.2016C119.459 74.1683 121.493 75.7627 124.001 75.7627Z" fill="#54F4FC"/>
<path d="M124.002 76.15C121.227 76.15 118.969 74.3799 118.969 72.2037C118.969 70.0279 121.227 68.2578 124.002 68.2578C126.777 68.2578 129.035 70.0279 129.035 72.2037C129.035 74.3799 126.777 76.15 124.002 76.15ZM124.002 69.028C121.768 69.028 119.951 70.4525 119.951 72.2037C119.951 73.955 121.768 75.3798 124.002 75.3798C126.236 75.3798 128.053 73.955 128.053 72.2037C128.053 70.4525 126.236 69.028 124.002 69.028Z" fill="#54F4FC"/>
<path d="M305.726 202.208C305.726 204.535 303.319 206.423 300.349 206.423C297.38 206.423 294.973 204.536 294.973 202.208C294.973 199.879 297.38 197.992 300.349 197.992C303.319 197.992 305.726 199.879 305.726 202.208Z" fill="#54F4FC"/>
<path d="M300.35 206.809C297.115 206.809 294.482 204.746 294.482 202.209C294.482 199.673 297.115 197.609 300.35 197.609C303.585 197.609 306.217 199.673 306.217 202.209C306.217 204.746 303.585 206.809 300.35 206.809ZM300.35 198.379C297.656 198.379 295.465 200.097 295.465 202.209C295.465 204.321 297.656 206.04 300.35 206.04C303.043 206.04 305.235 204.321 305.235 202.209C305.235 200.097 303.044 198.379 300.35 198.379Z" fill="#54F4FC"/>
<path d="M150.63 207.181C154.136 207.181 156.978 204.952 156.978 202.204C156.978 199.455 154.136 197.227 150.63 197.227C147.124 197.227 144.281 199.455 144.281 202.204C144.281 204.952 147.124 207.181 150.63 207.181Z" fill="#54F4FC"/>
<path d="M150.629 207.568C146.857 207.568 143.789 205.162 143.789 202.206C143.789 199.249 146.857 196.844 150.629 196.844C154.4 196.844 157.468 199.249 157.468 202.206C157.468 205.162 154.4 207.568 150.629 207.568ZM150.629 197.614C147.399 197.614 144.771 199.673 144.771 202.206C144.771 204.738 147.399 206.798 150.629 206.798C153.858 206.798 156.486 204.738 156.486 202.206C156.486 199.673 153.858 197.614 150.629 197.614Z" fill="#54F4FC"/>
<path d="M130.985 190.143C133.339 190.143 135.247 188.648 135.247 186.802C135.247 184.957 133.339 183.461 130.985 183.461C128.631 183.461 126.723 184.957 126.723 186.802C126.723 188.648 128.631 190.143 130.985 190.143Z" fill="#54F4FC"/>
<path d="M130.986 190.53C128.365 190.53 126.232 188.859 126.232 186.804C126.232 184.75 128.365 183.078 130.986 183.078C133.606 183.078 135.739 184.75 135.739 186.804C135.738 188.859 133.606 190.53 130.986 190.53ZM130.986 183.848C128.906 183.848 127.215 185.174 127.215 186.804C127.215 188.435 128.906 189.761 130.986 189.761C133.065 189.761 134.756 188.435 134.756 186.804C134.756 185.174 133.065 183.848 130.986 183.848Z" fill="#54F4FC"/>
<path d="M130.988 132.985C133.784 132.985 136.051 131.208 136.051 129.016C136.051 126.824 133.784 125.047 130.988 125.047C128.192 125.047 125.926 126.824 125.926 129.016C125.926 131.208 128.192 132.985 130.988 132.985Z" fill="#54F4FC"/>
<path d="M130.987 133.372C127.925 133.372 125.434 131.419 125.434 129.018C125.434 126.617 127.925 124.664 130.987 124.664C134.049 124.664 136.54 126.617 136.54 129.018C136.54 131.419 134.049 133.372 130.987 133.372ZM130.987 125.434C128.466 125.434 126.416 127.042 126.416 129.018C126.416 130.994 128.466 132.602 130.987 132.602C133.508 132.602 135.558 130.994 135.558 129.018C135.558 127.042 133.507 125.434 130.987 125.434Z" fill="#54F4FC"/>
<path d="M111.342 117.441C114.04 117.441 116.227 115.727 116.227 113.611C116.227 111.496 114.04 109.781 111.342 109.781C108.644 109.781 106.457 111.496 106.457 113.611C106.457 115.727 108.644 117.441 111.342 117.441Z" fill="#54F4FC"/>
<path d="M111.343 117.828C108.378 117.828 105.967 115.937 105.967 113.613C105.967 111.289 108.378 109.398 111.343 109.398C114.308 109.398 116.719 111.289 116.719 113.613C116.719 115.937 114.308 117.828 111.343 117.828ZM111.343 110.168C108.92 110.168 106.949 111.714 106.949 113.613C106.949 115.512 108.921 117.058 111.343 117.058C113.765 117.058 115.737 115.512 115.737 113.613C115.737 111.714 113.765 110.168 111.343 110.168Z" fill="#54F4FC"/>
<path d="M28.4089 117.215C30.9474 117.215 33.0053 115.602 33.0053 113.612C33.0053 111.621 30.9474 110.008 28.4089 110.008C25.8704 110.008 23.8125 111.621 23.8125 113.612C23.8125 115.602 25.8704 117.215 28.4089 117.215Z" fill="#54F4FC"/>
<path d="M28.4078 117.602C25.6023 117.602 23.3203 115.813 23.3203 113.614C23.3203 111.414 25.6028 109.625 28.4078 109.625C31.2133 109.625 33.4953 111.414 33.4953 113.614C33.4953 115.813 31.2133 117.602 28.4078 117.602ZM28.4078 110.395C26.144 110.395 24.3025 111.839 24.3025 113.614C24.3025 115.389 26.144 116.832 28.4078 116.832C30.6716 116.832 32.5131 115.389 32.5131 113.614C32.5131 111.839 30.6716 110.395 28.4078 110.395Z" fill="#54F4FC"/>
<path d="M16.1043 98.2185C16.1043 101.152 13.0705 103.53 9.32854 103.53C5.58659 103.53 2.55273 101.152 2.55273 98.2185C2.55273 95.2849 5.58609 92.9062 9.32854 92.9062C13.0705 92.9062 16.1043 95.2845 16.1043 98.2185Z" fill="#54F4FC"/>
<path d="M9.32938 103.918C5.32273 103.918 2.0625 101.362 2.0625 98.2206C2.0625 95.0795 5.32273 92.5234 9.32938 92.5234C13.336 92.5234 16.5962 95.0791 16.5962 98.2206C16.5962 101.362 13.336 103.918 9.32938 103.918ZM9.32938 93.2936C5.86389 93.2936 3.04464 95.504 3.04464 98.2206C3.04464 100.937 5.86389 103.148 9.32938 103.148C12.7949 103.148 15.6141 100.937 15.6141 98.2206C15.6141 95.504 12.7949 93.2936 9.32938 93.2936Z" fill="#54F4FC"/>
<path d="M398.129 252.346C400.873 252.346 403.098 250.602 403.098 248.45C403.098 246.299 400.873 244.555 398.129 244.555C395.385 244.555 393.16 246.299 393.16 248.45C393.16 250.602 395.385 252.346 398.129 252.346Z" fill="#54F4FC"/>
<path d="M398.128 252.733C395.117 252.733 392.668 250.812 392.668 248.452C392.668 246.092 395.117 244.172 398.128 244.172C401.139 244.172 403.587 246.092 403.587 248.452C403.588 250.813 401.139 252.733 398.128 252.733ZM398.128 244.942C395.66 244.942 393.65 246.517 393.65 248.452C393.65 250.388 395.66 251.963 398.128 251.963C400.597 251.963 402.605 250.388 402.605 248.452C402.606 246.517 400.597 244.942 398.128 244.942Z" fill="#54F4FC"/>
<path d="M232.23 248.447C232.23 250.515 230.092 252.19 227.455 252.19C224.818 252.19 222.68 250.514 222.68 248.447C222.68 246.38 224.817 244.703 227.455 244.703C230.092 244.704 232.23 246.379 232.23 248.447Z" fill="#54F4FC"/>
<path d="M227.454 252.577C224.55 252.577 222.188 250.725 222.188 248.449C222.188 246.172 224.55 244.32 227.454 244.32C230.357 244.32 232.72 246.172 232.72 248.449C232.72 250.725 230.357 252.577 227.454 252.577ZM227.454 245.09C225.091 245.09 223.17 246.596 223.17 248.448C223.17 250.3 225.091 251.807 227.454 251.807C229.816 251.807 231.738 250.3 231.738 248.448C231.738 246.596 229.816 245.09 227.454 245.09Z" fill="#54F4FC"/>
<path d="M207.813 237.147C210.702 237.147 213.044 235.311 213.044 233.046C213.044 230.781 210.702 228.945 207.813 228.945C204.924 228.945 202.582 230.781 202.582 233.046C202.582 235.311 204.924 237.147 207.813 237.147Z" fill="#54F4FC"/>
<path d="M207.812 237.534C204.657 237.534 202.09 235.522 202.09 233.048C202.09 230.575 204.657 228.562 207.812 228.562C210.966 228.562 213.534 230.575 213.534 233.048C213.534 235.522 210.967 237.534 207.812 237.534ZM207.812 229.332C205.198 229.332 203.072 230.999 203.072 233.048C203.072 235.098 205.198 236.765 207.812 236.765C210.425 236.765 212.552 235.098 212.552 233.048C212.552 230.999 210.425 229.332 207.812 229.332Z" fill="#54F4FC"/>
<path d="M405.079 366.856C405.079 369.865 401.967 372.304 398.128 372.304C394.29 372.304 391.178 369.865 391.178 366.856C391.178 363.846 394.29 361.406 398.128 361.406C401.968 361.407 405.079 363.846 405.079 366.856Z" fill="#54F4FC"/>
<path d="M398.129 372.692C394.026 372.692 390.688 370.074 390.688 366.858C390.688 363.641 394.026 361.023 398.129 361.023C402.233 361.023 405.57 363.641 405.57 366.858C405.57 370.074 402.233 372.692 398.129 372.692ZM398.129 361.793C394.567 361.793 391.67 364.065 391.67 366.858C391.67 369.65 394.567 371.922 398.129 371.922C401.69 371.922 404.588 369.65 404.588 366.858C404.588 364.065 401.69 361.793 398.129 361.793Z" fill="#54F4FC"/>
<path d="M313.551 366.854C313.551 369.026 311.305 370.787 308.535 370.787C305.765 370.787 303.52 369.026 303.52 366.854C303.52 364.682 305.765 362.922 308.535 362.922C311.305 362.922 313.551 364.683 313.551 366.854Z" fill="#54F4FC"/>
<path d="M308.535 371.175C305.498 371.175 303.027 369.237 303.027 366.857C303.027 364.476 305.498 362.539 308.535 362.539C311.572 362.539 314.042 364.476 314.042 366.857C314.042 369.238 311.572 371.175 308.535 371.175ZM308.535 363.309C306.039 363.309 304.009 364.9 304.009 366.857C304.009 368.813 306.039 370.404 308.535 370.404C311.03 370.404 313.06 368.813 313.06 366.857C313.06 364.9 311.03 363.309 308.535 363.309Z" fill="#54F4FC"/>
<path d="M288.891 387.193C292.371 387.193 295.193 384.981 295.193 382.253C295.193 379.524 292.371 377.312 288.891 377.312C285.411 377.312 282.59 379.524 282.59 382.253C282.59 384.981 285.411 387.193 288.891 387.193Z" fill="#54F4FC"/>
<path d="M288.892 387.58C285.147 387.58 282.1 385.191 282.1 382.255C282.1 379.319 285.147 376.93 288.892 376.93C292.638 376.93 295.685 379.319 295.685 382.255C295.685 385.192 292.638 387.58 288.892 387.58ZM288.892 377.7C285.688 377.7 283.082 379.744 283.082 382.255C283.082 384.767 285.688 386.811 288.892 386.811C292.095 386.811 294.702 384.767 294.702 382.255C294.702 379.744 292.096 377.7 288.892 377.7Z" fill="#54F4FC"/>
<path d="M436.883 310.731C436.883 312.39 435.167 313.735 433.051 313.735C430.935 313.735 429.219 312.39 429.219 310.731C429.219 309.072 430.935 307.727 433.051 307.727C435.167 307.727 436.883 309.072 436.883 310.731Z" fill="#54F4FC"/>
<path d="M433.049 314.122C430.666 314.122 428.727 312.602 428.727 310.733C428.727 308.864 430.666 307.344 433.049 307.344C435.434 307.344 437.373 308.864 437.373 310.733C437.373 312.602 435.434 314.122 433.049 314.122ZM433.049 308.114C431.207 308.114 429.709 309.289 429.709 310.733C429.709 312.177 431.207 313.352 433.049 313.352C434.892 313.352 436.391 312.177 436.391 310.733C436.391 309.289 434.892 308.114 433.049 308.114Z" fill="#54F4FC"/>
<path d="M354.916 314.26C357.404 314.26 359.421 312.678 359.421 310.727C359.421 308.777 357.404 307.195 354.916 307.195C352.427 307.195 350.41 308.777 350.41 310.727C350.41 312.678 352.427 314.26 354.916 314.26Z" fill="#54F4FC"/>
<path d="M354.915 314.647C352.16 314.647 349.918 312.889 349.918 310.73C349.918 308.57 352.16 306.812 354.915 306.812C357.67 306.812 359.911 308.57 359.911 310.73C359.911 312.89 357.67 314.647 354.915 314.647ZM354.915 307.583C352.701 307.583 350.9 308.994 350.9 310.73C350.9 312.465 352.701 313.877 354.915 313.877C357.129 313.877 358.929 312.465 358.929 310.73C358.929 308.994 357.129 307.583 354.915 307.583Z" fill="#54F4FC"/>
<path d="M341.103 326.126C341.103 328.651 338.493 330.698 335.272 330.698C332.052 330.698 329.441 328.651 329.441 326.126C329.441 323.601 332.052 321.555 335.272 321.555C338.493 321.555 341.103 323.601 341.103 326.126Z" fill="#54F4FC"/>
<path d="M335.272 331.084C331.785 331.084 328.949 328.861 328.949 326.128C328.949 323.395 331.785 321.172 335.272 321.172C338.757 321.172 341.593 323.395 341.593 326.128C341.594 328.861 338.757 331.084 335.272 331.084ZM335.272 321.942C332.327 321.942 329.931 323.82 329.931 326.128C329.931 328.436 332.327 330.315 335.272 330.315C338.216 330.315 340.611 328.436 340.611 326.128C340.612 323.82 338.217 321.942 335.272 321.942Z" fill="#54F4FC"/>
<path d="M341.573 413.049C341.573 415.778 338.751 417.99 335.272 417.99C331.791 417.99 328.971 415.778 328.971 413.049C328.971 410.321 331.792 408.109 335.272 408.109C338.751 408.109 341.573 410.321 341.573 413.049Z" fill="#54F4FC"/>
<path d="M335.271 418.377C331.526 418.377 328.479 415.988 328.479 413.052C328.479 410.116 331.526 407.727 335.271 407.727C339.015 407.727 342.063 410.116 342.063 413.052C342.063 415.989 339.015 418.377 335.271 418.377ZM335.271 408.497C332.068 408.497 329.461 410.541 329.461 413.052C329.461 415.564 332.068 417.607 335.271 417.607C338.475 417.607 341.08 415.564 341.08 413.052C341.081 410.541 338.475 408.497 335.271 408.497Z" fill="#54F4FC"/>
<path d="M315.627 432.864C318.733 432.864 321.25 430.89 321.25 428.455C321.25 426.021 318.733 424.047 315.627 424.047C312.522 424.047 310.004 426.021 310.004 428.455C310.004 430.89 312.522 432.864 315.627 432.864Z" fill="#54F4FC"/>
<path d="M315.628 433.251C312.257 433.251 309.514 431.101 309.514 428.457C309.514 425.814 312.257 423.664 315.628 423.664C318.999 423.664 321.742 425.814 321.742 428.457C321.743 431.1 319 433.251 315.628 433.251ZM315.628 424.433C312.797 424.433 310.496 426.238 310.496 428.457C310.496 430.676 312.797 432.481 315.628 432.481C318.459 432.481 320.76 430.676 320.76 428.457C320.761 426.238 318.459 424.433 315.628 424.433Z" fill="#54F4FC"/>
<path d="M262.374 431.352C264.419 431.352 266.076 430.052 266.076 428.449C266.076 426.846 264.419 425.547 262.374 425.547C260.329 425.547 258.672 426.846 258.672 428.449C258.672 430.052 260.329 431.352 262.374 431.352Z" fill="#54F4FC"/>
<path d="M262.375 431.739C260.063 431.739 258.182 430.264 258.182 428.451C258.182 426.639 260.063 425.164 262.375 425.164C264.687 425.164 266.568 426.639 266.568 428.451C266.568 430.264 264.687 431.739 262.375 431.739ZM262.375 425.934C260.604 425.934 259.164 427.063 259.164 428.451C259.164 429.839 260.604 430.969 262.375 430.969C264.145 430.969 265.586 429.84 265.586 428.451C265.586 427.064 264.146 425.934 262.375 425.934Z" fill="#54F4FC"/>
<path d="M247.519 443.854C247.519 445.927 245.376 447.607 242.732 447.607C240.088 447.607 237.945 445.927 237.945 443.854C237.945 441.782 240.088 440.102 242.732 440.102C245.376 440.102 247.519 441.782 247.519 443.854Z" fill="#54F4FC"/>
<path d="M242.731 447.995C239.821 447.995 237.453 446.138 237.453 443.857C237.453 441.576 239.821 439.719 242.731 439.719C245.642 439.719 248.009 441.576 248.009 443.857C248.009 446.138 245.642 447.995 242.731 447.995ZM242.731 440.489C240.363 440.489 238.435 441.999 238.435 443.856C238.435 445.714 240.363 447.224 242.731 447.224C245.1 447.224 247.027 445.713 247.027 443.856C247.027 441.999 245.1 440.489 242.731 440.489Z" fill="#54F4FC"/>
<path d="M247.847 493.815C247.847 496.03 245.557 497.826 242.731 497.826C239.906 497.826 237.615 496.03 237.615 493.815C237.615 491.6 239.906 489.805 242.731 489.805C245.557 489.805 247.847 491.6 247.847 493.815Z" fill="#54F4FC"/>
<path d="M242.732 498.214C239.64 498.214 237.125 496.241 237.125 493.818C237.125 491.394 239.64 489.422 242.732 489.422C245.824 489.422 248.339 491.394 248.339 493.818C248.339 496.241 245.824 498.214 242.732 498.214ZM242.732 490.192C240.182 490.192 238.107 491.819 238.107 493.818C238.107 495.817 240.182 497.443 242.732 497.443C245.282 497.443 247.357 495.817 247.357 493.818C247.357 491.819 245.283 490.192 242.732 490.192Z" fill="#54F4FC"/>
<path d="M262.374 512.469C264.669 512.469 266.53 511.01 266.53 509.211C266.53 507.412 264.669 505.953 262.374 505.953C260.079 505.953 258.219 507.412 258.219 509.211C258.219 511.01 260.079 512.469 262.374 512.469Z" fill="#54F4FC"/>
<path d="M262.375 512.856C259.813 512.856 257.729 511.222 257.729 509.213C257.729 507.205 259.813 505.57 262.375 505.57C264.937 505.57 267.022 507.204 267.022 509.213C267.022 511.222 264.937 512.856 262.375 512.856ZM262.375 506.341C260.355 506.341 258.711 507.629 258.711 509.213C258.711 510.797 260.355 512.086 262.375 512.086C264.395 512.086 266.039 510.798 266.039 509.213C266.039 507.629 264.395 506.341 262.375 506.341Z" fill="#54F4FC"/>
<path d="M308.644 512.576C311.013 512.576 312.933 511.071 312.933 509.214C312.933 507.357 311.013 505.852 308.644 505.852C306.276 505.852 304.355 507.357 304.355 509.214C304.355 511.071 306.276 512.576 308.644 512.576Z" fill="#54F4FC"/>
<path d="M308.645 512.964C306.01 512.964 303.865 511.283 303.865 509.216C303.865 507.15 306.01 505.469 308.645 505.469C311.281 505.469 313.425 507.15 313.425 509.216C313.425 511.283 311.281 512.964 308.645 512.964ZM308.645 506.239C306.55 506.239 304.847 507.574 304.847 509.216C304.847 510.859 306.551 512.194 308.645 512.194C310.74 512.194 312.443 510.858 312.443 509.216C312.443 507.574 310.74 506.239 308.645 506.239Z" fill="#54F4FC"/>
<path d="M334.563 524.616C334.563 527.333 331.753 529.536 328.286 529.536C324.82 529.536 322.01 527.333 322.01 524.616C322.01 521.898 324.82 519.695 328.286 519.695C331.753 519.695 334.563 521.898 334.563 524.616Z" fill="#54F4FC"/>
<path d="M328.287 529.924C324.555 529.924 321.52 527.544 321.52 524.618C321.52 521.692 324.555 519.312 328.287 519.312C332.018 519.312 335.053 521.692 335.053 524.618C335.053 527.544 332.018 529.924 328.287 529.924ZM328.287 520.083C325.097 520.083 322.502 522.117 322.502 524.618C322.502 527.119 325.097 529.154 328.287 529.154C331.477 529.154 334.071 527.119 334.071 524.618C334.071 522.118 331.477 520.083 328.287 520.083Z" fill="#54F4FC"/>
</g>
</g>
<defs>
<clipPath id="clip0_203_18489">
<rect width="437.373" height="654.316" fill="white"/>
</clipPath>
</defs>
</svg>
