<svg width="736" height="655" viewBox="0 0 736 655" fill="none" xmlns="http://www.w3.org/2000/svg">
<g clip-path="url(#clip0_203_17748)">
<g opacity="0.08">
<path d="M214.286 377.201L367.064 377.201C377.353 377.201 385.725 383.764 385.725 391.831L385.724 433.581C385.724 442.497 394.977 449.751 406.349 449.751L494.524 449.751C504.813 449.751 513.185 456.313 513.185 464.38L513.185 560.885C513.185 569.801 522.437 577.055 533.81 577.055L735.912 577.055L735.912 575.515L533.81 575.515C523.52 575.515 515.149 568.952 515.149 560.885L515.149 464.38C515.149 455.464 505.897 448.21 494.524 448.21L406.349 448.21C396.06 448.21 387.689 441.648 387.689 433.581L387.689 391.83C387.689 382.914 378.437 375.661 367.064 375.661L214.286 375.661C203.997 375.661 195.626 369.098 195.626 361.031L195.626 343.321C195.626 335.254 203.997 328.691 214.286 328.691L735.912 328.692L735.912 327.152L214.286 327.152C202.914 327.152 193.662 334.406 193.661 343.322L193.661 361.031C193.661 369.947 202.914 377.201 214.286 377.201Z" fill="#176DB3"/>
<path d="M498.889 530.516L630.714 530.516C641.003 530.516 649.375 537.079 649.375 545.146L649.375 654.312L651.339 654.312L651.339 545.146C651.339 536.23 642.087 528.976 630.714 528.976L498.889 528.976C488.6 528.976 480.228 522.414 480.228 514.347L480.229 149.545C480.229 141.478 488.6 134.915 498.889 134.915L735.912 134.915L735.912 133.375L498.889 133.375C487.516 133.375 478.264 140.629 478.264 149.545L478.264 514.347C478.264 523.263 487.516 530.516 498.889 530.516Z" fill="#176DB3"/>
<path d="M268.959 654.312L268.959 248.103C268.959 240.036 277.33 233.473 287.619 233.473L395 233.473C406.373 233.473 415.625 226.219 415.625 217.303L415.625 64.6755C415.625 56.6085 423.997 50.0458 434.286 50.0458L635.079 50.0458C645.369 50.0458 653.74 56.6085 653.74 64.6755L653.74 235.099C653.74 244.014 662.992 251.268 674.365 251.268L735.912 251.268L735.912 249.728L674.365 249.728C664.076 249.728 655.704 243.165 655.704 235.099L655.704 64.6755C655.704 55.7598 646.452 48.5058 635.079 48.5058L434.286 48.5058C422.913 48.5058 413.661 55.7598 413.661 64.6755L413.661 217.303C413.661 225.37 405.29 231.933 395 231.933L287.619 231.933C276.247 231.933 266.994 239.187 266.994 248.103L266.994 654.312L268.959 654.312Z" fill="#176DB3"/>
<path d="M602.45 421.26L602.45 282.32C602.45 273.405 593.198 266.151 581.825 266.151L353.968 266.151C343.679 266.151 335.308 259.588 335.308 251.521L335.308 179.656C335.308 170.74 326.056 163.486 314.683 163.486L257.937 163.486C247.647 163.486 239.276 156.923 239.276 148.856L239.276 -0.00698886L237.312 -0.00698903L237.312 148.857C237.312 157.772 246.564 165.026 257.937 165.026L314.683 165.026C324.972 165.026 333.344 171.589 333.344 179.656L333.343 251.521C333.343 260.437 342.596 267.691 353.968 267.691L581.825 267.691C592.115 267.691 600.486 274.254 600.486 282.321L600.486 421.26C600.486 430.176 609.738 437.43 621.111 437.43L735.912 437.43L735.912 435.89L621.111 435.89C610.821 435.89 602.45 429.327 602.45 421.26Z" fill="#176DB3"/>
<path d="M618.164 654.312L618.164 509.555C618.164 501.488 626.536 494.925 636.825 494.925L735.912 494.925L735.912 493.385L636.825 493.385C625.452 493.385 616.2 500.639 616.2 509.555L616.2 654.312L618.164 654.312Z" fill="#176DB3"/>
<path d="M342.294 654.312L342.294 610.851C342.294 602.784 350.665 596.221 360.954 596.221L489.287 596.221C499.577 596.221 507.948 602.784 507.948 610.851L507.948 654.312L509.912 654.312L509.912 610.851C509.912 601.935 500.66 594.681 489.287 594.681L360.954 594.681C349.582 594.681 340.329 601.935 340.329 610.851L340.329 654.312L342.294 654.312Z" fill="#176DB3"/>
<path d="M195.626 654.312L195.626 491.76C195.626 483.693 203.997 477.13 214.286 477.13L321.667 477.13C331.957 477.13 340.328 483.693 340.328 491.76L340.328 496.551C340.328 505.467 349.58 512.721 360.953 512.721L400.238 512.721C411.611 512.721 420.863 505.467 420.863 496.551L420.863 426.055C420.863 417.139 411.611 409.885 400.239 409.885L334.762 409.885C324.473 409.885 316.101 403.322 316.101 395.255L316.102 308.333C316.102 299.417 306.849 292.163 295.477 292.163L231.747 292.163C221.457 292.163 213.086 285.601 213.086 277.534L213.086 215.935C213.086 207.868 221.458 201.305 231.747 201.305L735.912 201.305L735.912 199.765L231.746 199.765C220.374 199.765 211.121 207.019 211.121 215.935L211.121 277.534C211.121 286.449 220.374 293.703 231.746 293.703L295.477 293.703C305.766 293.703 314.137 300.266 314.137 308.333L314.137 395.255C314.137 404.171 323.389 411.425 334.762 411.425L400.239 411.425C410.528 411.425 418.899 417.988 418.899 426.055L418.899 496.551C418.899 504.618 410.528 511.181 400.238 511.181L360.953 511.181C350.663 511.181 342.292 504.618 342.292 496.551L342.292 491.76C342.292 482.844 333.04 475.59 321.667 475.59L214.286 475.59C202.914 475.59 193.661 482.844 193.661 491.76L193.661 654.312L195.626 654.312Z" fill="#176DB3"/>
<path d="M560.872 482.609L735.912 482.609L735.912 481.069L560.872 481.069C550.583 481.069 542.212 474.507 542.212 466.44L542.212 394.575C542.212 386.508 550.583 379.945 560.873 379.945L735.912 379.945L735.912 378.405L560.873 378.405C549.5 378.405 540.248 385.659 540.248 394.575L540.248 466.44C540.248 475.356 549.5 482.609 560.872 482.609Z" fill="#176DB3"/>
<path d="M611.18 69.4686L611.18 37.3005C611.18 28.3849 601.928 21.1309 590.555 21.1309L380.159 21.1309C368.786 21.1309 359.534 28.3849 359.534 37.3005L359.534 96.8455C359.534 104.912 351.162 111.475 340.873 111.475L202.064 111.475C191.775 111.475 183.403 104.912 183.403 96.8455L183.403 -0.000836808L181.439 -0.000836982L181.439 96.8459C181.439 105.762 190.691 113.016 202.064 113.016L340.873 113.016C352.246 113.016 361.498 105.762 361.498 96.8459L361.498 37.3009C361.498 29.234 369.869 22.6712 380.159 22.6712L590.555 22.6712C600.845 22.6712 609.216 29.234 609.216 37.301L609.216 69.469C609.216 78.3846 618.468 85.6387 629.841 85.6387L735.912 85.6387L735.912 84.0987L629.841 84.0987C619.552 84.0983 611.18 77.5356 611.18 69.4686Z" fill="#176DB3"/>
<path d="M735.912 409.882L682.658 409.882C672.369 409.882 663.997 403.319 663.997 395.252L663.997 302.854C663.997 294.787 672.369 288.224 682.658 288.224L735.912 288.224L735.912 286.684L682.658 286.684C671.285 286.684 662.033 293.938 662.033 302.854L662.033 395.252C662.033 404.168 671.285 411.422 682.658 411.422L735.912 411.422L735.912 409.882Z" fill="#176DB3"/>
<path d="M522.133 214.565L522.133 -0.00394873L520.169 -0.00394909L520.169 214.565C520.169 223.48 529.421 230.734 540.794 230.734L735.912 230.734L735.912 229.194L540.794 229.194C530.504 229.194 522.133 222.632 522.133 214.565Z" fill="#176DB3"/>
<path d="M312.391 0.000493392L312.391 44.8303C312.391 52.8969 304.02 59.4601 293.731 59.4601L60.1995 59.46L60.1995 61L293.731 61C305.103 61 314.355 53.746 314.355 44.8303L314.356 0.000493567L312.391 0.000493392Z" fill="#176DB3"/>
<path d="M312.391 582.105L312.391 654.312L314.355 654.312L314.356 582.105C314.356 573.189 305.103 565.936 293.731 565.936L93.3739 565.936L93.3739 567.476L293.731 567.476C304.02 567.476 312.391 574.038 312.391 582.105Z" fill="#176DB3"/>
<path d="M305.407 467.506L305.407 525.298C305.407 534.214 314.659 541.467 326.032 541.467L408.968 541.467C413.926 541.467 418.543 542.99 421.971 545.755C425.397 548.521 427.206 552.183 427.063 556.068C427.051 556.385 425.889 588.185 425.382 620.078C425.155 634.292 425.104 645.487 425.171 654.312L427.126 654.312C426.927 626.655 427.903 586.65 429.026 556.112C429.185 551.808 427.18 547.749 423.38 544.682C419.579 541.616 414.461 539.927 408.968 539.927L326.032 539.927C315.742 539.927 307.371 533.364 307.371 525.297L307.371 467.505C307.371 458.589 298.119 451.336 286.746 451.336L137.024 451.336L137.024 452.876L286.746 452.876C297.036 452.876 305.407 459.439 305.407 467.506Z" fill="#176DB3"/>
<path d="M228.581 421.264L228.581 654.312L230.545 654.312L230.545 421.264C230.545 412.348 221.293 405.094 209.92 405.094L39.2451 405.094L39.2451 406.634L209.92 406.634C220.209 406.634 228.581 413.197 228.581 421.264Z" fill="#176DB3"/>
<path d="M147.501 -0.00408577L147.501 272.057C147.501 280.124 139.129 286.687 128.84 286.687L39.2465 286.687L39.2465 288.227L128.84 288.227C140.212 288.227 149.465 280.973 149.465 272.057L149.465 -0.0040856L147.501 -0.00408577Z" fill="#176DB3"/>
<path d="M82.4603 344.352C93.8325 344.352 103.085 337.098 103.085 328.182L103.085 241.259C103.085 233.192 111.457 226.629 121.746 226.629L175 226.629C186.373 226.629 195.625 219.375 195.625 210.46L195.625 160.497C195.625 151.581 186.373 144.327 175 144.327L128.73 144.327C118.441 144.327 110.069 137.764 110.069 129.697L110.07 -0.00290924L108.105 -0.00290942L108.105 129.697C108.105 138.612 117.358 145.866 128.73 145.866L175 145.866C185.29 145.866 193.661 152.429 193.661 160.496L193.661 210.459C193.661 218.526 185.29 225.089 175 225.089L121.746 225.089C110.374 225.089 101.121 232.343 101.121 241.259L101.121 328.182C101.121 336.249 92.7497 342.812 82.4603 342.812L4.32651 342.812L4.32651 344.352L82.4603 344.352Z" fill="#176DB3"/>
<path d="M207.962 327.925C207.962 325.187 210.793 322.967 214.286 322.967C217.778 322.967 220.609 325.187 220.609 327.925C220.609 330.663 217.778 332.883 214.286 332.883C210.793 332.883 207.962 330.663 207.962 327.925Z" fill="#54F4FC"/>
<path d="M214.285 322.58C218.042 322.58 221.1 324.977 221.1 327.923C221.1 330.869 218.042 333.266 214.285 333.266C210.528 333.266 207.47 330.869 207.47 327.923C207.47 324.977 210.527 322.58 214.285 322.58ZM214.285 332.495C217.501 332.495 220.117 330.444 220.117 327.923C220.117 325.402 217.501 323.35 214.285 323.35C211.069 323.35 208.453 325.402 208.453 327.923C208.453 330.444 211.069 332.495 214.285 332.495Z" fill="#54F4FC"/>
<path d="M190.469 343.329C190.469 341.521 192.338 340.056 194.644 340.056C196.949 340.056 198.818 341.521 198.818 343.329C198.818 345.136 196.949 346.602 194.644 346.602C192.338 346.602 190.469 345.136 190.469 343.329Z" fill="#54F4FC"/>
<path d="M194.643 339.669C197.216 339.669 199.309 341.31 199.309 343.327C199.309 345.344 197.216 346.984 194.643 346.984C192.07 346.984 189.977 345.344 189.977 343.327C189.977 341.31 192.07 339.669 194.643 339.669ZM194.643 346.215C196.674 346.215 198.326 344.919 198.326 343.327C198.326 341.734 196.674 340.439 194.643 340.439C192.612 340.439 190.959 341.734 190.959 343.327C190.959 344.919 192.612 346.215 194.643 346.215Z" fill="#54F4FC"/>
<path d="M188.423 361.036C188.423 358.342 191.208 356.158 194.645 356.158C198.081 356.158 200.867 358.342 200.867 361.036C200.867 363.73 198.081 365.914 194.645 365.914C191.208 365.914 188.423 363.73 188.423 361.036Z" fill="#54F4FC"/>
<path d="M194.644 355.77C198.346 355.77 201.357 358.131 201.357 361.034C201.357 363.936 198.346 366.297 194.644 366.297C190.942 366.297 187.931 363.936 187.931 361.034C187.931 358.132 190.942 355.77 194.644 355.77ZM194.644 365.527C197.805 365.527 200.375 363.511 200.375 361.034C200.375 358.556 197.805 356.541 194.644 356.541C191.483 356.541 188.913 358.556 188.913 361.034C188.913 363.511 191.483 365.527 194.644 365.527Z" fill="#54F4FC"/>
<path d="M208.167 376.437C208.167 373.787 210.906 371.639 214.287 371.639C217.667 371.639 220.406 373.787 220.406 376.437C220.406 379.086 217.667 381.234 214.287 381.234C210.906 381.235 208.167 379.087 208.167 376.437Z" fill="#54F4FC"/>
<path d="M214.286 371.252C217.931 371.252 220.896 373.577 220.896 376.435C220.896 379.292 217.931 381.617 214.286 381.617C210.64 381.617 207.675 379.292 207.675 376.435C207.675 373.577 210.64 371.252 214.286 371.252ZM214.286 380.847C217.389 380.847 219.914 378.868 219.914 376.435C219.914 374.001 217.389 372.022 214.286 372.022C211.182 372.022 208.657 374.001 208.657 376.435C208.657 378.868 211.182 380.847 214.286 380.847Z" fill="#54F4FC"/>
<path d="M362.393 376.432C362.393 374.41 364.484 372.77 367.064 372.77C369.643 372.77 371.734 374.409 371.734 376.432C371.734 378.455 369.643 380.094 367.064 380.094C364.484 380.094 362.393 378.455 362.393 376.432Z" fill="#54F4FC"/>
<path d="M367.063 372.383C369.909 372.383 372.225 374.199 372.225 376.43C372.225 378.661 369.909 380.477 367.063 380.477C364.217 380.477 361.901 378.661 361.901 376.43C361.901 374.199 364.217 372.383 367.063 372.383ZM367.063 379.707C369.367 379.707 371.242 378.237 371.242 376.43C371.242 374.623 369.368 373.153 367.063 373.153C364.758 373.153 362.883 374.623 362.883 376.43C362.883 378.237 364.758 379.707 367.063 379.707Z" fill="#54F4FC"/>
<path d="M386.708 386.855C383.198 386.855 380.353 389.086 380.353 391.838C380.353 394.59 383.198 396.82 386.708 396.82C390.217 396.82 393.063 394.59 393.063 391.838C393.063 389.086 390.217 386.855 386.708 386.855Z" fill="#54F4FC"/>
<path d="M386.707 386.468C390.482 386.468 393.553 388.876 393.553 391.836C393.553 394.796 390.482 397.203 386.707 397.203C382.931 397.203 379.861 394.795 379.861 391.836C379.861 388.876 382.932 386.468 386.707 386.468ZM386.707 396.433C389.94 396.433 392.571 394.371 392.571 391.835C392.571 389.3 389.94 387.238 386.707 387.238C383.473 387.238 380.843 389.301 380.843 391.835C380.843 394.371 383.473 396.433 386.707 396.433Z" fill="#54F4FC"/>
<path d="M386.707 429.249C383.652 429.249 381.175 431.19 381.175 433.585C381.175 435.98 383.652 437.922 386.707 437.922C389.762 437.922 392.238 435.98 392.238 433.585C392.238 431.19 389.762 429.249 386.707 429.249Z" fill="#54F4FC"/>
<path d="M386.706 428.862C390.027 428.862 392.729 430.98 392.729 433.583C392.729 436.187 390.027 438.305 386.706 438.305C383.385 438.305 380.684 436.187 380.684 433.583C380.684 430.979 383.385 428.862 386.706 428.862ZM386.706 437.535C389.485 437.535 391.746 435.762 391.746 433.583C391.746 431.405 389.485 429.632 386.706 429.632C383.927 429.632 381.666 431.405 381.666 433.583C381.666 435.762 383.927 437.535 386.706 437.535Z" fill="#54F4FC"/>
<path d="M402 448.989C402 447.105 403.947 445.579 406.35 445.579C408.752 445.579 410.699 447.105 410.699 448.989C410.699 450.872 408.752 452.398 406.35 452.398C403.947 452.399 402 450.872 402 448.989Z" fill="#54F4FC"/>
<path d="M406.349 445.191C409.018 445.191 411.189 446.894 411.189 448.986C411.189 451.079 409.018 452.781 406.349 452.781C403.68 452.781 401.509 451.079 401.509 448.986C401.509 446.894 403.68 445.191 406.349 445.191ZM406.349 452.011C408.477 452.011 410.207 450.655 410.207 448.986C410.207 447.318 408.477 445.961 406.349 445.961C404.222 445.961 402.491 447.318 402.491 448.986C402.491 450.654 404.222 452.011 406.349 452.011Z" fill="#54F4FC"/>
<path d="M488.977 448.988C488.977 446.587 491.459 444.64 494.522 444.64C497.585 444.64 500.068 446.587 500.068 448.988C500.068 451.39 497.586 453.336 494.522 453.336C491.459 453.336 488.977 451.39 488.977 448.988Z" fill="#54F4FC"/>
<path d="M494.524 444.253C497.852 444.253 500.561 446.376 500.561 448.986C500.561 451.596 497.852 453.719 494.524 453.719C491.195 453.719 488.487 451.596 488.487 448.986C488.487 446.376 491.195 444.253 494.524 444.253ZM494.524 452.949C497.311 452.949 499.578 451.171 499.578 448.986C499.578 446.801 497.311 445.023 494.524 445.023C491.737 445.023 489.469 446.8 489.469 448.986C489.469 451.171 491.737 452.949 494.524 452.949Z" fill="#54F4FC"/>
<path d="M510.385 464.382C510.385 462.747 512.076 461.421 514.162 461.421C516.248 461.421 517.939 462.747 517.939 464.382C517.939 466.018 516.248 467.344 514.162 467.344C512.076 467.344 510.385 466.018 510.385 464.382Z" fill="#54F4FC"/>
<path d="M514.164 461.034C516.517 461.034 518.432 462.535 518.432 464.38C518.432 466.225 516.517 467.727 514.164 467.727C511.81 467.727 509.895 466.225 509.895 464.38C509.895 462.535 511.81 461.034 514.164 461.034ZM514.164 466.956C515.975 466.956 517.45 465.801 517.45 464.38C517.45 462.96 515.975 461.804 514.164 461.804C512.352 461.804 510.878 462.96 510.878 464.38C510.877 465.801 512.351 466.956 514.164 466.956Z" fill="#54F4FC"/>
<path d="M508.284 560.888C508.284 558.341 510.917 556.276 514.166 556.276C517.415 556.276 520.049 558.341 520.049 560.888C520.049 563.435 517.415 565.5 514.166 565.5C510.918 565.5 508.284 563.435 508.284 560.888Z" fill="#54F4FC"/>
<path d="M514.167 555.889C517.682 555.889 520.541 558.131 520.541 560.886C520.541 563.641 517.682 565.883 514.167 565.883C510.653 565.883 507.794 563.641 507.794 560.886C507.793 558.131 510.653 555.889 514.167 555.889ZM514.167 565.113C517.14 565.113 519.559 563.217 519.559 560.886C519.559 558.556 517.14 556.659 514.167 556.659C511.194 556.659 508.776 558.556 508.776 560.886C508.775 563.217 511.194 565.113 514.167 565.113Z" fill="#54F4FC"/>
<path d="M528.019 576.29C528.019 573.784 530.611 571.752 533.807 571.752C537.004 571.752 539.596 573.784 539.596 576.29C539.596 578.796 537.004 580.828 533.807 580.828C530.611 580.828 528.019 578.797 528.019 576.29Z" fill="#54F4FC"/>
<path d="M533.809 571.365C537.272 571.365 540.088 573.574 540.088 576.288C540.088 579.003 537.272 581.211 533.809 581.211C530.347 581.211 527.53 579.003 527.53 576.288C527.53 573.574 530.347 571.365 533.809 571.365ZM533.809 580.441C536.729 580.441 539.106 578.578 539.106 576.288C539.106 573.998 536.729 572.135 533.809 572.135C530.888 572.135 528.512 573.998 528.512 576.288C528.512 578.578 530.888 580.441 533.809 580.441Z" fill="#54F4FC"/>
<path d="M492.498 134.147C492.498 131.381 495.358 129.139 498.887 129.139C502.415 129.139 505.275 131.381 505.275 134.147C505.275 136.914 502.415 139.156 498.887 139.156C495.358 139.156 492.498 136.914 492.498 134.147Z" fill="#54F4FC"/>
<path d="M498.888 128.752C502.681 128.752 505.768 131.172 505.768 134.146C505.768 137.119 502.681 139.539 498.888 139.539C495.094 139.539 492.008 137.119 492.008 134.146C492.008 131.172 495.095 128.752 498.888 128.752ZM498.888 138.77C502.14 138.77 504.785 136.696 504.785 134.146C504.785 131.596 502.14 129.522 498.888 129.522C495.636 129.522 492.99 131.596 492.99 134.146C492.99 136.696 495.636 138.77 498.888 138.77Z" fill="#54F4FC"/>
<path d="M474.163 149.546C474.163 147.345 476.44 145.561 479.247 145.561C482.054 145.561 484.33 147.345 484.33 149.546C484.33 151.747 482.054 153.531 479.247 153.531C476.439 153.531 474.163 151.747 474.163 149.546Z" fill="#54F4FC"/>
<path d="M479.248 145.174C482.322 145.174 484.822 147.134 484.822 149.544C484.822 151.954 482.322 153.914 479.248 153.914C476.174 153.914 473.673 151.954 473.673 149.544C473.673 147.134 476.174 145.174 479.248 145.174ZM479.248 153.144C481.78 153.144 483.84 151.529 483.84 149.544C483.84 147.558 481.78 145.943 479.248 145.943C476.716 145.943 474.656 147.558 474.656 149.544C474.656 151.529 476.716 153.144 479.248 153.144Z" fill="#54F4FC"/>
<path d="M474.082 514.351C474.082 512.115 476.393 510.303 479.245 510.303C482.097 510.303 484.408 512.115 484.408 514.351C484.408 516.586 482.097 518.398 479.245 518.398C476.393 518.398 474.082 516.586 474.082 514.351Z" fill="#54F4FC"/>
<path d="M479.246 509.916C482.364 509.916 484.9 511.904 484.9 514.349C484.9 516.793 482.364 518.781 479.246 518.781C476.128 518.781 473.592 516.793 473.592 514.349C473.593 511.904 476.129 509.916 479.246 509.916ZM479.246 518.011C481.822 518.011 483.918 516.368 483.918 514.349C483.918 512.329 481.822 510.686 479.246 510.686C476.67 510.686 474.574 512.329 474.574 514.349C474.575 516.368 476.67 518.011 479.246 518.011Z" fill="#54F4FC"/>
<path d="M498.885 526.103C496.318 526.103 494.237 527.734 494.237 529.747C494.237 531.759 496.318 533.391 498.885 533.391C501.452 533.391 503.533 531.759 503.533 529.747C503.533 527.734 501.452 526.103 498.885 526.103Z" fill="#54F4FC"/>
<path d="M498.886 525.715C501.72 525.715 504.025 527.523 504.025 529.744C504.025 531.966 501.72 533.773 498.886 533.773C496.053 533.773 493.747 531.966 493.747 529.744C493.747 527.523 496.053 525.715 498.886 525.715ZM498.886 533.003C501.179 533.003 503.043 531.541 503.043 529.744C503.043 527.947 501.179 526.485 498.886 526.485C496.594 526.485 494.729 527.947 494.729 529.744C494.729 531.541 496.595 533.003 498.886 533.003Z" fill="#54F4FC"/>
<path d="M630.716 526.727C628.586 526.727 626.86 528.08 626.86 529.75C626.86 531.42 628.586 532.773 630.716 532.773C632.846 532.773 634.572 531.42 634.572 529.75C634.572 528.08 632.846 526.727 630.716 526.727Z" fill="#54F4FC"/>
<path d="M630.717 526.339C633.114 526.339 635.064 527.869 635.064 529.748C635.064 531.627 633.114 533.156 630.717 533.156C628.319 533.156 626.369 531.627 626.369 529.748C626.369 527.869 628.319 526.339 630.717 526.339ZM630.717 532.386C632.572 532.386 634.082 531.203 634.082 529.748C634.082 528.294 632.573 527.11 630.717 527.11C628.861 527.11 627.351 528.294 627.351 529.748C627.351 531.203 628.861 532.386 630.717 532.386Z" fill="#54F4FC"/>
<path d="M650.357 540.294C646.936 540.294 644.162 542.468 644.162 545.151C644.162 547.833 646.936 550.008 650.357 550.008C653.779 550.008 656.553 547.833 656.553 545.151C656.553 542.468 653.779 540.294 650.357 540.294Z" fill="#54F4FC"/>
<path d="M650.359 539.907C654.046 539.907 657.045 542.258 657.045 545.149C657.045 548.039 654.046 550.391 650.359 550.391C646.672 550.391 643.673 548.039 643.673 545.149C643.673 542.258 646.672 539.907 650.359 539.907ZM650.359 549.62C653.504 549.62 656.063 547.614 656.063 545.149C656.063 542.683 653.504 540.677 650.359 540.677C647.214 540.677 644.655 542.683 644.655 545.149C644.655 547.614 647.214 549.62 650.359 549.62Z" fill="#54F4FC"/>
<path d="M262.807 248.103C262.807 245.865 265.122 244.05 267.977 244.05C270.832 244.05 273.146 245.865 273.146 248.103C273.146 250.342 270.832 252.156 267.977 252.156C265.122 252.156 262.807 250.342 262.807 248.103Z" fill="#54F4FC"/>
<path d="M267.976 243.663C271.097 243.663 273.637 245.655 273.637 248.101C273.637 250.548 271.097 252.539 267.976 252.539C264.855 252.539 262.316 250.548 262.316 248.101C262.315 245.655 264.854 243.663 267.976 243.663ZM267.976 251.769C270.556 251.769 272.655 250.124 272.655 248.101C272.655 246.079 270.556 244.433 267.976 244.433C265.397 244.433 263.298 246.079 263.298 248.101C263.297 250.124 265.397 251.769 267.976 251.769Z" fill="#54F4FC"/>
<path d="M282.532 232.707C282.532 230.504 284.81 228.718 287.62 228.718C290.429 228.718 292.707 230.504 292.707 232.707C292.707 234.909 290.429 236.695 287.62 236.695C284.809 236.696 282.532 234.91 282.532 232.707Z" fill="#54F4FC"/>
<path d="M287.619 228.331C290.695 228.331 293.197 230.293 293.197 232.704C293.197 235.116 290.694 237.078 287.619 237.078C284.543 237.078 282.04 235.116 282.04 232.704C282.04 230.293 284.543 228.331 287.619 228.331ZM287.619 236.309C290.153 236.309 292.215 234.692 292.215 232.705C292.215 230.718 290.153 229.101 287.619 229.101C285.084 229.101 283.022 230.718 283.022 232.705C283.022 234.692 285.084 236.309 287.619 236.309Z" fill="#54F4FC"/>
<path d="M388.101 232.708C388.101 229.72 391.191 227.299 395.001 227.299C398.812 227.299 401.9 229.72 401.9 232.708C401.9 235.695 398.812 238.117 395.001 238.117C391.19 238.117 388.101 235.695 388.101 232.708Z" fill="#54F4FC"/>
<path d="M395 226.912C399.075 226.912 402.391 229.51 402.391 232.705C402.391 235.9 399.075 238.5 395 238.5C390.925 238.5 387.609 235.9 387.609 232.705C387.609 229.51 390.925 226.912 395 226.912ZM395 237.73C398.533 237.73 401.408 235.476 401.408 232.705C401.408 229.935 398.534 227.682 395 227.682C391.467 227.682 388.592 229.935 388.592 232.705C388.592 235.476 391.467 237.73 395 237.73Z" fill="#54F4FC"/>
<path d="M409.183 217.304C409.183 214.94 411.628 213.023 414.644 213.023C417.66 213.023 420.105 214.94 420.105 217.304C420.105 219.669 417.66 221.586 414.644 221.586C411.628 221.586 409.183 219.669 409.183 217.304Z" fill="#54F4FC"/>
<path d="M414.643 212.636C417.926 212.636 420.596 214.729 420.596 217.302C420.596 219.875 417.925 221.969 414.643 221.969C411.361 221.969 408.691 219.875 408.691 217.302C408.691 214.729 411.361 212.636 414.643 212.636ZM414.643 221.199C417.384 221.199 419.614 219.451 419.614 217.302C419.614 215.154 417.384 213.406 414.643 213.406C411.903 213.406 409.673 215.154 409.673 217.302C409.673 219.451 411.903 221.199 414.643 221.199Z" fill="#54F4FC"/>
<path d="M409.654 64.6746C409.654 62.5146 411.888 60.7634 414.644 60.7634C417.399 60.7634 419.633 62.5146 419.633 64.6746C419.633 66.835 417.399 68.5859 414.644 68.5859C411.888 68.5859 409.654 66.8346 409.654 64.6746Z" fill="#54F4FC"/>
<path d="M414.643 60.3756C417.665 60.3756 420.123 62.3028 420.123 64.6722C420.123 67.0416 417.665 68.9687 414.643 68.9687C411.622 68.9687 409.163 67.0416 409.163 64.6722C409.163 62.3028 411.622 60.3756 414.643 60.3756ZM414.643 68.199C417.124 68.199 419.141 66.6171 419.141 64.6726C419.141 62.7281 417.124 61.1458 414.643 61.1458C412.163 61.1458 410.145 62.7277 410.145 64.6726C410.145 66.6167 412.163 68.199 414.643 68.199Z" fill="#54F4FC"/>
<path d="M430.359 49.2806C430.359 47.5802 432.117 46.2019 434.286 46.2019C436.455 46.2019 438.213 47.5802 438.213 49.2806C438.213 50.9811 436.455 52.3594 434.286 52.3594C432.117 52.3598 430.359 50.9811 430.359 49.2806Z" fill="#54F4FC"/>
<path d="M434.285 45.8149C436.721 45.8149 438.703 47.3691 438.703 49.2789C438.703 51.1887 436.721 52.7422 434.285 52.7422C431.849 52.7422 429.867 51.1887 429.867 49.2789C429.867 47.3691 431.849 45.8149 434.285 45.8149ZM434.285 51.9728C436.18 51.9728 437.721 50.7642 437.721 49.2793C437.721 47.7937 436.18 46.5851 434.285 46.5851C432.39 46.5851 430.849 47.7933 430.849 49.2793C430.849 50.7642 432.39 51.9728 434.285 51.9728Z" fill="#54F4FC"/>
<path d="M629.183 49.2763C629.183 46.7233 631.823 44.6541 635.079 44.6541C638.335 44.6541 640.975 46.7237 640.975 49.2763C640.975 51.8292 638.335 53.8984 635.079 53.8984C631.823 53.8988 629.183 51.8292 629.183 49.2763Z" fill="#54F4FC"/>
<path d="M635.079 44.2672C638.601 44.2672 641.467 46.513 641.467 49.2742C641.467 52.0354 638.601 54.2812 635.079 54.2812C631.557 54.2812 628.693 52.0351 628.693 49.2742C628.693 46.5134 631.557 44.2672 635.079 44.2672ZM635.079 53.5115C638.06 53.5115 640.485 51.6105 640.485 49.2742C640.485 46.9379 638.06 45.0369 635.079 45.0369C632.1 45.0369 629.675 46.9379 629.675 49.2742C629.675 51.6105 632.099 53.5115 635.079 53.5115Z" fill="#54F4FC"/>
<path d="M649.696 64.6782C649.696 62.5028 651.945 60.7396 654.72 60.7396C657.495 60.7396 659.744 62.5032 659.744 64.6782C659.744 66.8536 657.495 68.6172 654.72 68.6172C651.945 68.6168 649.696 66.8536 649.696 64.6782Z" fill="#54F4FC"/>
<path d="M654.721 60.3527C657.762 60.3527 660.236 62.2921 660.236 64.6765C660.236 67.061 657.762 69 654.721 69C651.68 69 649.206 67.0606 649.206 64.6765C649.206 62.2918 651.68 60.3527 654.721 60.3527ZM654.721 68.2298C657.221 68.2298 659.254 66.6356 659.254 64.6761C659.254 62.7166 657.22 61.1225 654.721 61.1225C652.222 61.1225 650.188 62.7166 650.188 64.6761C650.188 66.6356 652.222 68.2298 654.721 68.2298Z" fill="#54F4FC"/>
<path d="M647.789 235.099C647.789 232.099 650.892 229.667 654.718 229.667C658.544 229.667 661.646 232.099 661.646 235.099C661.646 238.1 658.544 240.531 654.718 240.531C650.892 240.531 647.789 238.1 647.789 235.099Z" fill="#54F4FC"/>
<path d="M654.719 229.28C658.81 229.28 662.139 231.89 662.139 235.097C662.139 238.305 658.81 240.914 654.719 240.914C650.628 240.914 647.3 238.305 647.3 235.097C647.299 231.89 650.628 229.28 654.719 229.28ZM654.719 240.144C658.269 240.144 661.157 237.88 661.157 235.097C661.157 232.314 658.269 230.05 654.719 230.05C651.169 230.05 648.282 232.314 648.282 235.097C648.281 237.88 651.169 240.144 654.719 240.144Z" fill="#54F4FC"/>
<path d="M670.242 250.501C670.242 248.715 672.088 247.267 674.366 247.267C676.644 247.267 678.49 248.715 678.49 250.501C678.49 252.287 676.644 253.734 674.366 253.734C672.088 253.734 670.242 252.286 670.242 250.501Z" fill="#54F4FC"/>
<path d="M674.367 246.88C676.913 246.88 678.982 248.504 678.982 250.499C678.982 252.494 676.912 254.117 674.367 254.117C671.822 254.117 669.752 252.494 669.752 250.499C669.752 248.504 671.822 246.88 674.367 246.88ZM674.367 253.347C676.37 253.347 678 252.07 678 250.498C678 248.928 676.37 247.65 674.367 247.65C672.364 247.65 670.734 248.928 670.734 250.498C670.734 252.07 672.364 253.347 674.367 253.347Z" fill="#54F4FC"/>
<path d="M232.091 148.863C232.091 146.177 234.868 144 238.294 144C241.721 144 244.498 146.177 244.498 148.863C244.498 151.549 241.721 153.727 238.294 153.727C234.868 153.727 232.091 151.549 232.091 148.863Z" fill="#54F4FC"/>
<path d="M238.294 143.613C241.985 143.613 244.988 145.967 244.988 148.861C244.988 151.755 241.985 154.109 238.294 154.109C234.602 154.109 231.599 151.755 231.599 148.861C231.599 145.967 234.602 143.613 238.294 143.613ZM238.294 153.34C241.443 153.34 244.006 151.33 244.006 148.861C244.006 146.392 241.443 144.382 238.294 144.382C235.144 144.382 232.581 146.392 232.581 148.861C232.581 151.33 235.143 153.34 238.294 153.34Z" fill="#54F4FC"/>
<path d="M253.825 164.261C253.825 162.481 255.666 161.037 257.937 161.037C260.208 161.037 262.049 162.48 262.049 164.261C262.049 166.041 260.208 167.484 257.937 167.484C255.666 167.484 253.825 166.041 253.825 164.261Z" fill="#54F4FC"/>
<path d="M257.936 160.65C260.474 160.65 262.539 162.269 262.539 164.259C262.539 166.248 260.474 167.867 257.936 167.867C255.398 167.867 253.334 166.248 253.334 164.259C253.333 162.269 255.398 160.65 257.936 160.65ZM257.936 167.097C259.932 167.097 261.557 165.825 261.557 164.259C261.557 162.693 259.932 161.42 257.936 161.42C255.94 161.42 254.316 162.693 254.316 164.259C254.316 165.825 255.94 167.097 257.936 167.097Z" fill="#54F4FC"/>
<path d="M309.342 164.265C309.342 161.952 311.733 160.077 314.684 160.077C317.634 160.077 320.025 161.952 320.025 164.265C320.025 166.578 317.634 168.453 314.684 168.453C311.733 168.453 309.342 166.578 309.342 164.265Z" fill="#54F4FC"/>
<path d="M314.683 159.689C317.899 159.689 320.516 161.74 320.516 164.263C320.516 166.784 317.899 168.836 314.683 168.836C311.466 168.836 308.85 166.784 308.85 164.263C308.85 161.74 311.466 159.689 314.683 159.689ZM314.683 168.066C317.357 168.066 319.533 166.36 319.533 164.263C319.533 162.165 317.357 160.459 314.683 160.459C312.008 160.459 309.832 162.165 309.832 164.263C309.832 166.36 312.008 168.066 314.683 168.066Z" fill="#54F4FC"/>
<path d="M330.463 179.66C330.463 177.987 332.192 176.632 334.325 176.632C336.458 176.632 338.188 177.987 338.188 179.66C338.188 181.332 336.458 182.687 334.325 182.687C332.193 182.687 330.463 181.332 330.463 179.66Z" fill="#54F4FC"/>
<path d="M334.324 176.244C336.725 176.244 338.678 177.775 338.678 179.657C338.678 181.539 336.725 183.07 334.324 183.07C331.924 183.07 329.971 181.539 329.971 179.657C329.971 177.775 331.924 176.244 334.324 176.244ZM334.324 182.3C336.183 182.3 337.696 181.114 337.696 179.657C337.696 178.2 336.183 177.014 334.324 177.014C332.466 177.014 330.953 178.2 330.953 179.657C330.953 181.114 332.466 182.3 334.324 182.3Z" fill="#54F4FC"/>
<path d="M328.642 251.529C328.642 249.069 331.187 247.074 334.325 247.074C337.464 247.074 340.008 249.069 340.008 251.529C340.008 253.99 337.464 255.984 334.325 255.984C331.187 255.985 328.642 253.99 328.642 251.529Z" fill="#54F4FC"/>
<path d="M334.324 246.686C337.729 246.686 340.498 248.858 340.498 251.527C340.498 254.196 337.728 256.367 334.324 256.367C330.92 256.367 328.151 254.196 328.151 251.527C328.151 248.858 330.92 246.686 334.324 246.686ZM334.324 255.597C337.187 255.597 339.516 253.771 339.516 251.526C339.516 249.282 337.187 247.456 334.324 247.456C331.462 247.456 329.133 249.282 329.133 251.526C329.133 253.771 331.462 255.597 334.324 255.597Z" fill="#54F4FC"/>
<path d="M349.768 266.927C349.768 265.109 351.648 263.634 353.967 263.634C356.286 263.634 358.166 265.109 358.166 266.927C358.166 268.745 356.286 270.219 353.967 270.219C351.648 270.219 349.768 268.745 349.768 266.927Z" fill="#54F4FC"/>
<path d="M353.968 263.247C356.554 263.247 358.658 264.897 358.658 266.924C358.658 268.952 356.554 270.602 353.967 270.602C351.381 270.602 349.277 268.952 349.277 266.924C349.277 264.897 351.382 263.247 353.968 263.247ZM353.967 269.832C356.012 269.832 357.676 268.527 357.676 266.924C357.676 265.321 356.012 264.017 353.968 264.017C351.923 264.017 350.259 265.321 350.259 266.924C350.259 268.527 351.923 269.832 353.967 269.832Z" fill="#54F4FC"/>
<path d="M576.405 266.925C576.405 264.579 578.831 262.677 581.823 262.677C584.815 262.677 587.24 264.579 587.24 266.925C587.24 269.27 584.815 271.172 581.823 271.172C578.831 271.172 576.405 269.27 576.405 266.925Z" fill="#54F4FC"/>
<path d="M581.824 262.29C585.082 262.29 587.732 264.368 587.732 266.922C587.732 269.476 585.082 271.555 581.824 271.555C578.566 271.555 575.916 269.476 575.916 266.922C575.916 264.368 578.566 262.29 581.824 262.29ZM581.824 270.785C584.54 270.785 586.75 269.053 586.75 266.923C586.75 264.793 584.54 263.061 581.824 263.061C579.108 263.061 576.898 264.793 576.898 266.923C576.898 269.052 579.108 270.785 581.824 270.785Z" fill="#54F4FC"/>
<path d="M601.465 278.773C598.964 278.773 596.936 280.363 596.936 282.324C596.936 284.285 598.964 285.875 601.465 285.875C603.966 285.875 605.994 284.285 605.994 282.324C605.994 280.363 603.966 278.773 601.465 278.773Z" fill="#54F4FC"/>
<path d="M601.466 278.386C604.234 278.386 606.486 280.152 606.486 282.322C606.486 284.492 604.234 286.258 601.466 286.258C598.697 286.258 596.445 284.492 596.445 282.322C596.445 280.152 598.697 278.386 601.466 278.386ZM601.466 285.488C603.692 285.488 605.504 284.068 605.504 282.322C605.504 280.576 603.693 279.156 601.466 279.156C599.239 279.156 597.427 280.576 597.427 282.322C597.428 284.068 599.239 285.488 601.466 285.488Z" fill="#54F4FC"/>
<path d="M597.625 421.269C597.625 419.605 599.346 418.256 601.468 418.256C603.59 418.256 605.311 419.605 605.311 421.269C605.311 422.933 603.59 424.281 601.468 424.281C599.346 424.281 597.625 422.933 597.625 421.269Z" fill="#54F4FC"/>
<path d="M601.469 417.869C603.859 417.869 605.803 419.393 605.803 421.266C605.803 423.14 603.859 424.664 601.469 424.664C599.08 424.664 597.136 423.14 597.136 421.266C597.136 419.393 599.08 417.869 601.469 417.869ZM601.469 423.894C603.317 423.894 604.821 422.715 604.821 421.266C604.821 419.817 603.317 418.639 601.469 418.639C599.621 418.639 598.118 419.817 598.118 421.266C598.118 422.715 599.621 423.894 601.469 423.894Z" fill="#54F4FC"/>
<path d="M617.328 436.669C617.328 435.032 619.021 433.705 621.108 433.705C623.196 433.705 624.889 435.033 624.889 436.669C624.889 438.306 623.196 439.633 621.108 439.633C619.021 439.633 617.328 438.306 617.328 436.669Z" fill="#54F4FC"/>
<path d="M621.11 433.318C623.465 433.318 625.381 434.82 625.381 436.667C625.381 438.513 623.465 440.016 621.11 440.016C618.754 440.016 616.838 438.513 616.838 436.667C616.838 434.821 618.754 433.318 621.11 433.318ZM621.11 439.246C622.923 439.246 624.399 438.089 624.399 436.667C624.399 435.245 622.923 434.088 621.11 434.088C619.296 434.088 617.82 435.245 617.82 436.667C617.82 438.089 619.296 439.246 621.11 439.246Z" fill="#54F4FC"/>
<path d="M636.823 488.823C633.065 488.823 630.018 491.211 630.018 494.158C630.018 497.104 633.065 499.492 636.823 499.492C640.581 499.492 643.627 497.104 643.627 494.158C643.627 491.211 640.581 488.823 636.823 488.823Z" fill="#54F4FC"/>
<path d="M636.824 488.436C640.846 488.436 644.119 491.002 644.119 494.156C644.119 497.309 640.846 499.875 636.824 499.875C632.801 499.875 629.528 497.309 629.528 494.156C629.528 491.002 632.801 488.436 636.824 488.436ZM636.824 499.106C640.305 499.106 643.137 496.885 643.137 494.156C643.137 491.427 640.305 489.207 636.824 489.207C633.343 489.207 630.511 491.427 630.511 494.156C630.511 496.885 633.343 499.106 636.824 499.106Z" fill="#54F4FC"/>
<path d="M611.645 509.558C611.645 507.162 614.124 505.218 617.181 505.218C620.238 505.218 622.717 507.161 622.717 509.558C622.717 511.955 620.238 513.898 617.181 513.898C614.124 513.898 611.645 511.955 611.645 509.558Z" fill="#54F4FC"/>
<path d="M617.183 504.831C620.506 504.831 623.209 506.951 623.209 509.556C623.209 512.161 620.505 514.281 617.183 514.281C613.86 514.281 611.156 512.162 611.156 509.556C611.156 506.951 613.86 504.831 617.183 504.831ZM617.183 513.511C619.964 513.511 622.227 511.736 622.227 509.556C622.227 507.375 619.964 505.601 617.183 505.601C614.401 505.601 612.138 507.375 612.138 509.556C612.138 511.737 614.401 513.511 617.183 513.511Z" fill="#54F4FC"/>
<path d="M501.995 610.821C501.972 613.826 505.06 616.278 508.894 616.296C512.727 616.314 515.854 613.893 515.878 610.887C515.901 607.882 512.812 605.43 508.979 605.412C505.145 605.394 502.018 607.815 501.995 610.821Z" fill="#54F4FC"/>
<path d="M508.929 605.026C513.027 605.026 516.361 607.64 516.361 610.853C516.361 614.066 513.027 616.68 508.929 616.68C504.831 616.68 501.497 614.066 501.497 610.853C501.497 607.639 504.831 605.026 508.929 605.026ZM508.929 615.91C512.485 615.91 515.379 613.641 515.379 610.853C515.379 608.065 512.485 605.796 508.929 605.796C505.373 605.796 502.479 608.065 502.479 610.853C502.479 613.641 505.373 615.91 508.929 615.91Z" fill="#54F4FC"/>
<path d="M485.47 595.453C485.47 593.801 487.179 592.461 489.287 592.461C491.395 592.461 493.104 593.8 493.104 595.453C493.104 597.106 491.395 598.445 489.287 598.445C487.179 598.445 485.47 597.106 485.47 595.453Z" fill="#54F4FC"/>
<path d="M489.288 592.074C491.663 592.074 493.596 593.589 493.596 595.451C493.596 597.313 491.663 598.828 489.288 598.828C486.913 598.828 484.981 597.313 484.981 595.451C484.98 593.589 486.913 592.074 489.288 592.074ZM489.288 598.058C491.121 598.058 492.614 596.888 492.614 595.451C492.614 594.014 491.122 592.844 489.288 592.844C487.454 592.844 485.963 594.014 485.963 595.451C485.963 596.888 487.454 598.058 489.288 598.058Z" fill="#54F4FC"/>
<path d="M355.051 595.451C355.051 592.896 357.694 590.824 360.953 590.824C364.213 590.824 366.855 592.895 366.855 595.451C366.855 598.006 364.213 600.078 360.953 600.078C357.694 600.078 355.051 598.006 355.051 595.451Z" fill="#54F4FC"/>
<path d="M360.952 590.437C364.478 590.437 367.346 592.685 367.346 595.449C367.346 598.213 364.478 600.461 360.952 600.461C357.427 600.461 354.559 598.213 354.559 595.449C354.559 592.685 357.427 590.437 360.952 590.437ZM360.952 599.691C363.936 599.691 366.364 597.787 366.364 595.449C366.364 593.11 363.936 591.207 360.952 591.207C357.969 591.207 355.541 593.11 355.541 595.449C355.541 597.788 357.969 599.691 360.952 599.691Z" fill="#54F4FC"/>
<path d="M336.233 610.856C336.233 608.658 338.506 606.876 341.31 606.876C344.114 606.876 346.387 608.658 346.387 610.856C346.387 613.054 344.114 614.836 341.31 614.836C338.506 614.836 336.233 613.054 336.233 610.856Z" fill="#54F4FC"/>
<path d="M341.309 606.488C344.379 606.488 346.877 608.446 346.877 610.853C346.877 613.26 344.379 615.219 341.309 615.219C338.239 615.219 335.741 613.26 335.741 610.853C335.741 608.447 338.239 606.488 341.309 606.488ZM341.309 614.449C343.837 614.449 345.895 612.836 345.895 610.854C345.895 608.871 343.837 607.259 341.309 607.259C338.781 607.259 336.723 608.872 336.723 610.854C336.723 612.836 338.78 614.449 341.309 614.449Z" fill="#54F4FC"/>
<path d="M231.748 197.299C229.467 197.299 227.618 198.748 227.618 200.536C227.618 202.324 229.467 203.773 231.748 203.773C234.028 203.773 235.877 202.324 235.877 200.536C235.877 198.748 234.028 197.299 231.748 197.299Z" fill="#54F4FC"/>
<path d="M231.747 196.911C234.295 196.911 236.367 198.536 236.367 200.534C236.367 202.531 234.294 204.156 231.747 204.156C229.199 204.156 227.126 202.531 227.126 200.534C227.126 198.536 229.199 196.911 231.747 196.911ZM231.747 203.386C233.753 203.386 235.385 202.106 235.385 200.534C235.385 198.961 233.753 197.681 231.747 197.681C229.741 197.681 228.108 198.961 228.108 200.534C228.108 202.106 229.741 203.386 231.747 203.386Z" fill="#54F4FC"/>
<path d="M206.105 215.938C206.105 213.341 208.79 211.235 212.103 211.235C215.416 211.235 218.102 213.341 218.102 215.938C218.102 218.535 215.416 220.641 212.103 220.641C208.79 220.641 206.105 218.535 206.105 215.938Z" fill="#54F4FC"/>
<path d="M212.102 210.848C215.681 210.848 218.592 213.13 218.592 215.936C218.592 218.741 215.681 221.023 212.102 221.023C208.524 221.023 205.613 218.741 205.613 215.936C205.613 213.131 208.524 210.848 212.102 210.848ZM212.102 220.254C215.139 220.254 217.61 218.317 217.61 215.936C217.61 213.555 215.139 211.618 212.102 211.618C209.066 211.618 206.595 213.555 206.595 215.936C206.595 218.316 209.066 220.254 212.102 220.254Z" fill="#54F4FC"/>
<path d="M207.47 277.532C207.47 275.526 209.544 273.9 212.103 273.9C214.662 273.9 216.736 275.526 216.736 277.532C216.736 279.538 214.662 281.164 212.103 281.164C209.544 281.164 207.47 279.538 207.47 277.532Z" fill="#54F4FC"/>
<path d="M212.102 273.513C214.928 273.513 217.227 275.315 217.227 277.53C217.227 279.745 214.928 281.547 212.102 281.547C209.277 281.547 206.978 279.745 206.978 277.53C206.978 275.315 209.277 273.513 212.102 273.513ZM212.102 280.777C214.386 280.777 216.244 279.321 216.244 277.53C216.244 275.739 214.386 274.282 212.102 274.282C209.819 274.282 207.961 275.739 207.961 277.53C207.961 279.321 209.819 280.777 212.102 280.777Z" fill="#54F4FC"/>
<path d="M231.745 288.312C228.487 288.312 225.846 290.383 225.846 292.937C225.846 295.492 228.487 297.562 231.745 297.562C235.003 297.562 237.645 295.492 237.645 292.937C237.645 290.383 235.003 288.312 231.745 288.312Z" fill="#54F4FC"/>
<path d="M231.746 287.925C235.27 287.925 238.137 290.172 238.137 292.935C238.137 295.698 235.27 297.945 231.746 297.945C228.222 297.945 225.355 295.698 225.355 292.935C225.355 290.172 228.223 287.925 231.746 287.925ZM231.746 297.176C234.728 297.176 237.155 295.273 237.155 292.935C237.155 290.597 234.729 288.695 231.746 288.695C228.764 288.695 226.337 290.597 226.337 292.935C226.337 295.273 228.764 297.176 231.746 297.176Z" fill="#54F4FC"/>
<path d="M295.478 288.827C292.585 288.827 290.24 290.665 290.24 292.933C290.24 295.201 292.585 297.039 295.478 297.039C298.37 297.039 300.715 295.201 300.715 292.933C300.715 290.665 298.37 288.827 295.478 288.827Z" fill="#54F4FC"/>
<path d="M295.477 288.441C298.635 288.441 301.205 290.455 301.205 292.931C301.205 295.407 298.635 297.422 295.477 297.422C292.318 297.422 289.749 295.407 289.749 292.931C289.749 290.455 292.318 288.441 295.477 288.441ZM295.477 296.652C298.094 296.652 300.223 294.983 300.223 292.931C300.223 290.88 298.094 289.211 295.477 289.211C292.86 289.211 290.731 290.88 290.731 292.931C290.731 294.983 292.86 296.652 295.477 296.652Z" fill="#54F4FC"/>
<path d="M315.119 305.405C313.055 305.405 311.381 306.717 311.381 308.335C311.381 309.954 313.055 311.266 315.119 311.266C317.184 311.266 318.857 309.954 318.857 308.335C318.857 306.717 317.184 305.405 315.119 305.405Z" fill="#54F4FC"/>
<path d="M315.119 305.018C317.451 305.018 319.348 306.505 319.348 308.333C319.348 310.161 317.451 311.648 315.119 311.648C312.787 311.648 310.89 310.161 310.89 308.333C310.89 306.505 312.787 305.018 315.119 305.018ZM315.119 310.879C316.909 310.879 318.366 309.736 318.366 308.333C318.366 306.93 316.909 305.788 315.119 305.788C313.329 305.788 311.872 306.93 311.872 308.333C311.872 309.736 313.328 310.879 315.119 310.879Z" fill="#54F4FC"/>
<path d="M309.751 395.259C309.751 392.934 312.155 391.049 315.12 391.049C318.086 391.049 320.49 392.934 320.49 395.259C320.49 397.584 318.086 399.469 315.12 399.469C312.155 399.469 309.751 397.584 309.751 395.259Z" fill="#54F4FC"/>
<path d="M315.12 390.662C318.351 390.662 320.98 392.723 320.98 395.257C320.98 397.79 318.351 399.852 315.12 399.852C311.888 399.852 309.259 397.79 309.259 395.257C309.259 392.723 311.888 390.662 315.12 390.662ZM315.12 399.081C317.81 399.081 319.998 397.366 319.998 395.257C319.998 393.148 317.81 391.432 315.12 391.432C312.43 391.432 310.241 393.148 310.241 395.257C310.241 397.366 312.429 399.081 315.12 399.081Z" fill="#54F4FC"/>
<path d="M330.743 410.654C330.743 408.914 332.543 407.503 334.762 407.503C336.982 407.503 338.781 408.914 338.781 410.654C338.781 412.394 336.982 413.805 334.762 413.805C332.543 413.805 330.743 412.394 330.743 410.654Z" fill="#54F4FC"/>
<path d="M334.762 407.116C337.248 407.116 339.271 408.702 339.271 410.652C339.271 412.601 337.248 414.187 334.762 414.187C332.275 414.187 330.252 412.601 330.252 410.652C330.252 408.703 332.275 407.116 334.762 407.116ZM334.762 413.418C336.707 413.418 338.289 412.177 338.289 410.652C338.289 409.127 336.707 407.886 334.762 407.886C332.816 407.886 331.234 409.127 331.234 410.652C331.234 412.177 332.816 413.418 334.762 413.418Z" fill="#54F4FC"/>
<path d="M396.277 410.66C396.277 408.945 398.051 407.555 400.238 407.555C402.426 407.555 404.199 408.945 404.199 410.66C404.199 412.375 402.426 413.766 400.238 413.766C398.051 413.766 396.277 412.375 396.277 410.66Z" fill="#54F4FC"/>
<path d="M400.238 407.168C402.693 407.168 404.689 408.733 404.689 410.658C404.689 412.582 402.693 414.148 400.238 414.148C397.783 414.148 395.786 412.582 395.786 410.658C395.785 408.733 397.783 407.168 400.238 407.168ZM400.238 413.378C402.151 413.378 403.707 412.158 403.707 410.658C403.707 409.158 402.151 407.938 400.238 407.938C398.325 407.938 396.768 409.158 396.768 410.658C396.768 412.158 398.324 413.378 400.238 413.378Z" fill="#54F4FC"/>
<path d="M415.151 426.057C415.151 424.009 417.269 422.349 419.881 422.349C422.493 422.349 424.611 424.009 424.611 426.057C424.611 428.105 422.493 429.766 419.881 429.766C417.269 429.766 415.151 428.105 415.151 426.057Z" fill="#54F4FC"/>
<path d="M419.881 421.961C422.759 421.961 425.102 423.798 425.102 426.055C425.102 428.312 422.76 430.148 419.88 430.148C417.001 430.148 414.659 428.312 414.659 426.055C414.659 423.798 417.001 421.961 419.881 421.961ZM419.88 429.378C422.218 429.378 424.119 427.887 424.119 426.055C424.119 424.222 422.218 422.732 419.88 422.732C417.543 422.732 415.641 424.222 415.641 426.055C415.641 427.887 417.543 429.378 419.88 429.378Z" fill="#54F4FC"/>
<path d="M415.532 496.551C415.532 494.668 417.479 493.141 419.881 493.141C422.283 493.141 424.23 494.668 424.23 496.551C424.23 498.434 422.283 499.961 419.881 499.961C417.479 499.961 415.532 498.434 415.532 496.551Z" fill="#54F4FC"/>
<path d="M419.881 492.754C422.55 492.754 424.721 494.457 424.721 496.549C424.721 498.641 422.549 500.344 419.881 500.344C417.212 500.344 415.041 498.641 415.041 496.549C415.041 494.457 417.212 492.754 419.881 492.754ZM419.881 499.574C422.008 499.574 423.739 498.217 423.739 496.549C423.739 494.881 422.008 493.525 419.881 493.525C417.753 493.525 416.023 494.881 416.023 496.549C416.022 498.217 417.753 499.574 419.881 499.574Z" fill="#54F4FC"/>
<path d="M393.36 511.953C393.36 508.975 396.439 506.561 400.237 506.561C404.035 506.561 407.113 508.975 407.113 511.953C407.113 514.93 404.035 517.344 400.237 517.344C396.439 517.344 393.36 514.93 393.36 511.953Z" fill="#54F4FC"/>
<path d="M400.238 506.174C404.3 506.174 407.605 508.766 407.605 511.95C407.605 515.135 404.3 517.727 400.238 517.727C396.176 517.727 392.87 515.135 392.87 511.95C392.87 508.766 396.175 506.174 400.238 506.174ZM400.238 516.956C403.759 516.956 406.623 514.711 406.623 511.95C406.623 509.19 403.759 506.945 400.238 506.945C396.717 506.945 393.853 509.19 393.853 511.95C393.853 514.711 396.717 516.956 400.238 516.956Z" fill="#54F4FC"/>
<path d="M356.111 511.955C356.111 509.86 358.278 508.161 360.951 508.161C363.624 508.161 365.791 509.86 365.791 511.955C365.791 514.051 363.624 515.75 360.951 515.75C358.278 515.75 356.111 514.051 356.111 511.955Z" fill="#54F4FC"/>
<path d="M360.952 507.774C363.892 507.774 366.283 509.649 366.283 511.953C366.283 514.258 363.892 516.133 360.952 516.133C358.013 516.133 355.621 514.258 355.621 511.953C355.621 509.649 358.012 507.774 360.952 507.774ZM360.952 515.363C363.351 515.363 365.301 513.833 365.301 511.953C365.301 510.073 363.35 508.544 360.952 508.544C358.554 508.544 356.603 510.073 356.603 511.953C356.603 513.834 358.554 515.363 360.952 515.363Z" fill="#54F4FC"/>
<path d="M337.142 496.554C337.142 494.75 339.008 493.287 341.308 493.287C343.61 493.287 345.475 494.75 345.475 496.554C345.475 498.358 343.609 499.82 341.308 499.82C339.008 499.82 337.142 498.358 337.142 496.554Z" fill="#54F4FC"/>
<path d="M341.309 492.9C343.878 492.9 345.967 494.538 345.967 496.552C345.967 498.565 343.877 500.203 341.309 500.203C338.742 500.203 336.652 498.565 336.652 496.552C336.652 494.538 338.741 492.9 341.309 492.9ZM341.309 499.433C343.336 499.433 344.985 498.14 344.985 496.552C344.985 494.963 343.336 493.67 341.309 493.67C339.283 493.67 337.634 494.963 337.634 496.552C337.634 498.14 339.283 499.433 341.309 499.433Z" fill="#54F4FC"/>
<path d="M337.015 491.766C337.015 489.907 338.937 488.4 341.309 488.4C343.681 488.4 345.604 489.907 345.604 491.766C345.604 493.626 343.681 495.133 341.309 495.133C338.937 495.133 337.015 493.626 337.015 491.766Z" fill="#54F4FC"/>
<path d="M341.309 488.012C343.947 488.012 346.094 489.695 346.094 491.764C346.094 493.832 343.947 495.516 341.309 495.516C338.67 495.516 336.523 493.833 336.523 491.764C336.523 489.695 338.67 488.012 341.309 488.012ZM341.309 494.745C343.406 494.745 345.112 493.408 345.112 491.764C345.112 490.12 343.406 488.782 341.309 488.782C339.212 488.782 337.505 490.12 337.505 491.764C337.505 493.408 339.211 494.745 341.309 494.745Z" fill="#54F4FC"/>
<path d="M317.631 476.36C317.631 474.613 319.438 473.197 321.666 473.197C323.895 473.197 325.701 474.613 325.701 476.36C325.701 478.107 323.895 479.523 321.666 479.523C319.438 479.523 317.631 478.107 317.631 476.36Z" fill="#54F4FC"/>
<path d="M321.667 472.809C324.163 472.809 326.193 474.401 326.193 476.358C326.193 478.314 324.163 479.906 321.667 479.906C319.171 479.906 317.14 478.314 317.14 476.358C317.14 474.401 319.171 472.809 321.667 472.809ZM321.667 479.136C323.622 479.136 325.211 477.89 325.211 476.358C325.211 474.826 323.622 473.579 321.667 473.579C319.713 473.579 318.123 474.826 318.123 476.358C318.123 477.89 319.713 479.136 321.667 479.136Z" fill="#54F4FC"/>
<path d="M207.377 476.366C207.377 473.375 210.469 470.95 214.284 470.95C218.099 470.95 221.191 473.375 221.191 476.366C221.191 479.357 218.099 481.781 214.284 481.781C210.469 481.781 207.377 479.357 207.377 476.366Z" fill="#54F4FC"/>
<path d="M214.285 470.563C218.365 470.563 221.684 473.166 221.684 476.364C221.684 479.562 218.364 482.164 214.285 482.164C210.206 482.164 206.887 479.562 206.887 476.364C206.886 473.165 210.205 470.563 214.285 470.563ZM214.285 481.394C217.823 481.394 220.701 479.138 220.701 476.364C220.701 473.59 217.823 471.333 214.285 471.333C210.747 471.333 207.869 473.59 207.869 476.364C207.869 479.138 210.747 481.394 214.285 481.394Z" fill="#54F4FC"/>
<path d="M189.915 491.762C189.915 489.715 192.032 488.055 194.643 488.055C197.254 488.055 199.371 489.715 199.371 491.762C199.371 493.809 197.254 495.469 194.643 495.469C192.032 495.469 189.915 493.809 189.915 491.762Z" fill="#54F4FC"/>
<path d="M194.642 487.668C197.52 487.668 199.861 489.504 199.861 491.76C199.861 494.016 197.52 495.852 194.642 495.852C191.765 495.852 189.423 494.016 189.423 491.76C189.423 489.504 191.764 487.668 194.642 487.668ZM194.642 495.081C196.979 495.081 198.879 493.591 198.879 491.76C198.879 489.928 196.979 488.438 194.642 488.438C192.306 488.438 190.405 489.928 190.405 491.76C190.405 493.591 192.306 495.081 194.642 495.081Z" fill="#54F4FC"/>
<path d="M554.807 481.84C554.807 479.214 557.522 477.085 560.871 477.085C564.22 477.085 566.936 479.214 566.936 481.84C566.936 484.465 564.22 486.594 560.871 486.594C557.522 486.594 554.807 484.465 554.807 481.84Z" fill="#54F4FC"/>
<path d="M560.872 476.698C564.487 476.698 567.428 479.004 567.428 481.837C567.428 484.671 564.487 486.977 560.872 486.977C557.258 486.977 554.317 484.671 554.317 481.837C554.317 479.004 557.258 476.698 560.872 476.698ZM560.872 486.207C563.945 486.207 566.446 484.247 566.446 481.837C566.446 479.428 563.945 477.468 560.872 477.468C557.799 477.468 555.299 479.428 555.299 481.837C555.299 484.247 557.799 486.207 560.872 486.207Z" fill="#54F4FC"/>
<path d="M535.439 466.438C535.439 463.931 538.031 461.899 541.228 461.899C544.426 461.899 547.018 463.932 547.018 466.438C547.018 468.944 544.426 470.977 541.228 470.977C538.031 470.977 535.439 468.945 535.439 466.438Z" fill="#54F4FC"/>
<path d="M541.229 461.512C544.693 461.512 547.51 463.721 547.51 466.436C547.51 469.151 544.692 471.359 541.229 471.359C537.766 471.359 534.949 469.15 534.949 466.436C534.949 463.721 537.766 461.512 541.229 461.512ZM541.229 470.59C544.151 470.59 546.528 468.727 546.528 466.436C546.528 464.146 544.151 462.282 541.229 462.282C538.308 462.282 535.931 464.146 535.931 466.436C535.931 468.727 538.308 470.59 541.229 470.59Z" fill="#54F4FC"/>
<path d="M541.228 390.471C538.337 390.471 535.993 392.309 535.993 394.576C535.993 396.842 538.337 398.68 541.228 398.68C544.119 398.68 546.463 396.842 546.463 394.576C546.463 392.309 544.119 390.471 541.228 390.471Z" fill="#54F4FC"/>
<path d="M541.229 390.085C544.386 390.085 546.955 392.098 546.955 394.573C546.955 397.049 544.386 399.062 541.229 399.062C538.071 399.062 535.503 397.049 535.503 394.573C535.503 392.098 538.071 390.085 541.229 390.085ZM541.229 398.293C543.845 398.293 545.973 396.624 545.973 394.573C545.973 392.523 543.845 390.854 541.229 390.854C538.613 390.854 536.485 392.523 536.485 394.573C536.485 396.624 538.613 398.293 541.229 398.293Z" fill="#54F4FC"/>
<path d="M560.871 374.046C557.26 374.046 554.333 376.341 554.333 379.172C554.333 382.002 557.26 384.297 560.871 384.297C564.481 384.297 567.408 382.002 567.408 379.172C567.408 376.341 564.481 374.046 560.871 374.046Z" fill="#54F4FC"/>
<path d="M560.872 373.659C564.748 373.659 567.9 376.131 567.9 379.17C567.9 382.208 564.747 384.68 560.872 384.68C556.996 384.68 553.843 382.208 553.843 379.17C553.844 376.131 556.997 373.659 560.872 373.659ZM560.872 383.91C564.206 383.91 566.918 381.783 566.918 379.17C566.918 376.555 564.206 374.429 560.872 374.429C557.538 374.429 554.825 376.555 554.825 379.17C554.826 381.783 557.538 383.91 560.872 383.91Z" fill="#54F4FC"/>
<path d="M176.063 96.8437C176.063 94.091 178.909 91.8598 182.42 91.8598C185.931 91.8598 188.777 94.0914 188.777 96.8438C188.777 99.5965 185.931 101.828 182.42 101.828C178.909 101.828 176.063 99.5965 176.063 96.8437Z" fill="#54F4FC"/>
<path d="M182.421 91.4725C186.197 91.4725 189.27 93.8811 189.27 96.8413C189.27 99.8023 186.197 102.211 182.421 102.211C178.645 102.211 175.573 99.8023 175.573 96.8413C175.573 93.8807 178.645 91.4725 182.421 91.4725ZM182.421 101.441C185.656 101.441 188.287 99.3773 188.287 96.8413C188.287 94.3056 185.656 92.2426 182.421 92.2426C179.186 92.2426 176.555 94.306 176.555 96.8413C176.555 99.3773 179.186 101.441 182.421 101.441Z" fill="#54F4FC"/>
<path d="M198.047 112.242C198.047 110.502 199.845 109.093 202.064 109.093C204.282 109.093 206.08 110.503 206.08 112.242C206.08 113.981 204.282 115.391 202.064 115.391C199.845 115.391 198.047 113.981 198.047 112.242Z" fill="#54F4FC"/>
<path d="M202.063 108.705C204.548 108.705 206.57 110.29 206.57 112.239C206.57 114.188 204.549 115.773 202.063 115.773C199.577 115.773 197.555 114.188 197.555 112.239C197.555 110.29 199.577 108.705 202.063 108.705ZM202.063 115.004C204.006 115.004 205.588 113.764 205.588 112.239C205.588 110.715 204.006 109.475 202.063 109.475C200.119 109.475 198.537 110.715 198.537 112.239C198.537 113.764 200.119 115.004 202.063 115.004Z" fill="#54F4FC"/>
<path d="M335.823 112.243C335.823 110.056 338.084 108.284 340.873 108.284C343.662 108.284 345.924 110.056 345.924 112.243C345.924 114.43 343.662 116.203 340.873 116.203C338.084 116.203 335.823 114.43 335.823 112.243Z" fill="#54F4FC"/>
<path d="M340.872 107.897C343.928 107.897 346.414 109.846 346.414 112.241C346.414 114.637 343.928 116.586 340.872 116.586C337.817 116.586 335.331 114.637 335.331 112.241C335.331 109.846 337.817 107.897 340.872 107.897ZM340.872 115.816C343.387 115.816 345.432 114.212 345.432 112.241C345.432 110.271 343.387 108.667 340.872 108.667C338.359 108.667 336.313 110.271 336.313 112.241C336.313 114.212 338.359 115.816 340.872 115.816Z" fill="#54F4FC"/>
<path d="M355.138 96.8452C355.138 94.5163 357.546 92.628 360.517 92.628C363.488 92.628 365.896 94.5159 365.896 96.8452C365.896 99.1742 363.488 101.062 360.517 101.062C357.546 101.062 355.138 99.1746 355.138 96.8452Z" fill="#54F4FC"/>
<path d="M360.516 92.241C363.754 92.241 366.387 94.3052 366.387 96.8428C366.387 99.3804 363.754 101.445 360.516 101.445C357.28 101.445 354.647 99.3804 354.647 96.8428C354.647 94.3052 357.28 92.241 360.516 92.241ZM360.516 100.676C363.211 100.676 365.405 98.9558 365.405 96.8428C365.405 94.7297 363.211 93.0108 360.516 93.0108C357.821 93.0108 355.629 94.7297 355.629 96.8428C355.629 98.9558 357.821 100.676 360.516 100.676Z" fill="#54F4FC"/>
<path d="M360.517 32.2801C356.978 32.2801 354.109 34.5294 354.109 37.3041C354.109 40.0788 356.978 42.3281 360.517 42.3281C364.057 42.3281 366.926 40.0788 366.926 37.3041C366.926 34.5294 364.057 32.2801 360.517 32.2801Z" fill="#54F4FC"/>
<path d="M360.516 31.8924C364.321 31.8924 367.416 34.3187 367.416 37.3016C367.416 40.2846 364.321 42.7109 360.516 42.7109C356.712 42.7109 353.616 40.2846 353.616 37.3016C353.616 34.3187 356.712 31.8924 360.516 31.8924ZM360.516 41.9412C363.779 41.9412 366.434 39.8596 366.434 37.3016C366.434 34.7437 363.779 32.6622 360.516 32.6622C357.253 32.6622 354.599 34.7437 354.599 37.3016C354.599 39.86 357.253 41.9412 360.516 41.9412Z" fill="#54F4FC"/>
<path d="M373.469 21.9039C373.469 19.0076 376.464 16.6593 380.158 16.6593C383.853 16.6593 386.848 19.0072 386.848 21.9039C386.848 24.8006 383.853 27.1484 380.158 27.1484C376.464 27.1484 373.469 24.8002 373.469 21.9039Z" fill="#54F4FC"/>
<path d="M380.159 16.2716C384.118 16.2716 387.34 18.7973 387.34 21.9015C387.34 25.0056 384.118 27.5312 380.159 27.5312C376.199 27.5312 372.978 25.0056 372.978 21.9015C372.978 18.7973 376.2 16.2716 380.159 16.2716ZM380.159 26.7611C383.577 26.7611 386.358 24.5811 386.358 21.9015C386.358 19.2215 383.577 17.0418 380.159 17.0418C376.741 17.0418 373.961 19.2218 373.961 21.9015C373.961 24.5815 376.741 26.7611 380.159 26.7611Z" fill="#54F4FC"/>
<path d="M590.557 16.8528C586.999 16.8528 584.115 19.1138 584.115 21.903C584.115 24.6921 586.999 26.9531 590.557 26.9531C594.114 26.9531 596.998 24.6921 596.998 21.903C596.998 19.1138 594.114 16.8528 590.557 16.8528Z" fill="#54F4FC"/>
<path d="M590.558 16.4658C594.38 16.4658 597.49 18.9037 597.49 21.9009C597.49 24.898 594.38 27.3359 590.558 27.3359C586.735 27.3359 583.625 24.898 583.625 21.9009C583.625 18.9037 586.735 16.4658 590.558 16.4658ZM590.558 26.5658C593.839 26.5658 596.508 24.4731 596.508 21.9009C596.508 19.3287 593.839 17.236 590.558 17.236C587.276 17.236 584.607 19.3287 584.607 21.9009C584.607 24.4731 587.277 26.5658 590.558 26.5658Z" fill="#54F4FC"/>
<path d="M605.403 37.2977C605.403 35.2228 607.548 33.5408 610.194 33.5408C612.841 33.5408 614.986 35.2228 614.986 37.2977C614.986 39.3727 612.841 41.0547 610.194 41.0547C607.548 41.0547 605.403 39.3727 605.403 37.2977Z" fill="#54F4FC"/>
<path d="M610.196 33.1539C613.109 33.1539 615.479 35.0117 615.479 37.2957C615.479 39.5796 613.109 41.4375 610.196 41.4375C607.282 41.4375 604.912 39.5796 604.912 37.2957C604.912 35.0117 607.283 33.1539 610.196 33.1539ZM610.196 40.6669C612.567 40.6669 614.496 39.1539 614.496 37.2953C614.496 35.4366 612.567 33.9237 610.196 33.9237C607.824 33.9237 605.894 35.4366 605.894 37.2953C605.895 39.1543 607.824 40.6669 610.196 40.6669Z" fill="#54F4FC"/>
<path d="M605.52 69.4667C605.52 67.4418 607.614 65.8007 610.197 65.8007C612.779 65.8007 614.873 67.4422 614.873 69.4667C614.873 71.4916 612.78 73.1328 610.197 73.1328C607.614 73.1328 605.52 71.4912 605.52 69.4667Z" fill="#54F4FC"/>
<path d="M610.198 65.4137C613.047 65.4137 615.365 67.2311 615.365 69.4643C615.365 71.6982 613.047 73.5156 610.198 73.5156C607.348 73.5156 605.03 71.6982 605.03 69.4643C605.03 67.2311 607.349 65.4137 610.198 65.4137ZM610.198 72.7458C612.505 72.7458 614.383 71.2736 614.383 69.4643C614.383 67.6549 612.506 66.1835 610.198 66.1835C607.89 66.1835 606.012 67.6549 606.012 69.4643C606.012 71.2732 607.89 72.7458 610.198 72.7458Z" fill="#54F4FC"/>
<path d="M625.291 84.8652C625.291 82.8965 627.327 81.3007 629.838 81.3007C632.349 81.3007 634.385 82.8965 634.385 84.8652C634.385 86.8339 632.349 88.4297 629.838 88.4297C627.327 88.4297 625.291 86.8339 625.291 84.8652Z" fill="#54F4FC"/>
<path d="M629.839 80.9138C632.617 80.9138 634.877 82.6854 634.877 84.8628C634.877 87.0412 632.617 88.8125 629.839 88.8125C627.061 88.8125 624.801 87.0409 624.801 84.8628C624.801 82.6854 627.061 80.9138 629.839 80.9138ZM629.839 88.0427C632.075 88.0427 633.895 86.6163 633.895 84.8628C633.895 83.11 632.075 81.6835 629.839 81.6835C627.602 81.6835 625.783 83.11 625.783 84.8628C625.783 86.6163 627.603 88.0427 629.839 88.0427Z" fill="#54F4FC"/>
<path d="M677.855 410.656C677.855 408.576 680.006 406.889 682.659 406.889C685.312 406.889 687.463 408.575 687.463 410.656C687.463 412.736 685.312 414.422 682.659 414.422C680.005 414.422 677.855 412.736 677.855 410.656Z" fill="#54F4FC"/>
<path d="M682.66 406.502C685.58 406.502 687.955 408.364 687.955 410.653C687.955 412.943 685.58 414.805 682.66 414.805C679.74 414.805 677.365 412.943 677.365 410.653C677.365 408.364 679.74 406.502 682.66 406.502ZM682.66 414.035C685.038 414.035 686.973 412.518 686.973 410.654C686.973 408.789 685.038 407.272 682.66 407.272C680.282 407.272 678.347 408.789 678.347 410.654C678.347 412.518 680.282 414.035 682.66 414.035Z" fill="#54F4FC"/>
<path d="M657.661 395.259C657.661 392.942 660.056 391.064 663.011 391.064C665.966 391.064 668.361 392.942 668.361 395.259C668.361 397.575 665.966 399.453 663.011 399.453C660.056 399.453 657.661 397.575 657.661 395.259Z" fill="#54F4FC"/>
<path d="M663.012 390.677C666.234 390.677 668.854 392.731 668.854 395.256C668.854 397.781 666.233 399.836 663.012 399.836C659.791 399.836 657.171 397.782 657.171 395.256C657.171 392.732 659.792 390.677 663.012 390.677ZM663.012 399.066C665.692 399.066 667.871 397.357 667.871 395.256C667.871 393.156 665.692 391.447 663.012 391.447C660.333 391.447 658.153 393.156 658.153 395.256C658.154 397.357 660.333 399.066 663.012 399.066Z" fill="#54F4FC"/>
<path d="M659.326 302.859C659.326 301.263 660.977 299.968 663.014 299.968C665.05 299.968 666.701 301.263 666.701 302.859C666.701 304.456 665.05 305.75 663.014 305.75C660.977 305.75 659.326 304.456 659.326 302.859Z" fill="#54F4FC"/>
<path d="M663.015 299.581C665.318 299.581 667.193 301.05 667.193 302.857C667.193 304.663 665.319 306.133 663.015 306.133C660.711 306.133 658.837 304.663 658.837 302.857C658.837 301.05 660.711 299.581 663.015 299.581ZM663.015 305.363C664.777 305.363 666.211 304.239 666.211 302.857C666.211 301.476 664.777 300.351 663.015 300.351C661.252 300.351 659.819 301.476 659.819 302.857C659.819 304.239 661.252 305.363 663.015 305.363Z" fill="#54F4FC"/>
<path d="M678.755 287.462C678.755 285.772 680.504 284.401 682.66 284.401C684.816 284.401 686.564 285.772 686.564 287.462C686.564 289.153 684.816 290.523 682.66 290.523C680.504 290.523 678.755 289.153 678.755 287.462Z" fill="#54F4FC"/>
<path d="M682.661 284.014C685.085 284.014 687.057 285.56 687.057 287.46C687.057 289.36 685.084 290.906 682.661 290.906C680.237 290.906 678.265 289.36 678.265 287.46C678.265 285.56 680.237 284.014 682.661 284.014ZM682.661 290.136C684.543 290.136 686.075 288.936 686.075 287.46C686.075 285.985 684.543 284.784 682.661 284.784C680.778 284.784 679.247 285.985 679.247 287.46C679.247 288.936 680.778 290.136 682.661 290.136Z" fill="#54F4FC"/>
<path d="M534.868 229.971C534.868 227.405 537.521 225.325 540.794 225.325C544.067 225.325 546.721 227.405 546.721 229.971C546.721 232.537 544.067 234.617 540.794 234.617C537.521 234.617 534.868 232.537 534.868 229.971Z" fill="#54F4FC"/>
<path d="M540.796 224.938C544.334 224.938 547.213 227.195 547.213 229.969C547.213 232.743 544.334 235 540.796 235C537.257 235 534.379 232.743 534.379 229.969C534.378 227.195 537.257 224.938 540.796 224.938ZM540.796 234.23C543.793 234.23 546.231 232.318 546.231 229.969C546.231 227.62 543.793 225.708 540.796 225.708C537.799 225.708 535.361 227.62 535.361 229.969C535.36 232.318 537.799 234.23 540.796 234.23Z" fill="#54F4FC"/>
<path d="M516.966 214.572C516.966 212.76 518.84 211.291 521.15 211.291C523.461 211.291 525.334 212.76 525.334 214.572C525.334 216.383 523.461 217.852 521.15 217.852C518.839 217.852 516.966 216.383 516.966 214.572Z" fill="#54F4FC"/>
<path d="M521.151 210.904C523.729 210.904 525.826 212.548 525.826 214.569C525.826 216.59 523.729 218.234 521.151 218.234C518.574 218.234 516.476 216.59 516.476 214.569C516.476 212.548 518.573 210.904 521.151 210.904ZM521.151 217.465C523.187 217.465 524.844 216.165 524.844 214.569C524.844 212.973 523.187 211.674 521.151 211.674C519.115 211.674 517.458 212.973 517.458 214.569C517.458 216.165 519.115 217.465 521.151 217.465Z" fill="#54F4FC"/>
<path d="M53.2096 60.2316C53.2096 57.2056 56.3388 54.7527 60.1986 54.7527C64.0584 54.7527 67.1875 57.2056 67.1875 60.2316C67.1875 63.2577 64.0584 65.7109 60.1986 65.7109C56.3387 65.7109 53.2096 63.2577 53.2096 60.2316Z" fill="#54F4FC"/>
<path d="M60.1983 54.3661C64.3228 54.3661 67.6777 56.9965 67.6777 60.2296C67.6777 63.4626 64.3228 66.0937 60.1983 66.0937C56.0742 66.0937 52.7182 63.4626 52.7183 60.2296C52.7183 56.9965 56.0743 54.3661 60.1983 54.3661ZM60.1983 65.3243C63.7806 65.3243 66.6956 63.0393 66.6956 60.2299C66.6956 57.4214 63.7806 55.1363 60.1983 55.1363C56.6149 55.1363 53.7004 57.4214 53.7004 60.2299C53.7004 63.0389 56.6154 65.3243 60.1983 65.3243Z" fill="#54F4FC"/>
<path d="M287.678 60.2327C287.678 57.6128 290.387 55.489 293.729 55.489C297.071 55.489 299.779 57.6128 299.779 60.2327C299.779 62.8527 297.071 64.9766 293.729 64.9766C290.387 64.9766 287.678 62.8527 287.678 60.2327Z" fill="#54F4FC"/>
<path d="M293.729 55.102C297.337 55.102 300.271 57.4021 300.271 60.2303C300.271 63.0585 297.336 65.3594 293.729 65.3594C290.122 65.3594 287.188 63.0585 287.188 60.2303C287.188 57.4021 290.122 55.102 293.729 55.102ZM293.729 64.5892C296.795 64.5892 299.289 62.6336 299.289 60.2303C299.289 57.827 296.795 55.8722 293.729 55.8722C290.664 55.8722 288.17 57.827 288.17 60.2303C288.17 62.6336 290.664 64.5892 293.729 64.5892Z" fill="#54F4FC"/>
<path d="M308.768 44.8276C308.768 42.8339 310.83 41.2177 313.372 41.2177C315.915 41.2177 317.977 42.8339 317.977 44.8276C317.977 46.8213 315.915 48.4375 313.372 48.4375C310.83 48.4375 308.768 46.8213 308.768 44.8276Z" fill="#54F4FC"/>
<path d="M313.373 40.8307C316.183 40.8307 318.469 42.6228 318.469 44.8251C318.469 47.0283 316.183 48.8203 313.373 48.8203C310.563 48.8203 308.278 47.0286 308.278 44.8251C308.278 42.6228 310.563 40.8307 313.373 40.8307ZM313.373 48.0502C315.641 48.0502 317.487 46.6033 317.487 44.8251C317.487 43.0477 315.641 41.6009 313.373 41.6009C311.105 41.6009 309.26 43.0477 309.26 44.8251C309.26 46.6037 311.105 48.0502 313.373 48.0502Z" fill="#54F4FC"/>
<path d="M88.5576 566.709C88.5576 564.624 90.7134 562.934 93.3726 562.934C96.0317 562.934 98.1875 564.624 98.1875 566.709C98.1875 568.794 96.0317 570.484 93.3726 570.484C90.7134 570.484 88.5576 568.794 88.5576 566.709Z" fill="#54F4FC"/>
<path d="M93.3727 562.547C96.299 562.547 98.6797 564.414 98.6797 566.708C98.6797 569.001 96.299 570.867 93.3727 570.867C90.4474 570.867 88.0666 569.001 88.0666 566.708C88.0666 564.414 90.4474 562.547 93.3727 562.547ZM93.3727 570.097C95.7568 570.097 97.6975 568.576 97.6976 566.707C97.6976 564.838 95.7573 563.317 93.3727 563.317C90.9885 563.317 89.0488 564.838 89.0488 566.707C89.0488 568.576 90.9885 570.097 93.3727 570.097Z" fill="#54F4FC"/>
<path d="M288.23 566.711C288.23 564.329 290.692 562.399 293.73 562.399C296.768 562.399 299.23 564.329 299.23 566.711C299.23 569.093 296.768 571.023 293.73 571.023C290.692 571.023 288.23 569.093 288.23 566.711Z" fill="#54F4FC"/>
<path d="M293.729 562.012C297.033 562.012 299.721 564.119 299.721 566.709C299.721 569.299 297.033 571.406 293.729 571.406C290.426 571.406 287.738 569.299 287.738 566.709C287.738 564.119 290.426 562.012 293.729 562.012ZM293.729 570.636C296.491 570.636 298.739 568.875 298.739 566.709C298.739 564.543 296.491 562.782 293.729 562.782C290.967 562.782 288.72 564.543 288.72 566.709C288.72 568.875 290.967 570.636 293.729 570.636Z" fill="#54F4FC"/>
<path d="M313.374 578.55C310.865 578.55 308.831 580.144 308.831 582.111C308.831 584.078 310.865 585.672 313.374 585.672C315.882 585.672 317.916 584.078 317.916 582.111C317.916 580.144 315.882 578.55 313.374 578.55Z" fill="#54F4FC"/>
<path d="M313.373 578.162C316.148 578.162 318.406 579.933 318.406 582.109C318.406 584.285 316.148 586.055 313.373 586.055C310.598 586.055 308.34 584.285 308.34 582.109C308.34 579.933 310.598 578.162 313.373 578.162ZM313.373 585.285C315.607 585.285 317.424 583.86 317.424 582.109C317.424 580.358 315.607 578.933 313.373 578.933C311.139 578.933 309.322 580.358 309.322 582.109C309.322 583.86 311.139 585.285 313.373 585.285Z" fill="#54F4FC"/>
<path d="M131.647 452.105C131.647 449.777 134.054 447.89 137.024 447.89C139.993 447.89 142.4 449.777 142.4 452.105C142.4 454.433 139.993 456.32 137.024 456.32C134.054 456.32 131.647 454.433 131.647 452.105Z" fill="#54F4FC"/>
<path d="M137.023 447.503C140.258 447.503 142.891 449.567 142.891 452.103C142.891 454.64 140.258 456.703 137.023 456.703C133.788 456.703 131.156 454.639 131.156 452.103C131.156 449.567 133.788 447.503 137.023 447.503ZM137.023 455.933C139.717 455.933 141.908 454.215 141.908 452.103C141.908 449.991 139.717 448.273 137.023 448.273C134.33 448.273 132.138 449.991 132.138 452.103C132.138 454.215 134.329 455.933 137.023 455.933Z" fill="#54F4FC"/>
<path d="M286.747 447.132C283.241 447.132 280.399 449.36 280.399 452.109C280.399 454.858 283.241 457.086 286.747 457.086C290.253 457.086 293.096 454.858 293.096 452.109C293.096 449.36 290.253 447.132 286.747 447.132Z" fill="#54F4FC"/>
<path d="M286.746 446.745C290.518 446.745 293.586 449.15 293.586 452.107C293.586 455.064 290.518 457.469 286.746 457.469C282.975 457.469 279.907 455.063 279.907 452.107C279.907 449.15 282.975 446.745 286.746 446.745ZM286.746 456.699C289.976 456.699 292.604 454.639 292.604 452.107C292.604 449.575 289.976 447.515 286.746 447.515C283.517 447.515 280.889 449.575 280.889 452.107C280.889 454.639 283.517 456.699 286.746 456.699Z" fill="#54F4FC"/>
<path d="M306.39 464.169C304.037 464.169 302.128 465.665 302.128 467.51C302.128 469.356 304.036 470.852 306.39 470.852C308.744 470.852 310.652 469.356 310.652 467.51C310.652 465.665 308.744 464.169 306.39 464.169Z" fill="#54F4FC"/>
<path d="M306.39 463.782C309.01 463.782 311.143 465.454 311.143 467.508C311.143 469.563 309.01 471.234 306.389 471.234C303.769 471.234 301.636 469.563 301.636 467.508C301.637 465.454 303.769 463.782 306.39 463.782ZM306.389 470.465C308.469 470.465 310.16 469.139 310.16 467.508C310.16 465.878 308.469 464.552 306.39 464.552C304.31 464.552 302.619 465.878 302.619 467.508C302.619 469.138 304.31 470.465 306.389 470.465Z" fill="#54F4FC"/>
<path d="M306.389 521.328C303.593 521.328 301.326 523.105 301.326 525.297C301.326 527.489 303.593 529.266 306.389 529.266C309.185 529.266 311.451 527.489 311.451 525.297C311.451 523.105 309.185 521.328 306.389 521.328Z" fill="#54F4FC"/>
<path d="M306.388 520.941C309.45 520.941 311.941 522.894 311.941 525.295C311.941 527.695 309.45 529.648 306.388 529.648C303.326 529.648 300.835 527.695 300.835 525.295C300.835 522.894 303.326 520.941 306.388 520.941ZM306.388 528.879C308.909 528.879 310.959 527.271 310.959 525.295C310.959 523.319 308.909 521.711 306.388 521.711C303.867 521.711 301.817 523.319 301.817 525.295C301.817 527.271 303.868 528.879 306.388 528.879Z" fill="#54F4FC"/>
<path d="M326.033 536.871C323.335 536.871 321.148 538.586 321.148 540.701C321.148 542.816 323.335 544.531 326.033 544.531C328.731 544.531 330.918 542.816 330.918 540.701C330.918 538.586 328.731 536.871 326.033 536.871Z" fill="#54F4FC"/>
<path d="M326.032 536.485C328.997 536.485 331.408 538.375 331.408 540.7C331.408 543.023 328.997 544.914 326.032 544.914C323.067 544.914 320.656 543.023 320.656 540.7C320.656 538.375 323.067 536.485 326.032 536.485ZM326.032 544.144C328.455 544.144 330.426 542.599 330.426 540.7C330.426 538.8 328.454 537.254 326.032 537.254C323.61 537.254 321.638 538.8 321.638 540.7C321.638 542.599 323.61 544.144 326.032 544.144Z" fill="#54F4FC"/>
<path d="M408.968 537.097C406.43 537.097 404.372 538.711 404.372 540.701C404.372 542.691 406.43 544.305 408.968 544.305C411.507 544.305 413.564 542.691 413.564 540.701C413.564 538.711 411.507 537.097 408.968 537.097Z" fill="#54F4FC"/>
<path d="M408.967 536.71C411.773 536.71 414.055 538.5 414.055 540.699C414.055 542.898 411.772 544.687 408.967 544.687C406.162 544.687 403.88 542.898 403.88 540.699C403.88 538.5 406.162 536.71 408.967 536.71ZM408.967 543.918C411.231 543.918 413.073 542.474 413.073 540.699C413.073 538.924 411.231 537.48 408.967 537.48C406.703 537.48 404.862 538.924 404.862 540.699C404.862 542.474 406.703 543.918 408.967 543.918Z" fill="#54F4FC"/>
<path d="M421.269 556.094C421.269 553.16 424.303 550.782 428.045 550.782C431.786 550.782 434.82 553.16 434.82 556.094C434.82 559.028 431.787 561.406 428.045 561.406C424.303 561.406 421.269 559.028 421.269 556.094Z" fill="#54F4FC"/>
<path d="M428.044 550.395C432.05 550.395 435.311 552.95 435.311 556.092C435.311 559.233 432.05 561.789 428.044 561.789C424.037 561.789 420.777 559.233 420.777 556.092C420.777 552.951 424.037 550.395 428.044 550.395ZM428.044 561.019C431.509 561.019 434.328 558.808 434.328 556.092C434.328 553.375 431.509 551.165 428.044 551.165C424.578 551.165 421.759 553.375 421.759 556.092C421.759 558.808 424.578 561.019 428.044 561.019Z" fill="#54F4FC"/>
<path d="M39.2462 401.975C36.5021 401.975 34.2775 403.719 34.2775 405.87C34.2775 408.022 36.5021 409.766 39.2462 409.766C41.9903 409.766 44.2148 408.022 44.2148 405.87C44.2148 403.719 41.9903 401.975 39.2462 401.975Z" fill="#54F4FC"/>
<path d="M39.2468 401.588C42.2576 401.588 44.707 403.508 44.707 405.868C44.707 408.228 42.2576 410.148 39.2468 410.148C36.2361 410.148 33.7875 408.228 33.7875 405.868C33.7871 403.508 36.2361 401.588 39.2468 401.588ZM39.2468 409.378C41.7154 409.378 43.7249 407.803 43.7249 405.868C43.7249 403.932 41.7154 402.357 39.2468 402.357C36.7782 402.357 34.7697 403.932 34.7697 405.868C34.7692 407.803 36.7777 409.378 39.2468 409.378Z" fill="#54F4FC"/>
<path d="M205.147 405.866C205.147 403.798 207.285 402.122 209.922 402.122C212.559 402.122 214.697 403.798 214.697 405.866C214.697 407.933 212.56 409.609 209.922 409.609C207.285 409.609 205.147 407.933 205.147 405.866Z" fill="#54F4FC"/>
<path d="M209.921 401.735C212.825 401.735 215.188 403.588 215.188 405.864C215.188 408.14 212.825 409.992 209.921 409.992C207.018 409.992 204.655 408.14 204.655 405.864C204.655 403.588 207.018 401.735 209.921 401.735ZM209.921 409.223C212.284 409.223 214.205 407.716 214.205 405.864C214.205 404.012 212.284 402.506 209.921 402.506C207.559 402.506 205.637 404.012 205.637 405.864C205.637 407.716 207.559 409.223 209.921 409.223Z" fill="#54F4FC"/>
<path d="M229.562 417.165C226.673 417.165 224.331 419.001 224.331 421.266C224.331 423.531 226.673 425.367 229.562 425.367C232.451 425.367 234.793 423.531 234.793 421.266C234.793 419.001 232.451 417.165 229.562 417.165Z" fill="#54F4FC"/>
<path d="M229.563 416.778C232.718 416.778 235.285 418.791 235.285 421.264C235.285 423.737 232.718 425.75 229.563 425.75C226.409 425.75 223.841 423.737 223.841 421.264C223.841 418.791 226.408 416.778 229.563 416.778ZM229.563 424.98C232.177 424.98 234.303 423.313 234.303 421.264C234.303 419.215 232.177 417.548 229.563 417.548C226.95 417.548 224.823 419.215 224.823 421.264C224.823 423.313 226.95 424.98 229.563 424.98Z" fill="#54F4FC"/>
<path d="M32.2961 287.457C32.2961 284.447 35.4079 282.008 39.2466 282.008C43.0853 282.008 46.1973 284.448 46.1973 287.457C46.1973 290.466 43.0853 292.906 39.2466 292.906C35.4074 292.906 32.2961 290.466 32.2961 287.457Z" fill="#54F4FC"/>
<path d="M39.2458 281.621C43.3487 281.621 46.6875 284.238 46.6875 287.455C46.6875 290.672 43.3487 293.289 39.2458 293.289C35.1424 293.289 31.8051 290.671 31.8051 287.455C31.8046 284.238 35.1424 281.621 39.2458 281.621ZM39.2458 292.519C42.808 292.519 45.7054 290.248 45.7054 287.455C45.7054 284.662 42.808 282.39 39.2458 282.39C35.6846 282.39 32.7873 284.662 32.7872 287.455C32.7872 290.248 35.6845 292.519 39.2458 292.519Z" fill="#54F4FC"/>
<path d="M123.824 287.458C123.824 285.286 126.07 283.526 128.84 283.526C131.61 283.526 133.855 285.286 133.855 287.458C133.855 289.63 131.61 291.391 128.84 291.391C126.07 291.391 123.824 289.63 123.824 287.458Z" fill="#54F4FC"/>
<path d="M128.84 283.138C131.877 283.138 134.348 285.075 134.348 287.456C134.348 289.836 131.877 291.773 128.84 291.773C125.803 291.773 123.333 289.836 123.333 287.456C123.333 285.075 125.803 283.138 128.84 283.138ZM128.84 291.003C131.336 291.003 133.366 289.412 133.366 287.456C133.366 285.499 131.336 283.908 128.84 283.908C126.345 283.908 124.315 285.499 124.315 287.456C124.315 289.412 126.345 291.003 128.84 291.003Z" fill="#54F4FC"/>
<path d="M148.484 267.12C145.004 267.12 142.182 269.332 142.182 272.06C142.182 274.788 145.004 277 148.484 277C151.964 277 154.785 274.788 154.785 272.06C154.785 269.332 151.964 267.12 148.484 267.12Z" fill="#54F4FC"/>
<path d="M148.483 266.732C152.228 266.732 155.275 269.121 155.275 272.057C155.275 274.994 152.228 277.383 148.483 277.383C144.737 277.383 141.69 274.994 141.69 272.057C141.69 269.121 144.738 266.732 148.483 266.732ZM148.483 276.612C151.687 276.612 154.293 274.568 154.293 272.057C154.293 269.546 151.687 267.502 148.483 267.502C145.28 267.502 142.673 269.546 142.673 272.057C142.673 274.568 145.279 276.612 148.483 276.612Z" fill="#54F4FC"/>
<path d="M0.49404 343.581C0.494042 341.922 2.20989 340.577 4.32592 340.577C6.44243 340.577 8.15821 341.922 8.15821 343.581C8.1582 345.241 6.44242 346.586 4.32591 346.586C2.20989 346.586 0.494038 345.241 0.49404 343.581Z" fill="#54F4FC"/>
<path d="M4.32556 340.19C6.70873 340.19 8.64844 341.711 8.64844 343.58C8.64844 345.448 6.70921 346.969 4.32555 346.969C1.94092 346.969 0.00165317 345.448 0.00165507 343.58C0.00165697 341.711 1.94141 340.19 4.32556 340.19ZM4.32555 346.199C6.16805 346.199 7.6663 345.024 7.6663 343.58C7.6663 342.135 6.16806 340.961 4.32556 340.961C2.48306 340.961 0.983798 342.136 0.983796 343.58C0.983795 345.024 2.48306 346.199 4.32555 346.199Z" fill="#54F4FC"/>
<path d="M82.4593 340.053C79.9709 340.053 77.9537 341.634 77.9537 343.585C77.9537 345.536 79.9709 347.117 82.4592 347.117C84.9476 347.117 86.9648 345.536 86.9648 343.585C86.9648 341.634 84.9476 340.053 82.4593 340.053Z" fill="#54F4FC"/>
<path d="M82.4599 339.666C85.2153 339.666 87.457 341.423 87.457 343.583C87.457 345.743 85.2153 347.5 82.4599 347.5C79.7055 347.5 77.4638 345.743 77.4638 343.583C77.4638 341.423 79.705 339.666 82.4599 339.666ZM82.4599 346.73C84.6736 346.73 86.4749 345.318 86.4749 343.583C86.4749 341.847 84.6736 340.436 82.4599 340.436C80.2461 340.436 78.4459 341.847 78.4459 343.583C78.4459 345.318 80.2461 346.73 82.4599 346.73Z" fill="#54F4FC"/>
<path d="M96.2716 328.186C96.2716 325.662 98.8822 323.615 102.103 323.615C105.323 323.615 107.934 325.662 107.934 328.186C107.934 330.711 105.323 332.758 102.103 332.758C98.8822 332.758 96.2716 330.711 96.2716 328.186Z" fill="#54F4FC"/>
<path d="M102.103 323.228C105.59 323.228 108.426 325.452 108.426 328.184C108.426 330.917 105.59 333.141 102.103 333.141C98.6176 333.141 95.7817 330.917 95.7817 328.184C95.7812 325.452 98.6176 323.228 102.103 323.228ZM102.103 332.371C105.048 332.371 107.444 330.493 107.444 328.184C107.444 325.876 105.048 323.998 102.103 323.998C99.1588 323.998 96.7638 325.876 96.7638 328.184C96.7633 330.493 99.1583 332.371 102.103 332.371Z" fill="#54F4FC"/>
<path d="M95.8025 241.263C95.8025 238.535 98.6237 236.323 102.103 236.323C105.584 236.323 108.404 238.535 108.404 241.263C108.404 243.992 105.583 246.203 102.103 246.203C98.6237 246.203 95.8025 243.992 95.8025 241.263Z" fill="#54F4FC"/>
<path d="M102.104 235.935C105.849 235.935 108.896 238.324 108.896 241.261C108.896 244.197 105.849 246.586 102.104 246.586C98.3596 246.586 95.3125 244.197 95.3125 241.261C95.312 238.324 98.3596 235.935 102.104 235.935ZM102.104 245.815C105.307 245.815 107.914 243.772 107.914 241.26C107.914 238.749 105.307 236.705 102.104 236.705C98.9002 236.705 96.2946 238.749 96.2946 241.26C96.2941 243.772 98.9002 245.815 102.104 245.815Z" fill="#54F4FC"/>
<path d="M121.748 221.448C118.642 221.448 116.125 223.422 116.125 225.857C116.125 228.292 118.642 230.266 121.748 230.266C124.853 230.266 127.371 228.292 127.371 225.857C127.371 223.422 124.853 221.448 121.748 221.448Z" fill="#54F4FC"/>
<path d="M121.747 221.062C125.118 221.062 127.861 223.212 127.861 225.855C127.861 228.498 125.118 230.648 121.747 230.648C118.376 230.648 115.633 228.498 115.633 225.855C115.632 223.212 118.375 221.062 121.747 221.062ZM121.747 229.879C124.578 229.879 126.879 228.074 126.879 225.855C126.879 223.636 124.578 221.832 121.747 221.832C118.916 221.832 116.615 223.636 116.615 225.855C116.614 228.074 118.916 229.879 121.747 229.879Z" fill="#54F4FC"/>
<path d="M175.001 222.961C172.956 222.961 171.299 224.26 171.299 225.863C171.299 227.466 172.956 228.766 175.001 228.766C177.046 228.766 178.703 227.466 178.703 225.863C178.703 224.26 177.046 222.961 175.001 222.961Z" fill="#54F4FC"/>
<path d="M175 222.574C177.312 222.574 179.193 224.048 179.193 225.861C179.193 227.674 177.312 229.148 175 229.148C172.688 229.148 170.807 227.674 170.807 225.861C170.807 224.048 172.688 222.574 175 222.574ZM175 228.379C176.771 228.379 178.211 227.249 178.211 225.861C178.211 224.473 176.771 223.344 175 223.344C173.23 223.344 171.789 224.473 171.789 225.861C171.789 227.249 173.229 228.379 175 228.379Z" fill="#54F4FC"/>
<path d="M189.858 210.458C189.858 208.386 192.001 206.706 194.645 206.706C197.289 206.706 199.432 208.386 199.432 210.458C199.432 212.531 197.289 214.211 194.645 214.211C192.001 214.211 189.858 212.53 189.858 210.458Z" fill="#54F4FC"/>
<path d="M194.644 206.318C197.554 206.318 199.922 208.174 199.922 210.456C199.922 212.737 197.554 214.594 194.644 214.594C191.733 214.594 189.366 212.737 189.366 210.456C189.366 208.174 191.733 206.318 194.644 206.318ZM194.644 213.824C197.012 213.824 198.94 212.313 198.94 210.456C198.94 208.599 197.012 207.088 194.644 207.088C192.275 207.088 190.348 208.599 190.348 210.456C190.348 212.313 192.275 213.824 194.644 213.824Z" fill="#54F4FC"/>
<path d="M189.528 160.497C189.528 158.282 191.818 156.487 194.644 156.487C197.469 156.487 199.76 158.282 199.76 160.497C199.76 162.712 197.469 164.508 194.644 164.508C191.818 164.508 189.528 162.712 189.528 160.497Z" fill="#54F4FC"/>
<path d="M194.643 156.099C197.735 156.099 200.25 158.071 200.25 160.495C200.25 162.918 197.735 164.891 194.643 164.891C191.551 164.891 189.036 162.918 189.036 160.495C189.036 158.071 191.551 156.099 194.643 156.099ZM194.643 164.12C197.193 164.12 199.268 162.494 199.268 160.495C199.268 158.496 197.193 156.869 194.643 156.869C192.093 156.869 190.018 158.496 190.018 160.495C190.018 162.494 192.092 164.12 194.643 164.12Z" fill="#54F4FC"/>
<path d="M175.001 141.844C172.706 141.844 170.845 143.302 170.845 145.102C170.845 146.901 172.706 148.359 175.001 148.359C177.296 148.359 179.156 146.901 179.156 145.102C179.156 143.302 177.296 141.844 175.001 141.844Z" fill="#54F4FC"/>
<path d="M175 141.457C177.562 141.457 179.646 143.09 179.646 145.1C179.646 147.108 177.562 148.742 175 148.742C172.438 148.742 170.353 147.108 170.353 145.1C170.353 143.09 172.438 141.457 175 141.457ZM175 147.972C177.02 147.972 178.664 146.683 178.664 145.1C178.664 143.515 177.02 142.226 175 142.226C172.98 142.226 171.336 143.515 171.336 145.1C171.336 146.683 172.98 147.972 175 147.972Z" fill="#54F4FC"/>
<path d="M128.731 141.736C126.362 141.736 124.442 143.242 124.442 145.099C124.442 146.956 126.362 148.461 128.731 148.461C131.099 148.461 133.02 146.956 133.02 145.099C133.02 143.242 131.099 141.736 128.731 141.736Z" fill="#54F4FC"/>
<path d="M128.73 141.348C131.365 141.348 133.51 143.03 133.51 145.096C133.51 147.163 131.365 148.844 128.73 148.844C126.094 148.844 123.95 147.163 123.95 145.096C123.95 143.03 126.094 141.348 128.73 141.348ZM128.73 148.074C130.825 148.074 132.528 146.738 132.528 145.096C132.528 143.454 130.824 142.119 128.73 142.119C126.635 142.119 124.932 143.454 124.932 145.096C124.932 146.738 126.635 148.074 128.73 148.074Z" fill="#54F4FC"/>
<path d="M102.812 129.697C102.812 126.979 105.622 124.776 109.089 124.776C112.555 124.776 115.365 126.979 115.365 129.697C115.365 132.414 112.555 134.617 109.089 134.617C105.622 134.617 102.812 132.414 102.812 129.697Z" fill="#54F4FC"/>
<path d="M109.088 124.389C112.82 124.389 115.855 126.768 115.855 129.694C115.855 132.62 112.82 135 109.088 135C105.357 135 102.322 132.62 102.322 129.694C102.322 126.769 105.357 124.389 109.088 124.389ZM109.088 134.23C112.278 134.23 114.873 132.195 114.873 129.694C114.873 127.193 112.278 125.159 109.088 125.159C105.898 125.159 103.304 127.194 103.304 129.694C103.304 132.195 105.898 134.23 109.088 134.23Z" fill="#54F4FC"/>
</g>
</g>
<defs>
<clipPath id="clip0_203_17748">
<rect width="735.911" height="654.316" fill="white"/>
</clipPath>
</defs>
</svg>
