<svg width="32" height="32" viewBox="0 0 32 32" fill="none" xmlns="http://www.w3.org/2000/svg">
<path d="M28.9739 24L18.3072 5.33331C18.0746 4.92291 17.7374 4.58156 17.3298 4.34407C16.9222 4.10657 16.4589 3.98145 15.9872 3.98145C15.5155 3.98145 15.0522 4.10657 14.6447 4.34407C14.2371 4.58156 13.8998 4.92291 13.6672 5.33331L3.00056 24C2.76547 24.4071 2.64219 24.8692 2.64324 25.3393C2.64428 25.8095 2.76959 26.271 3.00648 26.6771C3.24338 27.0832 3.58342 27.4194 3.99215 27.6517C4.40088 27.8841 4.86377 28.0042 5.33389 28H26.6672C27.1351 27.9995 27.5946 27.8759 27.9996 27.6417C28.4046 27.4074 28.7408 27.0708 28.9746 26.6655C29.2083 26.2602 29.3313 25.8005 29.3312 25.3326C29.331 24.8648 29.2078 24.4052 28.9739 24Z" stroke="#AD9103" stroke-width="2.66667" stroke-linecap="round" stroke-linejoin="round"/>
<path d="M16 12V17.3333" stroke="#AD9103" stroke-width="2.66667" stroke-linecap="round" stroke-linejoin="round"/>
<path d="M16 22.6667H16.0133" stroke="#AD9103" stroke-width="2.66667" stroke-linecap="round" stroke-linejoin="round"/>
</svg>
