<svg width="678" height="1143" viewBox="0 0 678 1143" fill="none" xmlns="http://www.w3.org/2000/svg">
<g clip-path="url(#clip0_203_29077)">
<g opacity="0.1">
<path d="M214.284 658.729L367.062 658.73C377.351 658.73 385.722 670.19 385.722 684.278L385.722 757.188C385.722 772.759 394.975 785.426 406.347 785.426L494.522 785.426C504.811 785.426 513.183 796.887 513.183 810.975L513.183 979.504C513.183 995.075 522.435 1007.74 533.808 1007.74L735.91 1007.74L735.91 1005.05L533.808 1005.05C523.518 1005.05 515.147 993.592 515.147 979.504L515.147 810.974C515.147 795.403 505.895 782.736 494.522 782.736L406.347 782.736C396.058 782.736 387.687 771.275 387.687 757.188L387.687 684.277C387.687 668.707 378.434 656.04 367.062 656.04L214.284 656.04C203.995 656.04 195.624 644.579 195.624 630.491L195.624 599.564C195.624 585.476 203.995 574.016 214.284 574.016L735.91 574.016L735.91 571.327L214.284 571.327C202.912 571.327 193.659 583.994 193.659 599.565L193.659 630.492C193.659 646.062 202.912 658.729 214.284 658.729Z" fill="#176DB3"/>
<path d="M498.887 926.466L630.712 926.466C641.001 926.466 649.373 937.927 649.373 952.015L649.373 1142.66L651.337 1142.66L651.337 952.015C651.337 936.444 642.085 923.777 630.712 923.777L498.887 923.777C488.598 923.777 480.226 912.316 480.226 898.228L480.226 261.161C480.226 247.073 488.598 235.612 498.887 235.612L735.91 235.612L735.91 232.923L498.887 232.923C487.514 232.923 478.262 245.591 478.262 261.161L478.262 898.228C478.262 913.799 487.514 926.466 498.887 926.466Z" fill="#176DB3"/>
<path d="M268.957 1142.66L268.957 433.276C268.957 419.188 277.328 407.727 287.617 407.727L394.998 407.727C406.371 407.727 415.623 395.059 415.623 379.489L415.623 112.95C415.623 98.8622 423.994 87.4014 434.284 87.4014L635.077 87.4014C645.367 87.4014 653.738 98.8622 653.738 112.95L653.738 410.566C653.738 426.136 662.99 438.804 674.363 438.804L735.91 438.804L735.91 436.115L674.363 436.115C664.073 436.115 655.702 424.653 655.702 410.566L655.702 112.95C655.702 97.3801 646.45 84.7121 635.077 84.7121L434.284 84.7121C422.911 84.7121 413.659 97.3801 413.659 112.95L413.659 379.489C413.659 393.577 405.288 405.038 394.998 405.038L287.617 405.038C276.245 405.038 266.992 417.706 266.992 433.276L266.992 1142.66L268.957 1142.66Z" fill="#176DB3"/>
<path d="M602.448 735.676L602.448 493.04C602.448 477.471 593.196 464.803 581.823 464.803L353.966 464.803C343.677 464.803 335.306 453.342 335.306 439.254L335.306 313.753C335.306 298.184 326.053 285.516 314.681 285.516L257.934 285.516C247.645 285.516 239.274 274.055 239.274 259.967L239.274 0.00118736L237.31 0.00118646L237.31 259.968C237.31 275.537 246.562 288.206 257.934 288.206L314.681 288.206C324.97 288.206 333.341 299.666 333.341 313.754L333.341 439.255C333.341 454.825 342.594 467.493 353.966 467.493L581.823 467.493C592.112 467.493 600.484 478.954 600.484 493.041L600.484 735.676C600.484 751.247 609.736 763.914 621.109 763.914L735.91 763.914L735.91 761.225L621.109 761.225C610.819 761.225 602.448 749.764 602.448 735.676Z" fill="#176DB3"/>
<path d="M618.162 1142.66L618.162 889.861C618.162 875.773 626.534 864.312 636.823 864.312L735.91 864.312L735.91 861.623L636.823 861.623C625.45 861.623 616.198 874.29 616.198 889.861L616.198 1142.66L618.162 1142.66Z" fill="#176DB3"/>
<path d="M342.292 1142.66L342.292 1066.76C342.292 1052.67 350.663 1041.21 360.952 1041.21L489.285 1041.21C499.575 1041.21 507.946 1052.67 507.946 1066.76L507.946 1142.66L509.91 1142.66L509.91 1066.76C509.91 1051.19 500.658 1038.52 489.285 1038.52L360.952 1038.52C349.58 1038.52 340.327 1051.19 340.327 1066.76L340.327 1142.66L342.292 1142.66Z" fill="#176DB3"/>
<path d="M195.624 1142.66L195.624 858.784C195.624 844.697 203.995 833.236 214.284 833.236L321.665 833.236C331.955 833.236 340.326 844.697 340.326 858.784L340.326 867.151C340.326 882.722 349.578 895.389 360.951 895.389L400.236 895.389C411.609 895.389 420.861 882.722 420.861 867.151L420.861 744.041C420.861 728.47 411.609 715.803 400.236 715.803L334.76 715.803C324.471 715.803 316.099 704.342 316.099 690.255L316.099 538.459C316.099 522.889 306.847 510.221 295.474 510.221L231.745 510.221C221.455 510.221 213.084 498.76 213.084 484.672L213.084 377.1C213.084 363.012 221.455 351.551 231.745 351.551L735.91 351.552L735.91 348.862L231.744 348.862C220.372 348.862 211.119 361.53 211.119 377.1L211.119 484.672C211.119 500.242 220.372 512.91 231.744 512.91L295.474 512.91C305.764 512.91 314.135 524.371 314.135 538.459L314.135 690.255C314.135 705.825 323.387 718.492 334.76 718.492L400.236 718.492C410.526 718.492 418.897 729.953 418.897 744.041L418.897 867.151C418.897 881.239 410.526 892.7 400.236 892.7L360.951 892.7C350.661 892.7 342.29 881.239 342.29 867.151L342.29 858.784C342.29 843.214 333.038 830.547 321.665 830.547L214.284 830.547C202.912 830.547 193.659 843.214 193.659 858.784L193.659 1142.66L195.624 1142.66Z" fill="#176DB3"/>
<path d="M560.871 842.797L735.91 842.797L735.91 840.108L560.871 840.108C550.581 840.108 542.21 828.647 542.21 814.559L542.21 689.058C542.21 674.971 550.581 663.51 560.871 663.51L735.91 663.51L735.91 660.821L560.871 660.821C549.498 660.821 540.246 673.488 540.246 689.058L540.246 814.559C540.246 830.129 549.498 842.797 560.871 842.797Z" fill="#176DB3"/>
<path d="M611.178 121.319L611.178 65.1429C611.178 49.5732 601.926 36.9052 590.553 36.9052L380.157 36.9051C368.784 36.9051 359.532 49.5731 359.532 65.1428L359.532 169.129C359.532 183.216 351.16 194.677 340.871 194.677L202.062 194.677C191.773 194.677 183.401 183.215 183.401 169.129L183.401 0.00196407L181.437 0.00196317L181.437 169.129C181.437 184.699 190.689 197.367 202.062 197.367L340.871 197.367C352.244 197.367 361.496 184.699 361.496 169.129L361.496 65.1436C361.496 51.056 369.867 39.5951 380.157 39.5951L590.553 39.5952C600.843 39.5952 609.214 51.0561 609.214 65.1437L609.214 121.32C609.214 136.89 618.466 149.558 629.839 149.558L735.91 149.558L735.91 146.868L629.839 146.868C619.55 146.868 611.178 135.407 611.178 121.319Z" fill="#176DB3"/>
<path d="M735.91 715.803L682.656 715.803C672.367 715.803 663.995 704.342 663.995 690.254L663.995 528.896C663.995 514.808 672.367 503.347 682.656 503.347L735.91 503.347L735.91 500.658L682.656 500.658C671.283 500.658 662.031 513.326 662.031 528.896L662.031 690.254C662.031 705.825 671.283 718.492 682.656 718.492L735.91 718.492L735.91 715.803Z" fill="#176DB3"/>
<path d="M522.131 374.707L522.131 -0.0021599L520.167 -0.00216116L520.167 374.707C520.167 390.277 529.419 402.945 540.792 402.945L735.91 402.945L735.91 400.256L540.792 400.256C530.502 400.256 522.131 388.795 522.131 374.707Z" fill="#176DB3"/>
<path d="M312.387 -0.00239996L312.387 78.2857C312.387 92.3727 304.016 103.834 293.727 103.834L60.1956 103.834L60.1956 106.523L293.727 106.523C305.099 106.523 314.352 93.8554 314.352 78.2857L314.352 -0.00239906L312.387 -0.00239996Z" fill="#176DB3"/>
<path d="M312.387 1016.56L312.387 1142.66L314.352 1142.66L314.352 1016.56C314.352 1000.99 305.099 988.32 293.727 988.32L93.3699 988.32L93.3699 991.009L293.727 991.009C304.016 991.009 312.387 1002.47 312.387 1016.56Z" fill="#176DB3"/>
<path d="M305.407 816.428L305.407 917.352C305.407 932.923 314.659 945.59 326.032 945.59L408.968 945.59C413.926 945.59 418.543 948.25 421.971 953.079C425.397 957.909 427.206 964.304 427.063 971.088C427.051 971.642 425.889 1027.18 425.382 1082.87C425.155 1107.69 425.104 1127.24 425.171 1142.66L427.126 1142.66C426.927 1094.36 427.903 1024.49 429.026 971.166C429.185 963.648 427.179 956.56 423.38 951.205C419.579 945.85 414.461 942.9 408.968 942.9L326.032 942.9C315.742 942.9 307.371 931.439 307.371 917.352L307.371 816.428C307.371 800.857 298.119 788.19 286.746 788.19L137.024 788.19L137.024 790.879L286.746 790.879C297.036 790.88 305.407 802.341 305.407 816.428Z" fill="#176DB3"/>
<path d="M228.579 735.674L228.579 1142.66L230.543 1142.66L230.543 735.674C230.543 720.104 221.291 707.436 209.918 707.436L39.243 707.436L39.243 710.125L209.918 710.125C220.207 710.125 228.579 721.587 228.579 735.674Z" fill="#176DB3"/>
<path d="M147.497 -0.00474844L147.497 475.106C147.497 489.194 139.125 500.654 128.836 500.654L39.2426 500.654L39.2426 503.344L128.836 503.344C140.208 503.344 149.461 490.676 149.461 475.106L149.461 -0.00474754L147.497 -0.00474844Z" fill="#176DB3"/>
<path d="M82.4603 601.359C93.8325 601.359 103.085 588.692 103.085 573.122L103.085 421.325C103.085 407.237 111.457 395.776 121.746 395.776L175 395.777C186.373 395.777 195.625 383.109 195.625 367.539L195.625 280.286C195.625 264.716 186.373 252.048 175 252.048L128.73 252.048C118.441 252.048 110.069 240.587 110.069 226.5L110.069 -0.000352243L108.105 -0.000353144L108.105 226.499C108.105 242.069 117.358 254.737 128.73 254.737L175 254.737C185.289 254.737 193.661 266.198 193.661 280.285L193.661 367.538C193.661 381.625 185.289 393.087 175 393.087L121.746 393.086C110.374 393.086 101.121 405.755 101.121 421.324L101.121 573.122C101.121 587.209 92.7497 598.67 82.4603 598.67L4.32651 598.67L4.32651 601.359L82.4603 601.359Z" fill="#176DB3"/>
<path d="M207.958 572.67C207.958 567.888 210.789 564.012 214.282 564.012C217.774 564.012 220.605 567.888 220.605 572.67C220.605 577.452 217.774 581.328 214.282 581.328C210.789 581.328 207.958 577.452 207.958 572.67Z" fill="#54F4FC"/>
<path d="M214.283 563.34C218.04 563.34 221.098 567.525 221.098 572.67C221.098 577.814 218.04 582 214.283 582C210.526 582 207.468 577.814 207.468 572.67C207.468 567.525 210.525 563.34 214.283 563.34ZM214.283 580.655C217.499 580.655 220.116 577.072 220.116 572.67C220.116 568.267 217.499 564.685 214.283 564.685C211.067 564.685 208.451 568.267 208.451 572.67C208.451 577.072 211.067 580.655 214.283 580.655Z" fill="#54F4FC"/>
<path d="M190.467 599.566C190.467 596.41 192.336 593.851 194.642 593.851C196.947 593.851 198.816 596.41 198.816 599.566C198.816 602.722 196.947 605.281 194.642 605.281C192.336 605.281 190.467 602.722 190.467 599.566Z" fill="#54F4FC"/>
<path d="M194.643 593.178C197.216 593.178 199.309 596.043 199.309 599.566C199.309 603.088 197.216 605.953 194.643 605.953C192.07 605.953 189.977 603.088 189.977 599.566C189.977 596.043 192.07 593.178 194.643 593.178ZM194.643 604.609C196.674 604.609 198.326 602.346 198.326 599.566C198.326 596.785 196.674 594.523 194.643 594.523C192.612 594.523 190.959 596.785 190.959 599.566C190.959 602.346 192.612 604.609 194.643 604.609Z" fill="#54F4FC"/>
<path d="M188.419 630.489C188.419 625.784 191.204 621.97 194.641 621.97C198.077 621.97 200.863 625.784 200.863 630.489C200.863 635.194 198.077 639.008 194.641 639.008C191.204 639.008 188.419 635.194 188.419 630.489Z" fill="#54F4FC"/>
<path d="M194.642 621.297C198.344 621.297 201.355 625.42 201.355 630.489C201.355 635.557 198.344 639.68 194.642 639.68C190.94 639.68 187.929 635.557 187.929 630.489C187.929 625.421 190.94 621.297 194.642 621.297ZM194.642 638.335C197.803 638.335 200.373 634.815 200.373 630.489C200.373 626.162 197.803 622.642 194.642 622.642C191.482 622.642 188.911 626.162 188.911 630.489C188.911 634.815 191.482 638.335 194.642 638.335Z" fill="#54F4FC"/>
<path d="M208.163 657.387C208.163 652.76 210.903 649.009 214.283 649.009C217.663 649.009 220.402 652.76 220.402 657.387C220.402 662.014 217.663 665.766 214.283 665.766C210.903 665.766 208.163 662.015 208.163 657.387Z" fill="#54F4FC"/>
<path d="M214.284 648.336C217.929 648.336 220.895 652.397 220.895 657.387C220.895 662.377 217.929 666.437 214.284 666.437C210.639 666.437 207.673 662.377 207.673 657.387C207.673 652.397 210.639 648.336 214.284 648.336ZM214.284 665.093C217.387 665.093 219.912 661.636 219.912 657.387C219.912 653.138 217.387 649.681 214.284 649.681C211.18 649.681 208.655 653.138 208.655 657.387C208.655 661.636 211.18 665.093 214.284 665.093Z" fill="#54F4FC"/>
<path d="M362.389 657.386C362.389 653.855 364.48 650.992 367.06 650.992C369.639 650.992 371.73 653.854 371.73 657.386C371.73 660.919 369.639 663.781 367.06 663.781C364.48 663.781 362.389 660.919 362.389 657.386Z" fill="#54F4FC"/>
<path d="M367.061 650.319C369.907 650.319 372.223 653.49 372.223 657.386C372.223 661.283 369.907 664.453 367.061 664.453C364.215 664.453 361.899 661.283 361.899 657.386C361.899 653.49 364.215 650.319 367.061 650.319ZM367.061 663.109C369.365 663.109 371.241 660.542 371.241 657.386C371.241 654.23 369.366 651.663 367.061 651.663C364.756 651.663 362.881 654.23 362.881 657.386C362.881 660.542 364.756 663.109 367.061 663.109Z" fill="#54F4FC"/>
<path d="M386.704 675.575C383.194 675.575 380.349 679.47 380.349 684.276C380.349 689.081 383.194 692.977 386.704 692.977C390.213 692.977 393.059 689.081 393.059 684.276C393.059 679.47 390.213 675.575 386.704 675.575Z" fill="#54F4FC"/>
<path d="M386.705 674.902C390.48 674.902 393.551 679.107 393.551 684.275C393.551 689.444 390.48 693.648 386.705 693.648C382.929 693.648 379.859 689.443 379.859 684.275C379.859 679.106 382.93 674.902 386.705 674.902ZM386.705 692.303C389.938 692.303 392.569 688.702 392.569 684.275C392.569 679.847 389.938 676.246 386.705 676.246C383.471 676.246 380.841 679.848 380.841 684.275C380.841 688.703 383.471 692.303 386.705 692.303Z" fill="#54F4FC"/>
<path d="M386.703 749.619C383.648 749.619 381.172 753.01 381.172 757.193C381.172 761.375 383.648 764.766 386.703 764.766C389.758 764.766 392.234 761.375 392.234 757.193C392.234 753.01 389.758 749.619 386.703 749.619Z" fill="#54F4FC"/>
<path d="M386.704 748.947C390.025 748.947 392.727 752.646 392.727 757.192C392.727 761.739 390.025 765.437 386.704 765.437C383.383 765.437 380.682 761.739 380.682 757.192C380.682 752.645 383.383 748.947 386.704 748.947ZM386.704 764.093C389.483 764.093 391.744 760.997 391.744 757.192C391.744 753.388 389.484 750.292 386.704 750.292C383.925 750.292 381.664 753.388 381.664 757.192C381.664 760.997 383.925 764.093 386.704 764.093Z" fill="#54F4FC"/>
<path d="M401.996 784.084C401.996 780.796 403.944 778.13 406.346 778.13C408.748 778.13 410.695 780.796 410.695 784.084C410.695 787.373 408.748 790.039 406.346 790.039C403.944 790.04 401.996 787.373 401.996 784.084Z" fill="#54F4FC"/>
<path d="M406.348 777.456C409.016 777.456 411.188 780.429 411.188 784.083C411.188 787.738 409.016 790.711 406.348 790.711C403.678 790.711 401.507 787.738 401.507 784.083C401.507 780.429 403.679 777.456 406.348 777.456ZM406.348 789.367C408.475 789.367 410.205 786.997 410.205 784.083C410.205 781.17 408.475 778.801 406.348 778.801C404.22 778.801 402.489 781.17 402.489 784.083C402.489 786.997 404.22 789.367 406.348 789.367Z" fill="#54F4FC"/>
<path d="M488.975 784.079C488.975 779.886 491.457 776.486 494.52 776.486C497.583 776.486 500.066 779.886 500.066 784.079C500.066 788.273 497.584 791.672 494.52 791.672C491.457 791.673 488.975 788.273 488.975 784.079Z" fill="#54F4FC"/>
<path d="M494.522 775.814C497.85 775.814 500.559 779.521 500.559 784.078C500.559 788.636 497.85 792.344 494.522 792.344C491.193 792.344 488.485 788.636 488.485 784.078C488.485 779.521 491.193 775.814 494.522 775.814ZM494.522 790.999C497.309 790.999 499.576 787.895 499.576 784.078C499.576 780.263 497.309 777.158 494.522 777.158C491.735 777.158 489.467 780.262 489.467 784.078C489.467 787.894 491.735 790.999 494.522 790.999Z" fill="#54F4FC"/>
<path d="M510.387 810.977C510.387 808.121 512.078 805.805 514.164 805.805C516.25 805.805 517.941 808.121 517.941 810.977C517.941 813.833 516.25 816.148 514.164 816.148C512.078 816.148 510.387 813.833 510.387 810.977Z" fill="#54F4FC"/>
<path d="M514.166 805.132C516.519 805.132 518.434 807.754 518.434 810.976C518.434 814.198 516.519 816.82 514.166 816.82C511.812 816.82 509.897 814.199 509.897 810.976C509.897 807.754 511.812 805.132 514.166 805.132ZM514.166 815.475C515.977 815.475 517.451 813.457 517.451 810.976C517.451 808.496 515.977 806.477 514.166 806.477C512.354 806.477 510.879 808.496 510.879 810.976C510.879 813.457 512.353 815.475 514.166 815.475Z" fill="#54F4FC"/>
<path d="M508.282 979.509C508.282 975.06 510.915 971.455 514.164 971.455C517.413 971.455 520.047 975.061 520.047 979.509C520.047 983.956 517.413 987.562 514.164 987.562C510.916 987.562 508.282 983.956 508.282 979.509Z" fill="#54F4FC"/>
<path d="M514.165 970.782C517.68 970.782 520.539 974.697 520.539 979.509C520.539 984.32 517.68 988.234 514.165 988.234C510.651 988.234 507.792 984.32 507.792 979.509C507.791 974.697 510.651 970.782 514.165 970.782ZM514.165 986.889C517.138 986.889 519.557 983.578 519.557 979.509C519.557 975.439 517.138 972.127 514.165 972.127C511.193 972.127 508.774 975.439 508.774 979.509C508.773 983.578 511.193 986.889 514.165 986.889Z" fill="#54F4FC"/>
<path d="M528.017 1006.4C528.017 1002.02 530.609 998.471 533.806 998.471C537.002 998.471 539.594 1002.02 539.594 1006.4C539.594 1010.77 537.002 1014.32 533.806 1014.32C530.609 1014.32 528.017 1010.77 528.017 1006.4Z" fill="#54F4FC"/>
<path d="M533.807 997.799C537.27 997.799 540.086 1001.66 540.086 1006.4C540.086 1011.14 537.27 1014.99 533.807 1014.99C530.345 1014.99 527.528 1011.14 527.528 1006.4C527.528 1001.66 530.345 997.799 533.807 997.799ZM533.807 1013.65C536.728 1013.65 539.104 1010.39 539.104 1006.4C539.104 1002.4 536.728 999.143 533.807 999.143C530.886 999.143 528.51 1002.4 528.51 1006.4C528.51 1010.39 530.886 1013.65 533.807 1013.65Z" fill="#54F4FC"/>
<path d="M492.496 234.268C492.496 229.438 495.356 225.522 498.885 225.522C502.413 225.522 505.273 229.438 505.273 234.268C505.273 239.099 502.413 243.016 498.885 243.016C495.356 243.016 492.496 239.1 492.496 234.268Z" fill="#54F4FC"/>
<path d="M498.886 224.85C502.679 224.85 505.766 229.076 505.766 234.269C505.766 239.462 502.679 243.687 498.886 243.687C495.092 243.687 492.006 239.462 492.006 234.269C492.006 229.076 495.093 224.85 498.886 224.85ZM498.886 242.344C502.138 242.344 504.783 238.722 504.783 234.269C504.783 229.816 502.138 226.195 498.886 226.195C495.634 226.195 492.988 229.816 492.988 234.269C492.988 238.722 495.634 242.344 498.886 242.344Z" fill="#54F4FC"/>
<path d="M474.158 261.158C474.158 257.314 476.434 254.198 479.241 254.198C482.049 254.198 484.324 257.314 484.324 261.158C484.324 265.001 482.049 268.117 479.241 268.117C476.433 268.117 474.158 265.001 474.158 261.158Z" fill="#54F4FC"/>
<path d="M479.242 253.525C482.316 253.525 484.816 256.948 484.816 261.157C484.816 265.366 482.316 268.789 479.242 268.789C476.168 268.789 473.668 265.366 473.668 261.157C473.668 256.949 476.168 253.525 479.242 253.525ZM479.242 267.444C481.774 267.444 483.834 264.624 483.834 261.157C483.834 257.69 481.774 254.869 479.242 254.869C476.71 254.869 474.65 257.69 474.65 261.157C474.65 264.624 476.71 267.444 479.242 267.444Z" fill="#54F4FC"/>
<path d="M474.08 898.229C474.08 894.325 476.391 891.16 479.243 891.16C482.095 891.16 484.406 894.325 484.406 898.229C484.406 902.132 482.095 905.297 479.243 905.297C476.391 905.297 474.08 902.132 474.08 898.229Z" fill="#54F4FC"/>
<path d="M479.244 890.487C482.362 890.487 484.898 893.959 484.898 898.228C484.898 902.496 482.362 905.969 479.244 905.969C476.126 905.969 473.59 902.496 473.59 898.228C473.591 893.959 476.127 890.487 479.244 890.487ZM479.244 904.624C481.82 904.624 483.916 901.754 483.916 898.228C483.916 894.701 481.82 891.832 479.244 891.832C476.668 891.832 474.572 894.701 474.572 898.228C474.573 901.754 476.668 904.624 479.244 904.624Z" fill="#54F4FC"/>
<path d="M498.887 918.758C496.32 918.758 494.239 921.607 494.239 925.121C494.239 928.635 496.32 931.484 498.887 931.484C501.454 931.484 503.535 928.635 503.535 925.121C503.535 921.607 501.454 918.758 498.887 918.758Z" fill="#54F4FC"/>
<path d="M498.888 918.083C501.722 918.083 504.027 921.241 504.027 925.12C504.027 929 501.722 932.156 498.888 932.156C496.055 932.156 493.749 929 493.749 925.12C493.749 921.24 496.055 918.083 498.888 918.083ZM498.888 930.811C501.181 930.811 503.045 928.258 503.045 925.119C503.045 921.981 501.181 919.428 498.888 919.428C496.596 919.428 494.731 921.981 494.731 925.119C494.731 928.258 496.596 930.811 498.888 930.811Z" fill="#54F4FC"/>
<path d="M630.71 919.839C628.58 919.839 626.854 922.203 626.854 925.119C626.854 928.035 628.58 930.398 630.71 930.398C632.84 930.398 634.566 928.035 634.566 925.119C634.566 922.203 632.84 919.839 630.71 919.839Z" fill="#54F4FC"/>
<path d="M630.711 919.166C633.108 919.166 635.059 921.836 635.059 925.118C635.059 928.4 633.108 931.07 630.711 931.07C628.313 931.07 626.363 928.4 626.363 925.118C626.363 921.836 628.313 919.166 630.711 919.166ZM630.711 929.726C632.566 929.726 634.076 927.659 634.076 925.119C634.076 922.578 632.567 920.511 630.711 920.511C628.855 920.511 627.345 922.578 627.345 925.119C627.345 927.659 628.855 929.726 630.711 929.726Z" fill="#54F4FC"/>
<path d="M650.352 943.536C646.93 943.536 644.156 947.334 644.156 952.018C644.156 956.703 646.93 960.5 650.352 960.5C653.773 960.5 656.547 956.703 656.547 952.018C656.547 947.334 653.773 943.536 650.352 943.536Z" fill="#54F4FC"/>
<path d="M650.353 942.863C654.04 942.863 657.039 946.97 657.039 952.018C657.039 957.066 654.04 961.172 650.353 961.172C646.666 961.172 643.667 957.066 643.667 952.018C643.667 946.97 646.666 942.863 650.353 942.863ZM650.353 959.827C653.498 959.827 656.057 956.324 656.057 952.018C656.057 947.711 653.498 944.208 650.353 944.208C647.208 944.208 644.649 947.711 644.649 952.018C644.649 956.324 647.208 959.827 650.353 959.827Z" fill="#54F4FC"/>
<path d="M262.806 433.274C262.806 429.365 265.12 426.196 267.975 426.196C270.83 426.196 273.145 429.365 273.145 433.274C273.145 437.182 270.83 440.352 267.975 440.352C265.12 440.352 262.806 437.182 262.806 433.274Z" fill="#54F4FC"/>
<path d="M267.976 425.524C271.097 425.524 273.637 429.001 273.637 433.274C273.637 437.546 271.097 441.023 267.976 441.023C264.855 441.023 262.316 437.546 262.316 433.274C262.315 429.001 264.854 425.524 267.976 425.524ZM267.976 439.679C270.556 439.679 272.655 436.806 272.655 433.274C272.655 429.741 270.556 426.868 267.976 426.868C265.397 426.868 263.298 429.741 263.298 433.274C263.297 436.806 265.397 439.679 267.976 439.679Z" fill="#54F4FC"/>
<path d="M282.528 406.386C282.528 402.539 284.806 399.421 287.616 399.421C290.426 399.421 292.703 402.539 292.703 406.386C292.703 410.233 290.425 413.352 287.616 413.352C284.805 413.352 282.528 410.234 282.528 406.386Z" fill="#54F4FC"/>
<path d="M287.617 398.748C290.693 398.748 293.195 402.174 293.195 406.385C293.195 410.597 290.692 414.023 287.617 414.023C284.541 414.023 282.038 410.597 282.038 406.385C282.038 402.174 284.541 398.748 287.617 398.748ZM287.617 412.68C290.151 412.68 292.213 409.857 292.213 406.386C292.213 402.916 290.151 400.093 287.617 400.093C285.082 400.093 283.02 402.916 283.02 406.386C283.02 409.856 285.082 412.68 287.617 412.68Z" fill="#54F4FC"/>
<path d="M388.099 406.382C388.099 401.164 391.189 396.935 394.999 396.935C398.81 396.935 401.898 401.165 401.898 406.382C401.898 411.599 398.81 415.828 394.999 415.828C391.188 415.828 388.099 411.599 388.099 406.382Z" fill="#54F4FC"/>
<path d="M395 396.263C399.075 396.263 402.391 400.801 402.391 406.381C402.391 411.96 399.075 416.5 395 416.5C390.925 416.5 387.609 411.96 387.609 406.381C387.609 400.801 390.925 396.263 395 396.263ZM395 415.155C398.533 415.155 401.408 411.218 401.408 406.381C401.408 401.543 398.534 397.608 395 397.608C391.467 397.608 388.592 401.543 388.592 406.381C388.592 411.218 391.467 415.155 395 415.155Z" fill="#54F4FC"/>
<path d="M409.179 379.492C409.179 375.363 411.624 372.015 414.64 372.015C417.657 372.015 420.102 375.362 420.102 379.492C420.102 383.621 417.657 386.969 414.64 386.969C411.624 386.969 409.179 383.621 409.179 379.492Z" fill="#54F4FC"/>
<path d="M414.641 371.342C417.924 371.342 420.594 374.998 420.594 379.491C420.594 383.985 417.923 387.641 414.641 387.641C411.359 387.641 408.689 383.985 408.689 379.491C408.689 374.998 411.359 371.342 414.641 371.342ZM414.641 386.296C417.382 386.296 419.612 383.243 419.612 379.491C419.612 375.739 417.382 372.687 414.641 372.687C411.901 372.687 409.671 375.739 409.671 379.491C409.671 383.243 411.901 386.296 414.641 386.296Z" fill="#54F4FC"/>
<path d="M409.65 112.951C409.65 109.179 411.884 106.12 414.64 106.12C417.395 106.12 419.629 109.179 419.629 112.951C419.629 116.724 417.395 119.781 414.64 119.781C411.884 119.781 409.65 116.723 409.65 112.951Z" fill="#54F4FC"/>
<path d="M414.641 105.447C417.663 105.447 420.121 108.812 420.121 112.95C420.121 117.088 417.663 120.453 414.641 120.453C411.62 120.453 409.161 117.088 409.161 112.95C409.161 108.812 411.62 105.447 414.641 105.447ZM414.641 119.109C417.122 119.109 419.139 116.346 419.139 112.951C419.139 109.555 417.122 106.792 414.641 106.792C412.161 106.792 410.144 109.554 410.144 112.951C410.144 116.346 412.161 119.109 414.641 119.109Z" fill="#54F4FC"/>
<path d="M430.357 86.0531C430.357 83.0836 432.115 80.6767 434.284 80.6767C436.453 80.6767 438.211 83.0836 438.211 86.0531C438.211 89.0227 436.453 91.4297 434.284 91.4297C432.115 91.4304 430.357 89.0227 430.357 86.0531Z" fill="#54F4FC"/>
<path d="M434.285 80.0042C436.721 80.0042 438.703 82.7183 438.703 86.0535C438.703 89.3887 436.721 92.1016 434.285 92.1016C431.849 92.1016 429.867 89.3887 429.867 86.0535C429.867 82.7183 431.849 80.0042 434.285 80.0042ZM434.285 90.7579C436.18 90.7579 437.721 88.6474 437.721 86.0543C437.721 83.4597 436.18 81.3492 434.285 81.3492C432.39 81.3492 430.849 83.4591 430.849 86.0542C430.849 88.6474 432.39 90.7579 434.285 90.7579Z" fill="#54F4FC"/>
<path d="M629.181 86.0609C629.181 81.6025 631.821 77.9891 635.077 77.9891C638.333 77.9891 640.973 81.6032 640.973 86.0609C640.973 90.5193 638.333 94.1328 635.077 94.1328C631.821 94.1335 629.181 90.5193 629.181 86.0609Z" fill="#54F4FC"/>
<path d="M635.077 77.3167C638.599 77.3167 641.465 81.2387 641.465 86.0607C641.465 90.8827 638.599 94.8047 635.077 94.8047C631.556 94.8047 628.691 90.8821 628.691 86.0607C628.691 81.2394 631.556 77.3167 635.077 77.3167ZM635.077 93.4604C638.058 93.4604 640.483 90.1407 640.483 86.0607C640.483 81.9808 638.058 78.661 635.077 78.661C632.098 78.661 629.673 81.9808 629.673 86.0607C629.673 90.1407 632.097 93.4604 635.077 93.4604Z" fill="#54F4FC"/>
<path d="M649.694 112.949C649.694 109.15 651.944 106.071 654.718 106.071C657.493 106.071 659.742 109.151 659.742 112.949C659.742 116.748 657.493 119.828 654.718 119.828C651.943 119.827 649.694 116.748 649.694 112.949Z" fill="#54F4FC"/>
<path d="M654.719 105.399C657.76 105.399 660.234 108.786 660.234 112.95C660.234 117.114 657.76 120.5 654.719 120.5C651.678 120.5 649.204 117.113 649.204 112.95C649.204 108.785 651.678 105.399 654.719 105.399ZM654.719 119.155C657.219 119.155 659.252 116.371 659.252 112.949C659.252 109.527 657.218 106.743 654.719 106.743C652.22 106.743 650.186 109.527 650.186 112.949C650.186 116.371 652.22 119.155 654.719 119.155Z" fill="#54F4FC"/>
<path d="M647.791 410.569C647.791 405.33 650.894 401.083 654.72 401.083C658.546 401.083 661.648 405.33 661.648 410.569C661.648 415.808 658.546 420.055 654.72 420.055C650.894 420.055 647.791 415.808 647.791 410.569Z" fill="#54F4FC"/>
<path d="M654.721 400.41C658.812 400.41 662.141 404.967 662.141 410.568C662.141 416.17 658.812 420.727 654.721 420.727C650.63 420.727 647.301 416.17 647.301 410.568C647.301 404.967 650.629 400.41 654.721 400.41ZM654.721 419.382C658.271 419.382 661.158 415.429 661.158 410.568C661.158 405.709 658.271 401.754 654.721 401.754C651.171 401.754 648.284 405.708 648.284 410.568C648.283 415.428 651.171 419.382 654.721 419.382Z" fill="#54F4FC"/>
<path d="M670.236 437.463C670.236 434.344 672.082 431.816 674.36 431.816C676.638 431.816 678.484 434.344 678.484 437.463C678.484 440.581 676.638 443.109 674.36 443.109C672.082 443.109 670.236 440.581 670.236 437.463Z" fill="#54F4FC"/>
<path d="M674.361 431.143C676.907 431.143 678.977 433.979 678.977 437.462C678.977 440.946 676.906 443.781 674.361 443.781C671.816 443.781 669.746 440.946 669.746 437.462C669.746 433.979 671.816 431.143 674.361 431.143ZM674.361 442.436C676.365 442.436 677.994 440.205 677.994 437.462C677.994 434.719 676.365 432.488 674.361 432.488C672.358 432.488 670.728 434.719 670.728 437.462C670.728 440.205 672.358 442.436 674.361 442.436Z" fill="#54F4FC"/>
<path d="M232.089 259.968C232.089 255.277 234.866 251.474 238.292 251.474C241.719 251.474 244.496 255.277 244.496 259.968C244.496 264.659 241.719 268.461 238.292 268.461C234.866 268.461 232.089 264.658 232.089 259.968Z" fill="#54F4FC"/>
<path d="M238.294 250.802C241.985 250.802 244.988 254.913 244.988 259.967C244.988 265.021 241.985 269.133 238.294 269.133C234.602 269.133 231.599 265.021 231.599 259.967C231.599 254.913 234.602 250.802 238.294 250.802ZM238.294 267.789C241.443 267.789 244.006 264.28 244.006 259.967C244.006 255.655 241.443 252.146 238.294 252.146C235.144 252.146 232.581 255.655 232.581 259.967C232.581 264.28 235.143 267.789 238.294 267.789Z" fill="#54F4FC"/>
<path d="M253.823 286.855C253.823 283.746 255.664 281.226 257.935 281.226C260.206 281.226 262.047 283.746 262.047 286.855C262.047 289.964 260.206 292.484 257.935 292.484C255.664 292.484 253.823 289.964 253.823 286.855Z" fill="#54F4FC"/>
<path d="M257.936 280.553C260.474 280.553 262.539 283.38 262.539 286.855C262.539 290.329 260.474 293.156 257.936 293.156C255.398 293.156 253.334 290.329 253.334 286.855C253.333 283.38 255.398 280.553 257.936 280.553ZM257.936 291.812C259.932 291.812 261.557 289.589 261.557 286.855C261.557 284.121 259.932 281.898 257.936 281.898C255.94 281.898 254.316 284.121 254.316 286.855C254.316 289.589 255.94 291.812 257.936 291.812Z" fill="#54F4FC"/>
<path d="M309.34 286.858C309.34 282.819 311.731 279.544 314.682 279.544C317.632 279.544 320.023 282.819 320.023 286.858C320.023 290.897 317.632 294.172 314.682 294.172C311.731 294.172 309.34 290.898 309.34 286.858Z" fill="#54F4FC"/>
<path d="M314.683 278.871C317.899 278.871 320.516 282.453 320.516 286.857C320.516 291.261 317.899 294.844 314.683 294.844C311.466 294.844 308.85 291.261 308.85 286.857C308.85 282.453 311.466 278.871 314.683 278.871ZM314.683 293.499C317.357 293.499 319.533 290.519 319.533 286.857C319.533 283.195 317.357 280.215 314.683 280.215C312.008 280.215 309.832 283.195 309.832 286.857C309.832 290.52 312.008 293.499 314.683 293.499Z" fill="#54F4FC"/>
<path d="M330.459 313.751C330.459 310.831 332.188 308.463 334.321 308.463C336.455 308.463 338.184 310.831 338.184 313.751C338.184 316.672 336.455 319.039 334.321 319.039C332.189 319.039 330.459 316.671 330.459 313.751Z" fill="#54F4FC"/>
<path d="M334.322 307.79C336.723 307.79 338.676 310.463 338.676 313.75C338.676 317.037 336.723 319.711 334.322 319.711C331.922 319.711 329.969 317.037 329.969 313.75C329.969 310.463 331.922 307.79 334.322 307.79ZM334.322 318.365C336.181 318.365 337.694 316.294 337.694 313.75C337.694 311.205 336.181 309.134 334.322 309.134C332.464 309.134 330.951 311.205 330.951 313.75C330.951 316.295 332.464 318.365 334.322 318.365Z" fill="#54F4FC"/>
<path d="M328.639 439.251C328.639 434.954 331.183 431.471 334.321 431.471C337.46 431.471 340.004 434.954 340.004 439.251C340.004 443.548 337.46 447.031 334.321 447.031C331.183 447.032 328.639 443.548 328.639 439.251Z" fill="#54F4FC"/>
<path d="M334.322 430.797C337.727 430.797 340.496 434.59 340.496 439.25C340.496 443.911 337.726 447.703 334.322 447.703C330.918 447.703 328.149 443.911 328.149 439.25C328.149 434.589 330.918 430.797 334.322 430.797ZM334.322 446.358C337.185 446.358 339.514 443.17 339.514 439.25C339.514 435.33 337.185 432.141 334.322 432.141C331.46 432.141 329.131 435.33 329.131 439.25C329.131 443.17 331.46 446.358 334.322 446.358Z" fill="#54F4FC"/>
<path d="M349.766 466.15C349.766 462.974 351.646 460.4 353.965 460.4C356.284 460.4 358.164 462.974 358.164 466.15C358.164 469.325 356.284 471.898 353.965 471.898C351.646 471.898 349.766 469.325 349.766 466.15Z" fill="#54F4FC"/>
<path d="M353.966 459.727C356.552 459.727 358.656 462.608 358.656 466.148C358.656 469.689 356.552 472.57 353.966 472.57C351.379 472.57 349.275 469.689 349.275 466.148C349.275 462.608 351.38 459.727 353.966 459.727ZM353.966 471.226C356.01 471.226 357.674 468.947 357.674 466.148C357.674 463.348 356.01 461.071 353.966 461.071C351.921 461.071 350.257 463.348 350.257 466.148C350.257 468.948 351.921 471.226 353.966 471.226Z" fill="#54F4FC"/>
<path d="M576.403 466.145C576.403 462.049 578.829 458.728 581.821 458.728C584.813 458.728 587.238 462.049 587.238 466.145C587.238 470.241 584.813 473.562 581.821 473.562C578.829 473.562 576.403 470.241 576.403 466.145Z" fill="#54F4FC"/>
<path d="M581.822 458.056C585.08 458.056 587.73 461.684 587.73 466.144C587.73 470.605 585.08 474.234 581.822 474.234C578.564 474.234 575.914 470.605 575.914 466.144C575.914 461.684 578.564 458.056 581.822 458.056ZM581.822 472.891C584.539 472.891 586.748 469.865 586.748 466.145C586.748 462.426 584.539 459.401 581.822 459.401C579.106 459.401 576.896 462.426 576.896 466.145C576.896 469.865 579.106 472.891 581.822 472.891Z" fill="#54F4FC"/>
<path d="M601.467 486.84C598.966 486.84 596.938 489.616 596.938 493.041C596.938 496.466 598.966 499.242 601.467 499.242C603.968 499.242 605.996 496.466 605.996 493.041C605.996 489.616 603.968 486.84 601.467 486.84Z" fill="#54F4FC"/>
<path d="M601.468 486.167C604.236 486.167 606.488 489.25 606.488 493.04C606.488 496.831 604.236 499.914 601.468 499.914C598.699 499.914 596.447 496.831 596.447 493.04C596.447 489.25 598.699 486.167 601.468 486.167ZM601.468 498.57C603.694 498.57 605.506 496.09 605.506 493.04C605.506 489.992 603.695 487.512 601.468 487.512C599.241 487.512 597.429 489.992 597.429 493.04C597.429 496.09 599.241 498.57 601.468 498.57Z" fill="#54F4FC"/>
<path d="M597.623 735.677C597.623 732.771 599.344 730.416 601.466 730.416C603.588 730.416 605.309 732.771 605.309 735.677C605.309 738.582 603.588 740.937 601.466 740.937C599.344 740.937 597.623 738.582 597.623 735.677Z" fill="#54F4FC"/>
<path d="M601.467 729.743C603.857 729.743 605.801 732.404 605.801 735.676C605.801 738.947 603.857 741.609 601.467 741.609C599.078 741.609 597.134 738.948 597.134 735.676C597.134 732.404 599.078 729.743 601.467 729.743ZM601.467 740.264C603.315 740.264 604.819 738.206 604.819 735.675C604.819 733.145 603.315 731.087 601.467 731.087C599.619 731.087 598.116 733.145 598.116 735.675C598.116 738.206 599.619 740.264 601.467 740.264Z" fill="#54F4FC"/>
<path d="M617.326 762.567C617.326 759.708 619.019 757.391 621.106 757.391C623.194 757.391 624.887 759.709 624.887 762.567C624.887 765.425 623.194 767.742 621.106 767.742C619.019 767.742 617.326 765.425 617.326 762.567Z" fill="#54F4FC"/>
<path d="M621.108 756.718C623.463 756.718 625.379 759.341 625.379 762.566C625.379 765.79 623.463 768.414 621.108 768.414C618.752 768.414 616.836 765.791 616.836 762.566C616.836 759.342 618.752 756.718 621.108 756.718ZM621.108 767.07C622.921 767.07 624.397 765.049 624.397 762.566C624.397 760.083 622.921 758.063 621.108 758.063C619.294 758.063 617.818 760.083 617.818 762.566C617.818 765.049 619.294 767.07 621.108 767.07Z" fill="#54F4FC"/>
<path d="M636.821 853.649C633.063 853.649 630.016 857.82 630.016 862.965C630.016 868.11 633.063 872.281 636.821 872.281C640.579 872.281 643.625 868.11 643.625 862.965C643.625 857.82 640.579 853.649 636.821 853.649Z" fill="#54F4FC"/>
<path d="M636.822 852.977C640.844 852.977 644.117 857.458 644.117 862.965C644.117 868.472 640.844 872.953 636.822 872.953C632.799 872.953 629.526 868.472 629.526 862.965C629.526 857.458 632.799 852.977 636.822 852.977ZM636.822 871.609C640.303 871.609 643.135 867.732 643.135 862.966C643.135 858.199 640.303 854.322 636.822 854.322C633.341 854.322 630.509 858.199 630.509 862.966C630.509 867.731 633.341 871.609 636.822 871.609Z" fill="#54F4FC"/>
<path d="M611.647 889.866C611.647 885.681 614.126 882.287 617.183 882.287C620.24 882.287 622.719 885.68 622.719 889.866C622.719 894.052 620.24 897.445 617.183 897.445C614.126 897.445 611.647 894.052 611.647 889.866Z" fill="#54F4FC"/>
<path d="M617.181 881.614C620.504 881.614 623.207 885.315 623.207 889.865C623.207 894.415 620.503 898.117 617.181 898.117C613.858 898.117 611.154 894.416 611.154 889.865C611.154 885.315 613.858 881.614 617.181 881.614ZM617.181 896.772C619.962 896.772 622.225 893.673 622.225 889.865C622.225 886.056 619.962 882.958 617.181 882.958C614.399 882.958 612.136 886.057 612.136 889.865C612.136 893.674 614.399 896.772 617.181 896.772Z" fill="#54F4FC"/>
<path d="M501.997 1066.72C501.974 1071.96 505.062 1076.25 508.896 1076.28C512.729 1076.31 515.856 1072.08 515.88 1066.83C515.903 1061.58 512.814 1057.3 508.981 1057.27C505.147 1057.24 502.02 1061.47 501.997 1066.72Z" fill="#54F4FC"/>
<path d="M508.927 1056.59C513.026 1056.59 516.359 1061.15 516.359 1066.76C516.359 1072.37 513.026 1076.94 508.927 1076.94C504.829 1076.94 501.495 1072.37 501.495 1066.76C501.495 1061.15 504.829 1056.59 508.927 1056.59ZM508.927 1075.59C512.483 1075.59 515.377 1071.63 515.377 1066.76C515.377 1061.89 512.483 1057.93 508.927 1057.93C505.371 1057.93 502.477 1061.89 502.477 1066.76C502.477 1071.63 505.371 1075.59 508.927 1075.59Z" fill="#54F4FC"/>
<path d="M485.464 1039.87C485.464 1036.98 487.173 1034.64 489.281 1034.64C491.389 1034.64 493.098 1036.98 493.098 1039.87C493.098 1042.75 491.389 1045.09 489.281 1045.09C487.173 1045.09 485.464 1042.75 485.464 1039.87Z" fill="#54F4FC"/>
<path d="M489.282 1033.97C491.657 1033.97 493.59 1036.62 493.59 1039.87C493.59 1043.12 491.657 1045.77 489.282 1045.77C486.907 1045.77 484.975 1043.12 484.975 1039.87C484.975 1036.62 486.907 1033.97 489.282 1033.97ZM489.282 1044.42C491.115 1044.42 492.608 1042.38 492.608 1039.87C492.608 1037.36 491.116 1035.32 489.282 1035.32C487.449 1035.32 485.957 1037.36 485.957 1039.87C485.957 1042.38 487.449 1044.42 489.282 1044.42Z" fill="#54F4FC"/>
<path d="M355.047 1039.86C355.047 1035.4 357.69 1031.78 360.949 1031.78C364.209 1031.78 366.852 1035.4 366.852 1039.86C366.852 1044.33 364.209 1047.95 360.949 1047.95C357.69 1047.95 355.047 1044.33 355.047 1039.86Z" fill="#54F4FC"/>
<path d="M360.951 1031.11C364.476 1031.11 367.344 1035.04 367.344 1039.86C367.344 1044.69 364.476 1048.62 360.951 1048.62C357.425 1048.62 354.557 1044.69 354.557 1039.86C354.557 1035.04 357.425 1031.11 360.951 1031.11ZM360.951 1047.27C363.934 1047.27 366.362 1043.95 366.362 1039.86C366.362 1035.78 363.934 1032.46 360.951 1032.46C357.967 1032.46 355.539 1035.78 355.539 1039.86C355.539 1043.95 357.967 1047.27 360.951 1047.27Z" fill="#54F4FC"/>
<path d="M336.229 1066.76C336.229 1062.92 338.502 1059.81 341.306 1059.81C344.11 1059.81 346.383 1062.92 346.383 1066.76C346.383 1070.6 344.11 1073.71 341.306 1073.71C338.502 1073.71 336.229 1070.6 336.229 1066.76Z" fill="#54F4FC"/>
<path d="M341.307 1059.14C344.377 1059.14 346.875 1062.56 346.875 1066.76C346.875 1070.96 344.377 1074.38 341.307 1074.38C338.237 1074.38 335.739 1070.96 335.739 1066.76C335.739 1062.56 338.237 1059.14 341.307 1059.14ZM341.307 1073.04C343.835 1073.04 345.893 1070.22 345.893 1066.76C345.893 1063.3 343.835 1060.48 341.307 1060.48C338.779 1060.48 336.721 1063.3 336.721 1066.76C336.721 1070.22 338.778 1073.04 341.307 1073.04Z" fill="#54F4FC"/>
<path d="M231.742 344.552C229.461 344.552 227.612 347.084 227.612 350.206C227.612 353.328 229.461 355.859 231.742 355.859C234.022 355.859 235.871 353.328 235.871 350.206C235.871 347.084 234.022 344.552 231.742 344.552Z" fill="#54F4FC"/>
<path d="M231.743 343.879C234.291 343.879 236.363 346.716 236.363 350.206C236.363 353.693 234.29 356.531 231.743 356.531C229.195 356.531 227.122 353.693 227.122 350.206C227.122 346.716 229.195 343.879 231.743 343.879ZM231.743 355.186C233.749 355.186 235.381 352.951 235.381 350.205C235.381 347.458 233.749 345.223 231.743 345.223C229.737 345.223 228.104 347.458 228.104 350.205C228.104 352.951 229.737 355.186 231.743 355.186Z" fill="#54F4FC"/>
<path d="M206.101 377.1C206.101 372.564 208.786 368.888 212.099 368.888C215.412 368.888 218.098 372.564 218.098 377.1C218.098 381.636 215.412 385.312 212.099 385.312C208.786 385.312 206.101 381.635 206.101 377.1Z" fill="#54F4FC"/>
<path d="M212.1 368.215C215.679 368.215 218.59 372.201 218.59 377.1C218.59 381.999 215.679 385.984 212.1 385.984C208.522 385.984 205.611 381.999 205.611 377.1C205.611 372.201 208.522 368.215 212.1 368.215ZM212.1 384.64C215.137 384.64 217.608 381.258 217.608 377.1C217.608 372.942 215.137 369.56 212.1 369.56C209.064 369.56 206.593 372.943 206.593 377.1C206.593 381.257 209.064 384.64 212.1 384.64Z" fill="#54F4FC"/>
<path d="M207.468 484.673C207.468 481.169 209.542 478.329 212.101 478.329C214.66 478.329 216.734 481.169 216.734 484.673C216.734 488.176 214.66 491.016 212.101 491.016C209.542 491.016 207.468 488.176 207.468 484.673Z" fill="#54F4FC"/>
<path d="M212.102 477.657C214.928 477.657 217.227 480.805 217.227 484.673C217.227 488.541 214.928 491.687 212.102 491.687C209.277 491.687 206.978 488.541 206.978 484.673C206.978 480.805 209.277 477.657 212.102 477.657ZM212.102 490.343C214.386 490.343 216.244 487.8 216.244 484.673C216.244 481.545 214.386 479.001 212.102 479.001C209.819 479.001 207.961 481.545 207.961 484.673C207.961 487.8 209.819 490.343 212.102 490.343Z" fill="#54F4FC"/>
<path d="M231.745 503.486C228.487 503.486 225.846 507.102 225.846 511.563C225.846 516.024 228.487 519.641 231.745 519.641C235.003 519.641 237.645 516.024 237.645 511.563C237.645 507.102 235.003 503.486 231.745 503.486Z" fill="#54F4FC"/>
<path d="M231.746 502.814C235.27 502.814 238.137 506.738 238.137 511.563C238.137 516.388 235.27 520.312 231.746 520.312C228.222 520.312 225.355 516.388 225.355 511.563C225.355 506.738 228.223 502.814 231.746 502.814ZM231.746 518.968C234.728 518.968 237.155 515.646 237.155 511.563C237.155 507.48 234.729 504.158 231.746 504.158C228.764 504.158 226.337 507.48 226.337 511.563C226.337 515.646 228.764 518.968 231.746 518.968Z" fill="#54F4FC"/>
<path d="M295.474 504.393C292.581 504.393 290.236 507.604 290.236 511.564C290.236 515.524 292.581 518.734 295.474 518.734C298.366 518.734 300.711 515.524 300.711 511.564C300.711 507.604 298.366 504.393 295.474 504.393Z" fill="#54F4FC"/>
<path d="M295.475 503.722C298.633 503.722 301.203 507.24 301.203 511.564C301.203 515.888 298.633 519.406 295.475 519.406C292.316 519.406 289.747 515.888 289.747 511.564C289.747 507.24 292.316 503.722 295.475 503.722ZM295.475 518.062C298.092 518.062 300.221 515.147 300.221 511.564C300.221 507.982 298.092 505.067 295.475 505.067C292.858 505.067 290.729 507.982 290.729 511.564C290.729 515.147 292.858 518.062 295.475 518.062Z" fill="#54F4FC"/>
<path d="M315.117 533.343C313.053 533.343 311.379 535.634 311.379 538.46C311.379 541.287 313.053 543.578 315.117 543.578C317.182 543.578 318.855 541.287 318.855 538.46C318.855 535.634 317.182 533.343 315.117 533.343Z" fill="#54F4FC"/>
<path d="M315.119 532.671C317.451 532.671 319.348 535.268 319.348 538.46C319.348 541.652 317.451 544.25 315.119 544.25C312.787 544.25 310.89 541.653 310.89 538.46C310.89 535.268 312.787 532.671 315.119 532.671ZM315.119 542.906C316.909 542.906 318.366 540.911 318.366 538.461C318.366 536.011 316.909 534.016 315.119 534.016C313.329 534.016 311.872 536.011 311.872 538.461C311.872 540.911 313.328 542.906 315.119 542.906Z" fill="#54F4FC"/>
<path d="M309.745 690.257C309.745 686.197 312.149 682.906 315.115 682.906C318.08 682.906 320.484 686.198 320.484 690.257C320.484 694.318 318.08 697.609 315.115 697.609C312.149 697.609 309.745 694.318 309.745 690.257Z" fill="#54F4FC"/>
<path d="M315.116 682.233C318.347 682.233 320.977 685.832 320.977 690.257C320.977 694.682 318.347 698.281 315.116 698.281C311.884 698.281 309.255 694.682 309.255 690.257C309.255 685.832 311.884 682.233 315.116 682.233ZM315.116 696.936C317.806 696.936 319.994 693.94 319.994 690.257C319.994 686.574 317.806 683.578 315.116 683.578C312.426 683.578 310.237 686.574 310.237 690.257C310.237 693.94 312.426 696.936 315.116 696.936Z" fill="#54F4FC"/>
<path d="M330.739 717.146C330.739 714.107 332.539 711.644 334.758 711.644C336.978 711.644 338.777 714.107 338.777 717.146C338.777 720.185 336.978 722.648 334.758 722.648C332.539 722.648 330.739 720.184 330.739 717.146Z" fill="#54F4FC"/>
<path d="M334.76 710.972C337.246 710.972 339.27 713.742 339.27 717.146C339.27 720.55 337.246 723.32 334.76 723.32C332.273 723.32 330.25 720.55 330.25 717.146C330.25 713.742 332.273 710.972 334.76 710.972ZM334.76 721.976C336.705 721.976 338.287 719.81 338.287 717.147C338.287 714.484 336.705 712.317 334.76 712.317C332.814 712.317 331.232 714.484 331.232 717.147C331.232 719.809 332.814 721.976 334.76 721.976Z" fill="#54F4FC"/>
<path d="M396.273 717.147C396.273 714.152 398.047 711.724 400.234 711.724C402.422 711.724 404.195 714.152 404.195 717.147C404.195 720.143 402.422 722.57 400.234 722.57C398.047 722.57 396.273 720.142 396.273 717.147Z" fill="#54F4FC"/>
<path d="M400.236 711.051C402.691 711.051 404.688 713.785 404.688 717.146C404.688 720.507 402.691 723.242 400.236 723.242C397.781 723.242 395.784 720.507 395.784 717.146C395.783 713.785 397.781 711.051 400.236 711.051ZM400.236 721.897C402.149 721.897 403.705 719.766 403.705 717.146C403.705 714.527 402.149 712.396 400.236 712.396C398.323 712.396 396.766 714.528 396.766 717.146C396.766 719.766 398.322 721.897 400.236 721.897Z" fill="#54F4FC"/>
<path d="M415.149 744.039C415.149 740.463 417.267 737.563 419.879 737.563C422.491 737.563 424.609 740.463 424.609 744.039C424.609 747.616 422.491 750.516 419.879 750.516C417.267 750.516 415.149 747.616 415.149 744.039Z" fill="#54F4FC"/>
<path d="M419.88 736.89C422.759 736.89 425.102 740.097 425.102 744.039C425.102 747.981 422.76 751.187 419.88 751.187C417.001 751.187 414.659 747.981 414.659 744.039C414.659 740.097 417.001 736.89 419.88 736.89ZM419.88 749.843C422.218 749.843 424.119 747.239 424.119 744.039C424.119 740.838 422.218 738.235 419.88 738.235C417.543 738.235 415.641 740.838 415.641 744.039C415.641 747.239 417.543 749.843 419.88 749.843Z" fill="#54F4FC"/>
<path d="M415.528 867.155C415.528 863.866 417.475 861.2 419.877 861.2C422.279 861.2 424.227 863.866 424.227 867.155C424.227 870.444 422.279 873.109 419.877 873.109C417.475 873.109 415.528 870.444 415.528 867.155Z" fill="#54F4FC"/>
<path d="M419.879 860.528C422.548 860.528 424.719 863.501 424.719 867.155C424.719 870.808 422.547 873.781 419.879 873.781C417.21 873.781 415.039 870.808 415.039 867.155C415.039 863.501 417.21 860.528 419.879 860.528ZM419.879 872.437C422.006 872.437 423.737 870.068 423.737 867.155C423.737 864.242 422.006 861.873 419.879 861.873C417.751 861.873 416.021 864.242 416.021 867.155C416.02 870.067 417.751 872.437 419.879 872.437Z" fill="#54F4FC"/>
<path d="M393.36 894.046C393.36 888.846 396.439 884.631 400.237 884.631C404.035 884.631 407.113 888.846 407.113 894.046C407.113 899.246 404.035 903.461 400.237 903.461C396.439 903.461 393.36 899.246 393.36 894.046Z" fill="#54F4FC"/>
<path d="M400.238 883.959C404.3 883.959 407.605 888.484 407.605 894.046C407.605 899.608 404.3 904.133 400.238 904.133C396.176 904.133 392.87 899.608 392.87 894.046C392.87 888.484 396.175 883.959 400.238 883.959ZM400.238 902.788C403.759 902.788 406.623 898.866 406.623 894.046C406.623 889.225 403.759 885.304 400.238 885.304C396.717 885.304 393.853 889.225 393.853 894.046C393.853 898.866 396.717 902.788 400.238 902.788Z" fill="#54F4FC"/>
<path d="M356.109 894.045C356.109 890.385 358.276 887.418 360.949 887.418C363.622 887.418 365.789 890.385 365.789 894.045C365.789 897.705 363.622 900.672 360.949 900.672C358.276 900.672 356.109 897.705 356.109 894.045Z" fill="#54F4FC"/>
<path d="M360.95 886.746C363.89 886.746 366.281 890.02 366.281 894.045C366.281 898.07 363.89 901.344 360.95 901.344C358.011 901.344 355.619 898.07 355.619 894.045C355.619 890.021 358.01 886.746 360.95 886.746ZM360.95 899.999C363.349 899.999 365.299 897.328 365.299 894.045C365.299 890.761 363.348 888.09 360.95 888.09C358.552 888.09 356.601 890.761 356.601 894.045C356.601 897.329 358.552 899.999 360.95 899.999Z" fill="#54F4FC"/>
<path d="M337.14 867.155C337.14 864.004 339.006 861.45 341.306 861.45C343.608 861.45 345.473 864.004 345.473 867.155C345.473 870.305 343.607 872.859 341.306 872.859C339.006 872.859 337.14 870.305 337.14 867.155Z" fill="#54F4FC"/>
<path d="M341.308 860.778C343.876 860.778 345.965 863.639 345.965 867.155C345.965 870.671 343.875 873.531 341.308 873.531C338.74 873.531 336.65 870.671 336.65 867.155C336.65 863.639 338.739 860.778 341.308 860.778ZM341.308 872.186C343.334 872.186 344.983 869.929 344.983 867.155C344.983 864.38 343.334 862.123 341.308 862.123C339.281 862.123 337.632 864.38 337.632 867.155C337.632 869.929 339.281 872.186 341.308 872.186Z" fill="#54F4FC"/>
<path d="M337.013 858.785C337.013 855.538 338.935 852.905 341.307 852.905C343.679 852.905 345.602 855.538 345.602 858.785C345.602 862.032 343.679 864.664 341.307 864.664C338.935 864.664 337.013 862.032 337.013 858.785Z" fill="#54F4FC"/>
<path d="M341.309 852.232C343.947 852.232 346.094 855.172 346.094 858.784C346.094 862.397 343.947 865.336 341.309 865.336C338.67 865.336 336.523 862.397 336.523 858.784C336.523 855.172 338.67 852.232 341.309 852.232ZM341.309 863.991C343.406 863.991 345.112 861.655 345.112 858.784C345.112 855.913 343.406 853.577 341.309 853.577C339.212 853.577 337.505 855.914 337.505 858.784C337.505 861.655 339.211 863.991 341.309 863.991Z" fill="#54F4FC"/>
<path d="M317.629 831.89C317.629 828.839 319.436 826.365 321.664 826.365C323.893 826.365 325.699 828.839 325.699 831.89C325.699 834.941 323.893 837.414 321.664 837.414C319.436 837.414 317.629 834.941 317.629 831.89Z" fill="#54F4FC"/>
<path d="M321.665 825.692C324.161 825.692 326.191 828.472 326.191 831.889C326.191 835.306 324.161 838.086 321.665 838.086C319.169 838.086 317.139 835.306 317.139 831.889C317.139 828.472 319.169 825.692 321.665 825.692ZM321.665 836.742C323.62 836.742 325.209 834.565 325.209 831.889C325.209 829.214 323.62 827.036 321.665 827.036C319.711 827.036 318.121 829.214 318.121 831.889C318.121 834.565 319.711 836.742 321.665 836.742Z" fill="#54F4FC"/>
<path d="M207.377 831.894C207.377 826.671 210.469 822.437 214.284 822.437C218.099 822.437 221.191 826.671 221.191 831.894C221.191 837.118 218.099 841.352 214.284 841.352C210.469 841.352 207.377 837.118 207.377 831.894Z" fill="#54F4FC"/>
<path d="M214.285 821.765C218.365 821.765 221.684 826.309 221.684 831.894C221.684 837.48 218.364 842.023 214.285 842.023C210.206 842.023 206.887 837.479 206.887 831.894C206.886 826.309 210.205 821.765 214.285 821.765ZM214.285 840.679C217.823 840.679 220.701 836.738 220.701 831.894C220.701 827.05 217.823 823.109 214.285 823.109C210.747 823.109 207.869 827.05 207.869 831.894C207.869 836.738 210.747 840.679 214.285 840.679Z" fill="#54F4FC"/>
<path d="M189.911 858.784C189.911 855.209 192.028 852.311 194.639 852.311C197.25 852.311 199.367 855.209 199.367 858.784C199.367 862.359 197.25 865.258 194.639 865.258C192.028 865.258 189.911 862.359 189.911 858.784Z" fill="#54F4FC"/>
<path d="M194.64 851.638C197.518 851.638 199.859 854.844 199.859 858.784C199.859 862.724 197.518 865.93 194.64 865.93C191.763 865.93 189.421 862.724 189.421 858.784C189.421 854.844 191.762 851.638 194.64 851.638ZM194.64 864.585C196.977 864.585 198.877 861.983 198.877 858.784C198.877 855.585 196.977 852.983 194.64 852.983C192.304 852.983 190.403 855.585 190.403 858.784C190.403 861.983 192.304 864.585 194.64 864.585Z" fill="#54F4FC"/>
<path d="M554.805 841.455C554.805 836.87 557.52 833.153 560.869 833.153C564.218 833.153 566.934 836.87 566.934 841.455C566.934 846.041 564.218 849.758 560.869 849.758C557.52 849.758 554.805 846.041 554.805 841.455Z" fill="#54F4FC"/>
<path d="M560.87 832.48C564.485 832.48 567.426 836.506 567.426 841.454C567.426 846.404 564.485 850.43 560.87 850.43C557.256 850.43 554.315 846.403 554.315 841.454C554.315 836.506 557.256 832.48 560.87 832.48ZM560.87 849.085C563.943 849.085 566.444 845.662 566.444 841.454C566.444 837.247 563.943 833.824 560.87 833.824C557.797 833.824 555.297 837.247 555.297 841.454C555.297 845.662 557.797 849.085 560.87 849.085Z" fill="#54F4FC"/>
<path d="M535.437 814.558C535.437 810.181 538.029 806.632 541.226 806.632C544.424 806.632 547.016 810.181 547.016 814.558C547.016 818.935 544.424 822.484 541.226 822.484C538.029 822.484 535.437 818.936 535.437 814.558Z" fill="#54F4FC"/>
<path d="M541.228 805.96C544.691 805.96 547.508 809.817 547.508 814.558C547.508 819.299 544.691 823.156 541.228 823.156C537.764 823.156 534.947 819.299 534.947 814.558C534.947 809.817 537.764 805.96 541.228 805.96ZM541.228 821.813C544.149 821.813 546.526 818.559 546.526 814.559C546.526 810.559 544.149 807.305 541.228 807.305C538.306 807.305 535.929 810.559 535.929 814.559C535.929 818.559 538.306 821.813 541.228 821.813Z" fill="#54F4FC"/>
<path d="M541.226 681.892C538.335 681.892 535.991 685.101 535.991 689.059C535.991 693.018 538.335 696.227 541.226 696.227C544.117 696.227 546.461 693.018 546.461 689.059C546.461 685.101 544.117 681.892 541.226 681.892Z" fill="#54F4FC"/>
<path d="M541.227 681.22C544.384 681.22 546.953 684.737 546.953 689.059C546.953 693.382 544.384 696.898 541.227 696.898C538.069 696.898 535.501 693.382 535.501 689.059C535.501 684.737 538.069 681.22 541.227 681.22ZM541.227 695.554C543.843 695.554 545.971 692.64 545.971 689.059C545.971 685.478 543.843 682.564 541.227 682.564C538.611 682.564 536.483 685.478 536.483 689.059C536.483 692.64 538.611 695.554 541.227 695.554Z" fill="#54F4FC"/>
<path d="M560.869 653.216C557.258 653.216 554.331 657.224 554.331 662.167C554.331 667.11 557.258 671.117 560.869 671.117C564.479 671.117 567.406 667.11 567.406 662.167C567.406 657.224 564.479 653.216 560.869 653.216Z" fill="#54F4FC"/>
<path d="M560.87 652.543C564.746 652.543 567.898 656.861 567.898 662.167C567.898 667.473 564.745 671.789 560.87 671.789C556.994 671.789 553.841 667.472 553.841 662.167C553.842 656.861 556.995 652.543 560.87 652.543ZM560.87 670.445C564.204 670.445 566.916 666.731 566.916 662.167C566.916 657.601 564.204 653.888 560.87 653.888C557.536 653.888 554.823 657.601 554.823 662.167C554.824 666.731 557.536 670.445 560.87 670.445Z" fill="#54F4FC"/>
<path d="M176.063 169.124C176.063 164.316 178.909 160.42 182.42 160.42C185.931 160.42 188.777 164.317 188.777 169.124C188.777 173.931 185.931 177.828 182.42 177.828C178.909 177.828 176.063 173.931 176.063 169.124Z" fill="#54F4FC"/>
<path d="M182.421 159.747C186.197 159.747 189.27 163.953 189.27 169.123C189.27 174.294 186.197 178.5 182.421 178.5C178.645 178.5 175.573 174.294 175.573 169.123C175.573 163.953 178.645 159.747 182.421 159.747ZM182.421 177.155C185.656 177.155 188.287 173.552 188.287 169.123C188.287 164.695 185.656 161.092 182.421 161.092C179.186 161.092 176.555 164.695 176.555 169.123C176.555 173.552 179.186 177.155 182.421 177.155Z" fill="#54F4FC"/>
<path d="M198.045 196.017C198.045 192.979 199.844 190.518 202.062 190.518C204.28 190.518 206.078 192.98 206.078 196.017C206.078 199.054 204.28 201.516 202.062 201.516C199.844 201.516 198.045 199.054 198.045 196.017Z" fill="#54F4FC"/>
<path d="M202.063 189.844C204.548 189.844 206.57 192.612 206.57 196.016C206.57 199.42 204.549 202.187 202.063 202.187C199.577 202.187 197.555 199.42 197.555 196.016C197.555 192.612 199.577 189.844 202.063 189.844ZM202.063 200.843C204.006 200.843 205.588 198.678 205.588 196.016C205.588 193.354 204.006 191.189 202.063 191.189C200.119 191.189 198.537 193.354 198.537 196.016C198.537 198.678 200.119 200.843 202.063 200.843Z" fill="#54F4FC"/>
<path d="M335.821 196.022C335.821 192.203 338.082 189.107 340.871 189.107C343.661 189.107 345.922 192.203 345.922 196.022C345.922 199.842 343.661 202.937 340.871 202.937C338.082 202.937 335.821 199.841 335.821 196.022Z" fill="#54F4FC"/>
<path d="M340.872 188.435C343.928 188.435 346.414 191.839 346.414 196.022C346.414 200.206 343.928 203.609 340.872 203.609C337.817 203.609 335.331 200.206 335.331 196.022C335.331 191.839 337.817 188.435 340.872 188.435ZM340.872 202.265C343.387 202.265 345.432 199.464 345.432 196.022C345.432 192.581 343.387 189.78 340.872 189.78C338.359 189.78 336.313 192.581 336.313 196.022C336.313 199.464 338.359 202.265 340.872 202.265Z" fill="#54F4FC"/>
<path d="M355.132 169.127C355.132 165.06 357.54 161.763 360.511 161.763C363.482 161.763 365.891 165.06 365.891 169.127C365.891 173.195 363.482 176.492 360.511 176.492C357.54 176.492 355.132 173.195 355.132 169.127Z" fill="#54F4FC"/>
<path d="M360.513 161.09C363.75 161.09 366.383 164.695 366.383 169.126C366.383 173.558 363.75 177.164 360.513 177.164C357.276 177.164 354.643 173.558 354.643 169.126C354.643 164.695 357.276 161.09 360.513 161.09ZM360.513 175.82C363.208 175.82 365.401 172.817 365.401 169.126C365.401 165.436 363.208 162.435 360.513 162.435C357.818 162.435 355.625 165.436 355.625 169.126C355.625 172.817 357.818 175.82 360.513 175.82Z" fill="#54F4FC"/>
<path d="M360.513 56.3668C356.974 56.3668 354.105 60.2949 354.105 65.1404C354.105 69.9859 356.974 73.9141 360.513 73.9141C364.053 73.9141 366.922 69.9859 366.922 65.1404C366.922 60.2949 364.053 56.3668 360.513 56.3668Z" fill="#54F4FC"/>
<path d="M360.514 55.6931C364.319 55.6931 367.414 59.9303 367.414 65.1395C367.414 70.3486 364.319 74.5859 360.514 74.5859C356.71 74.5859 353.614 70.3486 353.614 65.1395C353.614 59.9303 356.71 55.6931 360.514 55.6931ZM360.514 73.2416C363.777 73.2416 366.432 69.6066 366.432 65.1395C366.432 60.6724 363.777 57.0374 360.514 57.0374C357.251 57.0374 354.597 60.6723 354.597 65.1395C354.597 69.6073 357.251 73.2416 360.514 73.2416Z" fill="#54F4FC"/>
<path d="M373.465 38.2475C373.465 33.1896 376.46 29.0887 380.154 29.0887C383.849 29.0887 386.844 33.1889 386.844 38.2475C386.844 43.3061 383.849 47.4062 380.154 47.4062C376.46 47.4062 373.465 43.3055 373.465 38.2475Z" fill="#54F4FC"/>
<path d="M380.155 28.415C384.115 28.415 387.336 32.8257 387.336 38.2466C387.336 43.6675 384.115 48.0781 380.155 48.0781C376.196 48.0781 372.975 43.6675 372.975 38.2466C372.975 32.8257 376.196 28.415 380.155 28.415ZM380.155 46.7332C383.573 46.7332 386.354 42.9261 386.354 38.2466C386.354 33.5664 383.573 29.7599 380.155 29.7599C376.737 29.7599 373.957 33.5671 373.957 38.2466C373.957 42.9268 376.737 46.7332 380.155 46.7332Z" fill="#54F4FC"/>
<path d="M590.551 29.4317C586.993 29.4317 584.109 33.3803 584.109 38.251C584.109 43.1218 586.993 47.0703 590.551 47.0703C594.108 47.0703 596.992 43.1218 596.992 38.251C596.992 33.3803 594.108 29.4317 590.551 29.4317Z" fill="#54F4FC"/>
<path d="M590.552 28.7592C594.374 28.7592 597.484 33.0167 597.484 38.2508C597.484 43.4848 594.374 47.7422 590.552 47.7422C586.729 47.7422 583.619 43.4848 583.619 38.2508C583.619 33.0167 586.729 28.7592 590.552 28.7592ZM590.552 46.3972C593.833 46.3972 596.502 42.7427 596.502 38.2508C596.502 33.7588 593.833 30.1043 590.552 30.1043C587.271 30.1043 584.601 33.7588 584.601 38.2508C584.601 42.7427 587.271 46.3972 590.552 46.3972Z" fill="#54F4FC"/>
<path d="M605.405 65.1422C605.405 61.5186 607.55 58.5813 610.196 58.5813C612.843 58.5813 614.988 61.5186 614.988 65.1422C614.988 68.7658 612.843 71.7031 610.196 71.7031C607.55 71.7031 605.405 68.7657 605.405 65.1422Z" fill="#54F4FC"/>
<path d="M610.198 57.909C613.111 57.909 615.48 61.1534 615.48 65.142C615.48 69.1305 613.111 72.375 610.198 72.375C607.284 72.375 604.914 69.1305 604.914 65.142C604.914 61.1534 607.285 57.909 610.198 57.909ZM610.198 71.0293C612.569 71.0293 614.498 68.3871 614.498 65.1413C614.498 61.8954 612.569 59.2533 610.198 59.2533C607.826 59.2533 605.896 61.8954 605.896 65.1412C605.897 68.3877 607.826 71.0293 610.198 71.0293Z" fill="#54F4FC"/>
<path d="M605.518 121.316C605.518 117.78 607.612 114.914 610.195 114.914C612.777 114.914 614.871 117.781 614.871 121.316C614.871 124.853 612.778 127.719 610.195 127.719C607.612 127.719 605.518 124.852 605.518 121.316Z" fill="#54F4FC"/>
<path d="M610.196 114.242C613.045 114.242 615.363 117.416 615.363 121.316C615.363 125.217 613.045 128.391 610.196 128.391C607.346 128.391 605.028 125.217 605.028 121.316C605.028 117.416 607.347 114.242 610.196 114.242ZM610.196 127.046C612.503 127.046 614.381 124.475 614.381 121.316C614.381 118.156 612.504 115.586 610.196 115.586C607.888 115.586 606.01 118.156 606.01 121.316C606.01 124.475 607.888 127.046 610.196 127.046Z" fill="#54F4FC"/>
<path d="M625.289 148.213C625.289 144.775 627.325 141.988 629.836 141.988C632.347 141.988 634.383 144.775 634.383 148.213C634.383 151.651 632.347 154.437 629.836 154.437C627.325 154.437 625.289 151.651 625.289 148.213Z" fill="#54F4FC"/>
<path d="M629.837 141.316C632.615 141.316 634.875 144.409 634.875 148.212C634.875 152.016 632.615 155.109 629.837 155.109C627.059 155.109 624.799 152.015 624.799 148.212C624.799 144.409 627.059 141.316 629.837 141.316ZM629.837 153.765C632.073 153.765 633.893 151.274 633.893 148.212C633.893 145.151 632.073 142.66 629.837 142.66C627.6 142.66 625.781 145.151 625.781 148.212C625.781 151.274 627.601 153.765 629.837 153.765Z" fill="#54F4FC"/>
<path d="M677.849 717.15C677.849 713.517 680 710.572 682.653 710.572C685.306 710.572 687.457 713.517 687.457 717.15C687.457 720.782 685.306 723.727 682.653 723.727C680 723.727 677.849 720.782 677.849 717.15Z" fill="#54F4FC"/>
<path d="M682.654 709.899C685.574 709.899 687.949 713.151 687.949 717.149C687.949 721.147 685.574 724.398 682.654 724.398C679.735 724.398 677.359 721.147 677.359 717.149C677.359 713.151 679.735 709.899 682.654 709.899ZM682.654 723.054C685.032 723.054 686.967 720.405 686.967 717.149C686.967 713.893 685.032 711.244 682.654 711.244C680.276 711.244 678.341 713.893 678.341 717.149C678.341 720.404 680.276 723.054 682.654 723.054Z" fill="#54F4FC"/>
<path d="M657.663 690.253C657.663 686.208 660.058 682.929 663.013 682.929C665.968 682.929 668.363 686.208 668.363 690.253C668.363 694.299 665.968 697.578 663.013 697.578C660.058 697.578 657.663 694.299 657.663 690.253Z" fill="#54F4FC"/>
<path d="M663.014 682.255C666.236 682.255 668.855 685.843 668.855 690.253C668.855 694.662 666.235 698.25 663.014 698.25C659.793 698.25 657.173 694.663 657.173 690.253C657.173 685.843 659.794 682.255 663.014 682.255ZM663.014 696.905C665.693 696.905 667.873 693.921 667.873 690.253C667.873 686.585 665.693 683.6 663.014 683.6C660.335 683.6 658.155 686.585 658.155 690.253C658.156 693.921 660.335 696.905 663.014 696.905Z" fill="#54F4FC"/>
<path d="M659.324 528.897C659.324 526.109 660.975 523.848 663.012 523.848C665.048 523.848 666.699 526.109 666.699 528.897C666.699 531.685 665.048 533.945 663.012 533.945C660.975 533.945 659.324 531.685 659.324 528.897Z" fill="#54F4FC"/>
<path d="M663.013 523.176C665.316 523.176 667.191 525.741 667.191 528.896C667.191 532.05 665.317 534.617 663.013 534.617C660.709 534.617 658.835 532.05 658.835 528.896C658.835 525.741 660.709 523.176 663.013 523.176ZM663.013 533.273C664.775 533.273 666.209 531.31 666.209 528.897C666.209 526.484 664.775 524.521 663.013 524.521C661.25 524.521 659.817 526.484 659.817 528.897C659.817 531.31 661.25 533.273 663.013 533.273Z" fill="#54F4FC"/>
<path d="M534.862 401.605C534.862 397.125 537.516 393.492 540.789 393.492C544.062 393.492 546.715 397.124 546.715 401.605C546.715 406.086 544.062 409.719 540.789 409.719C537.516 409.719 534.862 406.086 534.862 401.605Z" fill="#54F4FC"/>
<path d="M540.79 392.819C544.328 392.819 547.207 396.76 547.207 401.604C547.207 406.448 544.328 410.391 540.79 410.391C537.252 410.391 534.373 406.448 534.373 401.604C534.372 396.76 537.251 392.819 540.79 392.819ZM540.79 409.046C543.787 409.046 546.225 405.708 546.225 401.604C546.225 397.502 543.787 394.164 540.79 394.164C537.793 394.164 535.355 397.502 535.355 401.604C535.355 405.708 537.793 409.046 540.79 409.046Z" fill="#54F4FC"/>
<path d="M516.964 374.709C516.964 371.546 518.838 368.981 521.148 368.981C523.459 368.981 525.332 371.546 525.332 374.709C525.332 377.873 523.459 380.437 521.148 380.437C518.837 380.437 516.964 377.873 516.964 374.709Z" fill="#54F4FC"/>
<path d="M521.149 368.308C523.727 368.308 525.824 371.178 525.824 374.708C525.824 378.237 523.727 381.109 521.149 381.109C518.572 381.109 516.474 378.237 516.474 374.708C516.474 371.178 518.571 368.308 521.149 368.308ZM521.149 379.765C523.185 379.765 524.842 377.496 524.842 374.709C524.842 371.92 523.185 369.653 521.149 369.653C519.113 369.653 517.456 371.92 517.456 374.709C517.456 377.496 519.113 379.765 521.149 379.765Z" fill="#54F4FC"/>
<path d="M53.2057 105.181C53.2057 99.8968 56.3348 95.6132 60.1946 95.6132C64.0545 95.6132 67.1836 99.8968 67.1836 105.181C67.1836 110.466 64.0545 114.75 60.1946 114.75C56.3348 114.75 53.2057 110.466 53.2057 105.181Z" fill="#54F4FC"/>
<path d="M60.1963 94.9414C64.3208 94.9414 67.6758 99.5349 67.6758 105.181C67.6758 110.827 64.3208 115.422 60.1963 115.422C56.0723 115.422 52.7163 110.827 52.7163 105.181C52.7163 99.5349 56.0723 94.9414 60.1963 94.9414ZM60.1963 114.078C63.7787 114.078 66.6936 110.088 66.6936 105.182C66.6936 100.277 63.7787 96.2864 60.1963 96.2864C56.613 96.2864 53.6984 100.277 53.6984 105.182C53.6984 110.087 56.6135 114.078 60.1963 114.078Z" fill="#54F4FC"/>
<path d="M287.676 105.184C287.676 100.609 290.385 96.9002 293.727 96.9002C297.069 96.9002 299.777 100.609 299.777 105.184C299.777 109.76 297.069 113.469 293.727 113.469C290.385 113.469 287.676 109.76 287.676 105.184Z" fill="#54F4FC"/>
<path d="M293.727 96.2278C297.335 96.2278 300.27 100.245 300.27 105.184C300.27 110.122 297.334 114.141 293.727 114.141C290.12 114.141 287.186 110.122 287.186 105.184C287.186 100.245 290.12 96.2278 293.727 96.2278ZM293.727 112.796C296.793 112.796 299.287 109.38 299.287 105.184C299.287 100.987 296.793 97.5727 293.727 97.5727C290.662 97.5727 288.168 100.987 288.168 105.184C288.168 109.38 290.662 112.796 293.727 112.796Z" fill="#54F4FC"/>
<path d="M308.764 78.2896C308.764 74.8079 310.826 71.9855 313.368 71.9855C315.911 71.9855 317.973 74.8079 317.973 78.2896C317.973 81.7714 315.911 84.5937 313.368 84.5937C310.826 84.5937 308.764 81.7714 308.764 78.2896Z" fill="#54F4FC"/>
<path d="M313.369 71.3131C316.179 71.3131 318.465 74.4426 318.465 78.2887C318.465 82.1361 316.179 85.2656 313.369 85.2656C310.559 85.2656 308.274 82.1368 308.274 78.2887C308.274 74.4426 310.559 71.3131 313.369 71.3131ZM313.369 83.9207C315.637 83.9207 317.483 81.394 317.483 78.2887C317.483 75.1847 315.637 72.6581 313.369 72.6581C311.101 72.6581 309.256 75.1847 309.256 78.2887C309.256 81.3947 311.101 83.9207 313.369 83.9207Z" fill="#54F4FC"/>
<path d="M88.5576 989.665C88.5576 986.024 90.7134 983.073 93.3726 983.073C96.0317 983.073 98.1875 986.024 98.1875 989.665C98.1875 993.306 96.0317 996.258 93.3726 996.258C90.7134 996.258 88.5576 993.306 88.5576 989.665Z" fill="#54F4FC"/>
<path d="M93.3727 982.4C96.299 982.4 98.6797 985.66 98.6797 989.666C98.6797 993.671 96.299 996.93 93.3727 996.93C90.4474 996.93 88.0666 993.671 88.0666 989.666C88.0666 985.66 90.4474 982.4 93.3727 982.4ZM93.3727 995.585C95.7568 995.585 97.6975 992.929 97.6975 989.665C97.6975 986.4 95.7573 983.745 93.3727 983.745C90.9885 983.745 89.0488 986.4 89.0488 989.665C89.0488 992.929 90.9885 995.585 93.3727 995.585Z" fill="#54F4FC"/>
<path d="M288.226 989.665C288.226 985.505 290.688 982.134 293.726 982.134C296.764 982.134 299.227 985.505 299.227 989.665C299.227 993.824 296.764 997.195 293.726 997.195C290.688 997.195 288.226 993.824 288.226 989.665Z" fill="#54F4FC"/>
<path d="M293.727 981.461C297.031 981.461 299.719 985.141 299.719 989.664C299.719 994.187 297.031 997.867 293.727 997.867C290.424 997.867 287.736 994.187 287.736 989.664C287.736 985.141 290.424 981.461 293.727 981.461ZM293.727 996.523C296.489 996.523 298.737 993.446 298.737 989.664C298.737 985.882 296.489 982.806 293.727 982.806C290.965 982.806 288.718 985.882 288.718 989.664C288.718 993.446 290.965 996.523 293.727 996.523Z" fill="#54F4FC"/>
<path d="M313.372 1010.34C310.863 1010.34 308.829 1013.12 308.829 1016.55C308.829 1019.99 310.863 1022.77 313.372 1022.77C315.88 1022.77 317.914 1019.99 317.914 1016.55C317.914 1013.12 315.88 1010.34 313.372 1010.34Z" fill="#54F4FC"/>
<path d="M313.373 1009.66C316.148 1009.66 318.406 1012.75 318.406 1016.55C318.406 1020.35 316.148 1023.45 313.373 1023.45C310.598 1023.45 308.34 1020.35 308.34 1016.55C308.34 1012.75 310.598 1009.66 313.373 1009.66ZM313.373 1022.1C315.607 1022.1 317.424 1019.61 317.424 1016.55C317.424 1013.5 315.607 1011.01 313.373 1011.01C311.139 1011.01 309.322 1013.5 309.322 1016.55C309.322 1019.61 311.139 1022.1 313.373 1022.1Z" fill="#54F4FC"/>
<path d="M131.645 789.537C131.645 785.472 134.052 782.176 137.022 782.176C139.991 782.176 142.398 785.471 142.398 789.537C142.398 793.603 139.991 796.898 137.022 796.898C134.052 796.898 131.645 793.603 131.645 789.537Z" fill="#54F4FC"/>
<path d="M137.023 781.504C140.258 781.504 142.891 785.108 142.891 789.537C142.891 793.967 140.258 797.57 137.023 797.57C133.788 797.57 131.156 793.966 131.156 789.537C131.156 785.108 133.788 781.504 137.023 781.504ZM137.023 796.226C139.717 796.226 141.908 793.226 141.908 789.537C141.908 785.849 139.717 782.848 137.023 782.848C134.33 782.848 132.138 785.849 132.138 789.537C132.138 793.226 134.329 796.226 137.023 796.226Z" fill="#54F4FC"/>
<path d="M286.741 780.843C283.235 780.843 280.393 784.735 280.393 789.535C280.393 794.335 283.235 798.227 286.741 798.227C290.248 798.227 293.09 794.335 293.09 789.535C293.09 784.735 290.248 780.843 286.741 780.843Z" fill="#54F4FC"/>
<path d="M286.742 780.171C290.514 780.171 293.582 784.372 293.582 789.535C293.582 794.698 290.514 798.898 286.742 798.898C282.971 798.898 279.903 794.697 279.903 789.535C279.903 784.372 282.971 780.171 286.742 780.171ZM286.742 797.554C289.972 797.554 292.6 793.957 292.6 789.535C292.6 785.113 289.972 781.515 286.742 781.515C283.513 781.515 280.885 785.113 280.885 789.535C280.885 793.957 283.513 797.554 286.742 797.554Z" fill="#54F4FC"/>
<path d="M306.386 810.596C304.033 810.596 302.124 813.208 302.124 816.431C302.124 819.653 304.033 822.266 306.386 822.266C308.74 822.266 310.648 819.653 310.648 816.431C310.648 813.208 308.74 810.596 306.386 810.596Z" fill="#54F4FC"/>
<path d="M306.388 809.923C309.008 809.923 311.141 812.842 311.141 816.43C311.141 820.018 309.008 822.937 306.388 822.937C303.767 822.937 301.634 820.018 301.634 816.43C301.635 812.842 303.767 809.923 306.388 809.923ZM306.388 821.593C308.467 821.593 310.158 819.278 310.158 816.43C310.158 813.583 308.467 811.268 306.388 811.268C304.308 811.268 302.617 813.583 302.617 816.43C302.617 819.277 304.308 821.593 306.388 821.593Z" fill="#54F4FC"/>
<path d="M306.387 910.419C303.591 910.419 301.324 913.522 301.324 917.35C301.324 921.178 303.591 924.281 306.387 924.281C309.183 924.281 311.449 921.178 311.449 917.35C311.449 913.522 309.183 910.419 306.387 910.419Z" fill="#54F4FC"/>
<path d="M306.388 909.746C309.45 909.746 311.941 913.158 311.941 917.35C311.941 921.543 309.45 924.953 306.388 924.953C303.326 924.953 300.835 921.543 300.835 917.35C300.835 913.158 303.326 909.746 306.388 909.746ZM306.388 923.609C308.909 923.609 310.959 920.801 310.959 917.35C310.959 913.899 308.909 911.091 306.388 911.091C303.867 911.091 301.817 913.899 301.817 917.35C301.817 920.801 303.868 923.609 306.388 923.609Z" fill="#54F4FC"/>
<path d="M326.029 937.553C323.331 937.553 321.144 940.547 321.144 944.241C321.144 947.935 323.331 950.93 326.029 950.93C328.727 950.93 330.914 947.935 330.914 944.241C330.914 940.547 328.727 937.553 326.029 937.553Z" fill="#54F4FC"/>
<path d="M326.03 936.881C328.995 936.881 331.406 940.182 331.406 944.242C331.406 948.3 328.995 951.602 326.03 951.602C323.065 951.602 320.654 948.299 320.654 944.242C320.654 940.182 323.065 936.881 326.03 936.881ZM326.03 950.257C328.453 950.257 330.424 947.559 330.424 944.242C330.424 940.924 328.452 938.225 326.03 938.225C323.608 938.225 321.636 940.924 321.636 944.242C321.636 947.559 323.608 950.257 326.03 950.257Z" fill="#54F4FC"/>
<path d="M408.966 937.952C406.428 937.952 404.37 940.77 404.37 944.246C404.37 947.721 406.428 950.539 408.966 950.539C411.505 950.539 413.562 947.721 413.562 944.246C413.562 940.77 411.505 937.952 408.966 937.952Z" fill="#54F4FC"/>
<path d="M408.967 937.28C411.773 937.28 414.055 940.405 414.055 944.245C414.055 948.086 411.772 951.211 408.967 951.211C406.162 951.211 403.88 948.086 403.88 944.245C403.88 940.405 406.162 937.28 408.967 937.28ZM408.967 949.867C411.231 949.867 413.073 947.345 413.073 944.245C413.073 941.145 411.231 938.624 408.967 938.624C406.703 938.624 404.862 941.145 404.862 944.245C404.862 947.345 406.703 949.867 408.967 949.867Z" fill="#54F4FC"/>
<path d="M421.265 971.129C421.265 966.006 424.299 961.853 428.041 961.853C431.783 961.853 434.816 966.006 434.816 971.129C434.816 976.252 431.783 980.406 428.041 980.406C424.299 980.406 421.265 976.253 421.265 971.129Z" fill="#54F4FC"/>
<path d="M428.042 961.18C432.048 961.18 435.309 965.643 435.309 971.129C435.309 976.614 432.048 981.078 428.042 981.078C424.035 981.078 420.775 976.615 420.775 971.129C420.775 965.644 424.035 961.18 428.042 961.18ZM428.042 979.733C431.507 979.733 434.326 975.873 434.326 971.129C434.326 966.385 431.507 962.525 428.042 962.525C424.576 962.525 421.757 966.385 421.757 971.129C421.757 975.873 424.576 979.733 428.042 979.733Z" fill="#54F4FC"/>
<path d="M39.2423 701.98C36.4982 701.98 34.2736 705.026 34.2736 708.783C34.2736 712.54 36.4982 715.586 39.2423 715.586C41.9864 715.586 44.2109 712.54 44.2109 708.783C44.2109 705.026 41.9864 701.98 39.2423 701.98Z" fill="#54F4FC"/>
<path d="M39.2429 701.308C42.2537 701.308 44.7031 704.661 44.7031 708.783C44.7031 712.904 42.2537 716.258 39.2429 716.258C36.2321 716.258 33.7836 712.904 33.7836 708.783C33.7831 704.66 36.2321 701.308 39.2429 701.308ZM39.2429 714.913C41.7115 714.913 43.721 712.162 43.721 708.783C43.721 705.403 41.7115 702.652 39.2429 702.652C36.7743 702.652 34.7658 705.403 34.7658 708.783C34.7653 712.162 36.7738 714.913 39.2429 714.913Z" fill="#54F4FC"/>
<path d="M205.141 708.782C205.141 705.172 207.279 702.245 209.916 702.245C212.553 702.245 214.691 705.172 214.691 708.782C214.691 712.392 212.554 715.32 209.916 715.32C207.279 715.32 205.141 712.393 205.141 708.782Z" fill="#54F4FC"/>
<path d="M209.917 701.573C212.821 701.573 215.184 704.808 215.184 708.783C215.184 712.758 212.821 715.992 209.917 715.992C207.014 715.992 204.651 712.758 204.651 708.783C204.651 704.808 207.014 701.573 209.917 701.573ZM209.917 714.649C212.28 714.649 214.201 712.018 214.201 708.783C214.201 705.549 212.28 702.918 209.917 702.918C207.555 702.918 205.633 705.549 205.633 708.783C205.633 712.018 207.555 714.649 209.917 714.649Z" fill="#54F4FC"/>
<path d="M229.562 728.512C226.673 728.512 224.331 731.719 224.331 735.674C224.331 739.629 226.673 742.836 229.562 742.836C232.451 742.836 234.793 739.629 234.793 735.674C234.793 731.719 232.451 728.512 229.562 728.512Z" fill="#54F4FC"/>
<path d="M229.563 727.84C232.718 727.84 235.285 731.355 235.285 735.674C235.285 739.993 232.718 743.508 229.563 743.508C226.409 743.508 223.841 739.993 223.841 735.674C223.841 731.355 226.408 727.84 229.563 727.84ZM229.563 742.164C232.177 742.164 234.303 739.252 234.303 735.674C234.303 732.095 232.177 729.184 229.563 729.184C226.95 729.184 224.823 732.095 224.823 735.674C224.823 739.252 226.95 742.164 229.563 742.164Z" fill="#54F4FC"/>
<path d="M32.2941 501.999C32.2941 496.744 35.406 492.484 39.2447 492.484C43.0834 492.484 46.1953 496.744 46.1953 501.999C46.1953 507.255 43.0834 511.516 39.2447 511.516C35.4055 511.515 32.2941 507.255 32.2941 501.999Z" fill="#54F4FC"/>
<path d="M39.2458 491.811C43.3487 491.811 46.6875 496.382 46.6875 501.999C46.6875 507.617 43.3487 512.187 39.2458 512.187C35.1424 512.187 31.8051 507.616 31.8051 501.999C31.8046 496.382 35.1424 491.811 39.2458 491.811ZM39.2458 510.843C42.808 510.843 45.7054 506.876 45.7054 501.999C45.7054 497.122 42.808 493.155 39.2458 493.155C35.6845 493.155 32.7872 497.122 32.7872 501.999C32.7872 506.876 35.6845 510.843 39.2458 510.843Z" fill="#54F4FC"/>
<path d="M123.82 502.008C123.82 498.215 126.066 495.14 128.836 495.14C131.606 495.14 133.852 498.215 133.852 502.008C133.852 505.801 131.606 508.875 128.836 508.875C126.066 508.875 123.82 505.8 123.82 502.008Z" fill="#54F4FC"/>
<path d="M128.836 494.466C131.873 494.466 134.344 497.849 134.344 502.007C134.344 506.164 131.873 509.547 128.836 509.547C125.8 509.547 123.329 506.164 123.329 502.007C123.329 497.849 125.8 494.466 128.836 494.466ZM128.836 508.202C131.332 508.202 133.362 505.423 133.362 502.007C133.362 498.59 131.332 495.811 128.836 495.811C126.341 495.811 124.311 498.59 124.311 502.007C124.311 505.423 126.341 508.202 128.836 508.202Z" fill="#54F4FC"/>
<path d="M148.48 466.488C145 466.488 142.178 470.351 142.178 475.115C142.178 479.88 145 483.742 148.48 483.742C151.96 483.742 154.781 479.88 154.781 475.115C154.781 470.351 151.96 466.488 148.48 466.488Z" fill="#54F4FC"/>
<path d="M148.481 465.814C152.226 465.814 155.273 469.986 155.273 475.114C155.273 480.242 152.226 484.414 148.481 484.414C144.736 484.414 141.688 480.242 141.688 475.114C141.688 469.986 144.736 465.814 148.481 465.814ZM148.481 483.068C151.685 483.068 154.291 479.499 154.291 475.114C154.291 470.728 151.685 467.159 148.481 467.159C145.278 467.159 142.671 470.728 142.671 475.114C142.671 479.499 145.277 483.068 148.481 483.068Z" fill="#54F4FC"/>
<path d="M0.492084 600.011C0.492084 597.113 2.20793 594.764 4.32396 594.764C6.44047 594.764 8.15625 597.113 8.15625 600.011C8.15625 602.909 6.44047 605.258 4.32396 605.258C2.20793 605.257 0.492084 602.909 0.492084 600.011Z" fill="#54F4FC"/>
<path d="M4.32555 594.092C6.70872 594.092 8.64844 596.747 8.64844 600.011C8.64844 603.275 6.70921 605.93 4.32555 605.93C1.94092 605.93 0.00165163 603.275 0.00165163 600.011C0.00165163 596.747 1.94141 594.092 4.32555 594.092ZM4.32555 604.585C6.16805 604.585 7.6663 602.533 7.6663 600.011C7.6663 597.489 6.16805 595.437 4.32555 595.437C2.48306 595.437 0.983793 597.489 0.983793 600.011C0.983793 602.533 2.48306 604.585 4.32555 604.585Z" fill="#54F4FC"/>
<path d="M82.4592 593.843C79.9709 593.843 77.9537 596.605 77.9537 600.011C77.9537 603.418 79.9709 606.18 82.4592 606.18C84.9476 606.18 86.9648 603.418 86.9648 600.011C86.9648 596.605 84.9476 593.843 82.4592 593.843Z" fill="#54F4FC"/>
<path d="M82.4599 593.171C85.2153 593.171 87.457 596.24 87.457 600.011C87.457 603.783 85.2153 606.852 82.4599 606.852C79.7055 606.852 77.4638 603.783 77.4638 600.011C77.4638 596.239 79.705 593.171 82.4599 593.171ZM82.4599 605.507C84.6736 605.507 86.4749 603.041 86.4749 600.011C86.4749 596.98 84.6736 594.515 82.4599 594.515C80.2461 594.515 78.4459 596.98 78.4459 600.011C78.4459 603.041 80.2461 605.507 82.4599 605.507Z" fill="#54F4FC"/>
<path d="M96.2716 573.118C96.2716 568.709 98.8822 565.135 102.103 565.135C105.323 565.135 107.934 568.709 107.934 573.118C107.934 577.528 105.323 581.102 102.103 581.102C98.8822 581.102 96.2716 577.528 96.2716 573.118Z" fill="#54F4FC"/>
<path d="M102.103 564.463C105.59 564.463 108.426 568.346 108.426 573.118C108.426 577.891 105.59 581.773 102.103 581.773C98.6176 581.773 95.7817 577.89 95.7817 573.118C95.7812 568.346 98.6176 564.463 102.103 564.463ZM102.103 580.429C105.048 580.429 107.444 577.15 107.444 573.118C107.444 569.087 105.048 565.807 102.103 565.807C99.1588 565.807 96.7638 569.087 96.7638 573.118C96.7633 577.15 99.1583 580.429 102.103 580.429Z" fill="#54F4FC"/>
<path d="M95.8005 421.326C95.8005 416.561 98.6217 412.699 102.101 412.699C105.582 412.699 108.402 416.561 108.402 421.326C108.402 426.091 105.581 429.953 102.101 429.953C98.6217 429.953 95.8005 426.091 95.8005 421.326Z" fill="#54F4FC"/>
<path d="M102.102 412.025C105.847 412.025 108.895 416.197 108.895 421.325C108.895 426.453 105.847 430.625 102.102 430.625C98.3576 430.625 95.3105 426.453 95.3105 421.325C95.3101 416.197 98.3576 412.025 102.102 412.025ZM102.102 429.279C105.305 429.279 107.912 425.71 107.912 421.324C107.912 416.939 105.305 413.37 102.102 413.37C98.8983 413.37 96.2927 416.939 96.2927 421.324C96.2922 425.71 98.8983 429.279 102.102 429.279Z" fill="#54F4FC"/>
<path d="M121.744 386.735C118.638 386.735 116.121 390.182 116.121 394.434C116.121 398.686 118.638 402.133 121.744 402.133C124.85 402.133 127.367 398.686 127.367 394.434C127.367 390.182 124.85 386.735 121.744 386.735Z" fill="#54F4FC"/>
<path d="M121.745 386.063C125.116 386.063 127.859 389.818 127.859 394.434C127.859 399.049 125.116 402.805 121.745 402.805C118.374 402.805 115.631 399.049 115.631 394.434C115.63 389.819 118.373 386.063 121.745 386.063ZM121.745 401.461C124.576 401.461 126.877 398.309 126.877 394.434C126.877 390.559 124.576 387.408 121.745 387.408C118.915 387.408 116.613 390.559 116.613 394.434C116.612 398.309 118.915 401.461 121.745 401.461Z" fill="#54F4FC"/>
<path d="M174.997 389.363C172.952 389.363 171.295 391.632 171.295 394.431C171.295 397.231 172.952 399.5 174.997 399.5C177.042 399.5 178.699 397.231 178.699 394.431C178.699 391.632 177.042 389.363 174.997 389.363Z" fill="#54F4FC"/>
<path d="M174.998 388.69C177.31 388.69 179.191 391.265 179.191 394.431C179.191 397.597 177.31 400.172 174.998 400.172C172.686 400.172 170.805 397.597 170.805 394.431C170.805 391.265 172.686 388.69 174.998 388.69ZM174.998 398.828C176.769 398.828 178.209 396.855 178.209 394.431C178.209 392.007 176.769 390.035 174.998 390.035C173.228 390.035 171.787 392.007 171.787 394.431C171.787 396.855 173.227 398.828 174.998 398.828Z" fill="#54F4FC"/>
<path d="M189.852 367.54C189.852 363.921 191.995 360.987 194.639 360.987C197.283 360.987 199.426 363.921 199.426 367.54C199.426 371.16 197.283 374.094 194.639 374.094C191.995 374.094 189.852 371.159 189.852 367.54Z" fill="#54F4FC"/>
<path d="M194.64 360.313C197.55 360.313 199.918 363.555 199.918 367.539C199.918 371.523 197.55 374.766 194.64 374.766C191.729 374.766 189.362 371.523 189.362 367.539C189.362 363.555 191.729 360.313 194.64 360.313ZM194.64 373.421C197.008 373.421 198.936 370.783 198.936 367.54C198.936 364.296 197.008 361.659 194.64 361.659C192.271 361.659 190.344 364.297 190.344 367.54C190.344 370.783 192.271 373.421 194.64 373.421Z" fill="#54F4FC"/>
<path d="M189.526 280.285C189.526 276.417 191.816 273.281 194.642 273.281C197.467 273.281 199.758 276.417 199.758 280.285C199.758 284.154 197.467 287.289 194.642 287.289C191.816 287.289 189.526 284.154 189.526 280.285Z" fill="#54F4FC"/>
<path d="M194.643 272.608C197.735 272.608 200.25 276.052 200.25 280.284C200.25 284.517 197.735 287.961 194.643 287.961C191.551 287.961 189.036 284.517 189.036 280.284C189.036 276.052 191.551 272.608 194.643 272.608ZM194.643 286.616C197.193 286.616 199.268 283.776 199.268 280.284C199.268 276.793 197.193 273.953 194.643 273.953C192.093 273.953 190.018 276.793 190.018 280.284C190.018 283.776 192.092 286.616 194.643 286.616Z" fill="#54F4FC"/>
<path d="M174.997 247.7C172.702 247.7 170.841 250.247 170.841 253.389C170.841 256.531 172.702 259.078 174.997 259.078C177.292 259.078 179.152 256.531 179.152 253.389C179.152 250.247 177.292 247.7 174.997 247.7Z" fill="#54F4FC"/>
<path d="M174.998 247.027C177.56 247.027 179.645 249.88 179.645 253.389C179.645 256.896 177.56 259.75 174.998 259.75C172.436 259.75 170.352 256.897 170.352 253.389C170.352 249.88 172.436 247.027 174.998 247.027ZM174.998 258.405C177.018 258.405 178.662 256.155 178.662 253.389C178.662 250.622 177.018 248.371 174.998 248.371C172.978 248.371 171.334 250.622 171.334 253.389C171.334 256.155 172.978 258.405 174.998 258.405Z" fill="#54F4FC"/>
<path d="M128.727 247.522C126.358 247.522 124.438 250.151 124.438 253.394C124.438 256.637 126.358 259.266 128.727 259.266C131.095 259.266 133.016 256.637 133.016 253.394C133.016 250.151 131.095 247.522 128.727 247.522Z" fill="#54F4FC"/>
<path d="M128.728 246.848C131.363 246.848 133.508 249.784 133.508 253.393C133.508 257.002 131.363 259.937 128.728 259.937C126.092 259.937 123.948 257.002 123.948 253.393C123.948 249.784 126.092 246.848 128.728 246.848ZM128.728 258.593C130.823 258.593 132.526 256.26 132.526 253.393C132.526 250.525 130.822 248.193 128.728 248.193C126.633 248.193 124.93 250.525 124.93 253.393C124.93 256.26 126.633 258.593 128.728 258.593Z" fill="#54F4FC"/>
<path d="M102.807 226.501C102.807 221.756 105.617 217.908 109.083 217.908C112.549 217.908 115.359 221.756 115.359 226.501C115.359 231.246 112.549 235.094 109.083 235.094C105.617 235.094 102.807 231.246 102.807 226.501Z" fill="#54F4FC"/>
<path d="M109.084 217.234C112.816 217.234 115.852 221.39 115.852 226.5C115.852 231.61 112.816 235.766 109.084 235.766C105.353 235.766 102.318 231.61 102.318 226.5C102.318 221.391 105.353 217.234 109.084 217.234ZM109.084 234.421C112.274 234.421 114.869 230.868 114.869 226.5C114.869 222.132 112.274 218.579 109.084 218.579C105.894 218.579 103.3 222.133 103.3 226.5C103.3 230.867 105.894 234.421 109.084 234.421Z" fill="#54F4FC"/>
</g>
</g>
<defs>
<clipPath id="clip0_203_29077">
<rect width="678.008" height="1142.66" fill="white"/>
</clipPath>
</defs>
</svg>
