<svg width="561" height="1143" viewBox="0 0 561 1143" fill="none" xmlns="http://www.w3.org/2000/svg">
<g clip-path="url(#clip0_203_29818)">
<g opacity="0.1">
<path d="M345.806 483.927L193.028 483.927C182.739 483.927 174.367 472.466 174.367 458.378L174.367 385.468C174.367 369.897 165.115 357.23 153.743 357.23L65.5678 357.23C55.2784 357.23 46.9072 345.769 46.9072 331.682L46.9072 163.152C46.9072 147.581 37.6549 134.914 26.2822 134.914L-175.82 134.914L-175.82 137.603L26.2822 137.603C36.5716 137.603 44.9429 149.064 44.9429 163.152L44.9429 331.682C44.9429 347.253 54.1951 359.92 65.5678 359.92L153.743 359.92C164.032 359.92 172.403 371.381 172.403 385.469L172.403 458.379C172.403 473.949 181.655 486.617 193.028 486.617L345.806 486.617C356.095 486.617 364.466 498.077 364.466 512.165L364.466 543.092C364.466 557.18 356.095 568.641 345.806 568.641L-175.82 568.64L-175.82 571.329L345.806 571.329C357.178 571.329 366.431 558.662 366.431 543.091L366.431 512.164C366.431 496.594 357.178 483.927 345.806 483.927Z" fill="#176DB3"/>
<path d="M61.2033 216.19L-70.6222 216.19C-80.9116 216.19 -89.2829 204.729 -89.2829 190.642L-89.2829 0L-91.2472 0L-91.2471 190.642C-91.2471 206.212 -81.9949 218.879 -70.6222 218.879L61.2028 218.879C71.4922 218.879 79.8635 230.34 79.8635 244.428L79.8635 881.496C79.8635 895.583 71.4922 907.044 61.2028 907.044L-175.82 907.044L-175.82 909.733L61.2033 909.733C72.576 909.733 81.8282 897.065 81.8282 881.496L81.8282 244.428C81.8282 228.857 72.576 216.19 61.2033 216.19Z" fill="#176DB3"/>
<path d="M291.133 0L291.133 709.38C291.133 723.468 282.762 734.929 272.473 734.929L165.092 734.929C153.719 734.929 144.467 747.597 144.467 763.167L144.467 1029.71C144.467 1043.79 136.095 1055.25 125.806 1055.25L-74.9873 1055.25C-85.2767 1055.25 -93.648 1043.79 -93.648 1029.71L-93.648 732.09C-93.648 716.52 -102.9 703.852 -114.273 703.852L-175.82 703.852L-175.82 706.541L-114.273 706.541C-103.984 706.541 -95.6123 718.003 -95.6123 732.09L-95.6123 1029.71C-95.6123 1045.28 -86.36 1057.94 -74.9873 1057.94L125.806 1057.94C137.179 1057.94 146.431 1045.28 146.431 1029.71L146.431 763.167C146.431 749.079 154.802 737.618 165.092 737.618L272.473 737.618C283.845 737.618 293.098 724.95 293.098 709.38L293.098 0L291.133 0Z" fill="#176DB3"/>
<path d="M-42.3581 406.98L-42.3581 649.616C-42.3581 665.186 -33.1059 677.854 -21.7332 677.854L206.124 677.854C216.413 677.854 224.784 689.314 224.784 703.402L224.784 828.903C224.784 844.473 234.037 857.141 245.409 857.141L302.155 857.141C312.445 857.141 320.816 868.601 320.816 882.689L320.816 1142.65L322.78 1142.65L322.78 882.688C322.78 867.119 313.528 854.451 302.155 854.451L245.409 854.451C235.12 854.451 226.749 842.99 226.749 828.902L226.749 703.401C226.749 687.832 217.496 675.164 206.124 675.164L-21.7332 675.164C-32.0226 675.164 -40.3938 663.703 -40.3938 649.615L-40.3938 406.98C-40.3938 391.41 -49.6461 378.742 -61.0188 378.742L-175.82 378.742L-175.82 381.431L-61.0188 381.431C-50.7294 381.431 -42.3581 392.892 -42.3581 406.98Z" fill="#176DB3"/>
<path d="M217.798 0L217.798 75.8987C217.798 89.9863 209.427 101.447 199.138 101.447L70.8047 101.447C60.5153 101.447 52.144 89.9863 52.144 75.8987L52.144 0L50.1797 0L50.1797 75.8987C50.1797 91.469 59.4319 104.136 70.8047 104.136L199.138 104.136C210.51 104.136 219.763 91.469 219.763 75.8987L219.763 0L217.798 0Z" fill="#176DB3"/>
<path d="M364.466 0L364.466 283.872C364.466 297.959 356.095 309.42 345.806 309.42L238.425 309.42C228.135 309.42 219.764 297.959 219.764 283.872L219.764 275.505C219.764 259.934 210.512 247.267 199.139 247.267L159.853 247.267C148.481 247.267 139.228 259.934 139.228 275.505L139.228 398.615C139.228 414.186 148.481 426.853 159.853 426.853L225.33 426.853C235.619 426.853 243.99 438.314 243.99 452.402L243.99 604.198C243.99 619.767 253.243 632.435 264.615 632.435L328.345 632.435C338.634 632.435 347.006 643.896 347.006 657.984L347.006 765.556C347.006 779.644 338.634 791.105 328.345 791.105L-175.82 791.105L-175.82 793.794L328.346 793.794C339.718 793.794 348.971 781.126 348.971 765.556L348.971 657.984C348.971 642.414 339.718 629.746 328.346 629.746L264.615 629.746C254.326 629.746 245.955 618.285 245.955 604.198L245.955 452.402C245.955 436.831 236.702 424.164 225.33 424.164L159.853 424.164C149.564 424.164 141.193 412.703 141.193 398.615L141.193 275.505C141.193 261.417 149.564 249.956 159.853 249.956L199.139 249.956C209.428 249.956 217.8 261.417 217.8 275.505L217.8 283.872C217.8 299.442 227.052 312.109 238.425 312.109L345.806 312.109C357.178 312.109 366.431 299.442 366.431 283.872L366.431 0L364.466 0Z" fill="#176DB3"/>
<path d="M-0.780681 299.859L-175.82 299.859L-175.82 302.549L-0.780681 302.549C9.50872 302.549 17.88 314.01 17.88 328.097L17.88 453.598C17.88 467.686 9.50872 479.146 -0.780676 479.146L-175.82 479.146L-175.82 481.836L-0.780675 481.836C10.592 481.836 19.8443 469.168 19.8443 453.598L19.8443 328.097C19.8443 312.527 10.592 299.859 -0.780681 299.859Z" fill="#176DB3"/>
<path d="M-51.0884 1021.34L-51.0884 1077.51C-51.0884 1093.08 -41.8361 1105.75 -30.4634 1105.75L179.933 1105.75C191.306 1105.75 200.558 1093.08 200.558 1077.51L200.558 973.527C200.558 959.441 208.93 947.979 219.219 947.979L358.028 947.979C368.317 947.979 376.689 959.441 376.689 973.528L376.689 1142.65L378.653 1142.65L378.653 973.527C378.653 957.957 369.401 945.289 358.028 945.289L219.219 945.289C207.846 945.289 198.594 957.957 198.594 973.527L198.594 1077.51C198.594 1091.6 190.223 1103.06 179.933 1103.06L-30.4634 1103.06C-40.7528 1103.06 -49.1241 1091.6 -49.1241 1077.51L-49.1241 1021.34C-49.1241 1005.77 -58.3764 993.098 -69.7491 993.098L-175.82 993.098L-175.82 995.788L-69.7491 995.788C-59.4597 995.788 -51.0884 1007.25 -51.0884 1021.34Z" fill="#176DB3"/>
<path d="M37.9589 767.949L37.9589 1142.66L39.9232 1142.66L39.9232 767.949C39.9232 752.379 30.6709 739.711 19.2982 739.711L-175.82 739.711L-175.82 742.4L19.2982 742.4C29.5881 742.4 37.9589 753.861 37.9589 767.949Z" fill="#176DB3"/>
<path d="M247.703 1142.66L247.703 1064.37C247.703 1050.28 256.074 1038.82 266.363 1038.82L499.894 1038.82L499.894 1036.13L266.363 1036.13C254.991 1036.13 245.738 1048.8 245.738 1064.37L245.738 1142.66L247.703 1142.66Z" fill="#176DB3"/>
<path d="M247.703 126.098L247.703 0L245.738 0L245.738 126.098C245.738 141.669 254.991 154.336 266.363 154.336L466.72 154.336L466.72 151.647L266.363 151.647C256.074 151.647 247.703 140.186 247.703 126.098Z" fill="#176DB3"/>
<path d="M254.683 326.228L254.683 225.304C254.683 209.733 245.431 197.066 234.058 197.066L151.122 197.066C146.164 197.066 141.547 194.406 138.119 189.578C134.692 184.748 132.884 178.352 133.027 171.568C133.039 171.014 134.201 115.48 134.708 59.7852C134.935 34.962 134.986 15.4124 134.919 0L132.963 0C133.163 48.3001 132.187 118.162 131.063 171.491C130.905 179.008 132.91 186.097 136.71 191.452C140.511 196.807 145.629 199.756 151.122 199.756L234.058 199.756C244.348 199.756 252.719 211.217 252.719 225.304L252.719 326.229C252.719 341.799 261.971 354.466 273.344 354.466L423.066 354.466L423.066 351.777L273.344 351.777C263.054 351.776 254.683 340.316 254.683 326.228Z" fill="#176DB3"/>
<path d="M331.511 406.982L331.511 0L329.547 0L329.547 406.982C329.547 422.553 338.799 435.22 350.172 435.22L520.847 435.22L520.847 432.531L350.172 432.531C339.882 432.531 331.511 421.069 331.511 406.982Z" fill="#176DB3"/>
<path d="M412.593 1142.66L412.593 667.55C412.593 653.463 420.964 642.002 431.254 642.002L520.847 642.002L520.847 639.313L431.254 639.313C419.882 639.313 410.629 651.981 410.629 667.55L410.629 1142.66L412.593 1142.66Z" fill="#176DB3"/>
<path d="M477.63 541.297C466.257 541.297 457.005 553.964 457.005 569.535L457.005 721.331C457.005 735.419 448.633 746.88 438.344 746.88L385.09 746.88C373.717 746.88 364.465 759.548 364.465 775.117L364.465 862.37C364.465 877.94 373.717 890.608 385.09 890.608L431.36 890.608C441.649 890.608 450.021 902.069 450.021 916.156L450.021 1142.66L451.985 1142.66L451.985 916.157C451.985 900.587 442.732 887.919 431.36 887.919L385.09 887.919C374.8 887.919 366.429 876.458 366.429 862.371L366.429 775.118C366.429 761.031 374.8 749.57 385.09 749.57L438.344 749.57C449.716 749.57 458.969 736.902 458.969 721.332L458.969 569.535C458.969 555.447 467.34 543.986 477.63 543.986L555.763 543.986L555.763 541.297L477.63 541.297Z" fill="#176DB3"/>
<path d="M352.131 569.986C352.131 574.768 349.3 578.644 345.808 578.644C342.315 578.644 339.484 574.768 339.484 569.986C339.484 565.204 342.315 561.328 345.808 561.328C349.3 561.328 352.131 565.204 352.131 569.986Z" fill="#54F4FC"/>
<path d="M345.807 579.317C342.05 579.317 338.992 575.132 338.992 569.986C338.992 564.842 342.05 560.656 345.807 560.656C349.564 560.656 352.621 564.842 352.621 569.986C352.621 575.132 349.564 579.317 345.807 579.317ZM345.807 562.001C342.591 562.001 339.974 565.584 339.974 569.986C339.974 574.389 342.591 577.972 345.807 577.972C349.023 577.972 351.639 574.389 351.639 569.986C351.639 565.584 349.023 562.001 345.807 562.001Z" fill="#54F4FC"/>
<path d="M369.623 543.09C369.623 546.247 367.754 548.806 365.448 548.806C363.143 548.806 361.273 546.247 361.273 543.09C361.273 539.934 363.143 537.375 365.448 537.375C367.754 537.375 369.623 539.934 369.623 543.09Z" fill="#54F4FC"/>
<path d="M365.447 549.479C362.874 549.479 360.781 546.613 360.781 543.091C360.781 539.568 362.874 536.703 365.447 536.703C368.02 536.703 370.113 539.569 370.113 543.091C370.113 546.613 368.02 549.479 365.447 549.479ZM365.447 538.047C363.416 538.047 361.763 540.31 361.763 543.091C361.763 545.871 363.416 548.134 365.447 548.134C367.478 548.134 369.13 545.871 369.13 543.091C369.13 540.31 367.478 538.047 365.447 538.047Z" fill="#54F4FC"/>
<path d="M371.671 512.167C371.671 516.872 368.885 520.686 365.449 520.686C362.012 520.686 359.227 516.872 359.227 512.167C359.227 507.462 362.012 503.648 365.449 503.648C368.885 503.648 371.671 507.462 371.671 512.167Z" fill="#54F4FC"/>
<path d="M365.448 521.359C361.746 521.359 358.734 517.236 358.734 512.168C358.734 507.1 361.746 502.977 365.448 502.977C369.15 502.977 372.161 507.1 372.161 512.168C372.161 517.236 369.15 521.359 365.448 521.359ZM365.448 504.321C362.287 504.321 359.717 507.841 359.717 512.168C359.717 516.494 362.287 520.014 365.448 520.014C368.608 520.014 371.179 516.494 371.179 512.168C371.179 507.841 368.608 504.321 365.448 504.321Z" fill="#54F4FC"/>
<path d="M351.927 485.269C351.927 489.896 349.187 493.647 345.807 493.647C342.427 493.647 339.688 489.896 339.688 485.269C339.688 480.642 342.427 476.891 345.807 476.891C349.187 476.89 351.927 480.641 351.927 485.269Z" fill="#54F4FC"/>
<path d="M345.806 494.32C342.161 494.32 339.195 490.259 339.195 485.269C339.195 480.279 342.161 476.219 345.806 476.219C349.451 476.219 352.417 480.279 352.417 485.269C352.417 490.259 349.451 494.32 345.806 494.32ZM345.806 477.563C342.703 477.563 340.177 481.02 340.177 485.269C340.177 489.519 342.703 492.975 345.806 492.975C348.91 492.975 351.435 489.519 351.435 485.269C351.435 481.02 348.91 477.563 345.806 477.563Z" fill="#54F4FC"/>
<path d="M197.701 485.27C197.701 488.801 195.61 491.665 193.03 491.665C190.45 491.665 188.359 488.802 188.359 485.27C188.359 481.738 190.45 478.875 193.03 478.875C195.61 478.875 197.701 481.738 197.701 485.27Z" fill="#54F4FC"/>
<path d="M193.029 492.337C190.183 492.337 187.867 489.167 187.867 485.27C187.867 481.374 190.183 478.203 193.029 478.203C195.875 478.203 198.191 481.374 198.191 485.27C198.191 489.167 195.875 492.337 193.029 492.337ZM193.029 479.547C190.725 479.547 188.849 482.114 188.849 485.27C188.849 488.426 190.724 490.993 193.029 490.993C195.333 490.993 197.209 488.426 197.209 485.27C197.209 482.114 195.333 479.547 193.029 479.547Z" fill="#54F4FC"/>
<path d="M173.386 467.082C176.896 467.082 179.741 463.186 179.741 458.381C179.741 453.575 176.896 449.68 173.386 449.68C169.876 449.68 167.031 453.575 167.031 458.381C167.031 463.186 169.876 467.082 173.386 467.082Z" fill="#54F4FC"/>
<path d="M173.385 467.754C169.61 467.754 166.539 463.549 166.539 458.381C166.539 453.212 169.61 449.008 173.385 449.008C177.16 449.008 180.231 453.213 180.231 458.381C180.231 463.55 177.16 467.754 173.385 467.754ZM173.385 450.353C170.151 450.353 167.521 453.954 167.521 458.382C167.521 462.809 170.151 466.41 173.385 466.41C176.619 466.41 179.249 462.808 179.249 458.382C179.249 453.953 176.619 450.353 173.385 450.353Z" fill="#54F4FC"/>
<path d="M173.387 393.037C176.442 393.037 178.918 389.646 178.918 385.464C178.918 381.281 176.442 377.891 173.387 377.891C170.332 377.891 167.855 381.281 167.855 385.464C167.855 389.646 170.332 393.037 173.387 393.037Z" fill="#54F4FC"/>
<path d="M173.386 393.709C170.065 393.709 167.363 390.01 167.363 385.464C167.363 380.918 170.065 377.219 173.386 377.219C176.707 377.219 179.408 380.917 179.408 385.464C179.408 390.011 176.707 393.709 173.386 393.709ZM173.386 378.564C170.607 378.564 168.345 381.66 168.345 385.464C168.345 389.268 170.606 392.364 173.386 392.364C176.165 392.364 178.426 389.268 178.426 385.464C178.426 381.66 176.165 378.564 173.386 378.564Z" fill="#54F4FC"/>
<path d="M158.093 358.572C158.093 361.861 156.146 364.526 153.744 364.526C151.342 364.526 149.395 361.861 149.395 358.572C149.395 355.283 151.342 352.617 153.744 352.617C156.146 352.617 158.093 355.283 158.093 358.572Z" fill="#54F4FC"/>
<path d="M153.742 365.2C151.073 365.2 148.902 362.227 148.902 358.573C148.902 354.918 151.074 351.945 153.742 351.945C156.412 351.945 158.583 354.918 158.583 358.573C158.583 362.227 156.411 365.2 153.742 365.2ZM153.742 353.29C151.615 353.29 149.884 355.659 149.884 358.573C149.884 361.486 151.615 363.855 153.742 363.855C155.87 363.855 157.601 361.486 157.601 358.573C157.601 355.66 155.87 353.29 153.742 353.29Z" fill="#54F4FC"/>
<path d="M71.1153 358.577C71.1153 362.771 68.6324 366.17 65.5696 366.17C62.5068 366.17 60.0234 362.771 60.0234 358.577C60.0234 354.383 62.5063 350.984 65.5696 350.984C68.6324 350.984 71.1153 354.383 71.1153 358.577Z" fill="#54F4FC"/>
<path d="M65.568 366.843C62.2395 366.843 59.5313 363.135 59.5313 358.578C59.5313 354.02 62.2395 350.313 65.568 350.313C68.8969 350.313 71.6052 354.02 71.6052 358.578C71.6052 363.135 68.8969 366.843 65.568 366.843ZM65.568 351.657C62.7807 351.657 60.5134 354.761 60.5134 358.578C60.5134 362.394 62.7807 365.498 65.568 365.498C68.3553 365.498 70.6231 362.394 70.6231 358.578C70.6231 354.762 68.3553 351.657 65.568 351.657Z" fill="#54F4FC"/>
<path d="M49.7031 331.679C49.7031 334.535 48.0118 336.851 45.9257 336.851C43.8397 336.851 42.1484 334.535 42.1484 331.679C42.1484 328.823 43.8397 326.508 45.9257 326.508C48.0123 326.508 49.7031 328.823 49.7031 331.679Z" fill="#54F4FC"/>
<path d="M45.9241 337.524C43.5709 337.524 41.6563 334.903 41.6563 331.68C41.6563 328.458 43.5709 325.836 45.9241 325.836C48.2778 325.836 50.1925 328.457 50.1925 331.68C50.193 334.903 48.2778 337.524 45.9241 337.524ZM45.9241 327.181C44.1126 327.181 42.6384 329.199 42.6384 331.68C42.6384 334.161 44.1126 336.179 45.9241 336.179C47.7362 336.179 49.2104 334.161 49.2104 331.68C49.2109 329.199 47.7367 327.181 45.9241 327.181Z" fill="#54F4FC"/>
<path d="M51.808 163.147C51.808 167.596 49.1744 171.201 45.9255 171.201C42.6766 171.201 40.043 167.595 40.043 163.147C40.043 158.7 42.6766 155.094 45.9255 155.094C49.1739 155.094 51.808 158.7 51.808 163.147Z" fill="#54F4FC"/>
<path d="M45.9244 171.874C42.4103 171.874 39.5508 167.96 39.5508 163.148C39.5508 158.336 42.4098 154.422 45.9244 154.422C49.439 154.422 52.298 158.336 52.298 163.148C52.2985 167.96 49.439 171.874 45.9244 171.874ZM45.9244 155.767C42.9514 155.767 40.5329 159.078 40.5329 163.148C40.5329 167.218 42.9514 170.529 45.9244 170.529C48.8973 170.529 51.3159 167.218 51.3159 163.148C51.3163 159.078 48.8973 155.767 45.9244 155.767Z" fill="#54F4FC"/>
<path d="M32.0726 136.261C32.0726 140.637 29.4812 144.185 26.2843 144.185C23.0875 144.185 20.4961 140.637 20.4961 136.261C20.4961 131.884 23.0875 128.336 26.2843 128.336C29.4812 128.336 32.0726 131.884 32.0726 136.261Z" fill="#54F4FC"/>
<path d="M26.2827 144.858C22.8202 144.858 20.0039 141.001 20.0039 136.261C20.0039 131.52 22.8202 127.664 26.2827 127.664C29.7453 127.664 32.5621 131.52 32.5621 136.261C32.5621 141.001 29.7453 144.858 26.2827 144.858ZM26.2827 129.009C23.3623 129.009 20.986 132.262 20.986 136.261C20.986 140.26 23.3623 143.513 26.2827 143.513C29.2036 143.513 31.5799 140.26 31.5799 136.261C31.5799 132.262 29.2036 129.009 26.2827 129.009Z" fill="#54F4FC"/>
<path d="M67.5941 908.388C67.5941 913.219 64.7336 917.135 61.2052 917.135C57.6769 917.135 54.8164 913.219 54.8164 908.388C54.8164 903.557 57.6769 899.641 61.2052 899.641C64.7336 899.641 67.5941 903.557 67.5941 908.388Z" fill="#54F4FC"/>
<path d="M61.2041 917.806C57.4106 917.806 54.3242 913.581 54.3242 908.388C54.3242 903.195 57.4106 898.969 61.2041 898.969C64.9976 898.969 68.084 903.195 68.084 908.388C68.084 913.581 64.9971 917.806 61.2041 917.806ZM61.2041 900.312C57.9522 900.312 55.3064 903.934 55.3064 908.387C55.3064 912.84 57.9522 916.462 61.2041 916.462C64.456 916.462 67.1019 912.84 67.1019 908.387C67.1019 903.934 64.456 900.312 61.2041 900.312Z" fill="#54F4FC"/>
<path d="M85.9323 881.499C85.9323 885.343 83.6562 888.458 80.8487 888.458C78.0413 888.458 75.7656 885.342 75.7656 881.499C75.7656 877.655 78.0413 874.539 80.8487 874.539C83.6566 874.539 85.9323 877.655 85.9323 881.499Z" fill="#54F4FC"/>
<path d="M80.8481 889.131C77.774 889.131 75.2734 885.708 75.2734 881.499C75.2734 877.29 77.774 873.867 80.8481 873.867C83.9222 873.867 86.4222 877.29 86.4222 881.499C86.4222 885.707 83.9217 889.131 80.8481 889.131ZM80.8481 875.212C78.3161 875.212 76.2556 878.032 76.2556 881.499C76.2556 884.966 78.3156 887.787 80.8481 887.787C83.38 887.787 85.4401 884.966 85.4401 881.499C85.4401 878.032 83.38 875.212 80.8481 875.212Z" fill="#54F4FC"/>
<path d="M86.0098 244.428C86.0098 248.332 83.6984 251.496 80.8467 251.496C77.9951 251.496 75.6836 248.332 75.6836 244.428C75.6836 240.524 77.9951 237.359 80.8467 237.359C83.6984 237.359 86.0098 240.524 86.0098 244.428Z" fill="#54F4FC"/>
<path d="M80.8456 252.169C77.7278 252.169 75.1914 248.697 75.1914 244.428C75.1914 240.16 77.7278 236.688 80.8456 236.688C83.9634 236.688 86.4998 240.16 86.4998 244.428C86.4993 248.697 83.9629 252.169 80.8456 252.169ZM80.8456 238.032C78.2694 238.032 76.1735 240.902 76.1735 244.428C76.1735 247.955 78.2694 250.824 80.8456 250.824C83.4217 250.824 85.5176 247.955 85.5176 244.428C85.5172 240.902 83.4217 238.032 80.8456 238.032Z" fill="#54F4FC"/>
<path d="M61.2027 223.898C63.7697 223.898 65.8506 221.049 65.8506 217.535C65.8506 214.021 63.7697 211.172 61.2027 211.172C58.6357 211.172 56.5547 214.021 56.5547 217.535C56.5547 221.049 58.6357 223.898 61.2027 223.898Z" fill="#54F4FC"/>
<path d="M61.2016 224.573C58.3676 224.573 56.0625 221.416 56.0625 217.536C56.0625 213.656 58.3676 210.5 61.2016 210.5C64.035 210.5 66.3406 213.656 66.3406 217.536C66.3406 221.416 64.035 224.573 61.2016 224.573ZM61.2016 211.846C58.9092 211.846 57.0446 214.398 57.0446 217.537C57.0446 220.675 58.9092 223.229 61.2016 223.229C63.4939 223.229 65.3585 220.675 65.3585 217.537C65.3585 214.398 63.4934 211.846 61.2016 211.846Z" fill="#54F4FC"/>
<path d="M297.284 709.382C297.284 713.292 294.97 716.46 292.115 716.46C289.26 716.46 286.945 713.291 286.945 709.382C286.945 705.474 289.26 702.305 292.115 702.305C294.97 702.305 297.284 705.474 297.284 709.382Z" fill="#54F4FC"/>
<path d="M292.114 717.133C288.992 717.133 286.453 713.656 286.453 709.383C286.453 705.11 288.992 701.633 292.114 701.633C295.235 701.633 297.774 705.11 297.774 709.383C297.775 713.656 295.235 717.133 292.114 717.133ZM292.114 702.977C289.534 702.977 287.435 705.85 287.435 709.383C287.435 712.915 289.534 715.788 292.114 715.788C294.693 715.788 296.792 712.915 296.792 709.383C296.793 705.85 294.693 702.977 292.114 702.977Z" fill="#54F4FC"/>
<path d="M277.562 736.27C277.562 740.117 275.284 743.236 272.474 743.236C269.664 743.236 267.387 740.117 267.387 736.27C267.387 732.423 269.665 729.305 272.474 729.305C275.285 729.304 277.562 732.423 277.562 736.27Z" fill="#54F4FC"/>
<path d="M272.473 743.908C269.397 743.908 266.895 740.482 266.895 736.271C266.895 732.059 269.398 728.633 272.473 728.633C275.549 728.633 278.052 732.059 278.052 736.271C278.052 740.482 275.549 743.908 272.473 743.908ZM272.473 729.976C269.939 729.976 267.877 732.799 267.877 736.27C267.877 739.74 269.939 742.563 272.473 742.563C275.008 742.563 277.07 739.74 277.07 736.27C277.07 732.8 275.008 729.976 272.473 729.976Z" fill="#54F4FC"/>
<path d="M171.99 736.275C171.99 741.492 168.901 745.721 165.091 745.721C161.28 745.721 158.191 741.492 158.191 736.275C158.191 731.057 161.28 726.828 165.091 726.828C168.902 726.828 171.99 731.057 171.99 736.275Z" fill="#54F4FC"/>
<path d="M165.09 746.393C161.014 746.393 157.699 741.855 157.699 736.275C157.699 730.696 161.014 726.156 165.09 726.156C169.165 726.156 172.48 730.696 172.48 736.275C172.48 741.855 169.165 746.393 165.09 746.393ZM165.09 727.501C161.557 727.501 158.681 731.438 158.681 736.275C158.681 741.113 161.556 745.048 165.09 745.048C168.623 745.048 171.498 741.113 171.498 736.275C171.498 731.438 168.623 727.501 165.09 727.501Z" fill="#54F4FC"/>
<path d="M150.911 763.164C150.911 767.293 148.466 770.641 145.449 770.641C142.433 770.641 139.988 767.294 139.988 763.164C139.988 759.035 142.433 755.688 145.449 755.688C148.466 755.688 150.911 759.035 150.911 763.164Z" fill="#54F4FC"/>
<path d="M145.448 771.314C142.166 771.314 139.496 767.658 139.496 763.165C139.496 758.671 142.167 755.016 145.448 755.016C148.731 755.016 151.401 758.671 151.401 763.165C151.401 767.658 148.731 771.314 145.448 771.314ZM145.448 756.36C142.708 756.36 140.478 759.413 140.478 763.165C140.478 766.917 142.708 769.97 145.448 769.97C148.189 769.97 150.418 766.917 150.418 763.165C150.418 759.413 148.189 756.36 145.448 756.36Z" fill="#54F4FC"/>
<path d="M150.439 1029.71C150.439 1033.48 148.206 1036.54 145.45 1036.54C142.695 1036.54 140.461 1033.48 140.461 1029.71C140.461 1025.93 142.695 1022.88 145.45 1022.88C148.206 1022.88 150.439 1025.93 150.439 1029.71Z" fill="#54F4FC"/>
<path d="M145.449 1037.21C142.427 1037.21 139.969 1033.84 139.969 1029.71C139.969 1025.57 142.427 1022.2 145.449 1022.2C148.47 1022.2 150.928 1025.57 150.928 1029.71C150.928 1033.84 148.47 1037.21 145.449 1037.21ZM145.449 1023.55C142.968 1023.55 140.951 1026.31 140.951 1029.71C140.951 1033.1 142.968 1035.86 145.449 1035.86C147.929 1035.86 149.946 1033.1 149.946 1029.71C149.946 1026.31 147.929 1023.55 145.449 1023.55Z" fill="#54F4FC"/>
<path d="M129.733 1056.6C129.733 1059.57 127.975 1061.98 125.806 1061.98C123.637 1061.98 121.879 1059.57 121.879 1056.6C121.879 1053.63 123.637 1051.23 125.806 1051.23C127.975 1051.23 129.733 1053.63 129.733 1056.6Z" fill="#54F4FC"/>
<path d="M125.805 1062.65C123.369 1062.65 121.387 1059.94 121.387 1056.6C121.387 1053.27 123.369 1050.55 125.805 1050.55C128.241 1050.55 130.223 1053.27 130.223 1056.6C130.223 1059.94 128.241 1062.65 125.805 1062.65ZM125.805 1051.9C123.91 1051.9 122.369 1054.01 122.369 1056.6C122.369 1059.2 123.91 1061.31 125.805 1061.31C127.699 1061.31 129.241 1059.2 129.241 1056.6C129.241 1054.01 127.7 1051.9 125.805 1051.9Z" fill="#54F4FC"/>
<path d="M328.001 882.689C328.001 887.38 325.224 891.182 321.797 891.182C318.371 891.182 315.594 887.379 315.594 882.689C315.594 877.998 318.371 874.195 321.797 874.195C325.224 874.195 328.001 877.998 328.001 882.689Z" fill="#54F4FC"/>
<path d="M321.796 891.854C318.105 891.854 315.102 887.743 315.102 882.689C315.102 877.635 318.104 873.523 321.796 873.523C325.488 873.523 328.491 877.635 328.491 882.689C328.491 887.743 325.488 891.854 321.796 891.854ZM321.796 874.868C318.647 874.868 316.084 878.376 316.084 882.689C316.084 887.001 318.647 890.51 321.796 890.51C324.946 890.51 327.509 887.001 327.509 882.689C327.509 878.376 324.947 874.868 321.796 874.868Z" fill="#54F4FC"/>
<path d="M306.266 855.801C306.266 858.91 304.425 861.43 302.155 861.43C299.884 861.43 298.043 858.911 298.043 855.801C298.043 852.692 299.884 850.172 302.155 850.172C304.425 850.172 306.266 852.692 306.266 855.801Z" fill="#54F4FC"/>
<path d="M302.154 862.103C299.616 862.103 297.551 859.276 297.551 855.801C297.551 852.327 299.616 849.5 302.154 849.5C304.691 849.5 306.756 852.327 306.756 855.801C306.756 859.276 304.691 862.103 302.154 862.103ZM302.154 850.844C300.157 850.844 298.533 853.067 298.533 855.801C298.533 858.536 300.157 860.759 302.154 860.759C304.15 860.759 305.774 858.536 305.774 855.801C305.774 853.067 304.15 850.844 302.154 850.844Z" fill="#54F4FC"/>
<path d="M250.754 855.798C250.754 859.837 248.363 863.112 245.412 863.112C242.462 863.112 240.07 859.837 240.07 855.798C240.07 851.759 242.462 848.484 245.412 848.484C248.363 848.484 250.754 851.758 250.754 855.798Z" fill="#54F4FC"/>
<path d="M245.411 863.786C242.195 863.786 239.578 860.204 239.578 855.799C239.578 851.395 242.195 847.813 245.411 847.813C248.628 847.813 251.244 851.395 251.244 855.799C251.244 860.204 248.628 863.786 245.411 863.786ZM245.411 849.157C242.737 849.157 240.56 852.137 240.56 855.799C240.56 859.462 242.737 862.441 245.411 862.441C248.085 862.441 250.262 859.462 250.262 855.799C250.262 852.137 248.085 849.157 245.411 849.157Z" fill="#54F4FC"/>
<path d="M229.631 828.905C229.631 831.826 227.902 834.193 225.769 834.193C223.635 834.193 221.906 831.826 221.906 828.905C221.906 825.985 223.635 823.617 225.769 823.617C227.901 823.617 229.631 825.985 229.631 828.905Z" fill="#54F4FC"/>
<path d="M225.767 834.867C223.367 834.867 221.414 832.193 221.414 828.906C221.414 825.619 223.367 822.945 225.767 822.945C228.168 822.945 230.121 825.619 230.121 828.906C230.121 832.193 228.168 834.867 225.767 834.867ZM225.767 824.291C223.909 824.291 222.396 826.362 222.396 828.907C222.396 831.451 223.909 833.522 225.767 833.522C227.626 833.522 229.139 831.451 229.139 828.907C229.139 826.361 227.626 824.291 225.767 824.291Z" fill="#54F4FC"/>
<path d="M231.451 703.405C231.451 707.702 228.907 711.185 225.769 711.185C222.63 711.185 220.086 707.702 220.086 703.405C220.086 699.108 222.63 695.625 225.769 695.625C228.907 695.624 231.451 699.108 231.451 703.405Z" fill="#54F4FC"/>
<path d="M225.768 711.859C222.363 711.859 219.594 708.067 219.594 703.406C219.594 698.745 222.363 694.953 225.768 694.953C229.172 694.953 231.941 698.745 231.941 703.406C231.941 708.067 229.172 711.859 225.768 711.859ZM225.768 696.299C222.905 696.299 220.576 699.487 220.576 703.407C220.576 707.327 222.905 710.515 225.768 710.515C228.63 710.515 230.959 707.327 230.959 703.407C230.959 699.487 228.63 696.299 225.768 696.299Z" fill="#54F4FC"/>
<path d="M210.324 676.507C210.324 679.682 208.444 682.256 206.125 682.256C203.806 682.256 201.926 679.682 201.926 676.507C201.926 673.331 203.806 670.758 206.125 670.758C208.444 670.758 210.324 673.331 210.324 676.507Z" fill="#54F4FC"/>
<path d="M206.124 682.929C203.538 682.929 201.434 680.049 201.434 676.508C201.434 672.967 203.538 670.086 206.124 670.086C208.711 670.086 210.814 672.967 210.814 676.508C210.814 680.048 208.71 682.929 206.124 682.929ZM206.124 671.43C204.079 671.43 202.416 673.709 202.416 676.508C202.416 679.308 204.079 681.585 206.124 681.585C208.169 681.585 209.832 679.308 209.832 676.508C209.832 673.708 208.169 671.43 206.124 671.43Z" fill="#54F4FC"/>
<path d="M58.0929 75.9405C58.1163 70.6918 55.0275 66.411 51.194 66.379C47.3604 66.347 44.2337 70.5759 44.2103 75.8246C44.1869 81.0733 47.2757 85.3541 51.1093 85.3861C54.9428 85.4181 58.0695 81.1892 58.0929 75.9405Z" fill="#54F4FC"/>
<path d="M51.1628 86.0702C47.0643 86.0702 43.7305 81.5056 43.7305 75.8944C43.7305 70.2833 47.0643 65.7188 51.1628 65.7188C55.2613 65.7188 58.5952 70.2833 58.5952 75.8945C58.5952 81.5062 55.2613 86.0702 51.1628 86.0702ZM51.1628 67.0637C47.6065 67.0637 44.7126 71.0254 44.7126 75.8944C44.7126 80.7635 47.6065 84.7252 51.1628 84.7252C54.7191 84.7252 57.613 80.7635 57.613 75.8945C57.613 71.0261 54.7191 67.0637 51.1628 67.0637Z" fill="#54F4FC"/>
<path d="M74.6254 102.788C74.6254 105.673 72.9169 108.013 70.8088 108.013C68.7006 108.013 66.9922 105.674 66.9922 102.788C66.9922 99.9023 68.7006 97.5625 70.8088 97.5625C72.9169 97.5625 74.6254 99.9023 74.6254 102.788Z" fill="#54F4FC"/>
<path d="M70.8077 108.686C68.4323 108.686 66.5 106.04 66.5 102.788C66.5 99.5362 68.4323 96.8906 70.8077 96.8906C73.183 96.8906 75.1148 99.5362 75.1148 102.788C75.1153 106.04 73.183 108.686 70.8077 108.686ZM70.8077 98.2356C68.9745 98.2356 67.4821 100.278 67.4821 102.788C67.4821 105.298 68.974 107.341 70.8077 107.341C72.6413 107.341 74.1327 105.298 74.1327 102.788C74.1332 100.278 72.6413 98.2356 70.8077 98.2356Z" fill="#54F4FC"/>
<path d="M205.043 102.792C205.043 107.254 202.4 110.872 199.14 110.872C195.881 110.872 193.238 107.255 193.238 102.792C193.238 98.3291 195.881 94.7109 199.14 94.7109C202.4 94.7109 205.043 98.3291 205.043 102.792Z" fill="#54F4FC"/>
<path d="M199.139 111.545C195.614 111.545 192.746 107.619 192.746 102.792C192.746 97.9651 195.614 94.0391 199.139 94.0391C202.665 94.0391 205.533 97.9651 205.533 102.792C205.533 107.619 202.665 111.545 199.139 111.545ZM199.139 95.384C196.156 95.384 193.728 98.7078 193.728 102.792C193.728 106.876 196.156 110.2 199.139 110.2C202.123 110.2 204.55 106.876 204.55 102.792C204.55 98.7072 202.123 95.384 199.139 95.384Z" fill="#54F4FC"/>
<path d="M223.861 75.896C223.861 79.7347 221.588 82.8467 218.784 82.8467C215.98 82.8467 213.707 79.7347 213.707 75.896C213.707 72.0574 215.98 68.9453 218.784 68.9453C221.588 68.9453 223.861 72.0574 223.861 75.896Z" fill="#54F4FC"/>
<path d="M218.783 83.5198C215.712 83.5198 213.215 80.1006 213.215 75.897C213.215 71.6933 215.712 68.2734 218.783 68.2734C221.853 68.2734 224.351 71.6933 224.351 75.897C224.351 80.0999 221.853 83.5198 218.783 83.5198ZM218.783 69.6177C216.255 69.6177 214.197 72.4347 214.197 75.8963C214.197 79.3586 216.255 82.1742 218.783 82.1742C221.311 82.1742 223.369 79.3579 223.369 75.8963C223.369 72.4347 221.312 69.6177 218.783 69.6177Z" fill="#54F4FC"/>
<path d="M328.348 798.104C330.629 798.104 332.478 795.573 332.478 792.45C332.478 789.328 330.629 786.797 328.348 786.797C326.068 786.797 324.219 789.328 324.219 792.45C324.219 795.573 326.068 798.104 328.348 798.104Z" fill="#54F4FC"/>
<path d="M328.347 798.778C325.799 798.778 323.727 795.94 323.727 792.451C323.727 788.963 325.799 786.125 328.347 786.125C330.895 786.125 332.968 788.963 332.968 792.451C332.968 795.94 330.895 798.778 328.347 798.778ZM328.347 787.471C326.341 787.471 324.709 789.706 324.709 792.451C324.709 795.198 326.341 797.433 328.347 797.433C330.353 797.433 331.985 795.198 331.985 792.451C331.985 789.706 330.353 787.471 328.347 787.471Z" fill="#54F4FC"/>
<path d="M353.989 765.556C353.989 770.092 351.303 773.768 347.991 773.768C344.678 773.768 341.992 770.092 341.992 765.556C341.992 761.02 344.678 757.344 347.991 757.344C351.304 757.344 353.989 761.021 353.989 765.556Z" fill="#54F4FC"/>
<path d="M347.989 774.441C344.411 774.441 341.5 770.456 341.5 765.556C341.5 760.657 344.411 756.672 347.989 756.672C351.568 756.672 354.479 760.657 354.479 765.556C354.478 770.455 351.568 774.441 347.989 774.441ZM347.989 758.016C344.953 758.016 342.482 761.398 342.482 765.556C342.482 769.714 344.953 773.097 347.989 773.097C351.026 773.097 353.497 769.714 353.497 765.556C353.497 761.399 351.026 758.016 347.989 758.016Z" fill="#54F4FC"/>
<path d="M352.622 657.984C352.622 661.487 350.548 664.327 347.989 664.327C345.43 664.327 343.355 661.487 343.355 657.984C343.355 654.48 345.43 651.641 347.989 651.641C350.548 651.641 352.622 654.48 352.622 657.984Z" fill="#54F4FC"/>
<path d="M347.988 664.999C345.162 664.999 342.863 661.852 342.863 657.983C342.863 654.115 345.162 650.969 347.988 650.969C350.813 650.969 353.111 654.115 353.111 657.983C353.111 661.852 350.813 664.999 347.988 664.999ZM347.988 652.313C345.704 652.313 343.845 654.856 343.845 657.983C343.845 661.111 345.704 663.655 347.988 663.655C350.271 663.655 352.129 661.111 352.129 657.983C352.129 654.856 350.271 652.313 347.988 652.313Z" fill="#54F4FC"/>
<path d="M328.345 639.17C331.603 639.17 334.244 635.554 334.244 631.093C334.244 626.632 331.603 623.016 328.345 623.016C325.086 623.016 322.445 626.632 322.445 631.093C322.445 635.554 325.086 639.17 328.345 639.17Z" fill="#54F4FC"/>
<path d="M328.344 639.843C324.82 639.843 321.953 635.918 321.953 631.093C321.953 626.268 324.82 622.344 328.344 622.344C331.868 622.344 334.735 626.268 334.735 631.093C334.735 635.918 331.867 639.843 328.344 639.843ZM328.344 623.688C325.362 623.688 322.935 627.01 322.935 631.093C322.935 635.176 325.361 638.498 328.344 638.498C331.326 638.498 333.753 635.176 333.753 631.093C333.753 627.01 331.326 623.688 328.344 623.688Z" fill="#54F4FC"/>
<path d="M264.616 638.263C267.509 638.263 269.853 635.053 269.853 631.092C269.853 627.132 267.509 623.922 264.616 623.922C261.724 623.922 259.379 627.132 259.379 631.092C259.379 635.053 261.724 638.263 264.616 638.263Z" fill="#54F4FC"/>
<path d="M264.615 638.934C261.456 638.934 258.887 635.416 258.887 631.092C258.887 626.768 261.456 623.25 264.615 623.25C267.774 623.25 270.343 626.768 270.343 631.092C270.343 635.416 267.774 638.934 264.615 638.934ZM264.615 624.594C261.998 624.594 259.869 627.509 259.869 631.092C259.869 634.674 261.998 637.59 264.615 637.59C267.232 637.59 269.361 634.675 269.361 631.092C269.361 627.509 267.232 624.594 264.615 624.594Z" fill="#54F4FC"/>
<path d="M244.972 609.314C247.037 609.314 248.71 607.022 248.71 604.196C248.71 601.369 247.037 599.078 244.972 599.078C242.908 599.078 241.234 601.369 241.234 604.196C241.234 607.022 242.908 609.314 244.972 609.314Z" fill="#54F4FC"/>
<path d="M244.971 609.985C242.639 609.985 240.742 607.388 240.742 604.196C240.742 601.004 242.639 598.406 244.971 598.406C247.303 598.406 249.2 601.003 249.2 604.196C249.2 607.388 247.303 609.985 244.971 609.985ZM244.971 599.751C243.18 599.751 241.724 601.745 241.724 604.195C241.724 606.645 243.181 608.64 244.971 608.64C246.761 608.64 248.218 606.645 248.218 604.195C248.218 601.745 246.762 599.751 244.971 599.751Z" fill="#54F4FC"/>
<path d="M250.345 452.399C250.345 456.459 247.941 459.75 244.975 459.75C242.01 459.75 239.605 456.459 239.605 452.399C239.605 448.338 242.01 445.047 244.975 445.047C247.941 445.047 250.345 448.338 250.345 452.399Z" fill="#54F4FC"/>
<path d="M244.974 460.423C241.742 460.423 239.113 456.824 239.113 452.399C239.113 447.974 241.742 444.375 244.974 444.375C248.206 444.375 250.835 447.974 250.835 452.399C250.835 456.824 248.206 460.423 244.974 460.423ZM244.974 445.72C242.284 445.72 240.095 448.716 240.095 452.399C240.095 456.082 242.284 459.078 244.974 459.078C247.664 459.078 249.853 456.082 249.853 452.399C249.853 448.716 247.664 445.72 244.974 445.72Z" fill="#54F4FC"/>
<path d="M229.35 425.51C229.35 428.549 227.551 431.012 225.331 431.012C223.112 431.012 221.313 428.549 221.313 425.51C221.313 422.471 223.112 420.008 225.331 420.008C227.551 420.008 229.35 422.472 229.35 425.51Z" fill="#54F4FC"/>
<path d="M225.33 431.685C222.844 431.685 220.82 428.915 220.82 425.51C220.82 422.106 222.844 419.336 225.33 419.336C227.817 419.336 229.84 422.106 229.84 425.51C229.84 428.914 227.817 431.685 225.33 431.685ZM225.33 420.68C223.385 420.68 221.802 422.847 221.802 425.51C221.802 428.173 223.385 430.34 225.33 430.34C227.275 430.34 228.858 428.173 228.858 425.51C228.858 422.847 227.275 420.68 225.33 420.68Z" fill="#54F4FC"/>
<path d="M163.816 425.509C163.816 428.504 162.043 430.932 159.855 430.932C157.668 430.932 155.895 428.504 155.895 425.509C155.895 422.514 157.668 420.086 159.855 420.086C162.043 420.086 163.816 422.514 163.816 425.509Z" fill="#54F4FC"/>
<path d="M159.854 431.605C157.399 431.605 155.402 428.871 155.402 425.51C155.402 422.149 157.399 419.414 159.854 419.414C162.309 419.414 164.306 422.149 164.306 425.51C164.306 428.871 162.309 431.605 159.854 431.605ZM159.854 420.759C157.941 420.759 156.384 422.89 156.384 425.51C156.384 428.129 157.941 430.26 159.854 430.26C161.767 430.26 163.324 428.129 163.324 425.51C163.324 422.89 161.768 420.759 159.854 420.759Z" fill="#54F4FC"/>
<path d="M144.941 398.617C144.941 402.193 142.823 405.093 140.211 405.093C137.598 405.093 135.48 402.193 135.48 398.617C135.48 395.04 137.598 392.141 140.211 392.141C142.823 392.141 144.941 395.04 144.941 398.617Z" fill="#54F4FC"/>
<path d="M140.209 405.766C137.331 405.766 134.988 402.559 134.988 398.618C134.988 394.676 137.33 391.469 140.209 391.469C143.088 391.469 145.431 394.676 145.431 398.618C145.431 402.559 143.088 405.766 140.209 405.766ZM140.209 392.814C137.872 392.814 135.97 395.418 135.97 398.618C135.97 401.818 137.872 404.421 140.209 404.421C142.547 404.421 144.449 401.818 144.449 398.618C144.449 395.418 142.547 392.814 140.209 392.814Z" fill="#54F4FC"/>
<path d="M144.562 275.501C144.562 278.79 142.615 281.456 140.213 281.456C137.811 281.456 135.863 278.79 135.863 275.501C135.863 272.213 137.81 269.547 140.213 269.547C142.615 269.547 144.562 272.213 144.562 275.501Z" fill="#54F4FC"/>
<path d="M140.211 282.128C137.542 282.128 135.371 279.156 135.371 275.502C135.371 271.848 137.543 268.875 140.211 268.875C142.88 268.875 145.051 271.848 145.051 275.502C145.051 279.156 142.88 282.128 140.211 282.128ZM140.211 270.219C138.084 270.219 136.353 272.589 136.353 275.502C136.353 278.414 138.084 280.784 140.211 280.784C142.338 280.784 144.069 278.414 144.069 275.502C144.069 272.589 142.338 270.219 140.211 270.219Z" fill="#54F4FC"/>
<path d="M166.73 248.61C166.73 253.81 163.651 258.025 159.853 258.025C156.055 258.025 152.977 253.81 152.977 248.61C152.977 243.41 156.055 239.195 159.853 239.195C163.65 239.195 166.73 243.41 166.73 248.61Z" fill="#54F4FC"/>
<path d="M159.852 258.697C155.79 258.697 152.484 254.172 152.484 248.61C152.484 243.048 155.79 238.523 159.852 238.523C163.914 238.523 167.219 243.048 167.219 248.61C167.219 254.172 163.915 258.697 159.852 258.697ZM159.852 239.868C156.331 239.868 153.467 243.79 153.467 248.61C153.467 253.431 156.331 257.352 159.852 257.352C163.373 257.352 166.237 253.431 166.237 248.61C166.237 243.79 163.373 239.868 159.852 239.868Z" fill="#54F4FC"/>
<path d="M203.981 248.611C203.981 252.271 201.814 255.238 199.141 255.238C196.468 255.238 194.301 252.271 194.301 248.611C194.301 244.951 196.468 241.984 199.141 241.984C201.814 241.984 203.981 244.951 203.981 248.611Z" fill="#54F4FC"/>
<path d="M199.14 255.91C196.2 255.91 193.809 252.636 193.809 248.611C193.809 244.587 196.2 241.313 199.14 241.313C202.079 241.313 204.471 244.587 204.471 248.611C204.471 252.636 202.08 255.91 199.14 255.91ZM199.14 242.657C196.741 242.657 194.791 245.328 194.791 248.611C194.791 251.895 196.742 254.566 199.14 254.566C201.538 254.566 203.489 251.895 203.489 248.611C203.489 245.327 201.538 242.657 199.14 242.657Z" fill="#54F4FC"/>
<path d="M222.95 275.501C222.95 278.652 221.084 281.206 218.783 281.206C216.482 281.206 214.617 278.652 214.617 275.501C214.617 272.351 216.483 269.797 218.783 269.797C221.084 269.797 222.95 272.351 222.95 275.501Z" fill="#54F4FC"/>
<path d="M218.782 281.878C216.214 281.878 214.125 279.018 214.125 275.502C214.125 271.986 216.215 269.125 218.782 269.125C221.35 269.125 223.44 271.986 223.44 275.502C223.44 279.018 221.351 281.878 218.782 281.878ZM218.782 270.47C216.756 270.47 215.107 272.727 215.107 275.502C215.107 278.276 216.756 280.533 218.782 280.533C220.809 280.533 222.457 278.276 222.457 275.502C222.458 272.727 220.809 270.47 218.782 270.47Z" fill="#54F4FC"/>
<path d="M223.077 283.872C223.077 287.119 221.155 289.751 218.783 289.751C216.411 289.751 214.488 287.119 214.488 283.872C214.488 280.624 216.411 277.992 218.783 277.992C221.155 277.992 223.077 280.624 223.077 283.872Z" fill="#54F4FC"/>
<path d="M218.781 290.424C216.143 290.424 213.996 287.485 213.996 283.872C213.996 280.26 216.143 277.32 218.781 277.32C221.42 277.32 223.567 280.259 223.567 283.872C223.567 287.485 221.42 290.424 218.781 290.424ZM218.781 278.665C216.684 278.665 214.978 281.001 214.978 283.872C214.978 286.743 216.684 289.079 218.781 289.079C220.878 289.079 222.584 286.743 222.584 283.872C222.584 281.001 220.878 278.665 218.781 278.665Z" fill="#54F4FC"/>
<path d="M242.461 310.767C242.461 313.817 240.654 316.291 238.426 316.291C236.197 316.291 234.391 313.817 234.391 310.767C234.391 307.716 236.197 305.242 238.426 305.242C240.654 305.242 242.461 307.716 242.461 310.767Z" fill="#54F4FC"/>
<path d="M238.425 316.964C235.929 316.964 233.898 314.184 233.898 310.767C233.898 307.35 235.929 304.57 238.425 304.57C240.921 304.57 242.951 307.35 242.951 310.767C242.951 314.184 240.921 316.964 238.425 316.964ZM238.425 305.915C236.47 305.915 234.881 308.091 234.881 310.767C234.881 313.443 236.47 315.62 238.425 315.62C240.379 315.62 241.969 313.443 241.969 310.767C241.969 308.092 240.379 305.915 238.425 305.915Z" fill="#54F4FC"/>
<path d="M352.713 310.762C352.713 315.985 349.62 320.219 345.806 320.219C341.991 320.219 338.898 315.985 338.898 310.762C338.898 305.539 341.991 301.305 345.806 301.305C349.62 301.305 352.713 305.539 352.713 310.762Z" fill="#54F4FC"/>
<path d="M345.805 320.891C341.725 320.891 338.406 316.347 338.406 310.762C338.406 305.177 341.725 300.633 345.805 300.633C349.884 300.633 353.203 305.177 353.203 310.762C353.204 316.348 349.885 320.891 345.805 320.891ZM345.805 301.977C342.267 301.977 339.388 305.918 339.388 310.762C339.388 315.606 342.267 319.547 345.805 319.547C349.343 319.547 352.221 315.606 352.221 310.762C352.221 305.918 349.343 301.977 345.805 301.977Z" fill="#54F4FC"/>
<path d="M370.179 283.872C370.179 287.447 368.062 290.345 365.451 290.345C362.84 290.345 360.723 287.447 360.723 283.872C360.723 280.297 362.84 277.398 365.451 277.398C368.062 277.398 370.179 280.297 370.179 283.872Z" fill="#54F4FC"/>
<path d="M365.45 291.018C362.572 291.018 360.23 287.812 360.23 283.872C360.23 279.932 362.572 276.727 365.45 276.727C368.327 276.727 370.669 279.932 370.669 283.872C370.669 287.812 368.328 291.018 365.45 291.018ZM365.45 278.072C363.113 278.072 361.213 280.673 361.213 283.872C361.213 287.071 363.113 289.673 365.45 289.673C367.786 289.673 369.687 287.071 369.687 283.872C369.687 280.673 367.786 278.072 365.45 278.072Z" fill="#54F4FC"/>
<path d="M5.28471 301.201C5.28471 305.786 2.56958 309.503 -0.779519 309.503C-4.12862 309.503 -6.84375 305.786 -6.84375 301.201C-6.84375 296.615 -4.12862 292.898 -0.77952 292.898C2.56958 292.898 5.28471 296.615 5.28471 301.201Z" fill="#54F4FC"/>
<path d="M-0.780142 310.176C-4.39491 310.176 -7.33594 306.15 -7.33594 301.202C-7.33594 296.253 -4.3954 292.227 -0.780142 292.227C2.83414 292.227 5.77516 296.253 5.77516 301.202C5.77467 306.15 2.83414 310.176 -0.780142 310.176ZM-0.780142 293.571C-3.85326 293.571 -6.3538 296.994 -6.3538 301.202C-6.3538 305.409 -3.85326 308.832 -0.780142 308.832C2.29298 308.832 4.79302 305.409 4.79302 301.202C4.79253 296.994 2.29298 293.571 -0.780142 293.571Z" fill="#54F4FC"/>
<path d="M24.6527 328.098C24.6527 332.476 22.0608 336.024 18.8635 336.024C15.6661 336.024 13.0742 332.475 13.0742 328.098C13.0742 323.721 15.6661 320.172 18.8635 320.172C22.0608 320.172 24.6527 323.72 24.6527 328.098Z" fill="#54F4FC"/>
<path d="M18.8623 336.696C15.3993 336.696 12.582 332.839 12.582 328.098C12.582 323.357 15.3993 319.5 18.8623 319.5C22.3254 319.5 25.1426 323.357 25.1426 328.098C25.1426 332.839 22.3254 336.696 18.8623 336.696ZM18.8623 320.844C15.941 320.844 13.5642 324.098 13.5642 328.097C13.5642 332.097 15.941 335.351 18.8623 335.351C21.7837 335.351 24.1605 332.097 24.1605 328.097C24.1605 324.098 21.7837 320.844 18.8623 320.844Z" fill="#54F4FC"/>
<path d="M18.8637 460.764C21.7548 460.764 24.0985 457.555 24.0985 453.597C24.0985 449.639 21.7548 446.43 18.8637 446.43C15.9726 446.43 13.6289 449.639 13.6289 453.597C13.6289 457.555 15.9726 460.764 18.8637 460.764Z" fill="#54F4FC"/>
<path d="M18.8631 461.436C15.7055 461.436 13.1367 457.92 13.1367 453.597C13.1367 449.275 15.706 445.758 18.8631 445.758C22.0207 445.758 24.589 449.275 24.589 453.597C24.589 457.92 22.0207 461.436 18.8631 461.436ZM18.8631 447.102C16.2472 447.102 14.1189 450.016 14.1189 453.597C14.1189 457.178 16.2472 460.092 18.8631 460.092C21.4785 460.092 23.6068 457.178 23.6068 453.597C23.6068 450.016 21.4785 447.102 18.8631 447.102Z" fill="#54F4FC"/>
<path d="M-0.778789 489.44C2.83184 489.44 5.75883 485.433 5.75883 480.489C5.75883 475.546 2.83184 471.539 -0.77879 471.539C-4.38942 471.539 -7.31641 475.546 -7.31641 480.489C-7.31641 485.433 -4.38942 489.44 -0.778789 489.44Z" fill="#54F4FC"/>
<path d="M-0.779891 490.113C-4.65591 490.113 -7.80859 485.796 -7.80859 480.49C-7.80859 475.184 -4.65542 470.867 -0.779891 470.867C3.09564 470.867 6.2488 475.184 6.2488 480.49C6.24831 485.796 3.09515 490.113 -0.779891 490.113ZM-0.779891 472.211C-4.11426 472.211 -6.82645 475.925 -6.82645 480.49C-6.82645 485.055 -4.11426 488.769 -0.779891 488.769C2.55399 488.769 5.26666 485.055 5.26665 480.49C5.26616 475.925 2.55399 472.211 -0.779891 472.211Z" fill="#54F4FC"/>
<path d="M384.027 973.533C384.027 978.34 381.181 982.236 377.67 982.236C374.159 982.236 371.313 978.339 371.313 973.533C371.313 968.725 374.159 964.828 377.67 964.828C381.181 964.828 384.027 968.725 384.027 973.533Z" fill="#54F4FC"/>
<path d="M377.669 982.909C373.892 982.909 370.82 978.703 370.82 973.533C370.82 968.363 373.892 964.156 377.669 964.156C381.445 964.156 384.517 968.363 384.517 973.533C384.517 978.704 381.445 982.909 377.669 982.909ZM377.669 965.501C374.434 965.501 371.802 969.105 371.802 973.533C371.802 977.962 374.434 981.564 377.669 981.564C380.903 981.564 383.535 977.961 383.535 973.533C383.535 969.105 380.903 965.501 377.669 965.501Z" fill="#54F4FC"/>
<path d="M362.045 946.64C362.045 949.677 360.246 952.138 358.028 952.138C355.81 952.138 354.012 949.676 354.012 946.64C354.012 943.603 355.81 941.141 358.028 941.141C360.246 941.141 362.045 943.603 362.045 946.64Z" fill="#54F4FC"/>
<path d="M358.027 952.812C355.542 952.812 353.52 950.044 353.52 946.64C353.52 943.237 355.541 940.469 358.027 940.469C360.513 940.469 362.535 943.237 362.535 946.64C362.535 950.044 360.512 952.812 358.027 952.812ZM358.027 941.813C356.083 941.813 354.502 943.978 354.502 946.64C354.502 949.302 356.083 951.467 358.027 951.467C359.971 951.467 361.553 949.302 361.553 946.64C361.553 943.979 359.971 941.813 358.027 941.813Z" fill="#54F4FC"/>
<path d="M224.269 946.634C224.269 950.453 222.008 953.549 219.219 953.549C216.429 953.549 214.168 950.453 214.168 946.634C214.168 942.815 216.429 939.719 219.219 939.719C222.008 939.719 224.269 942.815 224.269 946.634Z" fill="#54F4FC"/>
<path d="M219.218 954.221C216.162 954.221 213.676 950.818 213.676 946.634C213.676 942.451 216.162 939.047 219.218 939.047C222.273 939.047 224.759 942.451 224.759 946.634C224.759 950.818 222.273 954.221 219.218 954.221ZM219.218 940.391C216.703 940.391 214.658 943.192 214.658 946.634C214.658 950.076 216.703 952.876 219.218 952.876C221.731 952.876 223.777 950.076 223.777 946.634C223.777 943.192 221.731 940.391 219.218 940.391Z" fill="#54F4FC"/>
<path d="M204.958 973.529C204.958 977.596 202.549 980.894 199.578 980.894C196.607 980.894 194.199 977.597 194.199 973.529C194.199 969.462 196.607 966.164 199.578 966.164C202.549 966.164 204.958 969.461 204.958 973.529Z" fill="#54F4FC"/>
<path d="M199.577 981.566C196.34 981.566 193.707 977.961 193.707 973.53C193.707 969.098 196.34 965.492 199.577 965.492C202.814 965.492 205.447 969.098 205.447 973.53C205.447 977.961 202.814 981.566 199.577 981.566ZM199.577 966.836C196.882 966.836 194.689 969.84 194.689 973.53C194.689 977.22 196.882 980.222 199.577 980.222C202.272 980.222 204.465 977.22 204.465 973.53C204.465 969.84 202.272 966.836 199.577 966.836Z" fill="#54F4FC"/>
<path d="M199.576 1086.29C203.116 1086.29 205.985 1082.36 205.985 1077.52C205.985 1072.67 203.116 1068.74 199.576 1068.74C196.037 1068.74 193.168 1072.67 193.168 1077.52C193.168 1082.36 196.037 1086.29 199.576 1086.29Z" fill="#54F4FC"/>
<path d="M199.576 1086.96C195.771 1086.96 192.676 1082.73 192.676 1077.52C192.676 1072.31 195.771 1068.07 199.576 1068.07C203.38 1068.07 206.475 1072.31 206.475 1077.52C206.475 1082.73 203.38 1086.96 199.576 1086.96ZM199.576 1069.41C196.313 1069.41 193.658 1073.05 193.658 1077.52C193.658 1081.98 196.313 1085.62 199.576 1085.62C202.839 1085.62 205.493 1081.98 205.493 1077.52C205.493 1073.05 202.838 1069.41 199.576 1069.41Z" fill="#54F4FC"/>
<path d="M186.625 1104.41C186.625 1109.47 183.63 1113.57 179.935 1113.57C176.241 1113.57 173.246 1109.47 173.246 1104.41C173.246 1099.35 176.241 1095.25 179.935 1095.25C183.63 1095.25 186.625 1099.35 186.625 1104.41Z" fill="#54F4FC"/>
<path d="M179.935 1114.24C175.975 1114.24 172.754 1109.83 172.754 1104.41C172.754 1098.99 175.975 1094.58 179.935 1094.58C183.894 1094.58 187.115 1098.99 187.115 1104.41C187.115 1109.83 183.894 1114.24 179.935 1114.24ZM179.935 1095.92C176.517 1095.92 173.736 1099.73 173.736 1104.41C173.736 1109.09 176.517 1112.9 179.935 1112.9C183.353 1112.9 186.133 1109.09 186.133 1104.41C186.133 1099.73 183.353 1095.92 179.935 1095.92Z" fill="#54F4FC"/>
<path d="M25.2275 741.051C25.2275 745.532 22.5742 749.165 19.3012 749.165C16.0283 749.165 13.375 745.532 13.375 741.051C13.375 736.57 16.0283 732.938 19.3012 732.938C22.5742 732.938 25.2275 736.57 25.2275 741.051Z" fill="#54F4FC"/>
<path d="M19.3001 749.837C15.7615 749.837 12.8828 745.896 12.8828 741.052C12.8828 736.208 15.7615 732.266 19.3001 732.266C22.8383 732.266 25.7169 736.208 25.7169 741.052C25.7174 745.896 22.8388 749.837 19.3001 749.837ZM19.3001 733.611C16.3031 733.611 13.865 736.949 13.865 741.052C13.865 745.154 16.3031 748.492 19.3001 748.492C22.2971 748.492 24.7348 745.154 24.7348 741.052C24.7353 736.949 22.2971 733.611 19.3001 733.611Z" fill="#54F4FC"/>
<path d="M43.1257 767.947C43.1257 771.111 41.2522 773.675 38.9417 773.675C36.6313 773.675 34.7578 771.111 34.7578 767.947C34.7578 764.783 36.6313 762.219 38.9417 762.219C41.2527 762.219 43.1257 764.783 43.1257 767.947Z" fill="#54F4FC"/>
<path d="M38.9406 774.349C36.3625 774.349 34.2656 771.478 34.2656 767.948C34.2656 764.419 36.3625 761.547 38.9406 761.547C41.5183 761.547 43.6156 764.419 43.6156 767.948C43.6156 771.478 41.5187 774.349 38.9406 774.349ZM38.9406 762.891C36.9046 762.891 35.2478 765.16 35.2478 767.948C35.2478 770.736 36.9046 773.004 38.9406 773.004C40.9771 773.004 42.6335 770.736 42.6335 767.948C42.6335 765.16 40.9771 762.891 38.9406 762.891Z" fill="#54F4FC"/>
<path d="M506.884 1037.47C506.884 1042.76 503.755 1047.04 499.895 1047.04C496.035 1047.04 492.906 1042.76 492.906 1037.47C492.906 1032.19 496.035 1027.91 499.895 1027.91C503.755 1027.91 506.884 1032.19 506.884 1037.47Z" fill="#54F4FC"/>
<path d="M499.894 1047.71C495.769 1047.71 492.414 1043.12 492.414 1037.48C492.414 1031.83 495.769 1027.23 499.894 1027.23C504.018 1027.23 507.374 1031.83 507.374 1037.48C507.374 1043.12 504.018 1047.71 499.894 1047.71ZM499.894 1028.58C496.311 1028.58 493.396 1032.57 493.396 1037.47C493.396 1042.38 496.311 1046.37 499.894 1046.37C503.477 1046.37 506.391 1042.38 506.391 1037.47C506.391 1032.57 503.476 1028.58 499.894 1028.58Z" fill="#54F4FC"/>
<path d="M272.413 1037.47C272.413 1042.05 269.705 1045.76 266.363 1045.76C263.021 1045.76 260.313 1042.05 260.313 1037.47C260.313 1032.9 263.021 1029.19 266.363 1029.19C269.705 1029.19 272.413 1032.9 272.413 1037.47Z" fill="#54F4FC"/>
<path d="M266.362 1046.43C262.755 1046.43 259.82 1042.41 259.82 1037.47C259.82 1032.53 262.755 1028.52 266.362 1028.52C269.97 1028.52 272.904 1032.53 272.904 1037.47C272.904 1042.41 269.97 1046.43 266.362 1046.43ZM266.362 1029.86C263.297 1029.86 260.802 1033.28 260.802 1037.47C260.802 1041.67 263.297 1045.08 266.362 1045.08C269.428 1045.08 271.922 1041.67 271.922 1037.47C271.922 1033.28 269.428 1029.86 266.362 1029.86Z" fill="#54F4FC"/>
<path d="M251.326 1064.37C251.326 1067.85 249.264 1070.67 246.721 1070.67C244.179 1070.67 242.117 1067.85 242.117 1064.37C242.117 1060.88 244.179 1058.06 246.721 1058.06C249.264 1058.06 251.326 1060.88 251.326 1064.37Z" fill="#54F4FC"/>
<path d="M246.721 1071.34C243.911 1071.34 241.625 1068.21 241.625 1064.37C241.625 1060.52 243.911 1057.39 246.721 1057.39C249.531 1057.39 251.816 1060.52 251.816 1064.37C251.816 1068.21 249.531 1071.34 246.721 1071.34ZM246.721 1058.74C244.453 1058.74 242.607 1061.26 242.607 1064.37C242.607 1067.47 244.453 1070 246.721 1070C248.989 1070 250.834 1067.47 250.834 1064.37C250.834 1061.26 248.989 1058.74 246.721 1058.74Z" fill="#54F4FC"/>
<path d="M471.532 152.991C471.532 156.632 469.376 159.583 466.717 159.583C464.058 159.583 461.902 156.632 461.902 152.991C461.902 149.35 464.058 146.398 466.717 146.398C469.376 146.398 471.532 149.35 471.532 152.991Z" fill="#54F4FC"/>
<path d="M466.717 160.256C463.791 160.256 461.41 156.997 461.41 152.99C461.41 148.985 463.791 145.727 466.717 145.727C469.642 145.727 472.023 148.985 472.023 152.99C472.023 156.997 469.642 160.256 466.717 160.256ZM466.717 147.072C464.333 147.072 462.392 149.727 462.392 152.991C462.392 156.256 464.333 158.911 466.717 158.911C469.101 158.911 471.041 156.256 471.041 152.991C471.041 149.727 469.101 147.072 466.717 147.072Z" fill="#54F4FC"/>
<path d="M271.864 152.992C271.864 157.151 269.402 160.523 266.364 160.523C263.326 160.523 260.863 157.151 260.863 152.992C260.863 148.832 263.326 145.461 266.364 145.461C269.402 145.461 271.864 148.832 271.864 152.992Z" fill="#54F4FC"/>
<path d="M266.363 161.195C263.059 161.195 260.371 157.515 260.371 152.992C260.371 148.469 263.059 144.789 266.363 144.789C269.666 144.789 272.354 148.469 272.354 152.992C272.354 157.515 269.666 161.195 266.363 161.195ZM266.363 146.133C263.6 146.133 261.353 149.21 261.353 152.992C261.353 156.774 263.6 159.851 266.363 159.851C269.125 159.851 271.372 156.774 271.372 152.992C271.372 149.21 269.125 146.133 266.363 146.133Z" fill="#54F4FC"/>
<path d="M246.718 132.32C249.227 132.32 251.261 129.536 251.261 126.102C251.261 122.667 249.227 119.883 246.718 119.883C244.209 119.883 242.176 122.667 242.176 126.102C242.176 129.536 244.209 132.32 246.718 132.32Z" fill="#54F4FC"/>
<path d="M246.717 132.993C243.942 132.993 241.684 129.902 241.684 126.102C241.684 122.302 243.942 119.211 246.717 119.211C249.492 119.211 251.75 122.302 251.75 126.102C251.75 129.902 249.492 132.993 246.717 132.993ZM246.717 120.556C244.483 120.556 242.666 123.044 242.666 126.102C242.666 129.16 244.483 131.648 246.717 131.648C248.951 131.648 250.768 129.16 250.768 126.102C250.768 123.044 248.951 120.556 246.717 120.556Z" fill="#54F4FC"/>
<path d="M428.445 353.119C428.445 357.184 426.038 360.481 423.068 360.481C420.099 360.481 417.691 357.185 417.691 353.119C417.691 349.053 420.099 345.758 423.068 345.758C426.038 345.758 428.445 349.053 428.445 353.119Z" fill="#54F4FC"/>
<path d="M423.067 361.152C419.832 361.152 417.199 357.548 417.199 353.119C417.199 348.689 419.832 345.086 423.067 345.086C426.302 345.086 428.934 348.69 428.934 353.119C428.934 357.548 426.302 361.152 423.067 361.152ZM423.067 346.43C420.373 346.43 418.181 349.431 418.181 353.119C418.181 356.808 420.373 359.808 423.067 359.808C425.76 359.808 427.952 356.808 427.952 353.119C427.952 349.431 425.761 346.43 423.067 346.43Z" fill="#54F4FC"/>
<path d="M273.349 361.813C276.855 361.813 279.697 357.921 279.697 353.121C279.697 348.321 276.855 344.43 273.349 344.43C269.842 344.43 267 348.321 267 353.121C267 357.921 269.842 361.813 273.349 361.813Z" fill="#54F4FC"/>
<path d="M273.347 362.485C269.576 362.485 266.508 358.284 266.508 353.122C266.508 347.958 269.576 343.758 273.347 343.758C277.119 343.758 280.187 347.959 280.187 353.122C280.187 358.284 277.118 362.485 273.347 362.485ZM273.347 345.102C270.118 345.102 267.49 348.699 267.49 353.122C267.49 357.544 270.118 361.141 273.347 361.141C276.577 361.141 279.205 357.544 279.205 353.122C279.204 348.699 276.577 345.102 273.347 345.102Z" fill="#54F4FC"/>
<path d="M253.703 332.061C256.057 332.061 257.965 329.448 257.965 326.226C257.965 323.003 256.057 320.391 253.703 320.391C251.35 320.391 249.441 323.003 249.441 326.226C249.441 329.448 251.35 332.061 253.703 332.061Z" fill="#54F4FC"/>
<path d="M253.702 332.733C251.081 332.733 248.949 329.814 248.949 326.226C248.949 322.638 251.081 319.719 253.702 319.719C256.323 319.719 258.455 322.638 258.455 326.226C258.455 329.814 256.323 332.733 253.702 332.733ZM253.702 321.063C251.623 321.063 249.931 323.379 249.931 326.226C249.931 329.073 251.623 331.389 253.702 331.389C255.781 331.389 257.473 329.073 257.473 326.226C257.473 323.379 255.781 321.063 253.702 321.063Z" fill="#54F4FC"/>
<path d="M253.703 232.237C256.499 232.237 258.766 229.134 258.766 225.306C258.766 221.478 256.499 218.375 253.703 218.375C250.907 218.375 248.641 221.478 248.641 225.306C248.641 229.134 250.907 232.237 253.703 232.237Z" fill="#54F4FC"/>
<path d="M253.702 232.91C250.64 232.91 248.148 229.499 248.148 225.306C248.148 221.114 250.64 217.703 253.702 217.703C256.764 217.703 259.255 221.114 259.255 225.306C259.255 229.499 256.764 232.91 253.702 232.91ZM253.702 219.047C251.181 219.047 249.131 221.855 249.131 225.306C249.131 228.757 251.181 231.565 253.702 231.565C256.223 231.565 258.273 228.757 258.273 225.306C258.273 221.855 256.222 219.047 253.702 219.047Z" fill="#54F4FC"/>
<path d="M234.061 205.104C236.759 205.104 238.946 202.109 238.946 198.415C238.946 194.721 236.759 191.727 234.061 191.727C231.363 191.727 229.176 194.721 229.176 198.415C229.176 202.109 231.363 205.104 234.061 205.104Z" fill="#54F4FC"/>
<path d="M234.06 205.775C231.095 205.775 228.684 202.474 228.684 198.415C228.684 194.356 231.095 191.055 234.06 191.055C237.024 191.055 239.436 194.357 239.436 198.415C239.436 202.474 237.024 205.775 234.06 205.775ZM234.06 192.399C231.637 192.399 229.666 195.098 229.666 198.415C229.666 201.732 231.637 204.431 234.06 204.431C236.482 204.431 238.454 201.732 238.454 198.415C238.454 195.098 236.482 192.399 234.06 192.399Z" fill="#54F4FC"/>
<path d="M151.124 204.704C153.662 204.704 155.72 201.886 155.72 198.411C155.72 194.935 153.662 192.117 151.124 192.117C148.585 192.117 146.527 194.935 146.527 198.411C146.527 201.886 148.585 204.704 151.124 204.704Z" fill="#54F4FC"/>
<path d="M151.123 205.376C148.317 205.376 146.035 202.251 146.035 198.411C146.035 194.57 148.318 191.445 151.123 191.445C153.928 191.445 156.21 194.57 156.21 198.411C156.21 202.251 153.928 205.376 151.123 205.376ZM151.123 192.79C148.859 192.79 147.017 195.311 147.017 198.411C147.017 201.511 148.859 204.032 151.123 204.032C153.386 204.032 155.228 201.511 155.228 198.411C155.228 195.311 153.386 192.79 151.123 192.79Z" fill="#54F4FC"/>
<path d="M138.825 171.527C138.825 176.65 135.791 180.803 132.049 180.803C128.307 180.803 125.273 176.65 125.273 171.527C125.273 166.404 128.307 162.25 132.049 162.25C135.791 162.25 138.825 166.403 138.825 171.527Z" fill="#54F4FC"/>
<path d="M132.048 181.476C128.041 181.476 124.781 177.013 124.781 171.527C124.781 166.042 128.041 161.578 132.048 161.578C136.055 161.578 139.315 166.041 139.315 171.527C139.315 177.013 136.055 181.476 132.048 181.476ZM132.048 162.923C128.583 162.923 125.763 166.783 125.763 171.527C125.763 176.271 128.583 180.132 132.048 180.132C135.514 180.132 138.333 176.271 138.333 171.527C138.333 166.783 135.514 162.923 132.048 162.923Z" fill="#54F4FC"/>
<path d="M520.848 440.676C523.592 440.676 525.816 437.63 525.816 433.873C525.816 430.116 523.592 427.07 520.848 427.07C518.103 427.07 515.879 430.116 515.879 433.873C515.879 437.63 518.103 440.676 520.848 440.676Z" fill="#54F4FC"/>
<path d="M520.847 441.348C517.836 441.348 515.387 437.995 515.387 433.873C515.387 429.752 517.836 426.398 520.847 426.398C523.858 426.398 526.306 429.752 526.306 433.873C526.307 437.996 523.858 441.348 520.847 441.348ZM520.847 427.743C518.378 427.743 516.369 430.494 516.369 433.873C516.369 437.254 518.378 440.004 520.847 440.004C523.316 440.004 525.324 437.254 525.324 433.873C525.325 430.494 523.316 427.743 520.847 427.743Z" fill="#54F4FC"/>
<path d="M354.949 433.874C354.949 437.485 352.811 440.411 350.174 440.411C347.537 440.411 345.398 437.484 345.398 433.874C345.398 430.264 347.536 427.336 350.174 427.336C352.811 427.337 354.949 430.263 354.949 433.874Z" fill="#54F4FC"/>
<path d="M350.172 441.083C347.269 441.083 344.906 437.849 344.906 433.874C344.906 429.898 347.269 426.664 350.172 426.664C353.076 426.664 355.439 429.898 355.439 433.874C355.439 437.849 353.076 441.083 350.172 441.083ZM350.172 428.008C347.81 428.008 345.888 430.639 345.888 433.873C345.888 437.107 347.81 439.738 350.172 439.738C352.535 439.738 354.457 437.107 354.457 433.873C354.457 430.639 352.535 428.008 350.172 428.008Z" fill="#54F4FC"/>
<path d="M330.528 414.144C333.417 414.144 335.759 410.937 335.759 406.982C335.759 403.027 333.417 399.82 330.528 399.82C327.639 399.82 325.297 403.027 325.297 406.982C325.297 410.937 327.639 414.144 330.528 414.144Z" fill="#54F4FC"/>
<path d="M330.527 414.816C327.372 414.816 324.805 411.302 324.805 406.982C324.805 402.663 327.372 399.148 330.527 399.148C333.681 399.148 336.249 402.663 336.249 406.982C336.249 411.302 333.682 414.816 330.527 414.816ZM330.527 400.493C327.913 400.493 325.787 403.404 325.787 406.982C325.787 410.561 327.913 413.472 330.527 413.472C333.14 413.472 335.266 410.561 335.266 406.982C335.266 403.404 333.14 400.493 330.527 400.493Z" fill="#54F4FC"/>
<path d="M527.796 640.657C527.796 645.913 524.684 650.173 520.845 650.173C517.006 650.173 513.895 645.912 513.895 640.657C513.895 635.401 517.006 631.141 520.845 631.141C524.684 631.141 527.796 635.401 527.796 640.657Z" fill="#54F4FC"/>
<path d="M520.844 650.846C516.741 650.846 513.402 646.274 513.402 640.657C513.402 635.039 516.741 630.469 520.844 630.469C524.947 630.469 528.285 635.04 528.285 640.657C528.285 646.274 524.947 650.846 520.844 650.846ZM520.844 631.813C517.282 631.813 514.384 635.78 514.384 640.657C514.384 645.534 517.282 649.501 520.844 649.501C524.405 649.501 527.303 645.534 527.303 640.657C527.303 635.78 524.405 631.813 520.844 631.813Z" fill="#54F4FC"/>
<path d="M436.27 640.649C436.27 644.442 434.024 647.516 431.254 647.516C428.484 647.516 426.238 644.442 426.238 640.649C426.238 636.856 428.484 633.781 431.254 633.781C434.024 633.781 436.27 636.856 436.27 640.649Z" fill="#54F4FC"/>
<path d="M431.253 648.19C428.217 648.19 425.746 644.807 425.746 640.65C425.746 636.492 428.217 633.109 431.253 633.109C434.29 633.109 436.761 636.492 436.761 640.65C436.761 644.808 434.29 648.19 431.253 648.19ZM431.253 634.454C428.758 634.454 426.728 637.233 426.728 640.65C426.728 644.066 428.758 646.845 431.253 646.845C433.749 646.845 435.779 644.066 435.779 640.65C435.779 637.233 433.749 634.454 431.253 634.454Z" fill="#54F4FC"/>
<path d="M411.61 676.168C415.09 676.168 417.911 672.306 417.911 667.541C417.911 662.777 415.09 658.914 411.61 658.914C408.13 658.914 405.309 662.777 405.309 667.541C405.309 672.306 408.13 676.168 411.61 676.168Z" fill="#54F4FC"/>
<path d="M411.609 676.842C407.864 676.842 404.816 672.67 404.816 667.542C404.816 662.414 407.864 658.242 411.609 658.242C415.354 658.242 418.401 662.414 418.401 667.542C418.401 672.671 415.354 676.842 411.609 676.842ZM411.609 659.588C408.405 659.588 405.799 663.157 405.799 667.543C405.799 671.929 408.405 675.498 411.609 675.498C414.812 675.498 417.419 671.929 417.419 667.543C417.419 663.157 414.813 659.588 411.609 659.588Z" fill="#54F4FC"/>
<path d="M559.598 542.645C559.598 545.543 557.882 547.892 555.766 547.892C553.649 547.892 551.934 545.543 551.934 542.645C551.934 539.748 553.649 537.398 555.766 537.398C557.882 537.399 559.598 539.748 559.598 542.645Z" fill="#54F4FC"/>
<path d="M555.764 548.564C553.381 548.564 551.441 545.909 551.441 542.645C551.441 539.382 553.381 536.727 555.764 536.727C558.149 536.727 560.088 539.382 560.088 542.645C560.088 545.909 558.148 548.564 555.764 548.564ZM555.764 538.071C553.922 538.071 552.424 540.123 552.424 542.645C552.424 545.167 553.922 547.219 555.764 547.219C557.607 547.219 559.106 545.167 559.106 542.645C559.106 540.123 557.607 538.071 555.764 538.071Z" fill="#54F4FC"/>
<path d="M477.631 548.813C480.119 548.813 482.136 546.052 482.136 542.645C482.136 539.238 480.119 536.477 477.631 536.477C475.142 536.477 473.125 539.238 473.125 542.645C473.125 546.052 475.142 548.813 477.631 548.813Z" fill="#54F4FC"/>
<path d="M477.63 549.486C474.875 549.486 472.633 546.417 472.633 542.645C472.633 538.873 474.875 535.805 477.63 535.805C480.384 535.805 482.626 538.873 482.626 542.645C482.626 546.417 480.385 549.486 477.63 549.486ZM477.63 537.15C475.416 537.15 473.615 539.615 473.615 542.645C473.615 545.676 475.416 548.141 477.63 548.141C479.844 548.141 481.644 545.676 481.644 542.645C481.644 539.615 479.844 537.15 477.63 537.15Z" fill="#54F4FC"/>
<path d="M463.818 569.538C463.818 573.947 461.208 577.522 457.987 577.522C454.767 577.522 452.156 573.947 452.156 569.538C452.156 565.129 454.767 561.555 457.987 561.555C461.208 561.555 463.818 565.129 463.818 569.538Z" fill="#54F4FC"/>
<path d="M457.987 578.193C454.5 578.193 451.664 574.31 451.664 569.538C451.664 564.765 454.5 560.883 457.987 560.883C461.472 560.883 464.308 564.766 464.308 569.538C464.309 574.31 461.472 578.193 457.987 578.193ZM457.987 562.227C455.042 562.227 452.646 565.507 452.646 569.538C452.646 573.569 455.042 576.849 457.987 576.849C460.931 576.849 463.326 573.569 463.326 569.538C463.327 565.507 460.932 562.227 457.987 562.227Z" fill="#54F4FC"/>
<path d="M464.289 721.33C464.289 726.095 461.468 729.957 457.988 729.957C454.508 729.957 451.688 726.095 451.688 721.33C451.688 716.565 454.509 712.703 457.988 712.703C461.468 712.703 464.289 716.565 464.289 721.33Z" fill="#54F4FC"/>
<path d="M457.988 730.631C454.242 730.631 451.195 726.459 451.195 721.331C451.195 716.203 454.242 712.031 457.988 712.031C461.732 712.031 464.779 716.203 464.779 721.331C464.78 726.46 461.732 730.631 457.988 730.631ZM457.988 713.377C454.785 713.377 452.177 716.946 452.177 721.332C452.177 725.718 454.785 729.287 457.988 729.287C461.192 729.287 463.797 725.718 463.797 721.332C463.798 716.946 461.192 713.377 457.988 713.377Z" fill="#54F4FC"/>
<path d="M438.346 755.921C441.452 755.921 443.969 752.474 443.969 748.222C443.969 743.97 441.452 740.523 438.346 740.523C435.24 740.523 432.723 743.97 432.723 748.222C432.723 752.474 435.24 755.921 438.346 755.921Z" fill="#54F4FC"/>
<path d="M438.345 756.593C434.974 756.593 432.23 752.838 432.23 748.223C432.23 743.607 434.974 739.852 438.345 739.852C441.716 739.852 444.459 743.607 444.459 748.223C444.46 752.838 441.717 756.593 438.345 756.593ZM438.345 741.195C435.514 741.195 433.213 744.347 433.213 748.222C433.213 752.097 435.514 755.249 438.345 755.249C441.175 755.249 443.477 752.097 443.477 748.222C443.478 744.347 441.175 741.195 438.345 741.195Z" fill="#54F4FC"/>
<path d="M385.093 753.294C387.137 753.294 388.795 751.024 388.795 748.225C388.795 745.426 387.137 743.156 385.093 743.156C383.048 743.156 381.391 745.426 381.391 748.225C381.391 751.024 383.048 753.294 385.093 753.294Z" fill="#54F4FC"/>
<path d="M385.092 753.966C382.78 753.966 380.898 751.391 380.898 748.225C380.898 745.059 382.78 742.484 385.092 742.484C387.404 742.484 389.285 745.059 389.285 748.225C389.285 751.391 387.404 753.966 385.092 753.966ZM385.092 743.829C383.321 743.829 381.881 745.801 381.881 748.225C381.881 750.649 383.321 752.622 385.092 752.622C386.862 752.622 388.303 750.65 388.303 748.225C388.303 745.801 386.863 743.829 385.092 743.829Z" fill="#54F4FC"/>
<path d="M370.238 775.116C370.238 778.736 368.095 781.669 365.451 781.669C362.807 781.669 360.664 778.736 360.664 775.116C360.664 771.496 362.807 768.563 365.451 768.563C368.095 768.563 370.238 771.497 370.238 775.116Z" fill="#54F4FC"/>
<path d="M365.45 782.343C362.539 782.343 360.172 779.101 360.172 775.117C360.172 771.133 362.539 767.891 365.45 767.891C368.36 767.891 370.728 771.133 370.728 775.117C370.728 779.101 368.36 782.343 365.45 782.343ZM365.45 769.235C363.081 769.235 361.154 771.873 361.154 775.116C361.154 778.36 363.081 780.998 365.45 780.998C367.818 780.998 369.746 778.359 369.746 775.116C369.746 771.873 367.818 769.235 365.45 769.235Z" fill="#54F4FC"/>
<path d="M370.564 862.371C370.564 866.239 368.274 869.375 365.448 869.375C362.622 869.375 360.332 866.239 360.332 862.371C360.332 858.503 362.622 855.367 365.448 855.367C368.274 855.367 370.564 858.503 370.564 862.371Z" fill="#54F4FC"/>
<path d="M365.447 870.049C362.355 870.049 359.84 866.604 359.84 862.372C359.84 858.139 362.355 854.695 365.447 854.695C368.539 854.695 371.054 858.139 371.054 862.372C371.054 866.604 368.539 870.049 365.447 870.049ZM365.447 856.04C362.897 856.04 360.822 858.881 360.822 862.372C360.822 865.863 362.897 868.704 365.447 868.704C367.997 868.704 370.072 865.863 370.072 862.372C370.072 858.881 367.998 856.04 365.447 856.04Z" fill="#54F4FC"/>
<path d="M385.093 894.956C387.388 894.956 389.248 892.409 389.248 889.267C389.248 886.125 387.388 883.578 385.093 883.578C382.798 883.578 380.938 886.125 380.938 889.267C380.938 892.409 382.798 894.956 385.093 894.956Z" fill="#54F4FC"/>
<path d="M385.092 895.629C382.529 895.629 380.445 892.776 380.445 889.267C380.445 885.76 382.529 882.906 385.092 882.906C387.654 882.906 389.738 885.76 389.738 889.267C389.738 892.776 387.654 895.629 385.092 895.629ZM385.092 884.251C383.072 884.251 381.427 886.502 381.427 889.267C381.427 892.034 383.072 894.285 385.092 894.285C387.112 894.285 388.756 892.035 388.756 889.267C388.756 886.502 387.112 884.251 385.092 884.251Z" fill="#54F4FC"/>
<path d="M431.363 895.134C433.732 895.134 435.652 892.505 435.652 889.263C435.652 886.02 433.732 883.391 431.363 883.391C428.994 883.391 427.074 886.02 427.074 889.263C427.074 892.505 428.994 895.134 431.363 895.134Z" fill="#54F4FC"/>
<path d="M431.362 895.808C428.726 895.808 426.582 892.872 426.582 889.263C426.582 885.655 428.726 882.719 431.362 882.719C433.998 882.719 436.142 885.655 436.142 889.263C436.142 892.872 433.998 895.808 431.362 895.808ZM431.362 884.064C429.267 884.064 427.564 886.396 427.564 889.263C427.564 892.132 429.268 894.463 431.362 894.463C433.457 894.463 435.16 892.131 435.16 889.263C435.16 886.396 433.456 884.064 431.362 884.064Z" fill="#54F4FC"/>
<path d="M457.283 916.155C457.283 920.901 454.473 924.748 451.007 924.748C447.54 924.748 444.73 920.901 444.73 916.155C444.73 911.41 447.54 907.563 451.007 907.563C454.473 907.563 457.283 911.41 457.283 916.155Z" fill="#54F4FC"/>
<path d="M451.006 925.422C447.274 925.422 444.238 921.266 444.238 916.156C444.238 911.046 447.274 906.891 451.006 906.891C454.737 906.891 457.772 911.046 457.772 916.156C457.772 921.265 454.736 925.422 451.006 925.422ZM451.006 908.236C447.816 908.236 445.22 911.789 445.22 916.156C445.22 920.524 447.816 924.077 451.006 924.077C454.196 924.077 456.79 920.523 456.79 916.156C456.79 911.789 454.196 908.236 451.006 908.236Z" fill="#54F4FC"/>
</g>
</g>
<defs>
<clipPath id="clip0_203_29818">
<rect width="560.09" height="1142.66" fill="white"/>
</clipPath>
</defs>
</svg>
