<svg width="378" height="161" viewBox="0 0 378 161" fill="none" xmlns="http://www.w3.org/2000/svg">
<path d="M103.374 2.90242V97.4171H120.588V127.646H103.373V157.902H62.9893V127.646H0.65625V97.4971L65.3516 2.90242H103.374ZM61.5186 55.3331C59.1101 60.7879 56.3834 65.8869 53.3418 70.628L36.0205 96.3946L35.333 97.4171H62.9893V78.585C62.9893 75.1776 63.1118 70.575 63.3623 64.7677V64.7667C63.4863 61.8644 63.5968 59.6562 63.6943 58.1397C63.7431 57.3807 63.7888 56.8009 63.8301 56.3966C63.8508 56.1935 63.87 56.0423 63.8867 55.9386C63.8934 55.8969 63.8982 55.8676 63.9023 55.8487L64.3633 54.9415H61.6904L61.5186 55.3331Z" fill="#54F4FC" stroke="#1E293B" stroke-width="1.31279"/>
<path d="M188.708 0.65625C207.129 0.65625 220.973 7.33124 230.348 20.6387C239.751 33.9886 244.501 53.9454 244.501 80.6162C244.501 108.226 239.87 128.317 230.727 141.016C221.611 153.673 207.645 160.04 188.708 160.04C170.212 160.04 156.351 153.401 147.012 140.164C137.644 126.89 132.912 107.071 132.912 80.6143C132.912 52.8628 137.542 32.6468 146.689 19.8398C155.805 7.07628 169.77 0.656352 188.708 0.65625ZM188.707 33.1309C185.949 33.1309 183.563 34.0245 181.584 35.8135C179.618 37.5899 178.09 40.2161 176.964 43.6309C174.717 50.4435 173.616 62.8014 173.616 80.6162C173.616 97.7363 174.649 109.769 176.757 116.634L176.964 117.282C178.091 120.663 179.62 123.263 181.586 125.021C183.566 126.791 185.952 127.674 188.707 127.674C191.5 127.674 193.91 126.762 195.899 124.935C197.873 123.121 199.396 120.439 200.504 116.952C202.712 110.003 203.795 97.8654 203.795 80.6162C203.795 63.8375 202.762 51.8364 200.659 44.6885L200.452 44.0117L200.236 43.3584C199.134 40.1373 197.677 37.6392 195.836 35.9141C193.858 34.0599 191.469 33.1309 188.707 33.1309Z" fill="#54F4FC" stroke="#1E293B" stroke-width="1.31279"/>
<path d="M359.97 2.90242V97.4171H377.182V127.646H359.97V157.902H319.585V127.646H257.252V97.4971L321.948 2.90242H359.97ZM318.115 55.3331C315.706 60.7878 312.978 65.8868 309.938 70.628L292.618 96.3946L291.93 97.4171H319.585V78.585C319.585 75.1776 319.708 70.575 319.958 64.7677V64.7667C320.082 61.8644 320.193 59.6562 320.291 58.1397C320.339 57.3807 320.385 56.8009 320.426 56.3966C320.447 56.1935 320.466 56.0423 320.483 55.9386C320.49 55.8969 320.494 55.8676 320.499 55.8487L320.959 54.9415H318.288L318.115 55.3331Z" fill="#54F4FC" stroke="#1E293B" stroke-width="1.31279"/>
</svg>
