<svg width="32" height="32" viewBox="0 0 32 32" fill="none" xmlns="http://www.w3.org/2000/svg">
<path d="M16 26.6667V29.3334" stroke="#E12204" stroke-width="2.66667" stroke-linecap="round" stroke-linejoin="round"/>
<path d="M16 2.66669V5.33335" stroke="#E12204" stroke-width="2.66667" stroke-linecap="round" stroke-linejoin="round"/>
<path d="M22.666 26.6667V29.3334" stroke="#E12204" stroke-width="2.66667" stroke-linecap="round" stroke-linejoin="round"/>
<path d="M22.666 2.66669V5.33335" stroke="#E12204" stroke-width="2.66667" stroke-linecap="round" stroke-linejoin="round"/>
<path d="M2.66602 16H5.33268" stroke="#E12204" stroke-width="2.66667" stroke-linecap="round" stroke-linejoin="round"/>
<path d="M2.66602 22.6667H5.33268" stroke="#E12204" stroke-width="2.66667" stroke-linecap="round" stroke-linejoin="round"/>
<path d="M2.66602 9.33331H5.33268" stroke="#E12204" stroke-width="2.66667" stroke-linecap="round" stroke-linejoin="round"/>
<path d="M26.666 16H29.3327" stroke="#E12204" stroke-width="2.66667" stroke-linecap="round" stroke-linejoin="round"/>
<path d="M26.666 22.6667H29.3327" stroke="#E12204" stroke-width="2.66667" stroke-linecap="round" stroke-linejoin="round"/>
<path d="M26.666 9.33331H29.3327" stroke="#E12204" stroke-width="2.66667" stroke-linecap="round" stroke-linejoin="round"/>
<path d="M9.33398 26.6667V29.3334" stroke="#E12204" stroke-width="2.66667" stroke-linecap="round" stroke-linejoin="round"/>
<path d="M9.33398 2.66669V5.33335" stroke="#E12204" stroke-width="2.66667" stroke-linecap="round" stroke-linejoin="round"/>
<path d="M24.0007 5.33331H8.00065C6.52789 5.33331 5.33398 6.52722 5.33398 7.99998V24C5.33398 25.4727 6.52789 26.6666 8.00065 26.6666H24.0007C25.4734 26.6666 26.6673 25.4727 26.6673 24V7.99998C26.6673 6.52722 25.4734 5.33331 24.0007 5.33331Z" stroke="#E12204" stroke-width="2.66667" stroke-linecap="round" stroke-linejoin="round"/>
<path d="M19.9993 10.6667H11.9993C11.263 10.6667 10.666 11.2636 10.666 12V20C10.666 20.7364 11.263 21.3334 11.9993 21.3334H19.9993C20.7357 21.3334 21.3327 20.7364 21.3327 20V12C21.3327 11.2636 20.7357 10.6667 19.9993 10.6667Z" stroke="#E12204" stroke-width="2.66667" stroke-linecap="round" stroke-linejoin="round"/>
</svg>
