<svg width="438" height="1037" viewBox="0 0 438 1037" fill="none" xmlns="http://www.w3.org/2000/svg">
<g clip-path="url(#clip0_203_6614)">
<g opacity="0.08">
<path d="M223.089 438.818L70.3118 438.818C60.0224 438.818 51.6512 428.425 51.6512 415.65V349.536C51.6512 335.417 42.3989 323.93 31.0262 323.93H-57.1485C-67.4379 323.93 -75.8092 313.538 -75.8092 300.763V147.942C-75.8092 133.823 -85.0614 122.336 -96.4341 122.336L-298.537 122.336V124.775L-96.4341 124.775C-86.1447 124.775 -77.7734 135.167 -77.7734 147.942V300.764C-77.7734 314.883 -68.5212 326.369 -57.1485 326.369H31.0262C41.3156 326.369 49.6869 336.762 49.6869 349.537V415.651C49.6869 429.77 58.9391 441.257 70.3118 441.257L223.089 441.257C233.379 441.257 241.75 451.649 241.75 464.424V492.468C241.75 505.243 233.379 515.635 223.089 515.635L-298.537 515.635V518.073L223.089 518.073C234.462 518.073 243.714 506.587 243.714 492.468V464.423C243.714 450.304 234.462 438.818 223.089 438.818Z" fill="#176DB3"/>
<path d="M168.417 0L168.417 643.26C168.417 656.035 160.046 666.427 149.756 666.427H42.3753C31.0026 666.427 21.7504 677.915 21.7504 692.033V933.729C21.7504 946.503 13.3791 956.896 3.08968 956.896L-197.704 956.896C-207.993 956.896 -216.364 946.503 -216.364 933.729L-216.364 663.853C-216.364 649.734 -225.617 638.247 -236.989 638.247H-298.537V640.686H-236.989C-226.7 640.686 -218.329 651.079 -218.329 663.853L-218.329 933.729C-218.329 947.847 -209.076 959.335 -197.704 959.335L3.08968 959.335C14.4624 959.335 23.7146 947.847 23.7146 933.729V692.033C23.7146 679.258 32.0859 668.866 42.3753 668.866H149.756C161.129 668.866 170.381 657.379 170.381 643.26L170.381 0L168.417 0Z" fill="#176DB3"/>
<path d="M-165.074 369.051V589.071C-165.074 603.19 -155.822 614.677 -144.449 614.677L83.4072 614.677C93.6966 614.677 102.068 625.07 102.068 637.844V751.647C102.068 765.766 111.32 777.253 122.693 777.253H179.439C189.728 777.253 198.1 787.645 198.1 800.42V1036.15H200.064V800.419C200.064 786.301 190.812 774.814 179.439 774.814H122.693C112.403 774.814 104.032 764.421 104.032 751.646V637.843C104.032 623.725 94.7799 612.238 83.4072 612.238L-144.449 612.238C-154.739 612.238 -163.11 601.845 -163.11 589.071V369.051C-163.11 354.932 -172.362 343.445 -183.735 343.445L-298.537 343.445V345.884L-183.735 345.884C-173.446 345.884 -165.074 356.277 -165.074 369.051Z" fill="#176DB3"/>
<path d="M95.0835 0V68.8242C95.0835 81.5988 86.7122 91.9914 76.4228 91.9914L-51.9101 91.9914C-62.1995 91.9914 -70.5708 81.5988 -70.5708 68.8242V0L-72.5351 0V68.8242C-72.5351 82.9433 -63.2828 94.43 -51.9101 94.43L76.4228 94.43C87.7955 94.43 97.0478 82.9433 97.0478 68.8242V0L95.0835 0Z" fill="#176DB3"/>
<path d="M241.75 0V257.412C241.75 270.187 233.379 280.58 223.089 280.58L115.708 280.58C105.419 280.58 97.0477 270.187 97.0477 257.412V249.825C97.0477 235.706 87.7954 224.22 76.4227 224.22H37.1371C25.7644 224.22 16.5121 235.706 16.5121 249.825V361.461C16.5121 375.58 25.7644 387.067 37.1371 387.067H102.613C112.903 387.067 121.274 397.459 121.274 410.234V547.881C121.274 562 130.526 573.487 141.899 573.487H205.629C215.918 573.487 224.289 583.879 224.289 596.654V694.2C224.289 706.974 215.918 717.367 205.629 717.367L-298.537 717.367V719.806L205.629 719.806C217.002 719.806 226.254 708.318 226.254 694.2V596.654C226.254 582.536 217.002 571.048 205.629 571.048H141.899C131.61 571.048 123.238 560.656 123.238 547.881V410.234C123.238 396.115 113.986 384.628 102.613 384.628H37.1371C26.8477 384.628 18.4764 374.235 18.4764 361.461V249.825C18.4764 237.051 26.8477 226.658 37.1371 226.658H76.4227C86.7121 226.658 95.0834 237.051 95.0834 249.825V257.412C95.0834 271.532 104.336 283.018 115.708 283.018L223.089 283.018C234.462 283.018 243.714 271.532 243.714 257.412V0L241.75 0Z" fill="#176DB3"/>
<path d="M-173.805 926.139V977.08C-173.805 991.198 -164.552 1002.69 -153.18 1002.69L57.2171 1002.69C68.5898 1002.69 77.842 991.198 77.842 977.08V882.786C77.842 870.012 86.2133 859.619 96.5027 859.619H235.312C245.601 859.619 253.972 870.012 253.972 882.786V1036.15H255.937V882.785C255.937 868.667 246.684 857.18 235.312 857.18H96.5027C85.13 857.18 75.8778 868.667 75.8778 882.785V977.079C75.8778 989.853 67.5065 1000.25 57.2171 1000.25L-153.18 1000.25C-163.469 1000.25 -171.84 989.853 -171.84 977.079V926.139C-171.84 912.02 -181.093 900.533 -192.465 900.533H-298.536V902.972H-192.465C-182.176 902.972 -173.805 913.365 -173.805 926.139Z" fill="#176DB3"/>
<path d="M124.985 1036.15V965.16C124.985 952.387 133.356 941.993 143.645 941.993L377.176 941.993V939.555L143.645 939.555C132.273 939.555 123.02 951.042 123.02 965.16V1036.15H124.985Z" fill="#176DB3"/>
<path d="M124.985 114.345V0L123.02 0V114.345C123.02 128.464 132.273 139.951 143.645 139.951L344.002 139.951V137.512L143.645 137.512C133.356 137.512 124.985 127.119 124.985 114.345Z" fill="#176DB3"/>
<path d="M131.969 295.821V204.304C131.969 190.184 122.716 178.698 111.344 178.698L28.4073 178.698C23.4495 178.698 18.8324 176.286 15.4048 171.907C11.9781 167.527 10.1695 161.728 10.3124 155.576C10.3241 155.074 11.4865 104.717 11.9938 54.2127C12.2202 31.7032 12.2717 13.9759 12.205 0L10.249 0C10.4484 43.7981 9.47264 107.148 8.34907 155.506C8.19045 162.323 10.196 168.751 13.9959 173.607C17.7963 178.463 22.9142 181.137 28.4073 181.137L111.344 181.137C121.633 181.137 130.004 191.53 130.004 204.304V295.821C130.004 309.94 139.257 321.427 150.629 321.427L300.352 321.427V318.988L150.629 318.988C140.339 318.988 131.969 308.595 131.969 295.821Z" fill="#176DB3"/>
<path d="M208.794 369.048L208.794 0L206.829 0L206.829 369.048C206.829 383.167 216.081 394.654 227.454 394.654L398.129 394.654V392.215L227.454 392.215C217.165 392.215 208.794 381.822 208.794 369.048Z" fill="#176DB3"/>
<path d="M289.875 1036.15V605.324C289.875 592.55 298.246 582.157 308.536 582.157H398.129V579.719H308.536C297.163 579.719 287.911 591.206 287.911 605.324V1036.15H289.875Z" fill="#176DB3"/>
<path d="M354.915 490.844C343.543 490.844 334.29 502.33 334.29 516.449V654.097C334.29 666.872 325.918 677.265 315.629 677.265H262.375C251.002 677.265 241.75 688.752 241.75 702.87V781.99C241.75 796.109 251.002 807.596 262.375 807.596H308.645C318.934 807.596 327.306 817.989 327.306 830.763V1036.15H329.27V830.764C329.27 816.645 320.017 805.158 308.645 805.158H262.375C252.086 805.158 243.714 794.765 243.714 781.991V702.871C243.714 690.097 252.086 679.704 262.375 679.704H315.629C327.001 679.704 336.254 668.217 336.254 654.098V516.449C336.254 503.675 344.625 493.282 354.915 493.282L433.048 493.282V490.844L354.915 490.844Z" fill="#176DB3"/>
<path d="M229.413 516.859C229.413 521.195 226.582 524.71 223.089 524.71C219.597 524.71 216.766 521.195 216.766 516.859C216.766 512.523 219.597 509.008 223.089 509.008C226.582 509.008 229.413 512.523 229.413 516.859Z" fill="#54F4FC"/>
<path d="M223.09 525.319C219.332 525.319 216.275 521.525 216.275 516.859C216.275 512.194 219.332 508.398 223.09 508.398C226.847 508.398 229.904 512.194 229.904 516.859C229.904 521.525 226.847 525.319 223.09 525.319ZM223.09 509.618C219.874 509.618 217.257 512.867 217.257 516.859C217.257 520.851 219.874 524.1 223.09 524.1C226.306 524.1 228.922 520.851 228.922 516.859C228.922 512.867 226.306 509.618 223.09 509.618Z" fill="#54F4FC"/>
<path d="M246.907 492.472C246.907 495.334 245.038 497.654 242.732 497.654C240.427 497.654 238.558 495.334 238.558 492.472C238.558 489.609 240.427 487.289 242.732 487.289C245.038 487.289 246.907 489.609 246.907 492.472Z" fill="#54F4FC"/>
<path d="M242.732 498.264C240.159 498.264 238.066 495.666 238.066 492.472C238.066 489.277 240.159 486.68 242.732 486.68C245.305 486.68 247.398 489.278 247.398 492.472C247.398 495.666 245.305 498.264 242.732 498.264ZM242.732 487.899C240.701 487.899 239.049 489.95 239.049 492.472C239.049 494.993 240.701 497.045 242.732 497.045C244.763 497.045 246.416 494.993 246.416 492.472C246.416 489.95 244.763 487.899 242.732 487.899Z" fill="#54F4FC"/>
<path d="M248.954 464.428C248.954 468.694 246.169 472.153 242.732 472.153C239.296 472.153 236.51 468.694 236.51 464.428C236.51 460.161 239.296 456.703 242.732 456.703C246.169 456.703 248.954 460.161 248.954 464.428Z" fill="#54F4FC"/>
<path d="M242.732 472.763C239.03 472.763 236.019 469.024 236.019 464.428C236.019 459.832 239.03 456.094 242.732 456.094C246.434 456.094 249.445 459.832 249.445 464.428C249.445 469.024 246.434 472.763 242.732 472.763ZM242.732 457.313C239.571 457.313 237.001 460.505 237.001 464.428C237.001 468.351 239.571 471.543 242.732 471.543C245.893 471.543 248.463 468.351 248.463 464.428C248.463 460.505 245.893 457.313 242.732 457.313Z" fill="#54F4FC"/>
<path d="M229.209 440.043C229.209 444.239 226.47 447.64 223.089 447.64C219.709 447.64 216.97 444.239 216.97 440.043C216.97 435.847 219.709 432.445 223.089 432.445C226.47 432.445 229.209 435.846 229.209 440.043Z" fill="#54F4FC"/>
<path d="M223.089 448.25C219.444 448.25 216.479 444.568 216.479 440.043C216.479 435.518 219.444 431.836 223.089 431.836C226.735 431.836 229.7 435.518 229.7 440.043C229.7 444.568 226.735 448.25 223.089 448.25ZM223.089 433.055C219.986 433.055 217.461 436.19 217.461 440.043C217.461 443.896 219.986 447.031 223.089 447.031C226.193 447.031 228.718 443.896 228.718 440.043C228.718 436.19 226.193 433.055 223.089 433.055Z" fill="#54F4FC"/>
<path d="M74.9823 440.041C74.9823 443.243 72.8913 445.84 70.3117 445.84C67.7321 445.84 65.6411 443.244 65.6411 440.041C65.6411 436.838 67.7321 434.242 70.3117 434.242C72.8913 434.242 74.9823 436.838 74.9823 440.041Z" fill="#54F4FC"/>
<path d="M70.3121 446.449C67.4658 446.449 65.1504 443.574 65.1504 440.041C65.1504 436.508 67.4658 433.633 70.3121 433.633C73.1583 433.633 75.4742 436.508 75.4742 440.041C75.4742 443.574 73.1583 446.449 70.3121 446.449ZM70.3121 434.852C68.008 434.852 66.1325 437.179 66.1325 440.041C66.1325 442.903 68.0075 445.23 70.3121 445.23C72.6166 445.23 74.492 442.903 74.492 440.041C74.492 437.179 72.6166 434.852 70.3121 434.852Z" fill="#54F4FC"/>
<path d="M50.6689 423.546C54.1787 423.546 57.0239 420.013 57.0239 415.656C57.0239 411.298 54.1787 407.766 50.6689 407.766C47.1592 407.766 44.314 411.298 44.314 415.656C44.314 420.013 47.1592 423.546 50.6689 423.546Z" fill="#54F4FC"/>
<path d="M50.669 424.155C46.8942 424.155 43.823 420.342 43.823 415.656C43.823 410.969 46.8942 407.156 50.669 407.156C54.4444 407.156 57.515 410.969 57.515 415.656C57.515 420.343 54.4439 424.155 50.669 424.155ZM50.669 408.376C47.4353 408.376 44.8051 411.642 44.8051 415.656C44.8051 419.671 47.4353 422.936 50.669 422.936C53.9027 422.936 56.5329 419.671 56.5329 415.656C56.5329 411.641 53.9027 408.376 50.669 408.376Z" fill="#54F4FC"/>
<path d="M50.6691 356.406C53.7241 356.406 56.2005 353.332 56.2005 349.539C56.2005 345.746 53.7241 342.672 50.6691 342.672C47.6142 342.672 45.1377 345.746 45.1377 349.539C45.1377 353.332 47.6142 356.406 50.6691 356.406Z" fill="#54F4FC"/>
<path d="M50.6692 357.016C47.3481 357.016 44.6467 353.662 44.6467 349.539C44.6467 345.417 47.3481 342.062 50.6692 342.062C53.9903 342.062 56.6917 345.416 56.6917 349.539C56.6917 353.663 53.9903 357.016 50.6692 357.016ZM50.6692 343.282C47.8903 343.282 45.6289 346.089 45.6289 349.539C45.6289 352.989 47.8898 355.796 50.6692 355.796C53.4482 355.796 55.7096 352.989 55.7096 349.539C55.7096 346.089 53.4482 343.282 50.6692 343.282Z" fill="#54F4FC"/>
<path d="M35.3756 325.15C35.3756 328.132 33.4285 330.549 31.0262 330.549C28.6238 330.549 26.6768 328.132 26.6768 325.15C26.6768 322.167 28.6238 319.75 31.0262 319.75C33.4285 319.749 35.3756 322.167 35.3756 325.15Z" fill="#54F4FC"/>
<path d="M31.026 331.16C28.3571 331.16 26.186 328.464 26.186 325.15C26.186 321.836 28.3576 319.141 31.026 319.141C33.6955 319.141 35.8665 321.836 35.8665 325.15C35.8665 328.464 33.695 331.16 31.026 331.16ZM31.026 320.36C28.8987 320.36 27.1682 322.508 27.1682 325.15C27.1682 327.792 28.8987 329.94 31.026 329.94C33.1538 329.94 34.8844 327.792 34.8844 325.15C34.8844 322.509 33.1538 320.36 31.026 320.36Z" fill="#54F4FC"/>
<path d="M174.568 643.262C174.568 646.807 172.254 649.68 169.399 649.68C166.544 649.68 164.229 646.806 164.229 643.262C164.229 639.717 166.544 636.844 169.399 636.844C172.254 636.844 174.568 639.717 174.568 643.262Z" fill="#54F4FC"/>
<path d="M169.399 650.289C166.278 650.289 163.738 647.136 163.738 643.262C163.738 639.387 166.278 636.234 169.399 636.234C172.52 636.234 175.059 639.387 175.059 643.262C175.06 647.136 172.521 650.289 169.399 650.289ZM169.399 637.453C166.819 637.453 164.72 640.058 164.72 643.262C164.72 646.465 166.819 649.07 169.399 649.07C171.978 649.07 174.077 646.465 174.077 643.262C174.078 640.058 171.978 637.453 169.399 637.453Z" fill="#54F4FC"/>
<path d="M154.844 667.644C154.844 671.133 152.566 673.961 149.756 673.961C146.946 673.961 144.668 671.133 144.668 667.644C144.668 664.156 146.947 661.328 149.756 661.328C152.566 661.328 154.844 664.156 154.844 667.644Z" fill="#54F4FC"/>
<path d="M149.756 674.57C146.68 674.57 144.178 671.464 144.178 667.645C144.178 663.825 146.681 660.719 149.756 660.719C152.832 660.719 155.335 663.825 155.335 667.645C155.335 671.464 152.832 674.57 149.756 674.57ZM149.756 661.937C147.222 661.937 145.16 664.497 145.16 667.644C145.16 670.791 147.222 673.351 149.756 673.351C152.291 673.351 154.353 670.791 154.353 667.644C154.353 664.498 152.291 661.937 149.756 661.937Z" fill="#54F4FC"/>
<path d="M49.2751 667.644C49.2751 672.375 46.1858 676.21 42.3756 676.21C38.5649 676.21 35.4761 672.375 35.4761 667.644C35.4761 662.913 38.5649 659.078 42.3756 659.078C46.1863 659.078 49.2751 662.913 49.2751 667.644Z" fill="#54F4FC"/>
<path d="M42.3752 676.82C38.2998 676.82 34.9846 672.704 34.9846 667.645C34.9846 662.585 38.2998 658.469 42.3752 658.469C46.4506 658.469 49.7658 662.585 49.7658 667.645C49.7658 672.704 46.4506 676.82 42.3752 676.82ZM42.3752 659.688C38.842 659.688 35.9668 663.258 35.9668 667.645C35.9668 672.031 38.8415 675.6 42.3752 675.6C45.9085 675.6 48.7837 672.031 48.7837 667.645C48.7837 663.258 45.9085 659.688 42.3752 659.688Z" fill="#54F4FC"/>
<path d="M28.1934 692.03C28.1934 695.774 25.7483 698.81 22.7322 698.81C19.716 698.81 17.271 695.775 17.271 692.03C17.271 688.286 19.716 685.25 22.7322 685.25C25.7483 685.25 28.1934 688.286 28.1934 692.03Z" fill="#54F4FC"/>
<path d="M22.7325 699.42C19.4502 699.42 16.7803 696.105 16.7803 692.03C16.7803 687.956 19.4507 684.641 22.7325 684.641C26.0148 684.641 28.6848 687.956 28.6848 692.03C28.6848 696.105 26.0148 699.42 22.7325 699.42ZM22.7325 685.86C19.9919 685.86 17.7624 688.628 17.7624 692.03C17.7624 695.432 19.9919 698.201 22.7325 698.201C25.4732 698.201 27.7027 695.432 27.7027 692.03C27.7027 688.628 25.4732 685.86 22.7325 685.86Z" fill="#54F4FC"/>
<path d="M27.7217 933.725C27.7217 937.146 25.4878 939.919 22.7324 939.919C19.977 939.919 17.7432 937.146 17.7432 933.725C17.7432 930.304 19.977 927.531 22.7324 927.531C25.4878 927.531 27.7217 930.305 27.7217 933.725Z" fill="#54F4FC"/>
<path d="M22.7325 940.53C19.711 940.53 17.2527 937.478 17.2527 933.726C17.2527 929.974 19.711 926.922 22.7325 926.922C25.7541 926.922 28.2124 929.974 28.2124 933.726C28.2124 937.478 25.7541 940.53 22.7325 940.53ZM22.7325 928.141C20.2521 928.141 18.2348 930.646 18.2348 933.725C18.2348 936.804 20.2521 939.31 22.7325 939.31C25.2129 939.31 27.2302 936.805 27.2302 933.725C27.2302 930.647 25.2129 928.141 22.7325 928.141Z" fill="#54F4FC"/>
<path d="M7.01667 958.118C7.01667 960.81 5.25863 962.993 3.08957 962.993C0.920513 962.993 -0.837524 960.81 -0.837524 958.118C-0.837524 955.425 0.920513 953.242 3.08957 953.242C5.25863 953.242 7.01667 955.425 7.01667 958.118Z" fill="#54F4FC"/>
<path d="M3.08955 963.603C0.653352 963.603 -1.32861 961.141 -1.32861 958.117C-1.32861 955.093 0.653352 952.633 3.08955 952.633C5.52575 952.633 7.50772 955.093 7.50772 958.117C7.50772 961.141 5.52575 963.603 3.08955 963.603ZM3.08955 953.851C1.195 953.851 -0.346472 955.765 -0.346472 958.116C-0.346472 960.469 1.195 962.383 3.08955 962.383C4.9841 962.383 6.52558 960.47 6.52558 958.116C6.52558 955.765 4.98459 953.851 3.08955 953.851Z" fill="#54F4FC"/>
<path d="M205.285 800.42C205.285 804.674 202.507 808.122 199.081 808.122C195.655 808.122 192.877 804.674 192.877 800.42C192.877 796.167 195.655 792.719 199.081 792.719C202.507 792.719 205.285 796.167 205.285 800.42Z" fill="#54F4FC"/>
<path d="M199.081 808.732C195.39 808.732 192.387 805.003 192.387 800.421C192.387 795.838 195.389 792.109 199.081 792.109C202.773 792.109 205.776 795.838 205.776 800.421C205.776 805.003 202.773 808.732 199.081 808.732ZM199.081 793.328C195.932 793.328 193.369 796.51 193.369 800.421C193.369 804.331 195.932 807.513 199.081 807.513C202.231 807.513 204.794 804.331 204.794 800.421C204.794 796.51 202.232 793.328 199.081 793.328Z" fill="#54F4FC"/>
<path d="M183.55 776.026C183.55 778.845 181.709 781.131 179.439 781.131C177.168 781.131 175.327 778.846 175.327 776.026C175.327 773.208 177.168 770.922 179.439 770.922C181.709 770.922 183.55 773.208 183.55 776.026Z" fill="#54F4FC"/>
<path d="M179.439 781.741C176.901 781.741 174.836 779.178 174.836 776.027C174.836 772.876 176.901 770.312 179.439 770.312C181.977 770.312 184.041 772.876 184.041 776.027C184.042 779.177 181.977 781.741 179.439 781.741ZM179.439 771.532C177.443 771.532 175.818 773.547 175.818 776.027C175.818 778.506 177.443 780.522 179.439 780.522C181.435 780.522 183.059 778.506 183.059 776.027C183.059 773.547 181.435 771.532 179.439 771.532Z" fill="#54F4FC"/>
<path d="M128.035 776.03C128.035 779.693 125.643 782.662 122.693 782.662C119.743 782.662 117.351 779.693 117.351 776.03C117.351 772.368 119.743 769.398 122.693 769.398C125.643 769.398 128.035 772.367 128.035 776.03Z" fill="#54F4FC"/>
<path d="M122.693 783.273C119.476 783.273 116.86 780.025 116.86 776.031C116.86 772.038 119.476 768.789 122.693 768.789C125.909 768.789 128.526 772.038 128.526 776.031C128.526 780.025 125.909 783.273 122.693 783.273ZM122.693 770.009C120.018 770.009 117.842 772.711 117.842 776.031C117.842 779.352 120.018 782.054 122.693 782.054C125.367 782.054 127.544 779.352 127.544 776.031C127.544 772.71 125.367 770.009 122.693 770.009Z" fill="#54F4FC"/>
<path d="M106.912 751.647C106.912 754.295 105.183 756.441 103.05 756.441C100.917 756.441 99.1877 754.295 99.1877 751.647C99.1877 748.998 100.917 746.852 103.05 746.852C105.183 746.852 106.912 748.999 106.912 751.647Z" fill="#54F4FC"/>
<path d="M103.05 757.052C100.649 757.052 98.6968 754.628 98.6968 751.647C98.6968 748.667 100.65 746.242 103.05 746.242C105.451 746.242 107.403 748.667 107.403 751.647C107.403 754.628 105.451 757.052 103.05 757.052ZM103.05 747.462C101.191 747.462 99.6789 749.34 99.6789 751.648C99.6789 753.955 101.191 755.833 103.05 755.833C104.909 755.833 106.421 753.955 106.421 751.648C106.421 749.34 104.909 747.462 103.05 747.462Z" fill="#54F4FC"/>
<path d="M108.733 637.836C108.733 641.733 106.189 644.891 103.05 644.891C99.9119 644.891 97.3677 641.733 97.3677 637.836C97.3677 633.94 99.9119 630.781 103.05 630.781C106.189 630.781 108.733 633.94 108.733 637.836Z" fill="#54F4FC"/>
<path d="M103.05 645.502C99.6456 645.502 96.8765 642.063 96.8765 637.837C96.8765 633.611 99.6461 630.172 103.05 630.172C106.455 630.172 109.224 633.611 109.224 637.837C109.224 642.063 106.454 645.502 103.05 645.502ZM103.05 631.392C100.188 631.392 97.8586 634.283 97.8586 637.838C97.8586 641.392 100.188 644.283 103.05 644.283C105.913 644.283 108.242 641.392 108.242 637.838C108.242 634.283 105.913 631.392 103.05 631.392Z" fill="#54F4FC"/>
<path d="M87.6063 613.455C87.6063 616.335 85.726 618.669 83.4072 618.669C81.0878 618.669 79.208 616.335 79.208 613.455C79.208 610.576 81.0883 608.242 83.4072 608.242C85.726 608.242 87.6063 610.576 87.6063 613.455Z" fill="#54F4FC"/>
<path d="M83.4073 619.279C80.8208 619.279 78.7166 616.667 78.7166 613.457C78.7166 610.245 80.8208 607.633 83.4073 607.633C85.9937 607.633 88.0975 610.245 88.0975 613.457C88.0975 616.666 85.9932 619.279 83.4073 619.279ZM83.4073 608.852C81.3624 608.852 79.6987 610.918 79.6987 613.457C79.6987 615.995 81.3624 618.06 83.4073 618.06C85.4516 618.06 87.1153 615.995 87.1153 613.457C87.1153 610.917 85.4516 608.852 83.4073 608.852Z" fill="#54F4FC"/>
<path d="M82.3253 93.2102C82.3253 97.2567 79.6829 100.538 76.4232 100.538C73.1634 100.538 70.521 97.2573 70.521 93.2102C70.521 89.1638 73.1634 85.8828 76.4232 85.8828C79.6829 85.8828 82.3253 89.1638 82.3253 93.2102Z" fill="#54F4FC"/>
<path d="M76.423 101.147C72.8976 101.147 70.0298 97.5872 70.0298 93.2104C70.0298 88.8335 72.8976 85.2734 76.423 85.2734C79.9484 85.2734 82.8163 88.8335 82.8163 93.2104C82.8163 97.5872 79.9484 101.147 76.423 101.147ZM76.423 86.4931C73.4398 86.4931 71.0119 89.507 71.0119 93.2104C71.0119 96.9143 73.4393 99.9277 76.423 99.9277C79.4068 99.9277 81.8341 96.9137 81.8341 93.2104C81.8341 89.5064 79.4063 86.4931 76.423 86.4931Z" fill="#54F4FC"/>
<path d="M101.143 68.8263C101.143 72.3071 98.8695 75.1291 96.066 75.1291C93.262 75.1291 90.9888 72.3071 90.9888 68.8263C90.9888 65.3454 93.262 62.5234 96.066 62.5234C98.8695 62.5234 101.143 65.3454 101.143 68.8263Z" fill="#54F4FC"/>
<path d="M96.0656 75.7394C92.9954 75.7394 90.4978 72.6388 90.4978 68.827C90.4978 65.0152 92.9954 61.9141 96.0656 61.9141C99.1357 61.9141 101.634 65.0152 101.634 68.827C101.634 72.6382 99.1357 75.7394 96.0656 75.7394ZM96.0656 63.1331C93.5375 63.1331 91.4799 65.6875 91.4799 68.8264C91.4799 71.966 93.5375 74.5192 96.0656 74.5192C98.5941 74.5192 100.652 71.9653 100.652 68.8264C100.652 65.6875 98.5946 63.1331 96.0656 63.1331Z" fill="#54F4FC"/>
<path d="M205.629 723.714C207.91 723.714 209.759 721.419 209.759 718.587C209.759 715.756 207.91 713.461 205.629 713.461C203.349 713.461 201.5 715.756 201.5 718.587C201.5 721.419 203.349 723.714 205.629 723.714Z" fill="#54F4FC"/>
<path d="M205.629 724.325C203.081 724.325 201.009 721.752 201.009 718.588C201.009 715.425 203.082 712.852 205.629 712.852C208.177 712.852 210.25 715.425 210.25 718.588C210.25 721.752 208.177 724.325 205.629 724.325ZM205.629 714.072C203.623 714.072 201.991 716.098 201.991 718.588C201.991 721.079 203.623 723.106 205.629 723.106C207.635 723.106 209.268 721.079 209.268 718.588C209.268 716.098 207.635 714.072 205.629 714.072Z" fill="#54F4FC"/>
<path d="M231.27 694.197C231.27 698.31 228.584 701.644 225.272 701.644C221.959 701.644 219.273 698.31 219.273 694.197C219.273 690.084 221.959 686.75 225.272 686.75C228.585 686.75 231.27 690.085 231.27 694.197Z" fill="#54F4FC"/>
<path d="M225.272 702.253C221.694 702.253 218.783 698.64 218.783 694.197C218.783 689.754 221.694 686.141 225.272 686.141C228.851 686.141 231.762 689.754 231.762 694.197C231.761 698.639 228.851 702.253 225.272 702.253ZM225.272 687.36C222.235 687.36 219.765 690.427 219.765 694.197C219.765 697.967 222.235 701.034 225.272 701.034C228.308 701.034 230.78 697.967 230.78 694.197C230.78 690.427 228.308 687.36 225.272 687.36Z" fill="#54F4FC"/>
<path d="M229.905 596.658C229.905 599.835 227.831 602.41 225.272 602.41C222.713 602.41 220.638 599.835 220.638 596.658C220.638 593.481 222.713 590.906 225.272 590.906C227.831 590.906 229.905 593.481 229.905 596.658Z" fill="#54F4FC"/>
<path d="M225.272 603.02C222.446 603.02 220.148 600.165 220.148 596.658C220.148 593.15 222.446 590.297 225.272 590.297C228.098 590.297 230.396 593.15 230.396 596.658C230.396 600.165 228.097 603.02 225.272 603.02ZM225.272 591.516C222.989 591.516 221.13 593.822 221.13 596.658C221.13 599.494 222.988 601.801 225.272 601.801C227.555 601.801 229.414 599.494 229.414 596.658C229.414 593.822 227.555 591.516 225.272 591.516Z" fill="#54F4FC"/>
<path d="M205.629 579.594C208.887 579.594 211.528 576.315 211.528 572.27C211.528 568.225 208.887 564.945 205.629 564.945C202.371 564.945 199.73 568.225 199.73 572.27C199.73 576.315 202.371 579.594 205.629 579.594Z" fill="#54F4FC"/>
<path d="M205.629 580.204C202.105 580.204 199.238 576.645 199.238 572.27C199.238 567.895 202.105 564.336 205.629 564.336C209.153 564.336 212.02 567.895 212.02 572.27C212.02 576.645 209.152 580.204 205.629 580.204ZM205.629 565.555C202.647 565.555 200.22 568.568 200.22 572.27C200.22 575.972 202.646 578.985 205.629 578.985C208.611 578.985 211.038 575.972 211.038 572.27C211.038 568.568 208.611 565.555 205.629 565.555Z" fill="#54F4FC"/>
<path d="M141.899 578.77C144.792 578.77 147.137 575.859 147.137 572.268C147.137 568.677 144.792 565.766 141.899 565.766C139.007 565.766 136.662 568.677 136.662 572.268C136.662 575.859 139.007 578.77 141.899 578.77Z" fill="#54F4FC"/>
<path d="M141.899 579.378C138.741 579.378 136.171 576.188 136.171 572.267C136.171 568.346 138.741 565.156 141.899 565.156C145.058 565.156 147.627 568.346 147.627 572.267C147.627 576.188 145.058 579.378 141.899 579.378ZM141.899 566.375C139.282 566.375 137.153 569.019 137.153 572.267C137.153 575.515 139.282 578.159 141.899 578.159C144.516 578.159 146.645 575.516 146.645 572.267C146.645 569.019 144.516 566.375 141.899 566.375Z" fill="#54F4FC"/>
<path d="M122.256 552.524C124.321 552.524 125.994 550.446 125.994 547.883C125.994 545.32 124.321 543.242 122.256 543.242C120.192 543.242 118.518 545.32 118.518 547.883C118.518 550.446 120.192 552.524 122.256 552.524Z" fill="#54F4FC"/>
<path d="M122.256 553.133C119.924 553.133 118.027 550.778 118.027 547.883C118.027 544.989 119.924 542.633 122.256 542.633C124.588 542.633 126.485 544.988 126.485 547.883C126.485 550.778 124.588 553.133 122.256 553.133ZM122.256 543.852C120.465 543.852 119.009 545.661 119.009 547.882C119.009 550.104 120.466 551.913 122.256 551.913C124.046 551.913 125.502 550.104 125.502 547.882C125.502 545.661 124.046 543.852 122.256 543.852Z" fill="#54F4FC"/>
<path d="M127.626 410.237C127.626 413.919 125.222 416.903 122.256 416.903C119.291 416.903 116.886 413.918 116.886 410.237C116.886 406.555 119.291 403.57 122.256 403.57C125.222 403.57 127.626 406.555 127.626 410.237Z" fill="#54F4FC"/>
<path d="M122.256 417.513C119.025 417.513 116.396 414.249 116.396 410.237C116.396 406.225 119.025 402.961 122.256 402.961C125.488 402.961 128.117 406.225 128.117 410.237C128.117 414.249 125.488 417.513 122.256 417.513ZM122.256 404.181C119.566 404.181 117.378 406.898 117.378 410.237C117.378 413.577 119.566 416.294 122.256 416.294C124.946 416.294 127.135 413.577 127.135 410.237C127.135 406.898 124.947 404.181 122.256 404.181Z" fill="#54F4FC"/>
<path d="M106.632 385.849C106.632 388.604 104.832 390.838 102.613 390.838C100.393 390.838 98.5938 388.604 98.5938 385.849C98.5938 383.093 100.393 380.859 102.613 380.859C104.832 380.859 106.632 383.094 106.632 385.849Z" fill="#54F4FC"/>
<path d="M102.613 391.448C100.127 391.448 98.1035 388.936 98.1035 385.849C98.1035 382.762 100.127 380.25 102.613 380.25C105.1 380.25 107.123 382.762 107.123 385.849C107.123 388.935 105.1 391.448 102.613 391.448ZM102.613 381.469C100.668 381.469 99.0857 383.433 99.0857 385.848C99.0857 388.263 100.668 390.228 102.613 390.228C104.559 390.228 106.141 388.263 106.141 385.848C106.141 383.434 104.559 381.469 102.613 381.469Z" fill="#54F4FC"/>
<path d="M41.098 385.847C41.098 388.563 39.3247 390.765 37.137 390.765C34.9493 390.765 33.176 388.563 33.176 385.847C33.176 383.131 34.9493 380.93 37.137 380.93C39.3247 380.93 41.098 383.132 41.098 385.847Z" fill="#54F4FC"/>
<path d="M37.1371 391.375C34.6822 391.375 32.6855 388.896 32.6855 385.848C32.6855 382.8 34.6822 380.32 37.1371 380.32C39.592 380.32 41.5891 382.8 41.5891 385.848C41.5896 388.896 39.592 391.375 37.1371 391.375ZM37.1371 381.54C35.2239 381.54 33.6677 383.473 33.6677 385.848C33.6677 388.223 35.2244 390.155 37.1371 390.155C39.0503 390.155 40.607 388.223 40.607 385.848C40.6075 383.473 39.0508 381.54 37.1371 381.54Z" fill="#54F4FC"/>
<path d="M22.2245 361.458C22.2245 364.702 20.1066 367.331 17.4945 367.331C14.8821 367.331 12.764 364.702 12.764 361.458C12.764 358.215 14.8821 355.586 17.4945 355.586C20.1066 355.586 22.2245 358.215 22.2245 361.458Z" fill="#54F4FC"/>
<path d="M17.4941 367.941C14.6155 367.941 12.2731 365.033 12.2731 361.459C12.2731 357.884 14.615 354.977 17.4941 354.977C20.3733 354.977 22.7157 357.884 22.7157 361.459C22.7157 365.033 20.3733 367.941 17.4941 367.941ZM17.4941 356.196C15.1566 356.196 13.2552 358.557 13.2552 361.459C13.2552 364.361 15.1566 366.722 17.4941 366.722C19.8316 366.722 21.7336 364.361 21.7336 361.459C21.7336 358.557 19.8316 356.196 17.4941 356.196Z" fill="#54F4FC"/>
<path d="M21.8434 249.821C21.8434 252.804 19.8963 255.221 17.4945 255.221C15.0926 255.221 13.145 252.804 13.145 249.821C13.145 246.839 15.0921 244.422 17.4945 244.422C19.8963 244.422 21.8434 246.839 21.8434 249.821Z" fill="#54F4FC"/>
<path d="M17.4943 255.831C14.8253 255.831 12.6543 253.135 12.6543 249.822C12.6543 246.508 14.8258 243.812 17.4943 243.812C20.1633 243.812 22.3343 246.508 22.3343 249.822C22.3343 253.135 20.1633 255.831 17.4943 255.831ZM17.4943 245.032C15.367 245.032 13.6364 247.18 13.6364 249.822C13.6364 252.463 15.367 254.611 17.4943 254.611C19.6216 254.611 21.3522 252.463 21.3522 249.822C21.3526 247.181 19.6216 245.032 17.4943 245.032Z" fill="#54F4FC"/>
<path d="M44.0142 225.436C44.0142 230.151 40.9357 233.973 37.1377 233.973C33.3398 233.973 30.2612 230.151 30.2612 225.436C30.2612 220.721 33.3398 216.898 37.1377 216.898C40.9352 216.898 44.0142 220.721 44.0142 225.436Z" fill="#54F4FC"/>
<path d="M37.1371 234.583C33.0749 234.583 29.7695 230.479 29.7695 225.436C29.7695 220.392 33.0749 216.289 37.1371 216.289C41.1992 216.289 44.5046 220.392 44.5046 225.436C44.5046 230.479 41.1997 234.583 37.1371 234.583ZM37.1371 217.509C33.6161 217.509 30.7517 221.065 30.7517 225.436C30.7517 229.807 33.6161 233.363 37.1371 233.363C40.658 233.363 43.5224 229.807 43.5224 225.436C43.5224 221.065 40.658 217.509 37.1371 217.509Z" fill="#54F4FC"/>
<path d="M81.2635 225.439C81.2635 228.757 79.0964 231.448 76.4235 231.448C73.7501 231.448 71.583 228.757 71.583 225.439C71.583 222.12 73.7501 219.43 76.4235 219.43C79.0964 219.43 81.2635 222.12 81.2635 225.439Z" fill="#54F4FC"/>
<path d="M76.4226 232.057C73.4831 232.057 71.0916 229.089 71.0916 225.439C71.0916 221.789 73.4831 218.82 76.4226 218.82C79.3622 218.82 81.7537 221.789 81.7537 225.439C81.7542 229.088 79.3627 232.057 76.4226 232.057ZM76.4226 220.039C74.0242 220.039 72.0737 222.461 72.0737 225.439C72.0737 228.416 74.0247 230.838 76.4226 230.838C78.821 230.838 80.7716 228.416 80.7716 225.439C80.772 222.461 78.821 220.039 76.4226 220.039Z" fill="#54F4FC"/>
<path d="M100.232 249.821C100.232 252.678 98.3668 254.994 96.0661 254.994C93.765 254.994 91.8999 252.678 91.8999 249.821C91.8999 246.965 93.7655 244.648 96.0661 244.648C98.3668 244.648 100.232 246.965 100.232 249.821Z" fill="#54F4FC"/>
<path d="M96.0655 255.604C93.4972 255.604 91.4082 253.01 91.4082 249.821C91.4082 246.633 93.4977 244.039 96.0655 244.039C98.6333 244.039 100.723 246.633 100.723 249.821C100.723 253.01 98.6338 255.604 96.0655 255.604ZM96.0655 245.259C94.0389 245.259 92.3903 247.305 92.3903 249.821C92.3903 252.337 94.0389 254.384 96.0655 254.384C98.0922 254.384 99.7407 252.337 99.7407 249.821C99.7412 247.305 98.0922 245.259 96.0655 245.259Z" fill="#54F4FC"/>
<path d="M100.36 257.409C100.36 260.354 98.4373 262.741 96.0654 262.741C93.6935 262.741 91.771 260.354 91.771 257.409C91.771 254.465 93.6935 252.078 96.0654 252.078C98.4373 252.078 100.36 254.465 100.36 257.409Z" fill="#54F4FC"/>
<path d="M96.0655 263.351C93.427 263.351 91.2805 260.686 91.2805 257.41C91.2805 254.134 93.427 251.469 96.0655 251.469C98.704 251.469 100.851 254.133 100.851 257.41C100.851 260.686 98.704 263.351 96.0655 263.351ZM96.0655 252.688C93.9682 252.688 92.2627 254.806 92.2627 257.41C92.2627 260.013 93.9686 262.131 96.0655 262.131C98.1624 262.131 99.8689 260.013 99.8689 257.41C99.8689 254.806 98.1629 252.688 96.0655 252.688Z" fill="#54F4FC"/>
<path d="M119.744 281.799C119.744 284.565 117.937 286.808 115.709 286.808C113.48 286.808 111.674 284.565 111.674 281.799C111.674 279.032 113.48 276.789 115.709 276.789C117.937 276.789 119.744 279.032 119.744 281.799Z" fill="#54F4FC"/>
<path d="M115.708 287.418C113.213 287.418 111.182 284.897 111.182 281.799C111.182 278.701 113.213 276.18 115.708 276.18C118.204 276.18 120.235 278.701 120.235 281.799C120.235 284.897 118.204 287.418 115.708 287.418ZM115.708 277.399C113.754 277.399 112.164 279.372 112.164 281.799C112.164 284.225 113.754 286.199 115.708 286.199C117.662 286.199 119.253 284.225 119.253 281.799C119.253 279.373 117.663 277.399 115.708 277.399Z" fill="#54F4FC"/>
<path d="M229.997 281.802C229.997 286.539 226.904 290.378 223.09 290.378C219.275 290.378 216.182 286.539 216.182 281.802C216.182 277.066 219.275 273.227 223.09 273.227C226.904 273.227 229.997 277.066 229.997 281.802Z" fill="#54F4FC"/>
<path d="M223.089 290.988C219.009 290.988 215.691 286.867 215.691 281.802C215.691 276.737 219.01 272.617 223.089 272.617C227.168 272.617 230.488 276.738 230.488 281.802C230.488 286.867 227.169 290.988 223.089 290.988ZM223.089 273.836C219.551 273.836 216.673 277.41 216.673 281.802C216.673 286.195 219.551 289.769 223.089 289.769C226.627 289.769 229.505 286.195 229.505 281.802C229.505 277.41 226.627 273.836 223.089 273.836Z" fill="#54F4FC"/>
<path d="M247.46 257.409C247.46 260.651 245.343 263.279 242.732 263.279C240.121 263.279 238.004 260.651 238.004 257.409C238.004 254.167 240.121 251.539 242.732 251.539C245.343 251.539 247.46 254.167 247.46 257.409Z" fill="#54F4FC"/>
<path d="M242.732 263.889C239.854 263.889 237.513 260.982 237.513 257.409C237.513 253.836 239.854 250.93 242.732 250.93C245.61 250.93 247.951 253.836 247.951 257.409C247.951 260.982 245.61 263.889 242.732 263.889ZM242.732 252.149C240.396 252.149 238.495 254.509 238.495 257.409C238.495 260.31 240.396 262.669 242.732 262.669C245.069 262.669 246.969 260.31 246.969 257.409C246.969 254.509 245.069 252.149 242.732 252.149Z" fill="#54F4FC"/>
<path d="M261.312 882.792C261.312 887.151 258.466 890.684 254.955 890.684C251.443 890.684 248.597 887.15 248.597 882.792C248.597 878.432 251.443 874.898 254.955 874.898C258.466 874.898 261.312 878.432 261.312 882.792Z" fill="#54F4FC"/>
<path d="M254.954 891.294C251.178 891.294 248.106 887.48 248.106 882.792C248.106 878.103 251.178 874.289 254.954 874.289C258.731 874.289 261.803 878.103 261.803 882.792C261.803 887.481 258.731 891.294 254.954 891.294ZM254.954 875.509C251.72 875.509 249.088 878.776 249.088 882.792C249.088 886.808 251.72 890.075 254.954 890.075C258.189 890.075 260.821 886.807 260.821 882.792C260.821 878.776 258.189 875.509 254.954 875.509Z" fill="#54F4FC"/>
<path d="M239.328 858.4C239.328 861.155 237.53 863.387 235.311 863.387C233.093 863.387 231.295 861.154 231.295 858.4C231.295 855.647 233.093 853.414 235.311 853.414C237.53 853.414 239.328 855.647 239.328 858.4Z" fill="#54F4FC"/>
<path d="M235.312 863.998C232.826 863.998 230.804 861.488 230.804 858.401C230.804 855.315 232.826 852.805 235.312 852.805C237.797 852.805 239.82 855.315 239.82 858.401C239.82 861.488 237.797 863.998 235.312 863.998ZM235.312 854.024C233.368 854.024 231.786 855.987 231.786 858.401C231.786 860.815 233.368 862.778 235.312 862.778C237.256 862.778 238.837 860.815 238.837 858.401C238.837 855.988 237.256 854.024 235.312 854.024Z" fill="#54F4FC"/>
<path d="M101.553 858.403C101.553 861.867 99.2916 864.674 96.5023 864.674C93.713 864.674 91.4517 861.867 91.4517 858.403C91.4517 854.94 93.713 852.133 96.5023 852.133C99.2916 852.133 101.553 854.941 101.553 858.403Z" fill="#54F4FC"/>
<path d="M96.5027 865.283C93.4468 865.283 90.9609 862.197 90.9609 858.403C90.9609 854.61 93.4472 851.523 96.5027 851.523C99.5581 851.523 102.044 854.61 102.044 858.403C102.044 862.197 99.5581 865.283 96.5027 865.283ZM96.5027 852.742C93.9884 852.742 91.9431 855.282 91.9431 858.403C91.9431 861.524 93.9884 864.064 96.5027 864.064C99.0165 864.064 101.062 861.524 101.062 858.403C101.062 855.282 99.0165 852.742 96.5027 852.742Z" fill="#54F4FC"/>
<path d="M82.2386 882.788C82.2386 886.476 79.8304 889.466 76.8594 889.466C73.8884 889.466 71.4802 886.476 71.4802 882.788C71.4802 879.1 73.8884 876.109 76.8594 876.109C79.8304 876.109 82.2386 879.099 82.2386 882.788Z" fill="#54F4FC"/>
<path d="M76.8597 890.076C73.6226 890.076 70.9895 886.807 70.9895 882.788C70.9895 878.77 73.6226 875.5 76.8597 875.5C80.0964 875.5 82.7295 878.77 82.7295 882.788C82.7295 886.807 80.0964 890.076 76.8597 890.076ZM76.8597 876.719C74.1648 876.719 71.9716 879.442 71.9716 882.788C71.9716 886.135 74.1648 888.857 76.8597 888.857C79.5547 888.857 81.7474 886.135 81.7474 882.788C81.7474 879.442 79.5547 876.719 76.8597 876.719Z" fill="#54F4FC"/>
<path d="M76.8594 985.037C80.3987 985.037 83.2679 981.475 83.2679 977.081C83.2679 972.687 80.3987 969.125 76.8594 969.125C73.3201 969.125 70.4509 972.687 70.4509 977.081C70.4509 981.475 73.3201 985.037 76.8594 985.037Z" fill="#54F4FC"/>
<path d="M76.86 985.647C73.0552 985.647 69.9599 981.805 69.9599 977.082C69.9599 972.358 73.0552 968.516 76.86 968.516C80.6643 968.516 83.7595 972.358 83.7595 977.082C83.7595 981.805 80.6643 985.647 76.86 985.647ZM76.86 969.735C73.5968 969.735 70.9421 973.031 70.9421 977.082C70.9421 981.132 73.5968 984.428 76.86 984.428C80.1231 984.428 82.7774 981.132 82.7774 977.082C82.7774 973.03 80.1226 969.735 76.86 969.735Z" fill="#54F4FC"/>
<path d="M63.9066 1001.47C63.9066 1006.06 60.9115 1009.77 57.2172 1009.77C53.5229 1009.77 50.5278 1006.06 50.5278 1001.47C50.5278 996.882 53.5229 993.164 57.2172 993.164C60.9115 993.164 63.9066 996.883 63.9066 1001.47Z" fill="#54F4FC"/>
<path d="M57.217 1010.39C53.2575 1010.39 50.0361 1006.39 50.0361 1001.47C50.0361 996.554 53.2575 992.555 57.217 992.555C61.1766 992.555 64.3975 996.554 64.3975 1001.47C64.3975 1006.39 61.1761 1010.39 57.217 1010.39ZM57.217 993.774C53.7992 993.774 51.0183 997.226 51.0183 1001.47C51.0183 1005.71 53.7992 1009.17 57.217 1009.17C60.6349 1009.17 63.4153 1005.71 63.4153 1001.47C63.4153 997.226 60.6349 993.774 57.217 993.774Z" fill="#54F4FC"/>
<path d="M384.165 940.771C384.165 945.562 381.036 949.447 377.176 949.447C373.317 949.447 370.188 945.562 370.188 940.771C370.188 935.979 373.317 932.094 377.176 932.094C381.036 932.094 384.165 935.979 384.165 940.771Z" fill="#54F4FC"/>
<path d="M377.176 950.056C373.052 950.056 369.697 945.891 369.697 940.771C369.697 935.651 373.052 931.484 377.176 931.484C381.301 931.484 384.657 935.651 384.657 940.771C384.657 945.891 381.301 950.056 377.176 950.056ZM377.176 932.703C373.594 932.703 370.679 936.321 370.679 940.77C370.679 945.218 373.594 948.836 377.176 948.836C380.76 948.836 383.674 945.218 383.674 940.77C383.674 936.322 380.759 932.703 377.176 932.703Z" fill="#54F4FC"/>
<path d="M149.696 940.77C149.696 944.919 146.987 948.282 143.645 948.282C140.303 948.282 137.595 944.919 137.595 940.77C137.595 936.621 140.303 933.258 143.645 933.258C146.987 933.258 149.696 936.621 149.696 940.77Z" fill="#54F4FC"/>
<path d="M143.645 948.892C140.038 948.892 137.103 945.249 137.103 940.771C137.103 936.292 140.038 932.648 143.645 932.648C147.253 932.648 150.187 936.292 150.187 940.771C150.187 945.249 147.253 948.892 143.645 948.892ZM143.645 933.868C140.58 933.868 138.085 936.965 138.085 940.771C138.085 944.576 140.58 947.672 143.645 947.672C146.711 947.672 149.205 944.576 149.205 940.771C149.205 936.965 146.711 933.868 143.645 933.868Z" fill="#54F4FC"/>
<path d="M128.607 965.162C128.607 968.319 126.545 970.878 124.002 970.878C121.46 970.878 119.398 968.319 119.398 965.162C119.398 962.005 121.46 959.445 124.002 959.445C126.545 959.445 128.607 962.005 128.607 965.162Z" fill="#54F4FC"/>
<path d="M124.003 971.488C121.193 971.488 118.907 968.65 118.907 965.163C118.907 961.674 121.193 958.836 124.003 958.836C126.812 958.836 129.098 961.673 129.098 965.163C129.098 968.65 126.812 971.488 124.003 971.488ZM124.003 960.056C121.734 960.056 119.889 962.347 119.889 965.163C119.889 967.977 121.734 970.268 124.003 970.268C126.27 970.268 128.116 967.977 128.116 965.163C128.116 962.346 126.27 960.056 124.003 960.056Z" fill="#54F4FC"/>
<path d="M348.817 138.728C348.817 142.03 346.661 144.706 344.002 144.706C341.343 144.706 339.187 142.03 339.187 138.728C339.187 135.426 341.343 132.75 344.002 132.75C346.661 132.75 348.817 135.426 348.817 138.728Z" fill="#54F4FC"/>
<path d="M344.002 145.316C341.076 145.316 338.695 142.36 338.695 138.727C338.695 135.095 341.076 132.141 344.002 132.141C346.927 132.141 349.308 135.095 349.308 138.727C349.308 142.36 346.927 145.316 344.002 145.316ZM344.002 133.36C341.618 133.36 339.677 135.768 339.677 138.728C339.677 141.688 341.617 144.097 344.002 144.097C346.386 144.097 348.326 141.688 348.326 138.728C348.326 135.768 346.386 133.36 344.002 133.36Z" fill="#54F4FC"/>
<path d="M149.146 138.735C149.146 142.507 146.683 145.564 143.645 145.564C140.608 145.564 138.145 142.507 138.145 138.735C138.145 134.964 140.608 131.906 143.645 131.906C146.683 131.906 149.146 134.964 149.146 138.735Z" fill="#54F4FC"/>
<path d="M143.645 146.174C140.341 146.174 137.654 142.837 137.654 138.735C137.654 134.634 140.342 131.297 143.645 131.297C146.949 131.297 149.637 134.634 149.637 138.735C149.637 142.837 146.949 146.174 143.645 146.174ZM143.645 132.516C140.883 132.516 138.636 135.306 138.636 138.735C138.636 142.165 140.883 144.955 143.645 144.955C146.408 144.955 148.655 142.165 148.655 138.735C148.655 135.306 146.408 132.516 143.645 132.516Z" fill="#54F4FC"/>
<path d="M124.002 119.981C126.511 119.981 128.545 117.457 128.545 114.342C128.545 111.228 126.511 108.703 124.002 108.703C121.493 108.703 119.46 111.228 119.46 114.342C119.46 117.457 121.493 119.981 124.002 119.981Z" fill="#54F4FC"/>
<path d="M124.002 120.592C121.227 120.592 118.969 117.788 118.969 114.342C118.969 110.897 121.227 108.094 124.002 108.094C126.778 108.094 129.035 110.897 129.035 114.342C129.035 117.788 126.778 120.592 124.002 120.592ZM124.002 109.313C121.769 109.313 119.951 111.569 119.951 114.342C119.951 117.116 121.769 119.372 124.002 119.372C126.236 119.372 128.053 117.116 128.053 114.342C128.053 111.569 126.236 109.313 124.002 109.313Z" fill="#54F4FC"/>
<path d="M305.728 320.206C305.728 323.893 303.32 326.882 300.351 326.882C297.381 326.882 294.974 323.893 294.974 320.206C294.974 316.52 297.381 313.531 300.351 313.531C303.32 313.531 305.728 316.52 305.728 320.206Z" fill="#54F4FC"/>
<path d="M300.351 327.491C297.116 327.491 294.484 324.223 294.484 320.206C294.484 316.189 297.116 312.922 300.351 312.922C303.587 312.922 306.218 316.19 306.218 320.206C306.218 324.223 303.587 327.491 300.351 327.491ZM300.351 314.141C297.657 314.141 295.466 316.862 295.466 320.206C295.466 323.551 297.657 326.272 300.351 326.272C303.044 326.272 305.236 323.551 305.236 320.206C305.236 316.862 303.045 314.141 300.351 314.141Z" fill="#54F4FC"/>
<path d="M150.629 328.091C154.136 328.091 156.978 324.562 156.978 320.21C156.978 315.857 154.136 312.328 150.629 312.328C147.123 312.328 144.281 315.857 144.281 320.21C144.281 324.562 147.123 328.091 150.629 328.091Z" fill="#54F4FC"/>
<path d="M150.629 328.701C146.858 328.701 143.79 324.891 143.79 320.21C143.79 315.528 146.858 311.719 150.629 311.719C154.401 311.719 157.469 315.528 157.469 320.21C157.468 324.891 154.4 328.701 150.629 328.701ZM150.629 312.938C147.399 312.938 144.772 316.2 144.772 320.21C144.772 324.22 147.399 327.482 150.629 327.482C153.859 327.482 156.487 324.22 156.487 320.21C156.486 316.2 153.859 312.938 150.629 312.938Z" fill="#54F4FC"/>
<path d="M130.986 301.113C133.34 301.113 135.248 298.745 135.248 295.822C135.248 292.9 133.34 290.531 130.986 290.531C128.632 290.531 126.724 292.9 126.724 295.822C126.724 298.745 128.632 301.113 130.986 301.113Z" fill="#54F4FC"/>
<path d="M130.986 301.723C128.366 301.723 126.233 299.076 126.233 295.822C126.233 292.569 128.366 289.922 130.986 289.922C133.607 289.922 135.74 292.569 135.74 295.822C135.739 299.076 133.607 301.723 130.986 301.723ZM130.986 291.141C128.907 291.141 127.216 293.241 127.216 295.822C127.216 298.404 128.907 300.504 130.986 300.504C133.066 300.504 134.757 298.404 134.757 295.822C134.757 293.241 133.066 291.141 130.986 291.141Z" fill="#54F4FC"/>
<path d="M130.987 210.586C133.783 210.586 136.049 207.772 136.049 204.301C136.049 200.83 133.783 198.016 130.987 198.016C128.191 198.016 125.924 200.83 125.924 204.301C125.924 207.772 128.191 210.586 130.987 210.586Z" fill="#54F4FC"/>
<path d="M130.987 211.196C127.925 211.196 125.433 208.102 125.433 204.3C125.433 200.499 127.924 197.406 130.987 197.406C134.048 197.406 136.54 200.499 136.54 204.3C136.54 208.102 134.048 211.196 130.987 211.196ZM130.987 198.625C128.466 198.625 126.415 201.171 126.415 204.3C126.415 207.43 128.466 209.976 130.987 209.976C133.507 209.976 135.558 207.43 135.558 204.3C135.558 201.171 133.507 198.625 130.987 198.625Z" fill="#54F4FC"/>
<path d="M111.344 185.982C114.042 185.982 116.229 183.266 116.229 179.917C116.229 176.567 114.042 173.852 111.344 173.852C108.646 173.852 106.458 176.567 106.458 179.917C106.458 183.266 108.646 185.982 111.344 185.982Z" fill="#54F4FC"/>
<path d="M111.344 186.591C108.379 186.591 105.968 183.597 105.968 179.916C105.968 176.236 108.379 173.242 111.344 173.242C114.308 173.242 116.72 176.237 116.72 179.916C116.72 183.597 114.308 186.591 111.344 186.591ZM111.344 174.461C108.921 174.461 106.95 176.908 106.95 179.916C106.95 182.924 108.921 185.372 111.344 185.372C113.766 185.372 115.738 182.924 115.738 179.916C115.738 176.908 113.766 174.461 111.344 174.461Z" fill="#54F4FC"/>
<path d="M28.4074 185.624C30.946 185.624 33.0039 183.069 33.0039 179.918C33.0039 176.766 30.946 174.211 28.4074 174.211C25.8689 174.211 23.811 176.766 23.811 179.918C23.811 183.069 25.8689 185.624 28.4074 185.624Z" fill="#54F4FC"/>
<path d="M28.4073 186.234C25.6018 186.234 23.3198 183.4 23.3198 179.918C23.3198 176.435 25.6023 173.602 28.4073 173.602C31.2128 173.602 33.4948 176.435 33.4948 179.918C33.4948 183.4 31.2128 186.234 28.4073 186.234ZM28.4073 174.821C26.1435 174.821 24.302 177.107 24.302 179.918C24.302 182.729 26.1435 185.015 28.4073 185.015C30.6711 185.015 32.5126 182.729 32.5126 179.918C32.5126 177.107 30.6711 174.821 28.4073 174.821Z" fill="#54F4FC"/>
<path d="M16.1065 155.537C16.1065 160.183 13.0727 163.949 9.33074 163.949C5.58878 163.949 2.55493 160.183 2.55493 155.537C2.55493 150.892 5.58829 147.125 9.33074 147.125C13.0727 147.125 16.1065 150.891 16.1065 155.537Z" fill="#54F4FC"/>
<path d="M9.33072 164.559C5.32408 164.559 2.06384 160.512 2.06384 155.537C2.06384 150.563 5.32408 146.516 9.33072 146.516C13.3374 146.516 16.5976 150.563 16.5976 155.537C16.5976 160.512 13.3374 164.559 9.33072 164.559ZM9.33072 147.735C5.86524 147.735 3.04598 151.236 3.04598 155.537C3.04598 159.839 5.86524 163.34 9.33072 163.34C12.7962 163.34 15.6154 159.839 15.6154 155.537C15.6154 151.236 12.7962 147.735 9.33072 147.735Z" fill="#54F4FC"/>
<path d="M398.129 399.603C400.873 399.603 403.098 396.841 403.098 393.434C403.098 390.027 400.873 387.266 398.129 387.266C395.385 387.266 393.16 390.027 393.16 393.434C393.16 396.841 395.385 399.603 398.129 399.603Z" fill="#54F4FC"/>
<path d="M398.129 400.213C395.118 400.213 392.669 397.172 392.669 393.435C392.669 389.697 395.118 386.656 398.129 386.656C401.14 386.656 403.588 389.697 403.588 393.435C403.589 397.173 401.14 400.213 398.129 400.213ZM398.129 387.876C395.66 387.876 393.651 390.37 393.651 393.435C393.651 396.5 395.66 398.994 398.129 398.994C400.598 398.994 402.606 396.5 402.606 393.435C402.607 390.37 400.598 387.876 398.129 387.876Z" fill="#54F4FC"/>
<path d="M232.23 393.436C232.23 396.711 230.091 399.364 227.454 399.364C224.817 399.364 222.679 396.71 222.679 393.436C222.679 390.163 224.817 387.508 227.454 387.508C230.091 387.508 232.23 390.162 232.23 393.436Z" fill="#54F4FC"/>
<path d="M227.454 399.973C224.551 399.973 222.188 397.041 222.188 393.436C222.188 389.831 224.551 386.898 227.454 386.898C230.358 386.898 232.72 389.831 232.72 393.436C232.72 397.041 230.358 399.973 227.454 399.973ZM227.454 388.117C225.092 388.117 223.17 390.502 223.17 393.435C223.17 396.368 225.092 398.754 227.454 398.754C229.817 398.754 231.738 396.368 231.738 393.435C231.738 390.502 229.816 388.117 227.454 388.117Z" fill="#54F4FC"/>
<path d="M207.812 375.543C210.701 375.543 213.043 372.636 213.043 369.049C213.043 365.462 210.701 362.555 207.812 362.555C204.923 362.555 202.581 365.462 202.581 369.049C202.581 372.636 204.923 375.543 207.812 375.543Z" fill="#54F4FC"/>
<path d="M207.812 376.153C204.657 376.153 202.09 372.966 202.09 369.049C202.09 365.132 204.657 361.945 207.812 361.945C210.966 361.945 213.534 365.132 213.534 369.049C213.534 372.966 210.967 376.153 207.812 376.153ZM207.812 363.164C205.198 363.164 203.072 365.804 203.072 369.049C203.072 372.294 205.198 374.934 207.812 374.934C210.425 374.934 212.552 372.294 212.552 369.049C212.552 365.804 210.425 363.164 207.812 363.164Z" fill="#54F4FC"/>
<path d="M405.079 580.942C405.079 585.708 401.967 589.571 398.128 589.571C394.29 589.571 391.178 585.707 391.178 580.942C391.178 576.176 394.29 572.312 398.128 572.312C401.968 572.313 405.079 576.176 405.079 580.942Z" fill="#54F4FC"/>
<path d="M398.129 590.181C394.026 590.181 390.687 586.036 390.687 580.942C390.687 575.848 394.026 571.703 398.129 571.703C402.232 571.703 405.57 575.848 405.57 580.942C405.57 586.036 402.232 590.181 398.129 590.181ZM398.129 572.922C394.567 572.922 391.669 576.519 391.669 580.942C391.669 585.364 394.567 588.962 398.129 588.962C401.69 588.962 404.588 585.364 404.588 580.942C404.588 576.519 401.69 572.922 398.129 572.922Z" fill="#54F4FC"/>
<path d="M313.551 580.938C313.551 584.378 311.306 587.165 308.536 587.165C305.765 587.165 303.52 584.378 303.52 580.938C303.52 577.499 305.765 574.711 308.536 574.711C311.306 574.711 313.551 577.499 313.551 580.938Z" fill="#54F4FC"/>
<path d="M308.535 587.776C305.499 587.776 303.028 584.709 303.028 580.939C303.028 577.169 305.499 574.102 308.535 574.102C311.572 574.102 314.043 577.169 314.043 580.939C314.043 584.709 311.572 587.776 308.535 587.776ZM308.535 575.321C306.04 575.321 304.01 577.841 304.01 580.939C304.01 584.037 306.04 586.557 308.535 586.557C311.031 586.557 313.061 584.037 313.061 580.939C313.061 577.841 311.031 575.321 308.535 575.321Z" fill="#54F4FC"/>
<path d="M288.893 613.146C292.373 613.146 295.194 609.643 295.194 605.323C295.194 601.002 292.373 597.5 288.893 597.5C285.413 597.5 282.591 601.002 282.591 605.323C282.591 609.643 285.413 613.146 288.893 613.146Z" fill="#54F4FC"/>
<path d="M288.893 613.757C285.147 613.757 282.1 609.974 282.1 605.324C282.1 600.674 285.147 596.891 288.893 596.891C292.638 596.891 295.685 600.674 295.685 605.324C295.685 609.974 292.638 613.757 288.893 613.757ZM288.893 598.111C285.689 598.111 283.082 601.347 283.082 605.324C283.082 609.301 285.689 612.538 288.893 612.538C292.096 612.538 294.703 609.301 294.703 605.324C294.703 601.347 292.097 598.111 288.893 598.111Z" fill="#54F4FC"/>
<path d="M436.881 492.062C436.881 494.69 435.166 496.82 433.05 496.82C430.933 496.82 429.217 494.69 429.217 492.062C429.217 489.435 430.933 487.305 433.05 487.305C435.166 487.305 436.881 489.435 436.881 492.062Z" fill="#54F4FC"/>
<path d="M433.049 497.429C430.666 497.429 428.726 495.022 428.726 492.062C428.726 489.103 430.665 486.695 433.049 486.695C435.434 486.695 437.373 489.103 437.373 492.062C437.373 495.022 435.433 497.429 433.049 497.429ZM433.049 487.914C431.206 487.914 429.708 489.775 429.708 492.062C429.708 494.349 431.206 496.21 433.049 496.21C434.891 496.21 436.391 494.349 436.391 492.062C436.391 489.775 434.891 487.914 433.049 487.914Z" fill="#54F4FC"/>
<path d="M354.915 497.656C357.403 497.656 359.42 495.151 359.42 492.062C359.42 488.973 357.403 486.469 354.915 486.469C352.426 486.469 350.409 488.973 350.409 492.062C350.409 495.151 352.426 497.656 354.915 497.656Z" fill="#54F4FC"/>
<path d="M354.915 498.265C352.159 498.265 349.917 495.482 349.917 492.062C349.917 488.642 352.159 485.859 354.915 485.859C357.669 485.859 359.911 488.642 359.911 492.062C359.911 495.483 357.67 498.265 354.915 498.265ZM354.915 487.079C352.701 487.079 350.9 489.315 350.9 492.062C350.9 494.811 352.701 497.046 354.915 497.046C357.128 497.046 358.929 494.811 358.929 492.062C358.929 489.315 357.128 487.079 354.915 487.079Z" fill="#54F4FC"/>
<path d="M341.103 516.45C341.103 520.448 338.492 523.69 335.272 523.69C332.051 523.69 329.441 520.448 329.441 516.45C329.441 512.452 332.051 509.211 335.272 509.211C338.492 509.211 341.103 512.452 341.103 516.45Z" fill="#54F4FC"/>
<path d="M335.272 524.299C331.785 524.299 328.949 520.778 328.949 516.45C328.949 512.122 331.785 508.602 335.272 508.602C338.758 508.602 341.594 512.123 341.594 516.45C341.594 520.778 338.758 524.299 335.272 524.299ZM335.272 509.821C332.328 509.821 329.932 512.794 329.932 516.45C329.932 520.105 332.328 523.08 335.272 523.08C338.216 523.08 340.611 520.105 340.611 516.45C340.612 512.794 338.217 509.821 335.272 509.821Z" fill="#54F4FC"/>
<path d="M341.573 654.096C341.573 658.417 338.752 661.919 335.272 661.919C331.792 661.919 328.971 658.417 328.971 654.096C328.971 649.776 331.792 646.273 335.272 646.273C338.752 646.273 341.573 649.776 341.573 654.096Z" fill="#54F4FC"/>
<path d="M335.272 662.53C331.527 662.53 328.479 658.747 328.479 654.097C328.479 649.447 331.527 645.664 335.272 645.664C339.016 645.664 342.063 649.447 342.063 654.097C342.064 658.748 339.016 662.53 335.272 662.53ZM335.272 646.884C332.069 646.884 329.462 650.121 329.462 654.098C329.462 658.075 332.069 661.311 335.272 661.311C338.476 661.311 341.081 658.075 341.081 654.098C341.082 650.121 338.476 646.884 335.272 646.884Z" fill="#54F4FC"/>
<path d="M315.629 685.462C318.735 685.462 321.252 682.337 321.252 678.481C321.252 674.626 318.735 671.5 315.629 671.5C312.523 671.5 310.006 674.626 310.006 678.481C310.006 682.337 312.523 685.462 315.629 685.462Z" fill="#54F4FC"/>
<path d="M315.629 686.072C312.258 686.072 309.515 682.667 309.515 678.481C309.515 674.296 312.258 670.891 315.629 670.891C319 670.891 321.743 674.296 321.743 678.481C321.744 682.666 319.001 686.072 315.629 686.072ZM315.629 672.109C312.798 672.109 310.497 674.967 310.497 678.481C310.497 681.995 312.798 684.852 315.629 684.852C318.46 684.852 320.761 681.995 320.761 678.481C320.762 674.967 318.46 672.109 315.629 672.109Z" fill="#54F4FC"/>
<path d="M262.375 683.083C264.42 683.083 266.077 681.025 266.077 678.487C266.077 675.948 264.42 673.891 262.375 673.891C260.33 673.891 258.673 675.948 258.673 678.487C258.673 681.025 260.33 683.083 262.375 683.083Z" fill="#54F4FC"/>
<path d="M262.375 683.693C260.063 683.693 258.182 681.358 258.182 678.487C258.182 675.616 260.063 673.281 262.375 673.281C264.687 673.281 266.568 675.616 266.568 678.487C266.568 681.358 264.687 683.693 262.375 683.693ZM262.375 674.5C260.604 674.5 259.164 676.289 259.164 678.487C259.164 680.685 260.604 682.474 262.375 682.474C264.145 682.474 265.586 680.685 265.586 678.487C265.586 676.289 264.146 674.5 262.375 674.5Z" fill="#54F4FC"/>
<path d="M247.519 702.872C247.519 706.154 245.376 708.815 242.732 708.815C240.088 708.815 237.945 706.154 237.945 702.872C237.945 699.59 240.088 696.93 242.732 696.93C245.376 696.93 247.519 699.591 247.519 702.872Z" fill="#54F4FC"/>
<path d="M242.732 709.426C239.822 709.426 237.454 706.486 237.454 702.873C237.454 699.261 239.822 696.32 242.732 696.32C245.643 696.32 248.01 699.261 248.01 702.873C248.01 706.486 245.643 709.426 242.732 709.426ZM242.732 697.539C240.364 697.539 238.436 699.932 238.436 702.872C238.436 705.814 240.364 708.206 242.732 708.206C245.101 708.206 247.028 705.813 247.028 702.872C247.028 699.932 245.101 697.539 242.732 697.539Z" fill="#54F4FC"/>
<path d="M247.848 781.992C247.848 785.499 245.558 788.343 242.732 788.343C239.906 788.343 237.616 785.499 237.616 781.992C237.616 778.484 239.906 775.641 242.732 775.641C245.558 775.641 247.848 778.484 247.848 781.992Z" fill="#54F4FC"/>
<path d="M242.732 788.953C239.64 788.953 237.125 785.83 237.125 781.992C237.125 778.154 239.64 775.031 242.732 775.031C245.824 775.031 248.339 778.154 248.339 781.992C248.339 785.83 245.824 788.953 242.732 788.953ZM242.732 776.251C240.182 776.251 238.107 778.827 238.107 781.992C238.107 785.158 240.182 787.734 242.732 787.734C245.282 787.734 247.357 785.158 247.357 781.992C247.357 778.827 245.283 776.251 242.732 776.251Z" fill="#54F4FC"/>
<path d="M262.375 811.536C264.67 811.536 266.53 809.227 266.53 806.378C266.53 803.528 264.67 801.219 262.375 801.219C260.08 801.219 258.219 803.528 258.219 806.378C258.219 809.227 260.08 811.536 262.375 811.536Z" fill="#54F4FC"/>
<path d="M262.375 812.147C259.813 812.147 257.729 809.559 257.729 806.378C257.729 803.197 259.813 800.609 262.375 800.609C264.937 800.609 267.022 803.197 267.022 806.378C267.022 809.559 264.937 812.147 262.375 812.147ZM262.375 801.829C260.355 801.829 258.711 803.87 258.711 806.378C258.711 808.886 260.355 810.928 262.375 810.928C264.395 810.928 266.039 808.887 266.039 806.378C266.039 803.87 264.395 801.829 262.375 801.829Z" fill="#54F4FC"/>
<path d="M308.644 811.704C311.013 811.704 312.933 809.32 312.933 806.379C312.933 803.439 311.013 801.055 308.644 801.055C306.276 801.055 304.355 803.439 304.355 806.379C304.355 809.32 306.276 811.704 308.644 811.704Z" fill="#54F4FC"/>
<path d="M308.645 812.315C306.009 812.315 303.865 809.652 303.865 806.38C303.865 803.108 306.009 800.445 308.645 800.445C311.281 800.445 313.425 803.108 313.425 806.38C313.425 809.652 311.281 812.315 308.645 812.315ZM308.645 801.665C306.55 801.665 304.847 803.78 304.847 806.38C304.847 808.981 306.551 811.095 308.645 811.095C310.74 811.095 312.443 808.98 312.443 806.38C312.443 803.78 310.739 801.665 308.645 801.665Z" fill="#54F4FC"/>
<path d="M334.564 830.761C334.564 835.064 331.754 838.552 328.288 838.552C324.821 838.552 322.011 835.064 322.011 830.761C322.011 826.457 324.821 822.969 328.288 822.969C331.754 822.969 334.564 826.457 334.564 830.761Z" fill="#54F4FC"/>
<path d="M328.288 839.163C324.556 839.163 321.521 835.395 321.521 830.761C321.521 826.128 324.556 822.359 328.288 822.359C332.019 822.359 335.054 826.128 335.054 830.761C335.054 835.394 332.019 839.163 328.288 839.163ZM328.288 823.579C325.098 823.579 322.503 826.801 322.503 830.761C322.503 834.722 325.098 837.944 328.288 837.944C331.478 837.944 334.072 834.721 334.072 830.761C334.072 826.801 331.478 823.579 328.288 823.579Z" fill="#54F4FC"/>
</g>
</g>
<defs>
<clipPath id="clip0_203_6614">
<rect width="437.373" height="1036.15" fill="white"/>
</clipPath>
</defs>
</svg>
