<svg width="438" height="912" viewBox="0 0 438 912" fill="none" xmlns="http://www.w3.org/2000/svg">
<g clip-path="url(#clip0_203_15501)">
<g opacity="0.08">
<path d="M223.089 386.062L70.3113 386.062C60.0219 386.062 51.6507 376.919 51.6507 365.681V307.515C51.6507 295.094 42.3984 284.988 31.0257 284.988L-57.149 284.988C-67.4384 284.988 -75.8096 275.845 -75.8096 264.607V130.16C-75.8096 117.738 -85.0619 107.633 -96.4346 107.633L-298.537 107.633V109.778L-96.4346 109.778C-86.1452 109.778 -77.7739 118.921 -77.7739 130.16V264.607C-77.7739 277.029 -68.5217 287.134 -57.149 287.134L31.0257 287.134C41.3151 287.134 49.6864 296.277 49.6864 307.516V365.681C49.6864 378.103 58.9386 388.208 70.3113 388.208L223.089 388.208C233.378 388.208 241.749 397.351 241.749 408.59V433.262C241.749 444.501 233.378 453.644 223.089 453.644L-298.537 453.644V455.789L223.089 455.789C234.461 455.789 243.714 445.683 243.714 433.262V408.589C243.714 396.168 234.461 386.062 223.089 386.062Z" fill="#176DB3"/>
<path d="M168.416 0V565.917C168.416 577.156 160.045 586.299 149.756 586.299L42.3748 586.299C31.0021 586.299 21.7499 596.405 21.7499 608.826V821.462C21.7499 832.7 13.3786 841.843 3.08919 841.843L-197.704 841.843C-207.994 841.843 -216.365 832.7 -216.365 821.462V584.034C-216.365 571.613 -225.617 561.507 -236.99 561.507H-298.537V563.653H-236.99C-226.7 563.653 -218.329 572.796 -218.329 584.034V821.462C-218.329 833.883 -209.077 843.989 -197.704 843.989L3.08919 843.989C14.4619 843.989 23.7142 833.883 23.7142 821.462V608.826C23.7142 597.588 32.0854 588.445 42.3748 588.445L149.756 588.445C161.128 588.445 170.381 578.338 170.381 565.917V0L168.416 0Z" fill="#176DB3"/>
<path d="M-165.075 324.675V518.241C-165.075 530.662 -155.823 540.768 -144.45 540.768L83.4067 540.768C93.6961 540.768 102.067 549.911 102.067 561.15V661.27C102.067 673.691 111.32 683.797 122.692 683.797L179.439 683.797C189.728 683.797 198.099 692.94 198.099 704.179L198.099 911.57H200.063L200.063 704.178C200.063 691.757 190.811 681.651 179.439 681.651L122.692 681.651C112.403 681.651 104.032 672.508 104.032 661.269V561.15C104.032 548.729 94.7794 538.622 83.4067 538.622L-144.45 538.622C-154.739 538.622 -163.111 529.479 -163.111 518.241V324.675C-163.111 312.254 -172.363 302.148 -183.736 302.148L-298.537 302.148V304.294L-183.736 304.294C-173.446 304.294 -165.075 313.437 -165.075 324.675Z" fill="#176DB3"/>
<path d="M95.0834 0V60.5491C95.0834 71.7877 86.7121 80.9308 76.4227 80.9308L-51.9102 80.9308C-62.1996 80.9308 -70.5709 71.7877 -70.5709 60.5491V0L-72.5352 0V60.5491C-72.5352 72.9706 -63.2829 83.0762 -51.9102 83.0762L76.4227 83.0762C87.7954 83.0762 97.0477 72.9706 97.0477 60.5491V0L95.0834 0Z" fill="#176DB3"/>
<path d="M241.749 0V226.462C241.749 237.701 233.378 246.844 223.089 246.844L115.708 246.844C105.418 246.844 97.0472 237.701 97.0472 226.462V219.788C97.0472 207.366 87.7949 197.26 76.4222 197.26L37.1366 197.26C25.7639 197.26 16.5116 207.366 16.5116 219.788V318.001C16.5116 330.422 25.7639 340.528 37.1366 340.528L102.613 340.528C112.902 340.528 121.274 349.671 121.274 360.909V482.006C121.274 494.427 130.526 504.533 141.899 504.533H205.628C215.918 504.533 224.289 513.677 224.289 524.915V610.732C224.289 621.971 215.918 631.114 205.628 631.114L-298.537 631.114V633.259L205.629 633.259C217.001 633.259 226.254 623.153 226.254 610.732V524.915C226.254 512.494 217.001 502.388 205.629 502.388H141.899C131.609 502.388 123.238 493.245 123.238 482.006V360.909C123.238 348.488 113.986 338.382 102.613 338.382L37.1366 338.382C26.8472 338.382 18.4759 329.239 18.4759 318.001V219.788C18.4759 208.549 26.8472 199.406 37.1366 199.406L76.4222 199.406C86.7116 199.406 95.0829 208.549 95.0829 219.788V226.462C95.0829 238.884 104.335 248.989 115.708 248.989L223.089 248.989C234.461 248.989 243.714 238.884 243.714 226.462V0L241.749 0Z" fill="#176DB3"/>
<path d="M-173.805 814.785V859.601C-173.805 872.022 -164.553 882.128 -153.18 882.128L57.2165 882.128C68.5892 882.128 77.8414 872.022 77.8414 859.601V776.645C77.8414 765.407 86.2127 756.263 96.5021 756.263H235.311C245.6 756.263 253.972 765.407 253.972 776.645V911.568H255.936V776.644C255.936 764.223 246.684 754.117 235.311 754.117H96.5021C85.1294 754.117 75.8771 764.223 75.8771 776.644V859.6C75.8771 870.839 67.5059 879.982 57.2165 879.982L-153.18 879.982C-163.47 879.982 -171.841 870.839 -171.841 859.6V814.785C-171.841 802.364 -181.093 792.258 -192.466 792.258L-298.537 792.258V794.403L-192.466 794.403C-182.176 794.404 -173.805 803.547 -173.805 814.785Z" fill="#176DB3"/>
<path d="M124.984 911.568V849.113C124.984 837.875 133.355 828.731 143.644 828.731L377.176 828.731V826.586L143.644 826.586C132.272 826.586 123.02 836.692 123.02 849.113V911.568H124.984Z" fill="#176DB3"/>
<path d="M124.984 100.597V0L123.02 0V100.597C123.02 113.018 132.272 123.124 143.644 123.124L344.001 123.124V120.978L143.644 120.978C133.355 120.978 124.984 111.835 124.984 100.597Z" fill="#176DB3"/>
<path d="M131.968 260.253V179.739C131.968 167.318 122.716 157.212 111.343 157.212L28.4069 157.212C23.449 157.212 18.8319 155.09 15.4043 151.238C11.9776 147.385 10.169 142.283 10.3119 136.871C10.3237 136.429 11.486 92.1259 11.9933 47.6944C12.2197 27.8914 12.2712 12.2955 12.2045 0L10.2485 0C10.4479 38.5321 9.47215 94.2654 8.34858 136.809C8.18997 142.806 10.1955 148.461 13.9954 152.733C17.7958 157.005 22.9137 159.358 28.4069 159.358L111.343 159.358C121.633 159.358 130.004 168.501 130.004 179.74V260.253C130.004 272.675 139.256 282.78 150.629 282.78L300.351 282.78V280.635L150.629 280.635C140.339 280.634 131.968 271.491 131.968 260.253Z" fill="#176DB3"/>
<path d="M208.792 324.675L208.792 0L206.828 0L206.828 324.675C206.828 337.097 216.08 347.202 227.453 347.202L398.128 347.202V345.057L227.453 345.057C217.164 345.057 208.792 335.913 208.792 324.675Z" fill="#176DB3"/>
<path d="M289.874 911.568V532.543C289.874 521.304 298.246 512.161 308.535 512.161L398.128 512.161V510.016L308.535 510.016C297.163 510.016 287.91 520.122 287.91 532.543V911.568H289.874Z" fill="#176DB3"/>
<path d="M354.915 431.828C343.543 431.828 334.29 441.934 334.29 454.355V575.453C334.29 586.691 325.918 595.835 315.629 595.835H262.375C251.002 595.835 241.75 605.941 241.75 618.362L241.75 687.969C241.75 700.389 251.002 710.496 262.375 710.496H308.645C318.934 710.496 327.306 719.639 327.306 730.877V911.571H329.27V730.878C329.27 718.457 320.017 708.351 308.645 708.351H262.375C252.086 708.351 243.714 699.208 243.714 687.969L243.714 618.362C243.714 607.124 252.086 597.981 262.375 597.981H315.629C327.001 597.981 336.254 587.874 336.254 575.453V454.355C336.254 443.117 344.625 433.974 354.915 433.974L433.048 433.974V431.828L354.915 431.828Z" fill="#176DB3"/>
<path d="M229.411 454.712C229.411 458.526 226.58 461.619 223.087 461.619C219.595 461.619 216.764 458.526 216.764 454.712C216.764 450.897 219.595 447.805 223.087 447.805C226.58 447.805 229.411 450.897 229.411 454.712Z" fill="#54F4FC"/>
<path d="M223.088 462.152C219.331 462.152 216.273 458.814 216.273 454.709C216.273 450.605 219.331 447.266 223.088 447.266C226.845 447.266 229.903 450.605 229.903 454.709C229.903 458.814 226.846 462.152 223.088 462.152ZM223.088 448.339C219.872 448.339 217.256 451.197 217.256 454.709C217.256 458.221 219.872 461.079 223.088 461.079C226.304 461.079 228.92 458.221 228.92 454.709C228.92 451.197 226.304 448.339 223.088 448.339Z" fill="#54F4FC"/>
<path d="M246.908 433.263C246.908 435.781 245.039 437.822 242.733 437.822C240.428 437.822 238.559 435.781 238.559 433.263C238.559 430.744 240.428 428.703 242.733 428.703C245.039 428.703 246.908 430.744 246.908 433.263Z" fill="#54F4FC"/>
<path d="M242.732 438.356C240.159 438.356 238.066 436.07 238.066 433.26C238.066 430.449 240.159 428.164 242.732 428.164C245.305 428.164 247.398 430.45 247.398 433.26C247.398 436.07 245.305 438.356 242.732 438.356ZM242.732 429.236C240.701 429.236 239.049 431.041 239.049 433.26C239.049 435.478 240.701 437.283 242.732 437.283C244.763 437.283 246.416 435.478 246.416 433.26C246.416 431.041 244.763 429.236 242.732 429.236Z" fill="#54F4FC"/>
<path d="M248.952 408.585C248.952 412.339 246.167 415.381 242.73 415.381C239.294 415.381 236.508 412.339 236.508 408.585C236.508 404.832 239.294 401.789 242.73 401.789C246.167 401.789 248.952 404.832 248.952 408.585Z" fill="#54F4FC"/>
<path d="M242.731 415.915C239.029 415.915 236.018 412.626 236.018 408.582C236.018 404.539 239.029 401.25 242.731 401.25C246.433 401.25 249.444 404.539 249.444 408.582C249.444 412.625 246.433 415.915 242.731 415.915ZM242.731 402.322C239.57 402.322 237 405.131 237 408.582C237 412.034 239.57 414.842 242.731 414.842C245.892 414.842 248.462 412.034 248.462 408.582C248.462 405.131 245.892 402.322 242.731 402.322Z" fill="#54F4FC"/>
<path d="M229.208 387.137C229.208 390.828 226.469 393.821 223.088 393.821C219.708 393.821 216.969 390.828 216.969 387.137C216.969 383.446 219.708 380.453 223.088 380.453C226.469 380.453 229.208 383.445 229.208 387.137Z" fill="#54F4FC"/>
<path d="M223.089 394.354C219.444 394.354 216.479 391.115 216.479 387.134C216.479 383.153 219.444 379.914 223.089 379.914C226.735 379.914 229.7 383.153 229.7 387.134C229.7 391.115 226.735 394.354 223.089 394.354ZM223.089 380.986C219.986 380.986 217.461 383.744 217.461 387.134C217.461 390.524 219.986 393.282 223.089 393.282C226.193 393.282 228.718 390.524 228.718 387.134C228.718 383.744 226.193 380.986 223.089 380.986Z" fill="#54F4FC"/>
<path d="M74.9818 387.133C74.9818 389.95 72.8908 392.234 70.3112 392.234C67.7316 392.234 65.6406 389.951 65.6406 387.133C65.6406 384.315 67.7316 382.031 70.3112 382.031C72.8908 382.031 74.9818 384.315 74.9818 387.133Z" fill="#54F4FC"/>
<path d="M70.3121 392.768C67.4658 392.768 65.1504 390.238 65.1504 387.13C65.1504 384.022 67.4658 381.492 70.3121 381.492C73.1583 381.492 75.4742 384.022 75.4742 387.13C75.4742 390.238 73.1583 392.768 70.3121 392.768ZM70.3121 382.565C68.008 382.565 66.1325 384.612 66.1325 387.13C66.1325 389.648 68.0075 391.695 70.3121 391.695C72.6166 391.695 74.492 389.648 74.492 387.13C74.492 384.612 72.6166 382.565 70.3121 382.565Z" fill="#54F4FC"/>
<path d="M50.6675 372.617C54.1772 372.617 57.0224 369.509 57.0224 365.676C57.0224 361.842 54.1772 358.734 50.6675 358.734C47.1577 358.734 44.3125 361.842 44.3125 365.676C44.3125 369.509 47.1577 372.617 50.6675 372.617Z" fill="#54F4FC"/>
<path d="M50.6683 373.15C46.8934 373.15 43.8223 369.796 43.8223 365.673C43.8223 361.549 46.8934 358.195 50.6683 358.195C54.4436 358.195 57.5143 361.55 57.5143 365.673C57.5143 369.796 54.4432 373.15 50.6683 373.15ZM50.6683 359.268C47.4346 359.268 44.8044 362.141 44.8044 365.673C44.8044 369.205 47.4346 372.078 50.6683 372.078C53.902 372.078 56.5322 369.205 56.5322 365.673C56.5322 362.141 53.902 359.268 50.6683 359.268Z" fill="#54F4FC"/>
<path d="M50.6682 313.56C53.7231 313.56 56.1996 310.855 56.1996 307.518C56.1996 304.181 53.7231 301.477 50.6682 301.477C47.6132 301.477 45.1367 304.181 45.1367 307.518C45.1367 310.855 47.6132 313.56 50.6682 313.56Z" fill="#54F4FC"/>
<path d="M50.669 314.093C47.3479 314.093 44.6465 311.142 44.6465 307.515C44.6465 303.888 47.3479 300.938 50.669 300.938C53.9901 300.938 56.6915 303.888 56.6915 307.515C56.6915 311.143 53.9901 314.093 50.669 314.093ZM50.669 302.01C47.89 302.01 45.6286 304.48 45.6286 307.515C45.6286 310.55 47.8895 313.02 50.669 313.02C53.448 313.02 55.7093 310.55 55.7093 307.515C55.7093 304.48 53.448 302.01 50.669 302.01Z" fill="#54F4FC"/>
<path d="M35.3746 286.063C35.3746 288.687 33.4275 290.813 31.0252 290.813C28.6229 290.813 26.6758 288.687 26.6758 286.063C26.6758 283.439 28.6229 281.313 31.0252 281.313C33.4275 281.312 35.3746 283.439 35.3746 286.063Z" fill="#54F4FC"/>
<path d="M31.0255 291.348C28.3566 291.348 26.1855 288.976 26.1855 286.061C26.1855 283.145 28.3571 280.773 31.0255 280.773C33.695 280.773 35.866 283.145 35.866 286.061C35.866 288.976 33.6945 291.348 31.0255 291.348ZM31.0255 281.846C28.8982 281.846 27.1677 283.736 27.1677 286.061C27.1677 288.385 28.8982 290.275 31.0255 290.275C33.1534 290.275 34.8839 288.385 34.8839 286.061C34.8839 283.737 33.1534 281.846 31.0255 281.846Z" fill="#54F4FC"/>
<path d="M174.569 565.92C174.569 569.038 172.255 571.566 169.4 571.566C166.545 571.566 164.23 569.038 164.23 565.92C164.23 562.802 166.545 560.273 169.4 560.273C172.255 560.273 174.569 562.802 174.569 565.92Z" fill="#54F4FC"/>
<path d="M169.399 572.1C166.278 572.1 163.738 569.326 163.738 565.917C163.738 562.508 166.278 559.734 169.399 559.734C172.52 559.734 175.059 562.508 175.059 565.917C175.06 569.326 172.521 572.1 169.399 572.1ZM169.399 560.807C166.819 560.807 164.72 563.099 164.72 565.917C164.72 568.735 166.819 571.027 169.399 571.027C171.978 571.027 174.077 568.735 174.077 565.917C174.078 563.099 171.978 560.807 169.399 560.807Z" fill="#54F4FC"/>
<path d="M154.843 587.377C154.843 590.446 152.565 592.934 149.755 592.934C146.946 592.934 144.668 590.446 144.668 587.377C144.668 584.308 146.946 581.82 149.755 581.82C152.566 581.82 154.843 584.308 154.843 587.377Z" fill="#54F4FC"/>
<path d="M149.756 593.467C146.68 593.467 144.178 590.734 144.178 587.375C144.178 584.014 146.681 581.281 149.756 581.281C152.832 581.281 155.335 584.014 155.335 587.375C155.335 590.734 152.832 593.467 149.756 593.467ZM149.756 582.353C147.222 582.353 145.16 584.605 145.16 587.374C145.16 590.142 147.222 592.394 149.756 592.394C152.291 592.394 154.353 590.142 154.353 587.374C154.353 584.606 152.291 582.353 149.756 582.353Z" fill="#54F4FC"/>
<path d="M49.2756 587.372C49.2756 591.534 46.1863 594.908 42.3761 594.908C38.5654 594.908 35.4766 591.534 35.4766 587.372C35.4766 583.21 38.5654 579.836 42.3761 579.836C46.1868 579.836 49.2756 583.21 49.2756 587.372Z" fill="#54F4FC"/>
<path d="M42.375 595.441C38.2996 595.441 34.9844 591.821 34.9844 587.37C34.9844 582.918 38.2996 579.297 42.375 579.297C46.4504 579.297 49.7656 582.918 49.7656 587.37C49.7656 591.821 46.4504 595.441 42.375 595.441ZM42.375 580.37C38.8417 580.37 35.9665 583.51 35.9665 587.37C35.9665 591.229 38.8412 594.368 42.375 594.368C45.9082 594.368 48.7834 591.229 48.7834 587.37C48.7834 583.51 45.9082 580.37 42.375 580.37Z" fill="#54F4FC"/>
<path d="M28.1919 608.832C28.1919 612.126 25.7469 614.797 22.7307 614.797C19.7146 614.797 17.2695 612.127 17.2695 608.832C17.2695 605.538 19.7146 602.867 22.7307 602.867C25.7469 602.867 28.1919 605.538 28.1919 608.832Z" fill="#54F4FC"/>
<path d="M22.7315 615.33C19.4492 615.33 16.7793 612.414 16.7793 608.829C16.7793 605.245 19.4497 602.328 22.7315 602.328C26.0139 602.328 28.6838 605.245 28.6838 608.829C28.6838 612.414 26.0139 615.33 22.7315 615.33ZM22.7315 603.401C19.9909 603.401 17.7614 605.836 17.7614 608.829C17.7614 611.822 19.9909 614.258 22.7315 614.258C25.4722 614.258 27.7017 611.822 27.7017 608.829C27.7017 605.836 25.4722 603.401 22.7315 603.401Z" fill="#54F4FC"/>
<path d="M27.7207 821.465C27.7207 824.474 25.4868 826.914 22.7315 826.914C19.9761 826.914 17.7422 824.474 17.7422 821.465C17.7422 818.455 19.9761 816.016 22.7315 816.016C25.4868 816.016 27.7207 818.455 27.7207 821.465Z" fill="#54F4FC"/>
<path d="M22.7318 827.448C19.7103 827.448 17.252 824.763 17.252 821.462C17.252 818.161 19.7103 815.477 22.7318 815.477C25.7534 815.477 28.2117 818.161 28.2117 821.462C28.2117 824.763 25.7534 827.448 22.7318 827.448ZM22.7318 816.549C20.2514 816.549 18.2341 818.753 18.2341 821.462C18.2341 824.171 20.2514 826.375 22.7318 826.375C25.2122 826.375 27.2295 824.171 27.2295 821.462C27.2295 818.753 25.2122 816.549 22.7318 816.549Z" fill="#54F4FC"/>
<path d="M7.0163 842.922C7.0163 845.291 5.25826 847.211 3.0892 847.211C0.920146 847.211 -0.837891 845.291 -0.837891 842.922C-0.837891 840.553 0.920146 838.633 3.0892 838.633C5.25826 838.632 7.0163 840.553 7.0163 842.922Z" fill="#54F4FC"/>
<path d="M3.09004 847.745C0.65384 847.745 -1.32812 845.579 -1.32812 842.919C-1.32812 840.258 0.65384 838.094 3.09004 838.094C5.52624 838.094 7.50821 840.258 7.50821 842.919C7.50821 845.579 5.52624 847.745 3.09004 847.745ZM3.09004 839.166C1.19549 839.166 -0.345984 840.849 -0.345984 842.918C-0.345984 844.988 1.19549 846.672 3.09004 846.672C4.98459 846.672 6.52607 844.988 6.52607 842.918C6.52607 840.849 4.98508 839.166 3.09004 839.166Z" fill="#54F4FC"/>
<path d="M205.284 704.182C205.284 707.924 202.507 710.958 199.081 710.958C195.654 710.958 192.877 707.924 192.877 704.182C192.877 700.44 195.654 697.406 199.081 697.406C202.507 697.406 205.284 700.44 205.284 704.182Z" fill="#54F4FC"/>
<path d="M199.081 711.491C195.39 711.491 192.387 708.211 192.387 704.179C192.387 700.147 195.39 696.867 199.081 696.867C202.773 696.867 205.776 700.147 205.776 704.179C205.776 708.211 202.773 711.491 199.081 711.491ZM199.081 697.94C195.932 697.94 193.369 700.739 193.369 704.179C193.369 707.619 195.932 710.418 199.081 710.418C202.231 710.418 204.794 707.619 204.794 704.179C204.794 700.739 202.232 697.94 199.081 697.94Z" fill="#54F4FC"/>
<path d="M183.55 682.725C183.55 685.205 181.709 687.216 179.438 687.216C177.167 687.216 175.326 685.206 175.326 682.725C175.326 680.245 177.167 678.234 179.438 678.234C181.709 678.234 183.55 680.245 183.55 682.725Z" fill="#54F4FC"/>
<path d="M179.439 687.75C176.901 687.75 174.836 685.495 174.836 682.722C174.836 679.951 176.901 677.695 179.439 677.695C181.977 677.695 184.041 679.951 184.041 682.722C184.042 685.494 181.977 687.75 179.439 687.75ZM179.439 678.768C177.443 678.768 175.818 680.541 175.818 682.722C175.818 684.904 177.443 686.677 179.439 686.677C181.435 686.677 183.059 684.904 183.059 682.722C183.059 680.541 181.435 678.768 179.439 678.768Z" fill="#54F4FC"/>
<path d="M128.035 682.725C128.035 685.947 125.644 688.56 122.693 688.56C119.743 688.56 117.352 685.947 117.352 682.725C117.352 679.503 119.743 676.891 122.693 676.891C125.644 676.891 128.035 679.503 128.035 682.725Z" fill="#54F4FC"/>
<path d="M122.692 689.094C119.476 689.094 116.859 686.237 116.859 682.723C116.859 679.21 119.476 676.352 122.692 676.352C125.909 676.352 128.525 679.21 128.525 682.723C128.525 686.237 125.909 689.094 122.692 689.094ZM122.692 677.425C120.018 677.425 117.842 679.802 117.842 682.723C117.842 685.645 120.018 688.022 122.692 688.022C125.367 688.022 127.543 685.645 127.543 682.723C127.543 679.801 125.367 677.425 122.692 677.425Z" fill="#54F4FC"/>
<path d="M106.91 661.273C106.91 663.603 105.181 665.492 103.048 665.492C100.915 665.492 99.1855 663.603 99.1855 661.273C99.1855 658.943 100.915 657.055 103.048 657.055C105.181 657.055 106.91 658.944 106.91 661.273Z" fill="#54F4FC"/>
<path d="M103.049 666.026C100.648 666.026 98.6953 663.893 98.6953 661.271C98.6953 658.649 100.648 656.516 103.049 656.516C105.449 656.516 107.402 658.649 107.402 661.271C107.402 663.893 105.449 666.026 103.049 666.026ZM103.049 657.589C101.19 657.589 99.6775 659.241 99.6775 661.271C99.6775 663.301 101.19 664.954 103.049 664.954C104.907 664.954 106.42 663.301 106.42 661.271C106.42 659.241 104.907 657.589 103.049 657.589Z" fill="#54F4FC"/>
<path d="M108.733 561.152C108.733 564.58 106.188 567.359 103.05 567.359C99.9114 567.359 97.3672 564.58 97.3672 561.152C97.3672 557.724 99.9114 554.945 103.05 554.945C106.188 554.945 108.733 557.724 108.733 561.152Z" fill="#54F4FC"/>
<path d="M103.049 567.893C99.6442 567.893 96.875 564.868 96.875 561.15C96.875 557.432 99.6446 554.406 103.049 554.406C106.453 554.406 109.222 557.432 109.222 561.15C109.222 564.868 106.453 567.893 103.049 567.893ZM103.049 555.48C100.186 555.48 97.8571 558.023 97.8571 561.15C97.8571 564.277 100.186 566.821 103.049 566.821C105.911 566.821 108.24 564.277 108.24 561.15C108.24 558.023 105.911 555.48 103.049 555.48Z" fill="#54F4FC"/>
<path d="M87.6073 539.696C87.6073 542.229 85.727 544.282 83.4081 544.282C81.0888 544.282 79.209 542.229 79.209 539.696C79.209 537.163 81.0893 535.109 83.4081 535.109C85.727 535.109 87.6073 537.163 87.6073 539.696Z" fill="#54F4FC"/>
<path d="M83.4075 544.816C80.821 544.816 78.7168 542.518 78.7168 539.694C78.7168 536.869 80.821 534.57 83.4075 534.57C85.994 534.57 88.0977 536.869 88.0977 539.694C88.0977 542.518 85.9935 544.816 83.4075 544.816ZM83.4075 535.643C81.3627 535.643 79.6989 537.461 79.6989 539.694C79.6989 541.927 81.3627 543.744 83.4075 543.744C85.4518 543.744 87.1156 541.927 87.1156 539.694C87.1156 537.46 85.4518 535.643 83.4075 535.643Z" fill="#54F4FC"/>
<path d="M82.3239 82.0089C82.3239 85.5689 79.6814 88.4553 76.4217 88.4553C73.162 88.4553 70.5195 85.5694 70.5195 82.0089C70.5195 78.449 73.162 75.5625 76.4217 75.5625C79.6814 75.5625 82.3239 78.449 82.3239 82.0089Z" fill="#54F4FC"/>
<path d="M76.4225 88.9887C72.8971 88.9887 70.0293 85.8566 70.0293 82.0061C70.0293 78.1555 72.8971 75.0234 76.4225 75.0234C79.9479 75.0234 82.8158 78.1555 82.8158 82.0061C82.8158 85.8566 79.9479 88.9887 76.4225 88.9887ZM76.4225 76.0964C73.4393 76.0964 71.0114 78.748 71.0114 82.0061C71.0114 85.2647 73.4388 87.9157 76.4225 87.9157C79.4063 87.9157 81.8336 85.2641 81.8336 82.0061C81.8336 78.7475 79.4058 76.0964 76.4225 76.0964Z" fill="#54F4FC"/>
<path d="M101.142 60.5528C101.142 63.6152 98.869 66.0979 96.0655 66.0979C93.2615 66.0979 90.9883 63.6152 90.9883 60.5528C90.9883 57.4905 93.2615 55.0078 96.0655 55.0078C98.869 55.0078 101.142 57.4905 101.142 60.5528Z" fill="#54F4FC"/>
<path d="M96.0658 66.6318C92.9956 66.6318 90.498 63.904 90.498 60.5505C90.498 57.197 92.9956 54.4688 96.0658 54.4687C99.136 54.4687 101.634 57.197 101.634 60.5505C101.634 63.9035 99.136 66.6318 96.0658 66.6318ZM96.0658 55.5412C93.5378 55.5412 91.4802 57.7885 91.4802 60.55C91.4802 63.312 93.5378 65.5583 96.0658 65.5583C98.5943 65.5583 100.652 63.3115 100.652 60.55C100.652 57.7885 98.5948 55.5412 96.0658 55.5412Z" fill="#54F4FC"/>
<path d="M205.627 636.7C207.908 636.7 209.757 634.681 209.757 632.19C209.757 629.699 207.908 627.68 205.627 627.68C203.347 627.68 201.498 629.699 201.498 632.19C201.498 634.681 203.347 636.7 205.627 636.7Z" fill="#54F4FC"/>
<path d="M205.628 637.234C203.08 637.234 201.008 634.97 201.008 632.187C201.008 629.405 203.081 627.141 205.628 627.141C208.176 627.141 210.249 629.405 210.249 632.187C210.249 634.971 208.176 637.234 205.628 637.234ZM205.628 628.214C203.622 628.214 201.99 629.997 201.99 632.187C201.99 634.379 203.622 636.162 205.628 636.162C207.634 636.162 209.267 634.379 209.267 632.187C209.267 629.997 207.634 628.214 205.628 628.214Z" fill="#54F4FC"/>
<path d="M231.268 610.739C231.268 614.357 228.583 617.291 225.27 617.291C221.957 617.291 219.271 614.357 219.271 610.739C219.271 607.121 221.957 604.188 225.27 604.188C228.583 604.188 231.268 607.121 231.268 610.739Z" fill="#54F4FC"/>
<path d="M225.271 617.824C221.692 617.824 218.781 614.645 218.781 610.736C218.781 606.828 221.692 603.648 225.271 603.648C228.849 603.648 231.76 606.828 231.76 610.736C231.76 614.644 228.849 617.824 225.271 617.824ZM225.271 604.721C222.234 604.721 219.763 607.419 219.763 610.736C219.763 614.053 222.234 616.751 225.271 616.751C228.307 616.751 230.778 614.053 230.778 610.736C230.778 607.42 228.307 604.721 225.271 604.721Z" fill="#54F4FC"/>
<path d="M229.903 524.92C229.903 527.714 227.829 529.98 225.27 529.98C222.711 529.98 220.637 527.714 220.637 524.92C220.637 522.125 222.711 519.859 225.27 519.859C227.829 519.859 229.903 522.125 229.903 524.92Z" fill="#54F4FC"/>
<path d="M225.271 530.513C222.445 530.513 220.146 528.002 220.146 524.916C220.146 521.83 222.445 519.32 225.271 519.32C228.096 519.32 230.395 521.83 230.395 524.916C230.395 528.002 228.096 530.513 225.271 530.513ZM225.271 520.393C222.987 520.393 221.129 522.422 221.129 524.916C221.129 527.412 222.987 529.441 225.271 529.441C227.554 529.441 229.412 527.412 229.412 524.916C229.412 522.422 227.554 520.393 225.271 520.393Z" fill="#54F4FC"/>
<path d="M205.63 509.911C208.888 509.911 211.529 507.026 211.529 503.467C211.529 499.908 208.888 497.023 205.63 497.023C202.372 497.023 199.73 499.908 199.73 503.467C199.73 507.026 202.372 509.911 205.63 509.911Z" fill="#54F4FC"/>
<path d="M205.629 510.444C202.105 510.444 199.238 507.313 199.238 503.464C199.238 499.615 202.105 496.484 205.629 496.484C209.153 496.484 212.02 499.615 212.02 503.464C212.02 507.313 209.152 510.444 205.629 510.444ZM205.629 497.557C202.647 497.557 200.22 500.207 200.22 503.464C200.22 506.721 202.646 509.372 205.629 509.372C208.611 509.372 211.038 506.721 211.038 503.464C211.038 500.207 208.611 497.557 205.629 497.557Z" fill="#54F4FC"/>
<path d="M141.897 509.183C144.79 509.183 147.135 506.622 147.135 503.463C147.135 500.303 144.79 497.742 141.897 497.742C139.005 497.742 136.66 500.303 136.66 503.463C136.66 506.622 139.005 509.183 141.897 509.183Z" fill="#54F4FC"/>
<path d="M141.898 509.715C138.74 509.715 136.17 506.909 136.17 503.459C136.17 500.01 138.74 497.203 141.898 497.203C145.057 497.203 147.626 500.01 147.626 503.459C147.626 506.909 145.057 509.715 141.898 509.715ZM141.898 498.276C139.281 498.276 137.152 500.601 137.152 503.459C137.152 506.317 139.281 508.643 141.898 508.643C144.515 508.643 146.644 506.317 146.644 503.459C146.644 500.601 144.515 498.276 141.898 498.276Z" fill="#54F4FC"/>
<path d="M122.258 486.095C124.322 486.095 125.996 484.267 125.996 482.012C125.996 479.758 124.322 477.93 122.258 477.93C120.193 477.93 118.52 479.758 118.52 482.012C118.52 484.267 120.193 486.095 122.258 486.095Z" fill="#54F4FC"/>
<path d="M122.256 486.628C119.924 486.628 118.027 484.556 118.027 482.01C118.027 479.463 119.924 477.391 122.256 477.391C124.588 477.391 126.485 479.463 126.485 482.01C126.485 484.556 124.588 486.628 122.256 486.628ZM122.256 478.463C120.466 478.463 119.009 480.055 119.009 482.009C119.009 483.964 120.466 485.555 122.256 485.555C124.046 485.555 125.503 483.964 125.503 482.009C125.503 480.055 124.047 478.463 122.256 478.463Z" fill="#54F4FC"/>
<path d="M127.624 360.912C127.624 364.151 125.22 366.777 122.255 366.777C119.289 366.777 116.885 364.151 116.885 360.912C116.885 357.673 119.289 355.047 122.255 355.047C125.22 355.047 127.624 357.673 127.624 360.912Z" fill="#54F4FC"/>
<path d="M122.255 367.311C119.024 367.311 116.395 364.439 116.395 360.909C116.395 357.379 119.024 354.508 122.255 354.508C125.487 354.508 128.116 357.379 128.116 360.909C128.116 364.439 125.487 367.311 122.255 367.311ZM122.255 355.581C119.565 355.581 117.377 357.971 117.377 360.909C117.377 363.847 119.565 366.238 122.255 366.238C124.945 366.238 127.134 363.847 127.134 360.909C127.134 357.971 124.946 355.581 122.255 355.581Z" fill="#54F4FC"/>
<path d="M106.632 339.46C106.632 341.884 104.832 343.849 102.613 343.849C100.393 343.849 98.5938 341.884 98.5938 339.46C98.5938 337.036 100.393 335.07 102.613 335.07C104.832 335.07 106.632 337.036 106.632 339.46Z" fill="#54F4FC"/>
<path d="M102.613 344.383C100.127 344.383 98.1035 342.173 98.1035 339.457C98.1035 336.741 100.127 334.531 102.613 334.531C105.1 334.531 107.123 336.741 107.123 339.457C107.123 342.172 105.1 344.383 102.613 344.383ZM102.613 335.604C100.668 335.604 99.0857 337.332 99.0857 339.456C99.0857 341.581 100.668 343.31 102.613 343.31C104.559 343.31 106.141 341.581 106.141 339.456C106.141 337.332 104.559 335.604 102.613 335.604Z" fill="#54F4FC"/>
<path d="M41.0977 339.459C41.0977 341.848 39.3245 343.785 37.1367 343.785C34.949 343.785 33.1758 341.848 33.1758 339.459C33.1758 337.07 34.949 335.133 37.1367 335.133C39.3245 335.133 41.0977 337.07 41.0977 339.459Z" fill="#54F4FC"/>
<path d="M37.1371 344.319C34.6822 344.319 32.6855 342.138 32.6855 339.457C32.6855 336.776 34.6822 334.594 37.1371 334.594C39.592 334.594 41.5891 336.776 41.5891 339.457C41.5896 342.138 39.592 344.319 37.1371 344.319ZM37.1371 335.667C35.2239 335.667 33.6677 337.367 33.6677 339.457C33.6677 341.546 35.2244 343.246 37.1371 343.246C39.0503 343.246 40.607 341.546 40.607 339.457C40.6075 337.367 39.0508 335.667 37.1371 335.667Z" fill="#54F4FC"/>
<path d="M22.2242 318.002C22.2242 320.856 20.1062 323.169 17.4942 323.169C14.8817 323.169 12.7637 320.856 12.7637 318.002C12.7637 315.149 14.8817 312.836 17.4942 312.836C20.1062 312.836 22.2242 315.149 22.2242 318.002Z" fill="#54F4FC"/>
<path d="M17.4945 323.703C14.6159 323.703 12.2734 321.144 12.2734 318C12.2734 314.855 14.6154 312.297 17.4945 312.297C20.3737 312.297 22.7161 314.855 22.7161 318C22.7161 321.144 20.3737 323.703 17.4945 323.703ZM17.4945 313.37C15.157 313.37 13.2556 315.447 13.2556 318C13.2556 320.553 15.157 322.63 17.4945 322.63C19.832 322.63 21.7339 320.553 21.7339 318C21.7339 315.447 19.832 313.37 17.4945 313.37Z" fill="#54F4FC"/>
<path d="M21.8429 219.789C21.8429 222.413 19.8958 224.54 17.494 224.54C15.0921 224.54 13.1445 222.413 13.1445 219.789C13.1445 217.166 15.0917 215.039 17.494 215.039C19.8958 215.039 21.8429 217.166 21.8429 219.789Z" fill="#54F4FC"/>
<path d="M17.4943 225.073C14.8253 225.073 12.6543 222.701 12.6543 219.787C12.6543 216.872 14.8258 214.5 17.4943 214.5C20.1633 214.5 22.3343 216.872 22.3343 219.787C22.3343 222.701 20.1633 225.073 17.4943 225.073ZM17.4943 215.572C15.367 215.572 13.6364 217.463 13.6364 219.787C13.6364 222.11 15.367 224 17.4943 224C19.6216 224 21.3522 222.11 21.3522 219.787C21.3526 217.463 19.6216 215.572 17.4943 215.572Z" fill="#54F4FC"/>
<path d="M44.0147 198.339C44.0147 202.487 40.9361 205.85 37.1382 205.85C33.3403 205.85 30.2617 202.487 30.2617 198.339C30.2617 194.191 33.3403 190.828 37.1382 190.828C40.9357 190.828 44.0147 194.191 44.0147 198.339Z" fill="#54F4FC"/>
<path d="M37.1371 206.383C33.0749 206.383 29.7695 202.773 29.7695 198.336C29.7695 193.899 33.0749 190.289 37.1371 190.289C41.1992 190.289 44.5046 193.899 44.5046 198.336C44.5046 202.773 41.1997 206.383 37.1371 206.383ZM37.1371 191.362C33.6161 191.362 30.7517 194.491 30.7517 198.336C30.7517 202.182 33.6161 205.31 37.1371 205.31C40.658 205.31 43.5224 202.182 43.5224 198.336C43.5224 194.491 40.658 191.362 37.1371 191.362Z" fill="#54F4FC"/>
<path d="M81.2645 198.333C81.2645 201.253 79.0974 203.62 76.4245 203.62C73.7511 203.62 71.584 201.253 71.584 198.333C71.584 195.414 73.7511 193.047 76.4245 193.047C79.0974 193.047 81.2645 195.414 81.2645 198.333Z" fill="#54F4FC"/>
<path d="M76.4229 204.153C73.4833 204.153 71.0918 201.541 71.0918 198.331C71.0918 195.12 73.4833 192.508 76.4229 192.508C79.3624 192.508 81.7539 195.12 81.7539 198.331C81.7544 201.541 79.3629 204.153 76.4229 204.153ZM76.4229 193.58C74.0245 193.58 72.0739 195.711 72.0739 198.331C72.0739 200.95 74.025 203.081 76.4229 203.081C78.8213 203.081 80.7718 200.95 80.7718 198.331C80.7723 195.711 78.8213 193.58 76.4229 193.58Z" fill="#54F4FC"/>
<path d="M100.233 219.793C100.233 222.306 98.3673 224.344 96.0666 224.344C93.7655 224.344 91.9004 222.306 91.9004 219.793C91.9004 217.28 93.766 215.242 96.0666 215.242C98.3673 215.242 100.233 217.28 100.233 219.793Z" fill="#54F4FC"/>
<path d="M96.0655 224.877C93.4972 224.877 91.4082 222.595 91.4082 219.79C91.4082 216.985 93.4977 214.703 96.0655 214.703C98.6333 214.703 100.723 216.985 100.723 219.79C100.723 222.595 98.6338 224.877 96.0655 224.877ZM96.0655 215.776C94.0389 215.776 92.3903 217.577 92.3903 219.79C92.3903 222.004 94.0389 223.804 96.0655 223.804C98.0922 223.804 99.7407 222.004 99.7407 219.79C99.7412 217.577 98.0922 215.776 96.0655 215.776Z" fill="#54F4FC"/>
<path d="M100.358 226.464C100.358 229.054 98.4358 231.154 96.0639 231.154C93.6921 231.154 91.7695 229.054 91.7695 226.464C91.7695 223.873 93.6921 221.773 96.0639 221.773C98.4358 221.773 100.358 223.873 100.358 226.464Z" fill="#54F4FC"/>
<path d="M96.0643 231.688C93.4258 231.688 91.2793 229.343 91.2793 226.461C91.2793 223.579 93.4258 221.234 96.0643 221.234C98.7028 221.234 100.85 223.579 100.85 226.461C100.85 229.343 98.7028 231.688 96.0643 231.688ZM96.0643 222.307C93.9669 222.307 92.2614 224.171 92.2614 226.461C92.2614 228.752 93.9674 230.615 96.0643 230.615C98.1612 230.615 99.8676 228.751 99.8676 226.461C99.8676 224.171 98.1617 222.307 96.0643 222.307Z" fill="#54F4FC"/>
<path d="M119.744 247.923C119.744 250.357 117.937 252.33 115.709 252.33C113.48 252.33 111.674 250.357 111.674 247.923C111.674 245.489 113.48 243.516 115.709 243.516C117.937 243.516 119.744 245.489 119.744 247.923Z" fill="#54F4FC"/>
<path d="M115.708 252.864C113.212 252.864 111.182 250.646 111.182 247.92C111.182 245.194 113.212 242.977 115.708 242.977C118.204 242.977 120.235 245.194 120.235 247.92C120.235 250.646 118.204 252.864 115.708 252.864ZM115.708 244.049C113.753 244.049 112.164 245.785 112.164 247.92C112.164 250.055 113.753 251.791 115.708 251.791C117.662 251.791 119.252 250.055 119.252 247.92C119.252 245.786 117.662 244.049 115.708 244.049Z" fill="#54F4FC"/>
<path d="M229.996 247.92C229.996 252.087 226.904 255.464 223.089 255.464C219.274 255.464 216.182 252.087 216.182 247.92C216.182 243.753 219.274 240.375 223.089 240.375C226.904 240.375 229.996 243.753 229.996 247.92Z" fill="#54F4FC"/>
<path d="M223.088 255.998C219.008 255.998 215.689 252.372 215.689 247.917C215.689 243.461 219.009 239.836 223.088 239.836C227.167 239.836 230.486 243.461 230.486 247.917C230.487 252.373 227.168 255.998 223.088 255.998ZM223.088 240.908C219.55 240.908 216.672 244.052 216.672 247.917C216.672 251.781 219.55 254.925 223.088 254.925C226.626 254.925 229.504 251.781 229.504 247.917C229.504 244.052 226.626 240.908 223.088 240.908Z" fill="#54F4FC"/>
<path d="M247.458 226.461C247.458 229.313 245.341 231.625 242.73 231.625C240.119 231.625 238.002 229.313 238.002 226.461C238.002 223.609 240.119 221.297 242.73 221.297C245.341 221.297 247.458 223.609 247.458 226.461Z" fill="#54F4FC"/>
<path d="M242.731 232.159C239.853 232.159 237.512 229.602 237.512 226.458C237.512 223.315 239.853 220.758 242.731 220.758C245.609 220.758 247.95 223.315 247.95 226.458C247.95 229.602 245.609 232.159 242.731 232.159ZM242.731 221.831C240.394 221.831 238.494 223.906 238.494 226.458C238.494 229.01 240.394 231.086 242.731 231.086C245.067 231.086 246.968 229.01 246.968 226.458C246.968 223.906 245.067 221.831 242.731 221.831Z" fill="#54F4FC"/>
<path d="M261.312 776.647C261.312 780.482 258.466 783.591 254.955 783.591C251.444 783.591 248.598 780.482 248.598 776.647C248.598 772.812 251.444 769.703 254.955 769.703C258.466 769.703 261.312 772.812 261.312 776.647Z" fill="#54F4FC"/>
<path d="M254.954 784.125C251.178 784.125 248.105 780.769 248.105 776.645C248.105 772.52 251.178 769.164 254.954 769.164C258.73 769.164 261.802 772.52 261.802 776.645C261.802 780.769 258.73 784.125 254.954 784.125ZM254.954 770.237C251.719 770.237 249.088 773.112 249.088 776.645C249.088 780.177 251.719 783.052 254.954 783.052C258.189 783.052 260.82 780.177 260.82 776.645C260.82 773.112 258.189 770.237 254.954 770.237Z" fill="#54F4FC"/>
<path d="M239.326 755.191C239.326 757.615 237.528 759.578 235.309 759.578C233.091 759.578 231.293 757.614 231.293 755.191C231.293 752.769 233.091 750.805 235.309 750.805C237.528 750.805 239.326 752.769 239.326 755.191Z" fill="#54F4FC"/>
<path d="M235.31 760.113C232.825 760.113 230.803 757.905 230.803 755.189C230.803 752.474 232.824 750.266 235.31 750.266C237.796 750.266 239.818 752.474 239.818 755.189C239.818 757.905 237.796 760.113 235.31 760.113ZM235.31 751.338C233.367 751.338 231.785 753.065 231.785 755.189C231.785 757.313 233.367 759.04 235.31 759.04C237.254 759.04 238.836 757.313 238.836 755.189C238.836 753.066 237.254 751.338 235.31 751.338Z" fill="#54F4FC"/>
<path d="M101.552 755.196C101.552 758.243 99.2911 760.713 96.5018 760.713C93.7125 760.713 91.4512 758.243 91.4512 755.196C91.4512 752.15 93.7125 749.68 96.5018 749.68C99.2911 749.68 101.552 752.15 101.552 755.196Z" fill="#54F4FC"/>
<path d="M96.5027 761.246C93.4468 761.246 90.9609 758.531 90.9609 755.193C90.9609 751.856 93.4472 749.141 96.5027 749.141C99.5581 749.141 102.044 751.856 102.044 755.193C102.044 758.531 99.5581 761.246 96.5027 761.246ZM96.5027 750.213C93.9884 750.213 91.9431 752.447 91.9431 755.193C91.9431 757.939 93.9884 760.173 96.5027 760.173C99.0165 760.173 101.062 757.939 101.062 755.193C101.062 752.447 99.0165 750.213 96.5027 750.213Z" fill="#54F4FC"/>
<path d="M82.2369 776.649C82.2369 779.893 79.8287 782.524 76.8577 782.524C73.8867 782.524 71.4785 779.894 71.4785 776.649C71.4785 773.404 73.8867 770.773 76.8577 770.773C79.8287 770.773 82.2369 773.404 82.2369 776.649Z" fill="#54F4FC"/>
<path d="M76.8585 783.057C73.6214 783.057 70.9883 780.182 70.9883 776.646C70.9883 773.111 73.6214 770.234 76.8585 770.234C80.0952 770.234 82.7283 773.111 82.7283 776.646C82.7283 780.182 80.0952 783.057 76.8585 783.057ZM76.8585 771.307C74.1635 771.307 71.9704 773.703 71.9704 776.646C71.9704 779.59 74.1635 781.985 76.8585 781.985C79.5535 781.985 81.7462 779.59 81.7462 776.646C81.7462 773.703 79.5535 771.307 76.8585 771.307Z" fill="#54F4FC"/>
<path d="M76.8577 866.608C80.397 866.608 83.2662 863.474 83.2662 859.609C83.2662 855.743 80.397 852.609 76.8577 852.609C73.3184 852.609 70.4492 855.743 70.4492 859.609C70.4492 863.474 73.3184 866.608 76.8577 866.608Z" fill="#54F4FC"/>
<path d="M76.859 867.142C73.0542 867.142 69.959 863.762 69.959 859.606C69.959 855.451 73.0542 852.07 76.859 852.07C80.6634 852.07 83.7586 855.451 83.7586 859.606C83.7586 863.762 80.6634 867.142 76.859 867.142ZM76.859 853.143C73.5959 853.143 70.9411 856.043 70.9411 859.606C70.9411 863.17 73.5959 866.07 76.859 866.07C80.1222 866.07 82.7764 863.17 82.7764 859.606C82.7764 856.042 80.1217 853.143 76.859 853.143Z" fill="#54F4FC"/>
<path d="M63.9061 881.056C63.9061 885.092 60.911 888.363 57.2167 888.363C53.5224 888.363 50.5273 885.092 50.5273 881.056C50.5273 877.021 53.5224 873.75 57.2167 873.75C60.911 873.75 63.9061 877.021 63.9061 881.056Z" fill="#54F4FC"/>
<path d="M57.2161 888.897C53.2566 888.897 50.0352 885.379 50.0352 881.054C50.0352 876.73 53.2566 873.211 57.2161 873.211C61.1756 873.211 64.3965 876.73 64.3965 881.054C64.3965 885.379 61.1751 888.897 57.2161 888.897ZM57.2161 874.284C53.7982 874.284 51.0173 877.321 51.0173 881.054C51.0173 884.788 53.7982 887.824 57.2161 887.824C60.6339 887.824 63.4144 884.787 63.4144 881.054C63.4144 877.32 60.6339 874.284 57.2161 874.284Z" fill="#54F4FC"/>
<path d="M384.165 827.665C384.165 831.881 381.036 835.298 377.176 835.298C373.317 835.298 370.188 831.881 370.188 827.665C370.188 823.449 373.317 820.031 377.176 820.031C381.036 820.031 384.165 823.449 384.165 827.665Z" fill="#54F4FC"/>
<path d="M377.177 835.831C373.052 835.831 369.697 832.166 369.697 827.662C369.697 823.158 373.052 819.492 377.177 819.492C381.301 819.492 384.657 823.158 384.657 827.662C384.657 832.166 381.301 835.831 377.177 835.831ZM377.177 820.564C373.594 820.564 370.679 823.748 370.679 827.661C370.679 831.574 373.594 834.758 377.177 834.758C380.76 834.758 383.675 831.574 383.675 827.661C383.675 823.748 380.76 820.564 377.177 820.564Z" fill="#54F4FC"/>
<path d="M149.697 827.664C149.697 831.314 146.988 834.272 143.646 834.272C140.304 834.272 137.596 831.314 137.596 827.664C137.596 824.014 140.304 821.055 143.646 821.055C146.988 821.055 149.697 824.014 149.697 827.664Z" fill="#54F4FC"/>
<path d="M143.646 834.806C140.038 834.806 137.104 831.601 137.104 827.661C137.104 823.721 140.039 820.516 143.646 820.516C147.253 820.516 150.187 823.721 150.187 827.661C150.187 831.601 147.253 834.806 143.646 834.806ZM143.646 821.589C140.58 821.589 138.086 824.313 138.086 827.661C138.086 831.009 140.58 833.733 143.646 833.733C146.711 833.733 149.205 831.009 149.205 827.661C149.205 824.313 146.711 821.589 143.646 821.589Z" fill="#54F4FC"/>
<path d="M128.607 849.115C128.607 851.893 126.545 854.144 124.003 854.144C121.46 854.144 119.398 851.893 119.398 849.115C119.398 846.338 121.46 844.086 124.003 844.086C126.545 844.086 128.607 846.338 128.607 849.115Z" fill="#54F4FC"/>
<path d="M124.002 854.678C121.192 854.678 118.906 852.181 118.906 849.113C118.906 846.044 121.192 843.547 124.002 843.547C126.812 843.547 129.097 846.043 129.097 849.113C129.097 852.181 126.812 854.678 124.002 854.678ZM124.002 844.62C121.734 844.62 119.888 846.635 119.888 849.113C119.888 851.589 121.734 853.605 124.002 853.605C126.27 853.605 128.115 851.589 128.115 849.113C128.115 846.635 126.27 844.62 124.002 844.62Z" fill="#54F4FC"/>
<path d="M348.817 122.056C348.817 124.961 346.662 127.315 344.002 127.315C341.343 127.315 339.188 124.961 339.188 122.056C339.188 119.151 341.343 116.797 344.002 116.797C346.662 116.797 348.817 119.151 348.817 122.056Z" fill="#54F4FC"/>
<path d="M344.002 127.849C341.076 127.849 338.695 125.249 338.695 122.053C338.695 118.857 341.076 116.258 344.002 116.258C346.928 116.258 349.308 118.857 349.308 122.053C349.308 125.249 346.928 127.849 344.002 127.849ZM344.002 117.331C341.618 117.331 339.677 119.449 339.677 122.053C339.677 124.658 341.618 126.776 344.002 126.776C346.386 126.776 348.326 124.658 348.326 122.053C348.326 119.449 346.386 117.331 344.002 117.331Z" fill="#54F4FC"/>
<path d="M149.145 122.055C149.145 125.373 146.683 128.062 143.645 128.062C140.607 128.062 138.145 125.373 138.145 122.055C138.145 118.737 140.607 116.047 143.645 116.047C146.683 116.047 149.145 118.737 149.145 122.055Z" fill="#54F4FC"/>
<path d="M143.644 128.596C140.34 128.596 137.652 125.66 137.652 122.052C137.652 118.444 140.34 115.508 143.644 115.508C146.947 115.508 149.635 118.444 149.635 122.052C149.635 125.66 146.947 128.596 143.644 128.596ZM143.644 116.58C140.882 116.58 138.634 119.035 138.634 122.052C138.634 125.069 140.882 127.523 143.644 127.523C146.406 127.523 148.653 125.069 148.653 122.052C148.653 119.035 146.406 116.58 143.644 116.58Z" fill="#54F4FC"/>
<path d="M124.001 105.563C126.51 105.563 128.544 103.342 128.544 100.602C128.544 97.8618 126.51 95.6406 124.001 95.6406C121.493 95.6406 119.459 97.8618 119.459 100.602C119.459 103.342 121.493 105.563 124.001 105.563Z" fill="#54F4FC"/>
<path d="M124.002 106.097C121.227 106.097 118.969 103.631 118.969 100.599C118.969 97.5676 121.227 95.1016 124.002 95.1016C126.777 95.1016 129.035 97.5676 129.035 100.599C129.035 103.631 126.777 106.097 124.002 106.097ZM124.002 96.1745C121.768 96.1745 119.951 98.1591 119.951 100.599C119.951 103.039 121.768 105.024 124.002 105.024C126.236 105.024 128.053 103.039 128.053 100.599C128.053 98.1591 126.236 96.1745 124.002 96.1745Z" fill="#54F4FC"/>
<path d="M305.726 281.709C305.726 284.952 303.319 287.581 300.349 287.581C297.38 287.581 294.973 284.952 294.973 281.709C294.973 278.465 297.38 275.836 300.349 275.836C303.319 275.836 305.726 278.465 305.726 281.709Z" fill="#54F4FC"/>
<path d="M300.35 288.114C297.115 288.114 294.482 285.239 294.482 281.705C294.482 278.172 297.115 275.297 300.35 275.297C303.585 275.297 306.217 278.172 306.217 281.705C306.217 285.239 303.585 288.114 300.35 288.114ZM300.35 276.369C297.656 276.369 295.465 278.763 295.465 281.705C295.465 284.648 297.656 287.042 300.35 287.042C303.043 287.042 305.235 284.648 305.235 281.705C305.235 278.763 303.044 276.369 300.35 276.369Z" fill="#54F4FC"/>
<path d="M150.63 288.641C154.136 288.641 156.978 285.537 156.978 281.707C156.978 277.878 154.136 274.773 150.63 274.773C147.124 274.773 144.281 277.878 144.281 281.707C144.281 285.537 147.124 288.641 150.63 288.641Z" fill="#54F4FC"/>
<path d="M150.629 289.174C146.857 289.174 143.789 285.823 143.789 281.704C143.789 277.585 146.857 274.234 150.629 274.234C154.4 274.234 157.468 277.586 157.468 281.704C157.468 285.823 154.4 289.174 150.629 289.174ZM150.629 275.307C147.399 275.307 144.771 278.177 144.771 281.704C144.771 285.232 147.399 288.102 150.629 288.102C153.858 288.102 156.486 285.232 156.486 281.704C156.486 278.177 153.858 275.307 150.629 275.307Z" fill="#54F4FC"/>
<path d="M130.985 264.911C133.339 264.911 135.247 262.827 135.247 260.256C135.247 257.686 133.339 255.602 130.985 255.602C128.631 255.602 126.723 257.686 126.723 260.256C126.723 262.827 128.631 264.911 130.985 264.911Z" fill="#54F4FC"/>
<path d="M130.986 265.445C128.365 265.445 126.232 263.116 126.232 260.254C126.232 257.391 128.365 255.062 130.986 255.062C133.606 255.062 135.739 257.391 135.739 260.254C135.738 263.116 133.606 265.445 130.986 265.445ZM130.986 256.135C128.906 256.135 127.215 257.982 127.215 260.254C127.215 262.525 128.906 264.372 130.986 264.372C133.065 264.372 134.756 262.525 134.756 260.254C134.756 257.983 133.065 256.135 130.986 256.135Z" fill="#54F4FC"/>
<path d="M130.988 185.27C133.784 185.27 136.051 182.794 136.051 179.74C136.051 176.687 133.784 174.211 130.988 174.211C128.192 174.211 125.926 176.687 125.926 179.74C125.926 182.794 128.192 185.27 130.988 185.27Z" fill="#54F4FC"/>
<path d="M130.987 185.803C127.925 185.803 125.434 183.082 125.434 179.737C125.434 176.393 127.925 173.672 130.987 173.672C134.049 173.672 136.54 176.393 136.54 179.737C136.54 183.082 134.049 185.803 130.987 185.803ZM130.987 174.744C128.466 174.744 126.416 176.984 126.416 179.737C126.416 182.491 128.466 184.73 130.987 184.73C133.508 184.73 135.558 182.491 135.558 179.737C135.558 176.984 133.507 174.744 130.987 174.744Z" fill="#54F4FC"/>
<path d="M111.342 163.625C114.04 163.625 116.227 161.236 116.227 158.289C116.227 155.342 114.04 152.953 111.342 152.953C108.644 152.953 106.457 155.342 106.457 158.289C106.457 161.236 108.644 163.625 111.342 163.625Z" fill="#54F4FC"/>
<path d="M111.343 164.158C108.378 164.158 105.967 161.524 105.967 158.286C105.967 155.048 108.378 152.414 111.343 152.414C114.308 152.414 116.719 155.048 116.719 158.286C116.719 161.524 114.308 164.158 111.343 164.158ZM111.343 153.486C108.92 153.486 106.949 155.639 106.949 158.286C106.949 160.932 108.921 163.085 111.343 163.085C113.765 163.085 115.737 160.932 115.737 158.286C115.737 155.639 113.765 153.486 111.343 153.486Z" fill="#54F4FC"/>
<path d="M28.4089 163.307C30.9474 163.307 33.0053 161.059 33.0053 158.286C33.0053 155.513 30.9474 153.266 28.4089 153.266C25.8704 153.266 23.8125 155.513 23.8125 158.286C23.8125 161.059 25.8704 163.307 28.4089 163.307Z" fill="#54F4FC"/>
<path d="M28.4078 163.84C25.6023 163.84 23.3203 161.347 23.3203 158.283C23.3203 155.219 25.6028 152.727 28.4078 152.727C31.2133 152.727 33.4953 155.219 33.4953 158.283C33.4953 161.347 31.2133 163.84 28.4078 163.84ZM28.4078 153.799C26.144 153.799 24.3025 155.81 24.3025 158.283C24.3025 160.756 26.144 162.768 28.4078 162.768C30.6716 162.768 32.5131 160.756 32.5131 158.283C32.5131 155.81 30.6716 153.799 28.4078 153.799Z" fill="#54F4FC"/>
<path d="M16.1043 136.846C16.1043 140.933 13.0705 144.247 9.32854 144.247C5.58659 144.247 2.55273 140.933 2.55273 136.846C2.55273 132.759 5.58609 129.445 9.32854 129.445C13.0705 129.445 16.1043 132.759 16.1043 136.846Z" fill="#54F4FC"/>
<path d="M9.32938 144.78C5.32273 144.78 2.0625 141.22 2.0625 136.843C2.0625 132.467 5.32273 128.906 9.32938 128.906C13.336 128.906 16.5962 132.467 16.5962 136.843C16.5962 141.219 13.336 144.78 9.32938 144.78ZM9.32938 129.979C5.86389 129.979 3.04464 133.059 3.04464 136.843C3.04464 140.628 5.86389 143.707 9.32938 143.707C12.7949 143.707 15.6141 140.628 15.6141 136.843C15.6141 133.059 12.7949 129.979 9.32938 129.979Z" fill="#54F4FC"/>
<path d="M398.129 351.557C400.873 351.557 403.098 349.127 403.098 346.13C403.098 343.133 400.873 340.703 398.129 340.703C395.385 340.703 393.16 343.133 393.16 346.13C393.16 349.127 395.385 351.557 398.129 351.557Z" fill="#54F4FC"/>
<path d="M398.128 352.091C395.117 352.091 392.668 349.415 392.668 346.127C392.668 342.839 395.117 340.164 398.128 340.164C401.139 340.164 403.587 342.839 403.587 346.127C403.588 349.416 401.139 352.091 398.128 352.091ZM398.128 341.237C395.66 341.237 393.65 343.431 393.65 346.127C393.65 348.824 395.66 351.018 398.128 351.018C400.597 351.018 402.605 348.824 402.605 346.127C402.606 343.431 400.597 341.237 398.128 341.237Z" fill="#54F4FC"/>
<path d="M232.23 346.13C232.23 349.01 230.092 351.345 227.455 351.345C224.818 351.345 222.68 349.01 222.68 346.13C222.68 343.25 224.817 340.914 227.455 340.914C230.092 340.915 232.23 343.249 232.23 346.13Z" fill="#54F4FC"/>
<path d="M227.454 351.878C224.55 351.878 222.188 349.298 222.188 346.126C222.188 342.955 224.55 340.375 227.454 340.375C230.357 340.375 232.72 342.955 232.72 346.126C232.72 349.298 230.357 351.878 227.454 351.878ZM227.454 341.447C225.091 341.447 223.17 343.546 223.17 346.126C223.17 348.706 225.091 350.805 227.454 350.805C229.816 350.805 231.738 348.706 231.738 346.126C231.738 343.546 229.816 341.447 227.454 341.447Z" fill="#54F4FC"/>
<path d="M207.813 330.388C210.702 330.388 213.044 327.83 213.044 324.674C213.044 321.519 210.702 318.961 207.813 318.961C204.924 318.961 202.582 321.519 202.582 324.674C202.582 327.83 204.924 330.388 207.813 330.388Z" fill="#54F4FC"/>
<path d="M207.812 330.921C204.657 330.921 202.09 328.117 202.09 324.672C202.09 321.226 204.657 318.422 207.812 318.422C210.966 318.422 213.534 321.226 213.534 324.672C213.534 328.117 210.967 330.921 207.812 330.921ZM207.812 319.494C205.198 319.494 203.072 321.817 203.072 324.672C203.072 327.526 205.198 329.849 207.812 329.849C210.425 329.849 212.552 327.526 212.552 324.672C212.552 321.817 210.425 319.494 207.812 319.494Z" fill="#54F4FC"/>
<path d="M405.079 511.092C405.079 515.284 401.967 518.683 398.128 518.683C394.29 518.683 391.178 515.284 391.178 511.092C391.178 506.899 394.29 503.5 398.128 503.5C401.968 503.501 405.079 506.899 405.079 511.092Z" fill="#54F4FC"/>
<path d="M398.129 519.217C394.026 519.217 390.688 515.57 390.688 511.089C390.688 506.607 394.026 502.961 398.129 502.961C402.233 502.961 405.57 506.608 405.57 511.089C405.57 515.57 402.233 519.217 398.129 519.217ZM398.129 504.033C394.567 504.033 391.67 507.198 391.67 511.089C391.67 514.98 394.567 518.144 398.129 518.144C401.69 518.144 404.588 514.98 404.588 511.089C404.588 507.198 401.69 504.033 398.129 504.033Z" fill="#54F4FC"/>
<path d="M313.551 511.088C313.551 514.114 311.305 516.566 308.535 516.566C305.765 516.566 303.52 514.114 303.52 511.088C303.52 508.062 305.765 505.609 308.535 505.609C311.305 505.609 313.551 508.063 313.551 511.088Z" fill="#54F4FC"/>
<path d="M308.535 517.101C305.498 517.101 303.027 514.402 303.027 511.086C303.027 507.769 305.498 505.07 308.535 505.07C311.572 505.07 314.042 507.769 314.042 511.086C314.042 514.403 311.572 517.101 308.535 517.101ZM308.535 506.143C306.039 506.143 304.009 508.36 304.009 511.086C304.009 513.811 306.039 516.028 308.535 516.028C311.03 516.028 313.06 513.811 313.06 511.086C313.06 508.36 311.03 506.143 308.535 506.143Z" fill="#54F4FC"/>
<path d="M288.891 539.429C292.371 539.429 295.193 536.347 295.193 532.546C295.193 528.745 292.371 525.664 288.891 525.664C285.411 525.664 282.59 528.745 282.59 532.546C282.59 536.347 285.411 539.429 288.891 539.429Z" fill="#54F4FC"/>
<path d="M288.892 539.963C285.147 539.963 282.1 536.635 282.1 532.544C282.1 528.453 285.147 525.125 288.892 525.125C292.638 525.125 295.685 528.453 295.685 532.544C295.685 536.635 292.638 539.963 288.892 539.963ZM288.892 526.199C285.688 526.199 283.082 529.046 283.082 532.545C283.082 536.043 285.688 538.891 288.892 538.891C292.095 538.891 294.702 536.043 294.702 532.545C294.702 529.046 292.096 526.199 288.892 526.199Z" fill="#54F4FC"/>
<path d="M436.883 432.904C436.883 435.216 435.167 437.09 433.051 437.09C430.935 437.09 429.219 435.216 429.219 432.904C429.219 430.593 430.935 428.719 433.051 428.719C435.167 428.719 436.883 430.593 436.883 432.904Z" fill="#54F4FC"/>
<path d="M433.049 437.623C430.666 437.623 428.727 435.505 428.727 432.901C428.727 430.298 430.666 428.18 433.049 428.18C435.434 428.18 437.373 430.298 437.373 432.901C437.373 435.505 435.434 437.623 433.049 437.623ZM433.049 429.252C431.207 429.252 429.709 430.889 429.709 432.901C429.709 434.914 431.207 436.55 433.049 436.55C434.892 436.55 436.391 434.913 436.391 432.901C436.391 430.889 434.892 429.252 433.049 429.252Z" fill="#54F4FC"/>
<path d="M354.916 437.826C357.404 437.826 359.421 435.623 359.421 432.905C359.421 430.188 357.404 427.984 354.916 427.984C352.427 427.984 350.41 430.188 350.41 432.905C350.41 435.623 352.427 437.826 354.916 437.826Z" fill="#54F4FC"/>
<path d="M354.915 438.359C352.16 438.359 349.918 435.911 349.918 432.902C349.918 429.893 352.16 427.445 354.915 427.445C357.67 427.445 359.911 429.893 359.911 432.902C359.911 435.912 357.67 438.359 354.915 438.359ZM354.915 428.518C352.701 428.518 350.9 430.485 350.9 432.902C350.9 435.32 352.701 437.287 354.915 437.287C357.129 437.287 358.929 435.32 358.929 432.902C358.929 430.485 357.129 428.518 354.915 428.518Z" fill="#54F4FC"/>
<path d="M341.103 454.361C341.103 457.878 338.493 460.73 335.272 460.73C332.052 460.73 329.441 457.878 329.441 454.361C329.441 450.843 332.052 447.992 335.272 447.992C338.493 447.992 341.103 450.843 341.103 454.361Z" fill="#54F4FC"/>
<path d="M335.272 461.263C331.785 461.263 328.949 458.165 328.949 454.358C328.949 450.55 331.785 447.453 335.272 447.453C338.757 447.453 341.593 450.551 341.593 454.358C341.594 458.165 338.757 461.263 335.272 461.263ZM335.272 448.526C332.327 448.526 329.931 451.142 329.931 454.358C329.931 457.574 332.327 460.19 335.272 460.19C338.216 460.19 340.611 457.574 340.611 454.358C340.612 451.142 338.217 448.526 335.272 448.526Z" fill="#54F4FC"/>
<path d="M341.573 575.453C341.573 579.254 338.751 582.335 335.272 582.335C331.791 582.335 328.971 579.254 328.971 575.453C328.971 571.651 331.792 568.57 335.272 568.57C338.751 568.57 341.573 571.651 341.573 575.453Z" fill="#54F4FC"/>
<path d="M335.271 582.869C331.526 582.869 328.479 579.541 328.479 575.45C328.479 571.36 331.526 568.031 335.271 568.031C339.015 568.031 342.063 571.36 342.063 575.45C342.063 579.542 339.015 582.869 335.271 582.869ZM335.271 569.105C332.068 569.105 329.461 571.952 329.461 575.451C329.461 578.95 332.068 581.797 335.271 581.797C338.475 581.797 341.08 578.95 341.08 575.451C341.081 571.952 338.475 569.105 335.271 569.105Z" fill="#54F4FC"/>
<path d="M315.627 603.049C318.733 603.049 321.25 600.3 321.25 596.908C321.25 593.515 318.733 590.766 315.627 590.766C312.522 590.766 310.004 593.515 310.004 596.908C310.004 600.3 312.522 603.049 315.627 603.049Z" fill="#54F4FC"/>
<path d="M315.628 603.583C312.257 603.583 309.514 600.587 309.514 596.905C309.514 593.222 312.257 590.227 315.628 590.227C318.999 590.227 321.742 593.222 321.742 596.905C321.743 600.586 319 603.583 315.628 603.583ZM315.628 591.298C312.797 591.298 310.496 593.813 310.496 596.904C310.496 599.995 312.797 602.51 315.628 602.51C318.459 602.51 320.76 599.995 320.76 596.904C320.761 593.813 318.459 591.298 315.628 591.298Z" fill="#54F4FC"/>
<path d="M262.374 600.954C264.419 600.954 266.076 599.144 266.076 596.911C266.076 594.678 264.419 592.867 262.374 592.867C260.329 592.867 258.672 594.678 258.672 596.911C258.672 599.144 260.329 600.954 262.374 600.954Z" fill="#54F4FC"/>
<path d="M262.375 601.488C260.063 601.488 258.182 599.434 258.182 596.908C258.182 594.382 260.063 592.328 262.375 592.328C264.687 592.328 266.568 594.382 266.568 596.908C266.568 599.434 264.687 601.488 262.375 601.488ZM262.375 593.401C260.604 593.401 259.164 594.974 259.164 596.908C259.164 598.842 260.604 600.415 262.375 600.415C264.145 600.415 265.586 598.842 265.586 596.908C265.586 594.974 264.146 593.401 262.375 593.401Z" fill="#54F4FC"/>
<path d="M247.519 618.361C247.519 621.248 245.376 623.589 242.732 623.589C240.088 623.589 237.945 621.248 237.945 618.361C237.945 615.473 240.088 613.133 242.732 613.133C245.376 613.133 247.519 615.474 247.519 618.361Z" fill="#54F4FC"/>
<path d="M242.731 624.124C239.821 624.124 237.453 621.537 237.453 618.359C237.453 615.181 239.821 612.594 242.731 612.594C245.642 612.594 248.009 615.181 248.009 618.359C248.009 621.537 245.642 624.124 242.731 624.124ZM242.731 613.666C240.363 613.666 238.435 615.771 238.435 618.358C238.435 620.946 240.363 623.05 242.731 623.05C245.1 623.05 247.027 620.945 247.027 618.358C247.027 615.771 245.1 613.666 242.731 613.666Z" fill="#54F4FC"/>
<path d="M247.847 687.97C247.847 691.056 245.557 693.558 242.731 693.558C239.906 693.558 237.615 691.056 237.615 687.97C237.615 684.884 239.906 682.383 242.731 682.383C245.557 682.383 247.847 684.884 247.847 687.97Z" fill="#54F4FC"/>
<path d="M242.732 694.092C239.64 694.092 237.125 691.344 237.125 687.968C237.125 684.591 239.64 681.844 242.732 681.844C245.824 681.844 248.339 684.591 248.339 687.968C248.339 691.344 245.824 694.092 242.732 694.092ZM242.732 682.917C240.182 682.917 238.107 685.183 238.107 687.968C238.107 690.753 240.182 693.019 242.732 693.019C245.282 693.019 247.357 690.753 247.357 687.968C247.357 685.183 245.283 682.917 242.732 682.917Z" fill="#54F4FC"/>
<path d="M262.374 713.968C264.669 713.968 266.53 711.936 266.53 709.429C266.53 706.923 264.669 704.891 262.374 704.891C260.079 704.891 258.219 706.923 258.219 709.429C258.219 711.936 260.079 713.968 262.374 713.968Z" fill="#54F4FC"/>
<path d="M262.375 714.502C259.813 714.502 257.729 712.225 257.729 709.426C257.729 706.628 259.813 704.352 262.375 704.352C264.937 704.352 267.022 706.628 267.022 709.426C267.022 712.225 264.937 714.502 262.375 714.502ZM262.375 705.425C260.355 705.425 258.711 707.22 258.711 709.426C258.711 711.633 260.355 713.429 262.375 713.429C264.395 713.429 266.039 711.634 266.039 709.426C266.039 707.22 264.395 705.425 262.375 705.425Z" fill="#54F4FC"/>
<path d="M308.644 714.111C311.013 714.111 312.933 712.014 312.933 709.427C312.933 706.839 311.013 704.742 308.644 704.742C306.276 704.742 304.355 706.839 304.355 709.427C304.355 712.014 306.276 714.111 308.644 714.111Z" fill="#54F4FC"/>
<path d="M308.645 714.645C306.01 714.645 303.865 712.303 303.865 709.424C303.865 706.545 306.01 704.203 308.645 704.203C311.281 704.203 313.425 706.545 313.425 709.424C313.425 712.303 311.281 714.645 308.645 714.645ZM308.645 705.276C306.55 705.276 304.847 707.137 304.847 709.424C304.847 711.712 306.551 713.572 308.645 713.572C310.74 713.572 312.443 711.712 312.443 709.424C312.443 707.137 310.74 705.276 308.645 705.276Z" fill="#54F4FC"/>
<path d="M334.563 730.878C334.563 734.664 331.753 737.733 328.286 737.733C324.82 737.733 322.01 734.664 322.01 730.878C322.01 727.093 324.82 724.023 328.286 724.023C331.753 724.023 334.563 727.093 334.563 730.878Z" fill="#54F4FC"/>
<path d="M328.287 738.268C324.555 738.268 321.52 734.952 321.52 730.876C321.52 726.8 324.555 723.484 328.287 723.484C332.018 723.484 335.053 726.8 335.053 730.876C335.053 734.952 332.018 738.268 328.287 738.268ZM328.287 724.557C325.097 724.557 322.502 727.392 322.502 730.876C322.502 734.36 325.097 737.195 328.287 737.195C331.477 737.195 334.071 734.36 334.071 730.876C334.071 727.392 331.477 724.557 328.287 724.557Z" fill="#54F4FC"/>
</g>
</g>
<defs>
<clipPath id="clip0_203_15501">
<rect width="437.373" height="911.57" fill="white"/>
</clipPath>
</defs>
</svg>
