<svg width="736" height="912" viewBox="0 0 736 912" fill="none" xmlns="http://www.w3.org/2000/svg">
<g opacity="0.08">
<path d="M521.626 386.058L368.848 386.058C358.559 386.058 350.188 376.915 350.188 365.677L350.188 307.511C350.188 295.09 340.936 284.984 329.563 284.984L241.388 284.984C231.099 284.984 222.727 275.841 222.727 264.603L222.727 130.156C222.727 117.735 213.475 107.629 202.103 107.629L0 107.629L1.8127e-07 109.774L202.103 109.774C212.392 109.774 220.763 118.917 220.763 130.156L220.763 264.603C220.763 277.025 230.015 287.13 241.388 287.13L329.563 287.13C339.852 287.13 348.224 296.273 348.224 307.512L348.224 365.677C348.224 378.099 357.476 388.204 368.848 388.204L521.626 388.204C531.915 388.204 540.287 397.347 540.287 408.586L540.287 433.258C540.287 444.497 531.915 453.64 521.626 453.64L2.92351e-05 453.64L2.94163e-05 455.785L521.626 455.785C532.999 455.785 542.251 445.679 542.251 433.258L542.251 408.585C542.251 396.164 532.999 386.058 521.626 386.058Z" fill="#176DB3"/>
<path d="M237.024 172.469L105.198 172.469C94.9087 172.469 86.5375 163.326 86.5375 152.087L86.5374 0.000128781L84.5732 0.000128628L84.5732 152.087C84.5732 164.508 93.8254 174.614 105.198 174.614L237.023 174.614C247.312 174.614 255.684 183.757 255.684 194.996L255.684 703.225C255.684 714.463 247.313 723.606 237.023 723.606L9.35982e-05 723.606L9.38757e-05 725.752L237.024 725.752C248.396 725.752 257.649 715.646 257.649 703.225L257.649 194.996C257.649 182.574 248.396 172.469 237.024 172.469Z" fill="#176DB3"/>
<path d="M466.954 0.000158279L466.954 565.918C466.954 577.156 458.582 586.299 448.293 586.299L340.912 586.299C329.539 586.299 320.287 596.405 320.287 608.826L320.287 821.462C320.287 832.7 311.916 841.843 301.626 841.843L100.833 841.843C90.5437 841.843 82.1724 832.7 82.1724 821.462L82.1724 584.034C82.1724 571.613 72.9201 561.507 61.5474 561.507L7.26307e-05 561.507L7.29083e-05 563.653L61.5474 563.653C71.8368 563.653 80.2081 572.796 80.2081 584.034L80.2081 821.462C80.2081 833.883 89.4604 843.989 100.833 843.989L301.626 843.989C312.999 843.989 322.251 833.883 322.251 821.462L322.251 608.826C322.251 597.588 330.623 588.445 340.912 588.445L448.293 588.445C459.666 588.445 468.918 578.338 468.918 565.918L468.918 0.000158431L466.954 0.000158279Z" fill="#176DB3"/>
<path d="M133.462 324.675L133.462 518.241C133.462 530.662 142.714 540.768 154.087 540.768L381.944 540.768C392.233 540.768 400.605 549.911 400.605 561.15L400.605 661.27C400.605 673.691 409.857 683.797 421.23 683.797L477.976 683.797C488.265 683.797 496.636 692.94 496.636 704.179L496.636 911.57L498.601 911.57L498.601 704.178C498.601 691.757 489.348 681.651 477.976 681.651L421.23 681.651C410.94 681.651 402.569 672.508 402.569 661.269L402.569 561.149C402.569 548.729 393.317 538.622 381.944 538.622L154.087 538.622C143.798 538.622 135.426 529.479 135.426 518.241L135.426 324.675C135.426 312.254 126.174 302.148 114.801 302.148L0 302.148L1.81268e-07 304.294L114.801 304.294C125.091 304.294 133.462 313.437 133.462 324.675Z" fill="#176DB3"/>
<path d="M117.748 0.00012207L117.748 201.671C117.748 212.91 109.377 222.053 99.0873 222.053L1.8754e-05 222.053L1.89352e-05 224.198L99.0873 224.198C110.46 224.198 119.712 214.092 119.712 201.671L119.712 0.00012207L117.748 0.00012207Z" fill="#176DB3"/>
<path d="M393.621 6.10352e-05L393.621 60.5492C393.621 71.7878 385.249 80.9308 374.96 80.9308L246.627 80.9308C236.338 80.9308 227.966 71.7878 227.966 60.5492L227.966 6.10352e-05L226.002 6.10352e-05L226.002 60.5492C226.002 72.9707 235.254 83.0762 246.627 83.0762L374.96 83.0762C386.333 83.0762 395.585 72.9707 395.585 60.5492L395.585 6.10352e-05L393.621 6.10352e-05Z" fill="#176DB3"/>
<path d="M540.287 0.000163965L540.287 226.462C540.287 237.701 531.915 246.844 521.626 246.844L414.245 246.844C403.956 246.844 395.584 237.701 395.584 226.462L395.584 219.788C395.584 207.366 386.332 197.261 374.959 197.261L335.674 197.261C324.301 197.261 315.049 207.366 315.049 219.788L315.049 318.001C315.049 330.422 324.301 340.528 335.674 340.528L401.15 340.528C411.44 340.528 419.811 349.671 419.811 360.909L419.811 482.007C419.811 494.427 429.063 504.534 440.436 504.534L504.165 504.534C514.455 504.534 522.826 513.677 522.826 524.915L522.826 610.732C522.826 621.971 514.455 631.114 504.165 631.114L8.16344e-05 631.114L8.19119e-05 633.259L504.166 633.259C515.539 633.259 524.791 623.153 524.791 610.732L524.791 524.915C524.791 512.494 515.539 502.388 504.166 502.388L440.436 502.388C430.146 502.388 421.775 493.245 421.775 482.007L421.775 360.909C421.775 348.488 412.523 338.382 401.15 338.382L335.674 338.382C325.384 338.382 317.013 329.239 317.013 318.001L317.013 219.788C317.013 208.549 325.384 199.406 335.674 199.406L374.959 199.406C385.249 199.406 393.62 208.549 393.62 219.788L393.62 226.462C393.62 238.884 402.872 248.989 414.245 248.989L521.626 248.989C532.999 248.989 542.251 238.884 542.251 226.462L542.251 0.000164117L540.287 0.000163965Z" fill="#176DB3"/>
<path d="M175.04 239.216L0 239.216L1.8127e-07 241.361L175.04 241.361C185.329 241.361 193.7 250.504 193.7 261.743L193.7 361.863C193.7 373.101 185.329 382.244 175.04 382.244L1.20847e-05 382.244L1.2266e-05 384.39L175.04 384.39C186.412 384.39 195.665 374.284 195.665 361.863L195.665 261.743C195.665 249.321 186.412 239.216 175.04 239.216Z" fill="#176DB3"/>
<path d="M124.732 814.787L124.732 859.602C124.732 872.023 133.984 882.129 145.357 882.129L355.754 882.129C367.126 882.129 376.379 872.023 376.379 859.602L376.379 776.646C376.379 765.408 384.75 756.265 395.039 756.265L533.848 756.265C544.138 756.265 552.509 765.408 552.509 776.646L552.509 911.569L554.473 911.569L554.473 776.646C554.473 764.225 545.221 754.119 533.848 754.119L395.039 754.119C383.667 754.119 374.414 764.225 374.414 776.646L374.414 859.602C374.414 870.84 366.043 879.983 355.754 879.983L145.357 879.983C135.068 879.983 126.696 870.84 126.696 859.602L126.696 814.786C126.696 802.365 117.444 792.259 106.071 792.259L0.000125293 792.259L0.000125474 794.405L106.071 794.405C116.361 794.405 124.732 803.548 124.732 814.787Z" fill="#176DB3"/>
<path d="M1.81268e-07 340.527L53.2542 340.527C63.5436 340.527 71.9148 349.67 71.9148 360.909L71.9149 489.635C71.9149 500.874 63.5436 510.017 53.2542 510.017L1.45017e-05 510.017L1.4683e-05 512.162L53.2542 512.162C64.6269 512.162 73.8791 502.056 73.8791 489.635L73.8791 360.909C73.8791 348.488 64.6269 338.382 53.2542 338.382L0 338.382L1.81268e-07 340.527Z" fill="#176DB3"/>
<path d="M213.779 612.64L213.779 911.57L215.744 911.57L215.744 612.64C215.744 600.219 206.491 590.113 195.119 590.113L0 590.113L2.47149e-07 592.258L195.119 592.259C205.408 592.259 213.779 601.402 213.779 612.64Z" fill="#176DB3"/>
<path d="M423.521 911.569L423.521 849.114C423.521 837.876 431.892 828.732 442.182 828.732L675.713 828.732L675.713 826.587L442.182 826.587C430.809 826.587 421.557 836.693 421.557 849.114L421.557 911.569L423.521 911.569Z" fill="#176DB3"/>
<path d="M423.521 100.597L423.521 0L421.557 0L421.557 100.597C421.557 113.018 430.809 123.124 442.182 123.124L642.538 123.124L642.538 120.978L442.182 120.978C431.892 120.978 423.521 111.835 423.521 100.597Z" fill="#176DB3"/>
<path d="M430.506 260.253L430.506 179.739C430.506 167.318 421.253 157.212 409.881 157.212L326.944 157.212C321.986 157.212 317.369 155.09 313.942 151.238C310.515 147.385 308.706 142.283 308.849 136.871C308.861 136.429 310.024 92.126 310.531 47.6945C310.757 27.8914 310.809 12.2955 310.742 6.13073e-05L308.786 6.11696e-05C308.985 38.5321 308.01 94.2655 306.886 136.809C306.727 142.806 308.733 148.461 312.533 152.733C316.333 157.005 321.451 159.358 326.944 159.358L409.881 159.358C420.17 159.358 428.541 168.501 428.541 179.74L428.541 260.253C428.541 272.675 437.794 282.78 449.166 282.78L598.889 282.78L598.889 280.635L449.166 280.635C438.877 280.634 430.506 271.491 430.506 260.253Z" fill="#176DB3"/>
<path d="M507.331 324.675L507.331 6.10352e-05L505.367 6.10352e-05L505.367 324.675C505.367 337.097 514.619 347.202 525.992 347.202L696.667 347.202L696.667 345.057L525.992 345.057C515.703 345.057 507.331 335.913 507.331 324.675Z" fill="#176DB3"/>
<path d="M588.412 911.57L588.412 532.544C588.412 521.305 596.783 512.162 607.072 512.162L696.666 512.162L696.666 510.017L607.072 510.017C595.7 510.017 586.447 520.123 586.447 532.544L586.447 911.57L588.412 911.57Z" fill="#176DB3"/>
<path d="M653.452 431.827C642.08 431.827 632.827 441.932 632.827 454.354L632.827 575.452C632.827 586.69 624.456 595.833 614.166 595.833L560.912 595.833C549.539 595.833 540.287 605.939 540.287 618.36L540.287 687.967C540.287 700.388 549.539 710.494 560.912 710.494L607.182 710.494C617.472 710.494 625.843 719.637 625.843 730.876L625.843 911.569L627.807 911.569L627.807 730.876C627.807 718.455 618.554 708.349 607.182 708.349L560.912 708.349C550.623 708.349 542.251 699.206 542.251 687.968L542.251 618.361C542.251 607.123 550.623 597.979 560.912 597.979L614.166 597.979C625.538 597.979 634.791 587.873 634.791 575.452L634.791 454.354C634.791 443.115 643.162 433.972 653.452 433.972L731.586 433.972L731.586 431.827L653.452 431.827Z" fill="#176DB3"/>
<path d="M527.95 454.712C527.95 458.527 525.119 461.619 521.626 461.619C518.134 461.619 515.303 458.527 515.303 454.712C515.303 450.898 518.134 447.805 521.626 447.805C525.119 447.805 527.95 450.898 527.95 454.712Z" fill="#54F4FC"/>
<path d="M521.627 462.155C517.87 462.155 514.813 458.816 514.813 454.712C514.813 450.608 517.87 447.268 521.627 447.268C525.384 447.268 528.442 450.607 528.442 454.712C528.442 458.816 525.385 462.155 521.627 462.155ZM521.627 448.341C518.411 448.341 515.795 451.199 515.795 454.712C515.795 458.224 518.411 461.082 521.627 461.082C524.843 461.082 527.46 458.224 527.46 454.712C527.46 451.199 524.843 448.341 521.627 448.341Z" fill="#54F4FC"/>
<path d="M545.443 433.258C545.443 435.776 543.574 437.817 541.268 437.817C538.963 437.817 537.094 435.776 537.094 433.258C537.094 430.739 538.963 428.698 541.268 428.698C543.574 428.698 545.443 430.739 545.443 433.258Z" fill="#54F4FC"/>
<path d="M541.269 438.354C538.697 438.354 536.604 436.068 536.604 433.258C536.604 430.447 538.697 428.162 541.269 428.162C543.842 428.162 545.935 430.448 545.935 433.258C545.935 436.068 543.842 438.354 541.269 438.354ZM541.269 429.234C539.238 429.234 537.586 431.039 537.586 433.258C537.586 435.476 539.238 437.281 541.269 437.281C543.3 437.281 544.953 435.476 544.953 433.258C544.953 431.039 543.3 429.234 541.269 429.234Z" fill="#54F4FC"/>
<path d="M547.49 408.585C547.49 412.339 544.704 415.381 541.267 415.381C537.831 415.381 535.045 412.339 535.045 408.585C535.045 404.832 537.831 401.789 541.267 401.789C544.704 401.789 547.49 404.832 547.49 408.585Z" fill="#54F4FC"/>
<path d="M541.268 415.918C537.566 415.918 534.555 412.629 534.555 408.585C534.555 404.542 537.566 401.253 541.268 401.253C544.97 401.253 547.982 404.542 547.982 408.585C547.982 412.628 544.97 415.918 541.268 415.918ZM541.268 402.325C538.108 402.325 535.537 405.133 535.537 408.585C535.537 412.037 538.108 414.845 541.268 414.845C544.429 414.845 546.999 412.037 546.999 408.585C546.999 405.133 544.429 402.325 541.268 402.325Z" fill="#54F4FC"/>
<path d="M527.745 387.131C527.745 390.822 525.006 393.815 521.626 393.815C518.246 393.815 515.506 390.822 515.506 387.131C515.506 383.44 518.246 380.447 521.626 380.447C525.006 380.447 527.745 383.439 527.745 387.131Z" fill="#54F4FC"/>
<path d="M521.626 394.351C517.981 394.351 515.016 391.112 515.016 387.131C515.016 383.15 517.981 379.911 521.626 379.911C525.272 379.911 528.237 383.15 528.237 387.131C528.237 391.112 525.272 394.351 521.626 394.351ZM521.626 380.983C518.523 380.983 515.998 383.741 515.998 387.131C515.998 390.521 518.523 393.279 521.626 393.279C524.73 393.279 527.255 390.521 527.255 387.131C527.255 383.741 524.73 380.983 521.626 380.983Z" fill="#54F4FC"/>
<path d="M373.519 387.131C373.519 389.948 371.428 392.233 368.848 392.233C366.269 392.233 364.178 389.949 364.178 387.131C364.178 384.313 366.269 382.03 368.848 382.03C371.428 382.03 373.519 384.313 373.519 387.131Z" fill="#54F4FC"/>
<path d="M368.849 392.769C366.003 392.769 363.688 390.24 363.688 387.131C363.688 384.023 366.003 381.493 368.849 381.493C371.696 381.493 374.011 384.023 374.011 387.131C374.011 390.24 371.696 392.769 368.849 392.769ZM368.849 382.566C366.545 382.566 364.67 384.614 364.67 387.131C364.67 389.649 366.545 391.697 368.849 391.697C371.154 391.697 373.029 389.649 373.029 387.131C373.029 384.614 371.154 382.566 368.849 382.566Z" fill="#54F4FC"/>
<path d="M349.205 372.618C352.714 372.618 355.56 369.51 355.56 365.676C355.56 361.843 352.714 358.735 349.205 358.735C345.695 358.735 342.85 361.843 342.85 365.676C342.85 369.51 345.695 372.618 349.205 372.618Z" fill="#54F4FC"/>
<path d="M349.205 373.154C345.431 373.154 342.359 369.8 342.359 365.677C342.359 361.553 345.431 358.199 349.205 358.199C352.981 358.199 356.051 361.554 356.051 365.677C356.051 369.8 352.98 373.154 349.205 373.154ZM349.205 359.272C345.972 359.272 343.342 362.145 343.342 365.677C343.342 369.209 345.972 372.082 349.205 372.082C352.439 372.082 355.069 369.209 355.069 365.677C355.069 362.144 352.439 359.272 349.205 359.272Z" fill="#54F4FC"/>
<path d="M349.205 313.553C352.26 313.553 354.737 310.848 354.737 307.512C354.737 304.175 352.26 301.47 349.205 301.47C346.15 301.47 343.674 304.175 343.674 307.512C343.674 310.848 346.15 313.553 349.205 313.553Z" fill="#54F4FC"/>
<path d="M349.206 314.089C345.885 314.089 343.184 311.138 343.184 307.511C343.184 303.885 345.885 300.934 349.206 300.934C352.527 300.934 355.229 303.884 355.229 307.511C355.229 311.139 352.527 314.089 349.206 314.089ZM349.206 302.007C346.427 302.007 344.166 304.476 344.166 307.511C344.166 310.546 346.427 313.016 349.206 313.016C351.985 313.016 354.246 310.546 354.246 307.511C354.246 304.476 351.985 302.007 349.206 302.007Z" fill="#54F4FC"/>
<path d="M333.912 286.057C333.912 288.681 331.965 290.808 329.562 290.808C327.16 290.808 325.213 288.681 325.213 286.057C325.213 283.434 327.16 281.307 329.562 281.307C331.965 281.306 333.912 283.434 333.912 286.057Z" fill="#54F4FC"/>
<path d="M329.563 291.344C326.894 291.344 324.723 288.973 324.723 286.057C324.723 283.142 326.894 280.77 329.563 280.77C332.232 280.77 334.403 283.142 334.403 286.057C334.403 288.973 332.232 291.344 329.563 291.344ZM329.563 281.843C327.435 281.843 325.705 283.733 325.705 286.057C325.705 288.381 327.435 290.271 329.563 290.271C331.69 290.271 333.421 288.381 333.421 286.057C333.421 283.733 331.69 281.843 329.563 281.843Z" fill="#54F4FC"/>
<path d="M246.934 286.057C246.934 289.403 244.451 292.115 241.388 292.115C238.325 292.115 235.842 289.403 235.842 286.057C235.842 282.712 238.325 280 241.388 280C244.451 280 246.934 282.712 246.934 286.057Z" fill="#54F4FC"/>
<path d="M241.388 292.651C238.06 292.651 235.352 289.693 235.352 286.057C235.352 282.421 238.06 279.464 241.388 279.464C244.717 279.464 247.426 282.421 247.426 286.057C247.426 289.693 244.717 292.651 241.388 292.651ZM241.388 280.536C238.601 280.536 236.334 283.013 236.334 286.057C236.334 289.101 238.601 291.578 241.388 291.578C244.176 291.578 246.443 289.102 246.443 286.057C246.443 283.013 244.176 280.536 241.388 280.536Z" fill="#54F4FC"/>
<path d="M225.523 264.603C225.523 266.881 223.832 268.728 221.746 268.728C219.66 268.728 217.969 266.881 217.969 264.603C217.969 262.324 219.66 260.477 221.746 260.477C223.833 260.477 225.523 262.324 225.523 264.603Z" fill="#54F4FC"/>
<path d="M221.746 269.265C219.393 269.265 217.479 267.173 217.479 264.603C217.479 262.032 219.393 259.94 221.746 259.94C224.1 259.94 226.015 262.032 226.015 264.603C226.015 267.173 224.1 269.265 221.746 269.265ZM221.746 261.013C219.935 261.013 218.461 262.624 218.461 264.603C218.461 266.581 219.935 268.192 221.746 268.192C223.558 268.192 225.033 266.581 225.033 264.603C225.033 262.624 223.559 261.013 221.746 261.013Z" fill="#54F4FC"/>
<path d="M227.63 130.156C227.63 133.705 224.997 136.581 221.748 136.581C218.499 136.581 215.865 133.704 215.865 130.156C215.865 126.608 218.499 123.731 221.748 123.731C224.996 123.731 227.63 126.608 227.63 130.156Z" fill="#54F4FC"/>
<path d="M221.747 137.118C218.232 137.118 215.373 133.995 215.373 130.156C215.373 126.318 218.232 123.195 221.747 123.195C225.261 123.195 228.12 126.318 228.12 130.156C228.121 133.995 225.261 137.118 221.747 137.118ZM221.747 124.268C218.774 124.268 216.355 126.909 216.355 130.156C216.355 133.403 218.774 136.045 221.747 136.045C224.719 136.045 227.138 133.403 227.138 130.156C227.138 126.909 224.719 124.268 221.747 124.268Z" fill="#54F4FC"/>
<path d="M207.891 108.702C207.891 112.193 205.3 115.024 202.103 115.024C198.906 115.024 196.314 112.193 196.314 108.702C196.314 105.211 198.906 102.38 202.103 102.38C205.3 102.38 207.891 105.21 207.891 108.702Z" fill="#54F4FC"/>
<path d="M202.103 115.56C198.64 115.56 195.824 112.483 195.824 108.702C195.824 104.92 198.64 101.844 202.103 101.844C205.566 101.844 208.382 104.92 208.382 108.702C208.382 112.483 205.566 115.56 202.103 115.56ZM202.103 102.917C199.183 102.917 196.806 105.512 196.806 108.702C196.806 111.892 199.183 114.488 202.103 114.488C205.024 114.488 207.4 111.892 207.4 108.702C207.4 105.512 205.024 102.917 202.103 102.917Z" fill="#54F4FC"/>
<path d="M243.414 724.679C243.414 728.533 240.554 731.657 237.026 731.657C233.497 731.657 230.637 728.533 230.637 724.679C230.637 720.825 233.497 717.701 237.026 717.701C240.554 717.701 243.414 720.825 243.414 724.679Z" fill="#54F4FC"/>
<path d="M237.025 732.194C233.231 732.194 230.145 728.822 230.145 724.68C230.145 720.537 233.231 717.166 237.025 717.166C240.818 717.166 243.904 720.537 243.904 724.68C243.904 728.822 240.818 732.194 237.025 732.194ZM237.025 718.238C233.773 718.238 231.127 721.127 231.127 724.679C231.127 728.232 233.773 731.121 237.025 731.121C240.276 731.121 242.922 728.232 242.922 724.679C242.922 721.127 240.276 718.238 237.025 718.238Z" fill="#54F4FC"/>
<path d="M261.749 703.224C261.749 706.291 259.473 708.776 256.665 708.776C253.858 708.776 251.582 706.29 251.582 703.224C251.582 700.158 253.858 697.672 256.665 697.672C259.473 697.672 261.749 700.158 261.749 703.224Z" fill="#54F4FC"/>
<path d="M256.667 709.313C253.592 709.313 251.092 706.582 251.092 703.224C251.092 699.867 253.592 697.136 256.667 697.136C259.741 697.136 262.241 699.867 262.241 703.224C262.241 706.582 259.74 709.313 256.667 709.313ZM256.667 698.209C254.135 698.209 252.074 700.459 252.074 703.225C252.074 705.991 254.134 708.241 256.667 708.241C259.199 708.241 261.259 705.991 261.259 703.225C261.259 700.459 259.199 698.209 256.667 698.209Z" fill="#54F4FC"/>
<path d="M261.828 194.996C261.828 198.11 259.517 200.635 256.665 200.635C253.813 200.635 251.502 198.11 251.502 194.996C251.502 191.882 253.813 189.357 256.665 189.357C259.517 189.357 261.828 191.882 261.828 194.996Z" fill="#54F4FC"/>
<path d="M256.666 201.171C253.548 201.171 251.012 198.401 251.012 194.995C251.012 191.591 253.548 188.82 256.666 188.82C259.784 188.82 262.32 191.59 262.32 194.995C262.32 198.401 259.783 201.171 256.666 201.171ZM256.666 189.893C254.09 189.893 251.994 192.182 251.994 194.995C251.994 197.809 254.09 200.098 256.666 200.098C259.242 200.098 261.338 197.809 261.338 194.995C261.337 192.182 259.242 189.893 256.666 189.893Z" fill="#54F4FC"/>
<path d="M237.025 178.617C239.592 178.617 241.673 176.345 241.673 173.541C241.673 170.737 239.592 168.465 237.025 168.465C234.458 168.465 232.377 170.737 232.377 173.541C232.377 176.345 234.458 178.617 237.025 178.617Z" fill="#54F4FC"/>
<path d="M237.024 179.154C234.19 179.154 231.885 176.636 231.885 173.541C231.885 170.446 234.19 167.927 237.024 167.927C239.857 167.927 242.163 170.446 242.163 173.541C242.163 176.636 239.857 179.154 237.024 179.154ZM237.024 169.001C234.731 169.001 232.867 171.038 232.867 173.541C232.867 176.045 234.732 178.082 237.024 178.082C239.316 178.082 241.181 176.045 241.181 173.541C241.181 171.038 239.316 169.001 237.024 169.001Z" fill="#54F4FC"/>
<path d="M105.198 177.753C107.328 177.753 109.055 175.867 109.055 173.541C109.055 171.215 107.328 169.329 105.198 169.329C103.068 169.329 101.342 171.215 101.342 173.541C101.342 175.867 103.068 177.753 105.198 177.753Z" fill="#54F4FC"/>
<path d="M105.198 178.29C102.8 178.29 100.85 176.16 100.85 173.541C100.85 170.923 102.8 168.793 105.198 168.793C107.595 168.793 109.545 170.923 109.545 173.541C109.545 176.16 107.595 178.29 105.198 178.29ZM105.198 169.865C103.342 169.865 101.832 171.514 101.832 173.541C101.832 175.568 103.341 177.216 105.198 177.216C107.053 177.216 108.563 175.568 108.563 173.541C108.563 171.514 107.053 169.865 105.198 169.865Z" fill="#54F4FC"/>
<path d="M85.5547 158.854C88.9763 158.854 91.7501 155.824 91.7501 152.087C91.7501 148.35 88.9763 145.321 85.5547 145.321C82.1331 145.321 79.3594 148.35 79.3594 152.087C79.3594 155.824 82.1331 158.854 85.5547 158.854Z" fill="#54F4FC"/>
<path d="M85.5551 159.39C81.8681 159.39 78.8691 156.114 78.8691 152.087C78.8691 148.06 81.8681 144.784 85.5551 144.784C89.242 144.784 92.241 148.06 92.241 152.087C92.241 156.114 89.242 159.39 85.5551 159.39ZM85.5551 145.857C82.4103 145.857 79.8513 148.652 79.8513 152.087C79.8513 155.522 82.4103 158.317 85.5551 158.317C88.6999 158.317 91.2589 155.522 91.2589 152.087C91.2589 148.652 88.6999 145.857 85.5551 145.857Z" fill="#54F4FC"/>
<path d="M473.105 565.917C473.105 569.035 470.79 571.563 467.935 571.563C465.08 571.563 462.766 569.035 462.766 565.917C462.766 562.799 465.08 560.27 467.935 560.27C470.79 560.27 473.105 562.799 473.105 565.917Z" fill="#54F4FC"/>
<path d="M467.936 572.1C464.815 572.1 462.276 569.326 462.276 565.917C462.276 562.508 464.815 559.735 467.936 559.735C471.057 559.735 473.597 562.508 473.597 565.917C473.597 569.326 471.058 572.1 467.936 572.1ZM467.936 560.807C465.356 560.807 463.258 563.099 463.258 565.917C463.258 568.735 465.356 571.027 467.936 571.027C470.516 571.027 472.615 568.735 472.615 565.917C472.615 563.099 470.516 560.807 467.936 560.807Z" fill="#54F4FC"/>
<path d="M453.381 587.371C453.381 590.44 451.103 592.928 448.293 592.928C445.483 592.928 443.205 590.44 443.205 587.371C443.205 584.303 445.483 581.815 448.293 581.815C451.103 581.814 453.381 584.302 453.381 587.371Z" fill="#54F4FC"/>
<path d="M448.294 593.464C445.217 593.464 442.715 590.731 442.715 587.372C442.715 584.011 445.218 581.278 448.294 581.278C451.37 581.278 453.872 584.011 453.872 587.372C453.873 590.731 451.37 593.464 448.294 593.464ZM448.294 582.35C445.759 582.35 443.697 584.602 443.697 587.371C443.697 590.139 445.759 592.391 448.294 592.391C450.828 592.391 452.89 590.139 452.89 587.371C452.89 584.603 450.828 582.35 448.294 582.35Z" fill="#54F4FC"/>
<path d="M347.811 587.371C347.811 591.533 344.722 594.907 340.911 594.907C337.101 594.907 334.012 591.533 334.012 587.371C334.012 583.209 337.101 579.835 340.911 579.835C344.722 579.835 347.811 583.209 347.811 587.371Z" fill="#54F4FC"/>
<path d="M340.912 595.443C336.837 595.443 333.521 591.822 333.521 587.371C333.521 582.92 336.837 579.299 340.912 579.299C344.987 579.299 348.303 582.92 348.303 587.371C348.303 591.822 344.987 595.443 340.912 595.443ZM340.912 580.372C337.379 580.372 334.504 583.512 334.504 587.371C334.504 591.23 337.378 594.37 340.912 594.37C344.445 594.37 347.321 591.23 347.321 587.371C347.321 583.512 344.445 580.372 340.912 580.372Z" fill="#54F4FC"/>
<path d="M326.729 608.825C326.729 612.119 324.284 614.79 321.268 614.79C318.252 614.79 315.807 612.12 315.807 608.825C315.807 605.531 318.252 602.861 321.268 602.861C324.284 602.861 326.729 605.531 326.729 608.825Z" fill="#54F4FC"/>
<path d="M321.269 615.327C317.986 615.327 315.317 612.411 315.317 608.826C315.317 605.241 317.987 602.325 321.269 602.325C324.551 602.325 327.221 605.241 327.221 608.826C327.221 612.411 324.551 615.327 321.269 615.327ZM321.269 603.397C318.528 603.397 316.299 605.833 316.299 608.826C316.299 611.819 318.528 614.255 321.269 614.255C324.009 614.255 326.239 611.819 326.239 608.826C326.239 605.833 324.009 603.397 321.269 603.397Z" fill="#54F4FC"/>
<path d="M326.258 821.461C326.258 824.471 324.024 826.91 321.269 826.91C318.513 826.91 316.279 824.471 316.279 821.461C316.279 818.452 318.513 816.012 321.269 816.012C324.024 816.012 326.258 818.452 326.258 821.461Z" fill="#54F4FC"/>
<path d="M321.269 827.447C318.247 827.447 315.789 824.762 315.789 821.461C315.789 818.16 318.247 815.476 321.269 815.476C324.291 815.476 326.749 818.16 326.749 821.461C326.749 824.762 324.291 827.447 321.269 827.447ZM321.269 816.548C318.789 816.548 316.771 818.752 316.771 821.461C316.771 824.17 318.789 826.374 321.269 826.374C323.749 826.374 325.767 824.17 325.767 821.461C325.767 818.752 323.749 816.548 321.269 816.548Z" fill="#54F4FC"/>
<path d="M305.554 842.916C305.554 845.285 303.795 847.205 301.626 847.205C299.457 847.205 297.699 845.285 297.699 842.916C297.699 840.547 299.457 838.627 301.626 838.627C303.795 838.626 305.554 840.547 305.554 842.916Z" fill="#54F4FC"/>
<path d="M301.627 847.742C299.191 847.742 297.209 845.576 297.209 842.916C297.209 840.255 299.191 838.091 301.627 838.091C304.063 838.091 306.045 840.255 306.045 842.916C306.045 845.576 304.063 847.742 301.627 847.742ZM301.627 839.163C299.733 839.163 298.191 840.846 298.191 842.915C298.191 844.985 299.733 846.669 301.627 846.669C303.522 846.669 305.063 844.985 305.063 842.915C305.063 840.846 303.522 839.163 301.627 839.163Z" fill="#54F4FC"/>
<path d="M106.729 842.916C106.729 846.473 104.09 849.355 100.833 849.355C97.5771 849.355 94.9376 846.472 94.9376 842.916C94.9376 839.359 97.5771 836.477 100.833 836.477C104.09 836.476 106.729 839.359 106.729 842.916Z" fill="#54F4FC"/>
<path d="M100.833 849.891C97.3108 849.891 94.4454 846.762 94.4454 842.915C94.4454 839.068 97.3108 835.94 100.833 835.94C104.355 835.94 107.22 839.069 107.22 842.915C107.22 846.761 104.355 849.891 100.833 849.891ZM100.833 837.012C97.8525 837.012 95.4276 839.66 95.4276 842.915C95.4276 846.17 97.8525 848.818 100.833 848.818C103.813 848.818 106.238 846.17 106.238 842.915C106.238 839.66 103.813 837.012 100.833 837.012Z" fill="#54F4FC"/>
<path d="M86.2144 821.461C86.2144 824.492 83.9648 826.948 81.1903 826.948C78.4157 826.948 76.1661 824.491 76.1661 821.461C76.1661 818.431 78.4157 815.974 81.1903 815.974C83.9653 815.974 86.2144 818.431 86.2144 821.461Z" fill="#54F4FC"/>
<path d="M81.1911 827.485C78.1499 827.485 75.6759 824.783 75.6759 821.461C75.6759 818.139 78.1499 815.437 81.1911 815.437C84.2318 815.437 86.7063 818.139 86.7063 821.461C86.7063 824.783 84.2323 827.485 81.1911 827.485ZM81.1911 816.51C78.6916 816.51 76.658 818.731 76.658 821.461C76.658 824.191 78.6921 826.412 81.1911 826.412C83.6907 826.412 85.7242 824.191 85.7242 821.461C85.7242 818.731 83.6907 816.51 81.1911 816.51Z" fill="#54F4FC"/>
<path d="M88.1208 584.034C88.1208 588.213 85.0187 591.601 81.1923 591.601C77.3659 591.601 74.2638 588.213 74.2638 584.034C74.2638 579.854 77.3659 576.466 81.1923 576.466C85.0187 576.466 88.1208 579.854 88.1208 584.034Z" fill="#54F4FC"/>
<path d="M81.1912 592.137C77.1001 592.137 73.7716 588.502 73.7716 584.034C73.7716 579.565 77.1001 575.93 81.1912 575.93C85.2823 575.93 88.6108 579.565 88.6108 584.034C88.6113 588.502 85.2828 592.137 81.1912 592.137ZM81.1912 577.002C77.6417 577.002 74.7537 580.156 74.7537 584.034C74.7537 587.91 77.6417 591.065 81.1912 591.065C84.7411 591.065 87.6286 587.911 87.6286 584.034C87.6291 580.157 84.7411 577.002 81.1912 577.002Z" fill="#54F4FC"/>
<path d="M65.6705 562.579C65.6705 565.067 63.8241 567.084 61.546 567.084C59.2684 567.084 57.422 565.067 57.422 562.579C57.422 560.091 59.2684 558.074 61.546 558.074C63.8241 558.075 65.6705 560.092 65.6705 562.579Z" fill="#54F4FC"/>
<path d="M61.5468 567.62C59.0016 567.62 56.9318 565.358 56.9318 562.579C56.9318 559.8 59.0021 557.538 61.5468 557.538C64.0921 557.538 66.1624 559.8 66.1624 562.579C66.1624 565.358 64.0921 567.62 61.5468 567.62ZM61.5468 558.611C59.5438 558.611 57.9139 560.391 57.9139 562.58C57.9139 564.768 59.5438 566.548 61.5468 566.548C63.5499 566.548 65.1803 564.768 65.1803 562.58C65.1803 560.391 63.5504 558.611 61.5468 558.611Z" fill="#54F4FC"/>
<path d="M503.822 704.178C503.822 707.92 501.044 710.953 497.618 710.953C494.192 710.953 491.414 707.92 491.414 704.178C491.414 700.436 494.192 697.402 497.618 697.402C501.044 697.402 503.822 700.436 503.822 704.178Z" fill="#54F4FC"/>
<path d="M497.619 711.49C493.927 711.49 490.924 708.21 490.924 704.178C490.924 700.146 493.927 696.866 497.619 696.866C501.311 696.866 504.313 700.146 504.313 704.178C504.313 708.21 501.311 711.49 497.619 711.49ZM497.619 697.939C494.469 697.939 491.906 700.738 491.906 704.178C491.906 707.619 494.469 710.418 497.619 710.418C500.768 710.418 503.331 707.619 503.331 704.178C503.331 700.738 500.769 697.939 497.619 697.939Z" fill="#54F4FC"/>
<path d="M482.087 682.724C482.087 685.204 480.246 687.215 477.975 687.215C475.704 687.215 473.863 685.204 473.863 682.724C473.863 680.244 475.704 678.233 477.975 678.233C480.246 678.233 482.087 680.244 482.087 682.724Z" fill="#54F4FC"/>
<path d="M477.976 687.751C475.438 687.751 473.373 685.496 473.373 682.724C473.373 679.952 475.438 677.697 477.976 677.697C480.514 677.697 482.578 679.952 482.578 682.724C482.579 685.496 480.514 687.751 477.976 687.751ZM477.976 678.769C475.98 678.769 474.355 680.542 474.355 682.724C474.355 684.905 475.98 686.678 477.976 686.678C479.973 686.678 481.596 684.905 481.596 682.724C481.596 680.542 479.973 678.769 477.976 678.769Z" fill="#54F4FC"/>
<path d="M426.571 682.724C426.571 685.946 424.179 688.558 421.229 688.558C418.278 688.558 415.887 685.946 415.887 682.724C415.887 679.502 418.278 676.889 421.229 676.889C424.179 676.889 426.571 679.501 426.571 682.724Z" fill="#54F4FC"/>
<path d="M421.23 689.095C418.013 689.095 415.397 686.238 415.397 682.724C415.397 679.21 418.013 676.352 421.23 676.352C424.446 676.352 427.062 679.211 427.062 682.724C427.062 686.238 424.446 689.095 421.23 689.095ZM421.23 677.425C418.555 677.425 416.379 679.802 416.379 682.724C416.379 685.646 418.555 688.023 421.23 688.023C423.904 688.023 426.08 685.646 426.08 682.724C426.08 679.802 423.904 677.425 421.23 677.425Z" fill="#54F4FC"/>
<path d="M405.449 661.269C405.449 663.599 403.72 665.487 401.587 665.487C399.454 665.487 397.725 663.599 397.725 661.269C397.725 658.939 399.454 657.051 401.587 657.051C403.72 657.051 405.449 658.94 405.449 661.269Z" fill="#54F4FC"/>
<path d="M401.588 666.024C399.187 666.024 397.234 663.891 397.234 661.269C397.234 658.647 399.187 656.514 401.588 656.514C403.989 656.514 405.941 658.647 405.941 661.269C405.941 663.892 403.989 666.024 401.588 666.024ZM401.588 657.587C399.729 657.587 398.217 659.24 398.217 661.27C398.217 663.3 399.729 664.952 401.588 664.952C403.447 664.952 404.959 663.3 404.959 661.27C404.959 659.239 403.447 657.587 401.588 657.587Z" fill="#54F4FC"/>
<path d="M407.27 561.149C407.27 564.577 404.726 567.356 401.587 567.356C398.449 567.356 395.904 564.577 395.904 561.149C395.904 557.721 398.449 554.942 401.587 554.942C404.726 554.942 407.27 557.721 407.27 561.149Z" fill="#54F4FC"/>
<path d="M401.588 567.893C398.183 567.893 395.414 564.867 395.414 561.149C395.414 557.431 398.184 554.406 401.588 554.406C404.993 554.406 407.762 557.431 407.762 561.149C407.762 564.867 404.992 567.893 401.588 567.893ZM401.588 555.479C398.725 555.479 396.396 558.022 396.396 561.15C396.396 564.277 398.725 566.82 401.588 566.82C404.45 566.82 406.78 564.277 406.78 561.15C406.78 558.022 404.45 555.479 401.588 555.479Z" fill="#54F4FC"/>
<path d="M386.144 539.695C386.144 542.228 384.264 544.281 381.945 544.281C379.626 544.281 377.746 542.228 377.746 539.695C377.746 537.162 379.627 535.108 381.945 535.108C384.264 535.108 386.144 537.162 386.144 539.695Z" fill="#54F4FC"/>
<path d="M381.945 544.818C379.358 544.818 377.254 542.52 377.254 539.696C377.254 536.87 379.358 534.572 381.945 534.572C384.531 534.572 386.635 536.87 386.635 539.696C386.635 542.519 384.531 544.818 381.945 544.818ZM381.945 535.645C379.9 535.645 378.236 537.462 378.236 539.696C378.236 541.929 379.9 543.746 381.945 543.746C383.989 543.746 385.653 541.929 385.653 539.696C385.653 537.462 383.989 535.645 381.945 535.645Z" fill="#54F4FC"/>
<path d="M159.505 539.694C159.505 542.962 157.08 545.612 154.088 545.612C151.095 545.612 148.67 542.963 148.67 539.694C148.67 536.427 151.095 533.777 154.088 533.777C157.08 533.777 159.505 536.427 159.505 539.694Z" fill="#54F4FC"/>
<path d="M154.088 546.148C150.83 546.148 148.18 543.254 148.18 539.696C148.18 536.137 150.83 533.242 154.088 533.242C157.346 533.242 159.996 536.137 159.996 539.696C159.996 543.254 157.346 546.148 154.088 546.148ZM154.088 534.314C151.372 534.314 149.162 536.727 149.162 539.695C149.162 542.662 151.372 545.075 154.088 545.075C156.804 545.075 159.014 542.662 159.014 539.695C159.014 536.728 156.804 534.314 154.088 534.314Z" fill="#54F4FC"/>
<path d="M134.445 523.188C136.947 523.188 138.974 520.973 138.974 518.241C138.974 515.508 136.947 513.293 134.445 513.293C131.944 513.293 129.916 515.508 129.916 518.241C129.916 520.973 131.944 523.188 134.445 523.188Z" fill="#54F4FC"/>
<path d="M134.445 523.724C131.676 523.724 129.424 521.264 129.424 518.241C129.424 515.217 131.676 512.757 134.445 512.757C137.213 512.757 139.465 515.217 139.465 518.241C139.465 521.264 137.213 523.724 134.445 523.724ZM134.445 513.83C132.218 513.83 130.406 515.808 130.406 518.241C130.406 520.672 132.218 522.651 134.445 522.651C136.672 522.651 138.483 520.673 138.483 518.241C138.483 515.808 136.671 513.83 134.445 513.83Z" fill="#54F4FC"/>
<path d="M138.287 324.675C138.287 326.993 136.567 328.872 134.444 328.872C132.322 328.872 130.602 326.993 130.602 324.675C130.602 322.357 132.322 320.478 134.444 320.478C136.567 320.478 138.287 322.357 138.287 324.675Z" fill="#54F4FC"/>
<path d="M134.445 329.408C132.055 329.408 130.111 327.284 130.111 324.675C130.111 322.065 132.055 319.941 134.445 319.941C136.834 319.941 138.778 322.064 138.778 324.675C138.778 327.284 136.834 329.408 134.445 329.408ZM134.445 321.014C132.597 321.014 131.093 322.656 131.093 324.675C131.093 326.693 132.597 328.335 134.445 328.335C136.293 328.335 137.796 326.693 137.796 324.675C137.796 322.656 136.293 321.014 134.445 321.014Z" fill="#54F4FC"/>
<path d="M118.582 303.221C118.582 305.501 116.889 307.349 114.802 307.349C112.714 307.349 111.021 305.501 111.021 303.221C111.021 300.941 112.714 299.092 114.802 299.092C116.889 299.092 118.582 300.94 118.582 303.221Z" fill="#54F4FC"/>
<path d="M114.803 307.886C112.447 307.886 110.531 305.793 110.531 303.221C110.531 300.649 112.447 298.555 114.803 298.555C117.158 298.555 119.074 300.648 119.074 303.221C119.074 305.793 117.158 307.886 114.803 307.886ZM114.803 299.628C112.989 299.628 111.513 301.24 111.513 303.221C111.513 305.201 112.989 306.813 114.803 306.813C116.616 306.813 118.092 305.201 118.092 303.221C118.092 301.24 116.616 299.628 114.803 299.628Z" fill="#54F4FC"/>
<path d="M99.0875 230.557C102.845 230.557 105.892 227.229 105.892 223.125C105.892 219.02 102.845 215.693 99.0875 215.693C95.3296 215.693 92.2832 219.02 92.2832 223.125C92.2832 227.229 95.3296 230.557 99.0875 230.557Z" fill="#54F4FC"/>
<path d="M99.0883 231.093C95.066 231.093 91.793 227.519 91.793 223.125C91.793 218.732 95.066 215.157 99.0883 215.157C103.111 215.157 106.384 218.732 106.384 223.125C106.384 227.519 103.111 231.093 99.0883 231.093ZM99.0883 216.229C95.6071 216.229 92.7751 219.322 92.7751 223.125C92.7751 226.927 95.6076 230.02 99.0883 230.02C102.57 230.02 105.402 226.927 105.402 223.125C105.402 219.323 102.57 216.229 99.0883 216.229Z" fill="#54F4FC"/>
<path d="M124.265 201.67C124.265 205.009 121.787 207.717 118.729 207.717C115.672 207.717 113.193 205.01 113.193 201.67C113.193 198.331 115.672 195.624 118.729 195.624C121.787 195.624 124.265 198.331 124.265 201.67Z" fill="#54F4FC"/>
<path d="M118.73 208.253C115.406 208.253 112.703 205.3 112.703 201.67C112.703 198.04 115.407 195.087 118.73 195.087C122.052 195.087 124.756 198.04 124.756 201.67C124.756 205.3 122.052 208.253 118.73 208.253ZM118.73 196.16C115.948 196.16 113.685 198.632 113.685 201.671C113.685 204.709 115.948 207.18 118.73 207.18C121.511 207.18 123.774 204.708 123.774 201.671C123.774 198.632 121.511 196.16 118.73 196.16Z" fill="#54F4FC"/>
<path d="M233.915 60.5873C233.939 56.4001 230.85 52.985 227.016 52.9595C223.183 52.934 220.056 56.3077 220.033 60.4949C220.009 64.682 223.098 68.0971 226.932 68.1227C230.765 68.1482 233.892 64.7745 233.915 60.5873Z" fill="#54F4FC"/>
<path d="M226.983 68.6661C222.885 68.6661 219.551 65.0247 219.551 60.5483C219.551 56.072 222.885 52.4305 226.983 52.4305C231.082 52.4305 234.415 56.072 234.415 60.5483C234.415 65.0252 231.082 68.6661 226.983 68.6661ZM226.983 53.5035C223.427 53.5035 220.533 56.664 220.533 60.5483C220.533 64.4327 223.427 67.5932 226.983 67.5932C230.539 67.5932 233.433 64.4327 233.433 60.5483C233.433 56.6645 230.539 53.5035 226.983 53.5035Z" fill="#54F4FC"/>
<path d="M250.442 82.0028C250.442 84.3048 248.733 86.1713 246.625 86.1713C244.517 86.1713 242.809 84.3053 242.809 82.0028C242.809 79.7008 244.517 77.8342 246.625 77.8342C248.733 77.8342 250.442 79.7008 250.442 82.0028Z" fill="#54F4FC"/>
<path d="M246.626 86.7076C244.251 86.7076 242.318 84.5971 242.318 82.0029C242.318 79.4086 244.251 77.2981 246.626 77.2981C249.001 77.2981 250.933 79.4087 250.933 82.0029C250.934 84.5971 249.001 86.7076 246.626 86.7076ZM246.626 78.3711C244.793 78.3711 243.301 80.0006 243.301 82.0029C243.301 84.0051 244.792 85.6347 246.626 85.6347C248.46 85.6347 249.951 84.0051 249.951 82.0029C249.952 80.0006 248.46 78.3711 246.626 78.3711Z" fill="#54F4FC"/>
<path d="M380.861 82.0029C380.861 85.5629 378.219 88.4493 374.959 88.4493C371.699 88.4493 369.057 85.5634 369.057 82.0029C369.057 78.443 371.699 75.5565 374.959 75.5565C378.219 75.5565 380.861 78.443 380.861 82.0029Z" fill="#54F4FC"/>
<path d="M374.96 88.9855C371.434 88.9855 368.566 85.8535 368.566 82.0029C368.566 78.1523 371.434 75.0203 374.96 75.0203C378.485 75.0203 381.353 78.1523 381.353 82.0029C381.353 85.8535 378.485 88.9855 374.96 88.9855ZM374.96 76.0932C371.976 76.0932 369.549 78.7448 369.549 82.0029C369.549 85.2615 371.976 87.9125 374.96 87.9125C377.943 87.9125 380.371 85.2609 380.371 82.0029C380.371 78.7443 377.943 76.0932 374.96 76.0932Z" fill="#54F4FC"/>
<path d="M399.679 60.5484C399.679 63.6108 397.406 66.0935 394.603 66.0935C391.799 66.0935 389.525 63.6108 389.525 60.5484C389.525 57.4861 391.799 55.0034 394.603 55.0034C397.406 55.0034 399.679 57.4861 399.679 60.5484Z" fill="#54F4FC"/>
<path d="M394.603 66.6303C391.533 66.6303 389.035 63.9026 389.035 60.5491C389.035 57.1956 391.533 54.4673 394.603 54.4673C397.673 54.4673 400.171 57.1956 400.171 60.5491C400.171 63.902 397.673 66.6303 394.603 66.6303ZM394.603 55.5397C392.075 55.5397 390.017 57.787 390.017 60.5485C390.017 63.3106 392.075 65.5568 394.603 65.5568C397.131 65.5568 399.189 63.31 399.189 60.5485C399.189 57.787 397.132 55.5397 394.603 55.5397Z" fill="#54F4FC"/>
<path d="M504.165 636.697C506.445 636.697 508.294 634.678 508.294 632.187C508.294 629.696 506.445 627.677 504.165 627.677C501.884 627.677 500.035 629.696 500.035 632.187C500.035 634.678 501.884 636.697 504.165 636.697Z" fill="#54F4FC"/>
<path d="M504.166 637.234C501.617 637.234 499.545 634.97 499.545 632.186C499.545 629.404 501.618 627.14 504.166 627.14C506.713 627.14 508.786 629.404 508.786 632.186C508.786 634.97 506.713 637.234 504.166 637.234ZM504.166 628.213C502.16 628.213 500.527 629.996 500.527 632.187C500.527 634.378 502.16 636.161 504.166 636.161C506.172 636.161 507.804 634.378 507.804 632.187C507.804 629.996 506.171 628.213 504.166 628.213Z" fill="#54F4FC"/>
<path d="M529.807 610.732C529.807 614.351 527.122 617.284 523.809 617.284C520.496 617.284 517.811 614.351 517.811 610.732C517.811 607.114 520.496 604.181 523.809 604.181C527.122 604.181 529.807 607.114 529.807 610.732Z" fill="#54F4FC"/>
<path d="M523.81 617.82C520.231 617.82 517.32 614.641 517.32 610.733C517.32 606.824 520.231 603.645 523.81 603.645C527.388 603.645 530.299 606.824 530.299 610.733C530.299 614.641 527.388 617.82 523.81 617.82ZM523.81 604.717C520.773 604.717 518.303 607.416 518.303 610.733C518.303 614.05 520.773 616.748 523.81 616.748C526.846 616.748 529.317 614.049 529.317 610.733C529.317 607.416 526.846 604.717 523.81 604.717Z" fill="#54F4FC"/>
<path d="M528.442 524.915C528.442 527.71 526.368 529.976 523.809 529.976C521.25 529.976 519.176 527.71 519.176 524.915C519.176 522.12 521.25 519.855 523.809 519.855C526.368 519.855 528.442 522.12 528.442 524.915Z" fill="#54F4FC"/>
<path d="M523.81 530.512C520.984 530.512 518.685 528.001 518.685 524.915C518.685 521.829 520.984 519.319 523.81 519.319C526.635 519.319 528.934 521.829 528.934 524.915C528.934 528.001 526.635 530.512 523.81 530.512ZM523.81 520.392C521.526 520.392 519.668 522.421 519.668 524.915C519.668 527.411 521.526 529.44 523.81 529.44C526.093 529.44 527.951 527.411 527.951 524.915C527.951 522.421 526.093 520.392 523.81 520.392Z" fill="#54F4FC"/>
<path d="M504.167 509.905C507.425 509.905 510.066 507.02 510.066 503.461C510.066 499.902 507.425 497.017 504.167 497.017C500.909 497.017 498.268 499.902 498.268 503.461C498.268 507.02 500.909 509.905 504.167 509.905Z" fill="#54F4FC"/>
<path d="M504.166 510.441C500.642 510.441 497.776 507.31 497.776 503.461C497.776 499.612 500.642 496.481 504.166 496.481C507.69 496.481 510.557 499.612 510.557 503.461C510.557 507.31 507.69 510.441 504.166 510.441ZM504.166 497.553C501.184 497.553 498.758 500.204 498.758 503.461C498.758 506.718 501.184 509.368 504.166 509.368C507.149 509.368 509.575 506.718 509.575 503.461C509.575 500.204 507.149 497.553 504.166 497.553Z" fill="#54F4FC"/>
<path d="M440.435 509.181C443.327 509.181 445.672 506.62 445.672 503.461C445.672 500.301 443.327 497.74 440.435 497.74C437.542 497.74 435.197 500.301 435.197 503.461C435.197 506.62 437.542 509.181 440.435 509.181Z" fill="#54F4FC"/>
<path d="M440.435 509.717C437.277 509.717 434.707 506.91 434.707 503.461C434.707 500.011 437.277 497.205 440.435 497.205C443.594 497.205 446.163 500.011 446.163 503.461C446.163 506.91 443.594 509.717 440.435 509.717ZM440.435 498.277C437.819 498.277 435.689 500.603 435.689 503.461C435.689 506.318 437.819 508.644 440.435 508.644C443.052 508.644 445.181 506.319 445.181 503.461C445.181 500.603 443.052 498.277 440.435 498.277Z" fill="#54F4FC"/>
<path d="M420.793 486.089C422.857 486.089 424.531 484.261 424.531 482.007C424.531 479.752 422.857 477.924 420.793 477.924C418.728 477.924 417.055 479.752 417.055 482.007C417.055 484.261 418.728 486.089 420.793 486.089Z" fill="#54F4FC"/>
<path d="M420.794 486.625C418.461 486.625 416.564 484.553 416.564 482.007C416.564 479.46 418.461 477.388 420.794 477.388C423.125 477.388 425.022 479.459 425.022 482.007C425.022 484.553 423.125 486.625 420.794 486.625ZM420.794 478.46C419.003 478.46 417.547 480.051 417.547 482.006C417.547 483.961 419.003 485.552 420.794 485.552C422.584 485.552 424.04 483.961 424.04 482.006C424.04 480.051 422.584 478.46 420.794 478.46Z" fill="#54F4FC"/>
<path d="M426.162 360.909C426.162 364.148 423.757 366.773 420.792 366.773C417.826 366.773 415.422 364.148 415.422 360.909C415.422 357.67 417.826 355.044 420.792 355.044C423.757 355.044 426.162 357.67 426.162 360.909Z" fill="#54F4FC"/>
<path d="M420.793 367.31C417.561 367.31 414.932 364.439 414.932 360.909C414.932 357.379 417.561 354.508 420.793 354.508C424.024 354.508 426.653 357.379 426.653 360.909C426.653 364.439 424.024 367.31 420.793 367.31ZM420.793 355.581C418.102 355.581 415.914 357.971 415.914 360.909C415.914 363.847 418.102 366.237 420.793 366.237C423.482 366.237 425.671 363.847 425.671 360.909C425.671 357.971 423.483 355.581 420.793 355.581Z" fill="#54F4FC"/>
<path d="M405.169 339.454C405.169 341.879 403.369 343.844 401.15 343.844C398.93 343.844 397.131 341.879 397.131 339.454C397.131 337.03 398.93 335.065 401.15 335.065C403.369 335.065 405.169 337.031 405.169 339.454Z" fill="#54F4FC"/>
<path d="M401.151 344.381C398.664 344.381 396.641 342.171 396.641 339.455C396.641 336.739 398.664 334.529 401.151 334.529C403.637 334.529 405.661 336.739 405.661 339.455C405.661 342.17 403.637 344.381 401.151 344.381ZM401.151 335.602C399.205 335.602 397.623 337.33 397.623 339.454C397.623 341.579 399.205 343.308 401.151 343.308C403.096 343.308 404.678 341.579 404.678 339.454C404.678 337.33 403.096 335.602 401.151 335.602Z" fill="#54F4FC"/>
<path d="M339.635 339.455C339.635 341.844 337.862 343.781 335.674 343.781C333.486 343.781 331.713 341.844 331.713 339.455C331.713 337.065 333.486 335.128 335.674 335.128C337.862 335.128 339.635 337.066 339.635 339.455Z" fill="#54F4FC"/>
<path d="M335.674 344.317C333.219 344.317 331.223 342.136 331.223 339.455C331.223 336.773 333.219 334.592 335.674 334.592C338.129 334.592 340.126 336.773 340.126 339.455C340.127 342.136 338.129 344.317 335.674 344.317ZM335.674 335.665C333.761 335.665 332.205 337.365 332.205 339.455C332.205 341.544 333.761 343.244 335.674 343.244C337.587 343.244 339.144 341.544 339.144 339.455C339.145 337.365 337.588 335.665 335.674 335.665Z" fill="#54F4FC"/>
<path d="M320.761 318C320.761 320.853 318.643 323.167 316.031 323.167C313.419 323.167 311.301 320.853 311.301 318C311.301 315.147 313.419 312.834 316.031 312.834C318.643 312.834 320.761 315.147 320.761 318Z" fill="#54F4FC"/>
<path d="M316.032 323.703C313.153 323.703 310.811 321.145 310.811 318C310.811 314.855 313.152 312.297 316.032 312.297C318.911 312.297 321.253 314.855 321.253 318C321.253 321.145 318.911 323.703 316.032 323.703ZM316.032 313.37C313.694 313.37 311.793 315.447 311.793 318C311.793 320.553 313.694 322.63 316.032 322.63C318.369 322.63 320.271 320.553 320.271 318C320.271 315.447 318.369 313.37 316.032 313.37Z" fill="#54F4FC"/>
<path d="M320.38 219.787C320.38 222.411 318.433 224.538 316.031 224.538C313.629 224.538 311.682 222.411 311.682 219.787C311.682 217.164 313.629 215.037 316.031 215.037C318.433 215.037 320.38 217.164 320.38 219.787Z" fill="#54F4FC"/>
<path d="M316.031 225.074C313.362 225.074 311.191 222.702 311.191 219.787C311.191 216.872 313.363 214.501 316.031 214.501C318.7 214.501 320.871 216.872 320.871 219.787C320.871 222.702 318.7 225.074 316.031 225.074ZM316.031 215.573C313.904 215.573 312.174 217.463 312.174 219.787C312.174 222.111 313.904 224.001 316.031 224.001C318.159 224.001 319.889 222.111 319.889 219.787C319.89 217.464 318.159 215.573 316.031 215.573Z" fill="#54F4FC"/>
<path d="M342.552 198.333C342.552 202.481 339.473 205.844 335.675 205.844C331.877 205.844 328.799 202.481 328.799 198.333C328.799 194.185 331.877 190.823 335.675 190.823C339.473 190.823 342.552 194.185 342.552 198.333Z" fill="#54F4FC"/>
<path d="M335.674 206.38C331.612 206.38 328.307 202.77 328.307 198.333C328.307 193.896 331.612 190.286 335.674 190.286C339.736 190.286 343.042 193.896 343.042 198.333C343.042 202.77 339.737 206.38 335.674 206.38ZM335.674 191.359C332.153 191.359 329.289 194.488 329.289 198.333C329.289 202.179 332.153 205.307 335.674 205.307C339.195 205.307 342.06 202.179 342.06 198.333C342.06 194.488 339.195 191.359 335.674 191.359Z" fill="#54F4FC"/>
<path d="M379.802 198.333C379.802 201.253 377.635 203.62 374.962 203.62C372.288 203.62 370.121 201.253 370.121 198.333C370.121 195.414 372.288 193.047 374.962 193.047C377.634 193.047 379.802 195.414 379.802 198.333Z" fill="#54F4FC"/>
<path d="M374.96 204.156C372.02 204.156 369.629 201.544 369.629 198.333C369.629 195.122 372.02 192.51 374.96 192.51C377.9 192.511 380.291 195.122 380.291 198.333C380.292 201.544 377.9 204.156 374.96 204.156ZM374.96 193.583C372.562 193.583 370.611 195.714 370.611 198.333C370.611 200.953 372.562 203.084 374.96 203.084C377.358 203.084 379.309 200.953 379.309 198.333C379.309 195.713 377.358 193.583 374.96 193.583Z" fill="#54F4FC"/>
<path d="M398.77 219.787C398.77 222.301 396.904 224.338 394.604 224.338C392.303 224.338 390.438 222.301 390.438 219.787C390.438 217.274 392.303 215.236 394.604 215.236C396.904 215.236 398.77 217.274 398.77 219.787Z" fill="#54F4FC"/>
<path d="M394.603 224.874C392.034 224.874 389.945 222.592 389.945 219.787C389.945 216.982 392.035 214.7 394.603 214.7C397.17 214.7 399.26 216.982 399.26 219.787C399.26 222.592 397.171 224.874 394.603 224.874ZM394.603 215.773C392.576 215.773 390.927 217.574 390.927 219.787C390.927 222.001 392.576 223.801 394.603 223.801C396.629 223.801 398.278 222.001 398.278 219.787C398.278 217.574 396.629 215.773 394.603 215.773Z" fill="#54F4FC"/>
<path d="M398.897 226.462C398.897 229.052 396.975 231.152 394.603 231.152C392.231 231.152 390.309 229.052 390.309 226.462C390.309 223.871 392.231 221.772 394.603 221.772C396.975 221.772 398.897 223.871 398.897 226.462Z" fill="#54F4FC"/>
<path d="M394.603 231.689C391.965 231.689 389.818 229.344 389.818 226.462C389.818 223.58 391.965 221.235 394.603 221.235C397.242 221.235 399.389 223.579 399.389 226.462C399.389 229.344 397.242 231.689 394.603 231.689ZM394.603 222.308C392.506 222.308 390.801 224.171 390.801 226.462C390.801 228.752 392.506 230.616 394.603 230.616C396.7 230.616 398.407 228.752 398.407 226.462C398.407 224.171 396.701 222.308 394.603 222.308Z" fill="#54F4FC"/>
<path d="M418.281 247.916C418.281 250.35 416.475 252.323 414.246 252.323C412.018 252.323 410.211 250.35 410.211 247.916C410.211 245.482 412.018 243.509 414.246 243.509C416.475 243.509 418.281 245.482 418.281 247.916Z" fill="#54F4FC"/>
<path d="M414.245 252.86C411.749 252.86 409.719 250.642 409.719 247.916C409.719 245.191 411.749 242.973 414.245 242.973C416.741 242.973 418.772 245.191 418.772 247.916C418.772 250.642 416.741 252.86 414.245 252.86ZM414.245 244.045C412.29 244.045 410.701 245.781 410.701 247.916C410.701 250.051 412.29 251.788 414.245 251.788C416.199 251.788 417.789 250.051 417.789 247.916C417.789 245.782 416.199 244.045 414.245 244.045Z" fill="#54F4FC"/>
<path d="M528.535 247.916C528.535 252.083 525.443 255.461 521.628 255.461C517.813 255.461 514.721 252.083 514.721 247.916C514.721 243.749 517.813 240.372 521.628 240.372C525.443 240.372 528.535 243.749 528.535 247.916Z" fill="#54F4FC"/>
<path d="M521.627 255.997C517.547 255.997 514.229 252.371 514.229 247.916C514.229 243.46 517.548 239.835 521.627 239.835C525.706 239.835 529.025 243.461 529.025 247.916C529.026 252.372 525.707 255.997 521.627 255.997ZM521.627 240.908C518.089 240.908 515.211 244.051 515.211 247.916C515.211 251.781 518.089 254.924 521.627 254.924C525.165 254.924 528.043 251.781 528.043 247.916C528.043 244.051 525.165 240.908 521.627 240.908Z" fill="#54F4FC"/>
<path d="M545.997 226.462C545.997 229.314 543.88 231.626 541.269 231.626C538.658 231.626 536.541 229.314 536.541 226.462C536.541 223.61 538.658 221.298 541.269 221.298C543.88 221.298 545.997 223.61 545.997 226.462Z" fill="#54F4FC"/>
<path d="M541.27 232.162C538.392 232.162 536.051 229.605 536.051 226.462C536.051 223.318 538.392 220.761 541.27 220.761C544.148 220.761 546.489 223.318 546.489 226.462C546.489 229.605 544.148 232.162 541.27 232.162ZM541.27 221.834C538.933 221.834 537.033 223.91 537.033 226.462C537.033 229.013 538.933 231.089 541.27 231.089C543.606 231.089 545.507 229.013 545.507 226.462C545.507 223.91 543.606 221.834 541.27 221.834Z" fill="#54F4FC"/>
<path d="M181.105 240.288C181.105 243.946 178.39 246.911 175.041 246.911C171.692 246.911 168.977 243.946 168.977 240.288C168.977 236.63 171.692 233.664 175.041 233.664C178.39 233.664 181.105 236.63 181.105 240.288Z" fill="#54F4FC"/>
<path d="M175.04 247.448C171.425 247.448 168.484 244.236 168.484 240.288C168.484 236.34 171.425 233.128 175.04 233.128C178.654 233.128 181.595 236.34 181.595 240.288C181.595 244.236 178.654 247.448 175.04 247.448ZM175.04 234.201C171.967 234.201 169.467 236.932 169.467 240.288C169.467 243.645 171.967 246.376 175.04 246.376C178.113 246.376 180.613 243.645 180.613 240.288C180.613 236.932 178.113 234.201 175.04 234.201Z" fill="#54F4FC"/>
<path d="M200.471 261.743C200.471 265.235 197.879 268.066 194.682 268.066C191.484 268.066 188.893 265.234 188.893 261.743C188.893 258.251 191.484 255.42 194.682 255.42C197.879 255.42 200.471 258.25 200.471 261.743Z" fill="#54F4FC"/>
<path d="M194.683 268.602C191.22 268.602 188.402 265.525 188.402 261.743C188.402 257.961 191.22 254.884 194.683 254.884C198.146 254.884 200.963 257.961 200.963 261.743C200.963 265.525 198.146 268.602 194.683 268.602ZM194.683 255.956C191.761 255.956 189.384 258.552 189.384 261.743C189.384 264.934 191.761 267.529 194.683 267.529C197.604 267.529 199.981 264.934 199.981 261.743C199.981 258.552 197.604 255.956 194.683 255.956Z" fill="#54F4FC"/>
<path d="M194.682 367.58C197.573 367.58 199.917 365.02 199.917 361.862C199.917 358.704 197.573 356.145 194.682 356.145C191.791 356.145 189.447 358.704 189.447 361.862C189.447 365.02 191.791 367.58 194.682 367.58Z" fill="#54F4FC"/>
<path d="M194.683 368.116C191.526 368.116 188.957 365.311 188.957 361.862C188.957 358.414 191.526 355.608 194.683 355.608C197.841 355.608 200.409 358.414 200.409 361.862C200.409 365.311 197.841 368.116 194.683 368.116ZM194.683 356.681C192.067 356.681 189.939 359.005 189.939 361.862C189.939 364.719 192.067 367.044 194.683 367.044C197.299 367.044 199.427 364.719 199.427 361.862C199.427 359.005 197.299 356.681 194.683 356.681Z" fill="#54F4FC"/>
<path d="M175.04 390.457C178.65 390.457 181.577 387.26 181.577 383.317C181.577 379.374 178.65 376.177 175.04 376.177C171.429 376.177 168.502 379.374 168.502 383.317C168.502 387.26 171.429 390.457 175.04 390.457Z" fill="#54F4FC"/>
<path d="M175.04 390.994C171.164 390.994 168.012 387.55 168.012 383.317C168.012 379.084 171.165 375.641 175.04 375.641C178.916 375.641 182.069 379.085 182.069 383.317C182.069 387.55 178.915 390.994 175.04 390.994ZM175.04 376.713C171.706 376.713 168.994 379.676 168.994 383.317C168.994 386.959 171.706 389.922 175.04 389.922C178.374 389.922 181.087 386.959 181.087 383.317C181.086 379.676 178.374 376.713 175.04 376.713Z" fill="#54F4FC"/>
<path d="M559.85 776.646C559.85 780.481 557.004 783.589 553.492 783.589C549.981 783.589 547.135 780.48 547.135 776.646C547.135 772.811 549.981 769.702 553.492 769.702C557.004 769.702 559.85 772.811 559.85 776.646Z" fill="#54F4FC"/>
<path d="M553.491 784.126C549.715 784.126 546.643 780.77 546.643 776.646C546.643 772.521 549.715 769.165 553.491 769.165C557.268 769.165 560.34 772.521 560.34 776.646C560.34 780.771 557.268 784.126 553.491 784.126ZM553.491 770.238C550.257 770.238 547.625 773.113 547.625 776.646C547.625 780.179 550.257 783.053 553.491 783.053C556.726 783.053 559.358 780.178 559.358 776.646C559.358 773.113 556.726 770.238 553.491 770.238Z" fill="#54F4FC"/>
<path d="M537.865 755.192C537.865 757.615 536.067 759.578 533.849 759.578C531.63 759.578 529.832 757.614 529.832 755.191C529.832 752.769 531.63 750.805 533.849 750.805C536.067 750.805 537.865 752.769 537.865 755.192Z" fill="#54F4FC"/>
<path d="M533.849 760.115C531.364 760.115 529.342 757.907 529.342 755.192C529.342 752.476 531.364 750.268 533.849 750.268C536.335 750.268 538.357 752.476 538.357 755.192C538.357 757.907 536.335 760.115 533.849 760.115ZM533.849 751.341C531.906 751.341 530.324 753.068 530.324 755.192C530.324 757.315 531.906 759.042 533.849 759.042C535.794 759.042 537.375 757.315 537.375 755.192C537.375 753.068 535.794 751.341 533.849 751.341Z" fill="#54F4FC"/>
<path d="M400.09 755.191C400.09 758.238 397.828 760.708 395.039 760.708C392.25 760.708 389.988 758.238 389.988 755.191C389.988 752.145 392.25 749.675 395.039 749.675C397.828 749.675 400.09 752.145 400.09 755.191Z" fill="#54F4FC"/>
<path d="M395.04 761.245C391.984 761.245 389.498 758.529 389.498 755.192C389.498 751.855 391.984 749.139 395.04 749.139C398.095 749.139 400.581 751.855 400.581 755.192C400.581 758.529 398.095 761.245 395.04 761.245ZM395.04 750.212C392.526 750.212 390.48 752.446 390.48 755.192C390.48 757.937 392.526 760.172 395.04 760.172C397.554 760.172 399.599 757.937 399.599 755.192C399.599 752.446 397.554 750.212 395.04 750.212Z" fill="#54F4FC"/>
<path d="M380.774 776.646C380.774 779.891 378.366 782.521 375.395 782.521C372.424 782.521 370.016 779.891 370.016 776.646C370.016 773.401 372.424 770.771 375.395 770.771C378.366 770.771 380.774 773.401 380.774 776.646Z" fill="#54F4FC"/>
<path d="M375.396 783.057C372.159 783.057 369.526 780.181 369.526 776.646C369.526 773.111 372.159 770.234 375.396 770.234C378.632 770.234 381.266 773.111 381.266 776.646C381.266 780.181 378.632 783.057 375.396 783.057ZM375.396 771.306C372.701 771.306 370.508 773.702 370.508 776.646C370.508 779.59 372.701 781.984 375.396 781.984C378.091 781.984 380.283 779.59 380.283 776.646C380.283 773.702 378.091 771.306 375.396 771.306Z" fill="#54F4FC"/>
<path d="M375.395 866.602C378.934 866.602 381.803 863.468 381.803 859.602C381.803 855.737 378.934 852.603 375.395 852.603C371.856 852.603 368.986 855.737 368.986 859.602C368.986 863.468 371.856 866.602 375.395 866.602Z" fill="#54F4FC"/>
<path d="M375.396 867.138C371.591 867.138 368.496 863.758 368.496 859.602C368.496 855.447 371.591 852.066 375.396 852.066C379.201 852.066 382.296 855.447 382.296 859.602C382.296 863.758 379.201 867.138 375.396 867.138ZM375.396 853.139C372.133 853.139 369.478 856.039 369.478 859.602C369.478 863.166 372.133 866.066 375.396 866.066C378.659 866.066 381.314 863.166 381.314 859.602C381.314 856.038 378.659 853.139 375.396 853.139Z" fill="#54F4FC"/>
<path d="M362.443 881.056C362.443 885.092 359.448 888.363 355.754 888.363C352.06 888.363 349.065 885.092 349.065 881.056C349.065 877.021 352.06 873.75 355.754 873.75C359.448 873.75 362.443 877.021 362.443 881.056Z" fill="#54F4FC"/>
<path d="M355.753 888.9C351.794 888.9 348.572 885.381 348.572 881.056C348.572 876.732 351.794 873.213 355.753 873.213C359.713 873.213 362.934 876.732 362.934 881.056C362.934 885.381 359.712 888.9 355.753 888.9ZM355.753 874.286C352.335 874.286 349.555 877.323 349.555 881.056C349.555 884.79 352.335 887.827 355.753 887.827C359.171 887.827 361.952 884.79 361.952 881.056C361.952 877.323 359.171 874.286 355.753 874.286Z" fill="#54F4FC"/>
<path d="M145.358 888.092C148.915 888.092 151.799 884.942 151.799 881.056C151.799 877.171 148.915 874.021 145.358 874.021C141.8 874.021 138.916 877.171 138.916 881.056C138.916 884.942 141.8 888.092 145.358 888.092Z" fill="#54F4FC"/>
<path d="M145.356 888.628C141.534 888.628 138.424 885.232 138.424 881.056C138.424 876.881 141.534 873.484 145.356 873.484C149.179 873.484 152.289 876.881 152.289 881.056C152.289 885.232 149.179 888.628 145.356 888.628ZM145.356 874.557C142.075 874.557 139.406 877.473 139.406 881.056C139.406 884.64 142.075 887.555 145.356 887.555C148.638 887.555 151.307 884.64 151.307 881.056C151.307 877.473 148.637 874.557 145.356 874.557Z" fill="#54F4FC"/>
<path d="M130.506 859.602C130.506 862.493 128.36 864.836 125.714 864.836C123.067 864.836 120.922 862.493 120.922 859.602C120.922 856.712 123.067 854.368 125.714 854.368C128.36 854.368 130.506 856.712 130.506 859.602Z" fill="#54F4FC"/>
<path d="M125.715 865.372C122.802 865.372 120.432 862.784 120.432 859.602C120.432 856.42 122.802 853.832 125.715 853.832C128.628 853.832 130.998 856.42 130.998 859.602C130.998 862.784 128.628 865.372 125.715 865.372ZM125.715 854.905C123.343 854.905 121.414 857.013 121.414 859.602C121.414 862.192 123.343 864.3 125.715 864.3C128.087 864.3 130.016 862.192 130.016 859.602C130.015 857.012 128.087 854.905 125.715 854.905Z" fill="#54F4FC"/>
<path d="M130.39 814.786C130.39 817.607 128.296 819.894 125.714 819.894C123.131 819.894 121.037 817.607 121.037 814.786C121.037 811.965 123.131 809.679 125.714 809.679C128.296 809.679 130.39 811.966 130.39 814.786Z" fill="#54F4FC"/>
<path d="M125.715 820.43C122.865 820.43 120.547 817.898 120.547 814.787C120.547 811.675 122.865 809.143 125.715 809.143C128.564 809.143 130.882 811.675 130.882 814.787C130.882 817.898 128.564 820.43 125.715 820.43ZM125.715 810.215C123.407 810.215 121.529 812.266 121.529 814.787C121.529 817.308 123.406 819.358 125.715 819.358C128.023 819.358 129.9 817.308 129.9 814.787C129.9 812.267 128.023 810.215 125.715 810.215Z" fill="#54F4FC"/>
<path d="M110.619 793.332C110.619 796.075 108.584 798.298 106.072 798.298C103.561 798.298 101.526 796.075 101.526 793.332C101.526 790.59 103.561 788.366 106.072 788.366C108.583 788.366 110.619 790.59 110.619 793.332Z" fill="#54F4FC"/>
<path d="M106.071 798.834C103.294 798.834 101.033 796.366 101.033 793.333C101.033 790.298 103.293 787.83 106.071 787.83C108.849 787.83 111.11 790.298 111.11 793.333C111.109 796.366 108.849 798.834 106.071 798.834ZM106.071 788.903C103.835 788.903 102.015 790.89 102.015 793.333C102.015 795.775 103.835 797.762 106.071 797.762C108.308 797.762 110.127 795.775 110.127 793.333C110.127 790.89 108.308 788.903 106.071 788.903Z" fill="#54F4FC"/>
<path d="M58.0575 339.455C58.0575 342.352 55.9066 344.702 53.2534 344.702C50.6001 344.702 48.4492 342.353 48.4492 339.455C48.4492 336.557 50.6001 334.208 53.2534 334.208C55.9066 334.208 58.0575 336.557 58.0575 339.455Z" fill="#54F4FC"/>
<path d="M53.2542 345.239C50.3343 345.239 47.959 342.644 47.959 339.455C47.959 336.266 50.3343 333.671 53.2542 333.671C56.1736 333.671 58.5489 336.266 58.5489 339.455C58.5489 342.644 56.1736 345.239 53.2542 345.239ZM53.2542 334.744C50.8759 334.744 48.9411 336.857 48.9411 339.455C48.9411 342.052 50.8759 344.166 53.2542 344.166C55.6325 344.166 57.5668 342.052 57.5668 339.455C57.5668 336.858 55.6325 334.744 53.2542 334.744Z" fill="#54F4FC"/>
<path d="M78.2473 360.909C78.2473 364.136 75.8519 366.752 72.8971 366.752C69.9423 366.752 67.5469 364.136 67.5469 360.909C67.5469 357.681 69.9423 355.065 72.8971 355.065C75.8519 355.065 78.2473 357.681 78.2473 360.909Z" fill="#54F4FC"/>
<path d="M72.8979 367.289C69.6765 367.289 67.0566 364.427 67.0566 360.909C67.0566 357.391 69.677 354.529 72.8979 354.529C76.1189 354.529 78.7392 357.391 78.7392 360.909C78.7387 364.427 76.1184 367.289 72.8979 367.289ZM72.8979 355.602C70.2186 355.602 68.0388 357.983 68.0388 360.909C68.0388 363.835 70.2186 366.216 72.8979 366.216C75.5772 366.216 77.7571 363.835 77.7571 360.909C77.7566 357.983 75.5772 355.602 72.8979 355.602Z" fill="#54F4FC"/>
<path d="M76.584 489.635C76.584 491.859 74.933 493.662 72.8966 493.662C70.8601 493.662 69.2091 491.859 69.2091 489.635C69.2091 487.411 70.8601 485.607 72.8966 485.607C74.933 485.607 76.584 487.411 76.584 489.635Z" fill="#54F4FC"/>
<path d="M72.8974 494.198C70.5938 494.198 68.7189 492.151 68.7189 489.635C68.7189 487.118 70.5933 485.071 72.8974 485.071C75.201 485.071 77.0754 487.118 77.0754 489.635C77.0754 492.151 75.201 494.198 72.8974 494.198ZM72.8974 486.143C71.1349 486.143 69.701 487.709 69.701 489.634C69.701 491.559 71.1349 493.125 72.8974 493.125C74.6598 493.125 76.0933 491.559 76.0933 489.634C76.0933 487.709 74.6598 486.143 72.8974 486.143Z" fill="#54F4FC"/>
<path d="M57.1587 511.089C57.1587 513.444 55.4105 515.354 53.2542 515.354C51.0979 515.354 49.3497 513.444 49.3497 511.089C49.3497 508.733 51.0979 506.824 53.2542 506.824C55.4105 506.824 57.1587 508.734 57.1587 511.089Z" fill="#54F4FC"/>
<path d="M53.2536 515.89C50.8297 515.89 48.8575 513.736 48.8575 511.089C48.8575 508.442 50.8297 506.288 53.2536 506.288C55.6775 506.288 57.6492 508.442 57.6492 511.089C57.6492 513.736 55.677 515.89 53.2536 515.89ZM53.2536 507.361C51.3713 507.361 49.8397 509.034 49.8397 511.089C49.8397 513.144 51.3713 514.817 53.2536 514.817C55.1359 514.817 56.667 513.144 56.667 511.089C56.667 509.034 55.1359 507.361 53.2536 507.361Z" fill="#54F4FC"/>
<path d="M201.046 591.185C201.046 594.76 198.393 597.658 195.12 597.658C191.847 597.658 189.193 594.76 189.193 591.185C189.193 587.611 191.847 584.713 195.12 584.713C198.393 584.713 201.046 587.611 201.046 591.185Z" fill="#54F4FC"/>
<path d="M195.119 598.194C191.58 598.194 188.701 595.05 188.701 591.185C188.701 587.321 191.58 584.176 195.119 584.176C198.657 584.176 201.535 587.321 201.535 591.185C201.536 595.05 198.657 598.194 195.119 598.194ZM195.119 585.249C192.122 585.249 189.683 587.912 189.683 591.185C189.683 594.458 192.122 597.121 195.119 597.121C198.116 597.121 200.553 594.458 200.553 591.185C200.554 587.912 198.116 585.249 195.119 585.249Z" fill="#54F4FC"/>
<path d="M218.944 612.639C218.944 615.163 217.071 617.209 214.76 617.209C212.45 617.209 210.576 615.163 210.576 612.639C210.576 610.115 212.45 608.07 214.76 608.07C217.071 608.07 218.944 610.115 218.944 612.639Z" fill="#54F4FC"/>
<path d="M214.761 617.746C212.183 617.746 210.086 615.456 210.086 612.64C210.086 609.824 212.183 607.533 214.761 607.533C217.339 607.533 219.436 609.824 219.436 612.64C219.436 615.456 217.339 617.746 214.761 617.746ZM214.761 608.606C212.725 608.606 211.068 610.416 211.068 612.64C211.068 614.864 212.725 616.673 214.761 616.673C216.798 616.673 218.454 614.864 218.454 612.64C218.454 610.416 216.798 608.606 214.761 608.606Z" fill="#54F4FC"/>
<path d="M682.703 827.659C682.703 831.875 679.574 835.292 675.714 835.292C671.854 835.292 668.725 831.875 668.725 827.659C668.725 823.444 671.854 820.026 675.714 820.026C679.574 820.026 682.703 823.444 682.703 827.659Z" fill="#54F4FC"/>
<path d="M675.714 835.829C671.59 835.829 668.235 832.164 668.235 827.66C668.235 823.156 671.59 819.49 675.714 819.49C679.838 819.49 683.194 823.156 683.194 827.66C683.194 832.164 679.838 835.829 675.714 835.829ZM675.714 820.562C672.132 820.562 669.217 823.746 669.217 827.659C669.217 831.572 672.132 834.756 675.714 834.756C679.297 834.756 682.212 831.572 682.212 827.66C682.212 823.746 679.297 820.562 675.714 820.562Z" fill="#54F4FC"/>
<path d="M448.234 827.659C448.234 831.309 445.525 834.268 442.183 834.268C438.842 834.268 436.133 831.309 436.133 827.659C436.133 824.009 438.842 821.051 442.183 821.051C445.525 821.051 448.234 824.009 448.234 827.659Z" fill="#54F4FC"/>
<path d="M442.183 834.804C438.575 834.804 435.641 831.599 435.641 827.659C435.641 823.719 438.576 820.514 442.183 820.514C445.79 820.514 448.724 823.719 448.724 827.659C448.724 831.599 445.79 834.804 442.183 834.804ZM442.183 821.587C439.117 821.587 436.623 824.311 436.623 827.659C436.623 831.007 439.117 833.731 442.183 833.731C445.248 833.731 447.742 831.007 447.742 827.659C447.742 824.311 445.248 821.587 442.183 821.587Z" fill="#54F4FC"/>
<path d="M427.144 849.113C427.144 851.891 425.083 854.143 422.54 854.143C419.997 854.143 417.936 851.891 417.936 849.113C417.936 846.336 419.997 844.084 422.54 844.084C425.083 844.084 427.144 846.336 427.144 849.113Z" fill="#54F4FC"/>
<path d="M422.539 854.679C419.729 854.679 417.443 852.182 417.443 849.114C417.443 846.045 419.729 843.548 422.539 843.548C425.349 843.548 427.635 846.044 427.635 849.114C427.635 852.182 425.349 854.679 422.539 854.679ZM422.539 844.621C420.271 844.621 418.426 846.637 418.426 849.114C418.426 851.59 420.271 853.606 422.539 853.606C424.807 853.606 426.653 851.59 426.653 849.114C426.653 846.636 424.807 844.621 422.539 844.621Z" fill="#54F4FC"/>
<path d="M647.354 122.051C647.354 124.956 645.199 127.31 642.54 127.31C639.88 127.31 637.725 124.956 637.725 122.051C637.725 119.146 639.88 116.792 642.54 116.792C645.199 116.792 647.354 119.146 647.354 122.051Z" fill="#54F4FC"/>
<path d="M642.539 127.846C639.613 127.846 637.232 125.246 637.232 122.05C637.232 118.855 639.613 116.255 642.539 116.255C645.465 116.255 647.845 118.855 647.845 122.05C647.845 125.246 645.465 127.846 642.539 127.846ZM642.539 117.328C640.155 117.328 638.215 119.447 638.215 122.051C638.215 124.655 640.155 126.774 642.539 126.774C644.924 126.774 646.863 124.655 646.863 122.051C646.863 119.447 644.924 117.328 642.539 117.328Z" fill="#54F4FC"/>
<path d="M447.683 122.051C447.683 125.369 445.22 128.059 442.182 128.059C439.144 128.059 436.682 125.369 436.682 122.051C436.682 118.733 439.144 116.043 442.182 116.043C445.22 116.043 447.683 118.733 447.683 122.051Z" fill="#54F4FC"/>
<path d="M442.183 128.595C438.879 128.595 436.191 125.659 436.191 122.051C436.191 118.443 438.88 115.507 442.183 115.507C445.486 115.507 448.174 118.443 448.174 122.051C448.174 125.659 445.486 128.595 442.183 128.595ZM442.183 116.579C439.421 116.579 437.174 119.034 437.174 122.051C437.174 125.068 439.421 127.523 442.183 127.523C444.945 127.523 447.192 125.068 447.192 122.051C447.192 119.034 444.945 116.579 442.183 116.579Z" fill="#54F4FC"/>
<path d="M422.538 105.558C425.047 105.558 427.081 103.337 427.081 100.597C427.081 97.8568 425.047 95.6356 422.538 95.6356C420.03 95.6356 417.996 97.8568 417.996 100.597C417.996 103.337 420.03 105.558 422.538 105.558Z" fill="#54F4FC"/>
<path d="M422.539 106.094C419.764 106.094 417.506 103.628 417.506 100.596C417.506 97.5651 419.764 95.099 422.539 95.099C425.314 95.099 427.572 97.5651 427.572 100.596C427.572 103.628 425.314 106.094 422.539 106.094ZM422.539 96.172C420.305 96.172 418.488 98.1565 418.488 100.596C418.488 103.036 420.305 105.021 422.539 105.021C424.773 105.021 426.59 103.036 426.59 100.596C426.59 98.1565 424.773 96.172 422.539 96.172Z" fill="#54F4FC"/>
<path d="M604.265 281.707C604.265 284.95 601.858 287.58 598.888 287.58C595.919 287.58 593.512 284.951 593.512 281.707C593.512 278.463 595.919 275.834 598.888 275.834C601.858 275.834 604.265 278.463 604.265 281.707Z" fill="#54F4FC"/>
<path d="M598.889 288.116C595.654 288.116 593.021 285.241 593.021 281.707C593.021 278.173 595.654 275.299 598.889 275.299C602.124 275.299 604.756 278.174 604.756 281.707C604.756 285.241 602.124 288.116 598.889 288.116ZM598.889 276.371C596.195 276.371 594.004 278.765 594.004 281.707C594.004 284.65 596.195 287.043 598.889 287.043C601.582 287.043 603.774 284.65 603.774 281.707C603.774 278.765 601.583 276.371 598.889 276.371Z" fill="#54F4FC"/>
<path d="M449.165 288.641C452.671 288.641 455.514 285.537 455.514 281.707C455.514 277.878 452.671 274.773 449.165 274.773C445.659 274.773 442.816 277.878 442.816 281.707C442.816 285.537 445.659 288.641 449.165 288.641Z" fill="#54F4FC"/>
<path d="M449.166 289.177C445.394 289.177 442.326 285.826 442.326 281.707C442.326 277.588 445.394 274.237 449.166 274.237C452.937 274.237 456.005 277.588 456.005 281.707C456.005 285.826 452.937 289.177 449.166 289.177ZM449.166 275.309C445.936 275.309 443.308 278.179 443.308 281.707C443.308 285.235 445.936 288.105 449.166 288.105C452.396 288.105 455.023 285.235 455.023 281.707C455.023 278.179 452.396 275.309 449.166 275.309Z" fill="#54F4FC"/>
<path d="M429.522 264.907C431.876 264.907 433.784 262.823 433.784 260.252C433.784 257.682 431.876 255.598 429.522 255.598C427.168 255.598 425.26 257.682 425.26 260.252C425.26 262.823 427.168 264.907 429.522 264.907Z" fill="#54F4FC"/>
<path d="M429.523 265.444C426.902 265.444 424.77 263.115 424.77 260.252C424.77 257.39 426.902 255.061 429.523 255.061C432.143 255.061 434.276 257.39 434.276 260.252C434.275 263.115 432.143 265.444 429.523 265.444ZM429.523 256.134C427.443 256.134 425.752 257.981 425.752 260.252C425.752 262.524 427.443 264.371 429.523 264.371C431.602 264.371 433.294 262.524 433.294 260.252C433.293 257.982 431.602 256.134 429.523 256.134Z" fill="#54F4FC"/>
<path d="M429.523 185.269C432.319 185.269 434.586 182.793 434.586 179.739C434.586 176.685 432.319 174.21 429.523 174.21C426.727 174.21 424.461 176.685 424.461 179.739C424.461 182.793 426.727 185.269 429.523 185.269Z" fill="#54F4FC"/>
<path d="M429.524 185.805C426.462 185.805 423.971 183.084 423.971 179.739C423.971 176.394 426.462 173.673 429.524 173.673C432.586 173.673 435.077 176.394 435.077 179.739C435.077 183.084 432.586 185.805 429.524 185.805ZM429.524 174.746C427.004 174.746 424.953 176.986 424.953 179.739C424.953 182.492 427.004 184.732 429.524 184.732C432.045 184.732 434.095 182.492 434.095 179.739C434.095 176.986 432.044 174.746 429.524 174.746Z" fill="#54F4FC"/>
<path d="M409.879 163.621C412.577 163.621 414.764 161.232 414.764 158.285C414.764 155.338 412.577 152.949 409.879 152.949C407.181 152.949 404.994 155.338 404.994 158.285C404.994 161.232 407.181 163.621 409.879 163.621Z" fill="#54F4FC"/>
<path d="M409.88 164.157C406.916 164.157 404.504 161.523 404.504 158.285C404.504 155.047 406.916 152.413 409.88 152.413C412.845 152.413 415.256 155.048 415.256 158.285C415.256 161.523 412.845 164.157 409.88 164.157ZM409.88 153.486C407.457 153.486 405.486 155.639 405.486 158.285C405.486 160.931 407.458 163.084 409.88 163.084C412.303 163.084 414.274 160.931 414.274 158.285C414.274 155.639 412.303 153.486 409.88 153.486Z" fill="#54F4FC"/>
<path d="M326.944 163.305C329.483 163.305 331.54 161.058 331.54 158.285C331.54 155.512 329.483 153.264 326.944 153.264C324.406 153.264 322.348 155.512 322.348 158.285C322.348 161.058 324.406 163.305 326.944 163.305Z" fill="#54F4FC"/>
<path d="M326.945 163.842C324.139 163.842 321.857 161.349 321.857 158.285C321.857 155.221 324.14 152.728 326.945 152.728C329.75 152.728 332.032 155.221 332.032 158.285C332.032 161.349 329.75 163.842 326.945 163.842ZM326.945 153.8C324.681 153.8 322.84 155.812 322.84 158.285C322.84 160.758 324.681 162.769 326.945 162.769C329.209 162.769 331.05 160.758 331.05 158.285C331.05 155.812 329.209 153.8 326.945 153.8Z" fill="#54F4FC"/>
<path d="M314.643 136.84C314.643 140.927 311.61 144.24 307.868 144.24C304.126 144.24 301.092 140.927 301.092 136.84C301.092 132.753 304.125 129.439 307.868 129.439C311.61 129.439 314.643 132.752 314.643 136.84Z" fill="#54F4FC"/>
<path d="M307.868 144.777C303.862 144.777 300.602 141.216 300.602 136.84C300.602 132.463 303.862 128.902 307.868 128.902C311.875 128.902 315.135 132.463 315.135 136.84C315.135 141.216 311.875 144.777 307.868 144.777ZM307.868 129.975C304.403 129.975 301.584 133.055 301.584 136.84C301.584 140.624 304.403 143.704 307.868 143.704C311.334 143.704 314.153 140.624 314.153 136.84C314.153 133.055 311.334 129.975 307.868 129.975Z" fill="#54F4FC"/>
<path d="M696.666 351.556C699.41 351.556 701.635 349.127 701.635 346.129C701.635 343.132 699.41 340.702 696.666 340.702C693.922 340.702 691.697 343.132 691.697 346.129C691.697 349.127 693.922 351.556 696.666 351.556Z" fill="#54F4FC"/>
<path d="M696.665 352.093C693.655 352.093 691.205 349.417 691.205 346.129C691.205 342.841 693.655 340.166 696.665 340.166C699.676 340.166 702.125 342.841 702.125 346.129C702.125 349.418 699.676 352.093 696.665 352.093ZM696.665 341.239C694.197 341.239 692.187 343.433 692.187 346.129C692.187 348.826 694.197 351.02 696.665 351.02C699.134 351.02 701.142 348.826 701.142 346.129C701.143 343.433 699.134 341.239 696.665 341.239Z" fill="#54F4FC"/>
<path d="M530.765 346.129C530.765 349.01 528.627 351.344 525.99 351.344C523.353 351.344 521.215 349.009 521.215 346.129C521.215 343.249 523.352 340.913 525.99 340.913C528.627 340.914 530.765 343.249 530.765 346.129Z" fill="#54F4FC"/>
<path d="M525.991 351.881C523.087 351.881 520.725 349.301 520.725 346.13C520.725 342.958 523.087 340.378 525.991 340.378C528.895 340.378 531.257 342.958 531.257 346.13C531.257 349.301 528.895 351.881 525.991 351.881ZM525.991 341.45C523.628 341.45 521.707 343.549 521.707 346.129C521.707 348.709 523.628 350.808 525.991 350.808C528.353 350.808 530.275 348.709 530.275 346.129C530.275 343.549 528.353 341.45 525.991 341.45Z" fill="#54F4FC"/>
<path d="M506.35 330.389C509.239 330.389 511.581 327.831 511.581 324.675C511.581 321.52 509.239 318.962 506.35 318.962C503.461 318.962 501.119 321.52 501.119 324.675C501.119 327.831 503.461 330.389 506.35 330.389Z" fill="#54F4FC"/>
<path d="M506.349 330.925C503.194 330.925 500.627 328.121 500.627 324.675C500.627 321.229 503.194 318.426 506.349 318.426C509.504 318.426 512.071 321.229 512.071 324.675C512.071 328.121 509.504 330.925 506.349 330.925ZM506.349 319.498C503.735 319.498 501.609 321.82 501.609 324.675C501.609 327.53 503.735 329.852 506.349 329.852C508.962 329.852 511.089 327.53 511.089 324.675C511.089 321.82 508.962 319.498 506.349 319.498Z" fill="#54F4FC"/>
<path d="M703.616 511.089C703.616 515.282 700.504 518.68 696.665 518.68C692.827 518.68 689.715 515.281 689.715 511.089C689.715 506.896 692.827 503.497 696.665 503.497C700.505 503.498 703.616 506.896 703.616 511.089Z" fill="#54F4FC"/>
<path d="M696.666 519.218C692.563 519.218 689.225 515.571 689.225 511.09C689.225 506.608 692.563 502.962 696.666 502.962C700.77 502.962 704.107 506.608 704.107 511.09C704.108 515.571 700.77 519.218 696.666 519.218ZM696.666 504.034C693.104 504.034 690.207 507.199 690.207 511.09C690.207 514.98 693.104 518.145 696.666 518.145C700.228 518.145 703.125 514.98 703.125 511.09C703.125 507.199 700.228 504.034 696.666 504.034Z" fill="#54F4FC"/>
<path d="M612.088 511.089C612.088 514.115 609.843 516.568 607.072 516.568C604.302 516.568 602.057 514.115 602.057 511.089C602.057 508.063 604.302 505.611 607.072 505.611C609.843 505.611 612.088 508.064 612.088 511.089Z" fill="#54F4FC"/>
<path d="M607.072 517.104C604.035 517.104 601.564 514.405 601.564 511.089C601.564 507.772 604.035 505.074 607.072 505.074C610.109 505.074 612.579 507.772 612.579 511.089C612.579 514.406 610.109 517.104 607.072 517.104ZM607.072 506.147C604.576 506.147 602.547 508.363 602.547 511.089C602.547 513.814 604.576 516.031 607.072 516.031C609.567 516.031 611.597 513.815 611.597 511.089C611.597 508.363 609.567 506.147 607.072 506.147Z" fill="#54F4FC"/>
<path d="M587.428 539.426C590.909 539.426 593.73 536.345 593.73 532.544C593.73 528.743 590.909 525.661 587.428 525.661C583.948 525.661 581.127 528.743 581.127 532.544C581.127 536.345 583.948 539.426 587.428 539.426Z" fill="#54F4FC"/>
<path d="M587.429 539.962C583.684 539.962 580.637 536.634 580.637 532.543C580.637 528.452 583.684 525.124 587.429 525.124C591.175 525.124 594.222 528.452 594.222 532.543C594.222 536.634 591.175 539.962 587.429 539.962ZM587.429 526.198C584.225 526.198 581.619 529.045 581.619 532.544C581.619 536.042 584.225 538.89 587.429 538.89C590.632 538.89 593.24 536.042 593.24 532.544C593.24 529.045 590.633 526.198 587.429 526.198Z" fill="#54F4FC"/>
<path d="M735.418 432.9C735.418 435.212 733.702 437.086 731.586 437.086C729.47 437.086 727.754 435.212 727.754 432.9C727.754 430.588 729.47 428.714 731.586 428.714C733.702 428.715 735.418 430.588 735.418 432.9Z" fill="#54F4FC"/>
<path d="M731.587 437.622C729.203 437.622 727.264 435.504 727.264 432.9C727.264 430.297 729.203 428.179 731.587 428.179C733.971 428.179 735.91 430.297 735.91 432.9C735.91 435.504 733.971 437.622 731.587 437.622ZM731.587 429.251C729.744 429.251 728.246 430.888 728.246 432.9C728.246 434.912 729.744 436.549 731.587 436.549C733.429 436.549 734.928 434.912 734.928 432.9C734.928 430.888 733.429 429.251 731.587 429.251Z" fill="#54F4FC"/>
<path d="M653.453 437.821C655.941 437.821 657.958 435.617 657.958 432.9C657.958 430.182 655.941 427.979 653.453 427.979C650.965 427.979 648.947 430.182 648.947 432.9C648.947 435.617 650.965 437.821 653.453 437.821Z" fill="#54F4FC"/>
<path d="M653.452 438.357C650.697 438.357 648.455 435.908 648.455 432.9C648.455 429.89 650.697 427.443 653.452 427.443C656.207 427.443 658.448 429.89 658.448 432.9C658.448 435.909 656.207 438.357 653.452 438.357ZM653.452 428.516C651.238 428.516 649.437 430.482 649.437 432.9C649.437 435.318 651.238 437.284 653.452 437.284C655.666 437.284 657.466 435.318 657.466 432.9C657.466 430.482 655.666 428.516 653.452 428.516Z" fill="#54F4FC"/>
<path d="M639.64 454.355C639.64 457.872 637.03 460.724 633.81 460.724C630.589 460.724 627.979 457.872 627.979 454.355C627.979 450.837 630.589 447.986 633.809 447.986C637.03 447.986 639.64 450.837 639.64 454.355Z" fill="#54F4FC"/>
<path d="M633.809 461.259C630.322 461.259 627.486 458.162 627.486 454.354C627.486 450.547 630.322 447.45 633.809 447.45C637.294 447.45 640.13 450.547 640.13 454.354C640.131 458.162 637.294 461.259 633.809 461.259ZM633.809 448.522C630.864 448.522 628.468 451.138 628.468 454.354C628.468 457.57 630.864 460.187 633.809 460.187C636.753 460.187 639.148 457.57 639.148 454.354C639.149 451.138 636.754 448.522 633.809 448.522Z" fill="#54F4FC"/>
<path d="M640.11 575.452C640.11 579.254 637.288 582.335 633.809 582.335C630.328 582.335 627.508 579.254 627.508 575.452C627.508 571.651 630.329 568.57 633.809 568.57C637.288 568.57 640.11 571.651 640.11 575.452Z" fill="#54F4FC"/>
<path d="M633.808 582.871C630.063 582.871 627.016 579.542 627.016 575.452C627.016 571.361 630.063 568.033 633.808 568.033C637.553 568.033 640.6 571.361 640.6 575.452C640.6 579.543 637.553 582.871 633.808 582.871ZM633.808 569.106C630.605 569.106 627.998 571.953 627.998 575.452C627.998 578.951 630.605 581.798 633.808 581.798C637.012 581.798 639.617 578.951 639.617 575.452C639.618 571.953 637.012 569.106 633.808 569.106Z" fill="#54F4FC"/>
<path d="M614.164 603.048C617.27 603.048 619.788 600.298 619.788 596.906C619.788 593.514 617.27 590.764 614.164 590.764C611.059 590.764 608.541 593.514 608.541 596.906C608.541 600.298 611.059 603.048 614.164 603.048Z" fill="#54F4FC"/>
<path d="M614.165 603.585C610.794 603.585 608.051 600.589 608.051 596.907C608.051 593.225 610.794 590.229 614.165 590.229C617.536 590.229 620.279 593.225 620.279 596.907C620.28 600.588 617.537 603.585 614.165 603.585ZM614.165 591.301C611.335 591.301 609.033 593.815 609.033 596.906C609.033 599.998 611.335 602.512 614.165 602.512C616.996 602.512 619.297 599.998 619.297 596.906C619.298 593.815 616.996 591.301 614.165 591.301Z" fill="#54F4FC"/>
<path d="M560.911 600.95C562.956 600.95 564.613 599.14 564.613 596.906C564.613 594.673 562.956 592.863 560.911 592.863C558.867 592.863 557.209 594.673 557.209 596.906C557.209 599.14 558.867 600.95 560.911 600.95Z" fill="#54F4FC"/>
<path d="M560.912 601.486C558.6 601.486 556.719 599.432 556.719 596.907C556.719 594.381 558.6 592.327 560.912 592.327C563.224 592.327 565.105 594.381 565.105 596.907C565.105 599.432 563.224 601.486 560.912 601.486ZM560.912 593.399C559.141 593.399 557.701 594.972 557.701 596.907C557.701 598.84 559.141 600.414 560.912 600.414C562.682 600.414 564.123 598.841 564.123 596.907C564.123 594.973 562.683 593.399 560.912 593.399Z" fill="#54F4FC"/>
<path d="M546.055 618.36C546.055 621.248 543.912 623.588 541.268 623.588C538.624 623.588 536.481 621.248 536.481 618.36C536.481 615.473 538.624 613.132 541.268 613.132C543.912 613.132 546.055 615.473 546.055 618.36Z" fill="#54F4FC"/>
<path d="M541.268 624.126C538.358 624.126 535.99 621.539 535.99 618.361C535.99 615.183 538.358 612.596 541.268 612.596C544.179 612.596 546.546 615.183 546.546 618.361C546.546 621.539 544.179 624.126 541.268 624.126ZM541.268 613.668C538.9 613.668 536.972 615.773 536.972 618.36C536.972 620.948 538.9 623.052 541.268 623.052C543.637 623.052 545.564 620.948 545.564 618.36C545.564 615.773 543.637 613.668 541.268 613.668Z" fill="#54F4FC"/>
<path d="M546.385 687.968C546.385 691.054 544.094 693.555 541.269 693.555C538.443 693.555 536.153 691.054 536.153 687.968C536.153 684.882 538.443 682.381 541.269 682.381C544.094 682.381 546.385 684.882 546.385 687.968Z" fill="#54F4FC"/>
<path d="M541.269 694.092C538.178 694.092 535.662 691.345 535.662 687.968C535.662 684.591 538.178 681.844 541.269 681.844C544.361 681.844 546.876 684.591 546.876 687.968C546.876 691.345 544.361 694.092 541.269 694.092ZM541.269 682.917C538.719 682.917 536.644 685.183 536.644 687.968C536.644 690.753 538.719 693.019 541.269 693.019C543.819 693.019 545.894 690.753 545.894 687.968C545.894 685.183 543.82 682.917 541.269 682.917Z" fill="#54F4FC"/>
<path d="M560.911 713.961C563.206 713.961 565.067 711.929 565.067 709.423C565.067 706.916 563.206 704.884 560.911 704.884C558.616 704.884 556.756 706.916 556.756 709.423C556.756 711.929 558.616 713.961 560.911 713.961Z" fill="#54F4FC"/>
<path d="M560.912 714.498C558.35 714.498 556.266 712.222 556.266 709.423C556.266 706.625 558.35 704.348 560.912 704.348C563.475 704.348 565.559 706.624 565.559 709.423C565.559 712.222 563.475 714.498 560.912 714.498ZM560.912 705.421C558.892 705.421 557.248 707.216 557.248 709.423C557.248 711.63 558.892 713.425 560.912 713.425C562.932 713.425 564.576 711.63 564.576 709.423C564.576 707.216 562.932 705.421 560.912 705.421Z" fill="#54F4FC"/>
<path d="M607.182 714.107C609.55 714.107 611.471 712.01 611.471 709.423C611.471 706.836 609.55 704.738 607.182 704.738C604.813 704.738 602.893 706.836 602.893 709.423C602.893 712.01 604.813 714.107 607.182 714.107Z" fill="#54F4FC"/>
<path d="M607.182 714.643C604.547 714.643 602.402 712.301 602.402 709.422C602.402 706.543 604.547 704.201 607.182 704.201C609.818 704.201 611.962 706.543 611.962 709.422C611.962 712.301 609.818 714.643 607.182 714.643ZM607.182 705.274C605.087 705.274 603.384 707.135 603.384 709.422C603.384 711.71 605.088 713.57 607.182 713.57C609.277 713.57 610.98 711.71 610.98 709.422C610.98 707.135 609.277 705.274 607.182 705.274Z" fill="#54F4FC"/>
<path d="M633.1 730.876C633.1 734.662 630.29 737.731 626.823 737.731C623.357 737.731 620.547 734.662 620.547 730.876C620.547 727.091 623.357 724.021 626.823 724.021C630.29 724.021 633.1 727.091 633.1 730.876Z" fill="#54F4FC"/>
<path d="M626.824 738.268C623.092 738.268 620.057 734.953 620.057 730.876C620.057 726.8 623.093 723.485 626.824 723.485C630.555 723.485 633.591 726.8 633.591 730.876C633.591 734.952 630.555 738.268 626.824 738.268ZM626.824 724.558C623.634 724.558 621.039 727.392 621.039 730.876C621.039 734.361 623.634 737.195 626.824 737.195C630.014 737.195 632.609 734.36 632.609 730.876C632.609 727.393 630.014 724.558 626.824 724.558Z" fill="#54F4FC"/>
</g>
</svg>
