<svg width="736" height="655" viewBox="0 0 736 655" fill="none" xmlns="http://www.w3.org/2000/svg">
<g clip-path="url(#clip0_203_20497)">
<g opacity="0.08">
<path d="M214.288 377.201L367.066 377.201C377.355 377.201 385.726 383.763 385.726 391.83L385.726 433.581C385.726 442.497 394.979 449.75 406.351 449.75L494.526 449.75C504.815 449.75 513.187 456.313 513.187 464.38L513.187 560.885C513.187 569.801 522.439 577.055 533.812 577.055L735.914 577.055L735.914 575.515L533.812 575.515C523.522 575.515 515.151 568.952 515.151 560.885L515.151 464.38C515.151 455.464 505.899 448.21 494.526 448.21L406.351 448.21C396.062 448.21 387.691 441.647 387.691 433.58L387.691 391.83C387.691 382.914 378.438 375.66 367.066 375.66L214.288 375.66C203.999 375.66 195.628 369.097 195.628 361.03L195.628 343.321C195.628 335.254 203.999 328.691 214.288 328.691L735.914 328.692L735.914 327.152L214.288 327.152C202.916 327.152 193.663 334.405 193.663 343.321L193.663 361.031C193.663 369.947 202.916 377.201 214.288 377.201Z" fill="#176DB3"/>
<path d="M498.89 530.516L630.716 530.516C641.005 530.516 649.377 537.079 649.377 545.146L649.377 654.312L651.341 654.312L651.341 545.146C651.341 536.23 642.089 528.976 630.716 528.976L498.891 528.976C488.602 528.976 480.23 522.413 480.23 514.347L480.23 149.545C480.23 141.478 488.602 134.915 498.891 134.915L735.914 134.915L735.914 133.375L498.89 133.375C487.518 133.375 478.265 140.629 478.265 149.545L478.266 514.347C478.266 523.263 487.518 530.516 498.89 530.516Z" fill="#176DB3"/>
<path d="M268.96 654.312L268.96 248.102C268.96 240.035 277.332 233.473 287.621 233.473L395.002 233.473C406.375 233.473 415.627 226.219 415.627 217.303L415.627 64.6754C415.627 56.6084 423.998 50.0457 434.288 50.0457L635.081 50.0458C645.37 50.0458 653.742 56.6085 653.742 64.6754L653.742 235.099C653.742 244.014 662.994 251.268 674.367 251.268L735.914 251.268L735.914 249.728L674.367 249.728C664.077 249.728 655.706 243.165 655.706 235.099L655.706 64.6755C655.706 55.7598 646.454 48.5058 635.081 48.5058L434.288 48.5057C422.915 48.5057 413.663 55.7597 413.663 64.6754L413.663 217.303C413.663 225.37 405.291 231.933 395.002 231.933L287.621 231.933C276.248 231.933 266.996 239.187 266.996 248.102L266.996 654.312L268.96 654.312Z" fill="#176DB3"/>
<path d="M602.452 421.26L602.452 282.32C602.452 273.405 593.2 266.151 581.827 266.151L353.97 266.15C343.681 266.15 335.31 259.588 335.31 251.521L335.31 179.656C335.31 170.74 326.057 163.486 314.685 163.486L257.938 163.486C247.649 163.486 239.278 156.923 239.278 148.856L239.278 -0.00730938L237.314 -0.00731082L237.313 148.856C237.313 157.772 246.566 165.026 257.938 165.026L314.685 165.026C324.974 165.026 333.345 171.589 333.345 179.656L333.345 251.521C333.345 260.437 342.597 267.691 353.97 267.691L581.827 267.691C592.116 267.691 600.488 274.254 600.488 282.321L600.488 421.26C600.488 430.176 609.74 437.43 621.113 437.43L735.914 437.43L735.914 435.89L621.113 435.89C610.823 435.89 602.452 429.327 602.452 421.26Z" fill="#176DB3"/>
<path d="M618.166 654.312L618.166 509.555C618.166 501.488 626.537 494.925 636.827 494.925L735.914 494.925L735.914 493.385L636.827 493.385C625.454 493.385 616.202 500.639 616.202 509.555L616.202 654.312L618.166 654.312Z" fill="#176DB3"/>
<path d="M342.295 654.312L342.295 610.851C342.295 602.784 350.667 596.221 360.956 596.221L489.289 596.221C499.578 596.221 507.95 602.784 507.95 610.851L507.95 654.312L509.914 654.312L509.914 610.851C509.914 601.935 500.662 594.681 489.289 594.681L360.956 594.681C349.583 594.681 340.331 601.935 340.331 610.851L340.331 654.312L342.295 654.312Z" fill="#176DB3"/>
<path d="M195.627 654.312L195.627 491.76C195.627 483.693 203.999 477.13 214.288 477.13L321.669 477.13C331.958 477.13 340.33 483.693 340.33 491.76L340.33 496.551C340.33 505.467 349.582 512.721 360.955 512.721L400.24 512.721C411.613 512.721 420.865 505.467 420.865 496.551L420.865 426.055C420.865 417.139 411.613 409.885 400.24 409.885L334.764 409.885C324.475 409.885 316.103 403.322 316.103 395.255L316.103 308.333C316.103 299.417 306.851 292.163 295.478 292.163L231.749 292.163C221.459 292.163 213.088 285.6 213.088 277.533L213.088 215.935C213.088 207.868 221.459 201.305 231.749 201.305L735.914 201.305L735.914 199.765L231.748 199.765C220.375 199.765 211.123 207.019 211.123 215.935L211.123 277.533C211.123 286.449 220.375 293.703 231.748 293.703L295.478 293.703C305.768 293.703 314.139 300.266 314.139 308.333L314.139 395.255C314.139 404.171 323.391 411.425 334.764 411.425L400.24 411.425C410.53 411.425 418.901 417.988 418.901 426.055L418.901 496.551C418.901 504.618 410.53 511.181 400.24 511.181L360.955 511.181C350.665 511.181 342.294 504.618 342.294 496.551L342.294 491.76C342.294 482.844 333.042 475.59 321.669 475.59L214.288 475.59C202.915 475.59 193.663 482.844 193.663 491.76L193.663 654.312L195.627 654.312Z" fill="#176DB3"/>
<path d="M560.874 482.609L735.914 482.609L735.914 481.069L560.874 481.069C550.585 481.069 542.214 474.507 542.214 466.44L542.214 394.575C542.214 386.508 550.585 379.945 560.874 379.945L735.914 379.945L735.914 378.405L560.874 378.405C549.502 378.405 540.249 385.659 540.249 394.575L540.249 466.44C540.249 475.356 549.502 482.609 560.874 482.609Z" fill="#176DB3"/>
<path d="M611.182 69.4685L611.182 37.3005C611.182 28.3848 601.93 21.1308 590.557 21.1308L380.16 21.1306C368.788 21.1306 359.536 28.3847 359.536 37.3003L359.536 96.8453C359.536 104.912 351.164 111.475 340.875 111.475L202.066 111.475C191.777 111.475 183.405 104.912 183.405 96.8452L183.405 -0.00119338L181.441 -0.00119483L181.441 96.8456C181.441 105.761 190.693 113.015 202.066 113.015L340.875 113.015C352.248 113.015 361.5 105.761 361.5 96.8457L361.5 37.3007C361.5 29.2338 369.871 22.671 380.16 22.671L590.557 22.6711C600.847 22.6712 609.218 29.2339 609.218 37.3009L609.218 69.4689C609.218 78.3845 618.47 85.6386 629.843 85.6386L735.914 85.6387L735.914 84.0987L629.843 84.0987C619.553 84.0983 611.182 77.5355 611.182 69.4685Z" fill="#176DB3"/>
<path d="M735.914 409.882L682.66 409.882C672.371 409.882 663.999 403.319 663.999 395.252L663.999 302.854C663.999 294.787 672.371 288.224 682.66 288.224L735.914 288.224L735.914 286.684L682.66 286.684C671.287 286.684 662.035 293.938 662.035 302.854L662.035 395.252C662.035 404.168 671.287 411.422 682.66 411.422L735.914 411.422L735.914 409.882Z" fill="#176DB3"/>
<path d="M522.135 214.565L522.135 -0.0040867L520.171 -0.00408832L520.171 214.565C520.171 223.48 529.423 230.734 540.796 230.734L735.914 230.734L735.914 229.194L540.796 229.194C530.506 229.194 522.135 222.631 522.135 214.565Z" fill="#176DB3"/>
<path d="M312.391 0.000492125L312.391 44.8303C312.391 52.8969 304.02 59.4601 293.731 59.46L60.1995 59.4599L60.1995 60.9998L293.731 61C305.103 61 314.355 53.746 314.355 44.8303L314.355 0.000493567L312.391 0.000492125Z" fill="#176DB3"/>
<path d="M312.391 582.105L312.391 654.312L314.355 654.312L314.355 582.105C314.355 573.189 305.103 565.936 293.731 565.936L93.3738 565.936L93.3738 567.476L293.731 567.476C304.02 567.476 312.391 574.038 312.391 582.105Z" fill="#176DB3"/>
<path d="M305.407 467.506L305.407 525.298C305.407 534.214 314.659 541.467 326.032 541.467L408.968 541.467C413.926 541.467 418.543 542.99 421.971 545.755C425.397 548.521 427.206 552.183 427.063 556.068C427.051 556.385 425.889 588.185 425.382 620.078C425.155 634.292 425.104 645.487 425.171 654.312L427.126 654.312C426.927 626.655 427.903 586.65 429.026 556.112C429.185 551.808 427.179 547.749 423.38 544.682C419.579 541.616 414.461 539.927 408.968 539.927L326.032 539.927C315.742 539.927 307.371 533.364 307.371 525.297L307.371 467.505C307.371 458.589 298.119 451.336 286.746 451.336L137.024 451.336L137.024 452.876L286.746 452.876C297.036 452.876 305.407 459.439 305.407 467.506Z" fill="#176DB3"/>
<path d="M228.583 421.264L228.583 654.312L230.547 654.312L230.547 421.264C230.547 412.348 221.295 405.094 209.922 405.094L39.2469 405.094L39.2469 406.634L209.922 406.634C220.211 406.634 228.583 413.197 228.583 421.264Z" fill="#176DB3"/>
<path d="M147.501 -0.00408704L147.501 272.057C147.501 280.124 139.129 286.687 128.84 286.687L39.2465 286.687L39.2465 288.226L128.84 288.227C140.212 288.227 149.465 280.973 149.465 272.057L149.465 -0.0040856L147.501 -0.00408704Z" fill="#176DB3"/>
<path d="M82.4603 344.351C93.8325 344.351 103.085 337.098 103.085 328.182L103.085 241.259C103.085 233.192 111.457 226.629 121.746 226.629L175 226.629C186.373 226.629 195.625 219.375 195.625 210.46L195.625 160.497C195.625 151.581 186.373 144.327 175 144.327L128.73 144.327C118.441 144.327 110.069 137.764 110.069 129.697L110.069 -0.00296446L108.105 -0.0029659L108.105 129.697C108.105 138.612 117.358 145.866 128.73 145.866L175 145.866C185.289 145.866 193.661 152.429 193.661 160.496L193.661 210.459C193.661 218.526 185.289 225.089 175 225.089L121.746 225.089C110.374 225.089 101.121 232.343 101.121 241.259L101.121 328.182C101.121 336.249 92.7497 342.812 82.4603 342.812L4.32651 342.811L4.32651 344.351L82.4603 344.351Z" fill="#176DB3"/>
<path d="M207.966 327.925C207.966 325.187 210.797 322.967 214.29 322.967C217.782 322.967 220.613 325.187 220.613 327.925C220.613 330.663 217.782 332.883 214.29 332.883C210.797 332.883 207.966 330.663 207.966 327.925Z" fill="#54F4FC"/>
<path d="M214.287 322.58C218.044 322.58 221.102 324.977 221.102 327.923C221.102 330.869 218.044 333.266 214.287 333.266C210.53 333.266 207.472 330.869 207.472 327.923C207.472 324.977 210.529 322.58 214.287 322.58ZM214.287 332.495C217.503 332.495 220.119 330.444 220.119 327.923C220.119 325.402 217.503 323.35 214.287 323.35C211.071 323.35 208.455 325.402 208.455 327.923C208.455 330.444 211.071 332.495 214.287 332.495Z" fill="#54F4FC"/>
<path d="M190.471 343.329C190.471 341.521 192.34 340.056 194.646 340.056C196.951 340.056 198.82 341.521 198.82 343.329C198.82 345.136 196.951 346.602 194.646 346.602C192.34 346.602 190.471 345.136 190.471 343.329Z" fill="#54F4FC"/>
<path d="M194.643 339.669C197.216 339.669 199.309 341.31 199.309 343.327C199.309 345.344 197.216 346.984 194.643 346.984C192.07 346.984 189.977 345.344 189.977 343.327C189.977 341.31 192.07 339.669 194.643 339.669ZM194.643 346.215C196.674 346.215 198.326 344.919 198.326 343.327C198.326 341.734 196.674 340.439 194.643 340.439C192.612 340.439 190.959 341.734 190.959 343.327C190.959 344.919 192.612 346.215 194.643 346.215Z" fill="#54F4FC"/>
<path d="M188.426 361.036C188.426 358.342 191.212 356.158 194.649 356.158C198.085 356.158 200.871 358.342 200.871 361.036C200.871 363.73 198.085 365.914 194.649 365.914C191.212 365.914 188.426 363.73 188.426 361.036Z" fill="#54F4FC"/>
<path d="M194.646 355.77C198.348 355.77 201.359 358.131 201.359 361.034C201.359 363.936 198.348 366.297 194.646 366.297C190.944 366.297 187.933 363.936 187.933 361.034C187.933 358.132 190.944 355.77 194.646 355.77ZM194.646 365.527C197.806 365.527 200.377 363.511 200.377 361.034C200.377 358.556 197.806 356.541 194.646 356.541C191.485 356.541 188.915 358.556 188.915 361.034C188.915 363.511 191.485 365.527 194.646 365.527Z" fill="#54F4FC"/>
<path d="M208.171 376.437C208.171 373.787 210.91 371.639 214.29 371.639C217.67 371.639 220.41 373.787 220.41 376.437C220.41 379.086 217.67 381.234 214.29 381.234C210.91 381.235 208.171 379.087 208.171 376.437Z" fill="#54F4FC"/>
<path d="M214.288 371.252C217.933 371.252 220.898 373.577 220.898 376.435C220.898 379.292 217.933 381.617 214.288 381.617C210.642 381.617 207.677 379.292 207.677 376.435C207.677 373.577 210.642 371.252 214.288 371.252ZM214.288 380.847C217.391 380.847 219.916 378.868 219.916 376.435C219.916 374.001 217.391 372.022 214.288 372.022C211.184 372.022 208.659 374.001 208.659 376.435C208.659 378.868 211.184 380.847 214.288 380.847Z" fill="#54F4FC"/>
<path d="M362.397 376.432C362.397 374.41 364.488 372.77 367.068 372.77C369.647 372.77 371.738 374.409 371.738 376.432C371.738 378.455 369.647 380.094 367.068 380.094C364.488 380.094 362.397 378.454 362.397 376.432Z" fill="#54F4FC"/>
<path d="M367.065 372.383C369.911 372.383 372.227 374.199 372.227 376.43C372.227 378.661 369.911 380.477 367.065 380.477C364.219 380.477 361.903 378.661 361.903 376.43C361.903 374.199 364.219 372.383 367.065 372.383ZM367.065 379.707C369.369 379.707 371.244 378.237 371.244 376.43C371.244 374.623 369.369 373.153 367.065 373.153C364.76 373.153 362.885 374.623 362.885 376.43C362.885 378.237 364.76 379.707 367.065 379.707Z" fill="#54F4FC"/>
<path d="M386.711 386.855C383.202 386.855 380.357 389.086 380.357 391.838C380.357 394.59 383.202 396.82 386.711 396.82C390.221 396.82 393.066 394.59 393.066 391.838C393.066 389.086 390.221 386.855 386.711 386.855Z" fill="#54F4FC"/>
<path d="M386.709 386.468C390.484 386.468 393.555 388.876 393.555 391.836C393.555 394.796 390.484 397.203 386.709 397.203C382.933 397.203 379.863 394.795 379.863 391.836C379.863 388.876 382.934 386.468 386.709 386.468ZM386.709 396.433C389.942 396.433 392.573 394.371 392.573 391.835C392.573 389.3 389.942 387.238 386.709 387.238C383.475 387.238 380.845 389.301 380.845 391.835C380.845 394.371 383.475 396.433 386.709 396.433Z" fill="#54F4FC"/>
<path d="M386.711 429.249C383.656 429.249 381.179 431.19 381.179 433.585C381.179 435.98 383.656 437.922 386.711 437.922C389.766 437.922 392.242 435.98 392.242 433.585C392.242 431.19 389.766 429.249 386.711 429.249Z" fill="#54F4FC"/>
<path d="M386.708 428.862C390.029 428.862 392.73 430.98 392.73 433.583C392.73 436.187 390.029 438.305 386.708 438.305C383.387 438.305 380.685 436.187 380.685 433.583C380.685 430.979 383.387 428.862 386.708 428.862ZM386.708 437.535C389.487 437.535 391.748 435.762 391.748 433.583C391.748 431.405 389.487 429.632 386.708 429.632C383.929 429.632 381.668 431.405 381.668 433.583C381.668 435.762 383.929 437.535 386.708 437.535Z" fill="#54F4FC"/>
<path d="M402.004 448.989C402.004 447.105 403.951 445.579 406.354 445.579C408.756 445.579 410.703 447.105 410.703 448.989C410.703 450.872 408.756 452.398 406.354 452.398C403.951 452.399 402.004 450.872 402.004 448.989Z" fill="#54F4FC"/>
<path d="M406.351 445.191C409.02 445.191 411.191 446.894 411.191 448.986C411.191 451.079 409.02 452.781 406.351 452.781C403.682 452.781 401.511 451.079 401.511 448.986C401.511 446.894 403.682 445.191 406.351 445.191ZM406.351 452.011C408.479 452.011 410.209 450.655 410.209 448.986C410.209 447.318 408.479 445.961 406.351 445.961C404.224 445.961 402.493 447.318 402.493 448.986C402.493 450.654 404.224 452.011 406.351 452.011Z" fill="#54F4FC"/>
<path d="M488.979 448.988C488.979 446.587 491.461 444.64 494.524 444.64C497.587 444.64 500.07 446.587 500.07 448.988C500.07 451.39 497.587 453.336 494.524 453.336C491.461 453.336 488.978 451.39 488.979 448.988Z" fill="#54F4FC"/>
<path d="M494.526 444.253C497.854 444.253 500.563 446.376 500.563 448.986C500.563 451.596 497.854 453.719 494.526 453.719C491.197 453.719 488.489 451.596 488.489 448.986C488.489 446.376 491.197 444.253 494.526 444.253ZM494.526 452.949C497.313 452.949 499.58 451.171 499.58 448.986C499.58 446.801 497.313 445.023 494.526 445.023C491.738 445.023 489.471 446.8 489.471 448.986C489.471 451.171 491.738 452.949 494.526 452.949Z" fill="#54F4FC"/>
<path d="M510.387 464.382C510.387 462.747 512.078 461.421 514.164 461.421C516.25 461.421 517.941 462.747 517.941 464.382C517.941 466.018 516.25 467.344 514.164 467.344C512.078 467.344 510.387 466.018 510.387 464.382Z" fill="#54F4FC"/>
<path d="M514.166 461.034C516.519 461.034 518.434 462.535 518.434 464.38C518.434 466.225 516.519 467.727 514.166 467.727C511.812 467.727 509.897 466.225 509.897 464.38C509.897 462.535 511.812 461.034 514.166 461.034ZM514.166 466.956C515.977 466.956 517.451 465.801 517.451 464.38C517.451 462.96 515.977 461.804 514.166 461.804C512.354 461.804 510.879 462.96 510.879 464.38C510.879 465.801 512.353 466.956 514.166 466.956Z" fill="#54F4FC"/>
<path d="M508.286 560.888C508.286 558.341 510.919 556.276 514.168 556.276C517.417 556.276 520.051 558.341 520.051 560.888C520.051 563.435 517.417 565.5 514.168 565.5C510.92 565.5 508.286 563.435 508.286 560.888Z" fill="#54F4FC"/>
<path d="M514.169 555.889C517.683 555.889 520.543 558.131 520.543 560.886C520.543 563.641 517.684 565.883 514.169 565.883C510.655 565.883 507.796 563.641 507.796 560.886C507.795 558.131 510.655 555.889 514.169 555.889ZM514.169 565.113C517.142 565.113 519.561 563.217 519.561 560.886C519.561 558.556 517.142 556.659 514.169 556.659C511.196 556.659 508.778 558.556 508.778 560.886C508.777 563.217 511.196 565.113 514.169 565.113Z" fill="#54F4FC"/>
<path d="M528.021 576.29C528.021 573.784 530.613 571.752 533.809 571.752C537.006 571.752 539.598 573.784 539.598 576.29C539.598 578.796 537.006 580.828 533.809 580.828C530.613 580.828 528.021 578.797 528.021 576.29Z" fill="#54F4FC"/>
<path d="M533.811 571.365C537.274 571.365 540.09 573.574 540.09 576.288C540.09 579.003 537.274 581.211 533.811 581.211C530.348 581.211 527.532 579.003 527.532 576.288C527.532 573.574 530.348 571.365 533.811 571.365ZM533.811 580.441C536.731 580.441 539.108 578.578 539.108 576.288C539.108 573.998 536.731 572.135 533.811 572.135C530.89 572.135 528.514 573.998 528.514 576.288C528.514 578.578 530.89 580.441 533.811 580.441Z" fill="#54F4FC"/>
<path d="M492.5 134.147C492.5 131.381 495.36 129.139 498.889 129.139C502.417 129.139 505.277 131.381 505.277 134.147C505.277 136.914 502.417 139.156 498.889 139.156C495.36 139.156 492.5 136.914 492.5 134.147Z" fill="#54F4FC"/>
<path d="M498.89 128.752C502.683 128.752 505.77 131.172 505.77 134.146C505.77 137.119 502.683 139.539 498.89 139.539C495.096 139.539 492.01 137.119 492.01 134.146C492.01 131.172 495.097 128.752 498.89 128.752ZM498.89 138.77C502.142 138.77 504.787 136.696 504.787 134.146C504.787 131.596 502.142 129.522 498.89 129.522C495.638 129.522 492.992 131.596 492.992 134.146C492.992 136.696 495.638 138.77 498.89 138.77Z" fill="#54F4FC"/>
<path d="M474.165 149.546C474.165 147.345 476.442 145.561 479.249 145.561C482.056 145.561 484.332 147.345 484.332 149.546C484.332 151.747 482.056 153.531 479.249 153.531C476.441 153.531 474.165 151.747 474.165 149.546Z" fill="#54F4FC"/>
<path d="M479.25 145.174C482.324 145.174 484.824 147.134 484.824 149.544C484.824 151.954 482.324 153.914 479.25 153.914C476.175 153.914 473.675 151.954 473.675 149.544C473.675 147.134 476.176 145.174 479.25 145.174ZM479.25 153.144C481.782 153.144 483.842 151.529 483.842 149.544C483.842 147.558 481.782 145.943 479.25 145.943C476.718 145.943 474.658 147.558 474.658 149.544C474.658 151.529 476.718 153.144 479.25 153.144Z" fill="#54F4FC"/>
<path d="M474.084 514.351C474.084 512.115 476.395 510.303 479.247 510.303C482.099 510.303 484.41 512.115 484.41 514.351C484.41 516.586 482.099 518.398 479.247 518.398C476.395 518.398 474.084 516.586 474.084 514.351Z" fill="#54F4FC"/>
<path d="M479.248 509.916C482.366 509.916 484.902 511.904 484.902 514.349C484.902 516.793 482.366 518.781 479.248 518.781C476.13 518.781 473.594 516.793 473.594 514.349C473.594 511.904 476.131 509.916 479.248 509.916ZM479.248 518.011C481.824 518.011 483.92 516.368 483.92 514.349C483.92 512.329 481.824 510.686 479.248 510.686C476.672 510.686 474.576 512.329 474.576 514.349C474.577 516.368 476.672 518.011 479.248 518.011Z" fill="#54F4FC"/>
<path d="M498.887 526.103C496.32 526.103 494.239 527.734 494.239 529.747C494.239 531.759 496.32 533.391 498.887 533.391C501.454 533.391 503.535 531.759 503.535 529.747C503.535 527.734 501.454 526.103 498.887 526.103Z" fill="#54F4FC"/>
<path d="M498.888 525.715C501.722 525.715 504.027 527.523 504.027 529.744C504.027 531.966 501.722 533.773 498.888 533.773C496.055 533.773 493.749 531.966 493.749 529.744C493.749 527.523 496.055 525.715 498.888 525.715ZM498.888 533.003C501.181 533.003 503.045 531.541 503.045 529.744C503.045 527.947 501.181 526.485 498.888 526.485C496.596 526.485 494.731 527.947 494.731 529.744C494.731 531.541 496.596 533.003 498.888 533.003Z" fill="#54F4FC"/>
<path d="M630.718 526.727C628.588 526.727 626.861 528.08 626.861 529.75C626.861 531.42 628.588 532.773 630.718 532.773C632.848 532.773 634.574 531.42 634.574 529.75C634.574 528.08 632.848 526.727 630.718 526.727Z" fill="#54F4FC"/>
<path d="M630.718 526.339C633.116 526.339 635.066 527.869 635.066 529.748C635.066 531.627 633.116 533.156 630.718 533.156C628.321 533.156 626.371 531.627 626.371 529.748C626.371 527.869 628.321 526.339 630.718 526.339ZM630.718 532.386C632.574 532.386 634.084 531.203 634.084 529.748C634.084 528.294 632.575 527.11 630.718 527.11C628.863 527.11 627.353 528.294 627.353 529.748C627.353 531.203 628.863 532.386 630.718 532.386Z" fill="#54F4FC"/>
<path d="M650.359 540.294C646.938 540.294 644.164 542.468 644.164 545.151C644.164 547.833 646.938 550.008 650.359 550.008C653.781 550.008 656.555 547.833 656.555 545.151C656.555 542.468 653.781 540.294 650.359 540.294Z" fill="#54F4FC"/>
<path d="M650.361 539.907C654.048 539.907 657.047 542.258 657.047 545.149C657.047 548.039 654.048 550.391 650.361 550.391C646.674 550.391 643.675 548.039 643.675 545.149C643.675 542.258 646.674 539.907 650.361 539.907ZM650.361 549.62C653.506 549.62 656.065 547.614 656.065 545.149C656.065 542.683 653.506 540.677 650.361 540.677C647.216 540.677 644.657 542.683 644.657 545.149C644.657 547.614 647.216 549.62 650.361 549.62Z" fill="#54F4FC"/>
<path d="M262.806 248.103C262.806 245.865 265.12 244.05 267.975 244.05C270.83 244.05 273.145 245.865 273.145 248.103C273.145 250.342 270.83 252.156 267.975 252.156C265.12 252.156 262.806 250.342 262.806 248.103Z" fill="#54F4FC"/>
<path d="M267.976 243.663C271.097 243.663 273.637 245.655 273.637 248.101C273.637 250.548 271.097 252.539 267.976 252.539C264.855 252.539 262.316 250.548 262.316 248.101C262.315 245.655 264.854 243.663 267.976 243.663ZM267.976 251.769C270.556 251.769 272.655 250.124 272.655 248.101C272.655 246.079 270.556 244.433 267.976 244.433C265.397 244.433 263.298 246.079 263.298 248.101C263.297 250.124 265.397 251.769 267.976 251.769Z" fill="#54F4FC"/>
<path d="M282.532 232.707C282.532 230.504 284.81 228.718 287.62 228.718C290.429 228.718 292.707 230.504 292.707 232.707C292.707 234.909 290.429 236.695 287.62 236.695C284.809 236.696 282.532 234.91 282.532 232.707Z" fill="#54F4FC"/>
<path d="M287.621 228.331C290.697 228.331 293.199 230.293 293.199 232.704C293.199 235.116 290.696 237.078 287.621 237.078C284.545 237.078 282.042 235.116 282.042 232.704C282.042 230.293 284.545 228.331 287.621 228.331ZM287.621 236.309C290.155 236.309 292.217 234.692 292.217 232.705C292.217 230.718 290.155 229.101 287.621 229.101C285.086 229.101 283.024 230.718 283.024 232.705C283.024 234.692 285.086 236.309 287.621 236.309Z" fill="#54F4FC"/>
<path d="M388.099 232.708C388.099 229.72 391.189 227.299 394.999 227.299C398.81 227.299 401.898 229.72 401.898 232.708C401.898 235.695 398.81 238.117 394.999 238.117C391.188 238.117 388.099 235.695 388.099 232.708Z" fill="#54F4FC"/>
<path d="M395 226.912C399.075 226.912 402.391 229.51 402.391 232.705C402.391 235.9 399.075 238.5 395 238.5C390.925 238.5 387.609 235.9 387.609 232.705C387.609 229.51 390.925 226.912 395 226.912ZM395 237.73C398.533 237.73 401.408 235.476 401.408 232.705C401.408 229.935 398.534 227.682 395 227.682C391.467 227.682 388.592 229.935 388.592 232.705C388.592 235.476 391.467 237.73 395 237.73Z" fill="#54F4FC"/>
<path d="M409.183 217.304C409.183 214.94 411.628 213.023 414.644 213.023C417.66 213.023 420.105 214.94 420.105 217.304C420.105 219.669 417.66 221.586 414.644 221.586C411.628 221.586 409.183 219.669 409.183 217.304Z" fill="#54F4FC"/>
<path d="M414.645 212.636C417.928 212.636 420.598 214.729 420.598 217.302C420.598 219.875 417.927 221.969 414.645 221.969C411.363 221.969 408.693 219.875 408.693 217.302C408.693 214.729 411.363 212.636 414.645 212.636ZM414.645 221.199C417.386 221.199 419.616 219.451 419.616 217.302C419.616 215.154 417.386 213.406 414.645 213.406C411.905 213.406 409.675 215.154 409.675 217.302C409.675 219.451 411.905 221.199 414.645 221.199Z" fill="#54F4FC"/>
<path d="M409.654 64.6746C409.654 62.5146 411.888 60.7634 414.644 60.7634C417.399 60.7634 419.633 62.5146 419.633 64.6746C419.633 66.835 417.399 68.5859 414.644 68.5859C411.888 68.5859 409.654 66.8346 409.654 64.6746Z" fill="#54F4FC"/>
<path d="M414.645 60.3756C417.667 60.3756 420.125 62.3028 420.125 64.6722C420.125 67.0416 417.667 68.9687 414.645 68.9687C411.624 68.9687 409.165 67.0416 409.165 64.6722C409.165 62.3028 411.624 60.3756 414.645 60.3756ZM414.645 68.199C417.126 68.199 419.143 66.6171 419.143 64.6726C419.143 62.7281 417.126 61.1458 414.645 61.1458C412.165 61.1458 410.147 62.7277 410.147 64.6726C410.147 66.6167 412.165 68.199 414.645 68.199Z" fill="#54F4FC"/>
<path d="M430.357 49.2806C430.357 47.5802 432.115 46.2019 434.284 46.2019C436.453 46.2019 438.211 47.5802 438.211 49.2806C438.211 50.9811 436.453 52.3594 434.284 52.3594C432.115 52.3598 430.357 50.9811 430.357 49.2806Z" fill="#54F4FC"/>
<path d="M434.285 45.8149C436.721 45.8149 438.703 47.3691 438.703 49.2789C438.703 51.1887 436.721 52.7422 434.285 52.7422C431.849 52.7422 429.867 51.1887 429.867 49.2789C429.867 47.3691 431.849 45.8149 434.285 45.8149ZM434.285 51.9728C436.18 51.9728 437.721 50.7642 437.721 49.2793C437.721 47.7937 436.18 46.5851 434.285 46.5851C432.39 46.5851 430.849 47.7933 430.849 49.2793C430.849 50.7642 432.39 51.9728 434.285 51.9728Z" fill="#54F4FC"/>
<path d="M629.185 49.2763C629.185 46.7233 631.824 44.6541 635.081 44.6541C638.337 44.6541 640.977 46.7237 640.977 49.2763C640.977 51.8292 638.337 53.8984 635.081 53.8984C631.824 53.8988 629.185 51.8292 629.185 49.2763Z" fill="#54F4FC"/>
<path d="M635.081 44.2672C638.603 44.2672 641.469 46.513 641.469 49.2742C641.469 52.0354 638.603 54.2812 635.081 54.2812C631.559 54.2812 628.695 52.035 628.695 49.2742C628.695 46.5134 631.559 44.2672 635.081 44.2672ZM635.081 53.5115C638.062 53.5115 640.487 51.6105 640.487 49.2742C640.487 46.9379 638.062 45.0369 635.081 45.0369C632.102 45.0369 629.677 46.9379 629.677 49.2742C629.677 51.6105 632.101 53.5115 635.081 53.5115Z" fill="#54F4FC"/>
<path d="M649.698 64.6782C649.698 62.5028 651.947 60.7396 654.722 60.7396C657.497 60.7396 659.746 62.5032 659.746 64.6782C659.746 66.8536 657.497 68.6172 654.722 68.6172C651.947 68.6168 649.698 66.8536 649.698 64.6782Z" fill="#54F4FC"/>
<path d="M654.723 60.3527C657.764 60.3527 660.238 62.2921 660.238 64.6765C660.238 67.061 657.764 69 654.723 69C651.682 69 649.208 67.0606 649.208 64.6765C649.208 62.2918 651.682 60.3527 654.723 60.3527ZM654.723 68.2298C657.223 68.2298 659.256 66.6356 659.256 64.6761C659.256 62.7166 657.222 61.1225 654.723 61.1225C652.224 61.1224 650.19 62.7166 650.19 64.6761C650.19 66.6356 652.224 68.2298 654.723 68.2298Z" fill="#54F4FC"/>
<path d="M647.791 235.099C647.791 232.099 650.894 229.667 654.72 229.667C658.546 229.667 661.648 232.099 661.648 235.099C661.648 238.1 658.546 240.531 654.72 240.531C650.894 240.531 647.791 238.1 647.791 235.099Z" fill="#54F4FC"/>
<path d="M654.721 229.28C658.812 229.28 662.141 231.89 662.141 235.097C662.141 238.305 658.812 240.914 654.721 240.914C650.63 240.914 647.301 238.305 647.301 235.097C647.301 231.89 650.629 229.28 654.721 229.28ZM654.721 240.144C658.271 240.144 661.158 237.88 661.158 235.097C661.158 232.314 658.271 230.05 654.721 230.05C651.171 230.05 648.284 232.314 648.284 235.097C648.283 237.88 651.171 240.144 654.721 240.144Z" fill="#54F4FC"/>
<path d="M670.244 250.501C670.244 248.715 672.09 247.267 674.368 247.267C676.646 247.267 678.492 248.715 678.492 250.501C678.492 252.287 676.646 253.734 674.368 253.734C672.09 253.734 670.244 252.286 670.244 250.501Z" fill="#54F4FC"/>
<path d="M674.369 246.88C676.915 246.88 678.984 248.504 678.984 250.499C678.984 252.494 676.914 254.117 674.369 254.117C671.824 254.117 669.754 252.494 669.754 250.499C669.754 248.504 671.824 246.88 674.369 246.88ZM674.369 253.347C676.372 253.347 678.002 252.07 678.002 250.498C678.002 248.928 676.372 247.65 674.369 247.65C672.366 247.65 670.736 248.928 670.736 250.498C670.736 252.07 672.366 253.347 674.369 253.347Z" fill="#54F4FC"/>
<path d="M232.089 148.863C232.089 146.177 234.866 144 238.292 144C241.719 144 244.496 146.177 244.496 148.863C244.496 151.549 241.719 153.727 238.292 153.727C234.866 153.727 232.089 151.549 232.089 148.863Z" fill="#54F4FC"/>
<path d="M238.294 143.613C241.985 143.613 244.988 145.967 244.988 148.861C244.988 151.755 241.985 154.109 238.294 154.109C234.602 154.109 231.599 151.755 231.599 148.861C231.599 145.967 234.602 143.613 238.294 143.613ZM238.294 153.34C241.443 153.34 244.006 151.33 244.006 148.861C244.006 146.392 241.443 144.382 238.294 144.382C235.144 144.382 232.581 146.392 232.581 148.861C232.581 151.33 235.143 153.34 238.294 153.34Z" fill="#54F4FC"/>
<path d="M253.823 164.261C253.823 162.481 255.664 161.037 257.935 161.037C260.206 161.037 262.047 162.48 262.047 164.261C262.047 166.041 260.206 167.484 257.935 167.484C255.664 167.484 253.823 166.041 253.823 164.261Z" fill="#54F4FC"/>
<path d="M257.936 160.65C260.474 160.65 262.539 162.269 262.539 164.259C262.539 166.248 260.474 167.867 257.936 167.867C255.398 167.867 253.334 166.248 253.334 164.259C253.333 162.269 255.398 160.65 257.936 160.65ZM257.936 167.097C259.932 167.097 261.557 165.825 261.557 164.259C261.557 162.693 259.932 161.42 257.936 161.42C255.94 161.42 254.316 162.693 254.316 164.259C254.316 165.825 255.94 167.097 257.936 167.097Z" fill="#54F4FC"/>
<path d="M309.34 164.265C309.34 161.952 311.731 160.077 314.682 160.077C317.632 160.077 320.023 161.952 320.023 164.265C320.023 166.578 317.632 168.453 314.682 168.453C311.731 168.453 309.34 166.578 309.34 164.265Z" fill="#54F4FC"/>
<path d="M314.683 159.689C317.899 159.689 320.516 161.74 320.516 164.263C320.516 166.784 317.899 168.836 314.683 168.836C311.466 168.836 308.85 166.784 308.85 164.263C308.85 161.74 311.466 159.689 314.683 159.689ZM314.683 168.066C317.357 168.066 319.533 166.36 319.533 164.263C319.533 162.165 317.357 160.459 314.683 160.459C312.008 160.459 309.832 162.165 309.832 164.263C309.832 166.36 312.008 168.066 314.683 168.066Z" fill="#54F4FC"/>
<path d="M330.463 179.66C330.463 177.987 332.192 176.632 334.325 176.632C336.458 176.632 338.188 177.987 338.188 179.66C338.188 181.332 336.458 182.687 334.325 182.687C332.193 182.687 330.463 181.331 330.463 179.66Z" fill="#54F4FC"/>
<path d="M334.326 176.244C336.727 176.244 338.68 177.775 338.68 179.657C338.68 181.539 336.727 183.07 334.326 183.07C331.926 183.07 329.973 181.539 329.973 179.657C329.973 177.775 331.926 176.244 334.326 176.244ZM334.326 182.3C336.185 182.3 337.698 181.114 337.698 179.657C337.698 178.2 336.185 177.014 334.326 177.014C332.468 177.014 330.955 178.199 330.955 179.657C330.955 181.114 332.468 182.3 334.326 182.3Z" fill="#54F4FC"/>
<path d="M328.642 251.529C328.642 249.069 331.187 247.074 334.325 247.074C337.464 247.074 340.008 249.069 340.008 251.529C340.008 253.99 337.464 255.984 334.325 255.984C331.187 255.985 328.642 253.99 328.642 251.529Z" fill="#54F4FC"/>
<path d="M334.326 246.686C337.731 246.686 340.5 248.858 340.5 251.527C340.5 254.196 337.73 256.367 334.326 256.367C330.922 256.367 328.153 254.196 328.153 251.527C328.153 248.858 330.922 246.686 334.326 246.686ZM334.326 255.597C337.189 255.597 339.518 253.771 339.518 251.526C339.518 249.282 337.189 247.456 334.326 247.456C331.464 247.456 329.135 249.282 329.135 251.526C329.135 253.771 331.464 255.597 334.326 255.597Z" fill="#54F4FC"/>
<path d="M349.77 266.927C349.77 265.109 351.65 263.634 353.969 263.634C356.288 263.634 358.168 265.109 358.168 266.927C358.168 268.745 356.288 270.219 353.969 270.219C351.65 270.219 349.77 268.745 349.77 266.927Z" fill="#54F4FC"/>
<path d="M353.969 263.247C356.556 263.247 358.66 264.897 358.66 266.924C358.66 268.952 356.556 270.602 353.969 270.602C351.383 270.602 349.279 268.952 349.279 266.924C349.279 264.897 351.383 263.247 353.969 263.247ZM353.969 269.832C356.014 269.832 357.678 268.527 357.678 266.924C357.678 265.321 356.014 264.017 353.969 264.017C351.925 264.017 350.261 265.321 350.261 266.924C350.261 268.527 351.925 269.832 353.969 269.832Z" fill="#54F4FC"/>
<path d="M576.407 266.925C576.407 264.579 578.833 262.677 581.825 262.677C584.817 262.677 587.242 264.579 587.242 266.925C587.242 269.27 584.817 271.172 581.825 271.172C578.833 271.172 576.407 269.27 576.407 266.925Z" fill="#54F4FC"/>
<path d="M581.826 262.29C585.084 262.29 587.734 264.368 587.734 266.922C587.734 269.476 585.084 271.555 581.826 271.555C578.568 271.555 575.918 269.476 575.918 266.922C575.918 264.368 578.568 262.29 581.826 262.29ZM581.826 270.785C584.542 270.785 586.752 269.053 586.752 266.923C586.752 264.793 584.542 263.061 581.826 263.061C579.11 263.06 576.9 264.793 576.9 266.922C576.9 269.052 579.11 270.785 581.826 270.785Z" fill="#54F4FC"/>
<path d="M601.467 278.773C598.966 278.773 596.938 280.363 596.938 282.324C596.938 284.285 598.966 285.875 601.467 285.875C603.968 285.875 605.996 284.285 605.996 282.324C605.996 280.363 603.968 278.773 601.467 278.773Z" fill="#54F4FC"/>
<path d="M601.468 278.386C604.236 278.386 606.488 280.152 606.488 282.322C606.488 284.492 604.236 286.258 601.468 286.258C598.699 286.258 596.447 284.492 596.447 282.322C596.447 280.152 598.699 278.386 601.468 278.386ZM601.468 285.488C603.694 285.488 605.506 284.068 605.506 282.322C605.506 280.576 603.695 279.156 601.468 279.156C599.241 279.156 597.429 280.576 597.429 282.322C597.429 284.068 599.241 285.488 601.468 285.488Z" fill="#54F4FC"/>
<path d="M597.627 421.269C597.627 419.605 599.347 418.256 601.47 418.256C603.592 418.256 605.313 419.605 605.313 421.269C605.313 422.933 603.592 424.281 601.47 424.281C599.347 424.281 597.627 422.933 597.627 421.269Z" fill="#54F4FC"/>
<path d="M601.471 417.869C603.861 417.869 605.805 419.393 605.805 421.266C605.805 423.14 603.861 424.664 601.471 424.664C599.082 424.664 597.138 423.14 597.138 421.266C597.138 419.393 599.082 417.869 601.471 417.869ZM601.471 423.894C603.319 423.894 604.823 422.715 604.823 421.266C604.823 419.817 603.319 418.639 601.471 418.639C599.623 418.639 598.12 419.817 598.12 421.266C598.12 422.715 599.623 423.894 601.471 423.894Z" fill="#54F4FC"/>
<path d="M617.33 436.669C617.33 435.032 619.023 433.705 621.11 433.705C623.198 433.705 624.891 435.033 624.891 436.669C624.891 438.306 623.198 439.633 621.11 439.633C619.023 439.633 617.33 438.306 617.33 436.669Z" fill="#54F4FC"/>
<path d="M621.111 433.318C623.467 433.318 625.383 434.82 625.383 436.667C625.383 438.513 623.467 440.016 621.111 440.016C618.756 440.016 616.84 438.513 616.84 436.667C616.84 434.821 618.756 433.318 621.111 433.318ZM621.111 439.246C622.925 439.246 624.401 438.089 624.401 436.667C624.401 435.245 622.925 434.088 621.111 434.088C619.298 434.088 617.822 435.245 617.822 436.667C617.822 438.089 619.298 439.246 621.111 439.246Z" fill="#54F4FC"/>
<path d="M636.825 488.823C633.067 488.823 630.02 491.211 630.02 494.158C630.02 497.104 633.067 499.492 636.825 499.492C640.583 499.492 643.629 497.104 643.629 494.158C643.629 491.211 640.583 488.823 636.825 488.823Z" fill="#54F4FC"/>
<path d="M636.826 488.436C640.848 488.436 644.121 491.002 644.121 494.156C644.121 497.309 640.848 499.875 636.826 499.875C632.803 499.875 629.53 497.309 629.53 494.156C629.53 491.002 632.803 488.436 636.826 488.436ZM636.826 499.106C640.307 499.106 643.139 496.885 643.139 494.156C643.139 491.427 640.306 489.207 636.826 489.207C633.345 489.207 630.513 491.427 630.513 494.156C630.513 496.885 633.345 499.106 636.826 499.106Z" fill="#54F4FC"/>
<path d="M611.647 509.558C611.647 507.162 614.126 505.218 617.183 505.218C620.24 505.218 622.719 507.161 622.719 509.558C622.719 511.955 620.24 513.898 617.183 513.898C614.126 513.898 611.647 511.955 611.647 509.558Z" fill="#54F4FC"/>
<path d="M617.185 504.831C620.508 504.831 623.211 506.951 623.211 509.556C623.211 512.161 620.507 514.281 617.185 514.281C613.862 514.281 611.158 512.162 611.158 509.556C611.158 506.951 613.862 504.831 617.185 504.831ZM617.185 513.511C619.966 513.511 622.229 511.736 622.229 509.556C622.229 507.375 619.966 505.601 617.185 505.601C614.403 505.601 612.14 507.375 612.14 509.556C612.14 511.737 614.403 513.511 617.185 513.511Z" fill="#54F4FC"/>
<path d="M501.997 610.821C501.974 613.826 505.062 616.278 508.896 616.296C512.729 616.314 515.856 613.893 515.88 610.887C515.903 607.882 512.814 605.43 508.981 605.412C505.147 605.394 502.02 607.815 501.997 610.821Z" fill="#54F4FC"/>
<path d="M508.931 605.026C513.029 605.026 516.363 607.64 516.363 610.853C516.363 614.066 513.029 616.68 508.931 616.68C504.832 616.68 501.499 614.066 501.499 610.853C501.499 607.639 504.832 605.026 508.931 605.026ZM508.931 615.91C512.487 615.91 515.381 613.641 515.381 610.853C515.381 608.065 512.487 605.796 508.931 605.796C505.375 605.796 502.481 608.065 502.481 610.853C502.481 613.641 505.375 615.91 508.931 615.91Z" fill="#54F4FC"/>
<path d="M485.472 595.453C485.472 593.801 487.181 592.461 489.289 592.461C491.397 592.461 493.105 593.8 493.105 595.453C493.105 597.106 491.397 598.445 489.289 598.445C487.181 598.445 485.472 597.105 485.472 595.453Z" fill="#54F4FC"/>
<path d="M489.29 592.074C491.665 592.074 493.598 593.589 493.598 595.451C493.598 597.313 491.665 598.828 489.29 598.828C486.915 598.828 484.983 597.313 484.983 595.451C484.982 593.589 486.915 592.074 489.29 592.074ZM489.29 598.058C491.123 598.058 492.616 596.888 492.616 595.451C492.616 594.014 491.124 592.844 489.29 592.844C487.456 592.844 485.965 594.014 485.965 595.451C485.964 596.888 487.456 598.058 489.29 598.058Z" fill="#54F4FC"/>
<path d="M355.051 595.451C355.051 592.896 357.694 590.824 360.953 590.824C364.213 590.824 366.855 592.895 366.855 595.451C366.855 598.006 364.213 600.078 360.953 600.078C357.694 600.078 355.051 598.006 355.051 595.451Z" fill="#54F4FC"/>
<path d="M360.954 590.437C364.48 590.437 367.348 592.685 367.348 595.449C367.348 598.213 364.48 600.461 360.954 600.461C357.429 600.461 354.561 598.213 354.561 595.449C354.561 592.685 357.429 590.437 360.954 590.437ZM360.954 599.691C363.938 599.691 366.366 597.787 366.366 595.449C366.366 593.11 363.938 591.207 360.954 591.207C357.971 591.207 355.543 593.11 355.543 595.449C355.543 597.788 357.971 599.691 360.954 599.691Z" fill="#54F4FC"/>
<path d="M336.233 610.856C336.233 608.658 338.506 606.876 341.31 606.876C344.114 606.876 346.387 608.658 346.387 610.856C346.387 613.054 344.114 614.836 341.31 614.836C338.506 614.836 336.233 613.054 336.233 610.856Z" fill="#54F4FC"/>
<path d="M341.311 606.488C344.381 606.488 346.879 608.446 346.879 610.853C346.879 613.26 344.381 615.219 341.311 615.219C338.241 615.219 335.743 613.26 335.743 610.853C335.743 608.447 338.241 606.488 341.311 606.488ZM341.311 614.449C343.839 614.449 345.897 612.836 345.897 610.854C345.897 608.871 343.839 607.259 341.311 607.259C338.783 607.259 336.725 608.871 336.725 610.854C336.725 612.836 338.782 614.449 341.311 614.449Z" fill="#54F4FC"/>
<path d="M231.746 197.299C229.465 197.299 227.616 198.748 227.616 200.536C227.616 202.324 229.465 203.773 231.746 203.773C234.026 203.773 235.875 202.324 235.875 200.536C235.875 198.748 234.026 197.299 231.746 197.299Z" fill="#54F4FC"/>
<path d="M231.747 196.911C234.295 196.911 236.367 198.536 236.367 200.534C236.367 202.531 234.294 204.156 231.747 204.156C229.199 204.156 227.126 202.531 227.126 200.534C227.126 198.536 229.199 196.911 231.747 196.911ZM231.747 203.386C233.753 203.386 235.385 202.106 235.385 200.534C235.385 198.961 233.753 197.681 231.747 197.681C229.741 197.681 228.108 198.961 228.108 200.534C228.108 202.106 229.741 203.386 231.747 203.386Z" fill="#54F4FC"/>
<path d="M206.109 215.938C206.109 213.341 208.794 211.235 212.107 211.235C215.42 211.235 218.105 213.341 218.105 215.938C218.105 218.535 215.42 220.641 212.107 220.641C208.794 220.641 206.109 218.535 206.109 215.938Z" fill="#54F4FC"/>
<path d="M212.104 210.848C215.683 210.848 218.594 213.13 218.594 215.936C218.594 218.741 215.683 221.023 212.104 221.023C208.526 221.023 205.615 218.741 205.615 215.936C205.615 213.131 208.526 210.848 212.104 210.848ZM212.104 220.254C215.141 220.254 217.612 218.317 217.612 215.936C217.612 213.555 215.141 211.618 212.104 211.618C209.068 211.618 206.597 213.555 206.597 215.936C206.597 218.316 209.068 220.254 212.104 220.254Z" fill="#54F4FC"/>
<path d="M207.472 277.532C207.472 275.526 209.546 273.9 212.105 273.9C214.664 273.9 216.738 275.526 216.738 277.532C216.738 279.538 214.664 281.164 212.105 281.164C209.546 281.164 207.472 279.538 207.472 277.532Z" fill="#54F4FC"/>
<path d="M212.102 273.513C214.928 273.513 217.227 275.315 217.227 277.53C217.227 279.745 214.928 281.547 212.102 281.547C209.277 281.547 206.978 279.745 206.978 277.53C206.978 275.315 209.277 273.513 212.102 273.513ZM212.102 280.777C214.386 280.777 216.244 279.321 216.244 277.53C216.244 275.739 214.386 274.282 212.102 274.282C209.819 274.282 207.961 275.739 207.961 277.53C207.961 279.321 209.819 280.777 212.102 280.777Z" fill="#54F4FC"/>
<path d="M231.745 288.312C228.487 288.312 225.846 290.383 225.846 292.937C225.846 295.492 228.487 297.562 231.745 297.562C235.003 297.562 237.645 295.492 237.645 292.937C237.645 290.383 235.003 288.312 231.745 288.312Z" fill="#54F4FC"/>
<path d="M231.746 287.925C235.27 287.925 238.137 290.172 238.137 292.935C238.137 295.698 235.27 297.945 231.746 297.945C228.222 297.945 225.355 295.698 225.355 292.935C225.355 290.172 228.223 287.925 231.746 287.925ZM231.746 297.176C234.728 297.176 237.155 295.273 237.155 292.935C237.155 290.597 234.729 288.695 231.746 288.695C228.764 288.695 226.337 290.597 226.337 292.935C226.337 295.273 228.764 297.176 231.746 297.176Z" fill="#54F4FC"/>
<path d="M295.478 288.827C292.585 288.827 290.24 290.665 290.24 292.933C290.24 295.201 292.585 297.039 295.478 297.039C298.37 297.039 300.715 295.201 300.715 292.933C300.715 290.665 298.37 288.827 295.478 288.827Z" fill="#54F4FC"/>
<path d="M295.479 288.441C298.637 288.441 301.207 290.455 301.207 292.931C301.207 295.407 298.637 297.422 295.479 297.422C292.32 297.422 289.751 295.407 289.751 292.931C289.751 290.455 292.32 288.441 295.479 288.441ZM295.479 296.652C298.096 296.652 300.225 294.983 300.225 292.931C300.225 290.88 298.096 289.211 295.479 289.211C292.862 289.211 290.733 290.88 290.733 292.931C290.733 294.983 292.862 296.652 295.479 296.652Z" fill="#54F4FC"/>
<path d="M315.121 305.405C313.057 305.405 311.383 306.717 311.383 308.335C311.383 309.954 313.057 311.266 315.121 311.266C317.186 311.266 318.859 309.954 318.859 308.335C318.859 306.717 317.186 305.405 315.121 305.405Z" fill="#54F4FC"/>
<path d="M315.119 305.018C317.451 305.018 319.348 306.505 319.348 308.333C319.348 310.161 317.451 311.648 315.119 311.648C312.787 311.648 310.89 310.161 310.89 308.333C310.89 306.505 312.787 305.018 315.119 305.018ZM315.119 310.879C316.909 310.879 318.366 309.736 318.366 308.333C318.366 306.93 316.909 305.788 315.119 305.788C313.329 305.788 311.872 306.93 311.872 308.333C311.872 309.736 313.328 310.879 315.119 310.879Z" fill="#54F4FC"/>
<path d="M309.752 395.259C309.752 392.934 312.157 391.049 315.122 391.049C318.088 391.049 320.492 392.934 320.492 395.259C320.492 397.584 318.088 399.469 315.122 399.469C312.157 399.469 309.752 397.584 309.752 395.259Z" fill="#54F4FC"/>
<path d="M315.12 390.662C318.351 390.662 320.98 392.723 320.98 395.257C320.98 397.79 318.351 399.852 315.12 399.852C311.888 399.852 309.259 397.79 309.259 395.257C309.259 392.723 311.888 390.662 315.12 390.662ZM315.12 399.081C317.81 399.081 319.998 397.366 319.998 395.257C319.998 393.148 317.81 391.432 315.12 391.432C312.43 391.432 310.241 393.148 310.241 395.257C310.241 397.366 312.429 399.081 315.12 399.081Z" fill="#54F4FC"/>
<path d="M330.747 410.654C330.747 408.914 332.547 407.503 334.766 407.503C336.986 407.503 338.785 408.914 338.785 410.654C338.785 412.394 336.986 413.805 334.766 413.805C332.547 413.805 330.747 412.394 330.747 410.654Z" fill="#54F4FC"/>
<path d="M334.763 407.116C337.25 407.116 339.273 408.702 339.273 410.652C339.273 412.601 337.25 414.187 334.763 414.187C332.277 414.187 330.253 412.601 330.253 410.652C330.253 408.703 332.277 407.116 334.763 407.116ZM334.763 413.418C336.709 413.418 338.291 412.177 338.291 410.652C338.291 409.127 336.709 407.886 334.763 407.886C332.818 407.886 331.236 409.127 331.236 410.652C331.236 412.177 332.818 413.418 334.763 413.418Z" fill="#54F4FC"/>
<path d="M396.281 410.66C396.281 408.945 398.054 407.555 400.242 407.555C402.43 407.555 404.203 408.945 404.203 410.66C404.203 412.375 402.43 413.766 400.242 413.766C398.054 413.766 396.281 412.375 396.281 410.66Z" fill="#54F4FC"/>
<path d="M400.24 407.168C402.695 407.168 404.691 408.733 404.691 410.658C404.691 412.582 402.695 414.148 400.24 414.148C397.785 414.148 395.788 412.582 395.788 410.658C395.787 408.733 397.785 407.168 400.24 407.168ZM400.24 413.378C402.153 413.378 403.709 412.158 403.709 410.658C403.709 409.158 402.153 407.938 400.24 407.938C398.327 407.938 396.77 409.158 396.77 410.658C396.769 412.158 398.326 413.378 400.24 413.378Z" fill="#54F4FC"/>
<path d="M415.153 426.057C415.153 424.009 417.271 422.349 419.883 422.349C422.495 422.349 424.613 424.009 424.613 426.057C424.613 428.105 422.495 429.766 419.883 429.766C417.271 429.766 415.153 428.105 415.153 426.057Z" fill="#54F4FC"/>
<path d="M419.88 421.961C422.759 421.961 425.102 423.798 425.102 426.055C425.102 428.312 422.76 430.148 419.88 430.148C417.001 430.148 414.659 428.312 414.659 426.055C414.659 423.798 417.001 421.961 419.88 421.961ZM419.88 429.378C422.218 429.378 424.119 427.887 424.119 426.055C424.119 424.222 422.218 422.732 419.88 422.732C417.543 422.732 415.641 424.222 415.641 426.055C415.641 427.887 417.543 429.378 419.88 429.378Z" fill="#54F4FC"/>
<path d="M415.532 496.551C415.532 494.668 417.479 493.141 419.881 493.141C422.283 493.141 424.23 494.668 424.23 496.551C424.23 498.434 422.283 499.961 419.881 499.961C417.479 499.961 415.532 498.434 415.532 496.551Z" fill="#54F4FC"/>
<path d="M419.883 492.754C422.552 492.754 424.723 494.457 424.723 496.549C424.723 498.641 422.551 500.344 419.883 500.344C417.214 500.344 415.043 498.641 415.043 496.549C415.043 494.457 417.214 492.754 419.883 492.754ZM419.883 499.574C422.01 499.574 423.741 498.217 423.741 496.549C423.741 494.881 422.01 493.525 419.883 493.525C417.755 493.525 416.025 494.881 416.025 496.549C416.024 498.217 417.755 499.574 419.883 499.574Z" fill="#54F4FC"/>
<path d="M393.36 511.953C393.36 508.975 396.439 506.561 400.237 506.561C404.035 506.561 407.113 508.975 407.113 511.953C407.113 514.93 404.035 517.344 400.237 517.344C396.439 517.344 393.36 514.93 393.36 511.953Z" fill="#54F4FC"/>
<path d="M400.238 506.174C404.3 506.174 407.605 508.766 407.605 511.95C407.605 515.135 404.3 517.727 400.238 517.727C396.176 517.727 392.87 515.135 392.87 511.95C392.87 508.766 396.175 506.174 400.238 506.174ZM400.238 516.956C403.759 516.956 406.623 514.711 406.623 511.95C406.623 509.19 403.759 506.945 400.238 506.945C396.717 506.945 393.853 509.19 393.853 511.95C393.853 514.711 396.717 516.956 400.238 516.956Z" fill="#54F4FC"/>
<path d="M356.112 511.955C356.112 509.86 358.28 508.161 360.952 508.161C363.626 508.161 365.793 509.86 365.793 511.955C365.793 514.051 363.626 515.75 360.952 515.75C358.28 515.75 356.112 514.051 356.112 511.955Z" fill="#54F4FC"/>
<path d="M360.954 507.774C363.894 507.774 366.285 509.649 366.285 511.953C366.285 514.258 363.894 516.133 360.954 516.133C358.015 516.133 355.623 514.258 355.623 511.953C355.623 509.649 358.014 507.774 360.954 507.774ZM360.954 515.363C363.352 515.363 365.303 513.833 365.303 511.953C365.303 510.073 363.352 508.544 360.954 508.544C358.556 508.544 356.605 510.073 356.605 511.953C356.605 513.834 358.556 515.363 360.954 515.363Z" fill="#54F4FC"/>
<path d="M337.144 496.554C337.144 494.75 339.01 493.287 341.31 493.287C343.611 493.287 345.477 494.75 345.477 496.554C345.477 498.358 343.611 499.82 341.31 499.82C339.01 499.82 337.144 498.358 337.144 496.554Z" fill="#54F4FC"/>
<path d="M341.311 492.9C343.88 492.9 345.969 494.538 345.969 496.552C345.969 498.565 343.879 500.203 341.311 500.203C338.744 500.203 336.654 498.565 336.654 496.552C336.654 494.538 338.743 492.9 341.311 492.9ZM341.311 499.433C343.338 499.433 344.987 498.14 344.987 496.552C344.987 494.963 343.338 493.67 341.311 493.67C339.285 493.67 337.636 494.963 337.636 496.552C337.636 498.14 339.285 499.433 341.311 499.433Z" fill="#54F4FC"/>
<path d="M337.013 491.766C337.013 489.907 338.935 488.4 341.307 488.4C343.679 488.4 345.602 489.907 345.602 491.766C345.602 493.626 343.679 495.133 341.307 495.133C338.935 495.133 337.013 493.626 337.013 491.766Z" fill="#54F4FC"/>
<path d="M341.309 488.012C343.947 488.012 346.094 489.695 346.094 491.764C346.094 493.832 343.947 495.516 341.309 495.516C338.67 495.516 336.523 493.833 336.523 491.764C336.523 489.695 338.67 488.012 341.309 488.012ZM341.309 494.745C343.406 494.745 345.112 493.408 345.112 491.764C345.112 490.12 343.406 488.782 341.309 488.782C339.212 488.782 337.505 490.12 337.505 491.764C337.505 493.408 339.211 494.745 341.309 494.745Z" fill="#54F4FC"/>
<path d="M317.633 476.36C317.633 474.613 319.44 473.197 321.668 473.197C323.896 473.197 325.703 474.613 325.703 476.36C325.703 478.107 323.896 479.523 321.668 479.523C319.44 479.523 317.633 478.107 317.633 476.36Z" fill="#54F4FC"/>
<path d="M321.669 472.809C324.165 472.809 326.195 474.401 326.195 476.358C326.195 478.314 324.165 479.906 321.669 479.906C319.173 479.906 317.142 478.314 317.142 476.358C317.142 474.401 319.173 472.809 321.669 472.809ZM321.669 479.136C323.624 479.136 325.213 477.89 325.213 476.358C325.213 474.826 323.624 473.579 321.669 473.579C319.715 473.579 318.125 474.826 318.125 476.358C318.125 477.89 319.715 479.136 321.669 479.136Z" fill="#54F4FC"/>
<path d="M207.377 476.366C207.377 473.375 210.469 470.95 214.284 470.95C218.099 470.95 221.191 473.375 221.191 476.366C221.191 479.357 218.099 481.781 214.284 481.781C210.469 481.781 207.377 479.357 207.377 476.366Z" fill="#54F4FC"/>
<path d="M214.285 470.563C218.365 470.563 221.684 473.166 221.684 476.364C221.684 479.562 218.364 482.164 214.285 482.164C210.206 482.164 206.887 479.562 206.887 476.364C206.886 473.165 210.205 470.563 214.285 470.563ZM214.285 481.394C217.823 481.394 220.701 479.138 220.701 476.364C220.701 473.59 217.823 471.333 214.285 471.333C210.747 471.333 207.869 473.59 207.869 476.364C207.869 479.138 210.747 481.394 214.285 481.394Z" fill="#54F4FC"/>
<path d="M189.919 491.762C189.919 489.715 192.036 488.055 194.647 488.055C197.258 488.055 199.375 489.715 199.375 491.762C199.375 493.809 197.258 495.469 194.647 495.469C192.036 495.469 189.919 493.809 189.919 491.762Z" fill="#54F4FC"/>
<path d="M194.644 487.668C197.522 487.668 199.863 489.504 199.863 491.76C199.863 494.016 197.522 495.852 194.644 495.852C191.766 495.852 189.425 494.016 189.425 491.76C189.425 489.504 191.766 487.668 194.644 487.668ZM194.644 495.081C196.981 495.081 198.881 493.591 198.881 491.76C198.881 489.928 196.981 488.438 194.644 488.438C192.308 488.438 190.407 489.928 190.407 491.76C190.407 493.591 192.308 495.081 194.644 495.081Z" fill="#54F4FC"/>
<path d="M554.809 481.84C554.809 479.214 557.524 477.085 560.873 477.085C564.222 477.085 566.938 479.214 566.938 481.84C566.938 484.465 564.222 486.594 560.873 486.594C557.524 486.594 554.809 484.465 554.809 481.84Z" fill="#54F4FC"/>
<path d="M560.874 476.698C564.489 476.698 567.43 479.004 567.43 481.837C567.43 484.671 564.489 486.977 560.874 486.977C557.26 486.977 554.319 484.671 554.319 481.837C554.319 479.004 557.26 476.698 560.874 476.698ZM560.874 486.207C563.947 486.207 566.448 484.247 566.448 481.837C566.448 479.428 563.947 477.468 560.874 477.468C557.801 477.468 555.301 479.428 555.301 481.837C555.301 484.247 557.801 486.207 560.874 486.207Z" fill="#54F4FC"/>
<path d="M535.441 466.438C535.441 463.931 538.033 461.899 541.23 461.899C544.428 461.899 547.02 463.932 547.02 466.438C547.02 468.944 544.428 470.977 541.23 470.977C538.033 470.977 535.441 468.945 535.441 466.438Z" fill="#54F4FC"/>
<path d="M541.231 461.512C544.694 461.512 547.512 463.721 547.512 466.436C547.512 469.151 544.694 471.359 541.231 471.359C537.768 471.359 534.951 469.15 534.951 466.436C534.951 463.721 537.768 461.512 541.231 461.512ZM541.231 470.59C544.153 470.59 546.53 468.727 546.53 466.436C546.53 464.146 544.153 462.282 541.231 462.282C538.31 462.282 535.933 464.146 535.933 466.436C535.933 468.727 538.31 470.59 541.231 470.59Z" fill="#54F4FC"/>
<path d="M541.23 390.471C538.339 390.471 535.995 392.309 535.995 394.576C535.995 396.842 538.339 398.68 541.23 398.68C544.121 398.68 546.465 396.842 546.465 394.576C546.465 392.309 544.121 390.471 541.23 390.471Z" fill="#54F4FC"/>
<path d="M541.231 390.085C544.388 390.085 546.957 392.098 546.957 394.573C546.957 397.049 544.388 399.062 541.231 399.062C538.073 399.062 535.505 397.049 535.505 394.573C535.505 392.098 538.073 390.085 541.231 390.085ZM541.231 398.293C543.847 398.293 545.975 396.624 545.975 394.573C545.975 392.523 543.847 390.854 541.231 390.854C538.615 390.854 536.487 392.523 536.487 394.573C536.487 396.624 538.615 398.293 541.231 398.293Z" fill="#54F4FC"/>
<path d="M560.873 374.046C557.262 374.046 554.335 376.341 554.335 379.172C554.335 382.002 557.262 384.297 560.873 384.297C564.483 384.297 567.41 382.002 567.41 379.172C567.41 376.341 564.483 374.046 560.873 374.046Z" fill="#54F4FC"/>
<path d="M560.874 373.659C564.75 373.659 567.902 376.131 567.902 379.17C567.902 382.208 564.749 384.68 560.874 384.68C556.998 384.68 553.845 382.208 553.845 379.17C553.845 376.131 556.999 373.659 560.874 373.659ZM560.874 383.91C564.208 383.91 566.92 381.783 566.92 379.17C566.92 376.555 564.208 374.429 560.874 374.429C557.54 374.429 554.827 376.555 554.827 379.17C554.828 381.783 557.54 383.91 560.874 383.91Z" fill="#54F4FC"/>
<path d="M176.063 96.8437C176.063 94.091 178.909 91.8598 182.42 91.8598C185.931 91.8598 188.777 94.0914 188.777 96.8438C188.777 99.5965 185.931 101.828 182.42 101.828C178.909 101.828 176.063 99.5965 176.063 96.8437Z" fill="#54F4FC"/>
<path d="M182.421 91.4724C186.197 91.4725 189.27 93.8811 189.27 96.8413C189.27 99.8023 186.197 102.211 182.421 102.211C178.645 102.211 175.573 99.8023 175.573 96.8413C175.573 93.8807 178.645 91.4724 182.421 91.4724ZM182.421 101.441C185.656 101.441 188.287 99.3773 188.287 96.8413C188.287 94.3056 185.656 92.2426 182.421 92.2426C179.186 92.2426 176.555 94.306 176.555 96.8413C176.555 99.3773 179.186 101.441 182.421 101.441Z" fill="#54F4FC"/>
<path d="M198.049 112.242C198.049 110.502 199.847 109.093 202.066 109.093C204.284 109.093 206.082 110.503 206.082 112.242C206.082 113.981 204.284 115.391 202.066 115.391C199.847 115.391 198.049 113.981 198.049 112.242Z" fill="#54F4FC"/>
<path d="M202.063 108.705C204.548 108.705 206.57 110.29 206.57 112.239C206.57 114.188 204.549 115.773 202.063 115.773C199.577 115.773 197.555 114.188 197.555 112.239C197.555 110.29 199.577 108.705 202.063 108.705ZM202.063 115.004C204.006 115.004 205.588 113.764 205.588 112.239C205.588 110.715 204.006 109.475 202.063 109.475C200.119 109.475 198.537 110.715 198.537 112.239C198.537 113.764 200.119 115.004 202.063 115.004Z" fill="#54F4FC"/>
<path d="M335.821 112.243C335.821 110.056 338.082 108.284 340.871 108.284C343.661 108.284 345.922 110.056 345.922 112.243C345.922 114.43 343.661 116.203 340.871 116.203C338.082 116.203 335.821 114.43 335.821 112.243Z" fill="#54F4FC"/>
<path d="M340.872 107.897C343.928 107.897 346.414 109.846 346.414 112.241C346.414 114.637 343.928 116.586 340.872 116.586C337.817 116.586 335.331 114.637 335.331 112.241C335.331 109.846 337.817 107.897 340.872 107.897ZM340.872 115.816C343.387 115.816 345.432 114.212 345.432 112.241C345.432 110.271 343.387 108.667 340.872 108.667C338.359 108.667 336.313 110.271 336.313 112.241C336.313 114.212 338.359 115.816 340.872 115.816Z" fill="#54F4FC"/>
<path d="M355.136 96.8452C355.136 94.5162 357.544 92.628 360.515 92.628C363.486 92.628 365.895 94.5159 365.895 96.8452C365.895 99.1742 363.486 101.062 360.515 101.062C357.544 101.062 355.136 99.1746 355.136 96.8452Z" fill="#54F4FC"/>
<path d="M360.516 92.241C363.754 92.241 366.387 94.3052 366.387 96.8428C366.387 99.3804 363.754 101.445 360.516 101.445C357.28 101.445 354.647 99.3804 354.647 96.8428C354.647 94.3052 357.28 92.241 360.516 92.241ZM360.516 100.676C363.211 100.676 365.405 98.9558 365.405 96.8428C365.405 94.7297 363.211 93.0108 360.516 93.0108C357.821 93.0108 355.629 94.7297 355.629 96.8428C355.629 98.9558 357.821 100.676 360.516 100.676Z" fill="#54F4FC"/>
<path d="M360.517 32.2801C356.978 32.2801 354.109 34.5294 354.109 37.3041C354.109 40.0788 356.978 42.3281 360.517 42.3281C364.057 42.3281 366.926 40.0788 366.926 37.3041C366.926 34.5294 364.057 32.2801 360.517 32.2801Z" fill="#54F4FC"/>
<path d="M360.518 31.8924C364.323 31.8924 367.418 34.3187 367.418 37.3016C367.418 40.2846 364.323 42.7109 360.518 42.7109C356.714 42.7109 353.618 40.2845 353.618 37.3016C353.618 34.3187 356.714 31.8924 360.518 31.8924ZM360.518 41.9411C363.781 41.9412 366.436 39.8596 366.436 37.3016C366.436 34.7437 363.781 32.6622 360.518 32.6622C357.255 32.6622 354.601 34.7436 354.601 37.3016C354.601 39.86 357.255 41.9411 360.518 41.9411Z" fill="#54F4FC"/>
<path d="M373.469 21.9039C373.469 19.0076 376.464 16.6593 380.158 16.6593C383.853 16.6593 386.848 19.0072 386.848 21.9039C386.848 24.8006 383.853 27.1484 380.158 27.1484C376.464 27.1484 373.469 24.8002 373.469 21.9039Z" fill="#54F4FC"/>
<path d="M380.159 16.2716C384.118 16.2716 387.34 18.7973 387.34 21.9015C387.34 25.0056 384.118 27.5312 380.159 27.5312C376.199 27.5312 372.978 25.0056 372.978 21.9014C372.978 18.7973 376.2 16.2716 380.159 16.2716ZM380.159 26.7611C383.577 26.7611 386.358 24.5811 386.358 21.9015C386.358 19.2215 383.577 17.0418 380.159 17.0418C376.741 17.0418 373.961 19.2218 373.961 21.9014C373.961 24.5814 376.741 26.7611 380.159 26.7611Z" fill="#54F4FC"/>
<path d="M590.559 16.8528C587.001 16.8528 584.117 19.1138 584.117 21.903C584.117 24.6921 587.001 26.9531 590.559 26.9531C594.116 26.9531 597 24.6921 597 21.903C597 19.1138 594.116 16.8528 590.559 16.8528Z" fill="#54F4FC"/>
<path d="M590.56 16.4658C594.382 16.4658 597.492 18.9037 597.492 21.9009C597.492 24.898 594.382 27.3359 590.56 27.3359C586.737 27.3359 583.627 24.898 583.627 21.9009C583.627 18.9037 586.737 16.4658 590.56 16.4658ZM590.56 26.5658C593.841 26.5658 596.51 24.4731 596.51 21.9009C596.51 19.3287 593.841 17.236 590.56 17.236C587.278 17.236 584.609 19.3287 584.609 21.9009C584.609 24.4731 587.279 26.5658 590.56 26.5658Z" fill="#54F4FC"/>
<path d="M605.405 37.2977C605.405 35.2228 607.55 33.5408 610.196 33.5408C612.843 33.5408 614.988 35.2228 614.988 37.2977C614.988 39.3727 612.843 41.0547 610.196 41.0547C607.55 41.0547 605.405 39.3727 605.405 37.2977Z" fill="#54F4FC"/>
<path d="M610.198 33.1539C613.111 33.1539 615.48 35.0117 615.48 37.2957C615.48 39.5796 613.111 41.4375 610.198 41.4375C607.284 41.4375 604.914 39.5796 604.914 37.2957C604.914 35.0117 607.285 33.1539 610.198 33.1539ZM610.198 40.6669C612.569 40.6669 614.498 39.1539 614.498 37.2953C614.498 35.4366 612.569 33.9237 610.198 33.9237C607.826 33.9237 605.896 35.4366 605.896 37.2953C605.897 39.1543 607.826 40.6669 610.198 40.6669Z" fill="#54F4FC"/>
<path d="M605.522 69.4667C605.522 67.4418 607.616 65.8006 610.199 65.8007C612.781 65.8007 614.875 67.4422 614.875 69.4667C614.875 71.4916 612.782 73.1328 610.199 73.1328C607.616 73.1328 605.522 71.4912 605.522 69.4667Z" fill="#54F4FC"/>
<path d="M610.2 65.4137C613.049 65.4137 615.367 67.2311 615.367 69.4643C615.367 71.6982 613.049 73.5156 610.2 73.5156C607.35 73.5156 605.032 71.6982 605.032 69.4642C605.032 67.2311 607.35 65.4137 610.2 65.4137ZM610.2 72.7458C612.507 72.7458 614.385 71.2736 614.385 69.4643C614.385 67.6549 612.508 66.1835 610.2 66.1835C607.892 66.1835 606.014 67.6549 606.014 69.4642C606.014 71.2732 607.892 72.7458 610.2 72.7458Z" fill="#54F4FC"/>
<path d="M625.293 84.8652C625.293 82.8965 627.329 81.3007 629.84 81.3007C632.351 81.3007 634.387 82.8965 634.387 84.8652C634.387 86.8339 632.351 88.4297 629.84 88.4297C627.329 88.4297 625.293 86.8339 625.293 84.8652Z" fill="#54F4FC"/>
<path d="M629.841 80.9138C632.619 80.9138 634.879 82.6854 634.879 84.8628C634.879 87.0412 632.619 88.8125 629.841 88.8125C627.063 88.8125 624.803 87.0409 624.803 84.8627C624.803 82.6854 627.063 80.9138 629.841 80.9138ZM629.841 88.0427C632.077 88.0427 633.897 86.6163 633.897 84.8628C633.897 83.11 632.077 81.6835 629.841 81.6835C627.604 81.6835 625.785 83.11 625.785 84.8628C625.785 86.6163 627.605 88.0427 629.841 88.0427Z" fill="#54F4FC"/>
<path d="M677.857 410.656C677.857 408.576 680.007 406.889 682.661 406.889C685.314 406.889 687.465 408.575 687.465 410.656C687.465 412.736 685.314 414.422 682.661 414.422C680.007 414.422 677.857 412.736 677.857 410.656Z" fill="#54F4FC"/>
<path d="M682.662 406.502C685.582 406.502 687.957 408.364 687.957 410.653C687.957 412.943 685.582 414.805 682.662 414.805C679.742 414.805 677.367 412.943 677.367 410.653C677.367 408.364 679.742 406.502 682.662 406.502ZM682.662 414.035C685.04 414.035 686.975 412.518 686.975 410.654C686.975 408.789 685.04 407.272 682.662 407.272C680.284 407.272 678.349 408.789 678.349 410.654C678.349 412.518 680.284 414.035 682.662 414.035Z" fill="#54F4FC"/>
<path d="M657.663 395.259C657.663 392.942 660.058 391.064 663.013 391.064C665.968 391.064 668.363 392.942 668.363 395.259C668.363 397.575 665.968 399.453 663.013 399.453C660.058 399.453 657.663 397.575 657.663 395.259Z" fill="#54F4FC"/>
<path d="M663.014 390.677C666.236 390.677 668.855 392.731 668.855 395.256C668.855 397.781 666.235 399.836 663.014 399.836C659.793 399.836 657.173 397.782 657.173 395.256C657.173 392.732 659.794 390.677 663.014 390.677ZM663.014 399.066C665.693 399.066 667.873 397.357 667.873 395.256C667.873 393.156 665.693 391.447 663.014 391.447C660.335 391.447 658.155 393.156 658.155 395.256C658.156 397.357 660.335 399.066 663.014 399.066Z" fill="#54F4FC"/>
<path d="M659.328 302.859C659.328 301.263 660.979 299.968 663.016 299.968C665.052 299.968 666.703 301.263 666.703 302.859C666.703 304.456 665.052 305.75 663.016 305.75C660.979 305.75 659.328 304.456 659.328 302.859Z" fill="#54F4FC"/>
<path d="M663.017 299.581C665.32 299.581 667.195 301.05 667.195 302.857C667.195 304.663 665.321 306.133 663.017 306.133C660.713 306.133 658.839 304.663 658.839 302.857C658.839 301.05 660.713 299.581 663.017 299.581ZM663.017 305.363C664.779 305.363 666.213 304.239 666.213 302.857C666.213 301.476 664.779 300.351 663.017 300.351C661.254 300.351 659.821 301.476 659.821 302.857C659.821 304.239 661.254 305.363 663.017 305.363Z" fill="#54F4FC"/>
<path d="M678.757 287.462C678.757 285.772 680.506 284.401 682.662 284.401C684.818 284.401 686.566 285.772 686.566 287.462C686.566 289.153 684.818 290.523 682.662 290.523C680.506 290.523 678.757 289.153 678.757 287.462Z" fill="#54F4FC"/>
<path d="M682.663 284.014C685.086 284.014 687.059 285.56 687.059 287.46C687.059 289.36 685.086 290.906 682.663 290.906C680.239 290.906 678.267 289.36 678.267 287.46C678.267 285.56 680.239 284.014 682.663 284.014ZM682.663 290.136C684.545 290.136 686.076 288.936 686.076 287.46C686.076 285.985 684.545 284.784 682.663 284.784C680.78 284.784 679.249 285.985 679.249 287.46C679.249 288.936 680.78 290.136 682.663 290.136Z" fill="#54F4FC"/>
<path d="M534.87 229.971C534.87 227.405 537.523 225.325 540.796 225.325C544.069 225.325 546.723 227.405 546.723 229.971C546.723 232.537 544.069 234.617 540.796 234.617C537.523 234.617 534.87 232.537 534.87 229.971Z" fill="#54F4FC"/>
<path d="M540.798 224.938C544.336 224.938 547.215 227.195 547.215 229.969C547.215 232.743 544.336 235 540.798 235C537.259 235 534.381 232.743 534.381 229.969C534.38 227.195 537.259 224.938 540.798 224.938ZM540.798 234.23C543.795 234.23 546.233 232.318 546.233 229.969C546.233 227.62 543.795 225.708 540.798 225.708C537.801 225.708 535.363 227.62 535.363 229.969C535.362 232.318 537.801 234.23 540.798 234.23Z" fill="#54F4FC"/>
<path d="M516.968 214.572C516.968 212.76 518.842 211.291 521.152 211.291C523.462 211.291 525.336 212.76 525.336 214.572C525.336 216.383 523.462 217.852 521.152 217.852C518.841 217.852 516.968 216.383 516.968 214.572Z" fill="#54F4FC"/>
<path d="M521.153 210.904C523.731 210.904 525.828 212.548 525.828 214.569C525.828 216.59 523.731 218.234 521.153 218.234C518.575 218.234 516.478 216.59 516.478 214.569C516.478 212.548 518.575 210.904 521.153 210.904ZM521.153 217.465C523.189 217.465 524.846 216.165 524.846 214.569C524.846 212.973 523.189 211.674 521.153 211.674C519.117 211.674 517.46 212.973 517.46 214.569C517.46 216.165 519.117 217.465 521.153 217.465Z" fill="#54F4FC"/>
<path d="M53.2135 60.2316C53.2135 57.2056 56.3426 54.7527 60.2025 54.7527C64.0623 54.7527 67.1914 57.2056 67.1914 60.2316C67.1914 63.2577 64.0623 65.7109 60.2025 65.7109C56.3426 65.7109 53.2135 63.2576 53.2135 60.2316Z" fill="#54F4FC"/>
<path d="M60.2002 54.3661C64.3247 54.3661 67.6797 56.9965 67.6797 60.2296C67.6797 63.4626 64.3247 66.0937 60.2002 66.0937C56.0762 66.0937 52.7202 63.4626 52.7202 60.2295C52.7202 56.9965 56.0762 54.3661 60.2002 54.3661ZM60.2002 65.3243C63.7826 65.3243 66.6975 63.0393 66.6975 60.2299C66.6975 57.4214 63.7826 55.1363 60.2002 55.1363C56.6169 55.1363 53.7023 57.4214 53.7023 60.2299C53.7023 63.0389 56.6174 65.3243 60.2002 65.3243Z" fill="#54F4FC"/>
<path d="M287.68 60.2327C287.68 57.6128 290.389 55.489 293.731 55.489C297.073 55.489 299.781 57.6128 299.781 60.2327C299.781 62.8527 297.073 64.9766 293.731 64.9766C290.389 64.9766 287.68 62.8527 287.68 60.2327Z" fill="#54F4FC"/>
<path d="M293.731 55.102C297.339 55.102 300.273 57.4021 300.273 60.2303C300.273 63.0585 297.338 65.3594 293.731 65.3594C290.124 65.3594 287.19 63.0585 287.19 60.2303C287.19 57.4021 290.124 55.102 293.731 55.102ZM293.731 64.5892C296.797 64.5892 299.291 62.6336 299.291 60.2303C299.291 57.827 296.797 55.8722 293.731 55.8722C290.666 55.8722 288.172 57.827 288.172 60.2303C288.172 62.6335 290.666 64.5892 293.731 64.5892Z" fill="#54F4FC"/>
<path d="M308.768 44.8276C308.768 42.8338 310.83 41.2177 313.372 41.2177C315.915 41.2177 317.977 42.8339 317.977 44.8276C317.977 46.8213 315.915 48.4375 313.372 48.4375C310.83 48.4375 308.768 46.8213 308.768 44.8276Z" fill="#54F4FC"/>
<path d="M313.373 40.8307C316.183 40.8307 318.469 42.6228 318.469 44.8251C318.469 47.0283 316.183 48.8203 313.373 48.8203C310.563 48.8203 308.278 47.0286 308.278 44.8251C308.278 42.6228 310.563 40.8307 313.373 40.8307ZM313.373 48.0501C315.641 48.0502 317.487 46.6033 317.487 44.8251C317.487 43.0477 315.641 41.6009 313.373 41.6009C311.105 41.6009 309.26 43.0477 309.26 44.8251C309.26 46.6037 311.105 48.0501 313.373 48.0501Z" fill="#54F4FC"/>
<path d="M88.5576 566.709C88.5576 564.624 90.7134 562.934 93.3726 562.934C96.0317 562.934 98.1875 564.624 98.1875 566.709C98.1875 568.794 96.0317 570.484 93.3726 570.484C90.7134 570.484 88.5576 568.794 88.5576 566.709Z" fill="#54F4FC"/>
<path d="M93.3727 562.547C96.299 562.547 98.6797 564.414 98.6797 566.708C98.6797 569.001 96.299 570.867 93.3727 570.867C90.4474 570.867 88.0666 569.001 88.0666 566.708C88.0666 564.414 90.4474 562.547 93.3727 562.547ZM93.3727 570.097C95.7568 570.097 97.6975 568.576 97.6975 566.707C97.6975 564.838 95.7573 563.317 93.3727 563.317C90.9885 563.317 89.0488 564.838 89.0488 566.707C89.0488 568.576 90.9885 570.097 93.3727 570.097Z" fill="#54F4FC"/>
<path d="M288.23 566.711C288.23 564.329 290.692 562.399 293.73 562.399C296.768 562.399 299.23 564.329 299.23 566.711C299.23 569.093 296.768 571.023 293.73 571.023C290.692 571.023 288.23 569.093 288.23 566.711Z" fill="#54F4FC"/>
<path d="M293.731 562.012C297.035 562.012 299.723 564.119 299.723 566.709C299.723 569.299 297.035 571.406 293.731 571.406C290.428 571.406 287.74 569.299 287.74 566.709C287.74 564.119 290.428 562.012 293.731 562.012ZM293.731 570.636C296.493 570.636 298.741 568.875 298.741 566.709C298.741 564.543 296.493 562.782 293.731 562.782C290.969 562.782 288.722 564.543 288.722 566.709C288.722 568.875 290.969 570.636 293.731 570.636Z" fill="#54F4FC"/>
<path d="M313.372 578.55C310.863 578.55 308.829 580.144 308.829 582.111C308.829 584.078 310.863 585.672 313.372 585.672C315.88 585.672 317.914 584.078 317.914 582.111C317.914 580.144 315.88 578.55 313.372 578.55Z" fill="#54F4FC"/>
<path d="M313.373 578.162C316.148 578.162 318.406 579.933 318.406 582.109C318.406 584.285 316.148 586.055 313.373 586.055C310.598 586.055 308.34 584.285 308.34 582.109C308.34 579.933 310.598 578.162 313.373 578.162ZM313.373 585.285C315.607 585.285 317.424 583.86 317.424 582.109C317.424 580.358 315.607 578.933 313.373 578.933C311.139 578.933 309.322 580.358 309.322 582.109C309.322 583.86 311.139 585.285 313.373 585.285Z" fill="#54F4FC"/>
<path d="M131.649 452.105C131.649 449.777 134.056 447.89 137.026 447.89C139.995 447.89 142.402 449.777 142.402 452.105C142.402 454.433 139.995 456.32 137.026 456.32C134.056 456.32 131.649 454.433 131.649 452.105Z" fill="#54F4FC"/>
<path d="M137.023 447.503C140.258 447.503 142.891 449.567 142.891 452.103C142.891 454.64 140.258 456.703 137.023 456.703C133.788 456.703 131.156 454.639 131.156 452.103C131.156 449.567 133.788 447.503 137.023 447.503ZM137.023 455.933C139.717 455.933 141.908 454.215 141.908 452.103C141.908 449.991 139.717 448.273 137.023 448.273C134.33 448.273 132.138 449.991 132.138 452.103C132.138 454.215 134.329 455.933 137.023 455.933Z" fill="#54F4FC"/>
<path d="M286.749 447.132C283.243 447.132 280.401 449.36 280.401 452.109C280.401 454.858 283.243 457.086 286.749 457.086C290.255 457.086 293.098 454.858 293.098 452.109C293.098 449.36 290.255 447.132 286.749 447.132Z" fill="#54F4FC"/>
<path d="M286.746 446.745C290.518 446.745 293.586 449.15 293.586 452.107C293.586 455.064 290.518 457.469 286.746 457.469C282.975 457.469 279.907 455.063 279.907 452.107C279.907 449.15 282.975 446.745 286.746 446.745ZM286.746 456.699C289.976 456.699 292.604 454.639 292.604 452.107C292.604 449.575 289.976 447.515 286.746 447.515C283.517 447.515 280.889 449.575 280.889 452.107C280.889 454.639 283.517 456.699 286.746 456.699Z" fill="#54F4FC"/>
<path d="M306.39 464.169C304.036 464.169 302.128 465.665 302.128 467.51C302.128 469.356 304.036 470.852 306.39 470.852C308.744 470.852 310.652 469.356 310.652 467.51C310.652 465.665 308.744 464.169 306.39 464.169Z" fill="#54F4FC"/>
<path d="M306.391 463.782C309.012 463.782 311.145 465.454 311.145 467.508C311.145 469.563 309.012 471.234 306.391 471.234C303.771 471.234 301.638 469.563 301.638 467.508C301.639 465.454 303.771 463.782 306.391 463.782ZM306.391 470.465C308.471 470.465 310.162 469.139 310.162 467.508C310.162 465.878 308.471 464.552 306.391 464.552C304.312 464.552 302.621 465.878 302.621 467.508C302.621 469.138 304.312 470.465 306.391 470.465Z" fill="#54F4FC"/>
<path d="M306.387 521.328C303.591 521.328 301.324 523.105 301.324 525.297C301.324 527.489 303.591 529.266 306.387 529.266C309.183 529.266 311.449 527.489 311.449 525.297C311.449 523.105 309.183 521.328 306.387 521.328Z" fill="#54F4FC"/>
<path d="M306.388 520.941C309.45 520.941 311.941 522.894 311.941 525.295C311.941 527.695 309.45 529.648 306.388 529.648C303.326 529.648 300.835 527.695 300.835 525.295C300.835 522.894 303.326 520.941 306.388 520.941ZM306.388 528.879C308.909 528.879 310.959 527.271 310.959 525.295C310.959 523.319 308.909 521.711 306.388 521.711C303.867 521.711 301.817 523.319 301.817 525.295C301.817 527.271 303.868 528.879 306.388 528.879Z" fill="#54F4FC"/>
<path d="M326.033 536.871C323.335 536.871 321.148 538.586 321.148 540.701C321.148 542.816 323.335 544.531 326.033 544.531C328.731 544.531 330.918 542.816 330.918 540.701C330.918 538.586 328.731 536.871 326.033 536.871Z" fill="#54F4FC"/>
<path d="M326.034 536.485C328.999 536.485 331.41 538.375 331.41 540.7C331.41 543.023 328.999 544.914 326.034 544.914C323.069 544.914 320.658 543.023 320.658 540.699C320.658 538.375 323.069 536.485 326.034 536.485ZM326.034 544.144C328.457 544.144 330.428 542.599 330.428 540.7C330.428 538.8 328.456 537.254 326.034 537.254C323.611 537.254 321.64 538.8 321.64 540.699C321.64 542.599 323.611 544.144 326.034 544.144Z" fill="#54F4FC"/>
<path d="M408.966 537.097C406.428 537.097 404.37 538.711 404.37 540.701C404.37 542.691 406.428 544.305 408.966 544.305C411.505 544.305 413.563 542.691 413.563 540.701C413.563 538.711 411.505 537.097 408.966 537.097Z" fill="#54F4FC"/>
<path d="M408.967 536.71C411.773 536.71 414.055 538.5 414.055 540.699C414.055 542.898 411.772 544.687 408.967 544.687C406.162 544.687 403.88 542.898 403.88 540.699C403.88 538.5 406.162 536.71 408.967 536.71ZM408.967 543.918C411.231 543.918 413.073 542.474 413.073 540.699C413.073 538.924 411.231 537.48 408.967 537.48C406.703 537.48 404.862 538.924 404.862 540.699C404.862 542.474 406.703 543.918 408.967 543.918Z" fill="#54F4FC"/>
<path d="M421.269 556.094C421.269 553.16 424.303 550.782 428.045 550.782C431.786 550.782 434.82 553.16 434.82 556.094C434.82 559.028 431.787 561.406 428.045 561.406C424.303 561.406 421.269 559.028 421.269 556.094Z" fill="#54F4FC"/>
<path d="M428.046 550.395C432.052 550.395 435.313 552.95 435.313 556.092C435.313 559.233 432.052 561.789 428.046 561.789C424.039 561.789 420.779 559.233 420.779 556.092C420.779 552.951 424.039 550.395 428.046 550.395ZM428.046 561.019C431.511 561.019 434.33 558.808 434.33 556.092C434.33 553.375 431.511 551.165 428.046 551.165C424.58 551.165 421.761 553.375 421.761 556.092C421.761 558.808 424.58 561.019 428.046 561.019Z" fill="#54F4FC"/>
<path d="M39.2462 401.975C36.5021 401.975 34.2775 403.719 34.2775 405.87C34.2775 408.022 36.5021 409.766 39.2462 409.766C41.9903 409.766 44.2148 408.022 44.2148 405.87C44.2148 403.719 41.9903 401.975 39.2462 401.975Z" fill="#54F4FC"/>
<path d="M39.2468 401.588C42.2576 401.588 44.707 403.508 44.707 405.868C44.707 408.228 42.2576 410.148 39.2468 410.148C36.2361 410.148 33.7875 408.228 33.7875 405.868C33.7871 403.507 36.2361 401.588 39.2468 401.588ZM39.2468 409.378C41.7154 409.378 43.7249 407.803 43.7249 405.868C43.7249 403.932 41.7154 402.357 39.2468 402.357C36.7782 402.357 34.7697 403.932 34.7697 405.868C34.7692 407.803 36.7777 409.378 39.2468 409.378Z" fill="#54F4FC"/>
<path d="M205.149 405.866C205.149 403.798 207.287 402.122 209.924 402.122C212.561 402.122 214.699 403.798 214.699 405.866C214.699 407.933 212.562 409.609 209.924 409.609C207.287 409.609 205.149 407.933 205.149 405.866Z" fill="#54F4FC"/>
<path d="M209.921 401.735C212.825 401.735 215.188 403.588 215.188 405.864C215.188 408.14 212.825 409.992 209.921 409.992C207.018 409.992 204.655 408.14 204.655 405.864C204.655 403.588 207.018 401.735 209.921 401.735ZM209.921 409.223C212.284 409.223 214.205 407.716 214.205 405.864C214.205 404.012 212.284 402.506 209.921 402.506C207.559 402.506 205.637 404.012 205.637 405.864C205.637 407.716 207.559 409.223 209.921 409.223Z" fill="#54F4FC"/>
<path d="M229.562 417.165C226.673 417.165 224.331 419.001 224.331 421.266C224.331 423.531 226.673 425.367 229.562 425.367C232.451 425.367 234.793 423.531 234.793 421.266C234.793 419.001 232.451 417.165 229.562 417.165Z" fill="#54F4FC"/>
<path d="M229.563 416.778C232.718 416.778 235.285 418.791 235.285 421.264C235.285 423.737 232.718 425.75 229.563 425.75C226.409 425.75 223.841 423.737 223.841 421.264C223.841 418.791 226.408 416.778 229.563 416.778ZM229.563 424.98C232.177 424.98 234.303 423.313 234.303 421.264C234.303 419.215 232.177 417.548 229.563 417.548C226.95 417.548 224.823 419.215 224.823 421.264C224.823 423.313 226.95 424.98 229.563 424.98Z" fill="#54F4FC"/>
<path d="M32.298 287.457C32.298 284.447 35.4099 282.008 39.2486 282.008C43.0873 282.008 46.1992 284.448 46.1992 287.457C46.1992 290.466 43.0873 292.906 39.2486 292.906C35.4094 292.906 32.298 290.466 32.298 287.457Z" fill="#54F4FC"/>
<path d="M39.2458 281.621C43.3487 281.621 46.6875 284.238 46.6875 287.455C46.6875 290.672 43.3487 293.289 39.2458 293.289C35.1424 293.289 31.8051 290.671 31.8051 287.455C31.8046 284.238 35.1424 281.621 39.2458 281.621ZM39.2458 292.519C42.808 292.519 45.7054 290.248 45.7054 287.455C45.7054 284.662 42.808 282.39 39.2458 282.39C35.6845 282.39 32.7872 284.662 32.7872 287.455C32.7872 290.248 35.6845 292.519 39.2458 292.519Z" fill="#54F4FC"/>
<path d="M123.824 287.458C123.824 285.286 126.07 283.526 128.84 283.526C131.61 283.526 133.855 285.286 133.855 287.458C133.855 289.63 131.61 291.391 128.84 291.391C126.07 291.391 123.824 289.63 123.824 287.458Z" fill="#54F4FC"/>
<path d="M128.84 283.138C131.877 283.138 134.348 285.075 134.348 287.456C134.348 289.836 131.877 291.773 128.84 291.773C125.803 291.773 123.333 289.836 123.333 287.456C123.333 285.075 125.803 283.138 128.84 283.138ZM128.84 291.003C131.336 291.003 133.366 289.412 133.366 287.456C133.366 285.499 131.336 283.908 128.84 283.908C126.345 283.908 124.315 285.499 124.315 287.456C124.315 289.412 126.345 291.003 128.84 291.003Z" fill="#54F4FC"/>
<path d="M148.488 267.12C145.007 267.12 142.186 269.332 142.186 272.06C142.186 274.788 145.007 277 148.488 277C151.968 277 154.789 274.788 154.789 272.06C154.789 269.332 151.968 267.12 148.488 267.12Z" fill="#54F4FC"/>
<path d="M148.485 266.732C152.23 266.732 155.277 269.121 155.277 272.057C155.277 274.994 152.23 277.383 148.485 277.383C144.739 277.383 141.692 274.994 141.692 272.057C141.692 269.121 144.739 266.732 148.485 266.732ZM148.485 276.612C151.689 276.612 154.295 274.568 154.295 272.057C154.295 269.546 151.689 267.502 148.485 267.502C145.282 267.502 142.675 269.546 142.675 272.057C142.675 274.568 145.281 276.612 148.485 276.612Z" fill="#54F4FC"/>
<path d="M0.49599 343.581C0.495991 341.922 2.21184 340.577 4.32786 340.577C6.44438 340.577 8.16016 341.922 8.16016 343.581C8.16016 345.241 6.44438 346.586 4.32786 346.586C2.21184 346.586 0.49599 345.241 0.49599 343.581Z" fill="#54F4FC"/>
<path d="M4.32556 340.19C6.70872 340.19 8.64844 341.711 8.64844 343.58C8.64844 345.448 6.70921 346.969 4.32555 346.969C1.94092 346.969 0.00165189 345.448 0.00165221 343.58C0.00165253 341.711 1.94141 340.19 4.32556 340.19ZM4.32555 346.199C6.16805 346.199 7.6663 345.024 7.6663 343.58C7.6663 342.135 6.16805 340.961 4.32556 340.961C2.48306 340.961 0.983794 342.136 0.983793 343.58C0.983793 345.024 2.48306 346.199 4.32555 346.199Z" fill="#54F4FC"/>
<path d="M82.4592 340.053C79.9709 340.053 77.9537 341.634 77.9537 343.585C77.9537 345.536 79.9709 347.117 82.4592 347.117C84.9476 347.117 86.9648 345.536 86.9648 343.585C86.9648 341.634 84.9476 340.053 82.4592 340.053Z" fill="#54F4FC"/>
<path d="M82.4599 339.666C85.2153 339.666 87.457 341.423 87.457 343.583C87.457 345.743 85.2153 347.5 82.4599 347.5C79.7055 347.5 77.4638 345.743 77.4638 343.583C77.4638 341.423 79.705 339.666 82.4599 339.666ZM82.4599 346.73C84.6736 346.73 86.4749 345.318 86.4749 343.583C86.4749 341.847 84.6736 340.436 82.4599 340.436C80.2461 340.436 78.4459 341.847 78.4459 343.583C78.4459 345.318 80.2461 346.73 82.4599 346.73Z" fill="#54F4FC"/>
<path d="M96.2716 328.186C96.2716 325.662 98.8822 323.615 102.103 323.615C105.323 323.615 107.934 325.662 107.934 328.186C107.934 330.711 105.323 332.758 102.103 332.758C98.8822 332.758 96.2716 330.711 96.2716 328.186Z" fill="#54F4FC"/>
<path d="M102.103 323.228C105.59 323.228 108.426 325.452 108.426 328.184C108.426 330.917 105.59 333.141 102.103 333.141C98.6176 333.141 95.7817 330.917 95.7817 328.184C95.7812 325.452 98.6176 323.228 102.103 323.228ZM102.103 332.371C105.048 332.371 107.444 330.493 107.444 328.184C107.444 325.876 105.048 323.998 102.103 323.998C99.1588 323.998 96.7638 325.876 96.7638 328.184C96.7633 330.493 99.1583 332.371 102.103 332.371Z" fill="#54F4FC"/>
<path d="M95.8044 241.263C95.8044 238.535 98.6256 236.323 102.105 236.323C105.586 236.323 108.406 238.535 108.406 241.263C108.406 243.992 105.585 246.203 102.105 246.203C98.6256 246.203 95.8044 243.991 95.8044 241.263Z" fill="#54F4FC"/>
<path d="M102.106 235.935C105.851 235.935 108.898 238.324 108.898 241.261C108.898 244.197 105.851 246.586 102.106 246.586C98.3615 246.586 95.3145 244.197 95.3145 241.261C95.314 238.324 98.3615 235.935 102.106 235.935ZM102.106 245.815C105.309 245.815 107.916 243.772 107.916 241.26C107.916 238.749 105.309 236.705 102.106 236.705C98.9022 236.705 96.2966 238.749 96.2966 241.26C96.2961 243.772 98.9022 245.815 102.106 245.815Z" fill="#54F4FC"/>
<path d="M121.752 221.448C118.646 221.448 116.128 223.422 116.128 225.857C116.128 228.292 118.646 230.266 121.752 230.266C124.857 230.266 127.375 228.292 127.375 225.857C127.375 223.422 124.857 221.448 121.752 221.448Z" fill="#54F4FC"/>
<path d="M121.749 221.062C125.12 221.062 127.863 223.212 127.863 225.855C127.863 228.498 125.12 230.648 121.749 230.648C118.378 230.648 115.635 228.498 115.635 225.855C115.634 223.212 118.377 221.062 121.749 221.062ZM121.749 229.879C124.579 229.879 126.881 228.074 126.881 225.855C126.881 223.636 124.579 221.832 121.749 221.832C118.918 221.832 116.617 223.636 116.617 225.855C116.616 228.074 118.918 229.879 121.749 229.879Z" fill="#54F4FC"/>
<path d="M175.005 222.961C172.96 222.961 171.303 224.26 171.303 225.863C171.303 227.466 172.96 228.766 175.005 228.766C177.049 228.766 178.707 227.466 178.707 225.863C178.707 224.26 177.049 222.961 175.005 222.961Z" fill="#54F4FC"/>
<path d="M175.002 222.574C177.314 222.574 179.195 224.048 179.195 225.861C179.195 227.674 177.314 229.148 175.002 229.148C172.69 229.148 170.809 227.674 170.809 225.861C170.809 224.048 172.69 222.574 175.002 222.574ZM175.002 228.379C176.773 228.379 178.213 227.249 178.213 225.861C178.213 224.473 176.773 223.344 175.002 223.344C173.232 223.344 171.791 224.473 171.791 225.861C171.791 227.249 173.231 228.379 175.002 228.379Z" fill="#54F4FC"/>
<path d="M189.86 210.458C189.86 208.386 192.003 206.706 194.647 206.706C197.291 206.706 199.434 208.386 199.434 210.458C199.434 212.531 197.291 214.211 194.647 214.211C192.003 214.211 189.86 212.53 189.86 210.458Z" fill="#54F4FC"/>
<path d="M194.644 206.318C197.554 206.318 199.922 208.174 199.922 210.456C199.922 212.737 197.554 214.594 194.644 214.594C191.733 214.594 189.366 212.737 189.366 210.456C189.366 208.174 191.733 206.318 194.644 206.318ZM194.644 213.824C197.012 213.824 198.94 212.313 198.94 210.456C198.94 208.599 197.012 207.088 194.644 207.088C192.275 207.088 190.348 208.599 190.348 210.456C190.348 212.313 192.275 213.824 194.644 213.824Z" fill="#54F4FC"/>
<path d="M189.53 160.497C189.53 158.282 191.82 156.487 194.646 156.487C197.471 156.487 199.762 158.282 199.762 160.497C199.762 162.712 197.471 164.508 194.646 164.508C191.82 164.508 189.53 162.712 189.53 160.497Z" fill="#54F4FC"/>
<path d="M194.643 156.099C197.735 156.099 200.25 158.071 200.25 160.495C200.25 162.918 197.735 164.891 194.643 164.891C191.551 164.891 189.036 162.918 189.036 160.495C189.036 158.071 191.551 156.099 194.643 156.099ZM194.643 164.12C197.193 164.12 199.268 162.494 199.268 160.495C199.268 158.496 197.193 156.869 194.643 156.869C192.093 156.869 190.018 158.496 190.018 160.495C190.018 162.494 192.092 164.12 194.643 164.12Z" fill="#54F4FC"/>
<path d="M175.005 141.844C172.71 141.844 170.849 143.302 170.849 145.102C170.849 146.901 172.71 148.359 175.005 148.359C177.3 148.359 179.16 146.901 179.16 145.102C179.16 143.302 177.3 141.844 175.005 141.844Z" fill="#54F4FC"/>
<path d="M175.002 141.457C177.564 141.457 179.648 143.09 179.648 145.1C179.648 147.108 177.564 148.742 175.002 148.742C172.44 148.742 170.355 147.108 170.355 145.1C170.355 143.09 172.44 141.457 175.002 141.457ZM175.002 147.972C177.022 147.972 178.666 146.683 178.666 145.1C178.666 143.515 177.022 142.226 175.002 142.226C172.982 142.226 171.338 143.515 171.338 145.1C171.338 146.683 172.982 147.972 175.002 147.972Z" fill="#54F4FC"/>
<path d="M128.734 141.736C126.366 141.736 124.445 143.242 124.445 145.099C124.445 146.956 126.366 148.461 128.734 148.461C131.103 148.461 133.023 146.956 133.023 145.099C133.023 143.242 131.103 141.736 128.734 141.736Z" fill="#54F4FC"/>
<path d="M128.732 141.348C131.367 141.348 133.512 143.03 133.512 145.096C133.512 147.163 131.367 148.844 128.732 148.844C126.096 148.844 123.952 147.163 123.952 145.096C123.952 143.03 126.096 141.348 128.732 141.348ZM128.732 148.074C130.827 148.074 132.53 146.738 132.53 145.096C132.53 143.454 130.826 142.119 128.732 142.119C126.637 142.119 124.934 143.454 124.934 145.096C124.934 146.738 126.637 148.074 128.732 148.074Z" fill="#54F4FC"/>
<path d="M102.814 129.697C102.814 126.979 105.624 124.776 109.091 124.776C112.557 124.776 115.367 126.979 115.367 129.697C115.367 132.414 112.557 134.617 109.091 134.617C105.624 134.617 102.814 132.414 102.814 129.697Z" fill="#54F4FC"/>
<path d="M109.088 124.389C112.82 124.389 115.855 126.768 115.855 129.694C115.855 132.62 112.82 135 109.088 135C105.357 135 102.322 132.62 102.322 129.694C102.322 126.769 105.357 124.389 109.088 124.389ZM109.088 134.23C112.278 134.23 114.873 132.195 114.873 129.694C114.873 127.193 112.278 125.159 109.088 125.159C105.898 125.159 103.304 127.194 103.304 129.694C103.304 132.195 105.898 134.23 109.088 134.23Z" fill="#54F4FC"/>
</g>
</g>
<defs>
<clipPath id="clip0_203_20497">
<rect width="735.914" height="654.316" fill="white"/>
</clipPath>
</defs>
</svg>
