<svg width="438" height="1037" viewBox="0 0 438 1037" fill="none" xmlns="http://www.w3.org/2000/svg">
<g clip-path="url(#clip0_203_12236)">
<g opacity="0.08">
<path d="M223.089 438.818L70.3113 438.818C60.0219 438.818 51.6507 428.425 51.6507 415.65V349.536C51.6507 335.417 42.3984 323.93 31.0257 323.93L-57.149 323.93C-67.4384 323.93 -75.8096 313.538 -75.8096 300.763V147.942C-75.8096 133.823 -85.0619 122.336 -96.4346 122.336L-298.537 122.336V124.775L-96.4346 124.775C-86.1452 124.775 -77.7739 135.167 -77.7739 147.942V300.764C-77.7739 314.883 -68.5217 326.369 -57.149 326.369L31.0257 326.369C41.3151 326.369 49.6864 336.762 49.6864 349.537V415.651C49.6864 429.77 58.9386 441.257 70.3113 441.257L223.089 441.257C233.378 441.257 241.749 451.649 241.749 464.424V492.468C241.749 505.243 233.378 515.635 223.089 515.635L-298.537 515.635V518.073L223.089 518.073C234.461 518.073 243.714 506.587 243.714 492.468V464.423C243.714 450.304 234.461 438.818 223.089 438.818Z" fill="#176DB3"/>
<path d="M168.416 0V643.26C168.416 656.035 160.045 666.427 149.756 666.427H42.3748C31.0021 666.427 21.7499 677.915 21.7499 692.033V933.729C21.7499 946.503 13.3786 956.896 3.08919 956.896L-197.704 956.896C-207.994 956.896 -216.365 946.503 -216.365 933.729V663.853C-216.365 649.734 -225.617 638.247 -236.99 638.247H-298.537V640.686H-236.99C-226.7 640.686 -218.329 651.079 -218.329 663.853V933.729C-218.329 947.847 -209.077 959.335 -197.704 959.335L3.08919 959.335C14.4619 959.335 23.7142 947.847 23.7142 933.729V692.033C23.7142 679.258 32.0854 668.866 42.3748 668.866H149.756C161.128 668.866 170.381 657.379 170.381 643.26V0L168.416 0Z" fill="#176DB3"/>
<path d="M-165.075 369.051V589.071C-165.075 603.19 -155.823 614.677 -144.45 614.677L83.4067 614.677C93.6961 614.677 102.067 625.07 102.067 637.844V751.647C102.067 765.766 111.32 777.253 122.692 777.253H179.439C189.728 777.253 198.099 787.645 198.099 800.42L198.099 1036.15H200.063L200.063 800.419C200.063 786.301 190.811 774.814 179.439 774.814H122.692C112.403 774.814 104.032 764.421 104.032 751.646V637.843C104.032 623.725 94.7794 612.238 83.4067 612.238L-144.45 612.238C-154.739 612.238 -163.111 601.845 -163.111 589.071V369.051C-163.111 354.932 -172.363 343.445 -183.736 343.445L-298.537 343.445V345.884L-183.736 345.884C-173.446 345.884 -165.075 356.277 -165.075 369.051Z" fill="#176DB3"/>
<path d="M95.0834 0V68.8242C95.0834 81.5988 86.7121 91.9914 76.4227 91.9914L-51.9102 91.9914C-62.1996 91.9914 -70.5709 81.5988 -70.5709 68.8242V0L-72.5352 0V68.8242C-72.5352 82.9433 -63.2829 94.43 -51.9102 94.43L76.4227 94.43C87.7954 94.43 97.0477 82.9433 97.0477 68.8242V0L95.0834 0Z" fill="#176DB3"/>
<path d="M241.749 0V257.412C241.749 270.187 233.378 280.58 223.089 280.58L115.708 280.58C105.418 280.58 97.0472 270.187 97.0472 257.412V249.825C97.0472 235.706 87.7949 224.22 76.4222 224.22L37.1366 224.22C25.7639 224.22 16.5116 235.706 16.5116 249.825V361.461C16.5116 375.58 25.7639 387.067 37.1366 387.067L102.613 387.067C112.902 387.067 121.274 397.459 121.274 410.234V547.881C121.274 562 130.526 573.487 141.899 573.487L205.628 573.487C215.918 573.487 224.289 583.879 224.289 596.654V694.2C224.289 706.974 215.918 717.367 205.628 717.367L-298.537 717.367V719.806L205.629 719.806C217.001 719.806 226.254 708.318 226.254 694.2V596.654C226.254 582.536 217.001 571.048 205.629 571.048L141.899 571.048C131.609 571.048 123.238 560.656 123.238 547.881V410.234C123.238 396.115 113.986 384.628 102.613 384.628L37.1366 384.628C26.8472 384.628 18.4759 374.235 18.4759 361.461V249.825C18.4759 237.051 26.8472 226.658 37.1366 226.658L76.4222 226.658C86.7116 226.658 95.0829 237.051 95.0829 249.825V257.412C95.0829 271.532 104.335 283.018 115.708 283.018L223.089 283.018C234.461 283.018 243.714 271.532 243.714 257.412V0L241.749 0Z" fill="#176DB3"/>
<path d="M-173.805 926.139V977.08C-173.805 991.198 -164.553 1002.69 -153.18 1002.69L57.2165 1002.69C68.5892 1002.69 77.8414 991.198 77.8414 977.08V882.786C77.8414 870.012 86.2127 859.619 96.5021 859.619L235.311 859.619C245.6 859.619 253.972 870.012 253.972 882.786V1036.15H255.936V882.785C255.936 868.667 246.684 857.18 235.311 857.18L96.5021 857.18C85.1294 857.18 75.8771 868.667 75.8771 882.785V977.079C75.8771 989.853 67.5059 1000.25 57.2165 1000.25L-153.18 1000.25C-163.47 1000.25 -171.841 989.853 -171.841 977.079V926.139C-171.841 912.02 -181.093 900.533 -192.466 900.533L-298.537 900.533V902.972L-192.466 902.972C-182.176 902.972 -173.805 913.365 -173.805 926.139Z" fill="#176DB3"/>
<path d="M124.984 1036.15V965.16C124.984 952.387 133.355 941.993 143.644 941.993L377.176 941.993V939.555L143.644 939.555C132.272 939.555 123.02 951.042 123.02 965.16V1036.15H124.984Z" fill="#176DB3"/>
<path d="M124.984 114.345V0L123.02 0V114.345C123.02 128.464 132.272 139.951 143.644 139.951L344.001 139.951V137.512L143.644 137.512C133.355 137.512 124.984 127.119 124.984 114.345Z" fill="#176DB3"/>
<path d="M131.968 295.821V204.304C131.968 190.184 122.716 178.698 111.343 178.698L28.4069 178.698C23.449 178.698 18.8319 176.286 15.4043 171.907C11.9776 167.527 10.169 161.728 10.3119 155.576C10.3237 155.074 11.486 104.717 11.9933 54.2127C12.2197 31.7032 12.2712 13.9759 12.2045 0L10.2485 0C10.4479 43.7981 9.47215 107.148 8.34858 155.506C8.18997 162.323 10.1955 168.751 13.9954 173.607C17.7958 178.463 22.9137 181.137 28.4069 181.137L111.343 181.137C121.633 181.137 130.004 191.53 130.004 204.304V295.821C130.004 309.94 139.256 321.427 150.629 321.427L300.351 321.427V318.988L150.629 318.988C140.339 318.988 131.968 308.595 131.968 295.821Z" fill="#176DB3"/>
<path d="M208.793 369.048V0L206.829 0V369.048C206.829 383.167 216.081 394.654 227.454 394.654L398.129 394.654V392.215L227.454 392.215C217.165 392.215 208.793 381.822 208.793 369.048Z" fill="#176DB3"/>
<path d="M289.874 1036.15V605.324C289.874 592.55 298.246 582.157 308.535 582.157L398.128 582.157V579.719L308.535 579.719C297.163 579.719 287.91 591.206 287.91 605.324V1036.15H289.874Z" fill="#176DB3"/>
<path d="M354.915 490.844C343.543 490.844 334.29 502.33 334.29 516.449V654.097C334.29 666.872 325.918 677.265 315.629 677.265H262.375C251.002 677.265 241.75 688.752 241.75 702.87V781.99C241.75 796.109 251.002 807.596 262.375 807.596H308.645C318.934 807.596 327.306 817.989 327.306 830.763V1036.15H329.27V830.764C329.27 816.645 320.017 805.158 308.645 805.158H262.375C252.086 805.158 243.714 794.765 243.714 781.991V702.871C243.714 690.097 252.086 679.704 262.375 679.704H315.629C327.001 679.704 336.254 668.217 336.254 654.098V516.449C336.254 503.675 344.625 493.282 354.915 493.282L433.048 493.282V490.844L354.915 490.844Z" fill="#176DB3"/>
<path d="M229.413 516.859C229.413 521.195 226.582 524.71 223.089 524.71C219.597 524.71 216.766 521.195 216.766 516.859C216.766 512.523 219.597 509.008 223.089 509.008C226.582 509.008 229.413 512.523 229.413 516.859Z" fill="#54F4FC"/>
<path d="M223.089 525.319C219.332 525.319 216.274 521.525 216.274 516.859C216.274 512.194 219.332 508.398 223.089 508.398C226.846 508.398 229.904 512.194 229.904 516.859C229.904 521.525 226.847 525.319 223.089 525.319ZM223.089 509.618C219.873 509.618 217.257 512.867 217.257 516.859C217.257 520.851 219.873 524.1 223.089 524.1C226.305 524.1 228.921 520.851 228.921 516.859C228.921 512.867 226.305 509.618 223.089 509.618Z" fill="#54F4FC"/>
<path d="M246.907 492.472C246.907 495.334 245.038 497.654 242.732 497.654C240.427 497.654 238.558 495.334 238.558 492.472C238.558 489.609 240.427 487.289 242.732 487.289C245.038 487.289 246.907 489.609 246.907 492.472Z" fill="#54F4FC"/>
<path d="M242.732 498.264C240.159 498.264 238.066 495.666 238.066 492.472C238.066 489.277 240.159 486.68 242.732 486.68C245.305 486.68 247.398 489.278 247.398 492.472C247.398 495.666 245.305 498.264 242.732 498.264ZM242.732 487.899C240.701 487.899 239.049 489.95 239.049 492.472C239.049 494.993 240.701 497.045 242.732 497.045C244.763 497.045 246.416 494.993 246.416 492.472C246.416 489.95 244.763 487.899 242.732 487.899Z" fill="#54F4FC"/>
<path d="M248.953 464.428C248.953 468.694 246.168 472.153 242.731 472.153C239.295 472.153 236.509 468.694 236.509 464.428C236.509 460.161 239.295 456.703 242.731 456.703C246.168 456.703 248.953 460.161 248.953 464.428Z" fill="#54F4FC"/>
<path d="M242.731 472.763C239.029 472.763 236.018 469.024 236.018 464.428C236.018 459.832 239.029 456.094 242.731 456.094C246.433 456.094 249.444 459.832 249.444 464.428C249.444 469.024 246.433 472.763 242.731 472.763ZM242.731 457.313C239.57 457.313 237 460.505 237 464.428C237 468.351 239.57 471.543 242.731 471.543C245.892 471.543 248.462 468.351 248.462 464.428C248.462 460.505 245.892 457.313 242.731 457.313Z" fill="#54F4FC"/>
<path d="M229.209 440.043C229.209 444.239 226.47 447.64 223.089 447.64C219.709 447.64 216.97 444.239 216.97 440.043C216.97 435.847 219.709 432.445 223.089 432.445C226.47 432.445 229.209 435.846 229.209 440.043Z" fill="#54F4FC"/>
<path d="M223.089 448.25C219.444 448.25 216.479 444.568 216.479 440.043C216.479 435.518 219.444 431.836 223.089 431.836C226.735 431.836 229.7 435.518 229.7 440.043C229.7 444.568 226.735 448.25 223.089 448.25ZM223.089 433.055C219.986 433.055 217.461 436.19 217.461 440.043C217.461 443.896 219.986 447.031 223.089 447.031C226.193 447.031 228.718 443.896 228.718 440.043C228.718 436.19 226.193 433.055 223.089 433.055Z" fill="#54F4FC"/>
<path d="M74.9818 440.041C74.9818 443.243 72.8908 445.84 70.3112 445.84C67.7316 445.84 65.6406 443.244 65.6406 440.041C65.6406 436.838 67.7316 434.242 70.3112 434.242C72.8908 434.242 74.9818 436.838 74.9818 440.041Z" fill="#54F4FC"/>
<path d="M70.3121 446.449C67.4658 446.449 65.1504 443.574 65.1504 440.041C65.1504 436.508 67.4658 433.633 70.3121 433.633C73.1583 433.633 75.4742 436.508 75.4742 440.041C75.4742 443.574 73.1583 446.449 70.3121 446.449ZM70.3121 434.852C68.008 434.852 66.1325 437.179 66.1325 440.041C66.1325 442.903 68.0075 445.23 70.3121 445.23C72.6166 445.23 74.492 442.903 74.492 440.041C74.492 437.179 72.6166 434.852 70.3121 434.852Z" fill="#54F4FC"/>
<path d="M50.6684 423.546C54.1782 423.546 57.0234 420.013 57.0234 415.656C57.0234 411.298 54.1782 407.766 50.6684 407.766C47.1587 407.766 44.3135 411.298 44.3135 415.656C44.3135 420.013 47.1587 423.546 50.6684 423.546Z" fill="#54F4FC"/>
<path d="M50.6683 424.155C46.8934 424.155 43.8223 420.342 43.8223 415.656C43.8223 410.969 46.8934 407.156 50.6683 407.156C54.4436 407.156 57.5143 410.969 57.5143 415.656C57.5143 420.343 54.4432 424.155 50.6683 424.155ZM50.6683 408.376C47.4346 408.376 44.8044 411.642 44.8044 415.656C44.8044 419.671 47.4346 422.936 50.6683 422.936C53.902 422.936 56.5322 419.671 56.5322 415.656C56.5322 411.641 53.902 408.376 50.6683 408.376Z" fill="#54F4FC"/>
<path d="M50.6691 356.406C53.7241 356.406 56.2005 353.332 56.2005 349.539C56.2005 345.746 53.7241 342.672 50.6691 342.672C47.6142 342.672 45.1377 345.746 45.1377 349.539C45.1377 353.332 47.6142 356.406 50.6691 356.406Z" fill="#54F4FC"/>
<path d="M50.669 357.016C47.3479 357.016 44.6465 353.662 44.6465 349.539C44.6465 345.417 47.3479 342.062 50.669 342.062C53.9901 342.062 56.6915 345.416 56.6915 349.539C56.6915 353.663 53.9901 357.016 50.669 357.016ZM50.669 343.282C47.89 343.282 45.6286 346.089 45.6286 349.539C45.6286 352.989 47.8895 355.796 50.669 355.796C53.448 355.796 55.7093 352.989 55.7093 349.539C55.7093 346.089 53.448 343.282 50.669 343.282Z" fill="#54F4FC"/>
<path d="M35.3746 325.15C35.3746 328.132 33.4275 330.549 31.0252 330.549C28.6229 330.549 26.6758 328.132 26.6758 325.15C26.6758 322.167 28.6229 319.75 31.0252 319.75C33.4275 319.749 35.3746 322.167 35.3746 325.15Z" fill="#54F4FC"/>
<path d="M31.0255 331.16C28.3566 331.16 26.1855 328.464 26.1855 325.15C26.1855 321.836 28.3571 319.141 31.0255 319.141C33.695 319.141 35.866 321.836 35.866 325.15C35.866 328.464 33.6945 331.16 31.0255 331.16ZM31.0255 320.36C28.8982 320.36 27.1677 322.508 27.1677 325.15C27.1677 327.792 28.8982 329.94 31.0255 329.94C33.1534 329.94 34.8839 327.792 34.8839 325.15C34.8839 322.509 33.1534 320.36 31.0255 320.36Z" fill="#54F4FC"/>
<path d="M174.568 643.262C174.568 646.807 172.254 649.68 169.399 649.68C166.544 649.68 164.229 646.806 164.229 643.262C164.229 639.717 166.544 636.844 169.399 636.844C172.254 636.844 174.568 639.717 174.568 643.262Z" fill="#54F4FC"/>
<path d="M169.399 650.289C166.278 650.289 163.738 647.136 163.738 643.262C163.738 639.387 166.278 636.234 169.399 636.234C172.52 636.234 175.059 639.387 175.059 643.262C175.06 647.136 172.521 650.289 169.399 650.289ZM169.399 637.453C166.819 637.453 164.72 640.058 164.72 643.262C164.72 646.465 166.819 649.07 169.399 649.07C171.978 649.07 174.077 646.465 174.077 643.262C174.078 640.058 171.978 637.453 169.399 637.453Z" fill="#54F4FC"/>
<path d="M154.843 667.644C154.843 671.133 152.565 673.961 149.755 673.961C146.946 673.961 144.668 671.133 144.668 667.644C144.668 664.156 146.946 661.328 149.755 661.328C152.566 661.328 154.843 664.156 154.843 667.644Z" fill="#54F4FC"/>
<path d="M149.756 674.57C146.68 674.57 144.178 671.464 144.178 667.645C144.178 663.825 146.681 660.719 149.756 660.719C152.832 660.719 155.335 663.825 155.335 667.645C155.335 671.464 152.832 674.57 149.756 674.57ZM149.756 661.937C147.222 661.937 145.16 664.497 145.16 667.644C145.16 670.791 147.222 673.351 149.756 673.351C152.291 673.351 154.353 670.791 154.353 667.644C154.353 664.498 152.291 661.937 149.756 661.937Z" fill="#54F4FC"/>
<path d="M49.2747 667.644C49.2747 672.375 46.1853 676.21 42.3751 676.21C38.5644 676.21 35.4756 672.375 35.4756 667.644C35.4756 662.913 38.5644 659.078 42.3751 659.078C46.1858 659.078 49.2747 662.913 49.2747 667.644Z" fill="#54F4FC"/>
<path d="M42.375 676.82C38.2996 676.82 34.9844 672.704 34.9844 667.645C34.9844 662.585 38.2996 658.469 42.375 658.469C46.4504 658.469 49.7656 662.585 49.7656 667.645C49.7656 672.704 46.4504 676.82 42.375 676.82ZM42.375 659.688C38.8417 659.688 35.9665 663.258 35.9665 667.645C35.9665 672.031 38.8412 675.6 42.375 675.6C45.9082 675.6 48.7834 672.031 48.7834 667.645C48.7834 663.258 45.9082 659.688 42.375 659.688Z" fill="#54F4FC"/>
<path d="M28.1919 692.03C28.1919 695.774 25.7469 698.81 22.7307 698.81C19.7146 698.81 17.2695 695.775 17.2695 692.03C17.2695 688.286 19.7146 685.25 22.7307 685.25C25.7469 685.25 28.1919 688.286 28.1919 692.03Z" fill="#54F4FC"/>
<path d="M22.7315 699.42C19.4492 699.42 16.7793 696.105 16.7793 692.03C16.7793 687.956 19.4497 684.641 22.7315 684.641C26.0139 684.641 28.6838 687.956 28.6838 692.03C28.6838 696.105 26.0139 699.42 22.7315 699.42ZM22.7315 685.86C19.9909 685.86 17.7614 688.628 17.7614 692.03C17.7614 695.432 19.9909 698.201 22.7315 698.201C25.4722 698.201 27.7017 695.432 27.7017 692.03C27.7017 688.628 25.4722 685.86 22.7315 685.86Z" fill="#54F4FC"/>
<path d="M27.7207 933.725C27.7207 937.146 25.4868 939.919 22.7315 939.919C19.9761 939.919 17.7422 937.146 17.7422 933.725C17.7422 930.304 19.9761 927.531 22.7315 927.531C25.4868 927.531 27.7207 930.305 27.7207 933.725Z" fill="#54F4FC"/>
<path d="M22.7318 940.53C19.7103 940.53 17.252 937.478 17.252 933.726C17.252 929.974 19.7103 926.922 22.7318 926.922C25.7534 926.922 28.2117 929.974 28.2117 933.726C28.2117 937.478 25.7534 940.53 22.7318 940.53ZM22.7318 928.141C20.2514 928.141 18.2341 930.646 18.2341 933.725C18.2341 936.804 20.2514 939.31 22.7318 939.31C25.2122 939.31 27.2295 936.805 27.2295 933.725C27.2295 930.647 25.2122 928.141 22.7318 928.141Z" fill="#54F4FC"/>
<path d="M7.0163 958.118C7.0163 960.81 5.25826 962.993 3.0892 962.993C0.920146 962.993 -0.837891 960.81 -0.837891 958.118C-0.837891 955.425 0.920146 953.242 3.0892 953.242C5.25826 953.242 7.0163 955.425 7.0163 958.118Z" fill="#54F4FC"/>
<path d="M3.08906 963.603C0.652864 963.603 -1.3291 961.141 -1.3291 958.117C-1.3291 955.093 0.652864 952.633 3.08906 952.633C5.52527 952.633 7.50723 955.093 7.50723 958.117C7.50723 961.141 5.52527 963.603 3.08906 963.603ZM3.08906 953.851C1.19451 953.851 -0.34696 955.765 -0.34696 958.116C-0.34696 960.469 1.19451 962.383 3.08906 962.383C4.98361 962.383 6.52509 960.47 6.52509 958.116C6.52509 955.765 4.98411 953.851 3.08906 953.851Z" fill="#54F4FC"/>
<path d="M205.284 800.42C205.284 804.674 202.507 808.122 199.081 808.122C195.654 808.122 192.877 804.674 192.877 800.42C192.877 796.167 195.654 792.719 199.081 792.719C202.507 792.719 205.284 796.167 205.284 800.42Z" fill="#54F4FC"/>
<path d="M199.081 808.732C195.389 808.732 192.386 805.003 192.386 800.421C192.386 795.838 195.389 792.109 199.081 792.109C202.772 792.109 205.775 795.838 205.775 800.421C205.775 805.003 202.772 808.732 199.081 808.732ZM199.081 793.328C195.931 793.328 193.368 796.51 193.368 800.421C193.368 804.331 195.931 807.513 199.081 807.513C202.23 807.513 204.793 804.331 204.793 800.421C204.793 796.51 202.231 793.328 199.081 793.328Z" fill="#54F4FC"/>
<path d="M183.551 776.026C183.551 778.845 181.71 781.131 179.439 781.131C177.168 781.131 175.327 778.846 175.327 776.026C175.327 773.208 177.168 770.922 179.439 770.922C181.71 770.922 183.551 773.208 183.551 776.026Z" fill="#54F4FC"/>
<path d="M179.439 781.741C176.901 781.741 174.836 779.178 174.836 776.027C174.836 772.876 176.901 770.312 179.439 770.312C181.977 770.312 184.041 772.876 184.041 776.027C184.042 779.177 181.977 781.741 179.439 781.741ZM179.439 771.532C177.443 771.532 175.818 773.547 175.818 776.027C175.818 778.506 177.443 780.522 179.439 780.522C181.435 780.522 183.059 778.506 183.059 776.027C183.059 773.547 181.435 771.532 179.439 771.532Z" fill="#54F4FC"/>
<path d="M128.034 776.03C128.034 779.693 125.643 782.662 122.692 782.662C119.742 782.662 117.351 779.693 117.351 776.03C117.351 772.368 119.742 769.398 122.692 769.398C125.643 769.398 128.034 772.367 128.034 776.03Z" fill="#54F4FC"/>
<path d="M122.692 783.273C119.476 783.273 116.859 780.025 116.859 776.031C116.859 772.038 119.476 768.789 122.692 768.789C125.909 768.789 128.525 772.038 128.525 776.031C128.525 780.025 125.909 783.273 122.692 783.273ZM122.692 770.009C120.018 770.009 117.842 772.711 117.842 776.031C117.842 779.352 120.018 782.054 122.692 782.054C125.367 782.054 127.543 779.352 127.543 776.031C127.543 772.71 125.367 770.009 122.692 770.009Z" fill="#54F4FC"/>
<path d="M106.912 751.647C106.912 754.295 105.183 756.441 103.05 756.441C100.917 756.441 99.1875 754.295 99.1875 751.647C99.1875 748.998 100.917 746.852 103.05 746.852C105.182 746.852 106.912 748.999 106.912 751.647Z" fill="#54F4FC"/>
<path d="M103.05 757.052C100.649 757.052 98.6963 754.628 98.6963 751.647C98.6963 748.667 100.649 746.242 103.05 746.242C105.45 746.242 107.403 748.667 107.403 751.647C107.403 754.628 105.45 757.052 103.05 757.052ZM103.05 747.462C101.191 747.462 99.6784 749.34 99.6784 751.648C99.6784 753.955 101.191 755.833 103.05 755.833C104.908 755.833 106.421 753.955 106.421 751.648C106.421 749.34 104.908 747.462 103.05 747.462Z" fill="#54F4FC"/>
<path d="M108.733 637.836C108.733 641.733 106.188 644.891 103.05 644.891C99.9114 644.891 97.3672 641.733 97.3672 637.836C97.3672 633.94 99.9114 630.781 103.05 630.781C106.188 630.781 108.733 633.94 108.733 637.836Z" fill="#54F4FC"/>
<path d="M103.05 645.502C99.6451 645.502 96.876 642.063 96.876 637.837C96.876 633.611 99.6456 630.172 103.05 630.172C106.454 630.172 109.223 633.611 109.223 637.837C109.223 642.063 106.454 645.502 103.05 645.502ZM103.05 631.392C100.187 631.392 97.8581 634.283 97.8581 637.838C97.8581 641.392 100.187 644.283 103.05 644.283C105.912 644.283 108.241 641.392 108.241 637.838C108.241 634.283 105.912 631.392 103.05 631.392Z" fill="#54F4FC"/>
<path d="M87.6053 613.455C87.6053 616.335 85.725 618.669 83.4062 618.669C81.0869 618.669 79.207 616.335 79.207 613.455C79.207 610.576 81.0874 608.242 83.4062 608.242C85.725 608.242 87.6053 610.576 87.6053 613.455Z" fill="#54F4FC"/>
<path d="M83.4065 619.279C80.8201 619.279 78.7158 616.667 78.7158 613.457C78.7158 610.245 80.8201 607.633 83.4065 607.633C85.993 607.633 88.0967 610.245 88.0967 613.457C88.0967 616.666 85.9925 619.279 83.4065 619.279ZM83.4065 608.852C81.3617 608.852 79.698 610.918 79.698 613.457C79.698 615.995 81.3617 618.06 83.4065 618.06C85.4509 618.06 87.1146 615.995 87.1146 613.457C87.1146 610.917 85.4509 608.852 83.4065 608.852Z" fill="#54F4FC"/>
<path d="M82.3248 93.2102C82.3248 97.2567 79.6824 100.538 76.4227 100.538C73.1629 100.538 70.5205 97.2573 70.5205 93.2102C70.5205 89.1638 73.1629 85.8828 76.4227 85.8828C79.6824 85.8828 82.3248 89.1638 82.3248 93.2102Z" fill="#54F4FC"/>
<path d="M76.4225 101.147C72.8971 101.147 70.0293 97.5872 70.0293 93.2104C70.0293 88.8335 72.8971 85.2734 76.4225 85.2734C79.9479 85.2734 82.8158 88.8335 82.8158 93.2104C82.8158 97.5872 79.9479 101.147 76.4225 101.147ZM76.4225 86.4931C73.4393 86.4931 71.0114 89.507 71.0114 93.2104C71.0114 96.9143 73.4388 99.9277 76.4225 99.9277C79.4063 99.9277 81.8336 96.9137 81.8336 93.2104C81.8336 89.5064 79.4058 86.4931 76.4225 86.4931Z" fill="#54F4FC"/>
<path d="M101.142 68.8263C101.142 72.3071 98.869 75.1291 96.0655 75.1291C93.2615 75.1291 90.9883 72.3071 90.9883 68.8263C90.9883 65.3454 93.2615 62.5234 96.0655 62.5234C98.869 62.5234 101.142 65.3454 101.142 68.8263Z" fill="#54F4FC"/>
<path d="M96.0648 75.7394C92.9947 75.7394 90.4971 72.6388 90.4971 68.827C90.4971 65.0152 92.9947 61.9141 96.0648 61.9141C99.135 61.9141 101.633 65.0152 101.633 68.827C101.633 72.6382 99.135 75.7394 96.0648 75.7394ZM96.0648 63.1331C93.5368 63.1331 91.4792 65.6875 91.4792 68.8264C91.4792 71.966 93.5368 74.5192 96.0648 74.5192C98.5934 74.5192 100.651 71.9653 100.651 68.8264C100.651 65.6875 98.5938 63.1331 96.0648 63.1331Z" fill="#54F4FC"/>
<path d="M205.628 723.714C207.909 723.714 209.758 721.419 209.758 718.587C209.758 715.756 207.909 713.461 205.628 713.461C203.348 713.461 201.499 715.756 201.499 718.587C201.499 721.419 203.348 723.714 205.628 723.714Z" fill="#54F4FC"/>
<path d="M205.628 724.325C203.08 724.325 201.008 721.752 201.008 718.588C201.008 715.425 203.081 712.852 205.628 712.852C208.176 712.852 210.249 715.425 210.249 718.588C210.249 721.752 208.176 724.325 205.628 724.325ZM205.628 714.072C203.622 714.072 201.99 716.098 201.99 718.588C201.99 721.079 203.622 723.106 205.628 723.106C207.634 723.106 209.267 721.079 209.267 718.588C209.267 716.098 207.634 714.072 205.628 714.072Z" fill="#54F4FC"/>
<path d="M231.269 694.197C231.269 698.31 228.584 701.644 225.271 701.644C221.958 701.644 219.272 698.31 219.272 694.197C219.272 690.084 221.958 686.75 225.271 686.75C228.584 686.75 231.269 690.085 231.269 694.197Z" fill="#54F4FC"/>
<path d="M225.272 702.253C221.693 702.253 218.782 698.64 218.782 694.197C218.782 689.754 221.693 686.141 225.272 686.141C228.85 686.141 231.761 689.754 231.761 694.197C231.761 698.639 228.85 702.253 225.272 702.253ZM225.272 687.36C222.235 687.36 219.764 690.427 219.764 694.197C219.764 697.967 222.235 701.034 225.272 701.034C228.308 701.034 230.779 697.967 230.779 694.197C230.779 690.427 228.308 687.36 225.272 687.36Z" fill="#54F4FC"/>
<path d="M229.905 596.658C229.905 599.835 227.831 602.41 225.272 602.41C222.713 602.41 220.639 599.835 220.639 596.658C220.639 593.481 222.713 590.906 225.272 590.906C227.831 590.906 229.905 593.481 229.905 596.658Z" fill="#54F4FC"/>
<path d="M225.272 603.02C222.446 603.02 220.147 600.165 220.147 596.658C220.147 593.15 222.446 590.297 225.272 590.297C228.097 590.297 230.396 593.15 230.396 596.658C230.396 600.165 228.097 603.02 225.272 603.02ZM225.272 591.516C222.988 591.516 221.13 593.822 221.13 596.658C221.13 599.494 222.988 601.801 225.272 601.801C227.555 601.801 229.413 599.494 229.413 596.658C229.413 593.822 227.555 591.516 225.272 591.516Z" fill="#54F4FC"/>
<path d="M205.63 579.594C208.888 579.594 211.529 576.315 211.529 572.27C211.529 568.225 208.888 564.945 205.63 564.945C202.372 564.945 199.73 568.225 199.73 572.27C199.73 576.315 202.372 579.594 205.63 579.594Z" fill="#54F4FC"/>
<path d="M205.629 580.204C202.105 580.204 199.238 576.645 199.238 572.27C199.238 567.895 202.105 564.336 205.629 564.336C209.153 564.336 212.02 567.895 212.02 572.27C212.02 576.645 209.152 580.204 205.629 580.204ZM205.629 565.555C202.647 565.555 200.22 568.568 200.22 572.27C200.22 575.972 202.646 578.985 205.629 578.985C208.611 578.985 211.038 575.972 211.038 572.27C211.038 568.568 208.611 565.555 205.629 565.555Z" fill="#54F4FC"/>
<path d="M141.898 578.77C144.791 578.77 147.136 575.859 147.136 572.268C147.136 568.677 144.791 565.766 141.898 565.766C139.006 565.766 136.661 568.677 136.661 572.268C136.661 575.859 139.006 578.77 141.898 578.77Z" fill="#54F4FC"/>
<path d="M141.898 579.378C138.74 579.378 136.17 576.188 136.17 572.267C136.17 568.346 138.74 565.156 141.898 565.156C145.057 565.156 147.626 568.346 147.626 572.267C147.626 576.188 145.057 579.378 141.898 579.378ZM141.898 566.375C139.281 566.375 137.152 569.019 137.152 572.267C137.152 575.515 139.281 578.159 141.898 578.159C144.515 578.159 146.644 575.516 146.644 572.267C146.644 569.019 144.515 566.375 141.898 566.375Z" fill="#54F4FC"/>
<path d="M122.256 552.524C124.32 552.524 125.994 550.446 125.994 547.883C125.994 545.32 124.32 543.242 122.256 543.242C120.191 543.242 118.518 545.32 118.518 547.883C118.518 550.446 120.191 552.524 122.256 552.524Z" fill="#54F4FC"/>
<path d="M122.255 553.133C119.923 553.133 118.026 550.778 118.026 547.883C118.026 544.989 119.923 542.633 122.255 542.633C124.587 542.633 126.484 544.988 126.484 547.883C126.484 550.778 124.587 553.133 122.255 553.133ZM122.255 543.852C120.465 543.852 119.009 545.661 119.009 547.882C119.009 550.104 120.465 551.913 122.255 551.913C124.045 551.913 125.502 550.104 125.502 547.882C125.502 545.661 124.046 543.852 122.255 543.852Z" fill="#54F4FC"/>
<path d="M127.624 410.237C127.624 413.919 125.22 416.903 122.255 416.903C119.289 416.903 116.885 413.918 116.885 410.237C116.885 406.555 119.289 403.57 122.255 403.57C125.22 403.57 127.624 406.555 127.624 410.237Z" fill="#54F4FC"/>
<path d="M122.255 417.513C119.024 417.513 116.395 414.249 116.395 410.237C116.395 406.225 119.024 402.961 122.255 402.961C125.487 402.961 128.116 406.225 128.116 410.237C128.116 414.249 125.487 417.513 122.255 417.513ZM122.255 404.181C119.565 404.181 117.377 406.898 117.377 410.237C117.377 413.577 119.565 416.294 122.255 416.294C124.945 416.294 127.134 413.577 127.134 410.237C127.134 406.898 124.946 404.181 122.255 404.181Z" fill="#54F4FC"/>
<path d="M106.632 385.849C106.632 388.604 104.832 390.838 102.613 390.838C100.393 390.838 98.5938 388.604 98.5938 385.849C98.5938 383.093 100.393 380.859 102.613 380.859C104.832 380.859 106.632 383.094 106.632 385.849Z" fill="#54F4FC"/>
<path d="M102.613 391.448C100.127 391.448 98.1035 388.936 98.1035 385.849C98.1035 382.762 100.127 380.25 102.613 380.25C105.1 380.25 107.123 382.762 107.123 385.849C107.123 388.935 105.1 391.448 102.613 391.448ZM102.613 381.469C100.668 381.469 99.0857 383.433 99.0857 385.848C99.0857 388.263 100.668 390.228 102.613 390.228C104.559 390.228 106.141 388.263 106.141 385.848C106.141 383.434 104.559 381.469 102.613 381.469Z" fill="#54F4FC"/>
<path d="M41.0977 385.847C41.0977 388.563 39.3245 390.765 37.1367 390.765C34.949 390.765 33.1758 388.563 33.1758 385.847C33.1758 383.131 34.949 380.93 37.1367 380.93C39.3245 380.93 41.0977 383.132 41.0977 385.847Z" fill="#54F4FC"/>
<path d="M37.1371 391.375C34.6822 391.375 32.6855 388.896 32.6855 385.848C32.6855 382.8 34.6822 380.32 37.1371 380.32C39.592 380.32 41.5891 382.8 41.5891 385.848C41.5896 388.896 39.592 391.375 37.1371 391.375ZM37.1371 381.54C35.2239 381.54 33.6677 383.473 33.6677 385.848C33.6677 388.223 35.2244 390.155 37.1371 390.155C39.0503 390.155 40.607 388.223 40.607 385.848C40.6075 383.473 39.0508 381.54 37.1371 381.54Z" fill="#54F4FC"/>
<path d="M22.2242 361.458C22.2242 364.702 20.1062 367.331 17.4942 367.331C14.8817 367.331 12.7637 364.702 12.7637 361.458C12.7637 358.215 14.8817 355.586 17.4942 355.586C20.1062 355.586 22.2242 358.215 22.2242 361.458Z" fill="#54F4FC"/>
<path d="M17.4935 367.941C14.6149 367.941 12.2725 365.033 12.2725 361.459C12.2725 357.884 14.6144 354.977 17.4935 354.977C20.3727 354.977 22.7151 357.884 22.7151 361.459C22.7151 365.033 20.3727 367.941 17.4935 367.941ZM17.4935 356.196C15.156 356.196 13.2546 358.557 13.2546 361.459C13.2546 364.361 15.156 366.722 17.4935 366.722C19.831 366.722 21.7329 364.361 21.7329 361.459C21.7329 358.557 19.831 356.196 17.4935 356.196Z" fill="#54F4FC"/>
<path d="M21.8429 249.821C21.8429 252.804 19.8958 255.221 17.494 255.221C15.0921 255.221 13.1445 252.804 13.1445 249.821C13.1445 246.839 15.0917 244.422 17.494 244.422C19.8958 244.422 21.8429 246.839 21.8429 249.821Z" fill="#54F4FC"/>
<path d="M17.4943 255.831C14.8253 255.831 12.6543 253.135 12.6543 249.822C12.6543 246.508 14.8258 243.812 17.4943 243.812C20.1633 243.812 22.3343 246.508 22.3343 249.822C22.3343 253.135 20.1633 255.831 17.4943 255.831ZM17.4943 245.032C15.367 245.032 13.6364 247.18 13.6364 249.822C13.6364 252.463 15.367 254.611 17.4943 254.611C19.6216 254.611 21.3522 252.463 21.3522 249.822C21.3526 247.181 19.6216 245.032 17.4943 245.032Z" fill="#54F4FC"/>
<path d="M44.0147 225.436C44.0147 230.151 40.9361 233.973 37.1382 233.973C33.3403 233.973 30.2617 230.151 30.2617 225.436C30.2617 220.721 33.3403 216.898 37.1382 216.898C40.9357 216.898 44.0147 220.721 44.0147 225.436Z" fill="#54F4FC"/>
<path d="M37.1371 234.583C33.0749 234.583 29.7695 230.479 29.7695 225.436C29.7695 220.392 33.0749 216.289 37.1371 216.289C41.1992 216.289 44.5046 220.392 44.5046 225.436C44.5046 230.479 41.1997 234.583 37.1371 234.583ZM37.1371 217.509C33.6161 217.509 30.7517 221.065 30.7517 225.436C30.7517 229.807 33.6161 233.363 37.1371 233.363C40.658 233.363 43.5224 229.807 43.5224 225.436C43.5224 221.065 40.658 217.509 37.1371 217.509Z" fill="#54F4FC"/>
<path d="M81.2625 225.439C81.2625 228.757 79.0954 231.448 76.4225 231.448C73.7492 231.448 71.582 228.757 71.582 225.439C71.582 222.12 73.7492 219.43 76.4225 219.43C79.0954 219.43 81.2625 222.12 81.2625 225.439Z" fill="#54F4FC"/>
<path d="M76.4219 232.057C73.4823 232.057 71.0908 229.089 71.0908 225.439C71.0908 221.789 73.4823 218.82 76.4219 218.82C79.3614 218.82 81.753 221.789 81.753 225.439C81.7535 229.088 79.3619 232.057 76.4219 232.057ZM76.4219 220.039C74.0235 220.039 72.073 222.461 72.073 225.439C72.073 228.416 74.024 230.838 76.4219 230.838C78.8203 230.838 80.7708 228.416 80.7708 225.439C80.7713 222.461 78.8203 220.039 76.4219 220.039Z" fill="#54F4FC"/>
<path d="M100.233 249.821C100.233 252.678 98.3673 254.994 96.0666 254.994C93.7655 254.994 91.9004 252.678 91.9004 249.821C91.9004 246.965 93.766 244.648 96.0666 244.648C98.3673 244.648 100.233 246.965 100.233 249.821Z" fill="#54F4FC"/>
<path d="M96.0655 255.604C93.4972 255.604 91.4082 253.01 91.4082 249.821C91.4082 246.633 93.4977 244.039 96.0655 244.039C98.6333 244.039 100.723 246.633 100.723 249.821C100.723 253.01 98.6338 255.604 96.0655 255.604ZM96.0655 245.259C94.0389 245.259 92.3903 247.305 92.3903 249.821C92.3903 252.337 94.0389 254.384 96.0655 254.384C98.0922 254.384 99.7407 252.337 99.7407 249.821C99.7412 247.305 98.0922 245.259 96.0655 245.259Z" fill="#54F4FC"/>
<path d="M100.359 257.409C100.359 260.354 98.4368 262.741 96.0649 262.741C93.693 262.741 91.7705 260.354 91.7705 257.409C91.7705 254.465 93.693 252.078 96.0649 252.078C98.4368 252.078 100.359 254.465 100.359 257.409Z" fill="#54F4FC"/>
<path d="M96.0653 263.351C93.4268 263.351 91.2803 260.686 91.2803 257.41C91.2803 254.134 93.4268 251.469 96.0653 251.469C98.7038 251.469 100.851 254.133 100.851 257.41C100.851 260.686 98.7038 263.351 96.0653 263.351ZM96.0653 252.688C93.9679 252.688 92.2624 254.806 92.2624 257.41C92.2624 260.013 93.9684 262.131 96.0653 262.131C98.1621 262.131 99.8686 260.013 99.8686 257.41C99.8686 254.806 98.1626 252.688 96.0653 252.688Z" fill="#54F4FC"/>
<path d="M119.744 281.799C119.744 284.565 117.937 286.808 115.709 286.808C113.48 286.808 111.674 284.565 111.674 281.799C111.674 279.032 113.48 276.789 115.709 276.789C117.937 276.789 119.744 279.032 119.744 281.799Z" fill="#54F4FC"/>
<path d="M115.708 287.418C113.212 287.418 111.182 284.897 111.182 281.799C111.182 278.701 113.212 276.18 115.708 276.18C118.204 276.18 120.235 278.701 120.235 281.799C120.235 284.897 118.204 287.418 115.708 287.418ZM115.708 277.399C113.753 277.399 112.164 279.372 112.164 281.799C112.164 284.225 113.753 286.199 115.708 286.199C117.662 286.199 119.252 284.225 119.252 281.799C119.252 279.373 117.662 277.399 115.708 277.399Z" fill="#54F4FC"/>
<path d="M229.996 281.802C229.996 286.539 226.904 290.378 223.089 290.378C219.274 290.378 216.182 286.539 216.182 281.802C216.182 277.066 219.274 273.227 223.089 273.227C226.904 273.227 229.996 277.066 229.996 281.802Z" fill="#54F4FC"/>
<path d="M223.089 290.988C219.009 290.988 215.69 286.867 215.69 281.802C215.69 276.737 219.01 272.617 223.089 272.617C227.168 272.617 230.487 276.738 230.487 281.802C230.488 286.867 227.169 290.988 223.089 290.988ZM223.089 273.836C219.551 273.836 216.673 277.41 216.673 281.802C216.673 286.195 219.551 289.769 223.089 289.769C226.627 289.769 229.505 286.195 229.505 281.802C229.505 277.41 226.627 273.836 223.089 273.836Z" fill="#54F4FC"/>
<path d="M247.46 257.409C247.46 260.651 245.343 263.279 242.732 263.279C240.121 263.279 238.004 260.651 238.004 257.409C238.004 254.167 240.121 251.539 242.732 251.539C245.343 251.539 247.46 254.167 247.46 257.409Z" fill="#54F4FC"/>
<path d="M242.732 263.889C239.854 263.889 237.513 260.982 237.513 257.409C237.513 253.836 239.854 250.93 242.732 250.93C245.609 250.93 247.951 253.836 247.951 257.409C247.951 260.982 245.61 263.889 242.732 263.889ZM242.732 252.149C240.395 252.149 238.495 254.509 238.495 257.409C238.495 260.31 240.395 262.669 242.732 262.669C245.068 262.669 246.969 260.31 246.969 257.409C246.969 254.509 245.068 252.149 242.732 252.149Z" fill="#54F4FC"/>
<path d="M261.311 882.792C261.311 887.151 258.465 890.684 254.954 890.684C251.443 890.684 248.597 887.15 248.597 882.792C248.597 878.432 251.443 874.898 254.954 874.898C258.465 874.898 261.311 878.432 261.311 882.792Z" fill="#54F4FC"/>
<path d="M254.954 891.294C251.178 891.294 248.105 887.48 248.105 882.792C248.105 878.103 251.178 874.289 254.954 874.289C258.73 874.289 261.802 878.103 261.802 882.792C261.802 887.481 258.73 891.294 254.954 891.294ZM254.954 875.509C251.719 875.509 249.088 878.776 249.088 882.792C249.088 886.808 251.719 890.075 254.954 890.075C258.189 890.075 260.82 886.807 260.82 882.792C260.82 878.776 258.189 875.509 254.954 875.509Z" fill="#54F4FC"/>
<path d="M239.328 858.4C239.328 861.155 237.53 863.387 235.311 863.387C233.093 863.387 231.295 861.154 231.295 858.4C231.295 855.647 233.093 853.414 235.311 853.414C237.53 853.414 239.328 855.647 239.328 858.4Z" fill="#54F4FC"/>
<path d="M235.311 863.998C232.826 863.998 230.804 861.488 230.804 858.401C230.804 855.315 232.825 852.805 235.311 852.805C237.797 852.805 239.819 855.315 239.819 858.401C239.819 861.488 237.797 863.998 235.311 863.998ZM235.311 854.024C233.368 854.024 231.786 855.987 231.786 858.401C231.786 860.815 233.368 862.778 235.311 862.778C237.255 862.778 238.837 860.815 238.837 858.401C238.837 855.988 237.255 854.024 235.311 854.024Z" fill="#54F4FC"/>
<path d="M101.552 858.403C101.552 861.867 99.2911 864.674 96.5018 864.674C93.7125 864.674 91.4512 861.867 91.4512 858.403C91.4512 854.94 93.7125 852.133 96.5018 852.133C99.2911 852.133 101.552 854.941 101.552 858.403Z" fill="#54F4FC"/>
<path d="M96.5027 865.283C93.4468 865.283 90.9609 862.197 90.9609 858.403C90.9609 854.61 93.4472 851.523 96.5027 851.523C99.5581 851.523 102.044 854.61 102.044 858.403C102.044 862.197 99.5581 865.283 96.5027 865.283ZM96.5027 852.742C93.9884 852.742 91.9431 855.282 91.9431 858.403C91.9431 861.524 93.9884 864.064 96.5027 864.064C99.0165 864.064 101.062 861.524 101.062 858.403C101.062 855.282 99.0165 852.742 96.5027 852.742Z" fill="#54F4FC"/>
<path d="M82.2389 882.788C82.2389 886.476 79.8306 889.466 76.8596 889.466C73.8887 889.466 71.4805 886.476 71.4805 882.788C71.4805 879.1 73.8887 876.109 76.8596 876.109C79.8306 876.109 82.2389 879.099 82.2389 882.788Z" fill="#54F4FC"/>
<path d="M76.8595 890.076C73.6224 890.076 70.9893 886.807 70.9893 882.788C70.9893 878.77 73.6224 875.5 76.8595 875.5C80.0962 875.5 82.7293 878.77 82.7293 882.788C82.7293 886.807 80.0962 890.076 76.8595 890.076ZM76.8595 876.719C74.1645 876.719 71.9714 879.442 71.9714 882.788C71.9714 886.135 74.1645 888.857 76.8595 888.857C79.5545 888.857 81.7471 886.135 81.7471 882.788C81.7471 879.442 79.5545 876.719 76.8595 876.719Z" fill="#54F4FC"/>
<path d="M76.8587 985.037C80.398 985.037 83.2672 981.475 83.2672 977.081C83.2672 972.687 80.398 969.125 76.8587 969.125C73.3194 969.125 70.4502 972.687 70.4502 977.081C70.4502 981.475 73.3194 985.037 76.8587 985.037Z" fill="#54F4FC"/>
<path d="M76.859 985.647C73.0542 985.647 69.959 981.805 69.959 977.082C69.959 972.358 73.0542 968.516 76.859 968.516C80.6634 968.516 83.7586 972.358 83.7586 977.082C83.7586 981.805 80.6634 985.647 76.859 985.647ZM76.859 969.735C73.5959 969.735 70.9411 973.031 70.9411 977.082C70.9411 981.132 73.5959 984.428 76.859 984.428C80.1222 984.428 82.7764 981.132 82.7764 977.082C82.7764 973.03 80.1217 969.735 76.859 969.735Z" fill="#54F4FC"/>
<path d="M63.9061 1001.47C63.9061 1006.06 60.911 1009.77 57.2167 1009.77C53.5224 1009.77 50.5273 1006.06 50.5273 1001.47C50.5273 996.882 53.5224 993.164 57.2167 993.164C60.911 993.164 63.9061 996.883 63.9061 1001.47Z" fill="#54F4FC"/>
<path d="M57.2161 1010.39C53.2566 1010.39 50.0352 1006.39 50.0352 1001.47C50.0352 996.554 53.2566 992.555 57.2161 992.555C61.1756 992.555 64.3965 996.554 64.3965 1001.47C64.3965 1006.39 61.1751 1010.39 57.2161 1010.39ZM57.2161 993.774C53.7982 993.774 51.0173 997.226 51.0173 1001.47C51.0173 1005.71 53.7982 1009.17 57.2161 1009.17C60.6339 1009.17 63.4144 1005.71 63.4144 1001.47C63.4144 997.226 60.6339 993.774 57.2161 993.774Z" fill="#54F4FC"/>
<path d="M384.164 940.771C384.164 945.562 381.035 949.447 377.175 949.447C373.316 949.447 370.187 945.562 370.187 940.771C370.187 935.979 373.316 932.094 377.175 932.094C381.035 932.094 384.164 935.979 384.164 940.771Z" fill="#54F4FC"/>
<path d="M377.176 950.056C373.051 950.056 369.696 945.891 369.696 940.771C369.696 935.651 373.051 931.484 377.176 931.484C381.3 931.484 384.656 935.651 384.656 940.771C384.656 945.891 381.3 950.056 377.176 950.056ZM377.176 932.703C373.593 932.703 370.678 936.321 370.678 940.77C370.678 945.218 373.593 948.836 377.176 948.836C380.759 948.836 383.674 945.218 383.674 940.77C383.674 936.322 380.759 932.703 377.176 932.703Z" fill="#54F4FC"/>
<path d="M149.695 940.77C149.695 944.919 146.986 948.282 143.644 948.282C140.302 948.282 137.594 944.919 137.594 940.77C137.594 936.621 140.302 933.258 143.644 933.258C146.986 933.258 149.695 936.621 149.695 940.77Z" fill="#54F4FC"/>
<path d="M143.645 948.892C140.037 948.892 137.103 945.249 137.103 940.771C137.103 936.292 140.038 932.648 143.645 932.648C147.252 932.648 150.186 936.292 150.186 940.771C150.186 945.249 147.252 948.892 143.645 948.892ZM143.645 933.868C140.579 933.868 138.085 936.965 138.085 940.771C138.085 944.576 140.579 947.672 143.645 947.672C146.71 947.672 149.204 944.576 149.204 940.771C149.204 936.965 146.71 933.868 143.645 933.868Z" fill="#54F4FC"/>
<path d="M128.606 965.162C128.606 968.319 126.545 970.878 124.002 970.878C121.459 970.878 119.397 968.319 119.397 965.162C119.397 962.005 121.459 959.445 124.002 959.445C126.545 959.445 128.606 962.005 128.606 965.162Z" fill="#54F4FC"/>
<path d="M124.002 971.488C121.192 971.488 118.906 968.65 118.906 965.163C118.906 961.674 121.192 958.836 124.002 958.836C126.812 958.836 129.097 961.673 129.097 965.163C129.097 968.65 126.812 971.488 124.002 971.488ZM124.002 960.056C121.734 960.056 119.888 962.347 119.888 965.163C119.888 967.977 121.734 970.268 124.002 970.268C126.27 970.268 128.115 967.977 128.115 965.163C128.115 962.346 126.27 960.056 124.002 960.056Z" fill="#54F4FC"/>
<path d="M348.816 138.728C348.816 142.03 346.661 144.706 344.001 144.706C341.342 144.706 339.187 142.03 339.187 138.728C339.187 135.426 341.342 132.75 344.001 132.75C346.661 132.75 348.816 135.426 348.816 138.728Z" fill="#54F4FC"/>
<path d="M344.001 145.316C341.075 145.316 338.694 142.36 338.694 138.727C338.694 135.095 341.075 132.141 344.001 132.141C346.927 132.141 349.307 135.095 349.307 138.727C349.307 142.36 346.927 145.316 344.001 145.316ZM344.001 133.36C341.617 133.36 339.676 135.768 339.676 138.728C339.676 141.688 341.617 144.097 344.001 144.097C346.385 144.097 348.325 141.688 348.325 138.728C348.325 135.768 346.385 133.36 344.001 133.36Z" fill="#54F4FC"/>
<path d="M149.145 138.735C149.145 142.507 146.683 145.564 143.645 145.564C140.607 145.564 138.145 142.507 138.145 138.735C138.145 134.964 140.607 131.906 143.645 131.906C146.683 131.906 149.145 134.964 149.145 138.735Z" fill="#54F4FC"/>
<path d="M143.645 146.174C140.341 146.174 137.653 142.837 137.653 138.735C137.653 134.634 140.341 131.297 143.645 131.297C146.948 131.297 149.636 134.634 149.636 138.735C149.636 142.837 146.948 146.174 143.645 146.174ZM143.645 132.516C140.883 132.516 138.635 135.306 138.635 138.735C138.635 142.165 140.883 144.955 143.645 144.955C146.407 144.955 148.654 142.165 148.654 138.735C148.654 135.306 146.407 132.516 143.645 132.516Z" fill="#54F4FC"/>
<path d="M124.001 119.981C126.51 119.981 128.544 117.457 128.544 114.342C128.544 111.228 126.51 108.703 124.001 108.703C121.493 108.703 119.459 111.228 119.459 114.342C119.459 117.457 121.493 119.981 124.001 119.981Z" fill="#54F4FC"/>
<path d="M124.002 120.592C121.227 120.592 118.969 117.788 118.969 114.342C118.969 110.897 121.227 108.094 124.002 108.094C126.777 108.094 129.035 110.897 129.035 114.342C129.035 117.788 126.777 120.592 124.002 120.592ZM124.002 109.313C121.768 109.313 119.951 111.569 119.951 114.342C119.951 117.116 121.768 119.372 124.002 119.372C126.236 119.372 128.053 117.116 128.053 114.342C128.053 111.569 126.236 109.313 124.002 109.313Z" fill="#54F4FC"/>
<path d="M305.727 320.206C305.727 323.893 303.32 326.882 300.35 326.882C297.381 326.882 294.974 323.893 294.974 320.206C294.974 316.52 297.381 313.531 300.35 313.531C303.32 313.531 305.727 316.52 305.727 320.206Z" fill="#54F4FC"/>
<path d="M300.351 327.491C297.116 327.491 294.483 324.223 294.483 320.206C294.483 316.189 297.116 312.922 300.351 312.922C303.586 312.922 306.218 316.19 306.218 320.206C306.218 324.223 303.586 327.491 300.351 327.491ZM300.351 314.141C297.657 314.141 295.466 316.862 295.466 320.206C295.466 323.551 297.657 326.272 300.351 326.272C303.044 326.272 305.236 323.551 305.236 320.206C305.236 316.862 303.045 314.141 300.351 314.141Z" fill="#54F4FC"/>
<path d="M150.629 328.091C154.135 328.091 156.977 324.562 156.977 320.21C156.977 315.857 154.135 312.328 150.629 312.328C147.123 312.328 144.28 315.857 144.28 320.21C144.28 324.562 147.123 328.091 150.629 328.091Z" fill="#54F4FC"/>
<path d="M150.629 328.701C146.857 328.701 143.789 324.891 143.789 320.21C143.789 315.528 146.857 311.719 150.629 311.719C154.4 311.719 157.468 315.528 157.468 320.21C157.468 324.891 154.4 328.701 150.629 328.701ZM150.629 312.938C147.399 312.938 144.771 316.2 144.771 320.21C144.771 324.22 147.399 327.482 150.629 327.482C153.858 327.482 156.486 324.22 156.486 320.21C156.486 316.2 153.858 312.938 150.629 312.938Z" fill="#54F4FC"/>
<path d="M130.985 301.113C133.339 301.113 135.247 298.745 135.247 295.822C135.247 292.9 133.339 290.531 130.985 290.531C128.631 290.531 126.723 292.9 126.723 295.822C126.723 298.745 128.631 301.113 130.985 301.113Z" fill="#54F4FC"/>
<path d="M130.986 301.723C128.365 301.723 126.232 299.076 126.232 295.822C126.232 292.569 128.365 289.922 130.986 289.922C133.606 289.922 135.739 292.569 135.739 295.822C135.738 299.076 133.606 301.723 130.986 301.723ZM130.986 291.141C128.906 291.141 127.215 293.241 127.215 295.822C127.215 298.404 128.906 300.504 130.986 300.504C133.065 300.504 134.756 298.404 134.756 295.822C134.756 293.241 133.065 291.141 130.986 291.141Z" fill="#54F4FC"/>
<path d="M130.986 210.586C133.782 210.586 136.049 207.772 136.049 204.301C136.049 200.83 133.782 198.016 130.986 198.016C128.19 198.016 125.924 200.83 125.924 204.301C125.924 207.772 128.19 210.586 130.986 210.586Z" fill="#54F4FC"/>
<path d="M130.986 211.196C127.924 211.196 125.433 208.102 125.433 204.3C125.433 200.499 127.924 197.406 130.986 197.406C134.048 197.406 136.539 200.499 136.539 204.3C136.539 208.102 134.048 211.196 130.986 211.196ZM130.986 198.625C128.465 198.625 126.415 201.171 126.415 204.3C126.415 207.43 128.465 209.976 130.986 209.976C133.507 209.976 135.557 207.43 135.557 204.3C135.557 201.171 133.506 198.625 130.986 198.625Z" fill="#54F4FC"/>
<path d="M111.343 185.982C114.041 185.982 116.228 183.266 116.228 179.917C116.228 176.567 114.041 173.852 111.343 173.852C108.645 173.852 106.458 176.567 106.458 179.917C106.458 183.266 108.645 185.982 111.343 185.982Z" fill="#54F4FC"/>
<path d="M111.343 186.591C108.378 186.591 105.967 183.597 105.967 179.916C105.967 176.236 108.378 173.242 111.343 173.242C114.308 173.242 116.719 176.237 116.719 179.916C116.719 183.597 114.308 186.591 111.343 186.591ZM111.343 174.461C108.92 174.461 106.949 176.908 106.949 179.916C106.949 182.924 108.921 185.372 111.343 185.372C113.765 185.372 115.737 182.924 115.737 179.916C115.737 176.908 113.765 174.461 111.343 174.461Z" fill="#54F4FC"/>
<path d="M28.407 185.624C30.9455 185.624 33.0034 183.069 33.0034 179.918C33.0034 176.766 30.9455 174.211 28.407 174.211C25.8684 174.211 23.8105 176.766 23.8105 179.918C23.8105 183.069 25.8684 185.624 28.407 185.624Z" fill="#54F4FC"/>
<path d="M28.4068 186.234C25.6013 186.234 23.3193 183.4 23.3193 179.918C23.3193 176.435 25.6018 173.602 28.4068 173.602C31.2123 173.602 33.4943 176.435 33.4943 179.918C33.4943 183.4 31.2123 186.234 28.4068 186.234ZM28.4068 174.821C26.143 174.821 24.3015 177.107 24.3015 179.918C24.3015 182.729 26.143 185.015 28.4068 185.015C30.6707 185.015 32.5122 182.729 32.5122 179.918C32.5122 177.107 30.6707 174.821 28.4068 174.821Z" fill="#54F4FC"/>
<path d="M16.1063 155.537C16.1063 160.183 13.0725 163.949 9.3305 163.949C5.58854 163.949 2.55469 160.183 2.55469 155.537C2.55469 150.892 5.58805 147.125 9.3305 147.125C13.0725 147.125 16.1063 150.891 16.1063 155.537Z" fill="#54F4FC"/>
<path d="M9.33036 164.559C5.32371 164.559 2.06348 160.512 2.06348 155.537C2.06348 150.563 5.32371 146.516 9.33036 146.516C13.337 146.516 16.5972 150.563 16.5972 155.537C16.5972 160.512 13.337 164.559 9.33036 164.559ZM9.33036 147.735C5.86487 147.735 3.04562 151.236 3.04562 155.537C3.04562 159.839 5.86487 163.34 9.33036 163.34C12.7958 163.34 15.6151 159.839 15.6151 155.537C15.6151 151.236 12.7958 147.735 9.33036 147.735Z" fill="#54F4FC"/>
<path d="M398.128 399.603C400.872 399.603 403.097 396.841 403.097 393.434C403.097 390.027 400.872 387.266 398.128 387.266C395.384 387.266 393.159 390.027 393.159 393.434C393.159 396.841 395.384 399.603 398.128 399.603Z" fill="#54F4FC"/>
<path d="M398.128 400.213C395.117 400.213 392.668 397.172 392.668 393.435C392.668 389.697 395.117 386.656 398.128 386.656C401.139 386.656 403.587 389.697 403.587 393.435C403.588 397.173 401.139 400.213 398.128 400.213ZM398.128 387.876C395.66 387.876 393.65 390.37 393.65 393.435C393.65 396.5 395.66 398.994 398.128 398.994C400.597 398.994 402.605 396.5 402.605 393.435C402.606 390.37 400.597 387.876 398.128 387.876Z" fill="#54F4FC"/>
<path d="M232.229 393.436C232.229 396.711 230.091 399.364 227.454 399.364C224.817 399.364 222.679 396.71 222.679 393.436C222.679 390.163 224.816 387.508 227.454 387.508C230.091 387.508 232.229 390.162 232.229 393.436Z" fill="#54F4FC"/>
<path d="M227.454 399.973C224.55 399.973 222.188 397.041 222.188 393.436C222.188 389.831 224.55 386.898 227.454 386.898C230.357 386.898 232.72 389.831 232.72 393.436C232.72 397.041 230.357 399.973 227.454 399.973ZM227.454 388.117C225.091 388.117 223.17 390.502 223.17 393.435C223.17 396.368 225.091 398.754 227.454 398.754C229.816 398.754 231.738 396.368 231.738 393.435C231.738 390.502 229.816 388.117 227.454 388.117Z" fill="#54F4FC"/>
<path d="M207.812 375.543C210.701 375.543 213.043 372.636 213.043 369.049C213.043 365.462 210.701 362.555 207.812 362.555C204.923 362.555 202.581 365.462 202.581 369.049C202.581 372.636 204.923 375.543 207.812 375.543Z" fill="#54F4FC"/>
<path d="M207.812 376.153C204.657 376.153 202.09 372.966 202.09 369.049C202.09 365.132 204.657 361.945 207.812 361.945C210.966 361.945 213.534 365.132 213.534 369.049C213.534 372.966 210.967 376.153 207.812 376.153ZM207.812 363.164C205.198 363.164 203.072 365.804 203.072 369.049C203.072 372.294 205.198 374.934 207.812 374.934C210.425 374.934 212.552 372.294 212.552 369.049C212.552 365.804 210.425 363.164 207.812 363.164Z" fill="#54F4FC"/>
<path d="M405.078 580.942C405.078 585.708 401.966 589.571 398.127 589.571C394.289 589.571 391.177 585.707 391.177 580.942C391.177 576.176 394.289 572.312 398.127 572.312C401.967 572.313 405.078 576.176 405.078 580.942Z" fill="#54F4FC"/>
<path d="M398.128 590.181C394.025 590.181 390.687 586.036 390.687 580.942C390.687 575.848 394.025 571.703 398.128 571.703C402.232 571.703 405.569 575.848 405.569 580.942C405.569 586.036 402.232 590.181 398.128 590.181ZM398.128 572.922C394.566 572.922 391.669 576.519 391.669 580.942C391.669 585.364 394.566 588.962 398.128 588.962C401.689 588.962 404.587 585.364 404.587 580.942C404.587 576.519 401.689 572.922 398.128 572.922Z" fill="#54F4FC"/>
<path d="M313.551 580.938C313.551 584.378 311.305 587.165 308.535 587.165C305.765 587.165 303.52 584.378 303.52 580.938C303.52 577.499 305.765 574.711 308.535 574.711C311.305 574.711 313.551 577.499 313.551 580.938Z" fill="#54F4FC"/>
<path d="M308.535 587.776C305.498 587.776 303.027 584.709 303.027 580.939C303.027 577.169 305.498 574.102 308.535 574.102C311.572 574.102 314.042 577.169 314.042 580.939C314.042 584.709 311.572 587.776 308.535 587.776ZM308.535 575.321C306.039 575.321 304.009 577.841 304.009 580.939C304.009 584.037 306.039 586.557 308.535 586.557C311.03 586.557 313.06 584.037 313.06 580.939C313.06 577.841 311.03 575.321 308.535 575.321Z" fill="#54F4FC"/>
<path d="M288.892 613.146C292.372 613.146 295.194 609.643 295.194 605.323C295.194 601.002 292.372 597.5 288.892 597.5C285.412 597.5 282.591 601.002 282.591 605.323C282.591 609.643 285.412 613.146 288.892 613.146Z" fill="#54F4FC"/>
<path d="M288.892 613.757C285.147 613.757 282.1 609.974 282.1 605.324C282.1 600.674 285.147 596.891 288.892 596.891C292.638 596.891 295.685 600.674 295.685 605.324C295.685 609.974 292.638 613.757 288.892 613.757ZM288.892 598.111C285.688 598.111 283.082 601.347 283.082 605.324C283.082 609.301 285.688 612.538 288.892 612.538C292.095 612.538 294.702 609.301 294.702 605.324C294.702 601.347 292.096 598.111 288.892 598.111Z" fill="#54F4FC"/>
<path d="M436.881 492.062C436.881 494.69 435.165 496.82 433.049 496.82C430.933 496.82 429.217 494.69 429.217 492.062C429.217 489.435 430.933 487.305 433.049 487.305C435.165 487.305 436.881 489.435 436.881 492.062Z" fill="#54F4FC"/>
<path d="M433.048 497.429C430.665 497.429 428.726 495.022 428.726 492.062C428.726 489.103 430.665 486.695 433.048 486.695C435.433 486.695 437.372 489.103 437.372 492.062C437.372 495.022 435.433 497.429 433.048 497.429ZM433.048 487.914C431.206 487.914 429.708 489.775 429.708 492.062C429.708 494.349 431.206 496.21 433.048 496.21C434.891 496.21 436.39 494.349 436.39 492.062C436.39 489.775 434.891 487.914 433.048 487.914Z" fill="#54F4FC"/>
<path d="M354.914 497.656C357.402 497.656 359.419 495.151 359.419 492.062C359.419 488.973 357.402 486.469 354.914 486.469C352.425 486.469 350.408 488.973 350.408 492.062C350.408 495.151 352.425 497.656 354.914 497.656Z" fill="#54F4FC"/>
<path d="M354.914 498.265C352.159 498.265 349.917 495.482 349.917 492.062C349.917 488.642 352.159 485.859 354.914 485.859C357.669 485.859 359.91 488.642 359.91 492.062C359.91 495.483 357.669 498.265 354.914 498.265ZM354.914 487.079C352.7 487.079 350.899 489.315 350.899 492.062C350.899 494.811 352.7 497.046 354.914 497.046C357.128 497.046 358.928 494.811 358.928 492.062C358.928 489.315 357.128 487.079 354.914 487.079Z" fill="#54F4FC"/>
<path d="M341.102 516.45C341.102 520.448 338.492 523.69 335.271 523.69C332.051 523.69 329.44 520.448 329.44 516.45C329.44 512.452 332.051 509.211 335.271 509.211C338.492 509.211 341.102 512.452 341.102 516.45Z" fill="#54F4FC"/>
<path d="M335.272 524.299C331.785 524.299 328.949 520.778 328.949 516.45C328.949 512.122 331.785 508.602 335.272 508.602C338.757 508.602 341.593 512.123 341.593 516.45C341.594 520.778 338.757 524.299 335.272 524.299ZM335.272 509.821C332.327 509.821 329.931 512.794 329.931 516.45C329.931 520.105 332.327 523.08 335.272 523.08C338.216 523.08 340.611 520.105 340.611 516.45C340.612 512.794 338.217 509.821 335.272 509.821Z" fill="#54F4FC"/>
<path d="M341.572 654.096C341.572 658.417 338.75 661.919 335.271 661.919C331.79 661.919 328.97 658.417 328.97 654.096C328.97 649.776 331.791 646.273 335.271 646.273C338.75 646.273 341.572 649.776 341.572 654.096Z" fill="#54F4FC"/>
<path d="M335.271 662.53C331.526 662.53 328.479 658.747 328.479 654.097C328.479 649.447 331.526 645.664 335.271 645.664C339.015 645.664 342.063 649.447 342.063 654.097C342.063 658.748 339.015 662.53 335.271 662.53ZM335.271 646.884C332.068 646.884 329.461 650.121 329.461 654.098C329.461 658.075 332.068 661.311 335.271 661.311C338.475 661.311 341.08 658.075 341.08 654.098C341.081 650.121 338.475 646.884 335.271 646.884Z" fill="#54F4FC"/>
<path d="M315.628 685.462C318.734 685.462 321.251 682.337 321.251 678.481C321.251 674.626 318.734 671.5 315.628 671.5C312.523 671.5 310.005 674.626 310.005 678.481C310.005 682.337 312.523 685.462 315.628 685.462Z" fill="#54F4FC"/>
<path d="M315.628 686.072C312.257 686.072 309.514 682.667 309.514 678.481C309.514 674.296 312.257 670.891 315.628 670.891C318.999 670.891 321.742 674.296 321.742 678.481C321.743 682.666 319 686.072 315.628 686.072ZM315.628 672.109C312.797 672.109 310.496 674.967 310.496 678.481C310.496 681.995 312.797 684.852 315.628 684.852C318.459 684.852 320.76 681.995 320.76 678.481C320.761 674.967 318.459 672.109 315.628 672.109Z" fill="#54F4FC"/>
<path d="M262.375 683.083C264.42 683.083 266.077 681.025 266.077 678.487C266.077 675.948 264.42 673.891 262.375 673.891C260.33 673.891 258.673 675.948 258.673 678.487C258.673 681.025 260.33 683.083 262.375 683.083Z" fill="#54F4FC"/>
<path d="M262.375 683.693C260.063 683.693 258.182 681.358 258.182 678.487C258.182 675.616 260.063 673.281 262.375 673.281C264.687 673.281 266.568 675.616 266.568 678.487C266.568 681.358 264.687 683.693 262.375 683.693ZM262.375 674.5C260.604 674.5 259.164 676.289 259.164 678.487C259.164 680.685 260.604 682.474 262.375 682.474C264.145 682.474 265.586 680.685 265.586 678.487C265.586 676.289 264.146 674.5 262.375 674.5Z" fill="#54F4FC"/>
<path d="M247.518 702.872C247.518 706.154 245.375 708.815 242.731 708.815C240.087 708.815 237.944 706.154 237.944 702.872C237.944 699.59 240.087 696.93 242.731 696.93C245.375 696.93 247.518 699.591 247.518 702.872Z" fill="#54F4FC"/>
<path d="M242.731 709.426C239.821 709.426 237.453 706.486 237.453 702.873C237.453 699.261 239.821 696.32 242.731 696.32C245.642 696.32 248.009 699.261 248.009 702.873C248.009 706.486 245.642 709.426 242.731 709.426ZM242.731 697.539C240.363 697.539 238.435 699.932 238.435 702.872C238.435 705.814 240.363 708.206 242.731 708.206C245.1 708.206 247.027 705.813 247.027 702.872C247.027 699.932 245.1 697.539 242.731 697.539Z" fill="#54F4FC"/>
<path d="M247.848 781.992C247.848 785.499 245.558 788.343 242.732 788.343C239.907 788.343 237.616 785.499 237.616 781.992C237.616 778.484 239.907 775.641 242.732 775.641C245.558 775.641 247.848 778.484 247.848 781.992Z" fill="#54F4FC"/>
<path d="M242.732 788.953C239.64 788.953 237.125 785.83 237.125 781.992C237.125 778.154 239.64 775.031 242.732 775.031C245.824 775.031 248.339 778.154 248.339 781.992C248.339 785.83 245.824 788.953 242.732 788.953ZM242.732 776.251C240.182 776.251 238.107 778.827 238.107 781.992C238.107 785.158 240.182 787.734 242.732 787.734C245.282 787.734 247.357 785.158 247.357 781.992C247.357 778.827 245.283 776.251 242.732 776.251Z" fill="#54F4FC"/>
<path d="M262.374 811.536C264.669 811.536 266.53 809.227 266.53 806.378C266.53 803.528 264.669 801.219 262.374 801.219C260.079 801.219 258.219 803.528 258.219 806.378C258.219 809.227 260.079 811.536 262.374 811.536Z" fill="#54F4FC"/>
<path d="M262.375 812.147C259.813 812.147 257.729 809.559 257.729 806.378C257.729 803.197 259.813 800.609 262.375 800.609C264.937 800.609 267.022 803.197 267.022 806.378C267.022 809.559 264.937 812.147 262.375 812.147ZM262.375 801.829C260.355 801.829 258.711 803.87 258.711 806.378C258.711 808.886 260.355 810.928 262.375 810.928C264.395 810.928 266.039 808.887 266.039 806.378C266.039 803.87 264.395 801.829 262.375 801.829Z" fill="#54F4FC"/>
<path d="M308.644 811.704C311.012 811.704 312.933 809.32 312.933 806.379C312.933 803.439 311.012 801.055 308.644 801.055C306.275 801.055 304.354 803.439 304.354 806.379C304.354 809.32 306.275 811.704 308.644 811.704Z" fill="#54F4FC"/>
<path d="M308.644 812.315C306.009 812.315 303.864 809.652 303.864 806.38C303.864 803.108 306.009 800.445 308.644 800.445C311.28 800.445 313.424 803.108 313.424 806.38C313.424 809.652 311.28 812.315 308.644 812.315ZM308.644 801.665C306.549 801.665 304.846 803.78 304.846 806.38C304.846 808.981 306.55 811.095 308.644 811.095C310.739 811.095 312.442 808.98 312.442 806.38C312.442 803.78 310.739 801.665 308.644 801.665Z" fill="#54F4FC"/>
<path d="M334.563 830.761C334.563 835.064 331.753 838.552 328.286 838.552C324.82 838.552 322.01 835.064 322.01 830.761C322.01 826.457 324.82 822.969 328.286 822.969C331.753 822.969 334.563 826.457 334.563 830.761Z" fill="#54F4FC"/>
<path d="M328.287 839.163C324.555 839.163 321.52 835.395 321.52 830.761C321.52 826.128 324.555 822.359 328.287 822.359C332.018 822.359 335.053 826.128 335.053 830.761C335.053 835.394 332.018 839.163 328.287 839.163ZM328.287 823.579C325.097 823.579 322.502 826.801 322.502 830.761C322.502 834.722 325.097 837.944 328.287 837.944C331.477 837.944 334.071 834.721 334.071 830.761C334.071 826.801 331.477 823.579 328.287 823.579Z" fill="#54F4FC"/>
</g>
</g>
<defs>
<clipPath id="clip0_203_12236">
<rect width="437.372" height="1036.15" fill="white"/>
</clipPath>
</defs>
</svg>
