<svg width="736" height="1037" viewBox="0 0 736 1037" fill="none" xmlns="http://www.w3.org/2000/svg">
<g opacity="0.08">
<path d="M521.626 438.82L368.848 438.82C358.559 438.82 350.188 428.427 350.188 415.653L350.188 349.538C350.188 335.419 340.936 323.933 329.563 323.933L241.388 323.933C231.099 323.933 222.727 313.54 222.727 300.766L222.727 147.944C222.727 133.825 213.475 122.338 202.103 122.338L0 122.338L3.17105e-07 124.777L202.103 124.777C212.392 124.777 220.763 135.17 220.763 147.944L220.763 300.766C220.763 314.885 230.015 326.372 241.388 326.372L329.563 326.372C339.852 326.372 348.224 336.765 348.224 349.539L348.224 415.653C348.224 429.772 357.476 441.259 368.848 441.259L521.626 441.259C531.915 441.259 540.287 451.652 540.287 464.426L540.287 492.471C540.287 505.245 531.915 515.638 521.626 515.638L5.11427e-05 515.638L5.14597e-05 518.076L521.626 518.076C532.999 518.076 542.251 506.589 542.251 492.47L542.251 464.426C542.251 450.307 532.999 438.82 521.626 438.82Z" fill="#176DB3"/>
<path d="M237.023 196.04L105.198 196.04C94.9086 196.04 86.5374 185.647 86.5374 172.872L86.5373 0.000250947L84.573 0.000250793L84.5731 172.872C84.5731 186.991 93.8253 198.478 105.198 198.478L237.023 198.478C247.312 198.478 255.684 208.871 255.684 221.645L255.684 799.333C255.684 812.107 247.312 822.5 237.023 822.5L1.82804e-05 822.5L1.86965e-05 824.938L237.024 824.938C248.396 824.938 257.649 813.451 257.649 799.333L257.648 221.645C257.648 207.526 248.396 196.04 237.023 196.04Z" fill="#176DB3"/>
<path d="M466.953 0.000280868L466.954 643.26C466.954 656.035 458.582 666.427 448.293 666.427L340.912 666.427C329.539 666.427 320.287 677.915 320.287 692.033L320.287 933.729C320.287 946.503 311.916 956.896 301.626 956.896L100.833 956.896C90.5436 956.896 82.1723 946.503 82.1723 933.729L82.1723 663.853C82.1723 649.734 72.92 638.247 61.5473 638.247L-1.31604e-05 638.247L-1.27443e-05 640.686L61.5473 640.686C71.8367 640.686 80.208 651.079 80.208 663.853L80.2081 933.729C80.2081 947.847 89.4603 959.335 100.833 959.335L301.626 959.335C312.999 959.335 322.251 947.847 322.251 933.729L322.251 692.033C322.251 679.259 330.623 668.866 340.912 668.866L448.293 668.866C459.666 668.866 468.918 657.379 468.918 643.26L468.918 0.000281023L466.953 0.000280868Z" fill="#176DB3"/>
<path d="M133.462 369.048L133.462 589.068C133.462 603.187 142.714 614.674 154.087 614.674L381.944 614.674C392.233 614.674 400.605 625.067 400.605 637.841L400.605 751.644C400.605 765.763 409.857 777.25 421.23 777.25L477.976 777.25C488.265 777.25 496.636 787.642 496.636 800.417L496.636 1036.15L498.601 1036.15L498.601 800.416C498.601 786.298 489.348 774.811 477.976 774.811L421.23 774.811C410.94 774.811 402.569 764.418 402.569 751.643L402.569 637.84C402.569 623.722 393.317 612.235 381.944 612.235L154.087 612.235C143.798 612.235 135.427 601.842 135.426 589.067L135.426 369.048C135.426 354.929 126.174 343.442 114.801 343.442L0 343.442L3.17103e-07 345.881L114.801 345.881C125.091 345.881 133.462 356.274 133.462 369.048Z" fill="#176DB3"/>
<path d="M117.748 0.00012207L117.748 229.233C117.748 242.007 109.377 252.4 99.0873 252.4L3.18988e-05 252.4L3.2207e-05 254.839L99.0873 254.839C110.46 254.839 119.712 243.352 119.712 229.233L119.712 0.00012207L117.748 0.00012207Z" fill="#176DB3"/>
<path d="M393.62 0.00012207L393.62 68.8244C393.62 81.5989 385.249 91.9915 374.959 91.9915L246.626 91.9915C236.337 91.9915 227.966 81.5989 227.966 68.8244L227.966 0.00012207L226.001 0.00012207L226.001 68.8244C226.001 82.9434 235.254 94.4301 246.626 94.4301L374.959 94.4301C386.332 94.4301 395.584 82.9434 395.584 68.8244L395.584 0.00012207L393.62 0.00012207Z" fill="#176DB3"/>
<path d="M540.286 0.000286636L540.286 257.413C540.286 270.187 531.915 280.58 521.626 280.58L414.245 280.58C403.955 280.58 395.584 270.187 395.584 257.413L395.584 249.826C395.584 235.706 386.332 224.22 374.959 224.22L335.674 224.22C324.301 224.22 315.049 235.706 315.049 249.826L315.049 361.461C315.049 375.58 324.301 387.067 335.674 387.067L401.15 387.067C411.439 387.067 419.811 397.46 419.811 410.234L419.811 547.881C419.811 562 429.063 573.487 440.436 573.487L504.165 573.487C514.455 573.487 522.826 583.88 522.826 596.654L522.826 694.2C522.826 706.974 514.455 717.367 504.165 717.367L3.40586e-07 717.367L7.56707e-07 719.806L504.166 719.806C515.539 719.806 524.791 708.318 524.791 694.2L524.791 596.654C524.791 582.536 515.539 571.048 504.166 571.048L440.436 571.048C430.146 571.048 421.775 560.656 421.775 547.881L421.775 410.234C421.775 396.115 412.523 384.628 401.15 384.628L335.674 384.628C325.384 384.628 317.013 374.236 317.013 361.461L317.013 249.826C317.013 237.051 325.384 226.658 335.674 226.658L374.959 226.658C385.249 226.658 393.62 237.051 393.62 249.826L393.62 257.413C393.62 271.532 402.872 283.018 414.245 283.018L521.626 283.018C532.999 283.018 542.251 271.532 542.251 257.413L542.251 0.000286791L540.286 0.000286636Z" fill="#176DB3"/>
<path d="M175.04 271.909L0 271.909L3.17106e-07 274.347L175.04 274.347C185.329 274.347 193.7 284.74 193.7 297.515L193.7 411.318C193.7 424.092 185.329 434.485 175.04 434.485L2.11405e-05 434.485L2.14576e-05 436.923L175.04 436.923C186.412 436.923 195.665 425.437 195.665 411.318L195.665 297.515C195.665 283.396 186.412 271.909 175.04 271.909Z" fill="#176DB3"/>
<path d="M124.732 926.142L124.732 977.082C124.732 991.201 133.984 1002.69 145.357 1002.69L355.754 1002.69C367.126 1002.69 376.379 991.201 376.379 977.082L376.379 882.789C376.379 870.015 384.75 859.622 395.039 859.622L533.848 859.622C544.138 859.622 552.509 870.015 552.509 882.789L552.509 1036.15L554.473 1036.15L554.473 882.788C554.473 868.67 545.221 857.183 533.848 857.183L395.039 857.183C383.667 857.183 374.414 868.67 374.414 882.788L374.414 977.082C374.414 989.856 366.043 1000.25 355.754 1000.25L145.357 1000.25C135.068 1000.25 126.696 989.856 126.696 977.081L126.696 926.141C126.696 912.023 117.444 900.536 106.071 900.536L0.000127708 900.535L0.000128025 902.974L106.071 902.974C116.361 902.975 124.732 913.367 124.732 926.142Z" fill="#176DB3"/>
<path d="M3.17103e-07 387.067L53.2542 387.067C63.5436 387.067 71.9148 397.459 71.9148 410.234L71.9149 556.552C71.9149 569.327 63.5436 579.719 53.2542 579.719L2.53687e-05 579.719L2.56858e-05 582.158L53.2542 582.158C64.6269 582.158 73.8791 570.671 73.8791 556.552L73.8791 410.234C73.8791 396.115 64.6269 384.628 53.2542 384.628L0 384.628L3.17103e-07 387.067Z" fill="#176DB3"/>
<path d="M213.779 696.368L213.779 1036.15L215.744 1036.15L215.744 696.368C215.744 682.25 206.491 670.763 195.119 670.763L0 670.762L3.82983e-07 673.201L195.119 673.201C205.408 673.201 213.779 683.594 213.779 696.368Z" fill="#176DB3"/>
<path d="M423.521 1036.15L423.521 965.16C423.521 952.386 431.893 941.993 442.182 941.993L675.713 941.993L675.713 939.555L442.182 939.555C430.809 939.555 421.557 951.042 421.557 965.16L421.557 1036.15L423.521 1036.15Z" fill="#176DB3"/>
<path d="M423.521 114.345L423.521 0L421.557 0L421.557 114.345C421.557 128.464 430.809 139.951 442.182 139.951L642.539 139.951L642.539 137.512L442.182 137.512C431.893 137.512 423.521 127.119 423.521 114.345Z" fill="#176DB3"/>
<path d="M430.505 295.821L430.505 204.304C430.505 190.185 421.253 178.698 409.88 178.698L326.944 178.698C321.986 178.698 317.369 176.286 313.941 171.907C310.515 167.528 308.706 161.728 308.849 155.576C308.861 155.074 310.023 104.717 310.53 54.2128C310.757 31.7033 310.808 13.976 310.742 0.000122342L308.786 0.000122205C308.985 43.7983 308.009 107.149 306.886 155.506C306.727 162.323 308.733 168.751 312.533 173.607C316.333 178.463 321.451 181.137 326.944 181.137L409.88 181.137C420.17 181.137 428.541 191.53 428.541 204.304L428.541 295.821C428.541 309.941 437.793 321.427 449.166 321.427L598.889 321.427L598.889 318.989L449.166 318.989C438.876 318.988 430.505 308.595 430.505 295.821Z" fill="#176DB3"/>
<path d="M507.33 369.048L507.33 0L505.366 0L505.366 369.048C505.366 383.167 514.618 394.654 525.991 394.654L696.666 394.654L696.666 392.215L525.991 392.215C515.701 392.215 507.33 381.822 507.33 369.048Z" fill="#176DB3"/>
<path d="M588.412 1036.15L588.412 605.325C588.412 592.551 596.783 582.158 607.072 582.158L696.666 582.158L696.666 579.72L607.072 579.719C595.7 579.719 586.448 591.207 586.448 605.325L586.448 1036.15L588.412 1036.15Z" fill="#176DB3"/>
<path d="M653.452 490.844C642.079 490.844 632.827 502.33 632.827 516.45L632.827 654.097C632.827 666.872 624.455 677.264 614.166 677.264L560.912 677.264C549.539 677.264 540.287 688.752 540.287 702.87L540.287 781.99C540.287 796.109 549.539 807.596 560.912 807.596L607.182 807.596C617.471 807.596 625.843 817.988 625.843 830.763L625.843 1036.15L627.807 1036.15L627.807 830.764C627.807 816.645 618.554 805.158 607.182 805.158L560.912 805.158C550.622 805.158 542.251 794.765 542.251 781.991L542.251 702.871C542.251 690.097 550.622 679.704 560.912 679.704L614.166 679.704C625.538 679.704 634.791 668.216 634.791 654.098L634.791 516.45C634.791 503.675 643.162 493.282 653.452 493.282L731.585 493.282L731.585 490.844L653.452 490.844Z" fill="#176DB3"/>
<path d="M527.949 516.857C527.949 521.193 525.118 524.708 521.626 524.708C518.133 524.708 515.302 521.193 515.302 516.857C515.302 512.521 518.133 509.006 521.626 509.006C525.118 509.006 527.949 512.521 527.949 516.857Z" fill="#54F4FC"/>
<path d="M521.626 525.317C517.869 525.317 514.811 521.522 514.811 516.856C514.811 512.192 517.869 508.396 521.626 508.396C525.383 508.396 528.441 512.191 528.441 516.856C528.441 521.522 525.384 525.317 521.626 525.317ZM521.626 509.615C518.41 509.615 515.794 512.864 515.794 516.856C515.794 520.848 518.41 524.097 521.626 524.097C524.842 524.097 527.458 520.848 527.458 516.856C527.458 512.864 524.842 509.615 521.626 509.615Z" fill="#54F4FC"/>
<path d="M545.443 492.47C545.443 495.332 543.574 497.652 541.269 497.652C538.963 497.652 537.094 495.332 537.094 492.47C537.094 489.608 538.963 487.287 541.269 487.287C543.574 487.287 545.443 489.608 545.443 492.47Z" fill="#54F4FC"/>
<path d="M541.268 498.262C538.696 498.262 536.603 495.664 536.603 492.47C536.603 489.275 538.696 486.678 541.268 486.678C543.841 486.678 545.934 489.276 545.934 492.47C545.934 495.664 543.841 498.262 541.268 498.262ZM541.268 487.897C539.237 487.897 537.585 489.948 537.585 492.47C537.585 494.991 539.237 497.043 541.268 497.043C543.3 497.043 544.952 494.991 544.952 492.47C544.952 489.948 543.3 487.897 541.268 487.897Z" fill="#54F4FC"/>
<path d="M547.491 464.425C547.491 468.692 544.705 472.15 541.269 472.15C537.832 472.15 535.046 468.692 535.046 464.425C535.046 460.159 537.832 456.701 541.269 456.701C544.705 456.701 547.491 460.159 547.491 464.425Z" fill="#54F4FC"/>
<path d="M541.269 472.76C537.567 472.76 534.555 469.022 534.555 464.425C534.555 459.83 537.567 456.091 541.269 456.091C544.97 456.091 547.982 459.83 547.982 464.425C547.982 469.021 544.97 472.76 541.269 472.76ZM541.269 457.31C538.108 457.31 535.537 460.502 535.537 464.425C535.537 468.349 538.108 471.541 541.269 471.541C544.429 471.541 547 468.349 547 464.425C547 460.502 544.429 457.31 541.269 457.31Z" fill="#54F4FC"/>
<path d="M527.746 440.039C527.746 444.235 525.006 447.637 521.626 447.637C518.246 447.637 515.506 444.235 515.506 440.039C515.506 435.844 518.246 432.442 521.626 432.442C525.006 432.441 527.746 435.843 527.746 440.039Z" fill="#54F4FC"/>
<path d="M521.626 448.246C517.98 448.246 515.015 444.564 515.015 440.039C515.015 435.514 517.98 431.832 521.626 431.832C525.271 431.832 528.236 435.514 528.236 440.039C528.236 444.564 525.271 448.246 521.626 448.246ZM521.626 433.051C518.522 433.051 515.997 436.186 515.997 440.039C515.997 443.893 518.522 447.027 521.626 447.027C524.729 447.027 527.254 443.893 527.254 440.039C527.254 436.186 524.729 433.051 521.626 433.051Z" fill="#54F4FC"/>
<path d="M373.519 440.039C373.519 443.242 371.428 445.838 368.849 445.838C366.269 445.838 364.178 443.242 364.178 440.039C364.178 436.836 366.269 434.241 368.849 434.241C371.428 434.241 373.519 436.836 373.519 440.039Z" fill="#54F4FC"/>
<path d="M368.849 446.448C366.002 446.448 363.687 443.573 363.687 440.04C363.687 436.506 366.002 433.631 368.849 433.631C371.695 433.631 374.011 436.506 374.011 440.04C374.011 443.573 371.695 446.448 368.849 446.448ZM368.849 434.85C366.545 434.85 364.669 437.178 364.669 440.04C364.669 442.901 366.544 445.229 368.849 445.229C371.153 445.229 373.029 442.901 373.029 440.04C373.029 437.178 371.153 434.85 368.849 434.85Z" fill="#54F4FC"/>
<path d="M349.206 423.543C352.715 423.543 355.56 420.01 355.56 415.653C355.56 411.295 352.715 407.763 349.206 407.763C345.696 407.763 342.851 411.295 342.851 415.653C342.851 420.01 345.696 423.543 349.206 423.543Z" fill="#54F4FC"/>
<path d="M349.206 424.152C345.431 424.152 342.36 420.339 342.36 415.653C342.36 410.966 345.431 407.153 349.206 407.153C352.981 407.153 356.052 410.966 356.052 415.653C356.052 420.34 352.981 424.152 349.206 424.152ZM349.206 408.373C345.972 408.373 343.342 411.639 343.342 415.653C343.342 419.668 345.972 422.933 349.206 422.933C352.439 422.933 355.07 419.667 355.07 415.653C355.07 411.638 352.439 408.373 349.206 408.373Z" fill="#54F4FC"/>
<path d="M349.206 356.406C352.261 356.406 354.737 353.331 354.737 349.538C354.737 345.746 352.261 342.671 349.206 342.671C346.151 342.671 343.675 345.746 343.675 349.538C343.675 353.331 346.151 356.406 349.206 356.406Z" fill="#54F4FC"/>
<path d="M349.206 357.015C345.885 357.015 343.183 353.661 343.183 349.538C343.183 345.416 345.885 342.062 349.206 342.062C352.527 342.062 355.228 345.415 355.228 349.538C355.228 353.662 352.527 357.015 349.206 357.015ZM349.206 343.281C346.427 343.281 344.165 346.089 344.165 349.538C344.165 352.988 346.426 355.796 349.206 355.796C351.985 355.796 354.246 352.988 354.246 349.538C354.246 346.089 351.985 343.281 349.206 343.281Z" fill="#54F4FC"/>
<path d="M333.912 325.152C333.912 328.135 331.965 330.552 329.563 330.552C327.16 330.552 325.213 328.135 325.213 325.152C325.213 322.17 327.16 319.753 329.563 319.753C331.965 319.752 333.912 322.17 333.912 325.152Z" fill="#54F4FC"/>
<path d="M329.563 331.162C326.894 331.162 324.723 328.466 324.723 325.152C324.723 321.838 326.894 319.143 329.563 319.143C332.232 319.143 334.403 321.838 334.403 325.152C334.403 328.466 332.232 331.162 329.563 331.162ZM329.563 320.362C327.435 320.362 325.705 322.51 325.705 325.152C325.705 327.794 327.435 329.942 329.563 329.942C331.69 329.942 333.421 327.794 333.421 325.152C333.421 322.511 331.69 320.362 329.563 320.362Z" fill="#54F4FC"/>
<path d="M246.934 325.152C246.934 328.955 244.451 332.038 241.388 332.038C238.326 332.038 235.842 328.955 235.842 325.152C235.842 321.349 238.325 318.267 241.388 318.267C244.451 318.267 246.934 321.349 246.934 325.152Z" fill="#54F4FC"/>
<path d="M241.388 332.647C238.06 332.647 235.351 329.285 235.351 325.152C235.351 321.019 238.06 317.657 241.388 317.657C244.717 317.657 247.425 321.019 247.425 325.152C247.425 329.285 244.717 332.647 241.388 332.647ZM241.388 318.876C238.601 318.876 236.333 321.691 236.333 325.152C236.333 328.612 238.601 331.428 241.388 331.428C244.175 331.428 246.443 328.613 246.443 325.152C246.443 321.692 244.175 318.876 241.388 318.876Z" fill="#54F4FC"/>
<path d="M225.523 300.766C225.523 303.355 223.831 305.455 221.745 305.455C219.659 305.455 217.968 303.355 217.968 300.766C217.968 298.176 219.659 296.076 221.745 296.076C223.832 296.076 225.523 298.176 225.523 300.766Z" fill="#54F4FC"/>
<path d="M221.745 306.064C219.392 306.064 217.477 303.687 217.477 300.765C217.477 297.843 219.392 295.466 221.745 295.466C224.099 295.466 226.014 297.843 226.014 300.765C226.014 303.687 224.099 306.064 221.745 306.064ZM221.745 296.685C219.934 296.685 218.459 298.516 218.459 300.765C218.459 303.014 219.934 304.845 221.745 304.845C223.557 304.845 225.031 303.014 225.031 300.765C225.032 298.516 223.558 296.685 221.745 296.685Z" fill="#54F4FC"/>
<path d="M227.628 147.944C227.628 151.978 224.994 155.247 221.746 155.247C218.497 155.247 215.863 151.977 215.863 147.944C215.863 143.911 218.497 140.641 221.746 140.641C224.994 140.641 227.628 143.911 227.628 147.944Z" fill="#54F4FC"/>
<path d="M221.745 155.857C218.231 155.857 215.372 152.307 215.372 147.944C215.372 143.581 218.231 140.031 221.745 140.031C225.26 140.031 228.119 143.581 228.119 147.944C228.119 152.307 225.26 155.857 221.745 155.857ZM221.745 141.251C218.772 141.251 216.354 144.254 216.354 147.944C216.354 151.635 218.772 154.638 221.745 154.638C224.718 154.638 227.137 151.635 227.137 147.944C227.137 144.254 224.718 141.251 221.745 141.251Z" fill="#54F4FC"/>
<path d="M207.891 123.558C207.891 127.527 205.3 130.744 202.103 130.744C198.906 130.744 196.314 127.527 196.314 123.558C196.314 119.59 198.906 116.372 202.103 116.372C205.3 116.372 207.891 119.589 207.891 123.558Z" fill="#54F4FC"/>
<path d="M202.103 131.353C198.64 131.353 195.824 127.856 195.824 123.558C195.824 119.259 198.64 115.762 202.103 115.762C205.565 115.762 208.382 119.259 208.382 123.558C208.382 127.856 205.565 131.353 202.103 131.353ZM202.103 116.982C199.182 116.982 196.806 119.932 196.806 123.558C196.806 127.185 199.182 130.134 202.103 130.134C205.023 130.134 207.4 127.185 207.4 123.558C207.4 119.932 205.023 116.982 202.103 116.982Z" fill="#54F4FC"/>
<path d="M243.413 823.719C243.413 828.099 240.552 831.65 237.024 831.65C233.495 831.65 230.635 828.099 230.635 823.719C230.635 819.338 233.495 815.787 237.024 815.787C240.552 815.787 243.413 819.338 243.413 823.719Z" fill="#54F4FC"/>
<path d="M237.024 832.261C233.23 832.261 230.144 828.429 230.144 823.72C230.144 819.011 233.23 815.179 237.024 815.179C240.817 815.179 243.903 819.011 243.903 823.72C243.903 828.429 240.817 832.261 237.024 832.261ZM237.024 816.397C233.772 816.397 231.126 819.681 231.126 823.719C231.126 827.757 233.772 831.041 237.024 831.041C240.275 831.041 242.921 827.757 242.921 823.719C242.921 819.681 240.275 816.397 237.024 816.397Z" fill="#54F4FC"/>
<path d="M261.749 799.332C261.749 802.818 259.473 805.643 256.666 805.643C253.858 805.643 251.583 802.817 251.583 799.332C251.583 795.847 253.858 793.021 256.666 793.021C259.474 793.021 261.749 795.847 261.749 799.332Z" fill="#54F4FC"/>
<path d="M256.667 806.253C253.592 806.253 251.092 803.149 251.092 799.332C251.092 795.516 253.592 792.412 256.667 792.412C259.741 792.412 262.241 795.516 262.241 799.332C262.241 803.148 259.74 806.253 256.667 806.253ZM256.667 793.632C254.135 793.632 252.074 796.189 252.074 799.333C252.074 802.477 254.134 805.034 256.667 805.034C259.199 805.034 261.259 802.477 261.259 799.333C261.259 796.189 259.199 793.632 256.667 793.632Z" fill="#54F4FC"/>
<path d="M261.829 221.646C261.829 225.186 259.517 228.055 256.666 228.055C253.814 228.055 251.503 225.186 251.503 221.646C251.503 218.106 253.814 215.236 256.666 215.236C259.517 215.236 261.829 218.106 261.829 221.646Z" fill="#54F4FC"/>
<path d="M256.666 228.664C253.549 228.664 251.012 225.516 251.012 221.645C251.012 217.775 253.549 214.626 256.666 214.626C259.784 214.626 262.321 217.775 262.321 221.645C262.32 225.516 259.784 228.664 256.666 228.664ZM256.666 215.845C254.09 215.845 251.994 218.447 251.994 221.645C251.994 224.844 254.09 227.445 256.666 227.445C259.243 227.445 261.338 224.843 261.338 221.645C261.338 218.447 259.243 215.845 256.666 215.845Z" fill="#54F4FC"/>
<path d="M237.024 203.029C239.591 203.029 241.672 200.445 241.672 197.259C241.672 194.072 239.591 191.489 237.024 191.489C234.457 191.489 232.376 194.072 232.376 197.259C232.376 200.445 234.457 203.029 237.024 203.029Z" fill="#54F4FC"/>
<path d="M237.024 203.639C234.19 203.639 231.885 200.776 231.885 197.258C231.885 193.74 234.19 190.878 237.024 190.878C239.857 190.878 242.163 193.74 242.163 197.258C242.163 200.776 239.857 203.639 237.024 203.639ZM237.024 192.098C234.731 192.098 232.867 194.413 232.867 197.259C232.867 200.104 234.731 202.42 237.024 202.42C239.316 202.42 241.18 200.104 241.18 197.259C241.18 194.413 239.315 192.098 237.024 192.098Z" fill="#54F4FC"/>
<path d="M105.198 202.046C107.328 202.046 109.055 199.903 109.055 197.259C109.055 194.615 107.328 192.471 105.198 192.471C103.068 192.471 101.342 194.615 101.342 197.259C101.342 199.903 103.068 202.046 105.198 202.046Z" fill="#54F4FC"/>
<path d="M105.198 202.656C102.801 202.656 100.85 200.235 100.85 197.259C100.85 194.283 102.801 191.862 105.198 191.862C107.595 191.862 109.545 194.283 109.545 197.259C109.546 200.235 107.595 202.656 105.198 202.656ZM105.198 193.081C103.342 193.081 101.832 194.955 101.832 197.258C101.832 199.562 103.342 201.436 105.198 201.436C107.054 201.436 108.563 199.562 108.563 197.258C108.564 194.955 107.054 193.081 105.198 193.081Z" fill="#54F4FC"/>
<path d="M85.5555 180.564C88.9771 180.564 91.7508 177.12 91.7508 172.873C91.7508 168.625 88.977 165.181 85.5555 165.181C82.1339 165.181 79.3601 168.625 79.3601 172.873C79.3601 177.12 82.1339 180.564 85.5555 180.564Z" fill="#54F4FC"/>
<path d="M85.5553 181.173C81.8684 181.173 78.8694 177.449 78.8694 172.872C78.8694 168.295 81.8684 164.571 85.5553 164.571C89.2423 164.571 92.2412 168.295 92.2412 172.872C92.2412 177.449 89.2423 181.173 85.5553 181.173ZM85.5553 165.791C82.4105 165.791 79.8515 168.968 79.8515 172.872C79.8515 176.777 82.4105 179.954 85.5553 179.954C88.7001 179.954 91.2591 176.777 91.2591 172.872C91.2591 168.968 88.7001 165.791 85.5553 165.791Z" fill="#54F4FC"/>
<path d="M473.105 643.259C473.105 646.804 470.791 649.677 467.936 649.677C465.081 649.677 462.766 646.803 462.766 643.259C462.766 639.715 465.081 636.841 467.936 636.841C470.791 636.841 473.105 639.715 473.105 643.259Z" fill="#54F4FC"/>
<path d="M467.935 650.287C464.814 650.287 462.275 647.134 462.275 643.26C462.275 639.385 464.814 636.232 467.935 636.232C471.057 636.232 473.596 639.385 473.596 643.26C473.597 647.134 471.057 650.287 467.935 650.287ZM467.935 637.451C465.356 637.451 463.257 640.056 463.257 643.26C463.257 646.463 465.356 649.068 467.935 649.068C470.515 649.068 472.614 646.463 472.614 643.26C472.614 640.056 470.515 637.451 467.935 637.451Z" fill="#54F4FC"/>
<path d="M453.381 667.646C453.381 671.134 451.102 673.962 448.293 673.962C445.483 673.962 443.205 671.134 443.205 667.646C443.205 664.158 445.483 661.33 448.293 661.33C451.103 661.329 453.381 664.157 453.381 667.646Z" fill="#54F4FC"/>
<path d="M448.293 674.572C445.217 674.572 442.714 671.465 442.714 667.647C442.714 663.827 445.217 660.72 448.293 660.72C451.369 660.72 453.871 663.827 453.871 667.647C453.872 671.465 451.369 674.572 448.293 674.572ZM448.293 661.939C445.758 661.939 443.696 664.498 443.696 667.646C443.696 670.792 445.758 673.352 448.293 673.352C450.827 673.352 452.889 670.792 452.889 667.646C452.89 664.499 450.827 661.939 448.293 661.939Z" fill="#54F4FC"/>
<path d="M347.812 667.646C347.812 672.377 344.722 676.212 340.912 676.212C337.101 676.212 334.012 672.377 334.012 667.646C334.012 662.915 337.101 659.08 340.912 659.08C344.723 659.08 347.812 662.915 347.812 667.646Z" fill="#54F4FC"/>
<path d="M340.912 676.821C336.836 676.821 333.521 672.705 333.521 667.646C333.521 662.586 336.836 658.47 340.912 658.47C344.987 658.47 348.302 662.587 348.302 667.646C348.302 672.705 344.987 676.821 340.912 676.821ZM340.912 659.69C337.378 659.69 334.503 663.259 334.503 667.646C334.503 672.033 337.378 675.601 340.912 675.601C344.445 675.601 347.32 672.033 347.32 667.646C347.32 663.259 344.445 659.69 340.912 659.69Z" fill="#54F4FC"/>
<path d="M326.73 692.032C326.73 695.776 324.285 698.812 321.269 698.812C318.253 698.812 315.808 695.777 315.808 692.032C315.808 688.288 318.253 685.252 321.269 685.252C324.285 685.252 326.73 688.288 326.73 692.032Z" fill="#54F4FC"/>
<path d="M321.269 699.422C317.987 699.422 315.317 696.107 315.317 692.033C315.317 687.958 317.987 684.643 321.269 684.643C324.551 684.643 327.221 687.958 327.221 692.033C327.221 696.107 324.551 699.422 321.269 699.422ZM321.269 685.862C318.528 685.862 316.299 688.63 316.299 692.033C316.299 695.435 318.528 698.203 321.269 698.203C324.01 698.203 326.239 695.435 326.239 692.033C326.239 688.63 324.01 685.862 321.269 685.862Z" fill="#54F4FC"/>
<path d="M326.258 933.728C326.258 937.149 324.025 939.922 321.269 939.922C318.514 939.922 316.28 937.149 316.28 933.728C316.28 930.307 318.514 927.534 321.269 927.534C324.025 927.534 326.258 930.308 326.258 933.728Z" fill="#54F4FC"/>
<path d="M321.269 940.532C318.248 940.532 315.789 937.481 315.789 933.728C315.789 929.976 318.248 926.925 321.269 926.925C324.291 926.925 326.749 929.976 326.749 933.728C326.749 937.481 324.291 940.532 321.269 940.532ZM321.269 928.144C318.789 928.144 316.772 930.649 316.772 933.728C316.772 936.807 318.789 939.313 321.269 939.313C323.75 939.313 325.767 936.808 325.767 933.728C325.767 930.649 323.75 928.144 321.269 928.144Z" fill="#54F4FC"/>
<path d="M305.553 958.115C305.553 960.808 303.795 962.99 301.626 962.99C299.457 962.99 297.699 960.808 297.699 958.115C297.699 955.422 299.457 953.24 301.626 953.24C303.795 953.239 305.553 955.422 305.553 958.115Z" fill="#54F4FC"/>
<path d="M301.626 963.6C299.19 963.6 297.208 961.139 297.208 958.115C297.208 955.091 299.19 952.631 301.626 952.631C304.062 952.631 306.044 955.091 306.044 958.115C306.044 961.139 304.062 963.6 301.626 963.6ZM301.626 953.849C299.732 953.849 298.19 955.763 298.19 958.114C298.19 960.467 299.732 962.381 301.626 962.381C303.521 962.381 305.062 960.468 305.062 958.114C305.062 955.763 303.521 953.849 301.626 953.849Z" fill="#54F4FC"/>
<path d="M106.729 958.115C106.729 962.158 104.089 965.435 100.833 965.435C97.5766 965.435 94.9371 962.157 94.9371 958.115C94.9371 954.072 97.5766 950.796 100.833 950.796C104.089 950.795 106.729 954.072 106.729 958.115Z" fill="#54F4FC"/>
<path d="M100.833 966.043C97.3111 966.043 94.4457 962.487 94.4457 958.114C94.4457 953.742 97.3111 950.185 100.833 950.185C104.355 950.185 107.22 953.742 107.22 958.114C107.22 962.486 104.355 966.043 100.833 966.043ZM100.833 951.404C97.8527 951.404 95.4278 954.415 95.4278 958.114C95.4278 961.814 97.8527 964.824 100.833 964.824C103.813 964.824 106.238 961.814 106.238 958.114C106.238 954.415 103.813 951.404 100.833 951.404Z" fill="#54F4FC"/>
<path d="M86.2144 933.729C86.2144 937.174 83.9648 939.966 81.1903 939.966C78.4157 939.966 76.1661 937.173 76.1661 933.729C76.1661 930.284 78.4157 927.491 81.1903 927.491C83.9653 927.492 86.2144 930.284 86.2144 933.729Z" fill="#54F4FC"/>
<path d="M81.1904 940.575C78.1492 940.575 75.6752 937.504 75.6752 933.728C75.6752 929.952 78.1492 926.881 81.1904 926.881C84.2311 926.881 86.7056 929.953 86.7056 933.728C86.7056 937.504 84.2316 940.575 81.1904 940.575ZM81.1904 928.101C78.6908 928.101 76.6573 930.626 76.6573 933.728C76.6573 936.831 78.6913 939.356 81.1904 939.356C83.6899 939.356 85.7235 936.831 85.7235 933.728C85.7235 930.626 83.6899 928.101 81.1904 928.101Z" fill="#54F4FC"/>
<path d="M88.1194 663.852C88.1194 668.603 85.0173 672.454 81.1908 672.454C77.3644 672.454 74.2623 668.603 74.2623 663.852C74.2623 659.101 77.3644 655.25 81.1908 655.25C85.0173 655.25 88.1194 659.101 88.1194 663.852Z" fill="#54F4FC"/>
<path d="M81.1905 673.064C77.0993 673.064 73.7709 668.932 73.7709 663.852C73.7709 658.773 77.0993 654.641 81.1905 654.641C85.2816 654.641 88.61 658.773 88.61 663.852C88.6105 668.932 85.2821 673.064 81.1905 673.064ZM81.1905 655.86C77.641 655.86 74.753 659.445 74.753 663.852C74.753 668.259 77.641 671.845 81.1905 671.845C84.7404 671.845 87.6279 668.26 87.6279 663.852C87.6284 659.446 84.7404 655.86 81.1905 655.86Z" fill="#54F4FC"/>
<path d="M65.6717 639.466C65.6717 642.294 63.8253 644.586 61.5472 644.586C59.2696 644.586 57.4232 642.294 57.4232 639.466C57.4232 636.637 59.2696 634.345 61.5472 634.345C63.8253 634.346 65.6717 636.638 65.6717 639.466Z" fill="#54F4FC"/>
<path d="M61.5473 645.195C59.0021 645.195 56.9323 642.625 56.9323 639.466C56.9323 636.306 59.0026 633.736 61.5473 633.736C64.0926 633.736 66.1629 636.306 66.1629 639.466C66.1629 642.625 64.0926 645.195 61.5473 645.195ZM61.5473 634.955C59.5443 634.955 57.9144 636.978 57.9144 639.466C57.9144 641.953 59.5443 643.976 61.5473 643.976C63.5504 643.976 65.1808 641.953 65.1808 639.466C65.1808 636.978 63.5509 634.955 61.5473 634.955Z" fill="#54F4FC"/>
<path d="M503.822 800.416C503.822 804.67 501.044 808.118 497.618 808.118C494.192 808.118 491.414 804.669 491.414 800.416C491.414 796.162 494.192 792.714 497.618 792.714C501.044 792.714 503.822 796.162 503.822 800.416Z" fill="#54F4FC"/>
<path d="M497.618 808.728C493.927 808.728 490.923 804.999 490.923 800.417C490.923 795.834 493.926 792.105 497.618 792.105C501.31 792.105 504.313 795.834 504.313 800.417C504.313 804.999 501.31 808.728 497.618 808.728ZM497.618 793.324C494.468 793.324 491.905 796.506 491.905 800.417C491.905 804.327 494.468 807.509 497.618 807.509C500.768 807.509 503.331 804.327 503.331 800.417C503.331 796.506 500.768 793.324 497.618 793.324Z" fill="#54F4FC"/>
<path d="M482.087 776.03C482.087 778.849 480.246 781.134 477.975 781.134C475.704 781.134 473.863 778.849 473.863 776.03C473.863 773.211 475.704 770.925 477.975 770.925C480.246 770.925 482.087 773.211 482.087 776.03Z" fill="#54F4FC"/>
<path d="M477.975 781.745C475.437 781.745 473.372 779.181 473.372 776.03C473.372 772.879 475.437 770.316 477.975 770.316C480.513 770.316 482.578 772.879 482.578 776.03C482.578 779.18 480.513 781.745 477.975 781.745ZM477.975 771.535C475.979 771.535 474.355 773.55 474.355 776.03C474.355 778.509 475.979 780.525 477.975 780.525C479.972 780.525 481.595 778.509 481.595 776.03C481.595 773.55 479.972 771.535 477.975 771.535Z" fill="#54F4FC"/>
<path d="M426.572 776.03C426.572 779.692 424.18 782.662 421.23 782.662C418.279 782.662 415.888 779.692 415.888 776.03C415.888 772.367 418.279 769.398 421.23 769.398C424.18 769.398 426.572 772.367 426.572 776.03Z" fill="#54F4FC"/>
<path d="M421.23 783.272C418.013 783.272 415.397 780.024 415.397 776.03C415.397 772.036 418.013 768.788 421.23 768.788C424.446 768.788 427.062 772.036 427.062 776.03C427.062 780.024 424.446 783.272 421.23 783.272ZM421.23 770.007C418.555 770.007 416.379 772.709 416.379 776.03C416.379 779.351 418.555 782.053 421.23 782.053C423.904 782.053 426.08 779.351 426.08 776.03C426.08 772.709 423.904 770.007 421.23 770.007Z" fill="#54F4FC"/>
<path d="M405.449 751.643C405.449 754.291 403.72 756.438 401.587 756.438C399.454 756.438 397.724 754.291 397.724 751.643C397.724 748.995 399.454 746.848 401.587 746.848C403.719 746.848 405.449 748.995 405.449 751.643Z" fill="#54F4FC"/>
<path d="M401.587 757.048C399.186 757.048 397.234 754.624 397.234 751.643C397.234 748.663 399.187 746.238 401.587 746.238C403.988 746.238 405.94 748.663 405.94 751.643C405.94 754.624 403.988 757.048 401.587 757.048ZM401.587 747.458C399.728 747.458 398.216 749.336 398.216 751.644C398.216 753.951 399.728 755.829 401.587 755.829C403.446 755.829 404.958 753.951 404.958 751.644C404.958 749.336 403.446 747.458 401.587 747.458Z" fill="#54F4FC"/>
<path d="M407.269 637.84C407.269 641.737 404.725 644.895 401.587 644.895C398.448 644.895 395.904 641.737 395.904 637.84C395.904 633.943 398.448 630.785 401.587 630.785C404.725 630.784 407.269 633.943 407.269 637.84Z" fill="#54F4FC"/>
<path d="M401.587 645.505C398.182 645.505 395.413 642.066 395.413 637.84C395.413 633.614 398.182 630.175 401.587 630.175C404.991 630.175 407.76 633.614 407.76 637.84C407.76 642.066 404.991 645.505 401.587 645.505ZM401.587 631.395C398.724 631.395 396.395 634.286 396.395 637.841C396.395 641.395 398.724 644.286 401.587 644.286C404.449 644.286 406.778 641.395 406.778 637.841C406.778 634.286 404.449 631.395 401.587 631.395Z" fill="#54F4FC"/>
<path d="M386.143 613.453C386.143 616.333 384.263 618.667 381.944 618.667C379.624 618.667 377.745 616.333 377.745 613.453C377.745 610.574 379.625 608.24 381.944 608.24C384.263 608.24 386.143 610.574 386.143 613.453Z" fill="#54F4FC"/>
<path d="M381.944 619.277C379.357 619.277 377.253 616.665 377.253 613.455C377.253 610.243 379.357 607.631 381.944 607.631C384.53 607.631 386.634 610.243 386.634 613.455C386.634 616.664 384.53 619.277 381.944 619.277ZM381.944 608.85C379.899 608.85 378.235 610.916 378.235 613.455C378.235 615.993 379.899 618.058 381.944 618.058C383.988 618.058 385.652 615.993 385.652 613.455C385.652 610.915 383.988 608.85 381.944 608.85Z" fill="#54F4FC"/>
<path d="M159.504 613.453C159.504 617.167 157.079 620.179 154.087 620.179C151.095 620.179 148.669 617.168 148.669 613.453C148.669 609.739 151.095 606.727 154.087 606.727C157.079 606.727 159.504 609.739 159.504 613.453Z" fill="#54F4FC"/>
<path d="M154.087 620.789C150.829 620.789 148.179 617.499 148.179 613.454C148.179 609.41 150.829 606.118 154.087 606.118C157.345 606.118 159.995 609.41 159.995 613.454C159.995 617.499 157.345 620.789 154.087 620.789ZM154.087 607.337C151.371 607.337 149.161 610.08 149.161 613.454C149.161 616.826 151.371 619.57 154.087 619.57C156.804 619.57 159.013 616.826 159.013 613.454C159.013 610.081 156.804 607.337 154.087 607.337Z" fill="#54F4FC"/>
<path d="M134.444 594.69C136.946 594.69 138.973 592.173 138.973 589.067C138.973 585.962 136.946 583.444 134.444 583.444C131.943 583.444 129.915 585.962 129.915 589.067C129.915 592.173 131.943 594.69 134.444 594.69Z" fill="#54F4FC"/>
<path d="M134.444 595.3C131.676 595.3 129.424 592.504 129.424 589.068C129.424 585.63 131.676 582.834 134.444 582.834C137.213 582.834 139.465 585.63 139.465 589.068C139.465 592.504 137.213 595.3 134.444 595.3ZM134.444 584.053C132.218 584.053 130.406 586.303 130.406 589.068C130.406 591.831 132.217 594.081 134.444 594.081C136.671 594.081 138.483 591.832 138.483 589.068C138.482 586.303 136.671 584.053 134.444 584.053Z" fill="#54F4FC"/>
<path d="M138.287 369.048C138.287 371.683 136.566 373.819 134.444 373.819C132.322 373.819 130.601 371.683 130.601 369.048C130.601 366.413 132.322 364.277 134.444 364.277C136.566 364.277 138.287 366.413 138.287 369.048Z" fill="#54F4FC"/>
<path d="M134.444 374.427C132.055 374.427 130.111 372.014 130.111 369.047C130.111 366.081 132.055 363.667 134.444 363.667C136.833 363.667 138.777 366.08 138.777 369.047C138.777 372.014 136.833 374.427 134.444 374.427ZM134.444 364.887C132.596 364.887 131.093 366.753 131.093 369.048C131.093 371.342 132.596 373.208 134.444 373.208C136.292 373.208 137.795 371.342 137.795 369.048C137.795 366.753 136.292 364.887 134.444 364.887Z" fill="#54F4FC"/>
<path d="M118.582 344.661C118.582 347.253 116.889 349.354 114.802 349.354C112.713 349.354 111.021 347.253 111.021 344.661C111.021 342.069 112.714 339.968 114.802 339.968C116.889 339.968 118.582 342.069 118.582 344.661Z" fill="#54F4FC"/>
<path d="M114.802 349.964C112.446 349.964 110.53 347.585 110.53 344.662C110.53 341.738 112.446 339.358 114.802 339.358C117.157 339.358 119.073 341.737 119.073 344.662C119.073 347.585 117.157 349.964 114.802 349.964ZM114.802 340.577C112.988 340.577 111.512 342.41 111.512 344.661C111.512 346.913 112.988 348.745 114.802 348.745C116.615 348.745 118.091 346.913 118.091 344.661C118.091 342.41 116.615 340.577 114.802 340.577Z" fill="#54F4FC"/>
<path d="M99.0875 262.067C102.845 262.067 105.892 258.284 105.892 253.619C105.892 248.953 102.845 245.171 99.0875 245.171C95.3296 245.171 92.2832 248.953 92.2832 253.619C92.2832 258.284 95.3296 262.067 99.0875 262.067Z" fill="#54F4FC"/>
<path d="M99.0873 262.676C95.065 262.676 91.792 258.613 91.792 253.619C91.792 248.626 95.065 244.562 99.0873 244.562C103.11 244.562 106.383 248.626 106.383 253.619C106.383 258.613 103.11 262.676 99.0873 262.676ZM99.0873 245.781C95.6061 245.781 92.7741 249.297 92.7741 253.619C92.7741 257.941 95.6066 261.456 99.0873 261.456C102.569 261.456 105.401 257.941 105.401 253.619C105.401 249.297 102.569 245.781 99.0873 245.781Z" fill="#54F4FC"/>
<path d="M124.265 229.232C124.265 233.027 121.787 236.105 118.729 236.105C115.672 236.105 113.194 233.028 113.194 229.232C113.194 225.437 115.672 222.359 118.729 222.359C121.787 222.36 124.265 225.437 124.265 229.232Z" fill="#54F4FC"/>
<path d="M118.73 236.714C115.407 236.714 112.704 233.358 112.704 229.232C112.704 225.106 115.407 221.749 118.73 221.749C122.053 221.749 124.756 225.106 124.756 229.232C124.756 233.358 122.053 236.714 118.73 236.714ZM118.73 222.969C115.949 222.969 113.686 225.779 113.686 229.233C113.686 232.686 115.949 235.495 118.73 235.495C121.511 235.495 123.774 232.685 123.774 229.233C123.774 225.779 121.511 222.969 118.73 222.969Z" fill="#54F4FC"/>
<path d="M233.915 68.8678C233.939 64.1083 230.85 60.2265 227.016 60.1975C223.183 60.1684 220.056 64.0032 220.033 68.7627C220.009 73.5221 223.098 77.4039 226.932 77.4329C230.765 77.462 233.892 73.6272 233.915 68.8678Z" fill="#54F4FC"/>
<path d="M226.984 78.0507C222.885 78.0507 219.551 73.9115 219.551 68.8234C219.551 63.7353 222.885 59.5962 226.984 59.5962C231.082 59.5962 234.416 63.7353 234.416 68.8234C234.416 73.9122 231.082 78.0507 226.984 78.0507ZM226.984 60.8158C223.427 60.8158 220.533 64.4082 220.533 68.8234C220.533 73.2386 223.427 76.831 226.984 76.8311C230.54 76.8311 233.434 73.2387 233.434 68.8234C233.434 64.4088 230.54 60.8158 226.984 60.8158Z" fill="#54F4FC"/>
<path d="M250.443 93.2099C250.443 95.8265 248.735 97.9482 246.626 97.9482C244.518 97.9482 242.81 95.8271 242.81 93.2099C242.81 90.5934 244.518 88.4717 246.626 88.4717C248.735 88.4717 250.443 90.5934 250.443 93.2099Z" fill="#54F4FC"/>
<path d="M246.627 98.5578C244.251 98.5578 242.319 96.1588 242.319 93.2101C242.319 90.2613 244.251 87.8623 246.627 87.8623C249.002 87.8623 250.934 90.2613 250.934 93.2101C250.934 96.1588 249.002 98.5578 246.627 98.5578ZM246.627 89.0819C244.793 89.0819 243.301 90.9342 243.301 93.2101C243.301 95.4859 244.793 97.3382 246.627 97.3382C248.46 97.3382 249.952 95.4859 249.952 93.2101C249.952 90.9342 248.46 89.0819 246.627 89.0819Z" fill="#54F4FC"/>
<path d="M380.862 93.2102C380.862 97.2567 378.219 100.538 374.96 100.538C371.7 100.538 369.057 97.2573 369.057 93.2102C369.057 89.1638 371.7 85.8828 374.96 85.8828C378.219 85.8828 380.862 89.1638 380.862 93.2102Z" fill="#54F4FC"/>
<path d="M374.959 101.147C371.434 101.147 368.566 97.5871 368.566 93.2102C368.566 88.8334 371.434 85.2733 374.959 85.2733C378.485 85.2733 381.353 88.8334 381.353 93.2102C381.353 97.5871 378.485 101.147 374.959 101.147ZM374.959 86.4929C371.976 86.4929 369.548 89.5069 369.548 93.2102C369.548 96.9142 371.976 99.9275 374.959 99.9275C377.943 99.9275 380.371 96.9136 380.371 93.2102C380.371 89.5063 377.943 86.4929 374.959 86.4929Z" fill="#54F4FC"/>
<path d="M399.679 68.8236C399.679 72.3045 397.406 75.1265 394.603 75.1265C391.799 75.1264 389.525 72.3045 389.525 68.8236C389.525 65.3427 391.799 62.5208 394.603 62.5208C397.406 62.5208 399.679 65.3427 399.679 68.8236Z" fill="#54F4FC"/>
<path d="M394.602 75.7366C391.532 75.7366 389.034 72.636 389.034 68.8242C389.034 65.0124 391.532 61.9113 394.602 61.9113C397.672 61.9113 400.17 65.0124 400.17 68.8242C400.17 72.6354 397.672 75.7366 394.602 75.7366ZM394.602 63.1303C392.074 63.1303 390.017 65.6847 390.017 68.8236C390.017 71.9631 392.074 74.5163 394.602 74.5163C397.131 74.5163 399.188 71.9625 399.188 68.8236C399.188 65.6847 397.131 63.1303 394.602 63.1303Z" fill="#54F4FC"/>
<path d="M504.166 723.713C506.446 723.713 508.295 721.417 508.295 718.586C508.295 715.755 506.446 713.46 504.166 713.46C501.885 713.46 500.036 715.755 500.036 718.586C500.036 721.417 501.885 723.713 504.166 723.713Z" fill="#54F4FC"/>
<path d="M504.166 724.323C501.618 724.323 499.545 721.75 499.545 718.586C499.545 715.423 501.618 712.85 504.166 712.85C506.714 712.85 508.786 715.423 508.786 718.586C508.786 721.75 506.714 724.323 504.166 724.323ZM504.166 714.07C502.16 714.07 500.528 716.096 500.528 718.586C500.528 721.077 502.16 723.104 504.166 723.104C506.172 723.104 507.804 721.077 507.804 718.586C507.804 716.096 506.171 714.07 504.166 714.07Z" fill="#54F4FC"/>
<path d="M529.807 694.199C529.807 698.312 527.121 701.646 523.808 701.646C520.496 701.646 517.81 698.312 517.81 694.199C517.81 690.087 520.496 686.753 523.808 686.753C527.122 686.753 529.807 690.087 529.807 694.199Z" fill="#54F4FC"/>
<path d="M523.809 702.256C520.231 702.256 517.319 698.643 517.319 694.2C517.319 689.757 520.231 686.144 523.809 686.144C527.387 686.144 530.298 689.757 530.298 694.2C530.298 698.642 527.387 702.256 523.809 702.256ZM523.809 687.363C520.772 687.363 518.302 690.43 518.302 694.2C518.302 697.97 520.772 701.037 523.809 701.037C526.845 701.037 529.316 697.97 529.316 694.2C529.316 690.43 526.845 687.363 523.809 687.363Z" fill="#54F4FC"/>
<path d="M528.442 596.654C528.442 599.831 526.367 602.406 523.808 602.406C521.249 602.406 519.175 599.831 519.175 596.654C519.175 593.478 521.249 590.902 523.808 590.902C526.367 590.902 528.442 593.478 528.442 596.654Z" fill="#54F4FC"/>
<path d="M523.809 603.016C520.983 603.016 518.684 600.162 518.684 596.654C518.684 593.147 520.983 590.293 523.809 590.293C526.634 590.293 528.932 593.147 528.932 596.654C528.932 600.162 526.634 603.016 523.809 603.016ZM523.809 591.512C521.525 591.512 519.666 593.819 519.666 596.654C519.666 599.491 521.525 601.797 523.809 601.797C526.092 601.797 527.95 599.491 527.95 596.654C527.95 593.819 526.092 591.512 523.809 591.512Z" fill="#54F4FC"/>
<path d="M504.166 579.592C507.424 579.592 510.065 576.313 510.065 572.268C510.065 568.222 507.424 564.943 504.166 564.943C500.908 564.943 498.267 568.222 498.267 572.268C498.267 576.313 500.908 579.592 504.166 579.592Z" fill="#54F4FC"/>
<path d="M504.166 580.201C500.642 580.201 497.775 576.643 497.775 572.268C497.775 567.893 500.642 564.334 504.166 564.334C507.69 564.334 510.556 567.893 510.556 572.268C510.556 576.643 507.689 580.201 504.166 580.201ZM504.166 565.553C501.183 565.553 498.757 568.565 498.757 572.268C498.757 575.97 501.183 578.982 504.166 578.982C507.148 578.982 509.574 575.97 509.574 572.268C509.574 568.565 507.148 565.553 504.166 565.553Z" fill="#54F4FC"/>
<path d="M440.436 578.77C443.328 578.77 445.673 575.859 445.673 572.268C445.673 568.676 443.328 565.765 440.436 565.765C437.544 565.765 435.199 568.676 435.199 572.268C435.199 575.859 437.544 578.77 440.436 578.77Z" fill="#54F4FC"/>
<path d="M440.436 579.378C437.277 579.378 434.708 576.188 434.708 572.267C434.708 568.346 437.277 565.156 440.436 565.156C443.594 565.156 446.164 568.346 446.164 572.267C446.164 576.188 443.594 579.378 440.436 579.378ZM440.436 566.375C437.819 566.375 435.69 569.019 435.69 572.267C435.69 575.515 437.819 578.159 440.436 578.159C443.053 578.159 445.182 575.516 445.182 572.267C445.182 569.019 443.053 566.375 440.436 566.375Z" fill="#54F4FC"/>
<path d="M420.793 552.522C422.857 552.522 424.531 550.444 424.531 547.881C424.531 545.318 422.857 543.24 420.793 543.24C418.728 543.24 417.055 545.318 417.055 547.881C417.055 550.444 418.728 552.522 420.793 552.522Z" fill="#54F4FC"/>
<path d="M420.793 553.131C418.461 553.131 416.564 550.776 416.564 547.881C416.564 544.987 418.461 542.631 420.793 542.631C423.124 542.631 425.021 544.986 425.021 547.881C425.021 550.776 423.124 553.131 420.793 553.131ZM420.793 543.85C419.002 543.85 417.546 545.659 417.546 547.881C417.546 550.102 419.002 551.911 420.793 551.911C422.583 551.911 424.039 550.102 424.039 547.881C424.039 545.659 422.583 543.85 420.793 543.85Z" fill="#54F4FC"/>
<path d="M426.163 410.233C426.163 413.915 423.759 416.9 420.793 416.9C417.827 416.9 415.423 413.915 415.423 410.233C415.423 406.551 417.827 403.567 420.793 403.567C423.759 403.567 426.163 406.551 426.163 410.233Z" fill="#54F4FC"/>
<path d="M420.793 417.51C417.561 417.51 414.932 414.246 414.932 410.233C414.932 406.221 417.561 402.957 420.793 402.957C424.025 402.957 426.654 406.221 426.654 410.233C426.654 414.246 424.025 417.51 420.793 417.51ZM420.793 404.177C418.103 404.177 415.914 406.894 415.914 410.233C415.914 413.573 418.103 416.29 420.793 416.29C423.483 416.29 425.672 413.573 425.672 410.233C425.672 406.894 423.483 404.177 420.793 404.177Z" fill="#54F4FC"/>
<path d="M405.168 385.847C405.168 388.602 403.369 390.836 401.15 390.836C398.93 390.836 397.131 388.602 397.131 385.847C397.131 383.091 398.93 380.858 401.15 380.858C403.369 380.858 405.168 383.092 405.168 385.847Z" fill="#54F4FC"/>
<path d="M401.15 391.446C398.663 391.446 396.64 388.935 396.64 385.847C396.64 382.76 398.663 380.249 401.15 380.249C403.636 380.249 405.66 382.76 405.66 385.847C405.66 388.934 403.637 391.446 401.15 391.446ZM401.15 381.468C399.205 381.468 397.622 383.432 397.622 385.847C397.622 388.262 399.205 390.227 401.15 390.227C403.095 390.227 404.678 388.262 404.678 385.847C404.678 383.433 403.095 381.468 401.15 381.468Z" fill="#54F4FC"/>
<path d="M339.635 385.847C339.635 388.563 337.861 390.765 335.674 390.765C333.486 390.765 331.713 388.563 331.713 385.847C331.713 383.131 333.486 380.93 335.674 380.93C337.861 380.93 339.635 383.132 339.635 385.847Z" fill="#54F4FC"/>
<path d="M335.674 391.374C333.219 391.374 331.222 388.895 331.222 385.847C331.222 382.8 333.219 380.319 335.674 380.319C338.129 380.319 340.126 382.8 340.126 385.847C340.126 388.895 338.129 391.374 335.674 391.374ZM335.674 381.539C333.761 381.539 332.204 383.472 332.204 385.847C332.204 388.222 333.761 390.154 335.674 390.154C337.587 390.154 339.144 388.222 339.144 385.847C339.144 383.472 337.587 381.539 335.674 381.539Z" fill="#54F4FC"/>
<path d="M320.761 361.461C320.761 364.704 318.643 367.333 316.031 367.333C313.419 367.333 311.301 364.704 311.301 361.461C311.301 358.217 313.419 355.588 316.031 355.588C318.643 355.588 320.761 358.217 320.761 361.461Z" fill="#54F4FC"/>
<path d="M316.031 367.943C313.152 367.943 310.81 365.035 310.81 361.461C310.81 357.886 313.152 354.978 316.031 354.978C318.91 354.978 321.252 357.886 321.252 361.461C321.252 365.035 318.91 367.943 316.031 367.943ZM316.031 356.198C313.693 356.198 311.792 358.559 311.792 361.461C311.792 364.363 313.693 366.723 316.031 366.723C318.368 366.723 320.27 364.363 320.27 361.461C320.27 358.559 318.368 356.198 316.031 356.198Z" fill="#54F4FC"/>
<path d="M320.38 249.825C320.38 252.808 318.433 255.225 316.031 255.225C313.629 255.225 311.682 252.808 311.682 249.825C311.682 246.843 313.629 244.426 316.031 244.426C318.433 244.426 320.38 246.843 320.38 249.825Z" fill="#54F4FC"/>
<path d="M316.031 255.834C313.362 255.834 311.191 253.138 311.191 249.825C311.191 246.512 313.362 243.816 316.031 243.816C318.7 243.816 320.871 246.512 320.871 249.825C320.871 253.138 318.7 255.834 316.031 255.834ZM316.031 245.035C313.904 245.035 312.173 247.184 312.173 249.825C312.173 252.466 313.904 254.615 316.031 254.615C318.158 254.615 319.889 252.466 319.889 249.825C319.889 247.184 318.158 245.035 316.031 245.035Z" fill="#54F4FC"/>
<path d="M342.551 225.439C342.551 230.154 339.472 233.976 335.674 233.976C331.876 233.976 328.798 230.154 328.798 225.439C328.798 220.724 331.876 216.902 335.674 216.902C339.472 216.902 342.551 220.724 342.551 225.439Z" fill="#54F4FC"/>
<path d="M335.673 234.585C331.611 234.585 328.306 230.482 328.306 225.438C328.306 220.395 331.611 216.292 335.673 216.292C339.736 216.292 343.041 220.395 343.041 225.438C343.041 230.482 339.736 234.585 335.673 234.585ZM335.673 217.511C332.152 217.511 329.288 221.068 329.288 225.438C329.288 229.81 332.152 233.366 335.673 233.366C339.194 233.366 342.059 229.81 342.059 225.438C342.059 221.068 339.194 217.511 335.673 217.511Z" fill="#54F4FC"/>
<path d="M379.8 225.439C379.8 228.758 377.633 231.448 374.96 231.448C372.287 231.448 370.12 228.758 370.12 225.439C370.12 222.12 372.287 219.43 374.96 219.43C377.633 219.43 379.8 222.12 379.8 225.439Z" fill="#54F4FC"/>
<path d="M374.959 232.058C372.02 232.058 369.628 229.089 369.628 225.439C369.628 221.789 372.02 218.821 374.959 218.821C377.899 218.821 380.29 221.789 380.29 225.439C380.291 229.088 377.899 232.058 374.959 232.058ZM374.959 220.04C372.561 220.04 370.61 222.462 370.61 225.439C370.61 228.417 372.561 230.839 374.959 230.839C377.358 230.839 379.308 228.417 379.308 225.439C379.309 222.461 377.358 220.04 374.959 220.04Z" fill="#54F4FC"/>
<path d="M398.769 249.825C398.769 252.682 396.903 254.998 394.603 254.998C392.301 254.998 390.436 252.682 390.436 249.825C390.436 246.968 392.302 244.652 394.603 244.652C396.903 244.652 398.769 246.968 398.769 249.825Z" fill="#54F4FC"/>
<path d="M394.602 255.607C392.034 255.607 389.945 253.013 389.945 249.825C389.945 246.637 392.034 244.043 394.602 244.043C397.17 244.043 399.259 246.637 399.259 249.825C399.259 253.013 397.17 255.607 394.602 255.607ZM394.602 245.262C392.575 245.262 390.927 247.309 390.927 249.825C390.927 252.341 392.575 254.388 394.602 254.388C396.629 254.388 398.277 252.341 398.277 249.825C398.278 247.309 396.629 245.262 394.602 245.262Z" fill="#54F4FC"/>
<path d="M398.896 257.412C398.896 260.357 396.974 262.743 394.602 262.743C392.23 262.743 390.308 260.356 390.308 257.412C390.308 254.467 392.23 252.081 394.602 252.081C396.974 252.081 398.896 254.468 398.896 257.412Z" fill="#54F4FC"/>
<path d="M394.602 263.353C391.964 263.353 389.817 260.688 389.817 257.412C389.817 254.136 391.964 251.471 394.602 251.471C397.241 251.471 399.388 254.135 399.388 257.412C399.388 260.688 397.241 263.353 394.602 263.353ZM394.602 252.69C392.505 252.69 390.799 254.808 390.799 257.412C390.799 260.015 392.505 262.133 394.602 262.133C396.699 262.133 398.405 260.015 398.405 257.412C398.405 254.808 396.7 252.69 394.602 252.69Z" fill="#54F4FC"/>
<path d="M418.28 281.798C418.28 284.565 416.474 286.808 414.245 286.808C412.017 286.808 410.21 284.565 410.21 281.798C410.21 279.032 412.017 276.789 414.245 276.789C416.474 276.789 418.28 279.032 418.28 281.798Z" fill="#54F4FC"/>
<path d="M414.245 287.418C411.749 287.418 409.719 284.897 409.719 281.798C409.719 278.7 411.749 276.179 414.245 276.179C416.741 276.179 418.772 278.7 418.772 281.798C418.772 284.897 416.741 287.418 414.245 287.418ZM414.245 277.398C412.29 277.398 410.701 279.372 410.701 281.798C410.701 284.225 412.29 286.199 414.245 286.199C416.199 286.199 417.789 284.225 417.789 281.798C417.789 279.372 416.199 277.398 414.245 277.398Z" fill="#54F4FC"/>
<path d="M528.534 281.798C528.534 286.535 525.441 290.374 521.626 290.374C517.811 290.374 514.719 286.535 514.719 281.798C514.719 277.062 517.812 273.223 521.626 273.223C525.441 273.223 528.534 277.062 528.534 281.798Z" fill="#54F4FC"/>
<path d="M521.626 290.983C517.546 290.983 514.227 286.863 514.227 281.798C514.227 276.733 517.546 272.613 521.626 272.613C525.705 272.613 529.024 276.734 529.024 281.798C529.025 286.863 525.706 290.983 521.626 290.983ZM521.626 273.832C518.088 273.832 515.209 277.406 515.209 281.798C515.209 286.191 518.088 289.764 521.626 289.764C525.164 289.764 528.042 286.191 528.042 281.798C528.042 277.406 525.164 273.832 521.626 273.832Z" fill="#54F4FC"/>
<path d="M545.997 257.412C545.997 260.654 543.88 263.282 541.269 263.282C538.658 263.282 536.541 260.654 536.541 257.412C536.541 254.17 538.658 251.542 541.269 251.542C543.88 251.542 545.997 254.17 545.997 257.412Z" fill="#54F4FC"/>
<path d="M541.269 263.891C538.391 263.891 536.05 260.984 536.05 257.411C536.05 253.839 538.391 250.932 541.269 250.932C544.146 250.932 546.488 253.839 546.488 257.411C546.488 260.984 544.147 263.891 541.269 263.891ZM541.269 252.152C538.932 252.152 537.032 254.511 537.032 257.411C537.032 260.312 538.932 262.671 541.269 262.671C543.605 262.671 545.506 260.312 545.506 257.411C545.506 254.511 543.605 252.152 541.269 252.152Z" fill="#54F4FC"/>
<path d="M181.103 273.128C181.103 277.286 178.388 280.656 175.039 280.656C171.69 280.656 168.975 277.286 168.975 273.128C168.975 268.97 171.69 265.599 175.039 265.599C178.388 265.599 181.103 268.97 181.103 273.128Z" fill="#54F4FC"/>
<path d="M175.039 281.266C171.425 281.266 168.484 277.615 168.484 273.128C168.484 268.64 171.424 264.99 175.039 264.99C178.654 264.99 181.595 268.64 181.595 273.128C181.594 277.615 178.654 281.266 175.039 281.266ZM175.039 266.209C171.966 266.209 169.466 269.313 169.466 273.128C169.466 276.943 171.966 280.047 175.039 280.047C178.113 280.047 180.613 276.944 180.613 273.128C180.612 269.313 178.113 266.209 175.039 266.209Z" fill="#54F4FC"/>
<path d="M200.471 297.515C200.471 301.484 197.879 304.702 194.682 304.702C191.484 304.702 188.893 301.484 188.893 297.514C188.893 293.545 191.484 290.327 194.682 290.327C197.879 290.327 200.471 293.545 200.471 297.515Z" fill="#54F4FC"/>
<path d="M194.682 305.312C191.219 305.312 188.402 301.814 188.402 297.515C188.402 293.216 191.219 289.718 194.682 289.718C198.145 289.718 200.963 293.216 200.963 297.515C200.963 301.814 198.145 305.312 194.682 305.312ZM194.682 290.937C191.761 290.937 189.384 293.887 189.384 297.514C189.384 301.142 191.761 304.092 194.682 304.092C197.604 304.092 199.981 301.142 199.981 297.514C199.981 293.887 197.604 290.937 194.682 290.937Z" fill="#54F4FC"/>
<path d="M194.682 417.816C197.573 417.816 199.917 414.907 199.917 411.317C199.917 407.728 197.573 404.818 194.682 404.818C191.791 404.818 189.447 407.728 189.447 411.317C189.447 414.907 191.791 417.816 194.682 417.816Z" fill="#54F4FC"/>
<path d="M194.683 418.426C191.525 418.426 188.956 415.237 188.956 411.317C188.956 407.397 191.526 404.208 194.683 404.208C197.84 404.208 200.409 407.397 200.409 411.317C200.409 415.237 197.84 418.426 194.683 418.426ZM194.683 405.427C192.067 405.427 189.938 408.07 189.938 411.317C189.938 414.565 192.067 417.207 194.683 417.207C197.298 417.207 199.426 414.565 199.426 411.317C199.426 408.07 197.298 405.428 194.683 405.427Z" fill="#54F4FC"/>
<path d="M175.039 443.82C178.65 443.82 181.577 440.186 181.577 435.704C181.577 431.222 178.65 427.588 175.039 427.588C171.429 427.588 168.502 431.222 168.502 435.704C168.502 440.186 171.429 443.82 175.039 443.82Z" fill="#54F4FC"/>
<path d="M175.04 444.43C171.164 444.43 168.011 440.515 168.011 435.704C168.011 430.893 171.164 426.978 175.04 426.978C178.915 426.978 182.068 430.893 182.068 435.704C182.068 440.515 178.915 444.43 175.04 444.43ZM175.04 428.197C171.705 428.197 168.993 431.565 168.993 435.704C168.993 439.844 171.705 443.211 175.04 443.211C178.374 443.211 181.086 439.844 181.086 435.704C181.086 431.565 178.374 428.197 175.04 428.197Z" fill="#54F4FC"/>
<path d="M559.849 882.788C559.849 887.147 557.002 890.681 553.491 890.681C549.98 890.681 547.134 887.147 547.134 882.788C547.134 878.429 549.98 874.895 553.491 874.895C557.002 874.895 559.849 878.429 559.849 882.788Z" fill="#54F4FC"/>
<path d="M553.491 891.29C549.715 891.29 546.643 887.476 546.643 882.788C546.643 878.099 549.715 874.285 553.491 874.285C557.267 874.285 560.34 878.099 560.34 882.788C560.34 887.476 557.267 891.29 553.491 891.29ZM553.491 875.505C550.256 875.505 547.625 878.772 547.625 882.788C547.625 886.804 550.256 890.071 553.491 890.071C556.726 890.071 559.357 886.803 559.357 882.788C559.357 878.772 556.726 875.505 553.491 875.505Z" fill="#54F4FC"/>
<path d="M537.865 858.402C537.865 861.156 536.066 863.388 533.848 863.388C531.63 863.388 529.832 861.155 529.832 858.402C529.832 855.648 531.63 853.415 533.848 853.415C536.066 853.415 537.865 855.648 537.865 858.402Z" fill="#54F4FC"/>
<path d="M533.848 863.998C531.363 863.998 529.341 861.488 529.341 858.402C529.341 855.315 531.362 852.806 533.848 852.806C536.334 852.806 538.356 855.315 538.356 858.402C538.356 861.488 536.334 863.998 533.848 863.998ZM533.848 854.025C531.905 854.025 530.323 855.988 530.323 858.402C530.323 860.816 531.905 862.779 533.848 862.779C535.792 862.779 537.374 860.816 537.374 858.402C537.374 855.988 535.792 854.025 533.848 854.025Z" fill="#54F4FC"/>
<path d="M400.089 858.401C400.089 861.865 397.828 864.672 395.039 864.672C392.25 864.672 389.988 861.865 389.988 858.401C389.988 854.938 392.25 852.131 395.039 852.131C397.828 852.131 400.089 854.939 400.089 858.401Z" fill="#54F4FC"/>
<path d="M395.039 865.282C391.983 865.282 389.497 862.196 389.497 858.402C389.497 854.609 391.984 851.522 395.039 851.522C398.095 851.522 400.58 854.609 400.58 858.402C400.58 862.196 398.095 865.282 395.039 865.282ZM395.039 852.741C392.525 852.741 390.48 855.281 390.48 858.402C390.48 861.523 392.525 864.063 395.039 864.063C397.553 864.063 399.598 861.523 399.598 858.402C399.598 855.281 397.553 852.741 395.039 852.741Z" fill="#54F4FC"/>
<path d="M380.775 882.788C380.775 886.476 378.367 889.467 375.396 889.467C372.425 889.467 370.017 886.477 370.017 882.788C370.017 879.1 372.425 876.11 375.396 876.11C378.367 876.11 380.775 879.099 380.775 882.788Z" fill="#54F4FC"/>
<path d="M375.396 890.075C372.159 890.075 369.526 886.806 369.526 882.788C369.526 878.77 372.159 875.5 375.396 875.5C378.633 875.5 381.266 878.77 381.266 882.788C381.266 886.806 378.633 890.075 375.396 890.075ZM375.396 876.719C372.701 876.719 370.508 879.442 370.508 882.788C370.508 886.134 372.701 888.856 375.396 888.856C378.091 888.856 380.284 886.134 380.284 882.788C380.284 879.442 378.091 876.719 375.396 876.719Z" fill="#54F4FC"/>
<path d="M375.396 985.038C378.935 985.038 381.804 981.476 381.804 977.082C381.804 972.688 378.935 969.126 375.396 969.126C371.857 969.126 368.987 972.688 368.987 977.082C368.987 981.476 371.857 985.038 375.396 985.038Z" fill="#54F4FC"/>
<path d="M375.397 985.648C371.592 985.648 368.496 981.806 368.496 977.082C368.496 972.358 371.592 968.516 375.397 968.516C379.201 968.516 382.296 972.358 382.296 977.082C382.296 981.806 379.201 985.648 375.397 985.648ZM375.397 969.735C372.133 969.735 369.479 973.031 369.479 977.082C369.479 981.133 372.133 984.429 375.397 984.429C378.66 984.429 381.314 981.133 381.314 977.082C381.314 973.031 378.659 969.735 375.397 969.735Z" fill="#54F4FC"/>
<path d="M362.443 1001.47C362.443 1006.05 359.448 1009.77 355.754 1009.77C352.059 1009.77 349.064 1006.06 349.064 1001.47C349.064 996.881 352.059 993.163 355.754 993.163C359.448 993.163 362.443 996.882 362.443 1001.47Z" fill="#54F4FC"/>
<path d="M355.754 1010.38C351.794 1010.38 348.573 1006.38 348.573 1001.47C348.573 996.553 351.794 992.553 355.754 992.553C359.713 992.553 362.934 996.553 362.934 1001.47C362.934 1006.38 359.713 1010.38 355.754 1010.38ZM355.754 993.773C352.336 993.773 349.555 997.225 349.555 1001.47C349.555 1005.71 352.336 1009.16 355.754 1009.16C359.171 1009.16 361.952 1005.71 361.952 1001.47C361.952 997.224 359.171 993.773 355.754 993.773Z" fill="#54F4FC"/>
<path d="M145.357 1009.47C148.915 1009.47 151.799 1005.88 151.799 1001.47C151.799 997.051 148.915 993.471 145.357 993.471C141.8 993.471 138.916 997.051 138.916 1001.47C138.916 1005.88 141.8 1009.47 145.357 1009.47Z" fill="#54F4FC"/>
<path d="M145.357 1010.08C141.534 1010.08 138.424 1006.21 138.424 1001.47C138.424 996.722 141.534 992.862 145.357 992.862C149.18 992.862 152.29 996.722 152.29 1001.47C152.29 1006.21 149.18 1010.08 145.357 1010.08ZM145.357 994.081C142.076 994.081 139.407 997.395 139.407 1001.47C139.407 1005.54 142.076 1008.86 145.357 1008.86C148.638 1008.86 151.308 1005.54 151.308 1001.47C151.308 997.395 148.638 994.081 145.357 994.081Z" fill="#54F4FC"/>
<path d="M130.506 977.082C130.506 980.368 128.36 983.031 125.714 983.031C123.067 983.031 120.922 980.368 120.922 977.082C120.922 973.796 123.067 971.133 125.714 971.133C128.36 971.133 130.506 973.796 130.506 977.082Z" fill="#54F4FC"/>
<path d="M125.714 983.64C122.801 983.64 120.431 980.698 120.431 977.081C120.431 973.465 122.801 970.522 125.714 970.522C128.627 970.522 130.997 973.465 130.997 977.081C130.997 980.698 128.627 983.64 125.714 983.64ZM125.714 971.743C123.343 971.743 121.413 974.139 121.413 977.082C121.413 980.025 123.343 982.421 125.714 982.421C128.086 982.421 130.015 980.025 130.015 977.082C130.015 974.138 128.086 971.743 125.714 971.743Z" fill="#54F4FC"/>
<path d="M130.39 926.141C130.39 929.348 128.296 931.947 125.714 931.947C123.131 931.947 121.037 929.347 121.037 926.141C121.037 922.935 123.131 920.336 125.714 920.336C128.296 920.336 130.39 922.935 130.39 926.141Z" fill="#54F4FC"/>
<path d="M125.714 932.556C122.865 932.556 120.547 929.678 120.547 926.142C120.547 922.604 122.865 919.726 125.714 919.726C128.564 919.726 130.882 922.604 130.882 926.142C130.882 929.678 128.563 932.556 125.714 932.556ZM125.714 920.945C123.407 920.945 121.529 923.277 121.529 926.142C121.529 929.007 123.406 931.337 125.714 931.337C128.022 931.337 129.9 929.007 129.9 926.142C129.9 923.277 128.022 920.945 125.714 920.945Z" fill="#54F4FC"/>
<path d="M110.618 901.755C110.618 904.873 108.583 907.4 106.072 907.4C103.56 907.4 101.525 904.873 101.525 901.755C101.525 898.637 103.561 896.11 106.072 896.11C108.582 896.11 110.618 898.637 110.618 901.755Z" fill="#54F4FC"/>
<path d="M106.071 908.009C103.294 908.009 101.033 905.204 101.033 901.756C101.033 898.306 103.293 895.501 106.071 895.501C108.849 895.501 111.11 898.306 111.11 901.756C111.109 905.204 108.849 908.009 106.071 908.009ZM106.071 896.72C103.835 896.72 102.015 898.979 102.015 901.756C102.015 904.531 103.835 906.79 106.071 906.79C108.308 906.79 110.127 904.531 110.127 901.756C110.127 898.979 108.308 896.72 106.071 896.72Z" fill="#54F4FC"/>
<path d="M58.058 385.847C58.058 389.141 55.9071 391.812 53.2539 391.812C50.6006 391.812 48.4497 389.141 48.4497 385.847C48.4497 382.553 50.6006 379.883 53.2538 379.883C55.9071 379.883 58.058 382.553 58.058 385.847Z" fill="#54F4FC"/>
<path d="M53.2542 392.422C50.3343 392.422 47.959 389.473 47.959 385.848C47.959 382.222 50.3343 379.274 53.2542 379.274C56.1736 379.274 58.5489 382.222 58.5489 385.848C58.5489 389.473 56.1736 392.422 53.2542 392.422ZM53.2542 380.493C50.8759 380.493 48.9411 382.895 48.9411 385.847C48.9411 388.799 50.8759 391.202 53.2542 391.202C55.6325 391.202 57.5668 388.8 57.5668 385.847C57.5668 382.895 55.6325 380.493 53.2542 380.493Z" fill="#54F4FC"/>
<path d="M78.2468 410.233C78.2468 413.901 75.8514 416.875 72.8966 416.875C69.9418 416.875 67.5464 413.901 67.5464 410.233C67.5464 406.565 69.9418 403.591 72.8966 403.591C75.8514 403.591 78.2468 406.565 78.2468 410.233Z" fill="#54F4FC"/>
<path d="M72.8967 417.485C69.6753 417.485 67.0554 414.232 67.0554 410.234C67.0554 406.235 69.6758 402.982 72.8967 402.982C76.1176 402.982 78.738 406.235 78.738 410.234C78.7375 414.232 76.1171 417.485 72.8967 417.485ZM72.8967 404.201C70.2174 404.201 68.0376 406.907 68.0376 410.234C68.0376 413.56 70.2174 416.266 72.8967 416.266C75.576 416.266 77.7558 413.56 77.7558 410.234C77.7554 406.907 75.576 404.201 72.8967 404.201Z" fill="#54F4FC"/>
<path d="M76.584 556.552C76.584 559.08 74.933 561.13 72.8966 561.13C70.8601 561.13 69.2091 559.08 69.2091 556.552C69.2091 554.024 70.8601 551.974 72.8966 551.974C74.933 551.974 76.584 554.024 76.584 556.552Z" fill="#54F4FC"/>
<path d="M72.8971 561.739C70.5935 561.739 68.7186 559.412 68.7186 556.552C68.7186 553.692 70.593 551.364 72.8971 551.364C75.2008 551.364 77.0752 553.692 77.0752 556.552C77.0752 559.412 75.2008 561.739 72.8971 561.739ZM72.8971 552.583C71.1347 552.583 69.7008 554.363 69.7008 556.551C69.7008 558.739 71.1347 560.519 72.8971 560.519C74.6596 560.519 76.093 558.739 76.093 556.551C76.093 554.363 74.6596 552.583 72.8971 552.583Z" fill="#54F4FC"/>
<path d="M57.1585 580.938C57.1585 583.615 55.4103 585.786 53.254 585.786C51.0977 585.786 49.3495 583.615 49.3495 580.938C49.3495 578.261 51.0977 576.091 53.254 576.091C55.4103 576.091 57.1585 578.261 57.1585 580.938Z" fill="#54F4FC"/>
<path d="M53.2541 586.396C50.8302 586.396 48.858 583.947 48.858 580.939C48.858 577.93 50.8302 575.481 53.2541 575.481C55.678 575.481 57.6497 577.93 57.6497 580.939C57.6497 583.947 55.6775 586.396 53.2541 586.396ZM53.2541 576.7C51.3718 576.7 49.8402 578.602 49.8402 580.938C49.8402 583.275 51.3718 585.176 53.2541 585.176C55.1364 585.176 56.6675 583.275 56.6675 580.938C56.6675 578.602 55.1364 576.7 53.2541 576.7Z" fill="#54F4FC"/>
<path d="M201.045 671.981C201.045 676.044 198.392 679.339 195.119 679.339C191.846 679.339 189.193 676.045 189.193 671.981C189.193 667.918 191.846 664.624 195.119 664.624C198.392 664.624 201.045 667.918 201.045 671.981Z" fill="#54F4FC"/>
<path d="M195.119 679.948C191.58 679.948 188.701 676.374 188.701 671.981C188.701 667.589 191.58 664.014 195.119 664.014C198.657 664.014 201.535 667.589 201.535 671.981C201.536 676.374 198.657 679.948 195.119 679.948ZM195.119 665.234C192.122 665.234 189.683 668.26 189.683 671.981C189.683 675.701 192.122 678.728 195.119 678.728C198.116 678.728 200.553 675.701 200.553 671.981C200.554 668.26 198.116 665.234 195.119 665.234Z" fill="#54F4FC"/>
<path d="M218.945 696.367C218.945 699.236 217.072 701.562 214.761 701.562C212.451 701.562 210.578 699.236 210.578 696.367C210.578 693.498 212.451 691.173 214.761 691.173C217.072 691.173 218.945 693.498 218.945 696.367Z" fill="#54F4FC"/>
<path d="M214.762 702.172C212.183 702.172 210.087 699.569 210.087 696.368C210.087 693.168 212.183 690.563 214.762 690.563C217.339 690.563 219.437 693.168 219.437 696.368C219.437 699.569 217.34 702.172 214.762 702.172ZM214.762 691.782C212.726 691.782 211.069 693.84 211.069 696.367C211.069 698.896 212.726 700.952 214.762 700.952C216.798 700.952 218.454 698.896 218.454 696.367C218.454 693.84 216.798 691.782 214.762 691.782Z" fill="#54F4FC"/>
<path d="M682.702 940.774C682.702 945.565 679.573 949.45 675.713 949.45C671.853 949.45 668.724 945.565 668.724 940.774C668.724 935.982 671.853 932.097 675.713 932.097C679.573 932.097 682.702 935.982 682.702 940.774Z" fill="#54F4FC"/>
<path d="M675.713 950.059C671.589 950.059 668.234 945.894 668.234 940.774C668.234 935.654 671.589 931.488 675.713 931.488C679.837 931.488 683.193 935.654 683.193 940.774C683.193 945.894 679.837 950.059 675.713 950.059ZM675.713 932.706C672.131 932.706 669.216 936.325 669.216 940.774C669.216 945.221 672.131 948.84 675.713 948.84C679.297 948.84 682.211 945.221 682.211 940.774C682.211 936.325 679.296 932.706 675.713 932.706Z" fill="#54F4FC"/>
<path d="M448.232 940.774C448.232 944.922 445.524 948.286 442.182 948.286C438.84 948.286 436.131 944.922 436.131 940.774C436.131 936.625 438.84 933.261 442.182 933.261C445.524 933.261 448.232 936.625 448.232 940.774Z" fill="#54F4FC"/>
<path d="M442.182 948.895C438.575 948.895 435.64 945.252 435.64 940.774C435.64 936.295 438.575 932.651 442.182 932.651C445.789 932.651 448.723 936.295 448.723 940.774C448.723 945.252 445.789 948.895 442.182 948.895ZM442.182 933.871C439.116 933.871 436.622 936.968 436.622 940.774C436.622 944.579 439.116 947.675 442.182 947.675C445.247 947.675 447.741 944.579 447.741 940.774C447.741 936.968 445.247 933.871 442.182 933.871Z" fill="#54F4FC"/>
<path d="M427.143 965.16C427.143 968.317 425.082 970.876 422.539 970.876C419.996 970.876 417.935 968.317 417.935 965.16C417.935 962.002 419.996 959.443 422.539 959.443C425.082 959.443 427.143 962.002 427.143 965.16Z" fill="#54F4FC"/>
<path d="M422.539 971.486C419.729 971.486 417.443 968.648 417.443 965.16C417.443 961.671 419.729 958.833 422.539 958.833C425.349 958.833 427.635 961.671 427.635 965.16C427.635 968.648 425.349 971.486 422.539 971.486ZM422.539 960.053C420.271 960.053 418.426 962.344 418.426 965.16C418.426 967.975 420.271 970.266 422.539 970.266C424.807 970.266 426.653 967.975 426.653 965.16C426.653 962.344 424.807 960.053 422.539 960.053Z" fill="#54F4FC"/>
<path d="M647.354 138.731C647.354 142.033 645.198 144.709 642.539 144.709C639.879 144.709 637.724 142.033 637.724 138.731C637.724 135.43 639.879 132.753 642.539 132.753C645.198 132.753 647.354 135.43 647.354 138.731Z" fill="#54F4FC"/>
<path d="M642.539 145.319C639.612 145.319 637.232 142.363 637.232 138.731C637.232 135.099 639.612 132.144 642.539 132.144C645.464 132.144 647.845 135.099 647.845 138.731C647.845 142.363 645.464 145.319 642.539 145.319ZM642.539 133.364C640.155 133.364 638.214 135.772 638.214 138.731C638.214 141.692 640.154 144.1 642.539 144.1C644.923 144.1 646.863 141.692 646.863 138.731C646.863 135.772 644.923 133.364 642.539 133.364Z" fill="#54F4FC"/>
<path d="M447.683 138.732C447.683 142.503 445.22 145.561 442.182 145.561C439.144 145.561 436.682 142.503 436.682 138.732C436.682 134.96 439.144 131.903 442.182 131.903C445.22 131.903 447.683 134.96 447.683 138.732Z" fill="#54F4FC"/>
<path d="M442.182 146.17C438.878 146.17 436.19 142.833 436.19 138.732C436.19 134.63 438.879 131.293 442.182 131.293C445.485 131.293 448.174 134.63 448.174 138.732C448.174 142.833 445.485 146.17 442.182 146.17ZM442.182 132.512C439.42 132.512 437.173 135.302 437.173 138.732C437.173 142.161 439.42 144.951 442.182 144.951C444.944 144.951 447.191 142.161 447.191 138.732C447.191 135.302 444.944 132.512 442.182 132.512Z" fill="#54F4FC"/>
<path d="M422.539 119.984C425.047 119.984 427.081 117.459 427.081 114.345C427.081 111.231 425.047 108.706 422.539 108.706C420.03 108.706 417.996 111.231 417.996 114.345C417.996 117.459 420.03 119.984 422.539 119.984Z" fill="#54F4FC"/>
<path d="M422.539 120.594C419.763 120.594 417.505 117.791 417.505 114.345C417.505 110.899 419.763 108.096 422.539 108.096C425.314 108.096 427.572 110.899 427.572 114.345C427.572 117.791 425.314 120.594 422.539 120.594ZM422.539 109.316C420.305 109.316 418.488 111.571 418.488 114.345C418.488 117.118 420.305 119.374 422.539 119.374C424.773 119.374 426.59 117.118 426.59 114.345C426.59 111.571 424.773 109.316 422.539 109.316Z" fill="#54F4FC"/>
<path d="M604.264 320.207C604.264 323.893 601.857 326.882 598.888 326.882C595.918 326.882 593.511 323.894 593.511 320.207C593.511 316.52 595.918 313.532 598.888 313.532C601.857 313.532 604.264 316.52 604.264 320.207Z" fill="#54F4FC"/>
<path d="M598.888 327.492C595.653 327.492 593.02 324.224 593.02 320.207C593.02 316.191 595.653 312.923 598.888 312.923C602.123 312.923 604.755 316.191 604.755 320.207C604.755 324.224 602.123 327.492 598.888 327.492ZM598.888 314.142C596.194 314.142 594.002 316.863 594.002 320.207C594.002 323.552 596.194 326.273 598.888 326.273C601.581 326.273 603.773 323.552 603.773 320.207C603.773 316.863 601.582 314.142 598.888 314.142Z" fill="#54F4FC"/>
<path d="M449.166 328.089C452.672 328.089 455.515 324.56 455.515 320.207C455.515 315.855 452.672 312.326 449.166 312.326C445.66 312.326 442.818 315.855 442.818 320.207C442.818 324.56 445.66 328.089 449.166 328.089Z" fill="#54F4FC"/>
<path d="M449.166 328.698C445.395 328.698 442.326 324.889 442.326 320.207C442.326 315.525 445.395 311.716 449.166 311.716C452.937 311.716 456.006 315.526 456.006 320.207C456.005 324.889 452.937 328.698 449.166 328.698ZM449.166 312.935C445.936 312.935 443.309 316.197 443.309 320.207C443.309 324.217 445.936 327.479 449.166 327.479C452.396 327.479 455.024 324.217 455.024 320.207C455.023 316.197 452.396 312.935 449.166 312.935Z" fill="#54F4FC"/>
<path d="M429.523 301.112C431.877 301.112 433.785 298.743 433.785 295.82C433.785 292.898 431.877 290.529 429.523 290.529C427.169 290.529 425.261 292.898 425.261 295.82C425.261 298.743 427.169 301.112 429.523 301.112Z" fill="#54F4FC"/>
<path d="M429.523 301.721C426.902 301.721 424.77 299.074 424.77 295.82C424.77 292.567 426.902 289.92 429.523 289.92C432.144 289.92 434.276 292.567 434.276 295.821C434.276 299.074 432.143 301.721 429.523 301.721ZM429.523 291.139C427.444 291.139 425.752 293.239 425.752 295.82C425.752 298.402 427.443 300.502 429.523 300.502C431.602 300.502 433.294 298.402 433.294 295.821C433.294 293.239 431.602 291.139 429.523 291.139Z" fill="#54F4FC"/>
<path d="M429.523 210.589C432.319 210.589 434.586 207.775 434.586 204.304C434.586 200.833 432.319 198.019 429.523 198.019C426.727 198.019 424.461 200.833 424.461 204.304C424.461 207.775 426.727 210.589 429.523 210.589Z" fill="#54F4FC"/>
<path d="M429.523 211.199C426.461 211.199 423.969 208.105 423.969 204.303C423.969 200.502 426.461 197.409 429.523 197.409C432.585 197.409 435.076 200.502 435.076 204.303C435.076 208.105 432.585 211.199 429.523 211.199ZM429.523 198.628C427.002 198.628 424.952 201.174 424.952 204.303C424.952 207.433 427.002 209.979 429.523 209.979C432.044 209.979 434.094 207.433 434.094 204.303C434.094 201.174 432.043 198.628 429.523 198.628Z" fill="#54F4FC"/>
<path d="M409.88 185.982C412.578 185.982 414.765 183.267 414.765 179.917C414.765 176.568 412.578 173.852 409.88 173.852C407.182 173.852 404.995 176.568 404.995 179.917C404.995 183.267 407.182 185.982 409.88 185.982Z" fill="#54F4FC"/>
<path d="M409.88 186.592C406.916 186.592 404.504 183.598 404.504 179.917C404.504 176.237 406.916 173.243 409.88 173.243C412.845 173.243 415.257 176.238 415.257 179.917C415.257 183.598 412.845 186.592 409.88 186.592ZM409.88 174.462C407.457 174.462 405.486 176.909 405.486 179.917C405.486 182.925 407.458 185.373 409.88 185.373C412.303 185.373 414.274 182.925 414.274 179.917C414.274 176.909 412.303 174.462 409.88 174.462Z" fill="#54F4FC"/>
<path d="M326.944 185.624C329.483 185.624 331.54 183.069 331.54 179.917C331.54 176.765 329.483 174.21 326.944 174.21C324.406 174.21 322.348 176.765 322.348 179.917C322.348 183.069 324.406 185.624 326.944 185.624Z" fill="#54F4FC"/>
<path d="M326.944 186.233C324.138 186.233 321.856 183.4 321.856 179.917C321.856 176.435 324.139 173.601 326.944 173.601C329.749 173.601 332.031 176.435 332.031 179.917C332.031 183.4 329.749 186.233 326.944 186.233ZM326.944 174.82C324.68 174.82 322.839 177.106 322.839 179.917C322.839 182.728 324.68 185.014 326.944 185.014C329.208 185.014 331.049 182.728 331.049 179.917C331.049 177.106 329.208 174.82 326.944 174.82Z" fill="#54F4FC"/>
<path d="M314.643 155.541C314.643 160.187 311.609 163.953 307.867 163.953C304.125 163.953 301.091 160.187 301.091 155.541C301.091 150.896 304.125 147.129 307.867 147.129C311.609 147.129 314.643 150.895 314.643 155.541Z" fill="#54F4FC"/>
<path d="M307.867 164.563C303.861 164.563 300.6 160.516 300.6 155.541C300.6 150.567 303.861 146.519 307.867 146.519C311.874 146.519 315.134 150.566 315.134 155.541C315.134 160.515 311.874 164.563 307.867 164.563ZM307.867 147.739C304.402 147.739 301.582 151.239 301.582 155.541C301.582 159.843 304.402 163.343 307.867 163.343C311.333 163.343 314.152 159.843 314.152 155.541C314.152 151.239 311.333 147.739 307.867 147.739Z" fill="#54F4FC"/>
<path d="M696.665 399.603C699.41 399.603 701.634 396.841 701.634 393.434C701.634 390.027 699.41 387.265 696.665 387.265C693.921 387.265 691.697 390.027 691.697 393.434C691.697 396.841 693.921 399.603 696.665 399.603Z" fill="#54F4FC"/>
<path d="M696.666 400.212C693.655 400.212 691.205 397.171 691.205 393.434C691.205 389.697 693.655 386.656 696.666 386.656C699.676 386.656 702.125 389.697 702.125 393.434C702.125 397.172 699.676 400.212 696.666 400.212ZM696.666 387.875C694.197 387.875 692.187 390.369 692.187 393.434C692.187 396.499 694.197 398.993 696.666 398.993C699.134 398.993 701.143 396.499 701.143 393.434C701.143 390.369 699.135 387.875 696.666 387.875Z" fill="#54F4FC"/>
<path d="M530.766 393.434C530.766 396.708 528.628 399.362 525.991 399.362C523.354 399.362 521.216 396.707 521.216 393.434C521.216 390.16 523.353 387.505 525.991 387.505C528.628 387.506 530.766 390.16 530.766 393.434Z" fill="#54F4FC"/>
<path d="M525.991 399.972C523.087 399.972 520.725 397.039 520.725 393.434C520.725 389.83 523.087 386.897 525.991 386.897C528.895 386.897 531.257 389.83 531.257 393.434C531.257 397.039 528.895 399.972 525.991 399.972ZM525.991 388.115C523.628 388.115 521.707 390.501 521.707 393.434C521.707 396.367 523.628 398.752 525.991 398.752C528.353 398.752 530.275 396.367 530.275 393.434C530.275 390.501 528.353 388.115 525.991 388.115Z" fill="#54F4FC"/>
<path d="M506.349 375.542C509.237 375.542 511.579 372.635 511.579 369.048C511.579 365.461 509.237 362.554 506.349 362.554C503.46 362.554 501.118 365.461 501.118 369.048C501.118 372.635 503.46 375.542 506.349 375.542Z" fill="#54F4FC"/>
<path d="M506.348 376.152C503.193 376.152 500.626 372.964 500.626 369.048C500.626 365.131 503.194 361.944 506.348 361.944C509.503 361.944 512.07 365.131 512.07 369.048C512.07 372.964 509.503 376.152 506.348 376.152ZM506.348 363.163C503.735 363.163 501.608 365.803 501.608 369.048C501.608 372.293 503.735 374.933 506.348 374.933C508.962 374.933 511.088 372.293 511.088 369.048C511.088 365.803 508.962 363.163 506.348 363.163Z" fill="#54F4FC"/>
<path d="M703.616 580.938C703.616 585.704 700.504 589.567 696.665 589.567C692.826 589.567 689.714 585.703 689.714 580.938C689.714 576.172 692.826 572.309 696.665 572.309C700.504 572.309 703.616 576.172 703.616 580.938Z" fill="#54F4FC"/>
<path d="M696.666 590.178C692.563 590.178 689.224 586.032 689.224 580.939C689.224 575.845 692.563 571.7 696.666 571.7C700.769 571.7 704.106 575.845 704.106 580.939C704.107 586.032 700.769 590.178 696.666 590.178ZM696.666 572.919C693.103 572.919 690.206 576.516 690.206 580.939C690.206 585.361 693.103 588.959 696.666 588.959C700.227 588.959 703.124 585.361 703.124 580.939C703.124 576.516 700.227 572.919 696.666 572.919Z" fill="#54F4FC"/>
<path d="M612.088 580.938C612.088 584.378 609.842 587.166 607.072 587.166C604.302 587.166 602.056 584.378 602.056 580.938C602.056 577.499 604.302 574.711 607.072 574.711C609.842 574.711 612.088 577.5 612.088 580.938Z" fill="#54F4FC"/>
<path d="M607.072 587.776C604.035 587.776 601.565 584.708 601.565 580.938C601.565 577.168 604.035 574.101 607.072 574.101C610.109 574.101 612.579 577.168 612.579 580.938C612.579 584.709 610.109 587.776 607.072 587.776ZM607.072 575.32C604.576 575.32 602.547 577.84 602.547 580.938C602.547 584.036 604.576 586.556 607.072 586.556C609.568 586.556 611.597 584.036 611.597 580.938C611.597 577.84 609.568 575.32 607.072 575.32Z" fill="#54F4FC"/>
<path d="M587.43 613.148C590.91 613.148 593.731 609.645 593.731 605.325C593.731 601.005 590.91 597.502 587.43 597.502C583.949 597.502 581.128 601.005 581.128 605.325C581.128 609.645 583.949 613.148 587.43 613.148Z" fill="#54F4FC"/>
<path d="M587.429 613.757C583.684 613.757 580.637 609.974 580.637 605.324C580.637 600.675 583.684 596.891 587.429 596.891C591.175 596.891 594.222 600.675 594.222 605.324C594.222 609.975 591.175 613.757 587.429 613.757ZM587.429 598.112C584.226 598.112 581.619 601.348 581.619 605.325C581.619 609.302 584.226 612.538 587.429 612.538C590.633 612.538 593.24 609.302 593.24 605.325C593.24 601.348 590.633 598.112 587.429 598.112Z" fill="#54F4FC"/>
<path d="M735.418 492.063C735.418 494.691 733.702 496.821 731.586 496.821C729.47 496.821 727.754 494.691 727.754 492.063C727.754 489.436 729.47 487.306 731.586 487.306C733.702 487.306 735.418 489.436 735.418 492.063Z" fill="#54F4FC"/>
<path d="M731.586 497.431C729.202 497.431 727.263 495.023 727.263 492.063C727.263 489.104 729.202 486.697 731.586 486.697C733.97 486.697 735.909 489.104 735.909 492.063C735.909 495.023 733.97 497.431 731.586 497.431ZM731.586 487.916C729.743 487.916 728.245 489.777 728.245 492.063C728.245 494.351 729.743 496.211 731.586 496.211C733.428 496.211 734.927 494.35 734.927 492.063C734.927 489.777 733.428 487.916 731.586 487.916Z" fill="#54F4FC"/>
<path d="M653.451 497.657C655.94 497.657 657.957 495.152 657.957 492.063C657.957 488.974 655.94 486.47 653.451 486.47C650.963 486.47 648.946 488.974 648.946 492.063C648.946 495.152 650.963 497.657 653.451 497.657Z" fill="#54F4FC"/>
<path d="M653.451 498.266C650.696 498.266 648.454 495.483 648.454 492.063C648.454 488.643 650.696 485.86 653.451 485.86C656.206 485.86 658.447 488.643 658.447 492.063C658.447 495.484 656.206 498.266 653.451 498.266ZM653.451 487.08C651.238 487.08 649.436 489.316 649.436 492.063C649.436 494.811 651.238 497.047 653.451 497.047C655.665 497.047 657.465 494.811 657.465 492.063C657.465 489.316 655.665 487.08 653.451 487.08Z" fill="#54F4FC"/>
<path d="M639.64 516.45C639.64 520.449 637.029 523.69 633.809 523.69C630.588 523.69 627.978 520.449 627.978 516.45C627.978 512.452 630.588 509.211 633.809 509.211C637.029 509.211 639.64 512.452 639.64 516.45Z" fill="#54F4FC"/>
<path d="M633.809 524.299C630.322 524.299 627.486 520.778 627.486 516.45C627.486 512.122 630.322 508.602 633.809 508.602C637.294 508.602 640.13 512.123 640.13 516.45C640.131 520.778 637.294 524.299 633.809 524.299ZM633.809 509.821C630.864 509.821 628.468 512.794 628.468 516.45C628.468 520.105 630.864 523.08 633.809 523.08C636.753 523.08 639.148 520.105 639.148 516.45C639.149 512.794 636.754 509.821 633.809 509.821Z" fill="#54F4FC"/>
<path d="M640.11 654.098C640.11 658.419 637.288 661.921 633.809 661.921C630.328 661.921 627.508 658.419 627.508 654.098C627.508 649.777 630.329 646.275 633.809 646.275C637.288 646.275 640.11 649.777 640.11 654.098Z" fill="#54F4FC"/>
<path d="M633.809 662.53C630.063 662.53 627.016 658.747 627.016 654.097C627.016 649.447 630.063 645.664 633.809 645.664C637.553 645.664 640.6 649.447 640.6 654.097C640.601 658.748 637.553 662.53 633.809 662.53ZM633.809 646.885C630.606 646.885 627.998 650.121 627.998 654.098C627.999 658.075 630.606 661.311 633.809 661.311C637.013 661.311 639.618 658.075 639.618 654.098C639.619 650.121 637.013 646.885 633.809 646.885Z" fill="#54F4FC"/>
<path d="M614.166 685.465C617.272 685.465 619.789 682.34 619.789 678.484C619.789 674.629 617.272 671.503 614.166 671.503C611.06 671.503 608.543 674.629 608.543 678.484C608.543 682.34 611.06 685.465 614.166 685.465Z" fill="#54F4FC"/>
<path d="M614.166 686.075C610.795 686.075 608.052 682.67 608.052 678.485C608.052 674.299 610.795 670.894 614.166 670.894C617.537 670.894 620.28 674.299 620.28 678.485C620.281 682.67 617.538 686.075 614.166 686.075ZM614.166 672.112C611.335 672.112 609.034 674.97 609.034 678.484C609.034 681.998 611.335 684.856 614.166 684.856C616.996 684.856 619.298 681.998 619.298 678.484C619.299 674.97 616.996 672.112 614.166 672.112Z" fill="#54F4FC"/>
<path d="M560.912 683.08C562.957 683.08 564.614 681.023 564.614 678.484C564.614 675.946 562.957 673.888 560.912 673.888C558.867 673.888 557.21 675.946 557.21 678.484C557.21 681.023 558.867 683.08 560.912 683.08Z" fill="#54F4FC"/>
<path d="M560.912 683.69C558.6 683.69 556.719 681.355 556.719 678.484C556.719 675.614 558.6 673.279 560.912 673.279C563.224 673.279 565.105 675.614 565.105 678.484C565.105 681.355 563.224 683.69 560.912 683.69ZM560.912 674.498C559.141 674.498 557.701 676.286 557.701 678.484C557.701 680.682 559.141 682.471 560.912 682.471C562.682 682.471 564.123 680.683 564.123 678.484C564.123 676.286 562.683 674.498 560.912 674.498Z" fill="#54F4FC"/>
<path d="M546.056 702.87C546.056 706.152 543.913 708.813 541.269 708.813C538.625 708.813 536.482 706.152 536.482 702.87C536.482 699.588 538.625 696.927 541.269 696.927C543.913 696.927 546.056 699.589 546.056 702.87Z" fill="#54F4FC"/>
<path d="M541.269 709.423C538.358 709.423 535.991 706.483 535.991 702.871C535.991 699.258 538.358 696.318 541.269 696.318C544.179 696.318 546.547 699.258 546.547 702.871C546.547 706.483 544.179 709.423 541.269 709.423ZM541.269 697.537C538.9 697.537 536.973 699.929 536.973 702.87C536.973 705.811 538.9 708.203 541.269 708.203C543.637 708.203 545.565 705.811 545.565 702.87C545.565 699.929 543.637 697.537 541.269 697.537Z" fill="#54F4FC"/>
<path d="M546.385 781.991C546.385 785.499 544.094 788.342 541.269 788.342C538.443 788.342 536.153 785.499 536.153 781.991C536.153 778.483 538.443 775.64 541.269 775.64C544.094 775.64 546.385 778.483 546.385 781.991Z" fill="#54F4FC"/>
<path d="M541.269 788.952C538.177 788.952 535.662 785.829 535.662 781.991C535.662 778.153 538.177 775.03 541.269 775.03C544.361 775.03 546.876 778.153 546.876 781.991C546.876 785.829 544.361 788.952 541.269 788.952ZM541.269 776.249C538.719 776.249 536.644 778.825 536.644 781.991C536.644 785.157 538.719 787.732 541.269 787.732C543.819 787.732 545.894 785.157 545.894 781.991C545.894 778.825 543.819 776.249 541.269 776.249Z" fill="#54F4FC"/>
<path d="M560.912 811.536C563.207 811.536 565.067 809.227 565.067 806.378C565.067 803.528 563.207 801.219 560.912 801.219C558.617 801.219 556.756 803.528 556.756 806.378C556.756 809.227 558.617 811.536 560.912 811.536Z" fill="#54F4FC"/>
<path d="M560.912 812.147C558.35 812.147 556.265 809.559 556.265 806.378C556.265 803.197 558.35 800.609 560.912 800.609C563.474 800.609 565.558 803.197 565.558 806.378C565.558 809.559 563.474 812.147 560.912 812.147ZM560.912 801.829C558.892 801.829 557.248 803.869 557.248 806.378C557.248 808.886 558.892 810.928 560.912 810.928C562.932 810.928 564.576 808.887 564.576 806.378C564.576 803.869 562.932 801.829 560.912 801.829Z" fill="#54F4FC"/>
<path d="M607.182 811.702C609.55 811.702 611.471 809.318 611.471 806.378C611.471 803.437 609.55 801.053 607.182 801.053C604.813 801.053 602.893 803.437 602.893 806.378C602.893 809.318 604.813 811.702 607.182 811.702Z" fill="#54F4FC"/>
<path d="M607.182 812.312C604.546 812.312 602.402 809.649 602.402 806.377C602.402 803.105 604.546 800.442 607.182 800.442C609.817 800.442 611.962 803.105 611.962 806.377C611.962 809.649 609.817 812.312 607.182 812.312ZM607.182 801.662C605.087 801.662 603.384 803.777 603.384 806.377C603.384 808.978 605.087 811.092 607.182 811.092C609.277 811.092 610.98 808.977 610.98 806.377C610.98 803.777 609.276 801.662 607.182 801.662Z" fill="#54F4FC"/>
<path d="M633.101 830.764C633.101 835.067 630.291 838.555 626.824 838.555C623.358 838.555 620.548 835.067 620.548 830.763C620.548 826.46 623.358 822.972 626.824 822.972C630.291 822.972 633.101 826.46 633.101 830.764Z" fill="#54F4FC"/>
<path d="M626.825 839.165C623.093 839.165 620.057 835.397 620.057 830.763C620.057 826.13 623.093 822.362 626.825 822.362C630.556 822.362 633.591 826.13 633.591 830.763C633.591 835.396 630.555 839.165 626.825 839.165ZM626.825 823.581C623.635 823.581 621.04 826.803 621.04 830.763C621.04 834.724 623.635 837.946 626.825 837.946C630.015 837.946 632.609 834.723 632.609 830.763C632.609 826.804 630.015 823.581 626.825 823.581Z" fill="#54F4FC"/>
</g>
</svg>
