<svg width="32" height="32" viewBox="0 0 32 32" fill="none" xmlns="http://www.w3.org/2000/svg">
<path d="M25.3333 14.6667H6.66667C5.19391 14.6667 4 15.8607 4 17.3334V26.6667C4 28.1395 5.19391 29.3334 6.66667 29.3334H25.3333C26.8061 29.3334 28 28.1395 28 26.6667V17.3334C28 15.8607 26.8061 14.6667 25.3333 14.6667Z" stroke="#54F4FC" stroke-width="1.66667" stroke-linecap="round" stroke-linejoin="round"/>
<path d="M9.33301 14.6667V9.33341C9.33301 7.5653 10.0354 5.86961 11.2856 4.61937C12.5359 3.36913 14.2316 2.66675 15.9997 2.66675C17.7678 2.66675 19.4635 3.36913 20.7137 4.61937C21.964 5.86961 22.6663 7.5653 22.6663 9.33341V14.6667" stroke="#54F4FC" stroke-width="1.66667" stroke-linecap="round" stroke-linejoin="round"/>
</svg>
