<svg width="736" height="655" viewBox="0 0 736 655" fill="none" xmlns="http://www.w3.org/2000/svg">
<g clip-path="url(#clip0_203_26246)">
<g opacity="0.08">
<path d="M214.284 377.201L367.062 377.201C377.351 377.201 385.722 383.763 385.722 391.83L385.722 433.581C385.722 442.497 394.975 449.75 406.347 449.75L494.522 449.75C504.811 449.751 513.183 456.313 513.183 464.38L513.183 560.885C513.183 569.801 522.435 577.055 533.808 577.055L735.91 577.055L735.91 575.515L533.808 575.515C523.518 575.515 515.147 568.952 515.147 560.885L515.147 464.38C515.147 455.464 505.895 448.21 494.522 448.21L406.347 448.21C396.058 448.21 387.687 441.647 387.687 433.58L387.687 391.83C387.687 382.914 378.434 375.66 367.062 375.66L214.284 375.66C203.995 375.66 195.624 369.097 195.624 361.03L195.624 343.321C195.624 335.254 203.995 328.691 214.284 328.691L735.91 328.692L735.91 327.152L214.284 327.152C202.912 327.152 193.659 334.405 193.659 343.321L193.659 361.031C193.659 369.947 202.912 377.201 214.284 377.201Z" fill="#176DB3"/>
<path d="M498.887 530.516L630.712 530.516C641.001 530.516 649.373 537.079 649.373 545.146L649.373 654.312L651.337 654.312L651.337 545.146C651.337 536.23 642.085 528.976 630.712 528.976L498.887 528.976C488.598 528.976 480.226 522.414 480.226 514.347L480.226 149.545C480.226 141.478 488.598 134.915 498.887 134.915L735.91 134.915L735.91 133.375L498.887 133.375C487.514 133.375 478.262 140.629 478.262 149.545L478.262 514.347C478.262 523.263 487.514 530.516 498.887 530.516Z" fill="#176DB3"/>
<path d="M268.957 654.312L268.957 248.102C268.957 240.035 277.328 233.473 287.617 233.473L394.998 233.473C406.371 233.473 415.623 226.219 415.623 217.303L415.623 64.6754C415.623 56.6084 423.994 50.0457 434.284 50.0457L635.077 50.0458C645.367 50.0458 653.738 56.6085 653.738 64.6755L653.738 235.099C653.738 244.014 662.99 251.268 674.363 251.268L735.91 251.268L735.91 249.728L674.363 249.728C664.073 249.728 655.702 243.165 655.702 235.099L655.702 64.6755C655.702 55.7598 646.45 48.5058 635.077 48.5058L434.284 48.5057C422.911 48.5057 413.659 55.7597 413.659 64.6754L413.659 217.303C413.659 225.37 405.288 231.933 394.998 231.933L287.617 231.933C276.245 231.933 266.992 239.187 266.992 248.102L266.992 654.312L268.957 654.312Z" fill="#176DB3"/>
<path d="M602.448 421.26L602.448 282.32C602.448 273.405 593.196 266.151 581.823 266.151L353.966 266.15C343.677 266.15 335.306 259.588 335.306 251.521L335.306 179.656C335.306 170.74 326.053 163.486 314.681 163.486L257.935 163.486C247.645 163.486 239.274 156.923 239.274 148.856L239.274 -0.00729526L237.31 -0.00729665L237.31 148.856C237.31 157.772 246.562 165.026 257.935 165.026L314.681 165.026C324.97 165.026 333.341 171.589 333.341 179.656L333.341 251.521C333.341 260.437 342.594 267.691 353.966 267.691L581.823 267.691C592.112 267.691 600.484 274.254 600.484 282.321L600.484 421.26C600.484 430.176 609.736 437.43 621.109 437.43L735.91 437.43L735.91 435.89L621.109 435.89C610.819 435.89 602.448 429.327 602.448 421.26Z" fill="#176DB3"/>
<path d="M618.162 654.312L618.162 509.555C618.162 501.488 626.534 494.925 636.823 494.925L735.91 494.925L735.91 493.385L636.823 493.385C625.45 493.385 616.198 500.639 616.198 509.555L616.198 654.312L618.162 654.312Z" fill="#176DB3"/>
<path d="M342.292 654.312L342.292 610.851C342.292 602.784 350.663 596.221 360.952 596.221L489.285 596.221C499.575 596.221 507.946 602.784 507.946 610.851L507.946 654.312L509.91 654.312L509.91 610.851C509.91 601.935 500.658 594.681 489.285 594.681L360.952 594.681C349.58 594.681 340.327 601.935 340.327 610.851L340.327 654.312L342.292 654.312Z" fill="#176DB3"/>
<path d="M195.624 654.312L195.624 491.76C195.624 483.693 203.995 477.13 214.284 477.13L321.665 477.13C331.955 477.13 340.326 483.693 340.326 491.76L340.326 496.551C340.326 505.467 349.578 512.721 360.951 512.721L400.236 512.721C411.609 512.721 420.861 505.467 420.861 496.551L420.861 426.055C420.861 417.139 411.609 409.885 400.236 409.885L334.76 409.885C324.471 409.885 316.099 403.322 316.099 395.255L316.099 308.333C316.099 299.417 306.847 292.163 295.474 292.163L231.745 292.163C221.455 292.163 213.084 285.6 213.084 277.533L213.084 215.935C213.084 207.868 221.455 201.305 231.745 201.305L735.91 201.305L735.91 199.765L231.744 199.765C220.372 199.765 211.119 207.019 211.119 215.935L211.119 277.533C211.119 286.449 220.372 293.703 231.744 293.703L295.474 293.703C305.764 293.703 314.135 300.266 314.135 308.333L314.135 395.255C314.135 404.171 323.387 411.425 334.76 411.425L400.236 411.425C410.526 411.425 418.897 417.988 418.897 426.055L418.897 496.551C418.897 504.618 410.526 511.181 400.236 511.181L360.951 511.181C350.661 511.181 342.29 504.618 342.29 496.551L342.29 491.76C342.29 482.844 333.038 475.59 321.665 475.59L214.284 475.59C202.912 475.59 193.659 482.844 193.659 491.76L193.659 654.312L195.624 654.312Z" fill="#176DB3"/>
<path d="M560.871 482.609L735.91 482.609L735.91 481.069L560.871 481.069C550.581 481.069 542.21 474.507 542.21 466.44L542.21 394.575C542.21 386.508 550.581 379.945 560.871 379.945L735.91 379.945L735.91 378.405L560.871 378.405C549.498 378.405 540.246 385.659 540.246 394.575L540.246 466.44C540.246 475.356 549.498 482.609 560.871 482.609Z" fill="#176DB3"/>
<path d="M611.178 69.4685L611.178 37.3005C611.178 28.3848 601.926 21.1308 590.553 21.1308L380.157 21.1306C368.784 21.1306 359.532 28.3847 359.532 37.3003L359.532 96.8453C359.532 104.912 351.16 111.475 340.871 111.475L202.062 111.475C191.773 111.475 183.401 104.912 183.401 96.8452L183.401 -0.00117768L181.437 -0.00117907L181.437 96.8456C181.437 105.761 190.689 113.015 202.062 113.015L340.871 113.015C352.244 113.015 361.496 105.761 361.496 96.8457L361.496 37.3007C361.496 29.2338 369.867 22.671 380.157 22.671L590.553 22.6711C600.843 22.6712 609.214 29.2339 609.214 37.3009L609.214 69.4689C609.214 78.3845 618.466 85.6386 629.839 85.6386L735.91 85.6387L735.91 84.0987L629.839 84.0987C619.55 84.0983 611.178 77.5355 611.178 69.4685Z" fill="#176DB3"/>
<path d="M735.91 409.882L682.656 409.882C672.367 409.882 663.995 403.319 663.995 395.252L663.995 302.854C663.995 294.787 672.367 288.224 682.656 288.224L735.91 288.224L735.91 286.684L682.656 286.684C671.283 286.684 662.031 293.938 662.031 302.854L662.031 395.252C662.031 404.168 671.283 411.422 682.656 411.422L735.91 411.422L735.91 409.882Z" fill="#176DB3"/>
<path d="M522.131 214.565L522.131 -0.00408062L520.167 -0.00408219L520.167 214.565C520.167 223.48 529.419 230.734 540.792 230.734L735.91 230.734L735.91 229.194L540.792 229.194C530.502 229.194 522.131 222.631 522.131 214.565Z" fill="#176DB3"/>
<path d="M312.391 0.000492181L312.391 44.8303C312.391 52.8969 304.02 59.4601 293.731 59.46L60.1995 59.4599L60.1995 60.9998L293.731 61C305.103 61 314.355 53.746 314.355 44.8303L314.355 0.000493567L312.391 0.000492181Z" fill="#176DB3"/>
<path d="M312.391 582.105L312.391 654.312L314.355 654.312L314.355 582.105C314.355 573.189 305.103 565.936 293.731 565.936L93.3738 565.936L93.3738 567.476L293.731 567.476C304.02 567.476 312.391 574.038 312.391 582.105Z" fill="#176DB3"/>
<path d="M305.403 467.506L305.403 525.298C305.403 534.214 314.655 541.467 326.028 541.467L408.964 541.467C413.922 541.467 418.539 542.99 421.967 545.755C425.394 548.521 427.202 552.183 427.059 556.068C427.047 556.385 425.885 588.185 425.378 620.078C425.151 634.292 425.1 645.487 425.167 654.312L427.123 654.312C426.923 626.655 427.899 586.65 429.023 556.112C429.181 551.808 427.176 547.749 423.376 544.682C419.575 541.616 414.457 539.927 408.964 539.927L326.028 539.927C315.738 539.927 307.367 533.364 307.367 525.297L307.367 467.505C307.367 458.589 298.115 451.336 286.742 451.336L137.02 451.336L137.02 452.876L286.742 452.876C297.032 452.876 305.403 459.439 305.403 467.506Z" fill="#176DB3"/>
<path d="M228.579 421.264L228.579 654.312L230.543 654.312L230.543 421.264C230.543 412.348 221.291 405.094 209.918 405.094L39.243 405.094L39.243 406.634L209.918 406.634C220.207 406.634 228.579 413.197 228.579 421.264Z" fill="#176DB3"/>
<path d="M147.501 -0.00408699L147.501 272.057C147.501 280.124 139.129 286.687 128.84 286.687L39.2465 286.687L39.2465 288.226L128.84 288.227C140.212 288.227 149.465 280.973 149.465 272.057L149.465 -0.0040856L147.501 -0.00408699Z" fill="#176DB3"/>
<path d="M82.4603 344.351C93.8325 344.351 103.085 337.098 103.085 328.182L103.085 241.259C103.085 233.192 111.457 226.629 121.746 226.629L175 226.629C186.373 226.629 195.625 219.375 195.625 210.46L195.625 160.497C195.625 151.581 186.373 144.327 175 144.327L128.73 144.327C118.441 144.327 110.069 137.764 110.069 129.697L110.069 -0.00296203L108.105 -0.00296341L108.105 129.697C108.105 138.612 117.358 145.866 128.73 145.866L175 145.866C185.289 145.866 193.661 152.429 193.661 160.496L193.661 210.459C193.661 218.526 185.289 225.089 175 225.089L121.746 225.089C110.374 225.089 101.121 232.343 101.121 241.259L101.121 328.182C101.121 336.249 92.7497 342.812 82.4603 342.812L4.32651 342.811L4.32651 344.351L82.4603 344.351Z" fill="#176DB3"/>
<path d="M207.958 327.925C207.958 325.187 210.789 322.967 214.282 322.967C217.774 322.967 220.605 325.187 220.605 327.925C220.605 330.663 217.774 332.883 214.282 332.883C210.789 332.883 207.958 330.663 207.958 327.925Z" fill="#54F4FC"/>
<path d="M214.283 322.58C218.04 322.58 221.098 324.977 221.098 327.923C221.098 330.869 218.04 333.266 214.283 333.266C210.526 333.266 207.468 330.869 207.468 327.923C207.468 324.977 210.525 322.58 214.283 322.58ZM214.283 332.495C217.499 332.495 220.116 330.444 220.116 327.923C220.116 325.402 217.499 323.35 214.283 323.35C211.067 323.35 208.451 325.402 208.451 327.923C208.451 330.444 211.067 332.495 214.283 332.495Z" fill="#54F4FC"/>
<path d="M190.467 343.329C190.467 341.521 192.336 340.056 194.642 340.056C196.947 340.056 198.816 341.521 198.816 343.329C198.816 345.136 196.947 346.602 194.642 346.602C192.336 346.602 190.467 345.136 190.467 343.329Z" fill="#54F4FC"/>
<path d="M194.643 339.669C197.216 339.669 199.309 341.31 199.309 343.327C199.309 345.344 197.216 346.984 194.643 346.984C192.07 346.984 189.977 345.344 189.977 343.327C189.977 341.31 192.07 339.669 194.643 339.669ZM194.643 346.215C196.674 346.215 198.326 344.919 198.326 343.327C198.326 341.734 196.674 340.439 194.643 340.439C192.612 340.439 190.959 341.734 190.959 343.327C190.959 344.919 192.612 346.215 194.643 346.215Z" fill="#54F4FC"/>
<path d="M188.419 361.036C188.419 358.342 191.204 356.158 194.641 356.158C198.077 356.158 200.863 358.342 200.863 361.036C200.863 363.73 198.077 365.914 194.641 365.914C191.204 365.914 188.419 363.73 188.419 361.036Z" fill="#54F4FC"/>
<path d="M194.642 355.77C198.344 355.77 201.355 358.131 201.355 361.034C201.355 363.936 198.344 366.297 194.642 366.297C190.94 366.297 187.929 363.936 187.929 361.034C187.929 358.132 190.94 355.77 194.642 355.77ZM194.642 365.527C197.803 365.527 200.373 363.511 200.373 361.034C200.373 358.556 197.803 356.541 194.642 356.541C191.482 356.541 188.911 358.556 188.911 361.034C188.911 363.511 191.482 365.527 194.642 365.527Z" fill="#54F4FC"/>
<path d="M208.163 376.437C208.163 373.787 210.903 371.639 214.283 371.639C217.663 371.639 220.402 373.787 220.402 376.437C220.402 379.086 217.663 381.234 214.283 381.234C210.903 381.235 208.163 379.087 208.163 376.437Z" fill="#54F4FC"/>
<path d="M214.284 371.252C217.929 371.252 220.895 373.577 220.895 376.435C220.895 379.292 217.929 381.617 214.284 381.617C210.639 381.617 207.673 379.292 207.673 376.435C207.673 373.577 210.639 371.252 214.284 371.252ZM214.284 380.847C217.387 380.847 219.912 378.868 219.912 376.435C219.912 374.001 217.387 372.022 214.284 372.022C211.18 372.022 208.655 374.001 208.655 376.435C208.655 378.868 211.18 380.847 214.284 380.847Z" fill="#54F4FC"/>
<path d="M362.393 376.432C362.393 374.41 364.484 372.77 367.064 372.77C369.643 372.77 371.734 374.409 371.734 376.432C371.734 378.455 369.643 380.094 367.064 380.094C364.484 380.094 362.393 378.454 362.393 376.432Z" fill="#54F4FC"/>
<path d="M367.061 372.383C369.907 372.383 372.223 374.199 372.223 376.43C372.223 378.661 369.907 380.477 367.061 380.477C364.215 380.477 361.899 378.661 361.899 376.43C361.899 374.199 364.215 372.383 367.061 372.383ZM367.061 379.707C369.365 379.707 371.241 378.237 371.241 376.43C371.241 374.623 369.366 373.153 367.061 373.153C364.756 373.153 362.881 374.623 362.881 376.43C362.881 378.237 364.756 379.707 367.061 379.707Z" fill="#54F4FC"/>
<path d="M386.708 386.855C383.198 386.855 380.353 389.086 380.353 391.838C380.353 394.59 383.198 396.82 386.708 396.82C390.217 396.82 393.063 394.59 393.063 391.838C393.063 389.086 390.217 386.855 386.708 386.855Z" fill="#54F4FC"/>
<path d="M386.705 386.468C390.48 386.468 393.551 388.876 393.551 391.836C393.551 394.796 390.48 397.203 386.705 397.203C382.929 397.203 379.859 394.795 379.859 391.836C379.859 388.876 382.93 386.468 386.705 386.468ZM386.705 396.433C389.938 396.433 392.569 394.371 392.569 391.835C392.569 389.3 389.938 387.238 386.705 387.238C383.471 387.238 380.841 389.301 380.841 391.835C380.841 394.371 383.471 396.433 386.705 396.433Z" fill="#54F4FC"/>
<path d="M386.707 429.249C383.652 429.249 381.175 431.19 381.175 433.585C381.175 435.98 383.652 437.922 386.707 437.922C389.762 437.922 392.238 435.98 392.238 433.585C392.238 431.19 389.762 429.249 386.707 429.249Z" fill="#54F4FC"/>
<path d="M386.704 428.862C390.025 428.862 392.727 430.98 392.727 433.583C392.727 436.187 390.025 438.305 386.704 438.305C383.383 438.305 380.682 436.187 380.682 433.583C380.682 430.979 383.383 428.862 386.704 428.862ZM386.704 437.535C389.483 437.535 391.744 435.762 391.744 433.583C391.744 431.405 389.484 429.632 386.704 429.632C383.925 429.632 381.664 431.405 381.664 433.583C381.664 435.762 383.925 437.535 386.704 437.535Z" fill="#54F4FC"/>
<path d="M402 448.989C402 447.105 403.947 445.579 406.35 445.579C408.752 445.579 410.699 447.105 410.699 448.989C410.699 450.872 408.752 452.398 406.35 452.398C403.947 452.399 402 450.872 402 448.989Z" fill="#54F4FC"/>
<path d="M406.348 445.191C409.016 445.191 411.188 446.894 411.188 448.986C411.188 451.079 409.016 452.781 406.348 452.781C403.678 452.781 401.507 451.079 401.507 448.986C401.507 446.894 403.679 445.191 406.348 445.191ZM406.348 452.011C408.475 452.011 410.205 450.655 410.205 448.986C410.205 447.318 408.475 445.961 406.348 445.961C404.22 445.961 402.489 447.318 402.489 448.986C402.489 450.654 404.22 452.011 406.348 452.011Z" fill="#54F4FC"/>
<path d="M488.975 448.988C488.975 446.587 491.457 444.64 494.52 444.64C497.583 444.64 500.066 446.587 500.066 448.988C500.066 451.39 497.584 453.336 494.52 453.336C491.457 453.336 488.975 451.39 488.975 448.988Z" fill="#54F4FC"/>
<path d="M494.522 444.253C497.85 444.253 500.559 446.376 500.559 448.986C500.559 451.596 497.85 453.719 494.522 453.719C491.193 453.719 488.485 451.596 488.485 448.986C488.485 446.376 491.193 444.253 494.522 444.253ZM494.522 452.949C497.309 452.949 499.576 451.171 499.576 448.986C499.576 446.801 497.309 445.023 494.522 445.023C491.735 445.023 489.467 446.8 489.467 448.986C489.467 451.171 491.735 452.949 494.522 452.949Z" fill="#54F4FC"/>
<path d="M510.383 464.382C510.383 462.747 512.074 461.421 514.16 461.421C516.246 461.421 517.938 462.747 517.938 464.382C517.938 466.018 516.246 467.344 514.16 467.344C512.074 467.344 510.383 466.018 510.383 464.382Z" fill="#54F4FC"/>
<path d="M514.162 461.034C516.515 461.034 518.43 462.535 518.43 464.38C518.43 466.225 516.515 467.727 514.162 467.727C511.808 467.727 509.893 466.225 509.893 464.38C509.893 462.535 511.808 461.034 514.162 461.034ZM514.162 466.956C515.973 466.956 517.448 465.801 517.448 464.38C517.448 462.96 515.973 461.804 514.162 461.804C512.35 461.804 510.876 462.96 510.876 464.38C510.875 465.801 512.349 466.956 514.162 466.956Z" fill="#54F4FC"/>
<path d="M508.282 560.888C508.282 558.341 510.915 556.276 514.164 556.276C517.413 556.276 520.047 558.341 520.047 560.888C520.047 563.435 517.413 565.5 514.164 565.5C510.916 565.5 508.282 563.435 508.282 560.888Z" fill="#54F4FC"/>
<path d="M514.165 555.889C517.68 555.889 520.539 558.131 520.539 560.886C520.539 563.641 517.68 565.883 514.165 565.883C510.651 565.883 507.792 563.641 507.792 560.886C507.791 558.131 510.651 555.889 514.165 555.889ZM514.165 565.113C517.138 565.113 519.557 563.217 519.557 560.886C519.557 558.556 517.138 556.659 514.165 556.659C511.193 556.659 508.774 558.556 508.774 560.886C508.773 563.217 511.193 565.113 514.165 565.113Z" fill="#54F4FC"/>
<path d="M528.017 576.29C528.017 573.784 530.609 571.752 533.806 571.752C537.002 571.752 539.594 573.784 539.594 576.29C539.594 578.796 537.002 580.828 533.806 580.828C530.609 580.828 528.017 578.797 528.017 576.29Z" fill="#54F4FC"/>
<path d="M533.807 571.365C537.27 571.365 540.086 573.574 540.086 576.288C540.086 579.003 537.27 581.211 533.807 581.211C530.345 581.211 527.528 579.003 527.528 576.288C527.528 573.574 530.345 571.365 533.807 571.365ZM533.807 580.441C536.728 580.441 539.104 578.578 539.104 576.288C539.104 573.998 536.728 572.135 533.807 572.135C530.886 572.135 528.51 573.998 528.51 576.288C528.51 578.578 530.886 580.441 533.807 580.441Z" fill="#54F4FC"/>
<path d="M492.496 134.147C492.496 131.381 495.356 129.139 498.885 129.139C502.413 129.139 505.273 131.381 505.273 134.147C505.273 136.914 502.413 139.156 498.885 139.156C495.356 139.156 492.496 136.914 492.496 134.147Z" fill="#54F4FC"/>
<path d="M498.886 128.752C502.679 128.752 505.766 131.172 505.766 134.146C505.766 137.119 502.679 139.539 498.886 139.539C495.092 139.539 492.006 137.119 492.006 134.146C492.006 131.172 495.093 128.752 498.886 128.752ZM498.886 138.77C502.138 138.77 504.783 136.696 504.783 134.146C504.783 131.596 502.138 129.522 498.886 129.522C495.634 129.522 492.988 131.596 492.988 134.146C492.988 136.696 495.634 138.77 498.886 138.77Z" fill="#54F4FC"/>
<path d="M474.161 149.546C474.161 147.345 476.438 145.561 479.245 145.561C482.052 145.561 484.328 147.345 484.328 149.546C484.328 151.747 482.052 153.531 479.245 153.531C476.437 153.531 474.161 151.747 474.161 149.546Z" fill="#54F4FC"/>
<path d="M479.246 145.174C482.32 145.174 484.82 147.134 484.82 149.544C484.82 151.954 482.32 153.914 479.246 153.914C476.172 153.914 473.672 151.954 473.672 149.544C473.672 147.134 476.172 145.174 479.246 145.174ZM479.246 153.144C481.778 153.144 483.838 151.529 483.838 149.544C483.838 147.558 481.778 145.943 479.246 145.943C476.714 145.943 474.654 147.558 474.654 149.544C474.654 151.529 476.714 153.144 479.246 153.144Z" fill="#54F4FC"/>
<path d="M474.08 514.351C474.08 512.115 476.391 510.303 479.243 510.303C482.095 510.303 484.406 512.115 484.406 514.351C484.406 516.586 482.095 518.398 479.243 518.398C476.391 518.398 474.08 516.586 474.08 514.351Z" fill="#54F4FC"/>
<path d="M479.244 509.916C482.362 509.916 484.898 511.904 484.898 514.349C484.898 516.793 482.362 518.781 479.244 518.781C476.126 518.781 473.59 516.793 473.59 514.349C473.591 511.904 476.127 509.916 479.244 509.916ZM479.244 518.011C481.82 518.011 483.916 516.368 483.916 514.349C483.916 512.329 481.82 510.686 479.244 510.686C476.668 510.686 474.572 512.329 474.572 514.349C474.573 516.368 476.668 518.011 479.244 518.011Z" fill="#54F4FC"/>
<path d="M498.883 526.103C496.316 526.103 494.235 527.734 494.235 529.747C494.235 531.759 496.316 533.391 498.883 533.391C501.45 533.391 503.531 531.759 503.531 529.747C503.531 527.734 501.45 526.103 498.883 526.103Z" fill="#54F4FC"/>
<path d="M498.884 525.715C501.718 525.715 504.023 527.523 504.023 529.744C504.023 531.966 501.718 533.773 498.884 533.773C496.051 533.773 493.745 531.966 493.745 529.744C493.745 527.523 496.051 525.715 498.884 525.715ZM498.884 533.003C501.177 533.003 503.041 531.541 503.041 529.744C503.041 527.947 501.177 526.485 498.884 526.485C496.592 526.485 494.727 527.947 494.727 529.744C494.727 531.541 496.593 533.003 498.884 533.003Z" fill="#54F4FC"/>
<path d="M630.714 526.727C628.584 526.727 626.858 528.08 626.858 529.75C626.858 531.42 628.584 532.773 630.714 532.773C632.844 532.773 634.57 531.42 634.57 529.75C634.57 528.08 632.844 526.727 630.714 526.727Z" fill="#54F4FC"/>
<path d="M630.715 526.339C633.112 526.339 635.063 527.869 635.063 529.748C635.063 531.627 633.112 533.156 630.715 533.156C628.317 533.156 626.367 531.627 626.367 529.748C626.367 527.869 628.317 526.339 630.715 526.339ZM630.715 532.386C632.57 532.386 634.08 531.203 634.08 529.748C634.08 528.294 632.571 527.11 630.715 527.11C628.859 527.11 627.349 528.294 627.349 529.748C627.349 531.203 628.859 532.386 630.715 532.386Z" fill="#54F4FC"/>
<path d="M650.355 540.294C646.934 540.294 644.16 542.468 644.16 545.151C644.16 547.833 646.934 550.008 650.355 550.008C653.777 550.008 656.551 547.833 656.551 545.151C656.551 542.468 653.777 540.294 650.355 540.294Z" fill="#54F4FC"/>
<path d="M650.357 539.907C654.044 539.907 657.043 542.258 657.043 545.149C657.043 548.039 654.044 550.391 650.357 550.391C646.67 550.391 643.671 548.039 643.671 545.149C643.671 542.258 646.67 539.907 650.357 539.907ZM650.357 549.62C653.502 549.62 656.061 547.614 656.061 545.149C656.061 542.683 653.502 540.677 650.357 540.677C647.212 540.677 644.653 542.683 644.653 545.149C644.653 547.614 647.212 549.62 650.357 549.62Z" fill="#54F4FC"/>
<path d="M262.806 248.103C262.806 245.865 265.12 244.05 267.975 244.05C270.83 244.05 273.145 245.865 273.145 248.103C273.145 250.342 270.83 252.156 267.975 252.156C265.12 252.156 262.806 250.342 262.806 248.103Z" fill="#54F4FC"/>
<path d="M267.976 243.663C271.097 243.663 273.637 245.655 273.637 248.101C273.637 250.548 271.097 252.539 267.976 252.539C264.855 252.539 262.316 250.548 262.316 248.101C262.315 245.655 264.854 243.663 267.976 243.663ZM267.976 251.769C270.556 251.769 272.655 250.124 272.655 248.101C272.655 246.079 270.556 244.433 267.976 244.433C265.397 244.433 263.298 246.079 263.298 248.101C263.297 250.124 265.397 251.769 267.976 251.769Z" fill="#54F4FC"/>
<path d="M282.528 232.707C282.528 230.504 284.806 228.718 287.616 228.718C290.426 228.718 292.703 230.504 292.703 232.707C292.703 234.909 290.425 236.695 287.616 236.695C284.805 236.696 282.528 234.91 282.528 232.707Z" fill="#54F4FC"/>
<path d="M287.617 228.331C290.693 228.331 293.195 230.293 293.195 232.704C293.195 235.116 290.692 237.078 287.617 237.078C284.541 237.078 282.038 235.116 282.038 232.704C282.038 230.293 284.541 228.331 287.617 228.331ZM287.617 236.309C290.151 236.309 292.213 234.692 292.213 232.705C292.213 230.718 290.151 229.101 287.617 229.101C285.082 229.101 283.02 230.718 283.02 232.705C283.02 234.692 285.082 236.309 287.617 236.309Z" fill="#54F4FC"/>
<path d="M388.099 232.708C388.099 229.72 391.189 227.299 394.999 227.299C398.81 227.299 401.898 229.72 401.898 232.708C401.898 235.695 398.81 238.117 394.999 238.117C391.188 238.117 388.099 235.695 388.099 232.708Z" fill="#54F4FC"/>
<path d="M395 226.912C399.075 226.912 402.391 229.51 402.391 232.705C402.391 235.9 399.075 238.5 395 238.5C390.925 238.5 387.609 235.9 387.609 232.705C387.609 229.51 390.925 226.912 395 226.912ZM395 237.73C398.533 237.73 401.408 235.476 401.408 232.705C401.408 229.935 398.534 227.682 395 227.682C391.467 227.682 388.592 229.935 388.592 232.705C388.592 235.476 391.467 237.73 395 237.73Z" fill="#54F4FC"/>
<path d="M409.179 217.304C409.179 214.94 411.624 213.023 414.64 213.023C417.657 213.023 420.102 214.94 420.102 217.304C420.102 219.669 417.657 221.586 414.64 221.586C411.624 221.586 409.179 219.669 409.179 217.304Z" fill="#54F4FC"/>
<path d="M414.641 212.636C417.924 212.636 420.594 214.729 420.594 217.302C420.594 219.875 417.923 221.969 414.641 221.969C411.359 221.969 408.689 219.875 408.689 217.302C408.689 214.729 411.359 212.636 414.641 212.636ZM414.641 221.199C417.382 221.199 419.612 219.451 419.612 217.302C419.612 215.154 417.382 213.406 414.641 213.406C411.901 213.406 409.671 215.154 409.671 217.302C409.671 219.451 411.901 221.199 414.641 221.199Z" fill="#54F4FC"/>
<path d="M409.65 64.6746C409.65 62.5146 411.884 60.7634 414.64 60.7634C417.395 60.7634 419.629 62.5146 419.629 64.6746C419.629 66.835 417.395 68.5859 414.64 68.5859C411.884 68.5859 409.65 66.8346 409.65 64.6746Z" fill="#54F4FC"/>
<path d="M414.641 60.3756C417.663 60.3756 420.121 62.3028 420.121 64.6722C420.121 67.0416 417.663 68.9687 414.641 68.9687C411.62 68.9687 409.161 67.0416 409.161 64.6722C409.161 62.3028 411.62 60.3756 414.641 60.3756ZM414.641 68.199C417.122 68.199 419.139 66.6171 419.139 64.6726C419.139 62.7281 417.122 61.1458 414.641 61.1458C412.161 61.1458 410.144 62.7277 410.144 64.6726C410.144 66.6167 412.161 68.199 414.641 68.199Z" fill="#54F4FC"/>
<path d="M430.357 49.2806C430.357 47.5802 432.115 46.2019 434.284 46.2019C436.453 46.2019 438.211 47.5802 438.211 49.2806C438.211 50.9811 436.453 52.3594 434.284 52.3594C432.115 52.3598 430.357 50.9811 430.357 49.2806Z" fill="#54F4FC"/>
<path d="M434.285 45.8149C436.721 45.8149 438.703 47.3691 438.703 49.2789C438.703 51.1887 436.721 52.7422 434.285 52.7422C431.849 52.7422 429.867 51.1887 429.867 49.2789C429.867 47.3691 431.849 45.8149 434.285 45.8149ZM434.285 51.9728C436.18 51.9728 437.721 50.7642 437.721 49.2793C437.721 47.7937 436.18 46.5851 434.285 46.5851C432.39 46.5851 430.849 47.7933 430.849 49.2793C430.849 50.7642 432.39 51.9728 434.285 51.9728Z" fill="#54F4FC"/>
<path d="M629.181 49.2763C629.181 46.7233 631.821 44.6541 635.077 44.6541C638.333 44.6541 640.973 46.7237 640.973 49.2763C640.973 51.8292 638.333 53.8984 635.077 53.8984C631.821 53.8988 629.181 51.8292 629.181 49.2763Z" fill="#54F4FC"/>
<path d="M635.077 44.2672C638.599 44.2672 641.465 46.513 641.465 49.2742C641.465 52.0354 638.599 54.2812 635.077 54.2812C631.556 54.2812 628.691 52.035 628.691 49.2742C628.691 46.5134 631.556 44.2672 635.077 44.2672ZM635.077 53.5115C638.058 53.5115 640.483 51.6105 640.483 49.2742C640.483 46.9379 638.058 45.0369 635.077 45.0369C632.098 45.0369 629.673 46.9379 629.673 49.2742C629.673 51.6105 632.097 53.5115 635.077 53.5115Z" fill="#54F4FC"/>
<path d="M649.694 64.6782C649.694 62.5028 651.944 60.7396 654.718 60.7396C657.493 60.7396 659.742 62.5032 659.742 64.6782C659.742 66.8536 657.493 68.6172 654.718 68.6172C651.943 68.6168 649.694 66.8536 649.694 64.6782Z" fill="#54F4FC"/>
<path d="M654.719 60.3527C657.76 60.3527 660.234 62.2921 660.234 64.6765C660.234 67.061 657.76 69 654.719 69C651.678 69 649.204 67.0606 649.204 64.6765C649.204 62.2918 651.678 60.3527 654.719 60.3527ZM654.719 68.2298C657.219 68.2298 659.252 66.6356 659.252 64.6761C659.252 62.7166 657.218 61.1225 654.719 61.1225C652.22 61.1224 650.186 62.7166 650.186 64.6761C650.186 66.6356 652.22 68.2298 654.719 68.2298Z" fill="#54F4FC"/>
<path d="M647.788 235.099C647.788 232.099 650.89 229.667 654.716 229.667C658.542 229.667 661.645 232.099 661.645 235.099C661.645 238.1 658.542 240.531 654.716 240.531C650.89 240.531 647.788 238.1 647.788 235.099Z" fill="#54F4FC"/>
<path d="M654.717 229.28C658.808 229.28 662.137 231.89 662.137 235.097C662.137 238.305 658.808 240.914 654.717 240.914C650.626 240.914 647.298 238.305 647.298 235.097C647.297 231.89 650.626 229.28 654.717 229.28ZM654.717 240.144C658.267 240.144 661.155 237.88 661.155 235.097C661.155 232.314 658.267 230.05 654.717 230.05C651.167 230.05 648.28 232.314 648.28 235.097C648.279 237.88 651.167 240.144 654.717 240.144Z" fill="#54F4FC"/>
<path d="M670.24 250.501C670.24 248.715 672.086 247.267 674.364 247.267C676.642 247.267 678.488 248.715 678.488 250.501C678.488 252.287 676.642 253.734 674.364 253.734C672.086 253.734 670.24 252.286 670.24 250.501Z" fill="#54F4FC"/>
<path d="M674.365 246.88C676.911 246.88 678.98 248.504 678.98 250.499C678.98 252.494 676.91 254.117 674.365 254.117C671.82 254.117 669.75 252.494 669.75 250.499C669.75 248.504 671.82 246.88 674.365 246.88ZM674.365 253.347C676.368 253.347 677.998 252.07 677.998 250.498C677.998 248.928 676.368 247.65 674.365 247.65C672.362 247.65 670.732 248.928 670.732 250.498C670.732 252.07 672.362 253.347 674.365 253.347Z" fill="#54F4FC"/>
<path d="M232.089 148.863C232.089 146.177 234.866 144 238.292 144C241.719 144 244.496 146.177 244.496 148.863C244.496 151.549 241.719 153.727 238.292 153.727C234.866 153.727 232.089 151.549 232.089 148.863Z" fill="#54F4FC"/>
<path d="M238.294 143.613C241.985 143.613 244.988 145.967 244.988 148.861C244.988 151.755 241.985 154.109 238.294 154.109C234.602 154.109 231.599 151.755 231.599 148.861C231.599 145.967 234.602 143.613 238.294 143.613ZM238.294 153.34C241.443 153.34 244.006 151.33 244.006 148.861C244.006 146.392 241.443 144.382 238.294 144.382C235.144 144.382 232.581 146.392 232.581 148.861C232.581 151.33 235.143 153.34 238.294 153.34Z" fill="#54F4FC"/>
<path d="M253.823 164.261C253.823 162.481 255.664 161.037 257.935 161.037C260.206 161.037 262.047 162.48 262.047 164.261C262.047 166.041 260.206 167.484 257.935 167.484C255.664 167.484 253.823 166.041 253.823 164.261Z" fill="#54F4FC"/>
<path d="M257.936 160.65C260.474 160.65 262.539 162.269 262.539 164.259C262.539 166.248 260.474 167.867 257.936 167.867C255.398 167.867 253.334 166.248 253.334 164.259C253.333 162.269 255.398 160.65 257.936 160.65ZM257.936 167.097C259.932 167.097 261.557 165.825 261.557 164.259C261.557 162.693 259.932 161.42 257.936 161.42C255.94 161.42 254.316 162.693 254.316 164.259C254.316 165.825 255.94 167.097 257.936 167.097Z" fill="#54F4FC"/>
<path d="M309.34 164.265C309.34 161.952 311.731 160.077 314.682 160.077C317.632 160.077 320.023 161.952 320.023 164.265C320.023 166.578 317.632 168.453 314.682 168.453C311.731 168.453 309.34 166.578 309.34 164.265Z" fill="#54F4FC"/>
<path d="M314.683 159.689C317.899 159.689 320.516 161.74 320.516 164.263C320.516 166.784 317.899 168.836 314.683 168.836C311.466 168.836 308.85 166.784 308.85 164.263C308.85 161.74 311.466 159.689 314.683 159.689ZM314.683 168.066C317.357 168.066 319.533 166.36 319.533 164.263C319.533 162.165 317.357 160.459 314.683 160.459C312.008 160.459 309.832 162.165 309.832 164.263C309.832 166.36 312.008 168.066 314.683 168.066Z" fill="#54F4FC"/>
<path d="M330.459 179.66C330.459 177.987 332.188 176.632 334.321 176.632C336.455 176.632 338.184 177.987 338.184 179.66C338.184 181.332 336.455 182.687 334.321 182.687C332.189 182.687 330.459 181.331 330.459 179.66Z" fill="#54F4FC"/>
<path d="M334.322 176.244C336.723 176.244 338.676 177.775 338.676 179.657C338.676 181.539 336.723 183.07 334.322 183.07C331.922 183.07 329.969 181.539 329.969 179.657C329.969 177.775 331.922 176.244 334.322 176.244ZM334.322 182.3C336.181 182.3 337.694 181.114 337.694 179.657C337.694 178.2 336.181 177.014 334.322 177.014C332.464 177.014 330.951 178.199 330.951 179.657C330.951 181.114 332.464 182.3 334.322 182.3Z" fill="#54F4FC"/>
<path d="M328.639 251.529C328.639 249.069 331.183 247.074 334.321 247.074C337.46 247.074 340.004 249.069 340.004 251.529C340.004 253.99 337.46 255.984 334.321 255.984C331.183 255.985 328.639 253.99 328.639 251.529Z" fill="#54F4FC"/>
<path d="M334.322 246.686C337.727 246.686 340.496 248.858 340.496 251.527C340.496 254.196 337.726 256.367 334.322 256.367C330.918 256.367 328.149 254.196 328.149 251.527C328.149 248.858 330.918 246.686 334.322 246.686ZM334.322 255.597C337.185 255.597 339.514 253.771 339.514 251.526C339.514 249.282 337.185 247.456 334.322 247.456C331.46 247.456 329.131 249.282 329.131 251.526C329.131 253.771 331.46 255.597 334.322 255.597Z" fill="#54F4FC"/>
<path d="M349.766 266.927C349.766 265.109 351.646 263.634 353.965 263.634C356.284 263.634 358.164 265.109 358.164 266.927C358.164 268.745 356.284 270.219 353.965 270.219C351.646 270.219 349.766 268.745 349.766 266.927Z" fill="#54F4FC"/>
<path d="M353.966 263.247C356.552 263.247 358.656 264.897 358.656 266.924C358.656 268.952 356.552 270.602 353.966 270.602C351.379 270.602 349.275 268.952 349.275 266.924C349.275 264.897 351.38 263.247 353.966 263.247ZM353.966 269.832C356.01 269.832 357.674 268.527 357.674 266.924C357.674 265.321 356.01 264.017 353.966 264.017C351.921 264.017 350.257 265.321 350.257 266.924C350.257 268.527 351.921 269.832 353.966 269.832Z" fill="#54F4FC"/>
<path d="M576.403 266.925C576.403 264.579 578.829 262.677 581.821 262.677C584.813 262.677 587.238 264.579 587.238 266.925C587.238 269.27 584.813 271.172 581.821 271.172C578.829 271.172 576.403 269.27 576.403 266.925Z" fill="#54F4FC"/>
<path d="M581.822 262.29C585.08 262.29 587.73 264.368 587.73 266.922C587.73 269.476 585.08 271.555 581.822 271.555C578.564 271.555 575.914 269.476 575.914 266.922C575.914 264.368 578.564 262.29 581.822 262.29ZM581.822 270.785C584.539 270.785 586.748 269.053 586.748 266.923C586.748 264.793 584.539 263.061 581.822 263.061C579.106 263.06 576.896 264.793 576.896 266.922C576.896 269.052 579.106 270.785 581.822 270.785Z" fill="#54F4FC"/>
<path d="M601.463 278.773C598.962 278.773 596.934 280.363 596.934 282.324C596.934 284.285 598.962 285.875 601.463 285.875C603.964 285.875 605.992 284.285 605.992 282.324C605.992 280.363 603.964 278.773 601.463 278.773Z" fill="#54F4FC"/>
<path d="M601.464 278.386C604.232 278.386 606.484 280.152 606.484 282.322C606.484 284.492 604.232 286.258 601.464 286.258C598.695 286.258 596.443 284.492 596.443 282.322C596.443 280.152 598.695 278.386 601.464 278.386ZM601.464 285.488C603.69 285.488 605.502 284.068 605.502 282.322C605.502 280.576 603.691 279.156 601.464 279.156C599.237 279.156 597.425 280.576 597.425 282.322C597.426 284.068 599.237 285.488 601.464 285.488Z" fill="#54F4FC"/>
<path d="M597.623 421.269C597.623 419.605 599.344 418.256 601.466 418.256C603.588 418.256 605.309 419.605 605.309 421.269C605.309 422.933 603.588 424.281 601.466 424.281C599.344 424.281 597.623 422.933 597.623 421.269Z" fill="#54F4FC"/>
<path d="M601.467 417.869C603.857 417.869 605.801 419.393 605.801 421.266C605.801 423.14 603.857 424.664 601.467 424.664C599.078 424.664 597.134 423.14 597.134 421.266C597.134 419.393 599.078 417.869 601.467 417.869ZM601.467 423.894C603.315 423.894 604.819 422.715 604.819 421.266C604.819 419.817 603.315 418.639 601.467 418.639C599.619 418.639 598.116 419.817 598.116 421.266C598.116 422.715 599.619 423.894 601.467 423.894Z" fill="#54F4FC"/>
<path d="M617.326 436.669C617.326 435.032 619.019 433.705 621.106 433.705C623.194 433.705 624.887 435.033 624.887 436.669C624.887 438.306 623.194 439.633 621.106 439.633C619.019 439.633 617.326 438.306 617.326 436.669Z" fill="#54F4FC"/>
<path d="M621.108 433.318C623.463 433.318 625.379 434.82 625.379 436.667C625.379 438.513 623.463 440.016 621.108 440.016C618.752 440.016 616.836 438.513 616.836 436.667C616.836 434.821 618.752 433.318 621.108 433.318ZM621.108 439.246C622.921 439.246 624.397 438.089 624.397 436.667C624.397 435.245 622.921 434.088 621.108 434.088C619.294 434.088 617.818 435.245 617.818 436.667C617.818 438.089 619.294 439.246 621.108 439.246Z" fill="#54F4FC"/>
<path d="M636.821 488.823C633.063 488.823 630.016 491.211 630.016 494.158C630.016 497.104 633.063 499.492 636.821 499.492C640.579 499.492 643.625 497.104 643.625 494.158C643.625 491.211 640.579 488.823 636.821 488.823Z" fill="#54F4FC"/>
<path d="M636.822 488.436C640.844 488.436 644.117 491.002 644.117 494.156C644.117 497.309 640.844 499.875 636.822 499.875C632.799 499.875 629.526 497.309 629.526 494.156C629.526 491.002 632.799 488.436 636.822 488.436ZM636.822 499.106C640.303 499.106 643.135 496.885 643.135 494.156C643.135 491.427 640.303 489.207 636.822 489.207C633.341 489.207 630.509 491.427 630.509 494.156C630.509 496.885 633.341 499.106 636.822 499.106Z" fill="#54F4FC"/>
<path d="M611.643 509.558C611.643 507.162 614.122 505.218 617.179 505.218C620.236 505.218 622.715 507.161 622.715 509.558C622.715 511.955 620.236 513.898 617.179 513.898C614.122 513.898 611.643 511.955 611.643 509.558Z" fill="#54F4FC"/>
<path d="M617.181 504.831C620.504 504.831 623.207 506.951 623.207 509.556C623.207 512.161 620.503 514.281 617.181 514.281C613.858 514.281 611.154 512.162 611.154 509.556C611.154 506.951 613.858 504.831 617.181 504.831ZM617.181 513.511C619.962 513.511 622.225 511.736 622.225 509.556C622.225 507.375 619.962 505.601 617.181 505.601C614.399 505.601 612.136 507.375 612.136 509.556C612.136 511.737 614.399 513.511 617.181 513.511Z" fill="#54F4FC"/>
<path d="M501.993 610.821C501.97 613.826 505.058 616.278 508.892 616.296C512.726 616.314 515.852 613.893 515.876 610.887C515.899 607.882 512.81 605.43 508.977 605.412C505.143 605.394 502.016 607.815 501.993 610.821Z" fill="#54F4FC"/>
<path d="M508.927 605.026C513.026 605.026 516.359 607.64 516.359 610.853C516.359 614.066 513.026 616.68 508.927 616.68C504.829 616.68 501.495 614.066 501.495 610.853C501.495 607.639 504.829 605.026 508.927 605.026ZM508.927 615.91C512.483 615.91 515.377 613.641 515.377 610.853C515.377 608.065 512.483 605.796 508.927 605.796C505.371 605.796 502.477 608.065 502.477 610.853C502.477 613.641 505.371 615.91 508.927 615.91Z" fill="#54F4FC"/>
<path d="M485.468 595.453C485.468 593.801 487.177 592.461 489.285 592.461C491.393 592.461 493.102 593.8 493.102 595.453C493.102 597.106 491.393 598.445 489.285 598.445C487.177 598.445 485.468 597.105 485.468 595.453Z" fill="#54F4FC"/>
<path d="M489.286 592.074C491.661 592.074 493.594 593.589 493.594 595.451C493.594 597.313 491.661 598.828 489.286 598.828C486.911 598.828 484.979 597.313 484.979 595.451C484.978 593.589 486.911 592.074 489.286 592.074ZM489.286 598.058C491.119 598.058 492.612 596.888 492.612 595.451C492.612 594.014 491.12 592.844 489.286 592.844C487.452 592.844 485.961 594.014 485.961 595.451C485.961 596.888 487.452 598.058 489.286 598.058Z" fill="#54F4FC"/>
<path d="M355.051 595.451C355.051 592.896 357.694 590.824 360.953 590.824C364.213 590.824 366.855 592.895 366.855 595.451C366.855 598.006 364.213 600.078 360.953 600.078C357.694 600.078 355.051 598.006 355.051 595.451Z" fill="#54F4FC"/>
<path d="M360.951 590.437C364.476 590.437 367.344 592.685 367.344 595.449C367.344 598.213 364.476 600.461 360.951 600.461C357.425 600.461 354.557 598.213 354.557 595.449C354.557 592.685 357.425 590.437 360.951 590.437ZM360.951 599.691C363.934 599.691 366.362 597.787 366.362 595.449C366.362 593.11 363.934 591.207 360.951 591.207C357.967 591.207 355.539 593.11 355.539 595.449C355.539 597.788 357.967 599.691 360.951 599.691Z" fill="#54F4FC"/>
<path d="M336.233 610.856C336.233 608.658 338.506 606.876 341.31 606.876C344.114 606.876 346.387 608.658 346.387 610.856C346.387 613.054 344.114 614.836 341.31 614.836C338.506 614.836 336.233 613.054 336.233 610.856Z" fill="#54F4FC"/>
<path d="M341.307 606.488C344.377 606.488 346.875 608.446 346.875 610.853C346.875 613.26 344.377 615.219 341.307 615.219C338.237 615.219 335.739 613.26 335.739 610.853C335.739 608.447 338.237 606.488 341.307 606.488ZM341.307 614.449C343.835 614.449 345.893 612.836 345.893 610.854C345.893 608.871 343.835 607.259 341.307 607.259C338.779 607.259 336.721 608.871 336.721 610.854C336.721 612.836 338.778 614.449 341.307 614.449Z" fill="#54F4FC"/>
<path d="M231.746 197.299C229.465 197.299 227.616 198.748 227.616 200.536C227.616 202.324 229.465 203.773 231.746 203.773C234.026 203.773 235.875 202.324 235.875 200.536C235.875 198.748 234.026 197.299 231.746 197.299Z" fill="#54F4FC"/>
<path d="M231.747 196.911C234.295 196.911 236.367 198.536 236.367 200.534C236.367 202.531 234.294 204.156 231.747 204.156C229.199 204.156 227.126 202.531 227.126 200.534C227.126 198.536 229.199 196.911 231.747 196.911ZM231.747 203.386C233.753 203.386 235.385 202.106 235.385 200.534C235.385 198.961 233.753 197.681 231.747 197.681C229.741 197.681 228.108 198.961 228.108 200.534C228.108 202.106 229.741 203.386 231.747 203.386Z" fill="#54F4FC"/>
<path d="M206.105 215.938C206.105 213.341 208.79 211.235 212.103 211.235C215.416 211.235 218.102 213.341 218.102 215.938C218.102 218.535 215.416 220.641 212.103 220.641C208.79 220.641 206.105 218.535 206.105 215.938Z" fill="#54F4FC"/>
<path d="M212.1 210.848C215.679 210.848 218.59 213.13 218.59 215.936C218.59 218.741 215.679 221.023 212.1 221.023C208.522 221.023 205.611 218.741 205.611 215.936C205.611 213.131 208.522 210.848 212.1 210.848ZM212.1 220.254C215.137 220.254 217.608 218.317 217.608 215.936C217.608 213.555 215.137 211.618 212.1 211.618C209.064 211.618 206.593 213.555 206.593 215.936C206.593 218.316 209.064 220.254 212.1 220.254Z" fill="#54F4FC"/>
<path d="M207.472 277.532C207.472 275.526 209.546 273.9 212.105 273.9C214.664 273.9 216.738 275.526 216.738 277.532C216.738 279.538 214.664 281.164 212.105 281.164C209.546 281.164 207.472 279.538 207.472 277.532Z" fill="#54F4FC"/>
<path d="M212.102 273.513C214.928 273.513 217.227 275.315 217.227 277.53C217.227 279.745 214.928 281.547 212.102 281.547C209.277 281.547 206.978 279.745 206.978 277.53C206.978 275.315 209.277 273.513 212.102 273.513ZM212.102 280.777C214.386 280.777 216.244 279.321 216.244 277.53C216.244 275.739 214.386 274.282 212.102 274.282C209.819 274.282 207.961 275.739 207.961 277.53C207.961 279.321 209.819 280.777 212.102 280.777Z" fill="#54F4FC"/>
<path d="M231.745 288.312C228.487 288.312 225.846 290.383 225.846 292.937C225.846 295.492 228.487 297.562 231.745 297.562C235.003 297.562 237.645 295.492 237.645 292.937C237.645 290.383 235.003 288.312 231.745 288.312Z" fill="#54F4FC"/>
<path d="M231.746 287.925C235.27 287.925 238.137 290.172 238.137 292.935C238.137 295.698 235.27 297.945 231.746 297.945C228.222 297.945 225.355 295.698 225.355 292.935C225.355 290.172 228.223 287.925 231.746 287.925ZM231.746 297.176C234.728 297.176 237.155 295.273 237.155 292.935C237.155 290.597 234.729 288.695 231.746 288.695C228.764 288.695 226.337 290.597 226.337 292.935C226.337 295.273 228.764 297.176 231.746 297.176Z" fill="#54F4FC"/>
<path d="M295.474 288.827C292.581 288.827 290.236 290.665 290.236 292.933C290.236 295.201 292.581 297.039 295.474 297.039C298.366 297.039 300.711 295.201 300.711 292.933C300.711 290.665 298.366 288.827 295.474 288.827Z" fill="#54F4FC"/>
<path d="M295.475 288.441C298.633 288.441 301.203 290.455 301.203 292.931C301.203 295.407 298.633 297.422 295.475 297.422C292.316 297.422 289.747 295.407 289.747 292.931C289.747 290.455 292.316 288.441 295.475 288.441ZM295.475 296.652C298.092 296.652 300.221 294.983 300.221 292.931C300.221 290.88 298.092 289.211 295.475 289.211C292.858 289.211 290.729 290.88 290.729 292.931C290.729 294.983 292.858 296.652 295.475 296.652Z" fill="#54F4FC"/>
<path d="M315.121 305.405C313.057 305.405 311.383 306.717 311.383 308.335C311.383 309.954 313.057 311.266 315.121 311.266C317.186 311.266 318.859 309.954 318.859 308.335C318.859 306.717 317.186 305.405 315.121 305.405Z" fill="#54F4FC"/>
<path d="M315.119 305.018C317.451 305.018 319.348 306.505 319.348 308.333C319.348 310.161 317.451 311.648 315.119 311.648C312.787 311.648 310.89 310.161 310.89 308.333C310.89 306.505 312.787 305.018 315.119 305.018ZM315.119 310.879C316.909 310.879 318.366 309.736 318.366 308.333C318.366 306.93 316.909 305.788 315.119 305.788C313.329 305.788 311.872 306.93 311.872 308.333C311.872 309.736 313.328 310.879 315.119 310.879Z" fill="#54F4FC"/>
<path d="M309.752 395.259C309.752 392.934 312.157 391.049 315.122 391.049C318.088 391.049 320.492 392.934 320.492 395.259C320.492 397.584 318.088 399.469 315.122 399.469C312.157 399.469 309.752 397.584 309.752 395.259Z" fill="#54F4FC"/>
<path d="M315.12 390.662C318.351 390.662 320.98 392.723 320.98 395.257C320.98 397.79 318.351 399.852 315.12 399.852C311.888 399.852 309.259 397.79 309.259 395.257C309.259 392.723 311.888 390.662 315.12 390.662ZM315.12 399.081C317.81 399.081 319.998 397.366 319.998 395.257C319.998 393.148 317.81 391.432 315.12 391.432C312.43 391.432 310.241 393.148 310.241 395.257C310.241 397.366 312.429 399.081 315.12 399.081Z" fill="#54F4FC"/>
<path d="M330.743 410.654C330.743 408.914 332.543 407.503 334.762 407.503C336.982 407.503 338.781 408.914 338.781 410.654C338.781 412.394 336.982 413.805 334.762 413.805C332.543 413.805 330.743 412.394 330.743 410.654Z" fill="#54F4FC"/>
<path d="M334.76 407.116C337.246 407.116 339.27 408.702 339.27 410.652C339.27 412.601 337.246 414.187 334.76 414.187C332.273 414.187 330.25 412.601 330.25 410.652C330.25 408.703 332.273 407.116 334.76 407.116ZM334.76 413.418C336.705 413.418 338.287 412.177 338.287 410.652C338.287 409.127 336.705 407.886 334.76 407.886C332.814 407.886 331.232 409.127 331.232 410.652C331.232 412.177 332.814 413.418 334.76 413.418Z" fill="#54F4FC"/>
<path d="M396.277 410.66C396.277 408.945 398.051 407.555 400.238 407.555C402.426 407.555 404.199 408.945 404.199 410.66C404.199 412.375 402.426 413.766 400.238 413.766C398.051 413.766 396.277 412.375 396.277 410.66Z" fill="#54F4FC"/>
<path d="M400.236 407.168C402.691 407.168 404.688 408.733 404.688 410.658C404.688 412.582 402.691 414.148 400.236 414.148C397.781 414.148 395.784 412.582 395.784 410.658C395.783 408.733 397.781 407.168 400.236 407.168ZM400.236 413.378C402.149 413.378 403.705 412.158 403.705 410.658C403.705 409.158 402.149 407.938 400.236 407.938C398.323 407.938 396.766 409.158 396.766 410.658C396.766 412.158 398.322 413.378 400.236 413.378Z" fill="#54F4FC"/>
<path d="M415.153 426.057C415.153 424.009 417.271 422.349 419.883 422.349C422.495 422.349 424.613 424.009 424.613 426.057C424.613 428.105 422.495 429.766 419.883 429.766C417.271 429.766 415.153 428.105 415.153 426.057Z" fill="#54F4FC"/>
<path d="M419.88 421.961C422.759 421.961 425.102 423.798 425.102 426.055C425.102 428.312 422.76 430.148 419.88 430.148C417.001 430.148 414.659 428.312 414.659 426.055C414.659 423.798 417.001 421.961 419.88 421.961ZM419.88 429.378C422.218 429.378 424.119 427.887 424.119 426.055C424.119 424.222 422.218 422.732 419.88 422.732C417.543 422.732 415.641 424.222 415.641 426.055C415.641 427.887 417.543 429.378 419.88 429.378Z" fill="#54F4FC"/>
<path d="M415.528 496.551C415.528 494.668 417.475 493.141 419.877 493.141C422.279 493.141 424.227 494.668 424.227 496.551C424.227 498.434 422.279 499.961 419.877 499.961C417.475 499.961 415.528 498.434 415.528 496.551Z" fill="#54F4FC"/>
<path d="M419.879 492.754C422.548 492.754 424.719 494.457 424.719 496.549C424.719 498.641 422.547 500.344 419.879 500.344C417.21 500.344 415.039 498.641 415.039 496.549C415.039 494.457 417.21 492.754 419.879 492.754ZM419.879 499.574C422.006 499.574 423.737 498.217 423.737 496.549C423.737 494.881 422.006 493.525 419.879 493.525C417.751 493.525 416.021 494.881 416.021 496.549C416.02 498.217 417.751 499.574 419.879 499.574Z" fill="#54F4FC"/>
<path d="M393.36 511.953C393.36 508.975 396.439 506.561 400.237 506.561C404.035 506.561 407.113 508.975 407.113 511.953C407.113 514.93 404.035 517.344 400.237 517.344C396.439 517.344 393.36 514.93 393.36 511.953Z" fill="#54F4FC"/>
<path d="M400.238 506.174C404.3 506.174 407.605 508.766 407.605 511.95C407.605 515.135 404.3 517.727 400.238 517.727C396.176 517.727 392.87 515.135 392.87 511.95C392.87 508.766 396.175 506.174 400.238 506.174ZM400.238 516.956C403.759 516.956 406.623 514.711 406.623 511.95C406.623 509.19 403.759 506.945 400.238 506.945C396.717 506.945 393.853 509.19 393.853 511.95C393.853 514.711 396.717 516.956 400.238 516.956Z" fill="#54F4FC"/>
<path d="M356.109 511.955C356.109 509.86 358.276 508.161 360.949 508.161C363.622 508.161 365.789 509.86 365.789 511.955C365.789 514.051 363.622 515.75 360.949 515.75C358.276 515.75 356.109 514.051 356.109 511.955Z" fill="#54F4FC"/>
<path d="M360.95 507.774C363.89 507.774 366.281 509.649 366.281 511.953C366.281 514.258 363.89 516.133 360.95 516.133C358.011 516.133 355.619 514.258 355.619 511.953C355.619 509.649 358.01 507.774 360.95 507.774ZM360.95 515.363C363.349 515.363 365.299 513.833 365.299 511.953C365.299 510.073 363.348 508.544 360.95 508.544C358.552 508.544 356.601 510.073 356.601 511.953C356.601 513.834 358.552 515.363 360.95 515.363Z" fill="#54F4FC"/>
<path d="M337.14 496.554C337.14 494.75 339.006 493.287 341.306 493.287C343.608 493.287 345.473 494.75 345.473 496.554C345.473 498.358 343.607 499.82 341.306 499.82C339.006 499.82 337.14 498.358 337.14 496.554Z" fill="#54F4FC"/>
<path d="M341.308 492.9C343.876 492.9 345.965 494.538 345.965 496.552C345.965 498.565 343.875 500.203 341.308 500.203C338.74 500.203 336.65 498.565 336.65 496.552C336.65 494.538 338.739 492.9 341.308 492.9ZM341.308 499.433C343.334 499.433 344.983 498.14 344.983 496.552C344.983 494.963 343.334 493.67 341.308 493.67C339.281 493.67 337.632 494.963 337.632 496.552C337.632 498.14 339.281 499.433 341.308 499.433Z" fill="#54F4FC"/>
<path d="M337.013 491.766C337.013 489.907 338.935 488.4 341.307 488.4C343.679 488.4 345.602 489.907 345.602 491.766C345.602 493.626 343.679 495.133 341.307 495.133C338.935 495.133 337.013 493.626 337.013 491.766Z" fill="#54F4FC"/>
<path d="M341.309 488.012C343.947 488.012 346.094 489.695 346.094 491.764C346.094 493.832 343.947 495.516 341.309 495.516C338.67 495.516 336.523 493.833 336.523 491.764C336.523 489.695 338.67 488.012 341.309 488.012ZM341.309 494.745C343.406 494.745 345.112 493.408 345.112 491.764C345.112 490.12 343.406 488.782 341.309 488.782C339.212 488.782 337.505 490.12 337.505 491.764C337.505 493.408 339.211 494.745 341.309 494.745Z" fill="#54F4FC"/>
<path d="M317.629 476.36C317.629 474.613 319.436 473.197 321.664 473.197C323.893 473.197 325.699 474.613 325.699 476.36C325.699 478.107 323.893 479.523 321.664 479.523C319.436 479.523 317.629 478.107 317.629 476.36Z" fill="#54F4FC"/>
<path d="M321.665 472.809C324.161 472.809 326.191 474.401 326.191 476.358C326.191 478.314 324.161 479.906 321.665 479.906C319.169 479.906 317.139 478.314 317.139 476.358C317.139 474.401 319.169 472.809 321.665 472.809ZM321.665 479.136C323.62 479.136 325.209 477.89 325.209 476.358C325.209 474.826 323.62 473.579 321.665 473.579C319.711 473.579 318.121 474.826 318.121 476.358C318.121 477.89 319.711 479.136 321.665 479.136Z" fill="#54F4FC"/>
<path d="M207.377 476.366C207.377 473.375 210.469 470.95 214.284 470.95C218.099 470.95 221.191 473.375 221.191 476.366C221.191 479.357 218.099 481.781 214.284 481.781C210.469 481.781 207.377 479.357 207.377 476.366Z" fill="#54F4FC"/>
<path d="M214.285 470.563C218.365 470.563 221.684 473.166 221.684 476.364C221.684 479.562 218.364 482.164 214.285 482.164C210.206 482.164 206.887 479.562 206.887 476.364C206.886 473.165 210.205 470.563 214.285 470.563ZM214.285 481.394C217.823 481.394 220.701 479.138 220.701 476.364C220.701 473.59 217.823 471.333 214.285 471.333C210.747 471.333 207.869 473.59 207.869 476.364C207.869 479.138 210.747 481.394 214.285 481.394Z" fill="#54F4FC"/>
<path d="M189.911 491.762C189.911 489.715 192.028 488.055 194.639 488.055C197.25 488.055 199.367 489.715 199.367 491.762C199.367 493.809 197.25 495.469 194.639 495.469C192.028 495.469 189.911 493.809 189.911 491.762Z" fill="#54F4FC"/>
<path d="M194.64 487.668C197.518 487.668 199.859 489.504 199.859 491.76C199.859 494.016 197.518 495.852 194.64 495.852C191.763 495.852 189.421 494.016 189.421 491.76C189.421 489.504 191.762 487.668 194.64 487.668ZM194.64 495.081C196.977 495.081 198.877 493.591 198.877 491.76C198.877 489.928 196.977 488.438 194.64 488.438C192.304 488.438 190.403 489.928 190.403 491.76C190.403 493.591 192.304 495.081 194.64 495.081Z" fill="#54F4FC"/>
<path d="M554.805 481.84C554.805 479.214 557.52 477.085 560.869 477.085C564.218 477.085 566.934 479.214 566.934 481.84C566.934 484.465 564.218 486.594 560.869 486.594C557.52 486.594 554.805 484.465 554.805 481.84Z" fill="#54F4FC"/>
<path d="M560.87 476.698C564.485 476.698 567.426 479.004 567.426 481.837C567.426 484.671 564.485 486.977 560.87 486.977C557.256 486.977 554.315 484.671 554.315 481.837C554.315 479.004 557.256 476.698 560.87 476.698ZM560.87 486.207C563.943 486.207 566.444 484.247 566.444 481.837C566.444 479.428 563.943 477.468 560.87 477.468C557.797 477.468 555.297 479.428 555.297 481.837C555.297 484.247 557.797 486.207 560.87 486.207Z" fill="#54F4FC"/>
<path d="M535.437 466.438C535.437 463.931 538.029 461.899 541.226 461.899C544.424 461.899 547.016 463.932 547.016 466.438C547.016 468.944 544.424 470.977 541.226 470.977C538.029 470.977 535.437 468.945 535.437 466.438Z" fill="#54F4FC"/>
<path d="M541.228 461.512C544.691 461.512 547.508 463.721 547.508 466.436C547.508 469.151 544.691 471.359 541.228 471.359C537.764 471.359 534.947 469.15 534.947 466.436C534.947 463.721 537.764 461.512 541.228 461.512ZM541.228 470.59C544.149 470.59 546.526 468.727 546.526 466.436C546.526 464.146 544.149 462.282 541.228 462.282C538.306 462.282 535.929 464.146 535.929 466.436C535.929 468.727 538.306 470.59 541.228 470.59Z" fill="#54F4FC"/>
<path d="M541.226 390.471C538.335 390.471 535.991 392.309 535.991 394.576C535.991 396.842 538.335 398.68 541.226 398.68C544.117 398.68 546.461 396.842 546.461 394.576C546.461 392.309 544.117 390.471 541.226 390.471Z" fill="#54F4FC"/>
<path d="M541.227 390.085C544.384 390.085 546.953 392.098 546.953 394.573C546.953 397.049 544.384 399.062 541.227 399.062C538.069 399.062 535.501 397.049 535.501 394.573C535.501 392.098 538.069 390.085 541.227 390.085ZM541.227 398.293C543.843 398.293 545.971 396.624 545.971 394.573C545.971 392.523 543.843 390.854 541.227 390.854C538.611 390.854 536.483 392.523 536.483 394.573C536.483 396.624 538.611 398.293 541.227 398.293Z" fill="#54F4FC"/>
<path d="M560.869 374.046C557.258 374.046 554.331 376.341 554.331 379.172C554.331 382.002 557.258 384.297 560.869 384.297C564.479 384.297 567.406 382.002 567.406 379.172C567.406 376.341 564.479 374.046 560.869 374.046Z" fill="#54F4FC"/>
<path d="M560.87 373.659C564.746 373.659 567.898 376.131 567.898 379.17C567.898 382.208 564.745 384.68 560.87 384.68C556.994 384.68 553.841 382.208 553.841 379.17C553.842 376.131 556.995 373.659 560.87 373.659ZM560.87 383.91C564.204 383.91 566.916 381.783 566.916 379.17C566.916 376.555 564.204 374.429 560.87 374.429C557.536 374.429 554.823 376.555 554.823 379.17C554.824 381.783 557.536 383.91 560.87 383.91Z" fill="#54F4FC"/>
<path d="M176.063 96.8437C176.063 94.091 178.909 91.8598 182.42 91.8598C185.931 91.8598 188.777 94.0914 188.777 96.8438C188.777 99.5965 185.931 101.828 182.42 101.828C178.909 101.828 176.063 99.5965 176.063 96.8437Z" fill="#54F4FC"/>
<path d="M182.421 91.4724C186.197 91.4725 189.27 93.8811 189.27 96.8413C189.27 99.8023 186.197 102.211 182.421 102.211C178.645 102.211 175.573 99.8023 175.573 96.8413C175.573 93.8807 178.645 91.4724 182.421 91.4724ZM182.421 101.441C185.656 101.441 188.287 99.3773 188.287 96.8413C188.287 94.3056 185.656 92.2426 182.421 92.2426C179.186 92.2426 176.555 94.306 176.555 96.8413C176.555 99.3773 179.186 101.441 182.421 101.441Z" fill="#54F4FC"/>
<path d="M198.049 112.242C198.049 110.502 199.847 109.093 202.066 109.093C204.284 109.093 206.082 110.503 206.082 112.242C206.082 113.981 204.284 115.391 202.066 115.391C199.847 115.391 198.049 113.981 198.049 112.242Z" fill="#54F4FC"/>
<path d="M202.063 108.705C204.548 108.705 206.57 110.29 206.57 112.239C206.57 114.188 204.549 115.773 202.063 115.773C199.577 115.773 197.555 114.188 197.555 112.239C197.555 110.29 199.577 108.705 202.063 108.705ZM202.063 115.004C204.006 115.004 205.588 113.764 205.588 112.239C205.588 110.715 204.006 109.475 202.063 109.475C200.119 109.475 198.537 110.715 198.537 112.239C198.537 113.764 200.119 115.004 202.063 115.004Z" fill="#54F4FC"/>
<path d="M335.821 112.243C335.821 110.056 338.082 108.284 340.871 108.284C343.661 108.284 345.922 110.056 345.922 112.243C345.922 114.43 343.661 116.203 340.871 116.203C338.082 116.203 335.821 114.43 335.821 112.243Z" fill="#54F4FC"/>
<path d="M340.872 107.897C343.928 107.897 346.414 109.846 346.414 112.241C346.414 114.637 343.928 116.586 340.872 116.586C337.817 116.586 335.331 114.637 335.331 112.241C335.331 109.846 337.817 107.897 340.872 107.897ZM340.872 115.816C343.387 115.816 345.432 114.212 345.432 112.241C345.432 110.271 343.387 108.667 340.872 108.667C338.359 108.667 336.313 110.271 336.313 112.241C336.313 114.212 338.359 115.816 340.872 115.816Z" fill="#54F4FC"/>
<path d="M355.136 96.8452C355.136 94.5162 357.544 92.628 360.515 92.628C363.486 92.628 365.895 94.5159 365.895 96.8452C365.895 99.1742 363.486 101.062 360.515 101.062C357.544 101.062 355.136 99.1746 355.136 96.8452Z" fill="#54F4FC"/>
<path d="M360.516 92.241C363.754 92.241 366.387 94.3052 366.387 96.8428C366.387 99.3804 363.754 101.445 360.516 101.445C357.28 101.445 354.647 99.3804 354.647 96.8428C354.647 94.3052 357.28 92.241 360.516 92.241ZM360.516 100.676C363.211 100.676 365.405 98.9558 365.405 96.8428C365.405 94.7297 363.211 93.0108 360.516 93.0108C357.821 93.0108 355.629 94.7297 355.629 96.8428C355.629 98.9558 357.821 100.676 360.516 100.676Z" fill="#54F4FC"/>
<path d="M360.513 32.2801C356.974 32.2801 354.105 34.5294 354.105 37.3041C354.105 40.0788 356.974 42.3281 360.513 42.3281C364.053 42.3281 366.922 40.0788 366.922 37.3041C366.922 34.5294 364.053 32.2801 360.513 32.2801Z" fill="#54F4FC"/>
<path d="M360.514 31.8924C364.319 31.8924 367.414 34.3187 367.414 37.3016C367.414 40.2846 364.319 42.7109 360.514 42.7109C356.71 42.7109 353.614 40.2845 353.614 37.3016C353.614 34.3187 356.71 31.8924 360.514 31.8924ZM360.514 41.9411C363.777 41.9412 366.432 39.8596 366.432 37.3016C366.432 34.7437 363.777 32.6622 360.514 32.6622C357.251 32.6622 354.597 34.7436 354.597 37.3016C354.597 39.86 357.251 41.9411 360.514 41.9411Z" fill="#54F4FC"/>
<path d="M373.469 21.9039C373.469 19.0076 376.464 16.6593 380.158 16.6593C383.853 16.6593 386.848 19.0072 386.848 21.9039C386.848 24.8006 383.853 27.1484 380.158 27.1484C376.464 27.1484 373.469 24.8002 373.469 21.9039Z" fill="#54F4FC"/>
<path d="M380.159 16.2716C384.118 16.2716 387.34 18.7973 387.34 21.9015C387.34 25.0056 384.118 27.5312 380.159 27.5312C376.199 27.5312 372.978 25.0056 372.978 21.9014C372.978 18.7973 376.2 16.2716 380.159 16.2716ZM380.159 26.7611C383.577 26.7611 386.358 24.5811 386.358 21.9015C386.358 19.2215 383.577 17.0418 380.159 17.0418C376.741 17.0418 373.961 19.2218 373.961 21.9014C373.961 24.5814 376.741 26.7611 380.159 26.7611Z" fill="#54F4FC"/>
<path d="M590.555 16.8528C586.997 16.8528 584.113 19.1138 584.113 21.903C584.113 24.6921 586.997 26.9531 590.555 26.9531C594.112 26.9531 596.996 24.6921 596.996 21.903C596.996 19.1138 594.112 16.8528 590.555 16.8528Z" fill="#54F4FC"/>
<path d="M590.556 16.4658C594.378 16.4658 597.488 18.9037 597.488 21.9009C597.488 24.898 594.378 27.3359 590.556 27.3359C586.733 27.3359 583.623 24.898 583.623 21.9009C583.623 18.9037 586.733 16.4658 590.556 16.4658ZM590.556 26.5658C593.837 26.5658 596.506 24.4731 596.506 21.9009C596.506 19.3287 593.837 17.236 590.556 17.236C587.275 17.236 584.605 19.3287 584.605 21.9009C584.605 24.4731 587.275 26.5658 590.556 26.5658Z" fill="#54F4FC"/>
<path d="M605.401 37.2977C605.401 35.2228 607.546 33.5408 610.193 33.5408C612.839 33.5408 614.984 35.2228 614.984 37.2977C614.984 39.3727 612.839 41.0547 610.193 41.0547C607.546 41.0547 605.401 39.3727 605.401 37.2977Z" fill="#54F4FC"/>
<path d="M610.194 33.1539C613.107 33.1539 615.477 35.0117 615.477 37.2957C615.477 39.5796 613.107 41.4375 610.194 41.4375C607.28 41.4375 604.91 39.5796 604.91 37.2957C604.91 35.0117 607.281 33.1539 610.194 33.1539ZM610.194 40.6669C612.565 40.6669 614.494 39.1539 614.494 37.2953C614.494 35.4366 612.565 33.9237 610.194 33.9237C607.822 33.9237 605.892 35.4366 605.892 37.2953C605.893 39.1543 607.822 40.6669 610.194 40.6669Z" fill="#54F4FC"/>
<path d="M605.518 69.4667C605.518 67.4418 607.612 65.8006 610.195 65.8007C612.777 65.8007 614.871 67.4422 614.871 69.4667C614.871 71.4916 612.778 73.1328 610.195 73.1328C607.612 73.1328 605.518 71.4912 605.518 69.4667Z" fill="#54F4FC"/>
<path d="M610.196 65.4137C613.045 65.4137 615.363 67.2311 615.363 69.4643C615.363 71.6982 613.045 73.5156 610.196 73.5156C607.346 73.5156 605.028 71.6982 605.028 69.4642C605.028 67.2311 607.347 65.4137 610.196 65.4137ZM610.196 72.7458C612.503 72.7458 614.381 71.2736 614.381 69.4643C614.381 67.6549 612.504 66.1835 610.196 66.1835C607.888 66.1835 606.01 67.6549 606.01 69.4642C606.01 71.2732 607.888 72.7458 610.196 72.7458Z" fill="#54F4FC"/>
<path d="M625.289 84.8652C625.289 82.8965 627.325 81.3007 629.836 81.3007C632.347 81.3007 634.383 82.8965 634.383 84.8652C634.383 86.8339 632.347 88.4297 629.836 88.4297C627.325 88.4297 625.289 86.8339 625.289 84.8652Z" fill="#54F4FC"/>
<path d="M629.837 80.9138C632.615 80.9138 634.875 82.6854 634.875 84.8628C634.875 87.0412 632.615 88.8125 629.837 88.8125C627.059 88.8125 624.799 87.0409 624.799 84.8627C624.799 82.6854 627.059 80.9138 629.837 80.9138ZM629.837 88.0427C632.073 88.0427 633.893 86.6163 633.893 84.8628C633.893 83.11 632.073 81.6835 629.837 81.6835C627.6 81.6835 625.781 83.11 625.781 84.8628C625.781 86.6163 627.601 88.0427 629.837 88.0427Z" fill="#54F4FC"/>
<path d="M677.853 410.656C677.853 408.576 680.004 406.889 682.657 406.889C685.31 406.889 687.461 408.575 687.461 410.656C687.461 412.736 685.31 414.422 682.657 414.422C680.004 414.422 677.853 412.736 677.853 410.656Z" fill="#54F4FC"/>
<path d="M682.658 406.502C685.578 406.502 687.953 408.364 687.953 410.653C687.953 412.943 685.578 414.805 682.658 414.805C679.738 414.805 677.363 412.943 677.363 410.653C677.363 408.364 679.739 406.502 682.658 406.502ZM682.658 414.035C685.036 414.035 686.971 412.518 686.971 410.654C686.971 408.789 685.036 407.272 682.658 407.272C680.28 407.272 678.345 408.789 678.345 410.654C678.345 412.518 680.28 414.035 682.658 414.035Z" fill="#54F4FC"/>
<path d="M657.659 395.259C657.659 392.942 660.054 391.064 663.009 391.064C665.964 391.064 668.359 392.942 668.359 395.259C668.359 397.575 665.964 399.453 663.009 399.453C660.054 399.453 657.659 397.575 657.659 395.259Z" fill="#54F4FC"/>
<path d="M663.01 390.677C666.232 390.677 668.852 392.731 668.852 395.256C668.852 397.781 666.231 399.836 663.01 399.836C659.789 399.836 657.169 397.782 657.169 395.256C657.169 392.732 659.79 390.677 663.01 390.677ZM663.01 399.066C665.69 399.066 667.869 397.357 667.869 395.256C667.869 393.156 665.69 391.447 663.01 391.447C660.331 391.447 658.151 393.156 658.151 395.256C658.152 397.357 660.331 399.066 663.01 399.066Z" fill="#54F4FC"/>
<path d="M659.324 302.859C659.324 301.263 660.975 299.968 663.012 299.968C665.048 299.968 666.699 301.263 666.699 302.859C666.699 304.456 665.048 305.75 663.012 305.75C660.975 305.75 659.324 304.456 659.324 302.859Z" fill="#54F4FC"/>
<path d="M663.013 299.581C665.316 299.581 667.191 301.05 667.191 302.857C667.191 304.663 665.317 306.133 663.013 306.133C660.709 306.133 658.835 304.663 658.835 302.857C658.835 301.05 660.709 299.581 663.013 299.581ZM663.013 305.363C664.775 305.363 666.209 304.239 666.209 302.857C666.209 301.476 664.775 300.351 663.013 300.351C661.25 300.351 659.817 301.476 659.817 302.857C659.817 304.239 661.25 305.363 663.013 305.363Z" fill="#54F4FC"/>
<path d="M678.753 287.462C678.753 285.772 680.502 284.401 682.658 284.401C684.814 284.401 686.563 285.772 686.563 287.462C686.563 289.153 684.814 290.523 682.658 290.523C680.502 290.523 678.753 289.153 678.753 287.462Z" fill="#54F4FC"/>
<path d="M682.659 284.014C685.083 284.014 687.055 285.56 687.055 287.46C687.055 289.36 685.083 290.906 682.659 290.906C680.235 290.906 678.263 289.36 678.263 287.46C678.263 285.56 680.235 284.014 682.659 284.014ZM682.659 290.136C684.541 290.136 686.073 288.936 686.073 287.46C686.073 285.985 684.541 284.784 682.659 284.784C680.776 284.784 679.245 285.985 679.245 287.46C679.245 288.936 680.776 290.136 682.659 290.136Z" fill="#54F4FC"/>
<path d="M534.866 229.971C534.866 227.405 537.52 225.325 540.793 225.325C544.066 225.325 546.719 227.405 546.719 229.971C546.719 232.537 544.065 234.617 540.793 234.617C537.52 234.617 534.866 232.537 534.866 229.971Z" fill="#54F4FC"/>
<path d="M540.794 224.938C544.332 224.938 547.211 227.195 547.211 229.969C547.211 232.743 544.332 235 540.794 235C537.255 235 534.377 232.743 534.377 229.969C534.376 227.195 537.255 224.938 540.794 224.938ZM540.794 234.23C543.791 234.23 546.229 232.318 546.229 229.969C546.229 227.62 543.791 225.708 540.794 225.708C537.797 225.708 535.359 227.62 535.359 229.969C535.358 232.318 537.797 234.23 540.794 234.23Z" fill="#54F4FC"/>
<path d="M516.964 214.572C516.964 212.76 518.838 211.291 521.148 211.291C523.459 211.291 525.332 212.76 525.332 214.572C525.332 216.383 523.459 217.852 521.148 217.852C518.837 217.852 516.964 216.383 516.964 214.572Z" fill="#54F4FC"/>
<path d="M521.149 210.904C523.727 210.904 525.824 212.548 525.824 214.569C525.824 216.59 523.727 218.234 521.149 218.234C518.572 218.234 516.474 216.59 516.474 214.569C516.474 212.548 518.571 210.904 521.149 210.904ZM521.149 217.465C523.185 217.465 524.842 216.165 524.842 214.569C524.842 212.973 523.185 211.674 521.149 211.674C519.113 211.674 517.456 212.973 517.456 214.569C517.456 216.165 519.113 217.465 521.149 217.465Z" fill="#54F4FC"/>
<path d="M53.2096 60.2316C53.2096 57.2056 56.3387 54.7527 60.1986 54.7527C64.0584 54.7527 67.1875 57.2056 67.1875 60.2316C67.1875 63.2577 64.0584 65.7109 60.1986 65.7109C56.3387 65.7109 53.2096 63.2576 53.2096 60.2316Z" fill="#54F4FC"/>
<path d="M60.1963 54.3661C64.3208 54.3661 67.6758 56.9965 67.6758 60.2296C67.6758 63.4626 64.3208 66.0937 60.1963 66.0937C56.0723 66.0937 52.7163 63.4626 52.7163 60.2295C52.7163 56.9965 56.0723 54.3661 60.1963 54.3661ZM60.1963 65.3243C63.7787 65.3243 66.6936 63.0393 66.6936 60.2299C66.6936 57.4214 63.7787 55.1363 60.1963 55.1363C56.613 55.1363 53.6984 57.4214 53.6984 60.2299C53.6984 63.0389 56.6135 65.3243 60.1963 65.3243Z" fill="#54F4FC"/>
<path d="M287.676 60.2327C287.676 57.6128 290.385 55.489 293.727 55.489C297.069 55.489 299.777 57.6128 299.777 60.2327C299.777 62.8527 297.069 64.9766 293.727 64.9766C290.385 64.9766 287.676 62.8527 287.676 60.2327Z" fill="#54F4FC"/>
<path d="M293.727 55.102C297.335 55.102 300.27 57.4021 300.27 60.2303C300.27 63.0585 297.334 65.3594 293.727 65.3594C290.12 65.3594 287.186 63.0585 287.186 60.2303C287.186 57.4021 290.12 55.102 293.727 55.102ZM293.727 64.5892C296.793 64.5892 299.287 62.6336 299.287 60.2303C299.287 57.827 296.793 55.8722 293.727 55.8722C290.662 55.8722 288.168 57.827 288.168 60.2303C288.168 62.6335 290.662 64.5892 293.727 64.5892Z" fill="#54F4FC"/>
<path d="M308.768 44.8276C308.768 42.8338 310.83 41.2177 313.372 41.2177C315.915 41.2177 317.977 42.8339 317.977 44.8276C317.977 46.8213 315.915 48.4375 313.372 48.4375C310.83 48.4375 308.768 46.8213 308.768 44.8276Z" fill="#54F4FC"/>
<path d="M313.373 40.8307C316.183 40.8307 318.469 42.6228 318.469 44.8251C318.469 47.0283 316.183 48.8203 313.373 48.8203C310.563 48.8203 308.278 47.0286 308.278 44.8251C308.278 42.6228 310.563 40.8307 313.373 40.8307ZM313.373 48.0501C315.641 48.0502 317.487 46.6033 317.487 44.8251C317.487 43.0477 315.641 41.6009 313.373 41.6009C311.105 41.6009 309.26 43.0477 309.26 44.8251C309.26 46.6037 311.105 48.0501 313.373 48.0501Z" fill="#54F4FC"/>
<path d="M88.5576 566.709C88.5576 564.624 90.7134 562.934 93.3726 562.934C96.0317 562.934 98.1875 564.624 98.1875 566.709C98.1875 568.794 96.0317 570.484 93.3726 570.484C90.7134 570.484 88.5576 568.794 88.5576 566.709Z" fill="#54F4FC"/>
<path d="M93.3727 562.547C96.299 562.547 98.6797 564.414 98.6797 566.708C98.6797 569.001 96.299 570.867 93.3727 570.867C90.4474 570.867 88.0666 569.001 88.0666 566.708C88.0666 564.414 90.4474 562.547 93.3727 562.547ZM93.3727 570.097C95.7568 570.097 97.6975 568.576 97.6975 566.707C97.6975 564.838 95.7573 563.317 93.3727 563.317C90.9885 563.317 89.0488 564.838 89.0488 566.707C89.0488 568.576 90.9885 570.097 93.3727 570.097Z" fill="#54F4FC"/>
<path d="M288.23 566.711C288.23 564.329 290.692 562.399 293.73 562.399C296.768 562.399 299.23 564.329 299.23 566.711C299.23 569.093 296.768 571.023 293.73 571.023C290.692 571.023 288.23 569.093 288.23 566.711Z" fill="#54F4FC"/>
<path d="M293.727 562.012C297.031 562.012 299.719 564.119 299.719 566.709C299.719 569.299 297.031 571.406 293.727 571.406C290.424 571.406 287.736 569.299 287.736 566.709C287.736 564.119 290.424 562.012 293.727 562.012ZM293.727 570.636C296.489 570.636 298.737 568.875 298.737 566.709C298.737 564.543 296.489 562.782 293.727 562.782C290.965 562.782 288.718 564.543 288.718 566.709C288.718 568.875 290.965 570.636 293.727 570.636Z" fill="#54F4FC"/>
<path d="M313.376 578.55C310.867 578.55 308.833 580.144 308.833 582.111C308.833 584.078 310.867 585.672 313.376 585.672C315.884 585.672 317.918 584.078 317.918 582.111C317.918 580.144 315.884 578.55 313.376 578.55Z" fill="#54F4FC"/>
<path d="M313.373 578.162C316.148 578.162 318.406 579.933 318.406 582.109C318.406 584.285 316.148 586.055 313.373 586.055C310.598 586.055 308.34 584.285 308.34 582.109C308.34 579.933 310.598 578.162 313.373 578.162ZM313.373 585.285C315.607 585.285 317.424 583.86 317.424 582.109C317.424 580.358 315.607 578.933 313.373 578.933C311.139 578.933 309.322 580.358 309.322 582.109C309.322 583.86 311.139 585.285 313.373 585.285Z" fill="#54F4FC"/>
<path d="M131.645 452.105C131.645 449.777 134.052 447.89 137.022 447.89C139.991 447.89 142.398 449.777 142.398 452.105C142.398 454.433 139.991 456.32 137.022 456.32C134.052 456.32 131.645 454.433 131.645 452.105Z" fill="#54F4FC"/>
<path d="M137.023 447.503C140.258 447.503 142.891 449.567 142.891 452.103C142.891 454.64 140.258 456.703 137.023 456.703C133.788 456.703 131.156 454.639 131.156 452.103C131.156 449.567 133.788 447.503 137.023 447.503ZM137.023 455.933C139.717 455.933 141.908 454.215 141.908 452.103C141.908 449.991 139.717 448.273 137.023 448.273C134.33 448.273 132.138 449.991 132.138 452.103C132.138 454.215 134.329 455.933 137.023 455.933Z" fill="#54F4FC"/>
<path d="M286.749 447.132C283.243 447.132 280.401 449.36 280.401 452.109C280.401 454.858 283.243 457.086 286.749 457.086C290.255 457.086 293.098 454.858 293.098 452.109C293.098 449.36 290.255 447.132 286.749 447.132Z" fill="#54F4FC"/>
<path d="M286.746 446.745C290.518 446.745 293.586 449.15 293.586 452.107C293.586 455.064 290.518 457.469 286.746 457.469C282.975 457.469 279.907 455.063 279.907 452.107C279.907 449.15 282.975 446.745 286.746 446.745ZM286.746 456.699C289.976 456.699 292.604 454.639 292.604 452.107C292.604 449.575 289.976 447.515 286.746 447.515C283.517 447.515 280.889 449.575 280.889 452.107C280.889 454.639 283.517 456.699 286.746 456.699Z" fill="#54F4FC"/>
<path d="M306.386 464.169C304.033 464.169 302.124 465.665 302.124 467.51C302.124 469.356 304.033 470.852 306.386 470.852C308.74 470.852 310.648 469.356 310.648 467.51C310.648 465.665 308.74 464.169 306.386 464.169Z" fill="#54F4FC"/>
<path d="M306.388 463.782C309.008 463.782 311.141 465.454 311.141 467.508C311.141 469.563 309.008 471.234 306.388 471.234C303.767 471.234 301.634 469.563 301.634 467.508C301.635 465.454 303.767 463.782 306.388 463.782ZM306.388 470.465C308.467 470.465 310.158 469.139 310.158 467.508C310.158 465.878 308.467 464.552 306.388 464.552C304.308 464.552 302.617 465.878 302.617 467.508C302.617 469.138 304.308 470.465 306.388 470.465Z" fill="#54F4FC"/>
<path d="M306.387 521.328C303.591 521.328 301.324 523.105 301.324 525.297C301.324 527.489 303.591 529.266 306.387 529.266C309.183 529.266 311.449 527.489 311.449 525.297C311.449 523.105 309.183 521.328 306.387 521.328Z" fill="#54F4FC"/>
<path d="M306.388 520.941C309.45 520.941 311.941 522.894 311.941 525.295C311.941 527.695 309.45 529.648 306.388 529.648C303.326 529.648 300.835 527.695 300.835 525.295C300.835 522.894 303.326 520.941 306.388 520.941ZM306.388 528.879C308.909 528.879 310.959 527.271 310.959 525.295C310.959 523.319 308.909 521.711 306.388 521.711C303.867 521.711 301.817 523.319 301.817 525.295C301.817 527.271 303.868 528.879 306.388 528.879Z" fill="#54F4FC"/>
<path d="M326.033 536.871C323.335 536.871 321.148 538.586 321.148 540.701C321.148 542.816 323.335 544.531 326.033 544.531C328.731 544.531 330.918 542.816 330.918 540.701C330.918 538.586 328.731 536.871 326.033 536.871Z" fill="#54F4FC"/>
<path d="M326.03 536.485C328.995 536.485 331.406 538.375 331.406 540.7C331.406 543.023 328.995 544.914 326.03 544.914C323.065 544.914 320.654 543.023 320.654 540.699C320.654 538.375 323.065 536.485 326.03 536.485ZM326.03 544.144C328.453 544.144 330.424 542.599 330.424 540.7C330.424 538.8 328.452 537.254 326.03 537.254C323.608 537.254 321.636 538.8 321.636 540.699C321.636 542.599 323.608 544.144 326.03 544.144Z" fill="#54F4FC"/>
<path d="M408.97 537.097C406.431 537.097 404.374 538.711 404.374 540.701C404.374 542.691 406.431 544.305 408.97 544.305C411.509 544.305 413.566 542.691 413.566 540.701C413.566 538.711 411.509 537.097 408.97 537.097Z" fill="#54F4FC"/>
<path d="M408.967 536.71C411.773 536.71 414.055 538.5 414.055 540.699C414.055 542.898 411.772 544.687 408.967 544.687C406.162 544.687 403.88 542.898 403.88 540.699C403.88 538.5 406.162 536.71 408.967 536.71ZM408.967 543.918C411.231 543.918 413.073 542.474 413.073 540.699C413.073 538.924 411.231 537.48 408.967 537.48C406.703 537.48 404.862 538.924 404.862 540.699C404.862 542.474 406.703 543.918 408.967 543.918Z" fill="#54F4FC"/>
<path d="M421.269 556.094C421.269 553.16 424.303 550.782 428.045 550.782C431.786 550.782 434.82 553.16 434.82 556.094C434.82 559.028 431.787 561.406 428.045 561.406C424.303 561.406 421.269 559.028 421.269 556.094Z" fill="#54F4FC"/>
<path d="M428.042 550.395C432.048 550.395 435.309 552.95 435.309 556.092C435.309 559.233 432.048 561.789 428.042 561.789C424.035 561.789 420.775 559.233 420.775 556.092C420.775 552.951 424.035 550.395 428.042 550.395ZM428.042 561.019C431.507 561.019 434.326 558.808 434.326 556.092C434.326 553.375 431.507 551.165 428.042 551.165C424.576 551.165 421.757 553.375 421.757 556.092C421.757 558.808 424.576 561.019 428.042 561.019Z" fill="#54F4FC"/>
<path d="M39.2462 401.975C36.5021 401.975 34.2775 403.719 34.2775 405.87C34.2775 408.022 36.5021 409.766 39.2462 409.766C41.9903 409.766 44.2148 408.022 44.2148 405.87C44.2148 403.719 41.9903 401.975 39.2462 401.975Z" fill="#54F4FC"/>
<path d="M39.2468 401.588C42.2576 401.588 44.707 403.508 44.707 405.868C44.707 408.228 42.2576 410.148 39.2468 410.148C36.2361 410.148 33.7875 408.228 33.7875 405.868C33.7871 403.507 36.2361 401.588 39.2468 401.588ZM39.2468 409.378C41.7154 409.378 43.7249 407.803 43.7249 405.868C43.7249 403.932 41.7154 402.357 39.2468 402.357C36.7782 402.357 34.7697 403.932 34.7697 405.868C34.7692 407.803 36.7777 409.378 39.2468 409.378Z" fill="#54F4FC"/>
<path d="M205.145 405.866C205.145 403.798 207.283 402.122 209.92 402.122C212.557 402.122 214.695 403.798 214.695 405.866C214.695 407.933 212.558 409.609 209.92 409.609C207.283 409.609 205.145 407.933 205.145 405.866Z" fill="#54F4FC"/>
<path d="M209.921 401.735C212.825 401.735 215.188 403.588 215.188 405.864C215.188 408.14 212.825 409.992 209.921 409.992C207.018 409.992 204.655 408.14 204.655 405.864C204.655 403.588 207.018 401.735 209.921 401.735ZM209.921 409.223C212.284 409.223 214.205 407.716 214.205 405.864C214.205 404.012 212.284 402.506 209.921 402.506C207.559 402.506 205.637 404.012 205.637 405.864C205.637 407.716 207.559 409.223 209.921 409.223Z" fill="#54F4FC"/>
<path d="M229.562 417.165C226.673 417.165 224.331 419.001 224.331 421.266C224.331 423.531 226.673 425.367 229.562 425.367C232.451 425.367 234.793 423.531 234.793 421.266C234.793 419.001 232.451 417.165 229.562 417.165Z" fill="#54F4FC"/>
<path d="M229.563 416.778C232.718 416.778 235.285 418.791 235.285 421.264C235.285 423.737 232.718 425.75 229.563 425.75C226.409 425.75 223.841 423.737 223.841 421.264C223.841 418.791 226.408 416.778 229.563 416.778ZM229.563 424.98C232.177 424.98 234.303 423.313 234.303 421.264C234.303 419.215 232.177 417.548 229.563 417.548C226.95 417.548 224.823 419.215 224.823 421.264C224.823 423.313 226.95 424.98 229.563 424.98Z" fill="#54F4FC"/>
<path d="M32.298 287.457C32.298 284.447 35.4099 282.008 39.2486 282.008C43.0873 282.008 46.1992 284.448 46.1992 287.457C46.1992 290.466 43.0873 292.906 39.2486 292.906C35.4094 292.906 32.298 290.466 32.298 287.457Z" fill="#54F4FC"/>
<path d="M39.2458 281.621C43.3487 281.621 46.6875 284.238 46.6875 287.455C46.6875 290.672 43.3487 293.289 39.2458 293.289C35.1424 293.289 31.8051 290.671 31.8051 287.455C31.8046 284.238 35.1424 281.621 39.2458 281.621ZM39.2458 292.519C42.808 292.519 45.7054 290.248 45.7054 287.455C45.7054 284.662 42.808 282.39 39.2458 282.39C35.6845 282.39 32.7872 284.662 32.7872 287.455C32.7872 290.248 35.6845 292.519 39.2458 292.519Z" fill="#54F4FC"/>
<path d="M123.824 287.458C123.824 285.286 126.07 283.526 128.84 283.526C131.61 283.526 133.855 285.286 133.855 287.458C133.855 289.63 131.61 291.391 128.84 291.391C126.07 291.391 123.824 289.63 123.824 287.458Z" fill="#54F4FC"/>
<path d="M128.84 283.138C131.877 283.138 134.348 285.075 134.348 287.456C134.348 289.836 131.877 291.773 128.84 291.773C125.803 291.773 123.333 289.836 123.333 287.456C123.333 285.075 125.803 283.138 128.84 283.138ZM128.84 291.003C131.336 291.003 133.366 289.412 133.366 287.456C133.366 285.499 131.336 283.908 128.84 283.908C126.345 283.908 124.315 285.499 124.315 287.456C124.315 289.412 126.345 291.003 128.84 291.003Z" fill="#54F4FC"/>
<path d="M148.484 267.12C145.004 267.12 142.182 269.332 142.182 272.06C142.182 274.788 145.004 277 148.484 277C151.964 277 154.785 274.788 154.785 272.06C154.785 269.332 151.964 267.12 148.484 267.12Z" fill="#54F4FC"/>
<path d="M148.481 266.732C152.226 266.732 155.273 269.121 155.273 272.057C155.273 274.994 152.226 277.383 148.481 277.383C144.736 277.383 141.688 274.994 141.688 272.057C141.688 269.121 144.736 266.732 148.481 266.732ZM148.481 276.612C151.685 276.612 154.291 274.568 154.291 272.057C154.291 269.546 151.685 267.502 148.481 267.502C145.278 267.502 142.671 269.546 142.671 272.057C142.671 274.568 145.277 276.612 148.481 276.612Z" fill="#54F4FC"/>
<path d="M0.492084 343.581C0.492084 341.922 2.20793 340.577 4.32396 340.577C6.44047 340.577 8.15625 341.922 8.15625 343.581C8.15625 345.241 6.44047 346.586 4.32396 346.586C2.20793 346.586 0.492084 345.241 0.492084 343.581Z" fill="#54F4FC"/>
<path d="M4.32556 340.19C6.70872 340.19 8.64844 341.711 8.64844 343.58C8.64844 345.448 6.70921 346.969 4.32555 346.969C1.94092 346.969 0.00165191 345.448 0.00165225 343.58C0.00165259 341.711 1.94141 340.19 4.32556 340.19ZM4.32555 346.199C6.16805 346.199 7.6663 345.024 7.6663 343.58C7.6663 342.135 6.16805 340.961 4.32556 340.961C2.48306 340.961 0.983794 342.136 0.983793 343.58C0.983793 345.024 2.48306 346.199 4.32555 346.199Z" fill="#54F4FC"/>
<path d="M82.4592 340.053C79.9709 340.053 77.9537 341.634 77.9537 343.585C77.9537 345.536 79.9709 347.117 82.4592 347.117C84.9476 347.117 86.9648 345.536 86.9648 343.585C86.9648 341.634 84.9476 340.053 82.4592 340.053Z" fill="#54F4FC"/>
<path d="M82.4599 339.666C85.2153 339.666 87.457 341.423 87.457 343.583C87.457 345.743 85.2153 347.5 82.4599 347.5C79.7055 347.5 77.4638 345.743 77.4638 343.583C77.4638 341.423 79.705 339.666 82.4599 339.666ZM82.4599 346.73C84.6736 346.73 86.4749 345.318 86.4749 343.583C86.4749 341.847 84.6736 340.436 82.4599 340.436C80.2461 340.436 78.4459 341.847 78.4459 343.583C78.4459 345.318 80.2461 346.73 82.4599 346.73Z" fill="#54F4FC"/>
<path d="M96.2716 328.186C96.2716 325.662 98.8822 323.615 102.103 323.615C105.323 323.615 107.934 325.662 107.934 328.186C107.934 330.711 105.323 332.758 102.103 332.758C98.8822 332.758 96.2716 330.711 96.2716 328.186Z" fill="#54F4FC"/>
<path d="M102.103 323.228C105.59 323.228 108.426 325.452 108.426 328.184C108.426 330.917 105.59 333.141 102.103 333.141C98.6176 333.141 95.7817 330.917 95.7817 328.184C95.7812 325.452 98.6176 323.228 102.103 323.228ZM102.103 332.371C105.048 332.371 107.444 330.493 107.444 328.184C107.444 325.876 105.048 323.998 102.103 323.998C99.1588 323.998 96.7638 325.876 96.7638 328.184C96.7633 330.493 99.1583 332.371 102.103 332.371Z" fill="#54F4FC"/>
<path d="M95.8005 241.263C95.8005 238.535 98.6217 236.323 102.101 236.323C105.582 236.323 108.402 238.535 108.402 241.263C108.402 243.992 105.581 246.203 102.101 246.203C98.6217 246.203 95.8005 243.991 95.8005 241.263Z" fill="#54F4FC"/>
<path d="M102.102 235.935C105.847 235.935 108.895 238.324 108.895 241.261C108.895 244.197 105.847 246.586 102.102 246.586C98.3576 246.586 95.3105 244.197 95.3105 241.261C95.3101 238.324 98.3576 235.935 102.102 235.935ZM102.102 245.815C105.305 245.815 107.912 243.772 107.912 241.26C107.912 238.749 105.305 236.705 102.102 236.705C98.8983 236.705 96.2927 238.749 96.2927 241.26C96.2922 243.772 98.8983 245.815 102.102 245.815Z" fill="#54F4FC"/>
<path d="M121.748 221.448C118.642 221.448 116.125 223.422 116.125 225.857C116.125 228.292 118.642 230.266 121.748 230.266C124.853 230.266 127.371 228.292 127.371 225.857C127.371 223.422 124.853 221.448 121.748 221.448Z" fill="#54F4FC"/>
<path d="M121.745 221.062C125.116 221.062 127.859 223.212 127.859 225.855C127.859 228.498 125.116 230.648 121.745 230.648C118.374 230.648 115.631 228.498 115.631 225.855C115.63 223.212 118.373 221.062 121.745 221.062ZM121.745 229.879C124.576 229.879 126.877 228.074 126.877 225.855C126.877 223.636 124.576 221.832 121.745 221.832C118.915 221.832 116.613 223.636 116.613 225.855C116.612 228.074 118.915 229.879 121.745 229.879Z" fill="#54F4FC"/>
<path d="M175.001 222.961C172.956 222.961 171.299 224.26 171.299 225.863C171.299 227.466 172.956 228.766 175.001 228.766C177.046 228.766 178.703 227.466 178.703 225.863C178.703 224.26 177.046 222.961 175.001 222.961Z" fill="#54F4FC"/>
<path d="M174.998 222.574C177.31 222.574 179.191 224.048 179.191 225.861C179.191 227.674 177.31 229.148 174.998 229.148C172.686 229.148 170.805 227.674 170.805 225.861C170.805 224.048 172.686 222.574 174.998 222.574ZM174.998 228.379C176.769 228.379 178.209 227.249 178.209 225.861C178.209 224.473 176.769 223.344 174.998 223.344C173.228 223.344 171.787 224.473 171.787 225.861C171.787 227.249 173.227 228.379 174.998 228.379Z" fill="#54F4FC"/>
<path d="M189.86 210.458C189.86 208.386 192.003 206.706 194.647 206.706C197.291 206.706 199.434 208.386 199.434 210.458C199.434 212.531 197.291 214.211 194.647 214.211C192.003 214.211 189.86 212.53 189.86 210.458Z" fill="#54F4FC"/>
<path d="M194.644 206.318C197.554 206.318 199.922 208.174 199.922 210.456C199.922 212.737 197.554 214.594 194.644 214.594C191.733 214.594 189.366 212.737 189.366 210.456C189.366 208.174 191.733 206.318 194.644 206.318ZM194.644 213.824C197.012 213.824 198.94 212.313 198.94 210.456C198.94 208.599 197.012 207.088 194.644 207.088C192.275 207.088 190.348 208.599 190.348 210.456C190.348 212.313 192.275 213.824 194.644 213.824Z" fill="#54F4FC"/>
<path d="M189.53 160.497C189.53 158.282 191.82 156.487 194.646 156.487C197.471 156.487 199.762 158.282 199.762 160.497C199.762 162.712 197.471 164.508 194.646 164.508C191.82 164.508 189.53 162.712 189.53 160.497Z" fill="#54F4FC"/>
<path d="M194.643 156.099C197.735 156.099 200.25 158.071 200.25 160.495C200.25 162.918 197.735 164.891 194.643 164.891C191.551 164.891 189.036 162.918 189.036 160.495C189.036 158.071 191.551 156.099 194.643 156.099ZM194.643 164.12C197.193 164.12 199.268 162.494 199.268 160.495C199.268 158.496 197.193 156.869 194.643 156.869C192.093 156.869 190.018 158.496 190.018 160.495C190.018 162.494 192.092 164.12 194.643 164.12Z" fill="#54F4FC"/>
<path d="M175.001 141.844C172.706 141.844 170.845 143.302 170.845 145.102C170.845 146.901 172.706 148.359 175.001 148.359C177.296 148.359 179.156 146.901 179.156 145.102C179.156 143.302 177.296 141.844 175.001 141.844Z" fill="#54F4FC"/>
<path d="M174.998 141.457C177.56 141.457 179.645 143.09 179.645 145.1C179.645 147.108 177.56 148.742 174.998 148.742C172.436 148.742 170.352 147.108 170.352 145.1C170.352 143.09 172.436 141.457 174.998 141.457ZM174.998 147.972C177.018 147.972 178.662 146.683 178.662 145.1C178.662 143.515 177.018 142.226 174.998 142.226C172.978 142.226 171.334 143.515 171.334 145.1C171.334 146.683 172.978 147.972 174.998 147.972Z" fill="#54F4FC"/>
<path d="M128.731 141.736C126.362 141.736 124.442 143.242 124.442 145.099C124.442 146.956 126.362 148.461 128.731 148.461C131.099 148.461 133.02 146.956 133.02 145.099C133.02 143.242 131.099 141.736 128.731 141.736Z" fill="#54F4FC"/>
<path d="M128.728 141.348C131.363 141.348 133.508 143.03 133.508 145.096C133.508 147.163 131.363 148.844 128.728 148.844C126.092 148.844 123.948 147.163 123.948 145.096C123.948 143.03 126.092 141.348 128.728 141.348ZM128.728 148.074C130.823 148.074 132.526 146.738 132.526 145.096C132.526 143.454 130.822 142.119 128.728 142.119C126.633 142.119 124.93 143.454 124.93 145.096C124.93 146.738 126.633 148.074 128.728 148.074Z" fill="#54F4FC"/>
<path d="M102.814 129.697C102.814 126.979 105.624 124.776 109.091 124.776C112.557 124.776 115.367 126.979 115.367 129.697C115.367 132.414 112.557 134.617 109.091 134.617C105.624 134.617 102.814 132.414 102.814 129.697Z" fill="#54F4FC"/>
<path d="M109.088 124.389C112.82 124.389 115.855 126.768 115.855 129.694C115.855 132.62 112.82 135 109.088 135C105.357 135 102.322 132.62 102.322 129.694C102.322 126.769 105.357 124.389 109.088 124.389ZM109.088 134.23C112.278 134.23 114.873 132.195 114.873 129.694C114.873 127.193 112.278 125.159 109.088 125.159C105.898 125.159 103.304 127.194 103.304 129.694C103.304 132.195 105.898 134.23 109.088 134.23Z" fill="#54F4FC"/>
</g>
</g>
<defs>
<clipPath id="clip0_203_26246">
<rect width="735.91" height="654.316" fill="white"/>
</clipPath>
</defs>
</svg>
