<svg width="30" height="30" viewBox="0 0 30 30" fill="none" xmlns="http://www.w3.org/2000/svg">
<path d="M2.11532 21.9362C1.61519 22.4362 1.33414 23.1144 1.33398 23.8216V26.7176C1.33398 27.0712 1.47446 27.4103 1.72451 27.6604C1.97456 27.9104 2.3137 28.0509 2.66732 28.0509H6.66732C7.02094 28.0509 7.36008 27.9104 7.61013 27.6604C7.86017 27.4103 8.00065 27.0712 8.00065 26.7176V25.3842C8.00065 25.0306 8.14113 24.6915 8.39118 24.4414C8.64122 24.1914 8.98036 24.0509 9.33398 24.0509H10.6673C11.0209 24.0509 11.3601 23.9104 11.6101 23.6604C11.8602 23.4103 12.0007 23.0712 12.0007 22.7176V21.3842C12.0007 21.0306 12.1411 20.6915 12.3912 20.4414C12.6412 20.1914 12.9804 20.0509 13.334 20.0509H13.5633C14.2705 20.0508 14.9487 19.7697 15.4487 19.2696L16.534 18.1842C18.3871 18.8298 20.4044 18.8273 22.256 18.1772C24.1075 17.5272 25.6836 16.268 26.7265 14.6057C27.7693 12.9435 28.2172 10.9765 27.9968 9.02656C27.7764 7.07665 26.9008 5.25925 25.5132 3.87167C24.1256 2.4841 22.3082 1.60849 20.3583 1.3881C18.4084 1.16771 16.4414 1.61557 14.7791 2.65843C13.1169 3.7013 11.8577 5.27741 11.2076 7.12894C10.5576 8.98047 10.5551 10.9978 11.2006 12.8509L2.11532 21.9362Z" stroke="#1E293B" stroke-width="2.66667" stroke-linecap="round" stroke-linejoin="round"/>
</svg>
