<svg width="24" height="30" viewBox="0 0 24 30" fill="none" xmlns="http://www.w3.org/2000/svg">
<path d="M22.6673 16.0005C22.6673 22.6672 18.0007 26.0005 12.454 27.9339C12.1635 28.0323 11.848 28.0276 11.5607 27.9205C6.00065 26.0005 1.33398 22.6672 1.33398 16.0005V6.66718C1.33398 6.31356 1.47446 5.97442 1.72451 5.72438C1.97456 5.47433 2.3137 5.33385 2.66732 5.33385C5.33398 5.33385 8.66732 3.73385 10.9873 1.70718C11.2698 1.46585 11.6291 1.33325 12.0007 1.33325C12.3722 1.33325 12.7315 1.46585 13.014 1.70718C15.3473 3.74718 18.6673 5.33385 21.334 5.33385C21.6876 5.33385 22.0267 5.47433 22.2768 5.72438C22.5268 5.97442 22.6673 6.31356 22.6673 6.66718V16.0005Z" stroke="#E12204" stroke-width="2.66667" stroke-linecap="round" stroke-linejoin="round"/>
</svg>
