<svg width="118" height="165" viewBox="0 0 118 165" fill="none" xmlns="http://www.w3.org/2000/svg">
<path d="M115.047 82.7606C115.047 110.417 110.413 130.677 101.149 143.544C91.8829 156.409 77.6969 162.841 58.5971 162.841C39.9214 162.841 25.8443 156.125 16.3647 142.687C6.8837 129.253 2.14453 109.275 2.14453 82.7593C2.14453 54.9609 6.77735 34.5772 16.043 21.6029C25.3074 8.63126 39.4934 2.14478 58.5958 2.14478C77.1994 2.14478 91.258 8.89908 100.773 22.4051C110.291 35.915 115.047 56.0322 115.047 82.7606ZM44.163 82.7606C44.163 100.439 45.2671 112.591 47.4778 119.219C49.6859 125.848 53.3932 129.162 58.5971 129.162C63.8706 129.162 67.5937 125.741 69.769 118.898C71.943 112.055 73.0299 100.011 73.0299 82.7593C73.0299 65.4396 71.9246 53.3029 69.7165 46.3543C67.5057 39.4044 63.7984 35.9307 58.5971 35.9307C53.3932 35.9307 49.6859 39.2823 47.4778 45.9801C45.2671 52.6819 44.163 64.9421 44.163 82.7606Z" stroke="#1E293B" stroke-width="4.28954" stroke-miterlimit="10"/>
</svg>
