<svg width="30" height="27" viewBox="0 0 30 27" fill="none" xmlns="http://www.w3.org/2000/svg">
<path d="M27.6627 21.3518L16.996 2.68511C16.7634 2.27472 16.4262 1.93336 16.0186 1.69587C15.611 1.45838 15.1477 1.33325 14.676 1.33325C14.2043 1.33325 13.741 1.45838 13.3335 1.69587C12.9259 1.93336 12.5886 2.27472 12.356 2.68511L1.68936 21.3518C1.45427 21.7589 1.331 22.221 1.33204 22.6911C1.33308 23.1613 1.4584 23.6228 1.69529 24.0289C1.93218 24.435 2.27222 24.7712 2.68095 25.0036C3.08968 25.2359 3.55257 25.356 4.02269 25.3518H25.356C25.8239 25.3513 26.2834 25.2277 26.6884 24.9935C27.0934 24.7592 27.4297 24.4226 27.6634 24.0173C27.8971 23.612 28.0201 23.1523 28.02 22.6844C28.0198 22.2166 27.8966 21.757 27.6627 21.3518Z" stroke="#AD9103" stroke-width="2.66667" stroke-linecap="round" stroke-linejoin="round"/>
</svg>
