<svg width="30" height="27" viewBox="0 0 30 27" fill="none" xmlns="http://www.w3.org/2000/svg">
<path d="M27.6627 21.3519L16.996 2.68524C16.7634 2.27484 16.4262 1.93349 16.0186 1.69599C15.611 1.4585 15.1477 1.33337 14.676 1.33337C14.2043 1.33337 13.741 1.4585 13.3335 1.69599C12.9259 1.93349 12.5886 2.27484 12.356 2.68524L1.68936 21.3519C1.45427 21.759 1.331 22.2211 1.33204 22.6912C1.33308 23.1614 1.4584 23.6229 1.69529 24.029C1.93218 24.4351 2.27222 24.7714 2.68095 25.0037C3.08968 25.236 3.55257 25.3561 4.02269 25.3519H25.356C25.8239 25.3514 26.2834 25.2279 26.6884 24.9936C27.0934 24.7594 27.4297 24.4227 27.6634 24.0174C27.8971 23.6121 28.0201 23.1524 28.02 22.6846C28.0198 22.2167 27.8966 21.7571 27.6627 21.3519Z" stroke="#AD9103" stroke-width="2.66667" stroke-linecap="round" stroke-linejoin="round"/>
</svg>
