<svg width="30" height="21" viewBox="0 0 30 21" fill="none" xmlns="http://www.w3.org/2000/svg">
<path d="M5.33175 18.3244C4.10894 17.4725 3.10794 16.34 2.41248 15.0219C1.71702 13.7038 1.34733 12.2383 1.33434 10.748C1.32135 9.25767 1.66542 7.78594 2.33779 6.45588C3.01016 5.12582 3.99126 3.97611 5.19903 3.10293C6.40679 2.22975 7.8061 1.6585 9.27989 1.43695C10.7537 1.21541 12.2591 1.35002 13.6702 1.82952C15.0813 2.30902 16.3571 3.11947 17.3908 4.19307C18.4244 5.26667 19.186 6.5722 19.6117 8.00044H21.9984C23.4134 8.00101 24.7826 8.50162 25.8642 9.41384C26.9458 10.3261 27.6703 11.5912 27.9096 12.9858C28.1489 14.3803 27.8876 15.8146 27.1719 17.0352C26.4563 18.2558 25.3322 19.1842 23.9984 19.6564" stroke="#1E293B" stroke-width="2.66667" stroke-linecap="round" stroke-linejoin="round"/>
</svg>
