<svg width="30" height="21" viewBox="0 0 30 21" fill="none" xmlns="http://www.w3.org/2000/svg">
<path d="M3.9972 17.1952C3.00658 16.183 2.25929 14.9588 1.81191 13.6151C1.36453 12.2714 1.22881 10.8435 1.41501 9.43955C1.60122 8.03563 2.10447 6.69249 2.88666 5.51187C3.66884 4.33125 4.70944 3.34411 5.92964 2.62522C7.14984 1.90634 8.51763 1.47456 9.92942 1.36259C11.3412 1.25062 12.76 1.4614 14.0782 1.97897C15.3965 2.49653 16.5797 3.3073 17.5382 4.34987C18.4967 5.39244 19.2054 6.63946 19.6105 7.99649H21.9972C23.2845 7.99634 24.5378 8.41025 25.5719 9.17707C26.6059 9.9439 27.3659 11.023 27.7396 12.2549C28.1132 13.4868 28.0808 14.8063 27.647 16.0183C27.2132 17.2304 26.401 18.2708 25.3305 18.9858" stroke="#E12204" stroke-width="2.66667" stroke-linecap="round" stroke-linejoin="round"/>
</svg>
