<svg width="113" height="161" viewBox="0 0 113 161" fill="none" xmlns="http://www.w3.org/2000/svg">
<path d="M56.4521 0.65625C74.8734 0.65625 88.7175 7.33124 98.0928 20.6387C107.495 33.9886 112.246 53.9454 112.246 80.6162C112.246 108.226 107.615 128.317 98.4717 141.016C89.3554 153.673 75.3898 160.04 56.4521 160.04C37.9566 160.04 24.0953 153.401 14.7568 140.164C5.38873 126.89 0.65625 107.071 0.65625 80.6143C0.656277 52.8628 5.28625 32.6468 14.4336 19.8398C23.5493 7.07628 37.5142 0.656353 56.4521 0.65625ZM56.4512 33.1309C53.694 33.1309 51.3074 34.0245 49.3281 35.8135C47.3627 37.5899 45.8348 40.2161 44.709 43.6309C42.4612 50.4435 41.3604 62.8014 41.3604 80.6162C41.3604 97.7363 42.3933 109.769 44.502 116.634L44.709 117.282C45.8353 120.663 47.3649 123.263 49.3311 125.021C51.3106 126.791 53.6963 127.674 56.4512 127.674C59.2446 127.674 61.655 126.762 63.6436 124.935C65.6175 123.121 67.1406 120.439 68.249 116.952C70.457 110.003 71.54 97.8654 71.54 80.6162C71.54 63.8375 70.5063 51.8364 68.4033 44.6885L68.1963 44.0117L67.9805 43.3584C66.8782 40.1373 65.4215 37.6392 63.5811 35.9141C61.6029 34.0599 59.2141 33.1309 56.4512 33.1309Z" fill="#54F4FC" stroke="#1E293B" stroke-width="1.31279"/>
</svg>
