<svg width="24" height="30" viewBox="0 0 24 30" fill="none" xmlns="http://www.w3.org/2000/svg">
<path d="M22.6673 16.0006C22.6673 22.6672 18.0007 26.0006 12.454 27.9339C12.1635 28.0323 11.848 28.0276 11.5607 27.9206C6.00065 26.0006 1.33398 22.6672 1.33398 16.0006V6.66725C1.33398 6.31362 1.47446 5.97449 1.72451 5.72444C1.97456 5.47439 2.3137 5.33391 2.66732 5.33391C5.33398 5.33391 8.66732 3.73391 10.9873 1.70725C11.2698 1.46591 11.6291 1.33331 12.0007 1.33331C12.3722 1.33331 12.7315 1.46591 13.014 1.70725C15.3473 3.74725 18.6673 5.33391 21.334 5.33391C21.6876 5.33391 22.0267 5.47439 22.2768 5.72444C22.5268 5.97449 22.6673 6.31362 22.6673 6.66725V16.0006Z" stroke="#E12204" stroke-width="2.66667" stroke-linecap="round" stroke-linejoin="round"/>
</svg>
