<svg width="30" height="16" viewBox="0 0 30 16" fill="none" xmlns="http://www.w3.org/2000/svg">
<path d="M15.7694 1.57379C15.422 1.41532 15.0446 1.33331 14.6627 1.33331C14.2809 1.33331 13.9035 1.41532 13.556 1.57379L2.12938 6.77379C1.89278 6.87811 1.69162 7.04899 1.5504 7.2656C1.40917 7.48221 1.33398 7.73521 1.33398 7.99379C1.33398 8.25237 1.40917 8.50537 1.5504 8.72198C1.69162 8.93859 1.89278 9.10946 2.12938 9.21379L13.5694 14.4271C13.9168 14.5856 14.2942 14.6676 14.676 14.6676C15.0579 14.6676 15.4353 14.5856 15.7827 14.4271L27.2227 9.22712C27.4593 9.1228 27.6605 8.95192 27.8017 8.73531C27.9429 8.5187 28.0181 8.2657 28.0181 8.00712C28.0181 7.74854 27.9429 7.49554 27.8017 7.27893C27.6605 7.06232 27.4593 6.89145 27.2227 6.78712L15.7694 1.57379Z" stroke="#1E293B" stroke-width="2.66667" stroke-linecap="round" stroke-linejoin="round"/>
</svg>
