<svg width="30" height="16" viewBox="0 0 30 16" fill="none" xmlns="http://www.w3.org/2000/svg">
<path d="M15.7694 1.57373C15.422 1.41526 15.0446 1.33325 14.6627 1.33325C14.2809 1.33325 13.9035 1.41526 13.556 1.57373L2.12938 6.77373C1.89278 6.87805 1.69162 7.04893 1.5504 7.26554C1.40917 7.48215 1.33398 7.73515 1.33398 7.99373C1.33398 8.25231 1.40917 8.50531 1.5504 8.72192C1.69162 8.93853 1.89278 9.1094 2.12938 9.21373L13.5694 14.4271C13.9168 14.5855 14.2942 14.6675 14.676 14.6675C15.0579 14.6675 15.4353 14.5855 15.7827 14.4271L27.2227 9.22706C27.4593 9.12274 27.6605 8.95186 27.8017 8.73525C27.9429 8.51864 28.0181 8.26564 28.0181 8.00706C28.0181 7.74848 27.9429 7.49548 27.8017 7.27887C27.6605 7.06226 27.4593 6.89139 27.2227 6.78706L15.7694 1.57373Z" stroke="#1E293B" stroke-width="2.66667" stroke-linecap="round" stroke-linejoin="round"/>
</svg>
