<svg width="22" height="22" viewBox="0 0 22 22" fill="none" xmlns="http://www.w3.org/2000/svg">
<path d="M10.8291 16.0006L14.1624 19.3339C14.6928 19.8644 15.4123 20.1624 16.1624 20.1624C16.9126 20.1624 17.632 19.8644 18.1624 19.3339C18.6928 18.8035 18.9908 18.0841 18.9908 17.3339C18.9908 16.5838 18.6928 15.8644 18.1624 15.3339L12.9891 10.1606C12.2391 9.41152 11.2224 8.99078 10.1624 8.99078C9.10241 8.99078 8.08575 9.41152 7.33575 10.1606L6.16241 11.3339C5.63198 11.8644 4.91256 12.1624 4.16241 12.1624C3.41227 12.1624 2.69284 11.8644 2.16241 11.3339C1.63198 10.8035 1.33398 10.0841 1.33398 9.33392C1.33398 8.58378 1.63198 7.86436 2.16241 7.33392L5.90908 3.58726C7.1254 2.37412 8.71161 1.60133 10.4166 1.39122C12.1216 1.18111 13.848 1.5457 15.3224 2.42726L15.9491 2.80059C16.5168 3.14324 17.1918 3.26208 17.8424 3.13392L20.1624 2.66726" stroke="#1E293B" stroke-width="2.66667" stroke-linecap="round" stroke-linejoin="round"/>
</svg>
