<svg width="30" height="21" viewBox="0 0 30 21" fill="none" xmlns="http://www.w3.org/2000/svg">
<path d="M5.33175 18.3245C4.10894 17.4725 3.10794 16.3401 2.41248 15.022C1.71702 13.7039 1.34733 12.2383 1.33434 10.748C1.32135 9.25776 1.66542 7.78602 2.33779 6.45596C3.01016 5.1259 3.99126 3.97619 5.19903 3.10301C6.40679 2.22984 7.8061 1.65858 9.27989 1.43704C10.7537 1.21549 12.2591 1.3501 13.6702 1.8296C15.0813 2.3091 16.3571 3.11955 17.3908 4.19315C18.4244 5.26675 19.186 6.57228 19.6117 8.00053H21.9984C23.4134 8.0011 24.7826 8.50171 25.8642 9.41393C26.9458 10.3261 27.6703 11.5913 27.9096 12.9858C28.1489 14.3804 27.8876 15.8147 27.1719 17.0353C26.4563 18.2559 25.3322 19.1843 23.9984 19.6565" stroke="#1E293B" stroke-width="2.66667" stroke-linecap="round" stroke-linejoin="round"/>
</svg>
